<?xml version="1.0" encoding="windows-1252"?>
<!-- Generator: Adobe Illustrator 19.1.0, SVG Export Plug-In . SVG Version: 6.00 Build 0)  -->
<svg version="1.1" id="Capa_1" xmlns="http://www.w3.org/2000/svg" xmlns:xlink="http://www.w3.org/1999/xlink" x="0px" y="0px" viewBox="0 0 512 512" style="enable-background:new 0 0 512 512;" xml:space="preserve">
<g>
	<g>
		<path style="fill:#B9BBC1;" d="M416,0H64c-8.82,0-16,7.176-16,16v448c0,8.82,7.18,16,16,16h352c8.82,0,16-7.18,16-16V16    C432,7.176,424.82,0,416,0z"/>
	</g>
	<g>
		<path style="fill:#D8DCE1;" d="M384,32H32c-8.82,0-16,7.176-16,16v448c0,8.82,7.18,16,16,16h352c8.82,0,16-7.18,16-16V48    C400,39.176,392.82,32,384,32z"/>
	</g>
	<g>
		<g>
			<g>
				<path style="fill:#5C546A;" d="M328,120H72c-4.422,0-8-3.582-8-8s3.578-8,8-8h256c4.422,0,8,3.582,8,8S332.422,120,328,120z"/>
			</g>
		</g>
		<g>
			<g>
				<path style="fill:#8B8996;" d="M328,216H72c-4.422,0-8-3.578-8-8s3.578-8,8-8h256c4.422,0,8,3.578,8,8S332.422,216,328,216z"/>
			</g>
		</g>
		<g>
			<g>
				<path style="fill:#B9BBC1;" d="M328,440H72c-4.422,0-8-3.578-8-8s3.578-8,8-8h256c4.422,0,8,3.578,8,8S332.422,440,328,440z"/>
			</g>
		</g>
		<g>
			<g>
				<path style="fill:#8B8996;" d="M328,312H72c-4.422,0-8-3.578-8-8s3.578-8,8-8h256c4.422,0,8,3.578,8,8S332.422,312,328,312z"/>
			</g>
		</g>
		<g>
			<g>
				<path style="fill:#5C546A;" d="M136,152H72c-4.422,0-8-3.582-8-8c0-4.418,3.578-8,8-8h64c4.422,0,8,3.582,8,8      C144,148.418,140.422,152,136,152z"/>
			</g>
		</g>
		<g>
			<g>
				<path style="fill:#5C546A;" d="M328,152H168c-4.422,0-8-3.582-8-8c0-4.418,3.578-8,8-8h160c4.422,0,8,3.582,8,8      C336,148.418,332.422,152,328,152z"/>
			</g>
		</g>
		<g>
			<g>
				<path style="fill:#8B8996;" d="M264,184H72c-4.422,0-8-3.578-8-8s3.578-8,8-8h192c4.422,0,8,3.578,8,8S268.422,184,264,184z"/>
			</g>
		</g>
		<g>
			<g>
				<path style="fill:#8B8996;" d="M328,184h-32c-4.422,0-8-3.578-8-8s3.578-8,8-8h32c4.422,0,8,3.578,8,8S332.422,184,328,184z"/>
			</g>
		</g>
		<g>
			<g>
				<path style="fill:#B9BBC1;" d="M328,408H72c-4.422,0-8-3.578-8-8c0-4.422,3.578-8,8-8h256c4.422,0,8,3.578,8,8      C336,404.422,332.422,408,328,408z"/>
			</g>
		</g>
		<g>
			<g>
				<path style="fill:#8B8996;" d="M136,344H72c-4.422,0-8-3.578-8-8s3.578-8,8-8h64c4.422,0,8,3.578,8,8S140.422,344,136,344z"/>
			</g>
		</g>
		<g>
			<g>
				<path style="fill:#B9BBC1;" d="M328,344H168c-4.422,0-8-3.578-8-8s3.578-8,8-8h160c4.422,0,8,3.578,8,8S332.422,344,328,344z"/>
			</g>
		</g>
		<g>
			<g>
				<path style="fill:#B9BBC1;" d="M264,376H72c-4.422,0-8-3.578-8-8s3.578-8,8-8h192c4.422,0,8,3.578,8,8S268.422,376,264,376z"/>
			</g>
		</g>
		<g>
			<g>
				<path style="fill:#B9BBC1;" d="M328,376h-32c-4.422,0-8-3.578-8-8s3.578-8,8-8h32c4.422,0,8,3.578,8,8S332.422,376,328,376z"/>
			</g>
		</g>
		<g>
			<g>
				<path style="fill:#8B8996;" d="M176,248H72c-4.422,0-8-3.578-8-8s3.578-8,8-8h104c4.422,0,8,3.578,8,8S180.422,248,176,248z"/>
			</g>
		</g>
		<g>
			<g>
				<path style="fill:#8B8996;" d="M328,248H208c-4.422,0-8-3.578-8-8s3.578-8,8-8h120c4.422,0,8,3.578,8,8S332.422,248,328,248z"/>
			</g>
		</g>
		<g>
			<g>
				<path style="fill:#8B8996;" d="M240,280H72c-4.422,0-8-3.578-8-8s3.578-8,8-8h168c4.422,0,8,3.578,8,8S244.422,280,240,280z"/>
			</g>
		</g>
		<g>
			<g>
				<path style="fill:#8B8996;" d="M328,280h-56c-4.422,0-8-3.578-8-8s3.578-8,8-8h56c4.422,0,8,3.578,8,8S332.422,280,328,280z"/>
			</g>
		</g>
	</g>
	<g>
		<g>
			<path style="fill:#8B8996;" d="M448,448l16.337,54.458c2.28,7.602,13.045,7.602,15.325,0L496,448H448z"/>
		</g>
		<g>
			<circle style="fill:#8B8996;" cx="472" cy="176" r="24"/>
		</g>
		<g>
			<rect x="448" y="176" style="fill:#FFD200;" width="48" height="272"/>
		</g>
		<g>
			<rect x="448" y="176" style="fill:#FF9600;" width="24" height="272"/>
		</g>
		<g>
			<path style="fill:#5C546A;" d="M457.6,480l6.737,22.458c2.28,7.602,13.045,7.602,15.325,0L486.4,480H457.6z"/>
		</g>
	</g>
</g>
<g>
</g>
<g>
</g>
<g>
</g>
<g>
</g>
<g>
</g>
<g>
</g>
<g>
</g>
<g>
</g>
<g>
</g>
<g>
</g>
<g>
</g>
<g>
</g>
<g>
</g>
<g>
</g>
<g>
</g>
</svg>