<svg fill="none" stroke-linecap="square" stroke-miterlimit="10" viewBox="0 0 799.69 119.54" xmlns="http://www.w3.org/2000/svg"><clipPath id="a"><path d="M0 0h799.69v119.54H0V0z"/></clipPath><g clip-path="url(#a)"><path d="M0 0h799.69v119.54H0z" fill="none"/><path d="M100.03 8H268v107.02H100.03z" fill="#fce5cd" fill-rule="evenodd"/><path d="M100.03 8H268v107.02H100.03z" stroke="#757575" stroke-linecap="butt" stroke-linejoin="round"/><path d="M156.52 58.932V45.573h9.016v1.578h-7.25v4.14h6.265v1.579h-6.265v6.062h-1.766zm11.099-11.469v-1.89h1.64v1.89h-1.64zm0 11.469V49.26h1.64v9.672h-1.64zm4.098 0V45.573h1.64v13.359h-1.64zm7.77-1.469.234 1.453q-.687.14-1.234.14-.89 0-1.39-.28-.485-.282-.688-.735-.204-.468-.204-1.937v-5.578h-1.203V49.26h1.203v-2.39l1.625-.985v3.375h1.657v1.266h-1.657v5.672q0 .687.079.89.093.203.28.328.204.11.579.11.266 0 .719-.063zm8.23-1.64 1.687.203q-.406 1.484-1.484 2.312-1.078.813-2.766.813-2.125 0-3.375-1.297-1.234-1.313-1.234-3.672 0-2.453 1.25-3.797 1.266-1.344 3.266-1.344 1.937 0 3.156 1.328 1.234 1.313 1.234 3.703v.438h-7.219q.094 1.594.907 2.453.812.844 2.015.844.907 0 1.547-.469.64-.484 1.016-1.516zm-5.39-2.657h5.406q-.11-1.218-.625-1.828-.782-.953-2.032-.953-1.125 0-1.906.766-.766.75-.844 2.015zm9.125 5.766V49.26h1.469v1.469q.562-1.031 1.031-1.36.484-.328 1.063-.328.828 0 1.687.532l-.563 1.515q-.609-.36-1.203-.36-.546 0-.968.329t-.61.89q-.281.876-.281 1.922v5.063h-1.625zm9.116 0 5.125-13.359h1.906l5.469 13.359h-2.016l-1.547-4.047h-5.593l-1.47 4.047h-1.874zm3.86-5.484h4.53l-1.406-3.703q-.625-1.688-.937-2.766-.266 1.281-.719 2.547l-1.469 3.922zM117.53 81.747q-1.172-1.469-1.984-3.438-.797-1.984-.797-4.093 0-1.86.61-3.563.702-1.969 2.171-3.937h1q-.938 1.625-1.25 2.328-.469 1.078-.75 2.25-.328 1.453-.328 2.937 0 3.75 2.328 7.516h-1zM125.06 75.731l2.188.36q-.422 1.202-1.329 1.843-.906.625-2.28.625-2.157 0-3.204-1.422-.812-1.125-.812-2.86 0-2.062 1.078-3.218 1.078-1.172 2.719-1.172 1.859 0 2.921 1.219 1.078 1.219 1.032 3.75h-5.5q.015.969.515 1.516.516.546 1.281.546.516 0 .86-.28.36-.282.531-.907zm.125-2.219q-.016-.953-.484-1.453t-1.141-.5q-.719 0-1.187.531-.47.516-.47 1.422h3.282zm11.523 4.86h-2.203v-4.235q0-1.344-.14-1.734-.141-.406-.454-.625t-.765-.219q-.563 0-1.016.313t-.625.828-.172 1.906v3.765h-2.187v-8.296h2.03v1.218q1.095-1.406 2.735-1.406.735 0 1.328.266.61.25.907.656.312.406.437.922t.125 1.484v5.157zm9.46-5.844-2.171.39q-.11-.656-.5-.984-.375-.328-1-.328-.813 0-1.313.578-.484.563-.484 1.89 0 1.47.5 2.079t1.328.61q.625 0 1.016-.345.406-.359.578-1.234l2.156.375q-.344 1.484-1.297 2.25-.953.75-2.547.75-1.828 0-2.906-1.14-1.078-1.157-1.078-3.188 0-2.063 1.078-3.203 1.094-1.14 2.938-1.14 1.515 0 2.406.655.906.641 1.297 1.985zm1.15 1.578q0-1.094.53-2.11.547-1.03 1.532-1.562 1-.547 2.219-.547 1.875 0 3.078 1.219t1.203 3.094-1.219 3.125q-1.203 1.234-3.047 1.234-1.14 0-2.187-.516-1.032-.515-1.579-1.515-.53-1-.53-2.422zm2.25.11q0 1.234.577 1.89.594.656 1.454.656t1.437-.656q.594-.656.594-1.906 0-1.22-.594-1.875-.578-.657-1.437-.657t-1.454.657q-.578.656-.578 1.89zm15.647 4.155h-2.047v-1.218q-.5.703-1.203 1.062-.687.344-1.39.344-1.422 0-2.453-1.156-1.016-1.156-1.016-3.22 0-2.108.984-3.202 1-1.094 2.516-1.094 1.39 0 2.406 1.156v-4.125h2.203v11.453zm-5.86-4.328q0 1.328.36 1.922.532.86 1.485.86.765 0 1.297-.641.53-.656.53-1.937 0-1.422-.515-2.047-.515-.641-1.328-.641-.781 0-1.312.625-.516.625-.516 1.86zm12.82 1.688 2.188.36q-.421 1.202-1.328 1.843-.906.625-2.28.625-2.157 0-3.204-1.422-.813-1.125-.813-2.86 0-2.062 1.079-3.218 1.078-1.172 2.718-1.172 1.86 0 2.922 1.219 1.078 1.219 1.031 3.75h-5.5q.016.969.516 1.515.516.547 1.281.547.516 0 .86-.28.36-.282.53-.907zm.126-2.219q-.016-.953-.484-1.453t-1.141-.5q-.719 0-1.188.531-.468.516-.468 1.422h3.28zm6.07 4.86h-2.187v-8.297h2.03v1.171q.532-.828.938-1.093.422-.266.954-.266.75 0 1.453.406l-.688 1.922q-.547-.36-1.031-.36-.453 0-.781.25-.313.25-.5.923-.188.656-.188 2.78v2.563zm3.883-3.063v-2.188h4.313v2.188h-4.313zm13.188 3.062h-2.047v-1.218q-.5.703-1.203 1.062-.688.344-1.39.344-1.422 0-2.454-1.156-1.015-1.156-1.015-3.22 0-2.108.984-3.202 1-1.094 2.516-1.094 1.39 0 2.406 1.156v-4.125h2.203v11.453zm-5.86-4.328q0 1.328.36 1.922.531.86 1.484.86.766 0 1.297-.641.532-.656.532-1.937 0-1.422-.516-2.047-.516-.641-1.328-.641-.781 0-1.313.625-.515.625-.515 1.86zm12.82 1.688 2.188.36q-.422 1.202-1.328 1.843-.906.625-2.281.625-2.156 0-3.203-1.422-.813-1.125-.813-2.86 0-2.062 1.078-3.218 1.078-1.172 2.72-1.172 1.858 0 2.921 1.219 1.078 1.219 1.031 3.75h-5.5q.016.969.516 1.515.515.547 1.281.547.516 0 .86-.28.359-.282.53-.907zm.126-2.219q-.016-.953-.485-1.453t-1.14-.5q-.72 0-1.188.531-.469.516-.469 1.422h3.282zm11.21-.984-2.171.39q-.11-.656-.5-.984-.375-.328-1-.328-.813 0-1.313.578-.484.562-.484 1.89 0 1.47.5 2.079t1.328.609q.625 0 1.016-.344.406-.36.578-1.234l2.156.375q-.344 1.484-1.297 2.25-.953.75-2.547.75-1.828 0-2.906-1.14-1.078-1.157-1.078-3.188 0-2.063 1.078-3.203 1.094-1.14 2.937-1.14 1.516 0 2.407.655.906.64 1.296 1.985zm1.149 1.578q0-1.094.531-2.11.547-1.03 1.531-1.562 1-.547 2.22-.547 1.874 0 3.077 1.219t1.203 3.094-1.218 3.125q-1.203 1.234-3.047 1.234-1.14 0-2.188-.516-1.03-.515-1.578-1.515-.531-1-.531-2.422zm2.25.11q0 1.234.578 1.89.594.656 1.453.656t1.438-.656q.593-.656.593-1.906 0-1.22-.593-1.875-.578-.657-1.438-.657t-1.453.657q-.578.656-.578 1.89zm15.648 4.155h-2.047v-1.218q-.5.703-1.203 1.062-.687.344-1.39.344-1.422 0-2.454-1.156-1.015-1.157-1.015-3.22 0-2.109.984-3.202 1-1.094 2.516-1.094 1.39 0 2.406 1.156v-4.125h2.203v11.453zm-5.86-4.328q0 1.328.36 1.922.531.86 1.484.86.766 0 1.297-.641.532-.656.532-1.938 0-1.421-.516-2.046-.516-.641-1.328-.641-.781 0-1.313.625-.515.625-.515 1.86zm12.82 1.688 2.188.36q-.422 1.202-1.328 1.843-.906.625-2.281.625-2.156 0-3.203-1.422-.813-1.125-.813-2.86 0-2.062 1.078-3.218 1.078-1.172 2.72-1.172 1.858 0 2.921 1.219 1.078 1.219 1.031 3.75h-5.5q.016.969.516 1.515.515.547 1.281.547.516 0 .86-.281.359-.281.53-.906zm.126-2.219q-.016-.953-.485-1.453t-1.14-.5q-.72 0-1.188.531-.469.516-.469 1.422h3.282zm6.07 4.86h-2.188v-8.298h2.032v1.172q.53-.828.937-1.093.422-.266.953-.266.75 0 1.453.406l-.687 1.922q-.547-.36-1.031-.36-.453 0-.782.25-.312.25-.5.923-.187.656-.187 2.78v2.563zM250.9 81.747h-1.016q2.344-3.766 2.344-7.516 0-1.468-.344-2.922-.265-1.171-.734-2.25-.312-.703-1.266-2.343h1.016q1.469 1.969 2.172 3.937.594 1.703.594 3.563 0 2.11-.813 4.094-.797 1.968-1.953 3.437z" fill="#000"/><path d="M305.58 8h167.97v107.02H305.58z" fill="#fce5cd" fill-rule="evenodd"/><path d="M305.58 8h167.97v107.02H305.58z" stroke="#757575" stroke-linecap="butt" stroke-linejoin="round"/><path d="M361.55 58.932V45.573h9.016v1.578h-7.25v4.14h6.265v1.579h-6.265v6.062h-1.766zm11.099-11.469v-1.89h1.64v1.89h-1.64zm0 11.469V49.26h1.64v9.672h-1.64zm4.098 0V45.573h1.64v13.359h-1.64zm7.77-1.469.234 1.453q-.687.14-1.234.14-.89 0-1.39-.28-.485-.282-.688-.735-.203-.468-.203-1.937v-5.578h-1.204V49.26h1.204v-2.39l1.625-.985v3.375h1.656v1.266h-1.656v5.672q0 .687.078.89.093.203.28.328.204.11.58.11.265 0 .718-.063zm8.23-1.64 1.688.203q-.407 1.484-1.485 2.312-1.078.813-2.765.813-2.125 0-3.375-1.297-1.235-1.313-1.235-3.672 0-2.453 1.25-3.797 1.266-1.344 3.266-1.344 1.937 0 3.156 1.328 1.234 1.313 1.234 3.703v.438h-7.218q.093 1.594.906 2.453.812.844 2.015.844.907 0 1.547-.469.64-.484 1.016-1.516zm-5.39-2.657h5.406q-.11-1.218-.625-1.828-.782-.953-2.032-.953-1.125 0-1.906.766-.765.75-.844 2.015zm9.125 5.766V49.26h1.469v1.469q.562-1.031 1.031-1.36.484-.328 1.063-.328.828 0 1.687.532l-.562 1.515q-.61-.36-1.204-.36-.546 0-.968.329t-.61.89q-.28.876-.28 1.922v5.063h-1.626zm11.537 0V45.573h5.016q1.53 0 2.453.406t1.437 1.25q.532.844.532 1.766 0 .86-.47 1.625-.452.75-1.39 1.203 1.203.36 1.86 1.219t.656 2.015q0 .938-.406 1.75-.391.797-.985 1.235-.578.437-1.453.672-.875.218-2.156.218h-5.094zm1.781-7.75h2.875q1.188 0 1.688-.14.672-.204 1.015-.672t.344-1.172q0-.657-.328-1.157-.312-.515-.906-.703t-2.031-.187H409.8v4.031zm0 6.172h3.313q.86 0 1.203-.063.61-.109 1.016-.359.421-.266.687-.75t.266-1.125q0-.75-.391-1.297-.375-.547-1.063-.765-.671-.235-1.953-.235H409.8v4.594zM356.87 81.747q-1.172-1.469-1.984-3.438-.797-1.984-.797-4.093 0-1.86.61-3.563.702-1.969 2.171-3.937h1q-.938 1.625-1.25 2.328-.469 1.078-.75 2.25-.328 1.453-.328 2.937 0 3.75 2.328 7.516h-1zM364.4 75.731l2.188.36q-.422 1.202-1.329 1.843-.906.625-2.28.625-2.157 0-3.204-1.422-.812-1.125-.812-2.86 0-2.062 1.078-3.218 1.078-1.172 2.718-1.172 1.86 0 2.922 1.219 1.078 1.219 1.032 3.75h-5.5q.015.969.515 1.516.516.546 1.281.546.516 0 .86-.28.36-.282.531-.907zm.125-2.219q-.016-.953-.484-1.453t-1.141-.5q-.719 0-1.187.531-.47.516-.47 1.422h3.282zm11.523 4.86h-2.203v-4.235q0-1.344-.14-1.734-.141-.406-.454-.625t-.765-.219q-.563 0-1.016.313t-.625.828-.172 1.906v3.765h-2.187v-8.296h2.03v1.218q1.095-1.406 2.735-1.406.735 0 1.328.266.61.25.907.656.312.406.437.922t.125 1.484v5.157zm9.46-5.844-2.171.39q-.11-.656-.5-.984-.375-.328-1-.328-.813 0-1.313.578-.484.563-.484 1.89 0 1.47.5 2.079t1.328.61q.625 0 1.016-.345.406-.359.578-1.234l2.156.375q-.344 1.484-1.297 2.25-.953.75-2.547.75-1.828 0-2.906-1.14-1.078-1.157-1.078-3.188 0-2.063 1.078-3.203 1.094-1.14 2.938-1.14 1.515 0 2.406.655.906.641 1.297 1.985zm1.15 1.578q0-1.094.53-2.11.547-1.03 1.532-1.562 1-.547 2.219-.547 1.875 0 3.078 1.219t1.203 3.094-1.22 3.125q-1.202 1.234-3.046 1.234-1.14 0-2.187-.516-1.032-.515-1.579-1.515-.53-1-.53-2.422zm2.25.11q0 1.234.577 1.89.594.656 1.454.656t1.437-.656q.594-.656.594-1.906 0-1.22-.594-1.875-.578-.657-1.437-.657t-1.454.657q-.578.656-.578 1.89zm15.647 4.155h-2.047v-1.218q-.5.703-1.203 1.062-.687.344-1.39.344-1.422 0-2.453-1.156-1.016-1.156-1.016-3.22 0-2.108.984-3.202 1-1.094 2.516-1.094 1.39 0 2.406 1.156v-4.125h2.203v11.453zm-5.86-4.328q0 1.328.36 1.922.532.86 1.485.86.765 0 1.297-.641.53-.656.53-1.937 0-1.422-.515-2.047-.515-.641-1.328-.641-.781 0-1.312.625-.516.625-.516 1.86zm12.82 1.688 2.188.36q-.421 1.202-1.328 1.843-.906.625-2.28.625-2.157 0-3.204-1.422-.813-1.125-.813-2.86 0-2.062 1.079-3.218 1.078-1.172 2.718-1.172 1.86 0 2.922 1.219 1.078 1.219 1.031 3.75h-5.5q.016.969.516 1.515.516.547 1.281.547.516 0 .86-.28.36-.282.53-.907zm.126-2.219q-.016-.953-.484-1.453t-1.141-.5q-.719 0-1.188.531-.468.516-.468 1.422h3.28zm6.07 4.86h-2.187v-8.297h2.03v1.171q.532-.828.938-1.093.422-.266.954-.266.75 0 1.453.406l-.688 1.922q-.547-.36-1.031-.36-.453 0-.781.25-.313.25-.5.923-.188.656-.188 2.78v2.563zM422.67 81.747h-1.016q2.344-3.766 2.344-7.516 0-1.468-.344-2.922-.265-1.171-.734-2.25-.312-.703-1.266-2.343h1.016q1.469 1.969 2.172 3.937.594 1.703.594 3.563 0 2.11-.813 4.094-.797 1.968-1.953 3.437z" fill="#000"/><path d="M525.01 8h167.97v107.02H525.01z" fill="#fce5cd" fill-rule="evenodd"/><path d="M525.01 8h167.97v107.02H525.01z" stroke="#757575" stroke-linecap="butt" stroke-linejoin="round"/><path d="M580.47 58.932V45.573h9.016v1.578h-7.25v4.14h6.265v1.579h-6.265v6.062h-1.766zm11.099-11.469v-1.89h1.64v1.89h-1.64zm0 11.469V49.26h1.64v9.672h-1.64zm4.098 0V45.573h1.64v13.359h-1.64zm7.77-1.469.234 1.453q-.687.14-1.234.14-.89 0-1.39-.28-.485-.282-.688-.735-.203-.468-.203-1.937v-5.578h-1.204V49.26h1.204v-2.39l1.625-.985v3.375h1.656v1.266h-1.656v5.672q0 .687.078.89.093.203.28.328.204.11.58.11.265 0 .718-.063zm8.23-1.64 1.688.203q-.407 1.484-1.485 2.312-1.078.813-2.766.813-2.125 0-3.375-1.297-1.234-1.313-1.234-3.672 0-2.453 1.25-3.797 1.266-1.344 3.266-1.344 1.937 0 3.156 1.328 1.234 1.313 1.234 3.703v.438h-7.218q.093 1.594.906 2.453.812.844 2.015.844.907 0 1.547-.469.64-.484 1.016-1.516zm-5.39-2.657h5.406q-.11-1.218-.625-1.828-.782-.953-2.032-.953-1.125 0-1.906.766-.765.75-.844 2.015zm9.125 5.766V49.26h1.469v1.469q.562-1.031 1.031-1.36.484-.328 1.063-.328.828 0 1.687.532l-.562 1.515q-.61-.36-1.203-.36-.547 0-.97.329t-.609.89q-.28.876-.28 1.922v5.063h-1.626zm21.146-4.688 1.766.454q-.563 2.172-2 3.328-1.438 1.14-3.531 1.14-2.157 0-3.516-.875-1.344-.89-2.063-2.547-.703-1.671-.703-3.593 0-2.078.797-3.625.797-1.563 2.266-2.36 1.484-.812 3.25-.812 2 0 3.36 1.015 1.374 1.016 1.905 2.875l-1.734.407q-.469-1.454-1.36-2.11-.874-.672-2.203-.672-1.546 0-2.578.735t-1.453 1.984q-.422 1.234-.422 2.563 0 1.703.5 2.968t1.547 1.907q1.047.625 2.266.625 1.484 0 2.515-.86t1.391-2.547zM576.3 81.747q-1.172-1.469-1.984-3.438-.797-1.984-.797-4.093 0-1.86.61-3.563.702-1.969 2.171-3.937h1q-.938 1.625-1.25 2.328-.469 1.078-.75 2.25-.328 1.453-.328 2.937 0 3.75 2.328 7.516h-1zM586.64 78.372h-2.047v-1.219q-.5.703-1.203 1.063-.688.343-1.39.343-1.422 0-2.454-1.156-1.015-1.156-1.015-3.219 0-2.109.984-3.203 1-1.093 2.516-1.093 1.39 0 2.406 1.156v-4.125h2.203v11.453zm-5.86-4.328q0 1.328.36 1.922.531.86 1.484.86.766 0 1.297-.641.532-.657.532-1.938 0-1.422-.516-2.047-.516-.64-1.328-.64-.781 0-1.313.625-.515.625-.515 1.859zm12.82 1.687 2.188.36q-.422 1.203-1.328 1.844-.906.625-2.281.625-2.156 0-3.203-1.422-.813-1.125-.813-2.86 0-2.062 1.078-3.219 1.078-1.171 2.72-1.171 1.858 0 2.921 1.218 1.078 1.22 1.031 3.75h-5.5q.016.97.516 1.516.515.547 1.281.547.516 0 .86-.281.359-.282.53-.907zm.126-2.218q-.016-.954-.485-1.454t-1.14-.5q-.72 0-1.188.532-.469.515-.469 1.422h3.282zm11.21-.985-2.171.39q-.11-.655-.5-.984-.375-.328-1-.328-.813 0-1.313.578-.484.563-.484 1.891 0 1.469.5 2.078t1.328.61q.625 0 1.016-.344.406-.36.578-1.235l2.156.375q-.344 1.485-1.297 2.25-.953.75-2.547.75-1.828 0-2.906-1.14-1.078-1.156-1.078-3.188 0-2.062 1.078-3.203 1.094-1.14 2.937-1.14 1.516 0 2.407.656.906.64 1.296 1.984zm1.149 1.578q0-1.093.531-2.11.547-1.03 1.531-1.562 1-.546 2.22-.546 1.874 0 3.077 1.218t1.203 3.094-1.218 3.125q-1.203 1.235-3.047 1.235-1.14 0-2.188-.516-1.031-.516-1.578-1.516-.531-1-.531-2.422zm2.25.11q0 1.234.578 1.89.594.657 1.453.657t1.438-.657q.593-.656.593-1.906 0-1.219-.593-1.875-.578-.656-1.438-.656t-1.453.656q-.578.656-.578 1.89zm15.648 4.156h-2.047v-1.219q-.5.703-1.203 1.063-.687.343-1.39.343-1.422 0-2.454-1.156-1.015-1.156-1.015-3.219 0-2.11.984-3.203 1-1.094 2.516-1.094 1.39 0 2.406 1.157v-4.125h2.203v11.453zm-5.86-4.328q0 1.328.36 1.922.531.86 1.484.86.766 0 1.297-.642.532-.656.532-1.937 0-1.422-.516-2.047-.516-.64-1.328-.64-.781 0-1.313.624-.515.625-.515 1.86zm12.82 1.687 2.188.36q-.422 1.203-1.328 1.843-.906.625-2.281.625-2.156 0-3.203-1.421-.813-1.125-.813-2.86 0-2.062 1.078-3.219 1.078-1.172 2.72-1.172 1.859 0 2.921 1.22 1.078 1.218 1.031 3.75h-5.5q.016.968.516 1.515.515.547 1.281.547.516 0 .86-.281.359-.282.53-.907zm.126-2.219q-.016-.953-.485-1.453t-1.14-.5q-.72 0-1.188.532-.469.515-.469 1.422h3.282zm6.07 4.86h-2.188v-8.297h2.032v1.172q.53-.828.937-1.094.422-.266.953-.266.75 0 1.453.407l-.687 1.922q-.547-.36-1.031-.36-.453 0-.782.25-.312.25-.5.922-.187.656-.187 2.781v2.563zM642.1 81.747h-1.016q2.344-3.766 2.344-7.516 0-1.468-.344-2.922-.265-1.171-.734-2.25-.312-.703-1.266-2.343h1.016q1.469 1.969 2.172 3.937.594 1.703.594 3.563 0 2.11-.813 4.094-.797 1.968-1.953 3.437z" fill="#000"/><path d="m0 57.861 100.28-.913" fill="none"/><path d="m0 57.861 86.576-.789" stroke="red" stroke-linecap="butt" stroke-linejoin="round" stroke-width="4"/><path d="m86.576 57.072-4.457 4.54L94.437 57l-12.4-4.385z" fill="red" fill-rule="evenodd" stroke="red" stroke-linecap="butt" stroke-width="4"/><path d="M268 61.512h37.575" fill="none"/><path d="M268 61.512h23.866" stroke="red" stroke-linecap="butt" stroke-linejoin="round" stroke-width="4"/><path d="m291.86 61.512-4.498 4.498 12.359-4.498-12.36-4.498z" fill="red" fill-rule="evenodd" stroke="red" stroke-linecap="butt" stroke-width="4"/><path d="M473.55 61.512h51.465" fill="none"/><path d="M473.55 61.512h37.756" stroke="red" stroke-linecap="butt" stroke-linejoin="round" stroke-width="4"/><path d="m511.3 61.512-4.498 4.498 12.359-4.498-12.36-4.498z" fill="red" fill-rule="evenodd" stroke="red" stroke-linecap="butt" stroke-width="4"/><path d="m692.98 61.969 100.28-.913" fill="none"/><path d="m692.98 61.969 86.576-.789" stroke="red" stroke-linecap="butt" stroke-linejoin="round" stroke-width="4"/><path d="m779.56 61.18-4.457 4.54 12.318-4.612-12.4-4.385z" fill="red" fill-rule="evenodd" stroke="red" stroke-linecap="butt" stroke-width="4"/></g></svg>