<svg fill="none" stroke-linecap="square" stroke-miterlimit="10" viewBox="0 0 944.25 278.92" xmlns="http://www.w3.org/2000/svg"><clipPath id="a"><path d="M0 0h944.25v278.92H0V0z"/></clipPath><g clip-path="url(#a)"><path d="M0 0h944.25v278.92H0z" fill="none"/><path d="M539.77 49.909c0-24.594 19.937-44.531 44.531-44.531h306.06a44.53 44.53 0 0 1 44.531 44.531v178.12c0 24.594-19.937 44.531-44.531 44.531h-306.06c-24.594 0-44.531-19.937-44.531-44.531z" fill="#f3f3f3" fill-rule="evenodd"/><path d="M539.77 49.909c0-24.594 19.937-44.531 44.531-44.531h306.06a44.53 44.53 0 0 1 44.531 44.531v178.12c0 24.594-19.937 44.531-44.531 44.531h-306.06c-24.594 0-44.531-19.937-44.531-44.531z" stroke="#757575" stroke-linecap="butt" stroke-linejoin="round"/><path d="M653.73 45.341V31.982h5.047q1.328 0 2.031.125.969.172 1.64.64.673.454 1.079 1.282t.406 1.828q0 1.703-1.094 2.89-1.078 1.172-3.922 1.172h-3.422v5.422h-1.765zm1.766-7h3.453q1.718 0 2.437-.64t.719-1.798q0-.843-.422-1.437t-1.125-.781q-.437-.125-1.64-.125h-3.422v4.78zm17.1 3.89 1.687.204q-.406 1.484-1.484 2.312-1.078.813-2.766.813-2.125 0-3.375-1.297-1.234-1.313-1.234-3.672 0-2.453 1.25-3.797 1.265-1.344 3.265-1.344 1.938 0 3.156 1.328 1.235 1.313 1.235 3.703v.438h-7.219q.094 1.594.906 2.453.813.844 2.016.844.906 0 1.547-.469.64-.484 1.015-1.516zm-5.391-2.656h5.406q-.11-1.218-.625-1.828-.781-.953-2.031-.953-1.125 0-1.906.766-.766.75-.844 2.015zm9.126 5.766v-9.672h1.469v1.469q.562-1.031 1.03-1.36.485-.328 1.063-.328.828 0 1.688.532l-.563 1.515q-.61-.36-1.203-.36-.547 0-.969.329t-.609.89q-.281.876-.281 1.922v5.063h-1.625zm17.724-3.547 1.61.219q-.267 1.656-1.36 2.61-1.078.937-2.672.937-1.985 0-3.188-1.297t-1.203-3.719q0-1.578.516-2.75t1.578-1.75q1.062-.594 2.312-.594 1.579 0 2.579.797t1.28 2.266l-1.593.234q-.234-.969-.813-1.453-.578-.5-1.39-.5-1.235 0-2.016.89t-.781 2.813q0 1.953.75 2.844.75.875 1.953.875.969 0 1.61-.594.656-.594.828-1.828zm2.406-1.297q0-2.687 1.484-3.969 1.25-1.078 3.047-1.078 2 0 3.266 1.313 1.265 1.297 1.265 3.61 0 1.859-.562 2.937-.563 1.062-1.64 1.656-1.063.594-2.329.594-2.031 0-3.281-1.297-1.25-1.313-1.25-3.766zm1.687 0q0 1.86.797 2.797.813.922 2.047.922 1.219 0 2.031-.922.813-.937.813-2.844 0-1.797-.813-2.719t-2.03-.921q-1.235 0-2.048.921-.797.907-.797 2.766zm9.298 4.844v-9.672h1.469v1.375q1.062-1.594 3.078-1.594.875 0 1.61.313t1.093.828q.375.5.516 1.203.093.453.093 1.594v5.953h-1.64v-5.89q0-1-.203-1.485-.188-.5-.672-.797t-1.14-.297q-1.048 0-1.813.672-.75.656-.75 2.516v5.28h-1.64zm10.376 0v-9.672h1.469v1.375q1.062-1.594 3.078-1.594.875 0 1.61.313t1.093.828q.375.5.516 1.203.093.453.093 1.594v5.953h-1.64v-5.89q0-1-.203-1.485-.188-.5-.672-.797t-1.14-.297q-1.048 0-1.813.672-.75.656-.75 2.516v5.28h-1.64zm17-3.11 1.688.204q-.406 1.484-1.484 2.312-1.078.813-2.766.813-2.125 0-3.375-1.297-1.234-1.313-1.234-3.672 0-2.453 1.25-3.797 1.266-1.344 3.266-1.344 1.937 0 3.156 1.328 1.234 1.313 1.234 3.703v.438h-7.219q.094 1.594.907 2.453.812.844 2.015.844.907 0 1.547-.469.64-.484 1.016-1.516zm-5.39-2.656h5.407q-.11-1.218-.625-1.828-.782-.953-2.032-.953-1.125 0-1.906.766-.766.75-.844 2.015zm15.454 2.22 1.61.218q-.266 1.656-1.36 2.61-1.078.937-2.672.937-1.984 0-3.187-1.297t-1.203-3.719q0-1.578.515-2.75t1.579-1.75q1.062-.594 2.312-.594 1.578 0 2.578.797t1.281 2.266l-1.593.234q-.235-.968-.813-1.453-.578-.5-1.39-.5-1.235 0-2.016.89t-.781 2.813q0 1.953.75 2.844.75.875 1.953.875.968 0 1.61-.594.655-.593.827-1.828zm6.594 2.077.234 1.453q-.687.141-1.234.141-.89 0-1.39-.281-.485-.281-.688-.735-.203-.468-.203-1.937v-5.578h-1.203v-1.266h1.203v-2.39l1.625-.985v3.375h1.656v1.266h-1.656v5.672q0 .687.078.89.094.203.281.328.203.11.578.11.266 0 .72-.063zm1.605-10v-1.89h1.64v1.89h-1.64zm0 11.47v-9.673h1.64v9.672h-1.64zm3.536-4.844q0-2.688 1.484-3.97 1.25-1.077 3.047-1.077 2 0 3.266 1.312 1.265 1.297 1.265 3.61 0 1.859-.562 2.937-.563 1.063-1.64 1.656-1.063.594-2.329.594-2.031 0-3.281-1.297-1.25-1.312-1.25-3.766zm1.687 0q0 1.859.797 2.796.813.922 2.047.922 1.219 0 2.031-.922.813-.937.813-2.843 0-1.797-.813-2.72t-2.03-.921q-1.235 0-2.048.922-.797.906-.797 2.765zm9.298 4.843V35.67h1.469v1.375q1.062-1.593 3.078-1.593.875 0 1.61.312t1.093.828q.375.5.516 1.203.093.453.093 1.594v5.953h-1.64v-5.89q0-1-.203-1.485-.188-.5-.672-.797t-1.14-.297q-1.048 0-1.813.672-.75.657-.75 2.516v5.281h-1.641zm14.903-2.89 1.625-.25q.125.968.75 1.5.625.515 1.75.515t1.672-.453q.547-.469.547-1.094 0-.546-.485-.875-.328-.218-1.672-.546-1.812-.47-2.515-.797-.688-.328-1.047-.907-.36-.593-.36-1.312 0-.64.297-1.188.297-.562.813-.921.375-.282 1.031-.47.672-.202 1.422-.202 1.14 0 2 .328t1.266.89q.421.563.578 1.5l-1.61.22q-.11-.75-.64-1.173-.516-.422-1.47-.422-1.14 0-1.624.375-.469.375-.469.875 0 .313.188.578.203.266.64.438.235.094 1.438.422 1.75.453 2.437.75t1.078.86.39 1.405q0 .829-.483 1.547-.47.72-1.375 1.125-.907.39-2.047.39-1.875 0-2.875-.78-.985-.782-1.25-2.328zm13.562 1.422.234 1.453q-.687.14-1.234.14-.89 0-1.39-.28-.485-.282-.688-.735-.203-.47-.203-1.938v-5.578h-1.204V35.67h1.204v-2.39l1.625-.984v3.375h1.656v1.265h-1.656v5.672q0 .688.078.89.093.204.28.329.204.11.58.11.265 0 .718-.063zm7.918.28q-.922.766-1.766 1.095-.828.312-1.797.312-1.594 0-2.453-.781t-.86-1.984q0-.72.329-1.297.328-.594.843-.938.532-.36 1.188-.547.469-.125 1.453-.25 1.984-.234 2.922-.562.016-.344.016-.422 0-1-.47-1.422-.624-.547-1.874-.547-1.156 0-1.703.406t-.813 1.422l-1.61-.219q.22-1.015.72-1.64.5-.64 1.453-.985t2.187-.343q1.25 0 2.016.297.781.28 1.14.734.375.437.516 1.11.078.421.078 1.515v2.187q0 2.282.11 2.891.109.594.406 1.156h-1.703q-.266-.515-.329-1.187zm-.141-3.671q-.89.375-2.672.625-1.016.14-1.438.328t-.656.531q-.219.344-.219.782 0 .656.5 1.093t1.454.438q.937 0 1.671-.406.75-.422 1.094-1.141.266-.562.266-1.64v-.61zm7.782 3.39.234 1.454q-.687.14-1.234.14-.89 0-1.39-.281-.485-.281-.688-.734-.203-.47-.203-1.938v-5.578h-1.204v-1.266h1.204v-2.39l1.625-.985v3.375h1.656v1.266h-1.656v5.672q0 .687.078.89.093.204.28.329.204.11.579.11.266 0 .719-.063zm8.23-1.64 1.687.203q-.406 1.484-1.484 2.313-1.078.812-2.766.812-2.125 0-3.375-1.297-1.234-1.312-1.234-3.672 0-2.453 1.25-3.797 1.266-1.343 3.266-1.343 1.937 0 3.156 1.328 1.234 1.312 1.234 3.703v.437h-7.219q.094 1.594.907 2.453.812.844 2.015.844.907 0 1.547-.469.64-.484 1.016-1.515zm-5.39-2.656h5.406q-.11-1.219-.625-1.828-.782-.953-2.032-.953-1.125 0-1.906.765-.765.75-.844 2.016z" fill="#000"/><path d="M90.322 49.909c0-24.594 19.937-44.531 44.531-44.531h306.06a44.53 44.53 0 0 1 44.531 44.531v178.12c0 24.594-19.937 44.531-44.531 44.531h-306.06c-24.594 0-44.531-19.937-44.531-44.531z" fill="#eee" fill-rule="evenodd"/><path d="M90.322 49.909c0-24.594 19.937-44.531 44.531-44.531h306.06a44.53 44.53 0 0 1 44.531 44.531v178.12c0 24.594-19.937 44.531-44.531 44.531h-306.06c-24.594 0-44.531-19.937-44.531-44.531z" stroke="#757575" stroke-linecap="butt" stroke-linejoin="round"/><path d="M262.13 41.546h5.39v1.234h-6.89V31.405h1.5v10.141zm8.453 1.234h-1.453v-8.453h1.453v8.453zm-1.562-10.703q0-.343.203-.578.218-.25.64-.25t.641.25q.219.235.219.594 0 .344-.219.578t-.64.235-.641-.235q-.203-.234-.203-.594zm8.789 8.453q0-.578-.438-.906t-1.547-.562q-1.093-.235-1.734-.563t-.953-.781-.313-1.078q0-1.031.875-1.75.89-.719 2.25-.719 1.438 0 2.328.75.907.735.907 1.89h-1.453q0-.593-.516-1.015-.5-.437-1.266-.437-.78 0-1.234.343-.438.344-.438.891 0 .531.407.797.422.266 1.5.516 1.078.234 1.75.578.672.328 1 .797t.328 1.156q0 1.125-.906 1.812t-2.36.688q-1.015 0-1.797-.36t-1.219-1q-.437-.656-.437-1.406h1.437q.047.735.579 1.156.546.422 1.437.422.828 0 1.313-.328.5-.328.5-.89zm5.297-8.25v2.047h1.578v1.11h-1.578v5.25q0 .5.203.765.218.25.718.25.25 0 .688-.093v1.172q-.563.156-1.11.156-.968 0-1.468-.578-.485-.594-.485-1.672v-5.25h-1.53v-1.11h1.53V32.28h1.453zm6.773 10.656q-1.719 0-2.797-1.125-1.078-1.14-1.078-3.03v-.266q0-1.25.469-2.235.484-1 1.344-1.547.875-.562 1.875-.562 1.656 0 2.562 1.094.922 1.078.922 3.093v.61h-5.734q.03 1.25.734 2.015t1.781.766q.766 0 1.297-.312t.922-.829l.89.688q-1.062 1.64-3.187 1.64zm-.188-7.578q-.875 0-1.468.641-.594.625-.735 1.781h4.235v-.11q-.063-1.109-.594-1.702-.531-.61-1.438-.61zm6.524-1.03.047 1.062q.969-1.22 2.531-1.22 2.672 0 2.703 3.016v5.594h-1.453v-5.594q0-.921-.422-1.359-.406-.437-1.266-.437-.703 0-1.234.375t-.828.984v6.031h-1.453v-8.453h1.375zm10.969 8.609q-1.719 0-2.797-1.125-1.078-1.141-1.078-3.032v-.265q0-1.25.469-2.235.484-1 1.343-1.547.875-.562 1.875-.562 1.657 0 2.563 1.094.922 1.078.922 3.094v.609h-5.735q.032 1.25.735 2.016t1.781.765q.766 0 1.297-.312t.922-.828l.89.687q-1.062 1.64-3.187 1.64zm-.188-7.578q-.875 0-1.468.64-.594.625-.735 1.781h4.235v-.11q-.063-1.108-.594-1.702-.531-.61-1.438-.61zm9.243.265q-.329-.062-.72-.062-1.421 0-1.921 1.218v6h-1.453v-8.453h1.406l.031.97q.703-1.126 2.016-1.126.422 0 .64.11v1.343z" fill="#000"/><path d="M103.47 90.579c0-17.212 37.072-31.165 82.803-31.165 45.731 0 82.803 13.953 82.803 31.165s-37.072 31.165-82.803 31.165c-45.731 0-82.803-13.953-82.803-31.165z" fill="#fff2cc" fill-rule="evenodd"/><path d="M103.47 90.579c0-17.212 37.072-31.165 82.803-31.165 45.731 0 82.803 13.953 82.803 31.165s-37.072 31.165-82.803 31.165c-45.731 0-82.803-13.953-82.803-31.165z" stroke="#757575" stroke-linecap="butt" stroke-linejoin="round"/><path d="m142.46 92.333 1.063-.094q.078.656.359 1.063t.86.672q.593.25 1.327.25.641 0 1.141-.188.5-.203.734-.531.25-.344.25-.734 0-.407-.234-.704-.234-.312-.766-.515-.359-.14-1.547-.422-1.171-.281-1.64-.531-.625-.328-.922-.797-.297-.485-.297-1.078 0-.641.36-1.203.374-.579 1.078-.86.718-.297 1.578-.297.953 0 1.687.313.735.297 1.125.906.39.594.422 1.344l-1.094.078q-.094-.813-.61-1.219-.5-.422-1.484-.422-1.03 0-1.5.375t-.468.907q0 .468.328.765t1.703.61q1.39.312 1.906.546.75.36 1.11.891.359.516.359 1.219 0 .687-.39 1.297-.391.593-1.126.937-.734.328-1.656.328-1.172 0-1.969-.328-.781-.344-1.234-1.031-.438-.687-.453-1.547zm7.863-.344q0-1.734.953-2.562.797-.688 1.954-.688 1.28 0 2.093.844.828.828.828 2.313 0 1.203-.359 1.89t-1.062 1.078q-.688.375-1.5.375-1.297 0-2.11-.828-.797-.844-.797-2.422zm1.078 0q0 1.188.516 1.781.531.594 1.313.594.796 0 1.312-.594t.516-1.812q0-1.156-.532-1.75-.515-.594-1.297-.594t-1.312.594q-.516.578-.516 1.781zm10.05.828 1.03.141q-.171 1.062-.874 1.672t-1.72.61q-1.28 0-2.062-.829-.765-.844-.765-2.406 0-1 .328-1.75.344-.766 1.015-1.14.688-.376 1.5-.376 1 0 1.641.516.656.5.844 1.453l-1.031.156q-.141-.625-.516-.937-.375-.328-.906-.328-.797 0-1.297.578-.5.562-.5 1.797 0 1.265.484 1.828t1.25.562q.625 0 1.031-.375.422-.375.547-1.172zm1.937 2.282v-8.594h1.062v4.906l2.485-2.531h1.375l-2.39 2.297 2.624 3.922h-1.297l-2.062-3.188-.735.719v2.469h-1.062zm10.25-2 1.094.125q-.25.953-.953 1.484t-1.782.531q-1.359 0-2.172-.844-.796-.843-.796-2.359 0-1.562.812-2.422.813-.875 2.094-.875 1.25 0 2.031.844.797.844.797 2.39v.282h-4.64q.062 1.031.578 1.578.515.531 1.296.531.579 0 .985-.297.422-.312.656-.969zm-3.453-1.704h3.469q-.063-.796-.391-1.187-.516-.61-1.313-.61-.734 0-1.234.485-.484.484-.531 1.312zm8.174 2.766.156.922q-.453.094-.797.094-.578 0-.89-.172-.313-.188-.454-.485-.125-.296-.125-1.25v-3.578h-.765v-.812h.765v-1.547l1.047-.625v2.172h1.063v.812h-1.063v3.64q0 .454.047.58.063.124.188.202t.359.078q.187 0 .469-.03zm1.318-4.078V88.88h1.203v1.203h-1.203zm0 5.016v-1.204h1.203V95.1h-1.203zm6.512 0v-8.594h3.25q.843 0 1.297.078.64.11 1.062.406.438.297.688.828.265.532.265 1.172 0 1.094-.703 1.86-.687.75-2.515.75h-2.204v3.5h-1.14zm1.14-4.5h2.22q1.108 0 1.562-.407.468-.422.468-1.172 0-.53-.28-.906-.267-.39-.704-.515-.297-.079-1.063-.079h-2.203V90.6zm6.348 1.39q0-1.734.953-2.562.797-.688 1.953-.688 1.281 0 2.094.844.828.828.828 2.312 0 1.204-.36 1.891t-1.062 1.078q-.687.375-1.5.375-1.297 0-2.11-.828-.796-.844-.796-2.422zm1.078 0q0 1.188.516 1.781.531.594 1.312.594.797 0 1.313-.594t.515-1.812q0-1.156-.53-1.75-.517-.594-1.298-.594t-1.312.594q-.516.578-.516 1.781zm5.97 3.11v-6.22h.954v.938q.36-.656.656-.86.313-.218.688-.218.53 0 1.078.328l-.36.985q-.39-.235-.765-.235-.36 0-.64.219-.266.203-.376.578-.187.563-.187 1.219v3.266h-1.047zm6.31-.938.156.922q-.453.094-.797.094-.578 0-.89-.172-.313-.188-.454-.485-.125-.296-.125-1.25v-3.578h-.766v-.812h.766v-1.547l1.047-.625v2.172h1.062v.812h-1.062v3.64q0 .454.047.58.062.124.187.202t.36.078q.187 0 .468-.03zm7.449.938v-2.063h-3.72v-.969l3.923-5.562h.86v5.562h1.155v.97h-1.156v2.062h-1.062zm0-3.032v-3.859l-2.688 3.86h2.688zm6.673 3.032v-2.063h-3.718v-.969l3.922-5.562h.859v5.562h1.156v.97h-1.156v2.062h-1.063zm0-3.032v-3.859l-2.687 3.86h2.687zm3.3.766 1.062-.14q.172.89.61 1.296.437.39 1.062.39.75 0 1.265-.515t.516-1.28q0-.72-.485-1.188-.468-.485-1.203-.485-.297 0-.75.125l.125-.937q.11.015.172.015.672 0 1.203-.343.547-.36.547-1.094 0-.578-.39-.953-.391-.391-1.016-.391-.61 0-1.031.39-.406.391-.516 1.157l-1.062-.188q.187-1.047.875-1.625.687-.593 1.703-.593.703 0 1.297.312.593.297.906.813t.312 1.109q0 .547-.296 1.016-.297.453-.875.718.75.172 1.171.735.422.547.422 1.39 0 1.125-.828 1.907-.812.78-2.062.78-1.125 0-1.875-.671-.75-.688-.86-1.75z" fill="#000"/><path d="M292.94 54.83h169.98v65.33H292.94z" fill="#c9daf8" fill-rule="evenodd"/><path d="M292.94 54.83h169.98v65.33H292.94z" stroke="#757575" stroke-linecap="butt" stroke-linejoin="round"/><path d="M283.09 66.557h169.98v65.33H283.09z" fill="#c9daf8" fill-rule="evenodd"/><path d="M283.09 66.557h169.98v65.33H283.09z" stroke="#757575" stroke-linecap="butt" stroke-linejoin="round"/><path d="M309.05 104.02v-9.547h1.266v8.422h4.703v1.125h-5.97zm7.334-8.188v-1.359h1.172v1.36h-1.172zm0 8.188v-6.906h1.172v6.906h-1.172zm2.477-2.063 1.156-.187q.11.703.547 1.078.453.36 1.25.36.813 0 1.203-.329t.39-.765q0-.39-.358-.625-.235-.157-1.188-.39-1.297-.329-1.797-.563-.484-.25-.75-.657-.25-.422-.25-.937 0-.453.203-.844.219-.406.578-.672.282-.187.75-.328t1.016-.14q.812 0 1.422.234t.906.64q.297.391.406 1.063l-1.14.156q-.078-.531-.453-.828-.375-.312-1.063-.312-.812 0-1.156.265t-.344.625q0 .235.14.422.157.188.454.313.172.062 1.031.297 1.25.328 1.735.546.5.204.78.61t.282 1-.344 1.11-1 .796q-.64.281-1.453.281-1.344 0-2.047-.562t-.906-1.656zm9.695 1.016.172 1.031q-.5.11-.89.11-.641 0-1-.203-.344-.204-.485-.532t-.14-1.39v-3.97h-.86v-.905h.86v-1.72l1.172-.702v2.422h1.171v.906h-1.171v4.047q0 .5.046.64.063.141.204.235.14.078.406.078.203 0 .515-.047zm5.875-1.172 1.203.14q-.281 1.063-1.062 1.657-.766.578-1.969.578-1.516 0-2.406-.937t-.89-2.61q0-1.75.89-2.703.906-.969 2.344-.969 1.39 0 2.265.938t.875 2.656v.313h-5.156q.063 1.14.64 1.75.579.593 1.438.593.656 0 1.11-.328.453-.344.718-1.078zm-3.844-1.906h3.86q-.078-.86-.438-1.297-.562-.687-1.453-.687-.812 0-1.36.546-.546.532-.609 1.438zm6.522 4.125v-6.906h1.063v.984q.75-1.14 2.187-1.14.625 0 1.157.218t.78.594q.266.36.376.86.062.328.062 1.14v4.25h-1.172v-4.203q0-.719-.14-1.063-.14-.359-.485-.562-.343-.219-.812-.219-.75 0-1.297.469t-.547 1.797v3.781h-1.172zm12.147-2.219 1.203.14q-.28 1.063-1.062 1.657-.766.578-1.969.578-1.515 0-2.406-.937t-.89-2.61q0-1.75.89-2.703.906-.969 2.344-.969 1.39 0 2.265.938t.875 2.656v.313h-5.156q.063 1.14.64 1.75.579.593 1.438.593.656 0 1.11-.328.453-.344.718-1.078zm-3.843-1.906h3.859q-.078-.86-.438-1.297-.562-.687-1.453-.687-.812 0-1.36.546-.546.532-.608 1.438zm6.506 4.125v-6.906h1.062v1.047q.406-.735.735-.969.343-.234.765-.234.594 0 1.203.375l-.406 1.078q-.437-.25-.86-.25-.39 0-.702.234-.297.234-.422.64-.203.626-.203 1.36v3.625h-1.172zm8.438 0v-6h-1.031v-.906h1.03v-.735q0-.703.126-1.047.172-.453.594-.734t1.203-.281q.484 0 1.094.11l-.188 1.03q-.36-.062-.687-.062-.532 0-.75.234-.22.22-.22.844v.64h1.345v.907h-1.344v6h-1.172zm3.437-8.187v-1.36h1.172v1.36h-1.172zm0 8.187v-6.906h1.172v6.906h-1.172zm2.93 0v-9.547h1.172v9.547h-1.172zm5.54-1.047.171 1.031q-.5.11-.89.11-.641 0-1-.203-.344-.204-.485-.532t-.14-1.39v-3.97h-.86v-.905h.86v-1.72l1.171-.702v2.422h1.172v.906h-1.172v4.047q0 .5.047.64.063.141.203.235.141.078.407.078.203 0 .515-.047zm5.874-1.172 1.203.14q-.281 1.063-1.062 1.657-.766.578-1.97.578-1.515 0-2.405-.937t-.89-2.61q0-1.75.89-2.703.906-.969 2.344-.969 1.39 0 2.265.938t.875 2.656v.313h-5.156q.062 1.14.64 1.75.579.593 1.438.593.656 0 1.11-.328.453-.344.718-1.078zm-3.844-1.906h3.86q-.078-.86-.438-1.297-.562-.687-1.453-.687-.812 0-1.36.546-.546.532-.609 1.438zm6.507 4.125v-6.906h1.062v1.047q.406-.735.734-.969.344-.234.766-.234.594 0 1.203.375l-.406 1.078q-.438-.25-.86-.25-.39 0-.703.234-.297.234-.422.64-.203.626-.203 1.36v3.625H380.8zm8.438 0v-6h-1.031v-.906h1.03v-.735q0-.703.126-1.047.172-.453.593-.734t1.204-.281q.484 0 1.093.11l-.187 1.03q-.36-.062-.688-.062-.53 0-.75.234-.218.22-.218.844v.64h1.343v.907h-1.343v6h-1.172zm7.937-.86q-.656.563-1.265.798-.594.218-1.282.218-1.14 0-1.75-.547-.61-.562-.61-1.437 0-.5.22-.922.234-.422.61-.672t.843-.39q.344-.079 1.047-.172 1.422-.172 2.094-.407v-.297q0-.718-.329-1.015-.453-.39-1.343-.39-.813 0-1.22.296-.39.281-.577 1.016l-1.14-.157q.155-.734.515-1.187t1.03-.688q.673-.25 1.563-.25t1.438.204q.562.203.812.53.266.313.375.798.047.297.047 1.078v1.562q0 1.625.078 2.063t.297.828h-1.219q-.187-.36-.234-.86zm-.094-2.609q-.64.266-1.922.438-.718.11-1.015.25-.297.125-.469.375-.156.25-.156.547 0 .468.344.78.359.313 1.047.313.671 0 1.203-.297t.78-.812q.188-.39.188-1.172v-.422zm7.507.938 1.156.156q-.188 1.187-.969 1.86t-1.922.671q-1.406 0-2.281-.922-.86-.937-.86-2.656 0-1.125.376-1.969t1.125-1.25q.765-.422 1.656-.422 1.125 0 1.844.579.718.562.921 1.609l-1.14.172q-.172-.703-.594-1.047-.406-.36-.984-.36-.89 0-1.453.641-.547.64-.547 2 0 1.406.53 2.031.548.625 1.407.625.688 0 1.14-.421.47-.422.594-1.297zm4.71 1.484.172 1.031q-.5.11-.89.11-.64 0-1-.203-.344-.204-.485-.532t-.14-1.39v-3.97h-.86v-.905h.86v-1.72l1.172-.702v2.422h1.172v.906h-1.172v4.047q0 .5.046.64.063.141.204.235.14.078.406.078.203 0 .515-.047zm.703-2.406q0-1.922 1.079-2.844.89-.765 2.171-.765 1.422 0 2.329.937.906.922.906 2.578 0 1.328-.406 2.094-.391.766-1.157 1.187t-1.672.422q-1.453 0-2.359-.922-.89-.937-.89-2.687zm1.204 0q0 1.328.578 1.984.593.657 1.468.657t1.454-.657q.578-.672.578-2.03 0-1.282-.594-1.938-.578-.657-1.438-.657-.875 0-1.468.657-.579.656-.579 1.984zm6.63 3.453v-6.906h1.063v1.047q.406-.735.735-.969.343-.234.765-.234.594 0 1.203.375l-.406 1.078q-.437-.25-.86-.25-.39 0-.702.234-.297.234-.422.64-.203.626-.203 1.36v3.625h-1.172zm4.408 2.656-.125-1.094q.375.11.656.11.39 0 .625-.14.234-.126.39-.36.11-.172.36-.875.031-.094.11-.281l-2.626-6.922h1.266l1.438 4q.28.765.5 1.593.203-.796.468-1.578l1.485-4.015h1.172l-2.625 7.015q-.422 1.141-.657 1.578-.312.579-.718.844-.407.281-.97.281-.327 0-.75-.156z" fill="#000"/><path d="M141.69 142.61h307.02v115.68H141.69z" fill="#c9daf8" fill-rule="evenodd"/><path d="M141.69 142.61h307.02v115.68H141.69z" stroke="#757575" stroke-linecap="butt" stroke-linejoin="round"/><path d="M134.67 150.77h307.02v115.68H134.67z" fill="#c9daf8" fill-rule="evenodd"/><path d="M134.67 150.77h307.02v115.68H134.67z" stroke="#757575" stroke-linecap="butt" stroke-linejoin="round"/><path d="M225.57 172.57v-9.547h6.438v1.125h-5.172v2.969h4.468v1.125h-4.468v4.328h-1.266zm7.938-8.188v-1.359h1.172v1.36h-1.172zm0 8.188v-6.906h1.172v6.906h-1.172zm2.93 0v-9.547h1.172v9.547h-1.172zm5.54-1.047.171 1.031q-.5.11-.89.11-.641 0-1-.203-.344-.204-.485-.532t-.14-1.39v-3.97h-.86v-.905h.86v-1.72l1.171-.702v2.422h1.172v.906h-1.172v4.047q0 .5.047.64.063.141.203.235.141.078.407.078.203 0 .515-.047zm5.874-1.172 1.203.14q-.281 1.063-1.062 1.657-.766.578-1.97.578-1.515 0-2.405-.937t-.89-2.61q0-1.75.89-2.703.906-.969 2.343-.969 1.391 0 2.266.938t.875 2.656v.313h-5.156q.062 1.14.64 1.75.579.593 1.438.593.656 0 1.11-.328.453-.344.718-1.078zm-3.844-1.906h3.86q-.078-.86-.438-1.297-.562-.687-1.453-.687-.812 0-1.36.546-.546.532-.609 1.438zm6.506 4.125v-6.906h1.063v1.047q.406-.735.734-.97.344-.233.766-.233.594 0 1.203.375l-.406 1.078q-.438-.25-.86-.25-.39 0-.703.234-.297.234-.422.64-.203.626-.203 1.36v3.625h-1.172zm12.673-2.531 1.157.156q-.188 1.188-.969 1.86t-1.922.671q-1.406 0-2.281-.922-.86-.937-.86-2.656 0-1.125.375-1.969t1.125-1.25q.766-.421 1.657-.421 1.125 0 1.843.578.72.562.922 1.61l-1.14.171q-.172-.703-.594-1.047-.406-.36-.984-.36-.891 0-1.453.641-.547.64-.547 2 0 1.407.53 2.032.548.625 1.407.625.688 0 1.14-.422.47-.422.594-1.297zm2.149 2.531v-9.547h1.172v3.422q.828-.938 2.078-.938.766 0 1.328.297t.813.844q.25.531.25 1.547v4.375h-1.172v-4.375q0-.89-.391-1.281-.375-.406-1.078-.406-.516 0-.985.28-.453.266-.656.735-.187.453-.187 1.266v3.781h-1.172zm11.928-.86q-.656.563-1.266.797-.593.22-1.28.22-1.142 0-1.75-.548-.61-.562-.61-1.437 0-.5.218-.922.235-.422.61-.672t.844-.39q.343-.079 1.046-.172 1.422-.172 2.094-.407v-.297q0-.718-.328-1.015-.453-.39-1.344-.39-.812 0-1.218.296-.391.281-.579 1.016l-1.14-.157q.156-.734.515-1.187t1.032-.688q.672-.25 1.562-.25t1.438.204q.562.203.812.53.266.313.375.798.047.297.047 1.078v1.562q0 1.625.078 2.063t.297.828h-1.219q-.187-.36-.234-.86zm-.094-2.609q-.64.266-1.922.438-.719.11-1.015.25-.297.125-.47.375-.155.25-.155.547 0 .468.343.78.36.313 1.047.313.672 0 1.203-.297t.782-.812q.187-.39.187-1.172v-.422zm3.006-4.719v-1.359h1.172v1.36h-1.172zm0 8.188v-6.906h1.172v6.906h-1.172zm2.946 0v-6.906h1.062v.984q.75-1.14 2.188-1.14.625 0 1.156.218t.781.594q.266.36.375.86.063.327.063 1.14v4.25h-1.172v-4.203q0-.719-.14-1.063-.141-.359-.485-.562-.344-.219-.813-.219-.75 0-1.297.469t-.546 1.797v3.781h-1.172zm11.115 0v-6.906h1.047v.968q.328-.515.86-.812.546-.313 1.234-.313.78 0 1.265.313t.688.89q.828-1.203 2.14-1.203 1.031 0 1.578.579.563.562.563 1.734v4.75h-1.172v-4.36q0-.703-.125-1-.11-.312-.406-.5t-.703-.187q-.72 0-1.204.484t-.484 1.547v4.016h-1.172v-4.484q0-.782-.297-1.172-.281-.39-.922-.39-.5 0-.921.265-.422.25-.61.75t-.187 1.453v3.578h-1.172zm15.618-.86q-.656.563-1.266.797-.594.22-1.281.22-1.14 0-1.75-.548-.61-.562-.61-1.437 0-.5.22-.922.234-.422.609-.672t.844-.39q.343-.079 1.046-.172 1.422-.172 2.094-.407v-.297q0-.718-.328-1.015-.453-.39-1.344-.39-.812 0-1.218.296-.391.281-.579 1.016l-1.14-.157q.156-.734.515-1.187t1.032-.688q.672-.25 1.562-.25t1.438.204q.562.203.812.53.266.313.375.798.047.297.047 1.078v1.562q0 1.625.078 2.063t.297.828h-1.219q-.187-.36-.234-.86zm-.094-2.609q-.64.266-1.922.438-.719.109-1.015.25-.297.125-.47.375-.155.25-.155.547 0 .468.343.78.36.313 1.047.313.672 0 1.203-.297t.782-.812q.187-.39.187-1.172v-.422zm5.553 2.422.172 1.031q-.5.11-.89.11-.641 0-1-.203-.344-.204-.485-.532t-.14-1.39v-3.97h-.86v-.905h.86v-1.72l1.171-.702v2.422h1.172v.906h-1.172v4.047q0 .5.047.64.063.141.203.235.141.078.407.078.203 0 .515-.047zm5.656-1.484 1.156.156q-.187 1.187-.968 1.86t-1.922.671q-1.406 0-2.281-.922-.86-.937-.86-2.656 0-1.125.375-1.969t1.125-1.25q.766-.422 1.656-.422 1.125 0 1.844.579.719.562.922 1.609l-1.14.172q-.172-.703-.594-1.047-.406-.36-.985-.36-.89 0-1.453.641-.547.64-.547 2 0 1.406.532 2.031.547.625 1.406.625.687 0 1.14-.422.47-.421.594-1.296zm2.149 2.53v-9.546h1.172v3.422q.828-.938 2.078-.938.765 0 1.328.297t.812.844q.25.531.25 1.547v4.375h-1.172v-4.375q0-.89-.39-1.281-.375-.407-1.078-.407-.516 0-.985.282-.453.265-.656.734-.187.453-.187 1.266v3.78h-1.172zm13.678-1.046.172 1.031q-.5.11-.891.11-.64 0-1-.204-.344-.203-.484-.53t-.141-1.391v-3.97h-.86v-.905h.86v-1.72l1.172-.702v2.421h1.172v.907h-1.172v4.047q0 .5.047.64.062.14.203.235.14.078.406.078.203 0 .516-.047zm1.125 1.047v-6.906h1.062v1.047q.406-.735.734-.97.344-.234.766-.234.594 0 1.203.375l-.406 1.079q-.438-.25-.86-.25-.39 0-.703.234-.296.234-.421.64-.204.626-.204 1.36v3.625h-1.171zm4.47-8.188v-1.36h1.171v1.36h-1.172zm0 8.188v-6.906h1.171v6.906h-1.172zm7.679-2.219 1.203.14q-.281 1.063-1.062 1.657-.766.578-1.97.578-1.515 0-2.405-.938t-.891-2.609q0-1.75.89-2.703.907-.969 2.344-.969 1.391 0 2.266.938t.875 2.656v.312h-5.156q.062 1.141.64 1.75.579.594 1.438.594.656 0 1.11-.328.452-.344.718-1.078zm-3.844-1.906h3.86q-.079-.86-.438-1.297-.562-.688-1.453-.688-.813 0-1.36.547-.546.532-.609 1.438z" fill="#000"/><path d="M282.19 195.21c0-6.236 8.623-11.291 19.26-11.291 10.637 0 19.26 5.055 19.26 11.291 0 6.236-8.623 11.291-19.26 11.291-10.637 0-19.26-5.055-19.26-11.291z" fill="#fff2cc" fill-rule="evenodd"/><path d="M282.19 195.21c0-6.236 8.623-11.291 19.26-11.291 10.637 0 19.26 5.055 19.26 11.291 0 6.236-8.623 11.291-19.26 11.291-10.637 0-19.26-5.055-19.26-11.291z" stroke="#757575" stroke-linecap="butt" stroke-linejoin="round"/><path d="M243.65 222.08c0-6.236 8.623-11.291 19.26-11.291 10.637 0 19.26 5.055 19.26 11.291s-8.623 11.291-19.26 11.291c-10.637 0-19.26-5.055-19.26-11.291z" fill="#fff2cc" fill-rule="evenodd"/><path d="M243.65 222.08c0-6.236 8.623-11.291 19.26-11.291 10.637 0 19.26 5.055 19.26 11.291s-8.623 11.291-19.26 11.291c-10.637 0-19.26-5.055-19.26-11.291z" stroke="#757575" stroke-linecap="butt" stroke-linejoin="round"/><path d="M310.67 225.19c0-6.236 8.623-11.291 19.26-11.291 10.637 0 19.26 5.055 19.26 11.291 0 6.236-8.623 11.291-19.26 11.291-10.637 0-19.26-5.055-19.26-11.291z" fill="#fff2cc" fill-rule="evenodd"/><path d="M310.67 225.19c0-6.236 8.623-11.291 19.26-11.291 10.637 0 19.26 5.055 19.26 11.291 0 6.236-8.623 11.291-19.26 11.291-10.637 0-19.26-5.055-19.26-11.291z" stroke="#757575" stroke-linecap="butt" stroke-linejoin="round"/><path d="M272.12 255.18c0-6.236 8.623-11.291 19.26-11.291 10.637 0 19.26 5.055 19.26 11.291 0 6.236-8.623 11.291-19.26 11.291-10.637 0-19.26-5.055-19.26-11.291z" fill="#fff2cc" fill-rule="evenodd"/><path d="M272.12 255.18c0-6.236 8.623-11.291 19.26-11.291 10.637 0 19.26 5.055 19.26 11.291 0 6.236-8.623 11.291-19.26 11.291-10.637 0-19.26-5.055-19.26-11.291z" stroke="#757575" stroke-linecap="butt" stroke-linejoin="round"/><path d="m315.07 203.2 14.866 10.709" fill="none"/><path d="m315.07 203.2 14.866 10.709" stroke="#757575" stroke-linecap="butt" stroke-linejoin="round"/><path d="m287.83 203.2-11.307 10.898" fill="none"/><path d="m287.83 203.2-11.307 10.898" stroke="#757575" stroke-linecap="butt" stroke-linejoin="round"/><path d="m316.31 233.18-11.307 14.016" fill="none"/><path d="m316.31 233.18-11.307 14.016" stroke="#757575" stroke-linecap="butt" stroke-linejoin="round"/><path d="M573.19 62.018h58.268v40.85H573.19z" fill="#fce5cd" fill-rule="evenodd"/><path d="M573.19 62.018h58.268v40.85H573.19z" stroke="#757575" stroke-linecap="butt" stroke-linejoin="round"/><path d="M645.86 62.018h58.268v40.85H645.86z" fill="#fce5cd" fill-rule="evenodd"/><path d="M645.86 62.018h58.268v40.85H645.86z" stroke="#757575" stroke-linecap="butt" stroke-linejoin="round"/><path d="M718.53 62.018h58.268v40.85H718.53z" fill="#fce5cd" fill-rule="evenodd"/><path d="M718.53 62.018h58.268v40.85H718.53z" stroke="#757575" stroke-linecap="butt" stroke-linejoin="round"/><path d="M741.54 80.404v-5.89h-2.203v-.782h5.297v.781h-2.219v5.891h-.875zm3.964 0v-6.672h.875v5.89h3.296v.782h-4.171zm4.922-2.14.828-.079q.062.5.281.828.219.313.672.516t1.016.203q.515 0 .89-.156.39-.156.578-.406.188-.266.188-.578t-.188-.547q-.171-.235-.593-.391-.266-.11-1.188-.328t-1.281-.422q-.484-.25-.719-.61-.234-.374-.234-.843 0-.5.281-.938.297-.437.844-.671t1.234-.235q.735 0 1.297.25.578.235.875.703.313.453.328 1.047l-.844.063q-.062-.625-.468-.953-.39-.329-1.156-.329-.797 0-1.172.297-.36.297-.36.703 0 .36.25.594.266.235 1.328.485 1.078.234 1.485.421.578.266.86.688.28.406.28.937t-.312 1.016q-.297.469-.875.734-.563.25-1.281.25-.907 0-1.516-.265t-.969-.781q-.343-.532-.359-1.204zM729.37 85.669v-.938h.813v.938h-.813zm0 5.734V86.56h.813v4.843h-.813zm2.057 0V86.56h.75v.687q.531-.797 1.531-.797.438 0 .797.172.375.156.547.406.187.25.265.61.047.218.047.797v2.968h-.828v-2.937q0-.5-.094-.75t-.343-.39q-.235-.157-.563-.157-.515 0-.906.328-.375.328-.375 1.266v2.64h-.828zm4.86-1.437.812-.14q.078.5.39.765.313.25.86.25.578 0 .844-.234.281-.235.281-.532 0-.281-.25-.437-.172-.11-.844-.281-.89-.235-1.25-.391-.344-.172-.531-.469-.172-.297-.172-.64 0-.329.14-.594.157-.281.407-.469.203-.14.531-.234.328-.11.703-.11.578 0 1 .172.438.156.641.438t.281.75l-.797.109q-.062-.375-.328-.578t-.734-.203q-.563 0-.813.187-.234.172-.234.438 0 .156.094.281.11.125.312.219.125.047.735.203.859.234 1.203.39.343.141.53.422.204.282.204.704 0 .406-.234.78-.235.36-.688.563-.453.188-1.015.188-.954 0-1.454-.39-.484-.391-.625-1.157zm4.992 3.297V86.56h.75v.64q.265-.375.593-.562.344-.188.813-.188.625 0 1.094.328.468.313.703.907.25.578.25 1.265 0 .735-.266 1.328t-.781.922q-.5.313-1.063.313-.406 0-.734-.172t-.531-.438v2.36h-.828zm.75-4.25q0 .937.375 1.39.375.438.922.438t.921-.453q.391-.469.391-1.438 0-.937-.375-1.39t-.906-.453-.938.484q-.39.484-.39 1.422zm7.75.828.844.11q-.188.75-.735 1.155t-1.39.407q-1.063 0-1.688-.657-.609-.656-.609-1.828 0-1.218.625-1.89.625-.688 1.625-.688.984 0 1.594.672.61.656.61 1.86v.218h-3.61q.047.797.453 1.22t1.015.421q.454 0 .766-.234t.5-.766zm-2.687-1.328h2.703q-.063-.61-.313-.906-.39-.47-1.015-.47-.563 0-.954.376-.375.375-.421 1zm7.719 1.125.812.094q-.125.843-.672 1.312t-1.343.469q-.985 0-1.594-.64-.61-.657-.61-1.876 0-.781.266-1.36.266-.593.781-.89.531-.297 1.156-.297.797 0 1.297.407.5.39.64 1.125l-.796.125q-.11-.485-.406-.72-.281-.25-.703-.25-.61 0-1 .438t-.39 1.406.374 1.422q.375.438.984.438.47 0 .797-.297t.407-.906zm3.304 1.031.11.719q-.344.078-.61.078-.453 0-.703-.14-.234-.141-.343-.36-.094-.234-.094-.984V87.2h-.61v-.64h.61v-1.188l.812-.5v1.688h.828v.64h-.828v2.828q0 .36.047.47.047.093.14.155.095.047.282.047.14 0 .36-.031zm.498-1.687q0-1.344.75-1.985.625-.547 1.516-.547 1 0 1.625.656.64.657.64 1.813 0 .937-.28 1.469t-.813.828-1.172.297q-1.016 0-1.64-.64-.626-.657-.626-1.891zm.844 0q0 .937.406 1.406.407.453 1.016.453t1.015-.469.407-1.422q0-.89-.407-1.344-.406-.468-1.015-.468t-1.016.468q-.406.454-.406 1.375zm4.641 2.421V86.56h.734v.734q.282-.516.516-.672.25-.172.531-.172.422 0 .844.266l-.281.765q-.297-.171-.61-.171-.265 0-.484.156-.203.156-.297.453-.14.437-.14.953v2.531h-.813z" fill="#000"/><path d="M631.46 82.444h14.394" fill="none"/><path d="M631.46 82.444h8.394" stroke="#757575" stroke-linecap="butt" stroke-linejoin="round"/><path d="m639.85 84.095 4.538-1.652-4.538-1.651z" fill="#757575" fill-rule="evenodd" stroke="#757575" stroke-linecap="butt"/><path d="M704.13 82.444h14.394" fill="none"/><path d="M704.13 82.444h8.394" stroke="#757575" stroke-linecap="butt" stroke-linejoin="round"/><path d="m712.52 84.095 4.538-1.652-4.538-1.651z" fill="#757575" fill-rule="evenodd" stroke="#757575" stroke-linecap="butt"/><path d="M596.54 102.87h147.12v40.85H596.54z" fill="none"/><path d="M606.62 125.95v-10.484h1.39v9.25h5.157v1.234h-6.547zm8.042-9.016v-1.468h1.297v1.468h-1.297zm0 9.016v-7.594h1.297v7.594h-1.297zm2.74-2.266 1.266-.203q.11.766.594 1.172.5.406 1.375.406.89 0 1.312-.359.438-.36.438-.844 0-.437-.375-.687-.266-.172-1.313-.438-1.422-.36-1.969-.61-.547-.265-.828-.733t-.281-1.016q0-.516.219-.938.234-.437.64-.734.297-.219.813-.36.531-.156 1.125-.156.89 0 1.562.266.672.25 1 .688t.438 1.171l-1.25.172q-.094-.578-.5-.906-.407-.344-1.156-.344-.891 0-1.282.297-.375.297-.375.688 0 .25.157.453t.5.344q.187.078 1.14.328 1.36.36 1.89.593.548.235.86.688.313.437.313 1.094 0 .64-.375 1.219-.375.562-1.094.875-.703.312-1.594.312-1.484 0-2.266-.61-.765-.624-.984-1.827zm10.656 1.11.188 1.14q-.547.11-.985.11-.687 0-1.078-.219t-.547-.578-.156-1.516v-4.375h-.953v-1h.953v-1.89l1.281-.766v2.656h1.297v1h-1.297v4.438q0 .547.063.719.078.156.219.25.156.078.453.078.203 0 .562-.047zm6.463-1.297 1.328.172q-.313 1.172-1.172 1.812-.844.64-2.172.64-1.672 0-2.656-1.015-.969-1.03-.969-2.89 0-1.922.985-2.97 1-1.062 2.578-1.062 1.515 0 2.484 1.032t.969 2.922q0 .109-.016.343h-5.656q.062 1.25.703 1.922.64.656 1.594.656.703 0 1.203-.359.5-.375.797-1.203zm-4.235-2.078h4.25q-.093-.953-.484-1.438-.625-.75-1.61-.75-.874 0-1.484.594t-.672 1.594zm7.183 4.531v-7.594h1.156v1.078q.844-1.25 2.422-1.25.687 0 1.265.25.579.235.86.64t.406.954q.063.36.063 1.25v4.672h-1.282v-4.625q0-.781-.156-1.172t-.547-.625q-.375-.234-.89-.234-.813 0-1.422.53-.594.517-.594 1.97v4.156h-1.281zm13.354-2.453 1.328.172q-.313 1.172-1.172 1.812-.844.64-2.172.64-1.672 0-2.656-1.015-.969-1.03-.969-2.89 0-1.922.985-2.97 1-1.062 2.578-1.062 1.515 0 2.484 1.032t.969 2.921q0 .11-.016.344h-5.656q.062 1.25.703 1.922.64.656 1.594.656.703 0 1.203-.359.5-.375.797-1.203zm-4.235-2.078h4.25q-.093-.953-.484-1.438-.625-.75-1.61-.75-.874 0-1.484.594t-.672 1.594zm7.167 4.531v-7.594h1.156v1.14q.453-.796.828-1.046.375-.266.813-.266.656 0 1.328.407l-.437 1.203q-.47-.282-.954-.282-.421 0-.765.25-.328.25-.469.704-.219.687-.219 1.5v3.984h-1.28zm9.28 0v-6.594h-1.14v-1h1.14v-.812q0-.766.126-1.14.187-.5.656-.813t1.313-.313q.546 0 1.203.125l-.188 1.125q-.406-.062-.765-.062-.579 0-.829.25-.234.25-.234.937v.703h1.469v1h-1.469v6.594h-1.281zm3.76-9.016v-1.468h1.297v1.468h-1.297zm0 9.016v-7.594h1.297v7.594h-1.297zm3.225 0v-10.484h1.281v10.484h-1.28zm6.1-1.156.188 1.14q-.547.11-.985.11-.687 0-1.078-.219t-.547-.578-.156-1.516v-4.375h-.953v-1h.953v-1.89l1.281-.766v2.656h1.297v1h-1.297v4.438q0 .547.063.719.078.156.218.25.157.078.454.078.203 0 .562-.047zm6.463-1.297 1.328.172q-.313 1.172-1.172 1.812-.844.64-2.172.64-1.672 0-2.656-1.015-.969-1.03-.969-2.89 0-1.922.984-2.97 1-1.062 2.579-1.062 1.515 0 2.484 1.032t.969 2.921q0 .11-.016.344h-5.656q.062 1.25.703 1.922.64.656 1.594.656.703 0 1.203-.359.5-.375.797-1.203zm-4.235-2.078h4.25q-.093-.953-.484-1.438-.625-.75-1.61-.75-.874 0-1.484.594t-.672 1.594zm7.167 4.531v-7.594h1.156v1.14q.453-.796.828-1.046.375-.266.813-.266.656 0 1.328.407l-.438 1.203q-.468-.282-.953-.282-.422 0-.765.25-.328.25-.47.704-.218.687-.218 1.5v3.984h-1.281zm13.921-2.781 1.266.156q-.204 1.313-1.063 2.063-.844.734-2.094.734-1.562 0-2.515-1.016-.938-1.03-.938-2.922 0-1.234.406-2.156t1.235-1.375q.844-.469 1.812-.469 1.25 0 2.032.625t1.015 1.766l-1.265.203q-.172-.765-.625-1.156t-1.094-.39q-.985 0-1.594.703t-.61 2.203q0 1.53.579 2.234.593.688 1.547.688.75 0 1.265-.454.516-.468.64-1.437zm2.375 2.781v-10.484h1.281v3.75q.906-1.031 2.281-1.031.844 0 1.47.328t.89.922q.265.578.265 1.703v4.812h-1.28v-4.812q0-.969-.423-1.406t-1.187-.438q-.578 0-1.078.297t-.719.813q-.219.5-.219 1.39v4.156h-1.28zm13.104-.938q-.719.61-1.375.86t-1.422.25q-1.25 0-1.922-.61t-.672-1.562q0-.563.25-1.016.25-.468.657-.75.421-.28.937-.421.375-.094 1.14-.188 1.563-.187 2.298-.453.015-.266.015-.328 0-.797-.375-1.11-.484-.437-1.453-.437-.922 0-1.36.328-.421.312-.624 1.11l-1.266-.172q.172-.797.563-1.297t1.14-.766 1.719-.266q.984 0 1.594.235.61.219.89.562t.407.875q.062.328.062 1.188v1.719q0 1.796.078 2.28.078.47.328.907h-1.343q-.204-.406-.266-.937zm-.11-2.875q-.702.282-2.093.485-.797.11-1.125.265-.328.141-.516.422-.172.266-.172.594 0 .516.39.86t1.142.343q.734 0 1.312-.312.594-.328.86-.89.203-.438.203-1.298v-.469zm3.308-5.203v-1.468h1.297v1.468h-1.297zm0 9.016v-7.594h1.297v7.594h-1.297zm3.256 0v-7.594h1.156v1.078q.844-1.25 2.422-1.25.688 0 1.266.25.578.235.86.64t.405.954q.063.36.063 1.25v4.672h-1.281v-4.625q0-.781-.156-1.172t-.547-.625q-.375-.234-.891-.234-.813 0-1.422.53-.594.517-.594 1.97v4.156h-1.28z" fill="#000"/><path d="M186.27 121.74c0 12.5 67.699 25.954 117.43 25 49.732-.954 81.498-16.315 117.43-32.154 35.933-15.838 76.034-32.154 152.07-32.154" fill="none"/><path d="M186.27 121.74c0 12.5 67.699 25.954 117.43 25 49.732-.954 81.498-16.315 117.43-32.154 17.967-7.92 36.975-15.958 60.996-22.016 12.01-3.03 25.274-5.564 40.287-7.34a390.592 390.592 0 0 1 23.894-2.065c4.222-.239 8.568-.422 13.047-.545l.136-.004" stroke="red" stroke-linecap="butt" stroke-linejoin="round" stroke-width="4"/><path d="m559.49 82.621-4.438 4.558 12.298-4.663-12.418-4.333z" fill="red" fill-rule="evenodd" stroke="red" stroke-linecap="butt" stroke-width="4"/><path d="m6.333 90.516 97.134.063" fill="none"/><path d="m6.333 90.516 73.134.047" stroke="red" stroke-linecap="butt" stroke-linejoin="round" stroke-width="4"/><path d="m79.462 97.17 18.157-6.595-18.148-6.619z" fill="red" fill-rule="evenodd" stroke="red" stroke-linecap="butt" stroke-width="4"/><path d="M760.01 136.97c0-5.923 4.802-10.725 10.725-10.725h86.96a10.724 10.724 0 0 1 10.725 10.725v42.897c0 5.923-4.802 10.725-10.725 10.725h-86.96c-5.923 0-10.725-4.802-10.725-10.725z" fill="#fce5cd" fill-rule="evenodd"/><path d="M760.01 136.97c0-5.923 4.802-10.725 10.725-10.725h86.96a10.724 10.724 0 0 1 10.725 10.725v42.897c0 5.923-4.802 10.725-10.725 10.725h-86.96c-5.923 0-10.725-4.802-10.725-10.725z" stroke="#000" stroke-linecap="butt" stroke-linejoin="round"/><path d="M777.3 155.22v-8.422h-3.14v-1.125h7.562v1.125h-3.156v8.422H777.3zm5.657 0v-9.547h1.266v8.422h4.703v1.125h-5.97zm7.037-3.063 1.204-.109q.078.719.39 1.188.313.453.953.734.657.281 1.47.281.718 0 1.265-.219.562-.218.828-.578.265-.375.265-.828t-.265-.781q-.25-.328-.844-.562-.39-.157-1.703-.47t-1.844-.593q-.672-.36-1.015-.89-.329-.532-.329-1.188 0-.719.407-1.344t1.187-.953q.797-.328 1.766-.328 1.047 0 1.86.344t1.25 1.015q.437.656.468 1.485l-1.203.093q-.11-.906-.672-1.36-.562-.468-1.656-.468-1.14 0-1.672.422-.516.422-.516 1.016 0 .515.36.843.375.329 1.906.688 1.547.344 2.11.594.843.39 1.234.984.39.578.39 1.36 0 .75-.437 1.437-.422.672-1.25 1.047-.813.36-1.828.36-1.297 0-2.172-.376t-1.375-1.125q-.5-.765-.531-1.719zm15.437 2.016.172 1.031q-.5.11-.89.11-.64 0-1-.203-.344-.204-.485-.532t-.14-1.39v-3.97h-.86v-.905h.86v-1.72l1.172-.702v2.422h1.172v.906h-1.172v4.047q0 .5.047.64.062.141.203.235.14.078.406.078.203 0 .516-.047zm1.125 1.047v-6.906h1.063v1.047q.406-.735.734-.97.344-.233.766-.233.594 0 1.203.375l-.406 1.078q-.438-.25-.86-.25-.39 0-.703.234-.297.234-.422.64-.203.626-.203 1.36v3.625h-1.172zm8.97-.86q-.656.563-1.266.797-.593.22-1.28.22-1.141 0-1.75-.548-.61-.562-.61-1.437 0-.5.219-.922.234-.422.609-.672t.844-.39q.343-.079 1.047-.172 1.422-.172 2.093-.407v-.297q0-.718-.328-1.015-.453-.39-1.344-.39-.812 0-1.218.296-.39.281-.578 1.016l-1.141-.157q.156-.734.516-1.187t1.03-.688q.673-.25 1.563-.25t1.438.204q.562.203.812.53.266.313.375.798.047.297.047 1.078v1.562q0 1.625.078 2.063t.297.828h-1.219q-.187-.36-.234-.86zm-.094-2.609q-.64.266-1.922.438-.718.11-1.015.25-.297.125-.469.375-.156.25-.156.547 0 .468.344.78.359.313 1.046.313.672 0 1.204-.297t.78-.812q.188-.39.188-1.172v-.422zm2.99 3.469v-6.906h1.063v.984q.75-1.14 2.188-1.14.625 0 1.156.218t.781.594q.266.36.375.86.063.328.063 1.14v4.25h-1.172v-4.203q0-.719-.14-1.063-.141-.359-.485-.562-.344-.219-.813-.219-.75 0-1.296.469t-.547 1.797v3.781h-1.172zm6.945-2.062 1.156-.188q.11.703.547 1.078.453.36 1.25.36.812 0 1.203-.329t.39-.765q0-.39-.359-.625-.234-.156-1.188-.39-1.296-.329-1.796-.563-.485-.25-.75-.657-.25-.421-.25-.937 0-.453.203-.844.218-.406.578-.672.281-.187.75-.328t1.015-.14q.813 0 1.422.234t.907.64q.296.391.406 1.063l-1.14.156q-.079-.531-.454-.828-.375-.312-1.062-.312-.813 0-1.157.265t-.343.625q0 .235.14.422.157.188.453.313.172.062 1.032.297 1.25.328 1.734.546.5.204.781.61t.281 1-.343 1.11-1 .796q-.64.281-1.453.281-1.344 0-2.047-.562t-.907-1.656zm7.132 4.718v-9.562h1.078v.89q.375-.53.844-.78.485-.266 1.156-.266.875 0 1.547.453.688.453 1.032 1.28t.343 1.829q0 1.047-.375 1.906-.375.844-1.11 1.297-.718.453-1.53.453-.578 0-1.047-.25t-.766-.625v3.375H832.5zm1.063-6.078q0 1.344.531 1.985.547.625 1.313.625.78 0 1.343-.657t.563-2.047q0-1.312-.547-1.968-.547-.672-1.297-.672t-1.328.703-.578 2.031zm5.912-.031q0-1.922 1.078-2.844.891-.765 2.172-.765 1.422 0 2.328.937.907.922.907 2.578 0 1.328-.407 2.094-.39.766-1.156 1.187t-1.672.422q-1.453 0-2.36-.922-.89-.937-.89-2.687zm1.203 0q0 1.328.579 1.984.593.657 1.468.657t1.453-.657q.579-.672.579-2.03 0-1.282-.594-1.938-.578-.657-1.438-.657-.875 0-1.468.657-.579.656-.579 1.984zm6.632 3.453v-6.906h1.062v1.047q.406-.735.735-.969.343-.234.765-.234.594 0 1.203.375l-.406 1.078q-.438-.25-.86-.25-.39 0-.702.234-.297.234-.422.64-.203.626-.203 1.36v3.625h-1.172zm7.016-1.047.172 1.031q-.5.11-.89.11-.641 0-1-.203-.344-.203-.485-.532t-.14-1.39v-3.969h-.86v-.906h.86v-1.72l1.171-.702v2.422h1.172v.906h-1.172v4.047q0 .5.047.64.063.141.203.235.14.078.407.078.203 0 .515-.047zM795.36 169.15l1.156-.188q.11.704.547 1.079.453.359 1.25.359.813 0 1.203-.328t.39-.766q0-.39-.359-.625-.234-.156-1.187-.39-1.297-.329-1.797-.563-.484-.25-.75-.656-.25-.422-.25-.938 0-.453.203-.843.219-.407.578-.672.282-.188.75-.328t1.016-.141q.812 0 1.422.234t.906.641q.297.39.406 1.062l-1.14.157q-.078-.532-.453-.828-.375-.313-1.063-.313-.812 0-1.156.266t-.344.625q0 .234.14.422.157.187.454.312.172.063 1.031.297 1.25.328 1.734.547.5.203.782.61t.28 1-.343 1.109-1 .797q-.64.28-1.453.28-1.344 0-2.047-.562t-.906-1.656zm6.695-1.39q0-1.922 1.078-2.844.891-.766 2.172-.766 1.422 0 2.328.937.907.922.907 2.579 0 1.328-.407 2.093-.39.766-1.156 1.188t-1.672.422q-1.453 0-2.36-.922-.89-.938-.89-2.688zm1.203 0q0 1.328.579 1.984.593.656 1.468.656t1.453-.656q.579-.672.579-2.031 0-1.282-.594-1.938-.578-.656-1.438-.656-.875 0-1.469.656-.578.656-.578 1.984zm11.162.921 1.157.157q-.188 1.187-.97 1.859t-1.921.672q-1.406 0-2.281-.922-.86-.938-.86-2.656 0-1.125.375-1.97t1.125-1.25q.766-.421 1.657-.421 1.125 0 1.843.578.72.563.922 1.61l-1.14.171q-.172-.703-.594-1.046-.406-.36-.984-.36-.891 0-1.454.64-.546.641-.546 2 0 1.407.53 2.032.548.625 1.407.625.687 0 1.14-.422.47-.422.594-1.297zm2.165 2.531v-9.546h1.171v5.453l2.766-2.813h1.516l-2.641 2.563 2.906 4.343h-1.437l-2.282-3.53-.828.796v2.735h-1.172zm11.382-2.218 1.204.14q-.282 1.063-1.063 1.657-.766.578-1.969.578-1.515 0-2.406-.938t-.89-2.61q0-1.75.89-2.702.906-.97 2.344-.97 1.39 0 2.265.938t.875 2.657v.312h-5.156q.063 1.14.64 1.75.579.594 1.438.594.657 0 1.11-.328.453-.344.719-1.078zm-3.843-1.907h3.86q-.079-.859-.438-1.296-.563-.688-1.454-.688-.812 0-1.359.547-.547.531-.61 1.437zm9.084 3.079.172 1.03q-.5.11-.89.11-.641 0-1-.203-.344-.203-.485-.531t-.14-1.39v-3.97h-.86v-.906h.86v-1.719l1.171-.703v2.422h1.172v.906h-1.172v4.047q0 .5.047.64.063.142.203.235.14.078.407.078.203 0 .515-.046z" fill="#000"/><path d="M776.8 82.444c18.709 0 37.417 21.906 37.417 43.811" fill="none"/><path d="M776.8 82.444c9.354 0 18.709 5.476 25.724 13.691a50.613 50.613 0 0 1 8.477 14.033 48.1 48.1 0 0 1 .894 2.43l.046.139" stroke="red" stroke-linecap="butt" stroke-linejoin="round" stroke-width="4"/><path d="m811.94 112.74-5.183-3.69 6.488 11.442 2.384-12.934z" fill="red" fill-rule="evenodd" stroke="red" stroke-linecap="butt" stroke-width="4"/><path d="M574.21 212.14h58.268v40.85H574.21z" fill="#fce5cd" fill-rule="evenodd"/><path d="M574.21 212.14h58.268v40.85H574.21z" stroke="#757575" stroke-linecap="butt" stroke-linejoin="round"/><path d="M646.89 212.14h58.268v40.85H646.89z" fill="#fce5cd" fill-rule="evenodd"/><path d="M646.89 212.14h58.268v40.85H646.89z" stroke="#757575" stroke-linecap="butt" stroke-linejoin="round"/><path d="M719.56 212.14h58.268v40.85H719.56z" fill="#fce5cd" fill-rule="evenodd"/><path d="M719.56 212.14h58.268v40.85H719.56z" stroke="#757575" stroke-linecap="butt" stroke-linejoin="round"/><path d="M738.82 236.03v-6.672h.875v2.735h3.469v-2.735h.89v6.672h-.89v-3.14h-3.469v3.14h-.875zm11.471-2.344.89.219q-.28 1.094-1.015 1.672-.719.562-1.75.562-1.094 0-1.766-.437t-1.03-1.266q-.345-.844-.345-1.797 0-1.047.391-1.812.406-.781 1.14-1.188t1.61-.406q1.016 0 1.688.516.687.515.953 1.437l-.86.203q-.234-.734-.687-1.062-.438-.328-1.11-.328-.765 0-1.28.375-.516.36-.735.984-.203.625-.203 1.281 0 .844.25 1.485t.765.953q.532.312 1.141.312.734 0 1.25-.422.516-.437.703-1.28zm1.94 2.344v-6.672h1.328l1.594 4.719q.218.672.312.984.11-.36.36-1.062l1.593-4.64h1.188v6.671h-.844v-5.594l-1.953 5.594h-.797l-1.922-5.687v5.687h-.86z" fill="#000"/><path d="M632.48 232.57h14.394" fill="none"/><path d="M632.48 232.57h8.394" stroke="#757575" stroke-linecap="butt" stroke-linejoin="round"/><path d="m640.87 234.22 4.538-1.652-4.538-1.651z" fill="#757575" fill-rule="evenodd" stroke="#757575" stroke-linecap="butt"/><path d="M705.15 232.57h14.394" fill="none"/><path d="M705.15 232.57h8.394" stroke="#757575" stroke-linecap="butt" stroke-linejoin="round"/><path d="m713.55 234.22 4.538-1.652-4.538-1.651z" fill="#757575" fill-rule="evenodd" stroke="#757575" stroke-linecap="butt"/><path d="M602.46 175.72h147.12v40.85H602.46z" fill="none"/><path d="M612.57 198.8v-10.484h1.438l5.5 8.234v-8.234h1.328V198.8h-1.422l-5.5-8.25v8.25h-1.344zm15.647-2.453 1.328.172q-.312 1.172-1.172 1.812-.844.64-2.172.64-1.672 0-2.656-1.015-.969-1.03-.969-2.89 0-1.922.985-2.97 1-1.062 2.578-1.062 1.515 0 2.484 1.032t.969 2.922q0 .109-.016.343h-5.656q.063 1.25.703 1.922.64.656 1.594.656.703 0 1.203-.359.5-.375.797-1.203zm-4.234-2.078h4.25q-.094-.953-.485-1.438-.625-.75-1.61-.75-.874 0-1.484.594t-.671 1.594zm9.995 3.375.187 1.14q-.547.11-.984.11-.688 0-1.078-.219t-.547-.578-.157-1.516v-4.375h-.953v-1h.953v-1.89l1.282-.766v2.656h1.296v1h-1.296v4.438q0 .547.062.719.078.156.219.25.156.078.453.078.203 0 .562-.047zm2.665 1.156-2.328-7.594h1.328l1.203 4.375.453 1.64q.032-.124.391-1.577l1.219-4.438h1.328l1.125 4.406.39 1.454.438-1.47 1.297-4.39h1.25l-2.375 7.594h-1.344l-1.203-4.547-.297-1.297-1.531 5.844h-1.344zm8.694-3.797q0-2.11 1.172-3.125.984-.844 2.39-.844 1.579 0 2.563 1.032 1 1.015 1 2.828 0 1.468-.438 2.312-.437.828-1.28 1.297t-1.845.469q-1.593 0-2.578-1.016-.984-1.031-.984-2.953zm1.328 0q0 1.453.625 2.188.64.718 1.61.718t1.593-.718q.64-.735.64-2.235 0-1.406-.64-2.125-.64-.734-1.594-.734-.968 0-1.609.719-.625.718-.625 2.187zm7.292 3.797v-7.594h1.156v1.14q.453-.796.828-1.046.375-.266.813-.266.656 0 1.328.407l-.438 1.203q-.469-.282-.953-.282-.422 0-.766.25-.328.25-.468.704-.22.687-.22 1.5v3.984h-1.28zm4.896 0v-10.484h1.297v5.969l3.047-3.078h1.672l-2.907 2.812 3.188 4.781h-1.578l-2.516-3.89-.906.875v3.015h-1.297zm11.713 0v-6.594h-1.14v-1h1.14v-.812q0-.766.125-1.14.187-.5.656-.813t1.313-.313q.547 0 1.203.125l-.188 1.125q-.406-.062-.765-.062-.578 0-.828.25-.235.25-.235.937v.703h1.469v1h-1.469v6.594h-1.281zm3.76-9.016v-1.468h1.296v1.468h-1.297zm0 9.016v-7.594h1.296v7.594h-1.297zm3.224 0v-10.484h1.282V198.8h-1.282zm6.1-1.156.188 1.14q-.547.11-.985.11-.687 0-1.078-.219t-.547-.578-.156-1.516v-4.375h-.953v-1h.953v-1.89l1.281-.766v2.656h1.297v1h-1.297v4.438q0 .547.063.719.078.156.219.25.156.078.453.078.203 0 .562-.047zm6.463-1.297 1.328.172q-.313 1.172-1.172 1.812-.844.64-2.172.64-1.672 0-2.656-1.015-.969-1.03-.969-2.89 0-1.922.985-2.97 1-1.062 2.578-1.062 1.515 0 2.484 1.032t.969 2.922q0 .109-.016.343h-5.656q.062 1.25.703 1.922.64.656 1.594.656.703 0 1.203-.359.5-.375.797-1.203zm-4.235-2.078h4.25q-.093-.953-.484-1.438-.625-.75-1.61-.75-.874 0-1.484.594t-.672 1.594zm7.167 4.531v-7.594h1.156v1.14q.453-.796.828-1.046.375-.266.813-.266.656 0 1.328.407l-.437 1.203q-.47-.282-.954-.282-.421 0-.765.25-.328.25-.469.704-.219.687-.219 1.5v3.984h-1.28zm13.921-2.781 1.266.156q-.203 1.313-1.063 2.063-.844.734-2.094.734-1.562 0-2.515-1.016-.938-1.03-.938-2.922 0-1.234.407-2.156t1.234-1.375q.844-.469 1.812-.469 1.25 0 2.032.625t1.015 1.766l-1.265.203q-.172-.765-.625-1.156t-1.094-.39q-.985 0-1.594.702t-.61 2.204q0 1.53.579 2.234.594.687 1.547.687.75 0 1.265-.453.516-.468.64-1.437zm2.375 2.781v-10.484h1.281v3.75q.907-1.031 2.282-1.031.843 0 1.468.328t.89.922q.267.578.267 1.703v4.812h-1.282v-4.812q0-.969-.422-1.406t-1.187-.438q-.578 0-1.078.297t-.719.813q-.219.5-.219 1.39v4.156h-1.28zm13.104-.938q-.719.61-1.375.86t-1.422.25q-1.25 0-1.922-.61t-.672-1.562q0-.563.25-1.016.25-.468.657-.75.422-.28.937-.421.375-.094 1.14-.188 1.563-.187 2.298-.453.015-.266.015-.328 0-.797-.375-1.11-.484-.437-1.453-.437-.922 0-1.36.328-.421.313-.624 1.11l-1.266-.172q.172-.797.563-1.297t1.14-.766 1.72-.266q.983 0 1.593.235.61.219.89.562t.407.875q.062.328.062 1.188v1.719q0 1.796.078 2.28.079.47.329.907h-1.344q-.203-.406-.266-.937zm-.11-2.874q-.702.28-2.093.484-.797.11-1.125.265-.328.141-.516.422-.172.266-.172.594 0 .516.391.86t1.14.343q.735 0 1.313-.312.594-.328.86-.89.203-.438.203-1.298v-.469zm3.308-5.204v-1.468h1.297v1.468h-1.297zm0 9.016v-7.594h1.297v7.594h-1.297zm3.256 0v-7.594h1.156v1.078q.844-1.25 2.422-1.25.688 0 1.266.25.578.235.86.64t.406.954q.062.36.062 1.25v4.672h-1.281v-4.625q0-.781-.156-1.172t-.547-.625q-.375-.234-.89-.234-.813 0-1.423.53-.594.517-.594 1.97v4.156h-1.28z" fill="#000"/><path d="M760.01 158.42c-105.4 0-187.58 18.535-210.8 37.071-23.224 18.535 12.502 37.071 25.004 37.071" fill="none"/><path d="M760.01 158.42c-105.4 0-187.58 18.535-210.8 37.071-11.612 9.268-8.487 18.535-.895 25.486 1.898 1.738 4.074 3.33 6.37 4.742a53.126 53.126 0 0 0 5.298 2.856c.298.14.595.277.893.41l.094.042" stroke="red" stroke-linecap="butt" stroke-linejoin="round" stroke-width="4"/><path d="m560.97 229.02-5.506 3.186 13.1-1.16-10.78-7.532z" fill="red" fill-rule="evenodd" stroke="red" stroke-linecap="butt" stroke-width="4"/></g></svg>