<svg width="447.21" height="261.38" fill="none" stroke-linecap="square" stroke-miterlimit="10" xmlns="http://www.w3.org/2000/svg"><path d="M0 0h528.21v377.38H0z" fill="none"/><path d="M30.299 64h150.3v136h-150.3z" fill="#d9d9d9" opacity=".25"/><path d="M30.299 64h150.3v136h-150.3z" opacity=".25" stroke="#000" stroke-linecap="butt" stroke-linejoin="round"/><path d="M36.598 144h136v48h-136z" fill="#cfe2f3"/><path d="M36.598 144h136v48h-136z" opacity=".25" stroke="#000" stroke-linecap="butt" stroke-linejoin="round"/><path d="M80.173 174.92v-13.594h9.844v1.594H81.97v4.172H89.5v1.593H81.97v4.625h8.36v1.61zm12.194 0v-9.86h1.5v1.407q1.094-1.625 3.14-1.625.891 0 1.641.328.75.312 1.11.844.375.515.53 1.218.095.47.095 1.625v6.063H98.71v-6q0-1.016-.203-1.516-.188-.515-.688-.812-.5-.297-1.172-.297-1.062 0-1.844.672-.765.672-.765 2.578v5.375zm13.11 0-3.75-9.86h1.766l2.125 5.907q.343.953.625 1.984.218-.781.625-1.875l2.187-6.015h1.719l-3.734 9.859zm5.969-4.922q0-2.734 1.531-4.062 1.266-1.094 3.094-1.094 2.031 0 3.312 1.344 1.297 1.328 1.297 3.671 0 1.907-.578 3-.562 1.079-1.656 1.688-1.078.594-2.375.594-2.063 0-3.344-1.328-1.281-1.328-1.281-3.813zm1.719 0q0 1.89.828 2.828t2.078.938 2.062-.938q.828-.953.828-2.89 0-1.829-.828-2.766-.828-.938-2.062-.938-1.25 0-2.078.938-.828.938-.828 2.828zm9.203 8.719-.171-1.563q.546.141.953.141.547 0 .875-.187.343-.188.562-.516.156-.25.5-1.25.047-.14.156-.406l-3.734-9.875h1.797l2.047 5.718q.406 1.079.719 2.282.28-1.157.687-2.25l2.094-5.75h1.672l-3.75 10.03q-.594 1.626-.938 2.235-.437.828-1.015 1.203-.579.39-1.375.39-.485 0-1.079-.202z" fill="#000"/><path d="M36.598 72h136v48h-136z" fill="#cfe2f3" opacity=".25"/><path d="M36.598 72h136v48h-136z" opacity=".25" stroke="#000" stroke-linecap="butt" stroke-linejoin="round"/><path d="m74.353 98.545 1.688-.14q.124 1.015.562 1.671t1.36 1.063q.937.406 2.093.406 1.031 0 1.813-.312.797-.313 1.187-.844t.39-1.156q0-.641-.374-1.11-.375-.484-1.235-.812-.546-.22-2.421-.657-1.875-.453-2.625-.859-.97-.516-1.454-1.266-.468-.75-.468-1.687 0-1.031.578-1.922.594-.906 1.703-1.36 1.125-.468 2.5-.468 1.515 0 2.672.484t1.765 1.438q.625.937.672 2.14l-1.719.125q-.14-1.28-.953-1.937-.797-.672-2.36-.672-1.624 0-2.374.61-.75.593-.75 1.437 0 .734.531 1.203.516.469 2.703.969 2.203.5 3.016.875 1.187.547 1.75 1.39.578.828.578 1.922t-.625 2.063q-.625.953-1.797 1.484-1.156.531-2.61.531-1.843 0-3.093-.53-1.25-.548-1.969-1.626-.703-1.078-.734-2.453zm19.584 1.203 1.719.219q-.406 1.5-1.516 2.344-1.094.828-2.812.828-2.157 0-3.422-1.328-1.266-1.328-1.266-3.735 0-2.484 1.266-3.86 1.281-1.374 3.328-1.374 1.984 0 3.234 1.344t1.25 3.797q0 .14-.015.437h-7.344q.094 1.625.922 2.484.828.86 2.062.86.906 0 1.547-.469.656-.484 1.047-1.547zm-5.484-2.703h5.5q-.11-1.234-.625-1.86-.797-.968-2.078-.968-1.141 0-1.938.781-.781.766-.86 2.047zm9.094 5.875v-9.86h1.5v1.5q.578-1.046 1.063-1.374.484-.344 1.078-.344.843 0 1.719.547l-.579 1.547q-.609-.36-1.234-.36-.547 0-.984.328-.422.328-.61.907-.281.89-.281 1.953v5.156zm8.963 0-3.75-9.86h1.765l2.125 5.907q.344.953.625 1.984.22-.781.625-1.875l2.188-6.015h1.719l-3.735 9.859zm6.61-11.688v-1.906h1.671v1.906zm0 11.688v-9.86h1.671v9.86zm10.566-3.61 1.64.22q-.265 1.687-1.374 2.656-1.11.953-2.735.953-2.015 0-3.25-1.313-1.218-1.328-1.218-3.797 0-1.593.515-2.78.531-1.204 1.61-1.798 1.093-.61 2.359-.61 1.61 0 2.625.813 1.016.813 1.313 2.313l-1.625.25q-.235-1-.829-1.5t-1.422-.5q-1.265 0-2.062.906-.781.906-.781 2.86 0 1.984.765 2.89.766.89 1.985.89.984 0 1.64-.593.657-.61.844-1.86zm9.64.438 1.72.219q-.407 1.5-1.516 2.344-1.094.828-2.813.828-2.156 0-3.421-1.328-1.266-1.328-1.266-3.735 0-2.484 1.266-3.86 1.28-1.374 3.328-1.374 1.984 0 3.234 1.344t1.25 3.797q0 .14-.016.437h-7.343q.093 1.625.922 2.484.828.86 2.062.86.906 0 1.547-.469.656-.484 1.047-1.547zm-5.484-2.703h5.5q-.109-1.234-.625-1.86-.796-.968-2.078-.968-1.14 0-1.937.781-.781.766-.86 2.047z" fill="#000" opacity=".25"/><path d="M104.6 120v24" fill="none" opacity=".25"/><path d="M104.6 123.43v20.573" opacity=".25" stroke="#000" stroke-linecap="butt" stroke-linejoin="round" stroke-width="1.095"/><path d="m104.6 123.43 1.125 1.125-1.125-3.09-1.125 3.09z" fill="#000" fill-rule="evenodd" opacity=".25" stroke="#000" stroke-linecap="butt"/><path d="M262.3 64h150.3v136H262.3z" fill="#d9d9d9" opacity=".25"/><path d="M262.3 64h150.3v136H262.3z" opacity=".25" stroke="#000" stroke-linecap="butt" stroke-linejoin="round"/><path d="M268.6 144h136v48h-136z" fill="#cfe2f3"/><path d="M268.6 144h136v48h-136z" stroke="#000" stroke-linecap="butt" stroke-linejoin="round"/><path d="M312.17 174.92v-13.594h9.844v1.594h-8.047v4.172h7.531v1.593h-7.531v4.625h8.36v1.61zm12.194 0v-9.86h1.5v1.407q1.094-1.625 3.14-1.625.891 0 1.641.328.75.312 1.11.844.375.515.53 1.218.095.47.095 1.625v6.063h-1.672v-6q0-1.016-.203-1.516-.188-.515-.688-.812-.5-.297-1.172-.297-1.062 0-1.844.672-.765.672-.765 2.578v5.375zm13.11 0-3.75-9.86h1.766l2.125 5.907q.343.953.625 1.984.218-.781.625-1.875l2.187-6.015h1.719l-3.734 9.859zm5.969-4.922q0-2.734 1.531-4.062 1.266-1.094 3.094-1.094 2.031 0 3.312 1.344 1.297 1.328 1.297 3.671 0 1.907-.578 3-.562 1.079-1.656 1.688-1.078.594-2.375.594-2.063 0-3.344-1.328-1.281-1.328-1.281-3.813zm1.719 0q0 1.89.828 2.828t2.078.938 2.062-.938q.828-.953.828-2.89 0-1.829-.828-2.766-.828-.938-2.062-.938-1.25 0-2.078.938-.828.938-.828 2.828zm9.203 8.719-.171-1.563q.546.141.953.141.547 0 .875-.187.343-.188.562-.516.156-.25.5-1.25.047-.14.156-.406l-3.734-9.875h1.797l2.047 5.718q.406 1.079.719 2.282.28-1.157.687-2.25l2.094-5.75h1.672l-3.75 10.03q-.594 1.626-.938 2.235-.437.828-1.015 1.203-.578.39-1.375.39-.485 0-1.078-.202z" fill="#000"/><path d="M268.6 72h136v48h-136z" fill="#cfe2f3" opacity=".25"/><path d="M268.6 72h136v48h-136z" opacity=".25" stroke="#000" stroke-linecap="butt" stroke-linejoin="round"/><path d="m306.35 98.545 1.688-.14q.125 1.015.562 1.671t1.36 1.063q.937.406 2.093.406 1.031 0 1.813-.312.797-.313 1.187-.844.39-.531.39-1.156 0-.641-.374-1.11-.375-.484-1.235-.812-.546-.22-2.421-.657-1.875-.453-2.625-.859-.97-.516-1.454-1.266-.468-.75-.468-1.687 0-1.031.578-1.922.594-.906 1.703-1.36 1.125-.468 2.5-.468 1.515 0 2.672.484t1.765 1.438q.625.937.672 2.14l-1.719.125q-.14-1.28-.953-1.937-.797-.672-2.36-.672-1.624 0-2.374.61-.75.593-.75 1.437 0 .734.531 1.203.516.469 2.703.969 2.203.5 3.016.875 1.187.547 1.75 1.39.578.828.578 1.922t-.625 2.063q-.625.953-1.797 1.484-1.156.531-2.61.531-1.843 0-3.093-.53-1.25-.548-1.969-1.626-.703-1.078-.734-2.453zm19.584 1.203 1.719.219q-.406 1.5-1.516 2.344-1.094.828-2.812.828-2.156 0-3.422-1.328t-1.266-3.735q0-2.484 1.266-3.86 1.281-1.374 3.328-1.374 1.984 0 3.234 1.344t1.25 3.797q0 .14-.015.437h-7.344q.094 1.625.922 2.484.828.86 2.062.86.907 0 1.547-.469.656-.484 1.047-1.547zm-5.484-2.703h5.5q-.11-1.234-.625-1.86-.797-.968-2.078-.968-1.141 0-1.938.781-.781.766-.86 2.047zm9.094 5.875v-9.86h1.5v1.5q.578-1.046 1.063-1.374.484-.344 1.078-.344.843 0 1.719.547l-.579 1.547q-.609-.36-1.234-.36-.547 0-.984.328-.422.328-.61.907-.281.89-.281 1.953v5.156zm8.963 0-3.75-9.86h1.765l2.125 5.907q.344.953.625 1.984.22-.781.625-1.875l2.188-6.015h1.719l-3.735 9.859zm6.61-11.688v-1.906h1.671v1.906zm0 11.688v-9.86h1.671v9.86zm10.566-3.61 1.64.22q-.265 1.687-1.374 2.656-1.11.953-2.735.953-2.015 0-3.25-1.313-1.218-1.328-1.218-3.797 0-1.593.515-2.78.531-1.204 1.61-1.798 1.093-.61 2.359-.61 1.61 0 2.625.813 1.016.813 1.313 2.313l-1.625.25q-.235-1-.829-1.5t-1.421-.5q-1.266 0-2.063.906-.781.906-.781 2.86 0 1.984.765 2.89.766.89 1.985.89.984 0 1.64-.593.657-.61.844-1.86zm9.64.438 1.72.219q-.407 1.5-1.516 2.344-1.094.828-2.813.828-2.156 0-3.421-1.328-1.266-1.328-1.266-3.735 0-2.484 1.266-3.86 1.28-1.374 3.328-1.374 1.984 0 3.234 1.344t1.25 3.797q0 .14-.016.437h-7.343q.093 1.625.922 2.484.828.86 2.062.86.906 0 1.547-.469.656-.484 1.047-1.547zm-5.484-2.703h5.5q-.109-1.234-.625-1.86-.796-.968-2.078-.968-1.14 0-1.937.781-.781.766-.86 2.047z" fill="#000" opacity=".25"/><path d="M336.6 120v24" fill="none" opacity=".25"/><path d="M336.6 123.43v17.146" opacity=".25" stroke="#000" stroke-linecap="butt" stroke-linejoin="round"/><path d="m336.6 123.43 1.125 1.125-1.125-3.09-1.125 3.09zM336.6 140.57l-1.125-1.125 1.125 3.09 1.125-3.09z" fill="#000" fill-rule="evenodd" opacity=".25" stroke="#000" stroke-linecap="butt"/><path d="M172.6 168h192" fill="none"/><path d="M176.03 168h92.156" stroke="#000" stroke-linecap="butt" stroke-linejoin="round" stroke-width=".706"/><path d="m176.03 168 1.125-1.125-3.09 1.125 3.09 1.125z" fill="#000" fill-rule="evenodd" stroke="#000" stroke-linecap="butt"/><path d="M192 136h144v24H192zM192 160h144v40H192zM104.6 192l63.402 72M104.6 192l63.402 144M432.6 192l-72.598 72M432.6 192l-72.598 144" fill="none"/><text x="182.318" y="178.771" fill="#000" font-family="sans-serif" font-size="40" style="line-height:1.25" xml:space="preserve"><tspan x="182.318" y="178.771" font-size="10.667">:9221</tspan></text></svg>