<svg fill="none" stroke-linecap="square" stroke-miterlimit="10" viewBox="0 0 639.64 349.29" xmlns="http://www.w3.org/2000/svg"><clipPath id="a"><path d="M0 0h639.64v349.29H0V0z"/></clipPath><g clip-path="url(#a)"><path d="M0 0h639.64v349.29H0z" fill="none"/><path d="M440 8h176v88H440z" fill="#cfe2f3"/><path d="M440 8h176v88H440z" stroke="#000" stroke-linecap="butt" stroke-linejoin="round"/><path d="M474.06 25.607v1.938h-1.797v-1.532q0-1.25.297-1.797.39-.75 1.234-1.125l.407.641q-.5.219-.75.64-.235.423-.266 1.235h.875zm2.875 0v1.938h-1.797v-1.532q0-1.25.297-1.797.39-.75 1.234-1.125l.407.641q-.5.219-.75.64-.235.423-.266 1.235h.875zm2.338 11.312V23.325h9.172v1.594h-7.375v4.219h6.375v1.609h-6.375v6.172h-1.797zm11.068 0v-9.86h1.5v1.5q.578-1.046 1.062-1.374.485-.344 1.078-.344.844 0 1.72.547l-.579 1.547q-.61-.36-1.234-.36-.547 0-.985.328-.422.328-.61.907-.28.89-.28 1.953v5.156h-1.672zm5.603-4.922q0-2.734 1.531-4.062 1.266-1.094 3.094-1.094 2.031 0 3.312 1.344 1.297 1.328 1.297 3.671 0 1.907-.578 3-.562 1.079-1.656 1.688-1.078.594-2.375.594-2.062 0-3.344-1.328t-1.28-3.813zm1.719 0q0 1.89.828 2.828t2.078.938 2.063-.938q.828-.953.828-2.89 0-1.829-.828-2.766t-2.063-.938q-1.25 0-2.078.938t-.828 2.828zm9.282 4.922v-9.86h1.5v1.407q1.094-1.625 3.14-1.625.891 0 1.641.328.75.312 1.11.844.374.515.53 1.218.094.47.094 1.625v6.063h-1.672v-6q0-1.016-.203-1.516-.187-.515-.687-.812-.5-.297-1.172-.297-1.062 0-1.844.672-.765.672-.765 2.578v5.375h-1.672zm14.032-1.5.234 1.484q-.703.141-1.265.141-.907 0-1.407-.281-.5-.297-.703-.75-.203-.469-.203-1.985v-5.656H516.4V27.06h1.234v-2.438l1.656-1v3.438h1.688v1.312h-1.688v5.75q0 .719.078.922.094.203.297.328t.578.125q.266 0 .735-.078zm1.09-10.297v-1.938h1.78v1.532q0 1.234-.28 1.78-.407.75-1.25 1.141l-.407-.671q.5-.204.75-.641t.266-1.203h-.86zm2.874 0v-1.938h1.781v1.532q0 1.234-.28 1.78-.407.75-1.25 1.141l-.407-.671q.5-.204.75-.641t.281-1.203h-.875zm9.209 11.797V23.325h9.844v1.594h-8.047v4.172h7.53v1.593h-7.53v4.625h8.36v1.61H534.15zm12.194 0v-9.86h1.5v1.407q1.094-1.625 3.14-1.625.891 0 1.641.328.75.312 1.11.844.374.515.53 1.218.094.47.094 1.625v6.063h-1.672v-6q0-1.016-.203-1.516-.187-.515-.687-.812t-1.172-.297q-1.063 0-1.844.672-.765.672-.765 2.578v5.375h-1.672zm13.11 0-3.75-9.86h1.765l2.125 5.907q.344.953.625 1.984.22-.781.625-1.875l2.188-6.015h1.719l-3.735 9.859h-1.562zm5.969-4.922q0-2.734 1.53-4.062 1.266-1.094 3.095-1.094 2.03 0 3.312 1.344 1.297 1.328 1.297 3.671 0 1.907-.578 3-.563 1.079-1.656 1.688-1.078.594-2.375.594-2.063 0-3.344-1.328t-1.281-3.813zm1.718 0q0 1.89.829 2.828.828.938 2.078.938t2.062-.938q.828-.953.828-2.89 0-1.829-.828-2.766t-2.062-.938q-1.25 0-2.078.938-.829.937-.829 2.828zm9.204 8.719-.172-1.563q.547.141.954.141.546 0 .875-.187.343-.188.562-.516.156-.25.5-1.25.047-.14.156-.406l-3.734-9.875h1.797l2.047 5.718q.406 1.079.718 2.282.282-1.157.688-2.25l2.094-5.75h1.672l-3.75 10.03q-.594 1.626-.938 2.235-.437.828-1.015 1.203-.579.39-1.375.39-.485 0-1.079-.202zM481.28 58.92V45.326h9.844v1.594h-8.047v4.172h7.531v1.594h-7.531v4.625h8.36v1.609H481.28zm18.584 0v-1.25q-.938 1.469-2.75 1.469-1.172 0-2.172-.64-.984-.657-1.531-1.813-.531-1.172-.531-2.688 0-1.469.484-2.672.5-1.203 1.469-1.844.984-.64 2.203-.64.89 0 1.578.375.703.375 1.14.984v-4.875h1.657V58.92h-1.547zm-5.281-4.922q0 1.89.797 2.828.812.938 1.89.938 1.094 0 1.86-.89t.765-2.735q0-2.016-.781-2.953-.781-.954-1.922-.954-1.11 0-1.86.907t-.75 2.86zm8.97 5.735 1.609.25q.11.75.578 1.093.61.453 1.687.453 1.172 0 1.797-.468.625-.453.86-1.282.125-.515.109-2.156-1.094 1.297-2.719 1.297-2.031 0-3.156-1.469-1.11-1.468-1.11-3.515 0-1.406.516-2.594.516-1.203 1.485-1.844.968-.656 2.265-.656 1.75 0 2.875 1.406v-1.187h1.547v8.515q0 2.313-.469 3.266-.468.969-1.484 1.515-1.016.563-2.5.563-1.766 0-2.86-.797-1.078-.797-1.03-2.39zm1.374-5.922q0 1.953.766 2.843.781.891 1.937.891 1.141 0 1.922-.89t.782-2.782q0-1.812-.813-2.719-.797-.921-1.922-.921-1.11 0-1.89.906-.782.89-.782 2.672zm16.048 1.937 1.72.219q-.407 1.5-1.517 2.344-1.093.828-2.812.828-2.156 0-3.422-1.328t-1.266-3.735q0-2.484 1.266-3.86 1.281-1.374 3.328-1.374 1.985 0 3.235 1.344t1.25 3.797q0 .14-.016.437h-7.344q.094 1.625.922 2.484t2.063.86q.906 0 1.546-.469.657-.484 1.047-1.547zm-5.484-2.703h5.5q-.11-1.234-.625-1.86-.797-.968-2.078-.968-1.14 0-1.938.781-.781.766-.86 2.047zm14.512 5.875V45.326h5.125q1.36 0 2.078.125 1 .172 1.672.64t1.078 1.313q.422.844.422 1.844 0 1.734-1.11 2.937-1.093 1.204-3.984 1.204H531.8v5.53h-1.797zm1.797-7.14h3.515q1.75 0 2.47-.641.734-.656.734-1.828 0-.86-.438-1.47-.422-.608-1.125-.796-.453-.125-1.672-.125H531.8v4.86zm10.412 7.14v-9.86h1.5v1.5q.578-1.046 1.062-1.374.485-.344 1.078-.344.844 0 1.72.547l-.579 1.547q-.61-.36-1.234-.36-.547 0-.985.328-.422.328-.61.907-.28.89-.28 1.953v5.156h-1.672zm5.603-4.922q0-2.734 1.531-4.062 1.266-1.094 3.094-1.094 2.031 0 3.313 1.344 1.296 1.328 1.296 3.672 0 1.906-.578 3-.562 1.078-1.656 1.687-1.078.594-2.375.594-2.062 0-3.344-1.328t-1.28-3.813zm1.719 0q0 1.89.828 2.828t2.078.938 2.063-.938q.828-.953.828-2.89 0-1.828-.828-2.766t-2.063-.938q-1.25 0-2.078.938t-.828 2.828zm8.173 4.922 3.593-5.125-3.328-4.734h2.094l1.516 2.312q.421.656.671 1.11.422-.61.766-1.094l1.656-2.328h1.985l-3.39 4.64 3.655 5.219h-2.047l-2.03-3.063-.532-.828-2.594 3.891h-2.015zm10.359 3.797-.172-1.563q.547.141.953.141.547 0 .875-.187.343-.188.562-.516.156-.25.5-1.25.047-.14.156-.406l-3.734-9.875h1.797l2.047 5.718q.406 1.079.719 2.282.28-1.157.687-2.25l2.094-5.75h1.672l-3.75 10.03q-.594 1.626-.938 2.235-.437.828-1.015 1.203-.578.39-1.375.39-.485 0-1.078-.202zM486.97 80.92V67.326h6.031q1.813 0 2.75.36.953.359 1.516 1.296.562.922.562 2.047 0 1.453-.937 2.453-.922.985-2.89 1.25.718.344 1.093.672.781.735 1.484 1.813l2.375 3.703h-2.265l-1.797-2.828q-.797-1.22-1.313-1.875-.5-.657-.906-.907-.406-.265-.812-.359-.313-.078-1.016-.078h-2.078v6.047h-1.797zm1.797-7.594h3.86q1.234 0 1.921-.25.703-.265 1.063-.828.375-.562.375-1.219 0-.968-.703-1.578-.704-.625-2.22-.625h-4.296v4.5zm18.176 4.422 1.719.219q-.407 1.5-1.516 2.344-1.094.828-2.812.828-2.157 0-3.422-1.328t-1.266-3.735q0-2.484 1.266-3.86 1.28-1.374 3.328-1.374 1.984 0 3.234 1.344t1.25 3.797q0 .14-.015.437h-7.344q.094 1.625.922 2.484t2.062.86q.906 0 1.547-.469.656-.484 1.047-1.547zm-5.484-2.703h5.5q-.11-1.234-.625-1.86-.797-.968-2.079-.968-1.14 0-1.937.781-.781.766-.86 2.047zm8.813 6.687 1.61.25q.108.75.577 1.094.61.453 1.688.453 1.172 0 1.797-.468.625-.453.859-1.282.125-.515.11-2.156-1.094 1.297-2.72 1.297-2.03 0-3.156-1.469-1.109-1.468-1.109-3.515 0-1.406.516-2.594.515-1.203 1.484-1.844.969-.656 2.266-.656 1.75 0 2.875 1.406v-1.187h1.546v8.515q0 2.313-.468 3.266-.469.969-1.485 1.515-1.015.563-2.5.563-1.765 0-2.86-.797-1.077-.797-1.03-2.39zm1.375-5.921q0 1.953.765 2.843.782.891 1.938.891 1.14 0 1.922-.89t.781-2.782q0-1.812-.813-2.719-.796-.921-1.921-.921-1.11 0-1.891.906-.781.89-.781 2.672zm9.313-6.579v-1.906h1.672v1.906h-1.672zm0 11.688v-9.859h1.672v9.86h-1.672zM524.464 76q0-2.735 1.531-4.063 1.266-1.094 3.094-1.094 2.031 0 3.313 1.344 1.296 1.328 1.296 3.672 0 1.906-.578 3-.562 1.078-1.656 1.687-1.078.594-2.375.594-2.062 0-3.344-1.328T524.465 76zm1.719 0q0 1.89.828 2.828t2.078.937 2.063-.937q.828-.953.828-2.89 0-1.829-.828-2.767t-2.063-.937q-1.25 0-2.078.937T526.183 76zm9.282 4.922v-9.86h1.5v1.406q1.094-1.625 3.14-1.625.891 0 1.641.328.75.313 1.11.844.375.516.53 1.219.095.469.095 1.625v6.062h-1.672v-6q0-1.015-.204-1.515-.187-.516-.687-.813t-1.172-.297q-1.062 0-1.844.672-.765.672-.765 2.578v5.375h-1.672zm15.262.234.812-3.953h-1.578v-1.39h1.86l.687-3.36h-2.547v-1.39h2.813l.812-3.97h1.39l-.812 3.97h2.922l.813-3.97h1.406l-.812 3.97h1.609v1.39h-1.89l-.688 3.36h2.578v1.39h-2.86l-.812 3.953h-1.39l.796-3.953h-2.906l-.812 3.953h-1.391zm2.484-5.344h2.907l.703-3.36h-2.922l-.688 3.36zm14.016 5.11h-1.672V70.278q-.593.579-1.578 1.157-.984.562-1.765.86V70.67q1.406-.656 2.453-1.594t1.484-1.812h1.078V80.92z" fill="#000"/><path d="M247.16 37.272c-1.355-7.098 3.093-14.125 11.455-18.099s19.172-4.197 27.844-.576c3.072-4.127 8.694-6.977 15.165-7.687 6.472-.71 13.033.803 17.7 4.082 2.617-3.742 7.755-6.257 13.59-6.65 5.836-.395 11.544 1.387 15.098 4.712 4.727-3.967 12.249-5.637 19.31-4.288 7.06 1.35 12.393 5.475 13.689 10.592 5.792 1.127 10.616 3.99 13.227 7.852 2.61 3.86 2.751 8.34.386 12.282 5.703 5.293 7.037 12.346 3.504 18.527-3.533 6.18-11.402 10.56-20.67 11.506-.066 5.8-4.528 11.124-11.666 13.917-7.138 2.793-15.838 2.62-22.746-.452-2.942 6.948-11.225 12.06-21.269 13.127-10.044 1.068-20.049-2.1-25.692-8.135-6.917 2.975-15.218 3.832-23.029 2.378-7.81-1.454-14.475-5.097-18.488-10.106-7.069.59-13.904-2.022-17.112-6.54-3.208-4.516-2.107-9.977 2.756-13.671-6.305-2.647-9.523-7.898-7.974-13.016 1.548-5.118 7.511-8.943 14.78-9.48z" fill="#cfe2f3"/><path d="M240.22 60.041c2.976 1.249 6.413 1.815 9.851 1.623m4.503 18.588a22.742 22.742 0 0 0 4.31-.777m37.205 8.506a17.782 17.782 0 0 1-2.597-3.545m49.56-1.448c.537-1.266.884-2.57 1.037-3.889m33.373-9.575c.07-6.176-4.85-11.831-12.645-14.535m29.811-15.496c-1.262 2.103-3.19 3.968-5.63 5.45m-7.981-25.584a9.67 9.67 0 0 1 .297 2.574m-33.295-8.879c-1.179.99-2.15 2.096-2.884 3.283m-25.805-1.345a10.074 10.074 0 0 0-1.397 2.83m-31.47.775a27.285 27.285 0 0 1 5.056 2.747m-44.353 15.929c.187.978.482 1.944.882 2.89" fill="none"/><path d="M247.16 37.272c-1.355-7.098 3.093-14.125 11.455-18.099s19.172-4.197 27.844-.576c3.072-4.127 8.694-6.977 15.165-7.687 6.472-.71 13.033.803 17.7 4.082 2.617-3.742 7.755-6.257 13.59-6.65 5.836-.395 11.544 1.387 15.098 4.712 4.727-3.967 12.249-5.637 19.31-4.288 7.06 1.35 12.393 5.475 13.689 10.592 5.792 1.127 10.616 3.99 13.227 7.852 2.61 3.86 2.751 8.34.386 12.282 5.703 5.293 7.037 12.346 3.504 18.527-3.533 6.18-11.402 10.56-20.67 11.506-.066 5.8-4.528 11.124-11.666 13.917-7.138 2.793-15.838 2.62-22.746-.452-2.942 6.948-11.225 12.06-21.269 13.127-10.044 1.068-20.049-2.1-25.692-8.135-6.917 2.975-15.218 3.832-23.029 2.378-7.81-1.454-14.475-5.097-18.488-10.106-7.069.59-13.904-2.022-17.112-6.54-3.208-4.516-2.107-9.977 2.756-13.671-6.305-2.647-9.523-7.898-7.974-13.016 1.548-5.118 7.511-8.943 14.78-9.48z" stroke="#000" stroke-linecap="butt" stroke-linejoin="round"/><path d="M240.22 60.041c2.976 1.249 6.413 1.815 9.851 1.623m4.503 18.588a22.742 22.742 0 0 0 4.31-.777m37.205 8.506a17.782 17.782 0 0 1-2.597-3.545m49.56-1.448c.537-1.266.884-2.57 1.037-3.889m33.373-9.575c.07-6.176-4.85-11.831-12.645-14.535m29.811-15.496c-1.262 2.103-3.19 3.968-5.63 5.45m-7.981-25.584a9.67 9.67 0 0 1 .297 2.574m-33.295-8.879c-1.179.99-2.15 2.096-2.884 3.283m-25.805-1.345a10.074 10.074 0 0 0-1.397 2.83m-31.47.775a27.285 27.285 0 0 1 5.056 2.747m-44.353 15.929c.187.978.482 1.944.882 2.89" stroke="#000" stroke-linecap="butt" stroke-linejoin="round"/><path d="M280.16 56.88V43.286h1.813V56.88h-1.813zm4.668 0v-9.86h1.5v1.407q1.094-1.625 3.14-1.625.89 0 1.64.328.75.312 1.11.844.375.515.532 1.218.093.47.093 1.625v6.063h-1.672v-6q0-1.016-.203-1.516-.187-.515-.687-.812t-1.172-.297q-1.063 0-1.844.672-.766.672-.766 2.578v5.375h-1.671zm14.032-1.5.234 1.484q-.703.141-1.266.141-.906 0-1.406-.281-.5-.297-.703-.75-.203-.469-.203-1.985v-5.656h-1.234v-1.312h1.234v-2.438l1.656-1v3.438h1.688v1.312h-1.688v5.75q0 .719.078.922.094.203.297.328t.578.125q.266 0 .735-.078zm8.277-1.672 1.719.219q-.407 1.5-1.516 2.344-1.094.828-2.812.828-2.157 0-3.422-1.328t-1.266-3.735q0-2.484 1.266-3.86 1.28-1.374 3.328-1.374 1.984 0 3.234 1.344t1.25 3.797q0 .14-.016.437h-7.343q.093 1.625.922 2.484t2.062.86q.906 0 1.547-.469.656-.484 1.047-1.547zm-5.485-2.703h5.5q-.109-1.234-.625-1.86-.796-.968-2.078-.968-1.14 0-1.937.781-.781.766-.86 2.047zm9.095 5.875v-9.86h1.5v1.5q.578-1.046 1.062-1.374.485-.344 1.079-.344.843 0 1.718.547l-.578 1.547q-.61-.36-1.234-.36-.547 0-.985.328-.421.328-.609.907-.281.89-.281 1.953v5.156h-1.672zm6.228 0v-9.86h1.5v1.407q1.094-1.625 3.14-1.625.891 0 1.641.328.75.312 1.11.844.375.515.531 1.218.094.47.094 1.625v6.063h-1.672v-6q0-1.016-.203-1.516-.188-.515-.688-.812t-1.172-.297q-1.062 0-1.843.672-.766.672-.766 2.578v5.375h-1.672zm17.126-3.172 1.719.219q-.406 1.5-1.516 2.344-1.093.828-2.812.828-2.156 0-3.422-1.328t-1.266-3.735q0-2.484 1.266-3.86 1.281-1.374 3.328-1.374 1.984 0 3.234 1.344t1.25 3.797q0 .14-.015.437h-7.344q.094 1.625.922 2.484t2.062.86q.907 0 1.547-.469.657-.484 1.047-1.547zm-5.484-2.703h5.5q-.11-1.234-.625-1.86-.797-.968-2.078-.968-1.14 0-1.938.781-.781.766-.86 2.047zm12.766 4.375.234 1.484q-.703.141-1.265.141-.907 0-1.407-.281-.5-.297-.703-.75-.203-.469-.203-1.985v-5.656h-1.234v-1.312h1.234v-2.438l1.656-1v3.438h1.688v1.312h-1.688v5.75q0 .719.078.922.094.203.297.328t.578.125q.266 0 .735-.078z" fill="#000"/><path d="M8 8h176v88H8z" fill="#cfe2f3"/><path d="M8 8h176v88H8z" stroke="#000" stroke-linecap="butt" stroke-linejoin="round"/><path d="M32.176 58.92V45.326h9.844v1.594h-8.047v4.172h7.531v1.594h-7.531v4.625h8.36v1.609H32.175zm11.084 0 3.594-5.125-3.328-4.734h2.094l1.515 2.312q.422.656.672 1.11.422-.61.766-1.094l1.656-2.328h1.984l-3.39 4.64 3.656 5.219h-2.047L48.4 55.857l-.532-.828-2.593 3.891H43.26zm14.094-1.5.234 1.484q-.703.141-1.265.141-.906 0-1.406-.281-.5-.297-.704-.75-.203-.469-.203-1.985v-5.656h-1.234v-1.312h1.234v-2.438l1.657-1v3.438h1.687v1.312h-1.687v5.75q0 .719.078.922.093.203.297.328t.578.125q.265 0 .734-.078zm8.277-1.672 1.719.219q-.406 1.5-1.516 2.344-1.094.828-2.812.828-2.156 0-3.422-1.328t-1.266-3.735q0-2.484 1.266-3.86 1.281-1.374 3.328-1.374 1.984 0 3.234 1.344t1.25 3.797q0 .14-.015.437h-7.344q.094 1.625.922 2.484t2.062.86q.907 0 1.547-.469.657-.484 1.047-1.547zm-5.484-2.703h5.5q-.11-1.234-.625-1.86-.797-.968-2.078-.968-1.141 0-1.938.781-.781.766-.86 2.047zm9.094 5.875v-9.86h1.5v1.5q.578-1.046 1.063-1.374.484-.344 1.078-.344.844 0 1.719.547l-.579 1.547q-.609-.36-1.234-.36-.547 0-.984.328-.422.328-.61.907-.28.89-.28 1.953v5.156H69.24zm6.229 0v-9.86h1.5v1.407q1.093-1.625 3.14-1.625.89 0 1.64.328.75.312 1.11.844.375.515.531 1.218.094.47.094 1.625v6.063h-1.672v-6q0-1.016-.203-1.516-.187-.515-.687-.812t-1.172-.297q-1.063 0-1.844.672-.766.672-.766 2.578v5.375H75.47zm16.813-1.219q-.938.797-1.797 1.125-.86.313-1.844.313-1.61 0-2.485-.782-.875-.796-.875-2.03 0-.735.329-1.329t.859-.953 1.203-.547q.5-.14 1.484-.25 2.032-.25 2.985-.578v-.437q0-1.016-.469-1.438-.64-.562-1.906-.562-1.172 0-1.735.406t-.828 1.469l-1.64-.235q.234-1.047.734-1.687.516-.64 1.469-.985.969-.36 2.25-.36 1.266 0 2.047.298t1.156.75.516 1.14q.093.422.093 1.532v2.234q0 2.328.094 2.953.11.61.438 1.172h-1.75q-.266-.516-.328-1.219zm-.141-3.719q-.906.36-2.735.625-1.03.141-1.453.329t-.656.546-.234.797q0 .672.5 1.125.515.438 1.484.438t1.719-.422q.75-.438 1.11-1.156.265-.578.265-1.672v-.61zm4.047 4.938V45.326h1.672V58.92H96.19zm19.281-4.766 1.797.453q-.562 2.22-2.03 3.391-1.47 1.156-3.595 1.156-2.203 0-3.578-.89-1.375-.907-2.094-2.594-.718-1.703-.718-3.656 0-2.125.797-3.704.812-1.578 2.312-2.39 1.5-.828 3.297-.828 2.047 0 3.438 1.047 1.39 1.03 1.937 2.906l-1.766.422q-.468-1.485-1.375-2.156-.906-.688-2.265-.688-1.563 0-2.625.75-1.047.75-1.485 2.031-.421 1.266-.421 2.61 0 1.734.5 3.03.515 1.282 1.578 1.923 1.078.64 2.312.64 1.516 0 2.563-.859 1.047-.875 1.422-2.594zm3.52 4.766V45.326h1.672V58.92h-1.672zm4.192-11.688v-1.906h1.672v1.906h-1.672zm0 11.688v-9.86h1.672v9.86h-1.672zm10.879-3.172 1.719.219q-.406 1.5-1.516 2.344-1.094.828-2.812.828-2.157 0-3.422-1.328t-1.266-3.735q0-2.484 1.266-3.86 1.281-1.374 3.328-1.374 1.984 0 3.234 1.344t1.25 3.796q0 .141-.015.438h-7.344q.094 1.625.922 2.484t2.062.86q.906 0 1.547-.469.656-.484 1.047-1.547zm-5.484-2.703h5.5q-.11-1.235-.625-1.86-.797-.968-2.079-.968-1.14 0-1.937.781-.781.766-.86 2.047zm9.11 5.875v-9.86h1.5v1.407q1.093-1.625 3.14-1.625.89 0 1.64.328.75.312 1.11.844.375.515.532 1.218.093.47.093 1.625v6.063h-1.672v-6q0-1.016-.203-1.516-.187-.515-.687-.812t-1.172-.297q-1.063 0-1.844.672-.766.672-.766 2.578v5.375h-1.671zm14.032-1.5.234 1.484q-.703.14-1.266.14-.906 0-1.406-.28-.5-.297-.703-.75-.203-.47-.203-1.985v-5.656h-1.234v-1.312h1.234v-2.438l1.656-1v3.438h1.688v1.312h-1.688v5.75q0 .719.078.922.094.203.297.328t.578.125q.266 0 .735-.078zm.855-1.438 1.656-.265q.14 1 .766 1.531.64.516 1.78.516 1.157 0 1.704-.47.562-.468.562-1.093 0-.562-.484-.89-.344-.22-1.703-.563-1.844-.469-2.562-.797-.704-.344-1.079-.937-.359-.61-.359-1.329 0-.656.297-1.218.312-.563.828-.938.39-.281 1.063-.484t1.437-.203q1.172 0 2.047.343.875.329 1.281.907.422.562.578 1.515l-1.625.219q-.11-.75-.656-1.172-.531-.437-1.5-.437-1.156 0-1.64.39-.485.375-.485.875 0 .328.203.594t.64.437q.25.094 1.47.438 1.765.469 2.468.766t1.094.875q.406.578.406 1.437 0 .828-.484 1.578-.484.735-1.406 1.14-.922.391-2.078.391-1.922 0-2.938-.796-1-.797-1.281-2.36z" fill="#000"/><path d="M184 52h48.504" fill="none"/><path d="M187.43 52h41.65" stroke="#000" stroke-linecap="butt" stroke-linejoin="round"/><path d="m187.43 52 1.125-1.125-3.09 1.125 3.09 1.125zM229.08 52l-1.125 1.125 3.09-1.125-3.09-1.125z" fill="#000" fill-rule="evenodd" stroke="#000" stroke-linecap="butt"/><path d="M399.86 51.999h40.126" fill="none"/><path d="M403.29 51.999h33.272" stroke="#000" stroke-linecap="butt" stroke-linejoin="round"/><path d="m403.29 51.999 1.125-1.125-3.09 1.125 3.09 1.125zM436.56 51.999l-1.125 1.125 3.09-1.125-3.09-1.125z" fill="#000" fill-rule="evenodd" stroke="#000" stroke-linecap="butt"/><path d="M80 96h256v48H80z" fill="none"/><path d="M109.36 122.92v-13.594h2.75v5.344h5.375v-5.344h2.75v13.594h-2.75v-5.953h-5.375v5.953h-2.75zm16.52 0v-11.297h-4.031v-2.297h10.812v2.297h-4.031v11.297h-2.75zm11.396 0v-11.297h-4.031v-2.297h10.812v2.297h-4.031v11.297h-2.75zm8.334 0v-13.594h4.421q2.5 0 3.266.203 1.156.297 1.938 1.328.796 1.016.796 2.64 0 1.25-.453 2.11t-1.156 1.344-1.422.64q-.984.204-2.844.204h-1.797v5.125h-2.75zm2.75-11.297v3.86h1.5q1.625 0 2.171-.22t.86-.671.312-1.047q0-.75-.437-1.235t-1.094-.593q-.5-.094-1.984-.094h-1.329zm8.287 11.531 3.375-14.062h1.953l-3.406 14.062h-1.922zm12.699-.234h-2.61v-9.828q-1.437 1.343-3.375 1.984V112.7q1.032-.328 2.22-1.25 1.202-.938 1.64-2.188h2.125v13.656zm4.25 0v-2.61h2.61v2.61h-2.61zm11.309 0h-2.61v-9.828q-1.437 1.343-3.375 1.984V112.7q1.031-.328 2.219-1.25 1.203-.938 1.64-2.188h2.126v13.656zM189.48 122.92v-1.906h1.906v1.906q0 1.047-.375 1.688-.375.656-1.172 1l-.468-.72q.53-.218.78-.671t.282-1.297h-.953zM199.55 122.92v-13.594h2.75v5.344h5.375v-5.344h2.75v13.594h-2.75v-5.953H202.3v5.953h-2.75zm16.52 0v-11.297h-4.031v-2.297h10.812v2.297h-4.031v11.297h-2.75zm11.396 0v-11.297h-4.031v-2.297h10.812v2.297h-4.031v11.297h-2.75zm8.334 0v-13.594h4.421q2.5 0 3.266.203 1.156.297 1.938 1.328.796 1.016.796 2.64 0 1.25-.453 2.11t-1.156 1.344-1.422.64q-.984.204-2.844.204h-1.797v5.125h-2.75zm2.75-11.297v3.86h1.5q1.625 0 2.171-.22t.86-.671.312-1.047q0-.75-.437-1.235t-1.094-.593q-.5-.094-1.984-.094h-1.329zm8.287 11.531 3.375-14.062h1.953l-3.406 14.062h-1.922zm14.824-2.656v2.422h-9.14q.155-1.375.89-2.594.75-1.234 2.937-3.266 1.766-1.64 2.157-2.234.546-.797.546-1.594 0-.875-.468-1.344t-1.297-.468q-.813 0-1.297.5-.485.484-.563 1.625l-2.593-.25q.234-2.157 1.453-3.094t3.062-.938q2.016 0 3.156 1.094 1.157 1.078 1.157 2.688 0 .921-.329 1.75t-1.046 1.734q-.47.61-1.704 1.75-1.234 1.125-1.562 1.5-.328.36-.531.719h5.172zM264.12 122.92v-1.906h1.906v1.906q0 1.047-.375 1.688-.375.656-1.172 1l-.468-.72q.53-.218.78-.671t.282-1.297h-.953zM277.23 122.92v-11.297h-4.031v-2.297h10.812v2.297h-4.031v11.297h-2.75zm8.412 0v-13.484h2.75v11.188h6.828v2.297h-9.578zm10.63-4.422 2.672-.266q.234 1.344.968 1.985.75.625 2 .625 1.328 0 2-.563t.672-1.312q0-.484-.281-.813-.281-.343-.984-.593-.485-.172-2.204-.594-2.203-.547-3.093-1.344-1.266-1.125-1.266-2.734 0-1.047.594-1.953t1.703-1.375 2.672-.47q2.562 0 3.86 1.126 1.296 1.11 1.359 2.984l-2.75.125q-.172-1.047-.75-1.5-.579-.469-1.75-.469-1.188 0-1.875.5-.438.313-.438.844 0 .485.422.828.516.422 2.516.907 2 .468 2.953.984.968.5 1.515 1.375t.547 2.156q0 1.172-.656 2.203-.64 1.016-1.828 1.516-1.188.484-2.969.484-2.578 0-3.969-1.187-1.375-1.188-1.64-3.469z" fill="#000"/><path d="M440 136h176v88H440z" fill="#cfe2f3"/><path d="M440 136h176v88H440z" stroke="#000" stroke-linecap="butt" stroke-linejoin="round"/><path d="M474.06 153.61v1.938h-1.797v-1.532q0-1.25.297-1.797.39-.75 1.234-1.125l.407.641q-.5.219-.75.64-.235.423-.266 1.235h.875zm2.875 0v1.938h-1.797v-1.532q0-1.25.297-1.797.39-.75 1.234-1.125l.407.641q-.5.219-.75.64-.235.423-.266 1.235h.875zm2.338 11.312v-13.594h9.172v1.594h-7.375v4.219h6.375v1.609h-6.375v6.172h-1.797zm11.068 0v-9.86h1.5v1.5q.578-1.046 1.062-1.374.485-.344 1.078-.344.844 0 1.72.547l-.579 1.547q-.61-.36-1.234-.36-.547 0-.985.328-.422.328-.61.907-.28.89-.28 1.953v5.156h-1.672zm5.603-4.922q0-2.734 1.531-4.062 1.266-1.094 3.094-1.094 2.031 0 3.312 1.344 1.297 1.328 1.297 3.672 0 1.906-.578 3-.562 1.078-1.656 1.687-1.078.594-2.375.594-2.062 0-3.344-1.328t-1.28-3.813zm1.719 0q0 1.89.828 2.828t2.078.938 2.063-.938q.828-.953.828-2.89 0-1.828-.828-2.766t-2.063-.937q-1.25 0-2.078.937t-.828 2.828zm9.282 4.922v-9.86h1.5v1.407q1.094-1.625 3.14-1.625.891 0 1.641.328.75.312 1.11.844.374.515.53 1.218.094.47.094 1.625v6.063h-1.672v-6q0-1.016-.203-1.516-.187-.515-.687-.812-.5-.297-1.172-.297-1.062 0-1.844.672-.765.672-.765 2.578v5.375h-1.672zm14.032-1.5.234 1.484q-.703.141-1.265.141-.907 0-1.407-.281-.5-.297-.703-.75-.203-.469-.203-1.985v-5.656H516.4v-1.312h1.234v-2.438l1.656-1v3.438h1.688v1.312h-1.688v5.75q0 .719.078.922.094.203.297.328t.578.125q.266 0 .735-.078zm1.09-10.297v-1.937h1.78v1.53q0 1.235-.28 1.782-.407.75-1.25 1.14l-.407-.671q.5-.203.75-.641t.266-1.203h-.86zm2.874 0v-1.937h1.781v1.53q0 1.235-.28 1.782-.407.75-1.25 1.14l-.407-.671q.5-.203.75-.641t.281-1.203h-.875zm9.209 11.797v-13.594h9.844v1.594h-8.047v4.172h7.53v1.594h-7.53v4.625h8.36v1.609H534.15zm12.194 0v-9.86h1.5v1.407q1.094-1.625 3.14-1.625.891 0 1.641.328.75.312 1.11.844.374.515.53 1.218.094.47.094 1.625v6.063h-1.672v-6q0-1.016-.203-1.516-.187-.515-.687-.812t-1.172-.297q-1.063 0-1.844.672-.765.672-.765 2.578v5.375h-1.672zm13.11 0-3.75-9.86h1.765l2.125 5.907q.344.953.625 1.984.22-.781.625-1.875l2.188-6.015h1.719l-3.735 9.859h-1.562zm5.969-4.922q0-2.734 1.53-4.062 1.266-1.094 3.095-1.094 2.03 0 3.312 1.344 1.297 1.328 1.297 3.672 0 1.906-.578 3-.563 1.078-1.656 1.687-1.078.594-2.375.594-2.063 0-3.344-1.328T565.423 160zm1.718 0q0 1.89.829 2.828.828.938 2.078.938t2.062-.938q.828-.953.828-2.89 0-1.828-.828-2.766t-2.062-.937q-1.25 0-2.078.937-.829.938-.829 2.828zm9.204 8.719-.172-1.563q.547.141.954.141.546 0 .875-.187.343-.188.562-.516.156-.25.5-1.25.047-.14.156-.406l-3.734-9.875h1.797l2.047 5.718q.406 1.079.718 2.282.282-1.157.688-2.25l2.094-5.75h1.672l-3.75 10.03q-.594 1.626-.938 2.235-.437.828-1.015 1.203-.579.39-1.375.39-.485 0-1.079-.202zM481.28 186.92v-13.594h9.844v1.594h-8.047v4.172h7.531v1.593h-7.531v4.625h8.36v1.61H481.28zm18.584 0v-1.25q-.938 1.469-2.75 1.469-1.172 0-2.172-.64-.984-.657-1.531-1.813-.531-1.172-.531-2.688 0-1.469.484-2.672.5-1.203 1.469-1.844.984-.64 2.203-.64.89 0 1.578.375.703.375 1.14.984v-4.875h1.657v13.594h-1.547zm-5.281-4.922q0 1.89.797 2.828.812.938 1.89.938 1.094 0 1.86-.89t.765-2.735q0-2.016-.781-2.953-.781-.954-1.922-.954-1.11 0-1.86.907t-.75 2.86zm8.97 5.735 1.609.25q.11.75.578 1.093.61.453 1.687.453 1.172 0 1.797-.468.625-.453.86-1.282.125-.515.109-2.156-1.094 1.297-2.719 1.297-2.031 0-3.156-1.469-1.11-1.468-1.11-3.515 0-1.406.516-2.594.516-1.203 1.485-1.844.968-.656 2.265-.656 1.75 0 2.875 1.406v-1.187h1.547v8.515q0 2.313-.469 3.266-.468.969-1.484 1.515-1.016.563-2.5.563-1.766 0-2.86-.797-1.078-.797-1.03-2.39zm1.374-5.922q0 1.953.766 2.843.781.891 1.937.891 1.141 0 1.922-.89t.782-2.782q0-1.812-.813-2.719-.797-.921-1.922-.921-1.11 0-1.89.906-.782.89-.782 2.672zm16.048 1.937 1.72.219q-.407 1.5-1.517 2.344-1.093.828-2.812.828-2.156 0-3.422-1.328t-1.266-3.735q0-2.484 1.266-3.86 1.281-1.374 3.328-1.374 1.985 0 3.235 1.344t1.25 3.797q0 .14-.016.437h-7.344q.094 1.625.922 2.484t2.063.86q.906 0 1.546-.469.657-.484 1.047-1.547zm-5.484-2.703h5.5q-.11-1.234-.625-1.86-.797-.968-2.078-.968-1.14 0-1.938.781-.781.766-.86 2.047zm14.512 5.875v-13.594h5.125q1.36 0 2.078.125 1 .172 1.672.64t1.078 1.313q.422.844.422 1.844 0 1.734-1.11 2.937-1.093 1.204-3.984 1.204H531.8v5.53h-1.797zm1.797-7.14h3.515q1.75 0 2.47-.641.734-.656.734-1.828 0-.86-.438-1.47-.422-.609-1.125-.796-.453-.125-1.672-.125H531.8v4.86zm10.412 7.14v-9.86h1.5v1.5q.578-1.046 1.062-1.374.485-.344 1.078-.344.844 0 1.72.547l-.579 1.547q-.61-.36-1.234-.36-.547 0-.985.328-.422.328-.61.907-.28.89-.28 1.953v5.156h-1.672zm5.603-4.922q0-2.734 1.531-4.062 1.266-1.094 3.094-1.094 2.031 0 3.313 1.344 1.296 1.328 1.296 3.671 0 1.907-.578 3-.562 1.079-1.656 1.688-1.078.594-2.375.594-2.062 0-3.344-1.328t-1.28-3.813zm1.719 0q0 1.89.828 2.828t2.078.938 2.063-.938q.828-.953.828-2.89 0-1.829-.828-2.766t-2.063-.938q-1.25 0-2.078.938t-.828 2.828zm8.173 4.922 3.593-5.125-3.328-4.734h2.094l1.516 2.312q.421.656.671 1.11.422-.61.766-1.094l1.656-2.328h1.985l-3.39 4.64 3.655 5.219h-2.047l-2.03-3.063-.532-.828-2.594 3.891h-2.015zm10.359 3.797-.172-1.563q.547.141.953.141.547 0 .875-.187.343-.188.562-.516.156-.25.5-1.25.047-.14.156-.406l-3.734-9.875h1.797l2.047 5.718q.406 1.079.719 2.282.28-1.157.687-2.25l2.094-5.75h1.672l-3.75 10.03q-.594 1.626-.938 2.235-.437.828-1.015 1.203-.578.39-1.375.39-.485 0-1.078-.202zM486.97 208.92v-13.594h6.031q1.813 0 2.75.36.953.359 1.516 1.296.562.922.562 2.047 0 1.453-.937 2.453-.922.985-2.89 1.25.718.344 1.093.672.781.735 1.484 1.813l2.375 3.703h-2.265l-1.797-2.828q-.797-1.22-1.313-1.875-.5-.657-.906-.907-.406-.265-.812-.359-.313-.078-1.016-.078h-2.078v6.047h-1.797zm1.797-7.594h3.86q1.234 0 1.921-.25.703-.265 1.063-.828.375-.562.375-1.219 0-.968-.703-1.578-.704-.625-2.22-.625h-4.296v4.5zm18.176 4.422 1.719.219q-.407 1.5-1.516 2.344-1.094.828-2.812.828-2.157 0-3.422-1.328t-1.266-3.735q0-2.484 1.266-3.86 1.28-1.374 3.328-1.374 1.984 0 3.234 1.344t1.25 3.797q0 .14-.015.437h-7.344q.094 1.625.922 2.484t2.062.86q.906 0 1.547-.469.656-.484 1.047-1.547zm-5.484-2.703h5.5q-.11-1.234-.625-1.86-.797-.968-2.079-.968-1.14 0-1.937.781-.781.766-.86 2.047zm8.813 6.688 1.61.25q.108.75.577 1.093.61.453 1.688.453 1.172 0 1.797-.468.625-.453.859-1.282.125-.515.11-2.156-1.094 1.297-2.72 1.297-2.03 0-3.156-1.469-1.109-1.468-1.109-3.515 0-1.406.516-2.594.515-1.203 1.484-1.844.969-.656 2.266-.656 1.75 0 2.875 1.406v-1.187h1.546v8.515q0 2.313-.468 3.266-.469.969-1.485 1.515-1.015.563-2.5.563-1.765 0-2.86-.797-1.077-.797-1.03-2.39zm1.375-5.922q0 1.953.765 2.843.782.891 1.938.891 1.14 0 1.922-.89t.781-2.782q0-1.812-.813-2.719-.796-.921-1.921-.921-1.11 0-1.891.906-.781.89-.781 2.672zm9.313-6.579v-1.906h1.672v1.906h-1.672zm0 11.688v-9.859h1.672v9.86h-1.672zm3.504-4.921q0-2.735 1.531-4.063 1.266-1.094 3.094-1.094 2.031 0 3.313 1.344 1.296 1.328 1.296 3.672 0 1.906-.578 3-.562 1.078-1.656 1.687-1.078.594-2.375.594-2.062 0-3.344-1.328t-1.28-3.812zm1.719 0q0 1.89.828 2.828t2.078.937 2.063-.937q.828-.953.828-2.89 0-1.829-.828-2.767t-2.063-.937q-1.25 0-2.078.937t-.828 2.829zm9.282 4.921v-9.859h1.5v1.406q1.094-1.625 3.14-1.625.891 0 1.641.328.75.313 1.11.844.375.516.53 1.219.095.469.095 1.625v6.062h-1.672v-6q0-1.015-.204-1.515-.187-.516-.687-.813t-1.172-.297q-1.062 0-1.844.672-.765.672-.765 2.578v5.375h-1.672zm15.262.235.812-3.953h-1.578v-1.39h1.86l.687-3.36h-2.547v-1.39h2.813l.812-3.97h1.39l-.812 3.97h2.922l.813-3.97h1.406l-.812 3.97h1.609v1.39h-1.89l-.688 3.36h2.578v1.39h-2.86l-.812 3.953h-1.39l.796-3.953h-2.906l-.812 3.953h-1.391zm2.484-5.344h2.907l.703-3.36h-2.922l-.688 3.36zm16.501 3.5v1.61h-8.984q-.016-.61.187-1.157.344-.922 1.094-1.812.766-.89 2.188-2.063 2.219-1.812 3-2.875t.781-2.015q0-.985-.719-1.672-.703-.688-1.844-.688-1.203 0-1.937.735-.719.718-.719 2l-1.719-.172q.172-1.922 1.328-2.922 1.157-1.016 3.094-1.016 1.953 0 3.094 1.094 1.14 1.078 1.14 2.688 0 .812-.343 1.609-.328.781-1.11 1.656-.765.86-2.562 2.39-1.5 1.266-1.938 1.72-.421.437-.703.89h6.672z" fill="#000"/><path d="m316 95.905 124 84.094" fill="none"/><path d="m318.83 97.829 118.33 80.247" stroke="#000" stroke-linecap="butt" stroke-linejoin="round"/><path d="m318.83 97.829 1.562-.3-3.189-.803 1.926 2.665zM437.16 178.08l-1.562.3 3.188.803-1.926-2.665z" fill="#000" fill-rule="evenodd" stroke="#000" stroke-linecap="butt"/><path d="M528 96v40" fill="none"/><path d="M528 99.427v33.146" stroke="#000" stroke-linecap="butt" stroke-linejoin="round"/><path d="m528 99.427 1.125 1.125-1.125-3.09-1.125 3.09zM528 132.57l-1.125-1.125 1.125 3.09 1.125-3.09z" fill="#000" fill-rule="evenodd" stroke="#000" stroke-linecap="butt"/><path d="M455.89 277.27c-1.419-7.098 3.24-14.125 12-18.099s20.085-4.197 29.169-.576c3.218-4.127 9.107-6.977 15.887-7.687 6.78-.71 13.653.803 18.542 4.082 2.741-3.742 8.123-6.257 14.237-6.65 6.113-.395 12.093 1.387 15.817 4.712 4.952-3.967 12.831-5.637 20.228-4.288 7.397 1.35 12.983 5.475 14.34 10.592 6.067 1.127 11.121 3.99 13.856 7.852 2.735 3.86 2.882 8.34.404 12.282 5.975 5.293 7.372 12.346 3.671 18.527-3.7 6.18-11.944 10.56-21.654 11.506-.068 5.8-4.742 11.124-12.22 13.917-7.477 2.793-16.59 2.62-23.828-.452-3.082 6.948-11.759 12.06-22.28 13.127-10.523 1.068-21.004-2.1-26.916-8.135-7.246 2.975-15.942 3.832-24.125 2.378-8.182-1.455-15.163-5.097-19.367-10.106-7.405.59-14.565-2.022-17.926-6.54-3.36-4.516-2.207-9.977 2.888-13.671-6.606-2.647-9.977-7.898-8.354-13.016 1.622-5.118 7.869-8.943 15.484-9.48z" fill="#cfe2f3"/><path d="M448.61 300.04c3.117 1.249 6.718 1.815 10.32 1.623m4.717 18.588a24.848 24.848 0 0 0 4.516-.777m38.975 8.506a17.857 17.857 0 0 1-2.721-3.545m51.918-1.448c.562-1.266.926-2.57 1.086-3.889m34.961-9.575c.073-6.176-5.08-11.831-13.246-14.535m31.23-15.496c-1.323 2.103-3.342 3.968-5.9 5.45m-8.36-25.584c.225.85.33 1.711.312 2.574m-34.88-8.879c-1.235.99-2.253 2.096-3.021 3.283m-27.032-1.345a9.894 9.894 0 0 0-1.463 2.83m-32.966.775c1.922.766 3.7 1.689 5.295 2.747m-46.464 15.929c.196.978.505 1.944.924 2.89" fill="none"/><path d="M455.89 277.27c-1.419-7.098 3.24-14.125 12-18.099s20.085-4.197 29.169-.576c3.218-4.127 9.107-6.977 15.887-7.687 6.78-.71 13.653.803 18.542 4.082 2.741-3.742 8.123-6.257 14.237-6.65 6.113-.395 12.093 1.387 15.817 4.712 4.952-3.967 12.831-5.637 20.228-4.288 7.397 1.35 12.983 5.475 14.34 10.592 6.067 1.127 11.121 3.99 13.856 7.852 2.735 3.86 2.882 8.34.404 12.282 5.975 5.293 7.372 12.346 3.671 18.527-3.7 6.18-11.944 10.56-21.654 11.506-.068 5.8-4.742 11.124-12.22 13.917-7.477 2.793-16.59 2.62-23.828-.452-3.082 6.948-11.759 12.06-22.28 13.127-10.523 1.068-21.004-2.1-26.916-8.135-7.246 2.975-15.942 3.832-24.125 2.378-8.182-1.455-15.163-5.097-19.367-10.106-7.405.59-14.565-2.022-17.926-6.54-3.36-4.516-2.207-9.977 2.888-13.671-6.606-2.647-9.977-7.898-8.354-13.016 1.622-5.118 7.869-8.943 15.484-9.48z" stroke="#000" stroke-linecap="butt" stroke-linejoin="round"/><path d="M448.61 300.04c3.117 1.249 6.718 1.815 10.32 1.623m4.717 18.588a24.848 24.848 0 0 0 4.516-.777m38.975 8.506a17.857 17.857 0 0 1-2.721-3.545m51.918-1.448c.562-1.266.926-2.57 1.086-3.889m34.961-9.575c.073-6.176-5.08-11.831-13.246-14.535m31.23-15.496c-1.323 2.103-3.342 3.968-5.9 5.45m-8.36-25.584c.225.85.33 1.711.312 2.574m-34.88-8.879c-1.235.99-2.253 2.096-3.021 3.283m-27.032-1.345a9.894 9.894 0 0 0-1.463 2.83m-32.966.775c1.922.766 3.7 1.689 5.295 2.747m-46.464 15.929c.196.978.505 1.944.924 2.89" stroke="#000" stroke-linecap="butt" stroke-linejoin="round"/><path d="M494.18 285.88v-13.594h5.125q1.36 0 2.078.125 1 .172 1.672.64t1.078 1.313q.422.844.422 1.844 0 1.734-1.11 2.937-1.093 1.204-3.984 1.204h-3.484v5.53h-1.797zm1.797-7.14h3.516q1.75 0 2.468-.641.735-.656.735-1.828 0-.86-.438-1.47-.422-.609-1.125-.796-.453-.125-1.672-.125h-3.484v4.86zm10.412 7.14v-9.86h1.5v1.5q.578-1.046 1.062-1.374.485-.344 1.078-.344.844 0 1.72.547l-.579 1.547q-.61-.36-1.234-.36-.547 0-.985.328-.421.328-.609.907-.281.89-.281 1.953v5.156h-1.672zm6.244-11.688v-1.906h1.672v1.906h-1.672zm0 11.688v-9.86h1.672v9.86h-1.672zm6.863 0-3.75-9.86h1.766l2.125 5.907q.344.953.625 1.984.219-.781.625-1.875l2.188-6.015h1.718l-3.734 9.859h-1.563zm13.031-1.219q-.937.797-1.797 1.125-.859.313-1.843.313-1.61 0-2.485-.782-.875-.796-.875-2.03 0-.735.328-1.329t.86-.953 1.203-.547q.5-.14 1.484-.25 2.031-.25 2.985-.578v-.437q0-1.016-.47-1.438-.64-.562-1.905-.562-1.172 0-1.735.406t-.828 1.469l-1.64-.235q.234-1.047.734-1.687.516-.64 1.469-.985.969-.36 2.25-.36 1.265 0 2.047.298t1.156.75.516 1.14q.093.422.093 1.532v2.234q0 2.328.094 2.953.11.61.438 1.172h-1.75q-.266-.516-.329-1.219zm-.14-3.719q-.906.36-2.735.625-1.03.141-1.453.329t-.656.546-.234.797q0 .672.5 1.125.515.438 1.484.438t1.719-.422q.75-.438 1.11-1.156.265-.578.265-1.672v-.61zm7.735 3.438.234 1.484q-.703.14-1.265.14-.907 0-1.407-.28-.5-.297-.703-.75-.203-.47-.203-1.985v-5.656h-1.234v-1.312h1.234v-2.438l1.656-1v3.438h1.688v1.312h-1.688v5.75q0 .719.079.922.093.203.296.328t.579.125q.265 0 .734-.078zm8.277-1.672 1.719.219q-.407 1.5-1.516 2.344-1.094.828-2.812.828-2.157 0-3.422-1.328t-1.266-3.735q0-2.484 1.266-3.86 1.28-1.374 3.328-1.374 1.984 0 3.234 1.344t1.25 3.796q0 .141-.015.438h-7.344q.094 1.625.922 2.484t2.062.86q.906 0 1.547-.469.656-.484 1.047-1.547zm-5.485-2.703h5.5q-.109-1.234-.625-1.86-.796-.968-2.078-.968-1.14 0-1.937.781-.781.766-.86 2.047zM504.84 307.88v-13.594h1.813v13.594h-1.813zm4.668 0v-9.86h1.5v1.407q1.093-1.625 3.14-1.625.89 0 1.64.328.75.312 1.11.844.375.515.532 1.218.093.47.093 1.625v6.063h-1.672v-6q0-1.016-.203-1.516-.187-.515-.687-.812t-1.172-.297q-1.063 0-1.844.672-.765.672-.765 2.578v5.375h-1.672zm10.782 0v-8.547h-1.485v-1.312h1.485v-1.047q0-.985.172-1.47.234-.655.843-1.046.61-.406 1.703-.406.704 0 1.563.156l-.25 1.469q-.516-.094-.984-.094-.766 0-1.079.328-.312.313-.312 1.203v.907h1.922v1.312h-1.922v8.547h-1.656zm4.761 0v-9.86h1.5v1.5q.578-1.046 1.063-1.374.484-.344 1.078-.344.843 0 1.718.547l-.578 1.547q-.609-.36-1.234-.36-.547 0-.984.328-.422.328-.61.907-.281.89-.281 1.953v5.156h-1.672zm12.666-1.219q-.937.797-1.797 1.125-.86.313-1.844.313-1.609 0-2.484-.782-.875-.796-.875-2.03 0-.735.328-1.329t.86-.953 1.203-.547q.5-.14 1.484-.25 2.031-.25 2.984-.578v-.437q0-1.016-.468-1.438-.641-.562-1.907-.562-1.171 0-1.734.406t-.828 1.469l-1.64-.235q.234-1.047.734-1.687.515-.64 1.469-.985.968-.36 2.25-.36 1.265 0 2.046.298t1.157.75.515 1.14q.094.422.094 1.532v2.234q0 2.328.094 2.953.11.61.437 1.172h-1.75q-.265-.516-.328-1.219zm-.14-3.719q-.907.36-2.735.625-1.031.141-1.453.329t-.656.546-.235.797q0 .672.5 1.125.516.438 1.485.438t1.719-.422q.75-.438 1.109-1.156.266-.578.266-1.672v-.61z" fill="#000"/><path d="M392 96h256v40H392z" fill="none"/><path d="M411.53 122.92v-13.594h2.75v5.344h5.375v-5.344h2.75v13.594h-2.75v-5.953h-5.375v5.953h-2.75zm16.52 0v-11.297h-4.031v-2.297h10.812v2.297H430.8v11.297h-2.75zm11.396 0v-11.297h-4.031v-2.297h10.812v2.297h-4.031v11.297h-2.75zm8.333 0v-13.594h4.422q2.5 0 3.266.203 1.156.297 1.938 1.328.796 1.016.796 2.64 0 1.25-.453 2.11t-1.156 1.344-1.422.64q-.984.204-2.844.204h-1.797v5.125h-2.75zm2.75-11.297v3.86h1.5q1.625 0 2.172-.22t.86-.671.312-1.047q0-.75-.437-1.235t-1.094-.593q-.5-.094-1.984-.094h-1.329zm8.288 11.531 3.375-14.062h1.953l-3.406 14.062h-1.922zm14.824-2.656v2.422h-9.14q.156-1.375.89-2.594.75-1.234 2.937-3.266 1.766-1.64 2.157-2.234.546-.797.546-1.594 0-.875-.468-1.344t-1.297-.468q-.813 0-1.297.5-.484.484-.563 1.625l-2.593-.25q.234-2.157 1.453-3.094t3.062-.938q2.016 0 3.156 1.094 1.157 1.078 1.157 2.688 0 .921-.328 1.75t-1.047 1.734q-.47.61-1.703 1.75-1.235 1.125-1.563 1.5-.328.36-.531.719h5.172zM476.09 122.92v-1.906h1.906v1.906q0 1.047-.375 1.688-.375.656-1.172 1l-.468-.72q.53-.218.78-.671t.282-1.297h-.953zM489.21 122.92v-11.297h-4.031v-2.297h10.812v2.297h-4.031v11.297h-2.75zm8.412 0v-13.484h2.75v11.188h6.828v2.297h-9.578zm10.63-4.422 2.671-.266q.235 1.344.97 1.985.75.625 2 .625 1.327 0 2-.563t.671-1.312q0-.484-.281-.813-.281-.343-.985-.593-.484-.172-2.203-.594-2.203-.547-3.093-1.344-1.266-1.125-1.266-2.734 0-1.047.594-1.953t1.703-1.375 2.672-.47q2.562 0 3.86 1.126 1.296 1.11 1.359 2.984l-2.75.125q-.172-1.047-.75-1.5-.579-.469-1.75-.469-1.188 0-1.875.5-.438.313-.438.844 0 .485.422.828.516.422 2.516.907 2 .468 2.953.984.968.5 1.515 1.375t.547 2.156q0 1.172-.656 2.203-.64 1.016-1.828 1.516-1.188.484-2.969.484-2.578 0-3.969-1.187-1.375-1.188-1.64-3.469zm13.053 1.813h2.609v1.859q0 1.14-.203 1.797-.188.656-.734 1.172-.532.515-1.375.812l-.516-1.078q.797-.25 1.125-.719.344-.453.36-1.234h-1.266v-2.61zm19.148-2.391 2.672.844q-.61 2.219-2.047 3.312-1.422 1.078-3.61 1.078-2.703 0-4.453-1.843-1.734-1.86-1.734-5.079 0-3.39 1.75-5.265t4.61-1.875q2.5 0 4.046 1.469.938.875 1.39 2.5l-2.718.656q-.235-1.063-1-1.672t-1.86-.61q-1.515 0-2.453 1.094-.937 1.079-.937 3.5 0 2.579.922 3.688.922 1.094 2.406 1.094 1.11 0 1.89-.688.782-.703 1.125-2.203zm4.754 5v-13.594h2.61v13.594h-2.61zm5.183-11.188v-2.406H553v2.406h-2.61zm0 11.188v-9.86H553v9.86h-2.61zm10.886-3.14 2.61.437q-.5 1.437-1.594 2.187-1.078.735-2.703.735-2.563 0-3.797-1.672-.969-1.344-.969-3.406 0-2.438 1.266-3.828 1.28-1.391 3.25-1.391 2.187 0 3.453 1.453 1.28 1.453 1.234 4.453h-6.531q.015 1.156.625 1.813.61.64 1.5.64.61 0 1.031-.328.422-.344.625-1.094zm.156-2.626q-.03-1.14-.593-1.718-.547-.594-1.344-.594-.86 0-1.406.625-.563.61-.547 1.687h3.89zm13.485 5.766h-2.609v-5.031q0-1.594-.172-2.063-.156-.468-.531-.718-.375-.266-.906-.266-.688 0-1.235.375-.531.36-.734.984-.188.61-.188 2.25v4.47h-2.61v-9.86h2.423v1.453q1.297-1.672 3.25-1.672.86 0 1.578.312t1.078.797.5 1.094q.156.61.156 1.75v6.125zm6.943-9.86v2.079h-1.781v3.984q0 1.203.047 1.406.062.188.234.328.188.125.453.125.36 0 1.047-.25l.219 2.016q-.906.39-2.063.39-.703 0-1.265-.234t-.828-.61-.375-1.015q-.078-.453-.078-1.844v-4.296h-1.203v-2.079h1.203v-1.953l2.609-1.515v3.469h1.781zm19.162 9.86h-2.984l-1.188-3.094h-5.437l-1.125 3.094h-2.906l5.296-13.594h2.907l5.437 13.594zm-5.047-5.375-1.875-5.047-1.844 5.047h3.72zm12.723 5.375v-1.469q-.531.781-1.406 1.235t-1.86.453-1.78-.438q-.782-.437-1.141-1.219-.344-.796-.344-2.187v-6.234h2.61v4.53q0 2.079.14 2.548t.516.75q.39.265.968.265.672 0 1.204-.36.53-.374.718-.905.188-.547.188-2.672v-4.156h2.61v9.859h-2.423zm9.427-9.86v2.079h-1.78v3.984q0 1.203.046 1.406.063.188.235.328.187.125.453.125.359 0 1.047-.25l.218 2.016q-.906.39-2.062.39-.703 0-1.266-.234t-.828-.61-.375-1.015q-.078-.453-.078-1.844v-4.296h-1.203v-2.079h1.203v-1.953l2.61-1.515v3.469h1.78zm4.307-3.734v5q1.25-1.484 3.015-1.484.891 0 1.61.344.734.328 1.094.843.375.516.5 1.157.14.624.14 1.953v5.78h-2.61v-5.202q0-1.547-.155-1.97-.141-.421-.516-.655-.375-.25-.938-.25-.656 0-1.171.312-.5.313-.735.953t-.234 1.875v4.938h-2.61v-13.594h2.61z" fill="#000"/><path d="M528 224v29.039" fill="none"/><path d="M528 227.43v22.185" stroke="#000" stroke-linecap="butt" stroke-linejoin="round"/><path d="m528 227.43 1.125 1.125-1.125-3.09-1.125 3.09zM528 249.61l-1.125-1.125 1.125 3.09 1.125-3.09z" fill="#000" fill-rule="evenodd" stroke="#000" stroke-linecap="butt"/></g></svg>