<svg width="500" height="156" xmlns="http://www.w3.org/2000/svg"><path d="M263.33 39.171c0 5.618-4.526 10.144-10.144 10.144s-10.144-4.526-10.144-10.144 4.37-10.144 10.144-10.144c5.774.156 10.144 4.682 10.144 10.144zm-41.824 20.444v2.497s-4.838-6.242-15.138-6.242c-17.011 0-30.276 12.953-30.276 30.9 0 17.79 13.109 30.9 30.276 30.9 10.456 0 15.138-6.399 15.138-6.399v2.653c0 1.249.936 2.185 2.185 2.185h12.64V57.43h-12.64c-1.249 0-2.185 1.092-2.185 2.185zm0 37.61c-2.34 3.433-7.023 6.399-12.641 6.399-9.988 0-17.635-6.243-17.635-16.855s7.647-16.854 17.635-16.854c5.462 0 10.456 3.122 12.641 6.399v20.912zm24.189-39.795h14.982v58.678h-14.982V57.43zm223.79-1.56c-10.3 0-15.138 6.242-15.138 6.242v-32.93h-14.982v86.926h12.641c1.249 0 2.185-1.093 2.185-2.185v-2.653s4.838 6.398 15.138 6.398c17.01 0 30.276-13.109 30.276-30.9 0-17.79-13.265-30.9-30.12-30.9zm-2.497 47.597c-5.774 0-10.3-2.965-12.641-6.398V76.157c2.34-3.121 7.335-6.399 12.641-6.399 9.988 0 17.635 6.243 17.635 16.854 0 10.612-7.647 16.854-17.635 16.854zm-35.426-22.16v34.957H416.58v-33.24c0-9.676-3.121-13.578-11.548-13.578-4.526 0-9.208 2.341-12.173 5.775v40.888h-14.982V57.43h11.861c1.248 0 2.185 1.092 2.185 2.184v2.497c4.37-4.525 10.144-6.242 15.918-6.242 6.554 0 12.017 1.873 16.386 5.618 5.306 4.37 7.335 9.988 7.335 19.82zM341.515 55.87c-10.3 0-15.138 6.243-15.138 6.243v-32.93h-14.982v86.926h12.641c1.248 0 2.185-1.093 2.185-2.185v-2.653s4.838 6.399 15.138 6.399c17.01 0 30.276-13.11 30.276-30.9.156-17.792-13.11-30.9-30.12-30.9zm-2.497 47.598c-5.774 0-10.3-2.965-12.641-6.398V76.157c2.34-3.121 7.335-6.399 12.641-6.399 9.988 0 17.635 6.243 17.635 16.854 0 10.612-7.647 16.854-17.635 16.854zM298.442 55.87c4.526 0 6.867.78 6.867.78v13.89s-12.485-4.214-20.288 4.681v41.044h-14.982V57.43h12.64c1.25 0 2.185 1.093 2.185 2.185v2.497c2.81-3.277 8.896-6.242 13.577-6.242zm-155.59 54.933c-.78-1.872-1.56-3.901-2.34-5.618-1.25-2.809-2.498-5.462-3.59-7.959l-.156-.156c-10.768-23.409-22.317-47.13-34.49-70.539l-.468-.936c-1.248-2.341-2.497-4.838-3.745-7.335-1.56-2.81-3.121-5.774-5.618-8.583C87.45 3.433 80.272 0 72.625 0c-7.803 0-14.826 3.433-19.976 9.363-2.341 2.81-4.058 5.775-5.618 8.584-1.249 2.497-2.497 4.994-3.746 7.335l-.468.936C30.8 49.627 19.097 73.348 8.328 96.757l-.156.312c-1.092 2.497-2.34 5.15-3.59 7.96a102.76 102.76 0 0 0-2.34 5.617C.212 116.421-.411 121.882.369 127.5c1.717 11.704 9.52 21.536 20.288 25.906 4.058 1.717 8.271 2.497 12.641 2.497 1.249 0 2.81-.156 4.058-.312 5.15-.624 10.456-2.34 15.606-5.306 6.398-3.59 12.485-8.74 19.35-16.23 6.867 7.491 13.11 12.641 19.352 16.23 5.15 2.965 10.456 4.682 15.606 5.306 1.248.156 2.809.312 4.057.312 4.37 0 8.74-.78 12.641-2.497 10.924-4.37 18.571-14.358 20.288-25.906 1.249-5.462.624-10.924-1.404-16.698zm-70.383 8.115c-8.427-10.611-13.889-20.6-15.762-29.026-.78-3.59-.936-6.711-.468-9.52.312-2.497 1.248-4.682 2.497-6.555 2.965-4.213 7.959-6.866 13.733-6.866s10.924 2.497 13.733 6.866c1.248 1.873 2.185 4.058 2.497 6.555.468 2.809.312 6.086-.468 9.52-1.873 8.27-7.335 18.258-15.762 29.026zm62.268 7.335c-1.092 8.115-6.555 15.138-14.201 18.26-3.745 1.56-7.803 2.028-11.861 1.56-3.902-.468-7.803-1.717-11.861-4.058-5.618-3.12-11.236-7.959-17.791-15.138 10.3-12.64 16.542-24.189 18.883-34.489 1.092-4.838 1.248-9.207.78-13.265-.624-3.901-2.029-7.49-4.213-10.612-4.838-7.022-12.953-11.08-22.004-11.08s-17.167 4.214-22.004 11.08c-2.185 3.121-3.59 6.71-4.214 10.612-.624 4.058-.468 8.584.78 13.265 2.341 10.3 8.74 22.004 18.883 34.645-6.398 7.18-12.173 12.017-17.79 15.138-4.058 2.341-7.96 3.59-11.862 4.058a24.965 24.965 0 0 1-11.86-1.56c-7.648-3.122-13.11-10.145-14.202-18.26-.468-3.901-.156-7.803 1.405-12.173.468-1.56 1.248-3.12 2.029-4.994 1.092-2.497 2.34-5.15 3.59-7.803l.155-.312c10.768-23.253 22.317-46.974 34.333-70.07l.468-.937c1.249-2.341 2.497-4.838 3.746-7.179 1.248-2.497 2.653-4.838 4.37-6.866 3.277-3.746 7.646-5.775 12.484-5.775s9.208 2.03 12.485 5.775c1.717 2.028 3.122 4.37 4.37 6.866 1.249 2.341 2.497 4.838 3.746 7.179l.468.936a2069.035 2069.035 0 0 1 34.177 70.227v.156c1.248 2.497 2.34 5.306 3.59 7.803.78 1.873 1.56 3.434 2.028 4.994 1.248 4.058 1.717 7.96 1.092 12.017z" fill="#7C7C7C" fill-rule="nonzero"/></svg>