<?xml version="1.0" encoding="UTF-8" standalone="no"?>
<svg width="49px" height="60px" viewBox="0 0 49 60" version="1.1" xmlns="http://www.w3.org/2000/svg" xmlns:xlink="http://www.w3.org/1999/xlink">
    <!-- Generator: Sketch 45 (43475) - http://www.bohemiancoding.com/sketch -->
    <title>apple</title>
    <desc>Created with Sketch.</desc>
    <defs></defs>
    <g id="Page-1" stroke="none" stroke-width="1" fill="none" fill-rule="evenodd" opacity="0.597423041">
        <g id="Envoy-R2" transform="translate(-573.000000, -1102.000000)" fill-rule="nonzero" fill="#222222">
            <g id="Group-22" transform="translate(298.000000, 1005.000000)">
                <g id="apple" transform="translate(275.000000, 97.000000)">
                    <path d="M27.0575211,5.22134681 C31.0098698,0.025331511 36.5045793,0 36.5045793,0 C36.5045793,0 37.3219079,4.88513753 33.3954497,9.59108173 C29.2029717,14.6159861 24.4376423,13.793747 24.4376423,13.793747 C24.4376423,13.793747 23.5428399,9.84183412 27.0575211,5.22134681 L27.0575211,5.22134681 Z M24.9403325,17.215768 C26.9736241,17.215768 30.7473088,14.4279218 35.659285,14.4279218 C44.1144021,14.4279218 47.4406362,20.4289272 47.4406362,20.4289272 C47.4406362,20.4289272 40.9351112,23.7465666 40.9351112,31.7966645 C40.9351112,40.8778633 49.0392247,44.007537 49.0392247,44.007537 C49.0392247,44.007537 43.374152,59.9118818 35.7222324,59.9118818 C32.2077489,59.9118818 29.4754146,57.5495459 25.7723852,57.5495459 C21.9987004,57.5495459 18.2538707,60 15.81483,60 C8.8274656,60.0001971 0,44.9132618 0,32.7858748 C0,20.8542403 7.47187204,14.5950901 14.480186,14.5950901 C19.0362176,14.5950901 22.5717495,17.215768 24.9403325,17.215768 L24.9403325,17.215768 Z" id="Shape"></path>
                </g>
            </g>
        </g>
    </g>
</svg>