<?xml version="1.0" encoding="UTF-8"?>
<svg width="267px" height="101px" viewBox="0 0 267 101" version="1.1" xmlns="http://www.w3.org/2000/svg" xmlns:xlink="http://www.w3.org/1999/xlink">
    <!-- Generator: Sketch 52.4 (67378) - http://www.bohemiancoding.com/sketch -->
    <title>amazon-web-services</title>
    <desc>Created with Sketch.</desc>
    <g id="Page-1" stroke="none" stroke-width="1" fill="none" fill-rule="evenodd">
        <g id="amazon-web-services" transform="translate(0.396049, 0.792099)" fill="#7D7D7D" fill-rule="nonzero">
            <path d="M85.9646577,36.6675079 C80.7590444,36.6675079 74.9479684,38.6728185 73.7302146,45.2737274 C73.6004726,45.9747894 74.0648124,46.3093872 74.5132189,46.4118151 L79.8485742,47.0514204 C80.3425043,47.0263825 80.6771021,46.4892051 80.7727015,45.9838941 C81.2279366,43.712271 83.0966766,42.6401924 85.1839295,42.6401924 C86.3106364,42.6401924 87.57619,43.0271422 88.2431094,44.062802 C89.0079043,45.216823 88.9532761,46.7851079 88.9532761,48.1166706 L88.9532761,48.8996749 C85.7825637,49.263863 81.6080579,49.484652 78.6399251,50.820767 C75.214281,52.3435284 72.8083635,55.4414032 72.8083635,59.9960303 C72.8083635,65.8321443 76.3842352,68.7456489 80.9889382,68.7456489 C84.8766459,68.7456489 87.0253555,67.8329025 90.0230786,64.6917803 C91.0177673,66.1712944 91.3364318,66.8427662 93.1528199,68.3905655 C93.564781,68.6255596 94.0812021,68.5685879 94.4320305,68.2494426 L94.4320305,68.320004 C95.5245947,67.3230392 97.5116959,65.5112035 98.6292981,64.5506575 C99.0754284,64.1773647 98.9775529,63.5627973 98.6292981,63.0574864 C97.630057,61.6417052 96.5670831,60.4990651 96.5670831,57.8655301 L96.5670831,49.1159116 C96.5670831,45.4102979 96.8811953,41.9937585 94.2203462,39.4421658 C92.1194362,37.3776747 88.6232307,36.6675079 85.9646577,36.6675079 Z M157.664185,36.6675079 C152.456296,36.6675079 146.649772,38.6728185 145.429742,45.2737274 C145.3,45.9747894 145.762064,46.3093872 146.212746,46.4118151 L151.548102,47.0514204 C152.042032,47.0263825 152.378906,46.4892051 152.472229,45.9838941 C152.92974,43.712271 154.796204,42.6401924 156.883457,42.6401924 C158.01244,42.6401924 159.275717,43.0271422 159.942637,44.062802 C160.705156,45.216823 160.582242,46.7851079 160.582242,48.1166706 L160.582242,48.8996749 C157.41153,49.263863 153.309861,49.484652 150.339452,50.820767 C146.911532,52.3435284 144.507891,55.4414032 144.507891,59.9960303 C144.507891,65.8321443 148.086039,68.7456489 152.688466,68.7456489 C156.571621,68.7456489 158.720331,67.8329025 161.722606,64.6917803 C162.715018,66.1712944 163.035959,66.8427662 164.852347,68.3905655 C165.262059,68.6090783 165.769646,68.5863166 166.131558,68.2494426 L166.131558,68.320004 C167.224122,67.3230392 169.211223,65.5112035 170.328825,64.5506575 C170.77268,64.1773647 170.670252,63.5627973 170.328825,63.0574864 C169.329584,61.6417052 168.26661,60.4990651 168.26661,57.8655301 L168.26661,49.1159116 C168.26661,45.4102979 168.505609,41.9937585 165.849312,39.4421658 C163.746126,37.3776747 160.322758,36.6675079 157.664185,36.6675079 Z M117.332632,36.9520299 C113.968445,36.9520299 111.473756,38.6500568 110.149022,42.2873852 L110.078461,42.2873852 L110.078461,38.5180386 C110.041171,37.983637 109.615897,37.558363 109.081496,37.5210737 L103.960101,37.5210737 C103.374103,37.5296298 102.901131,38.0026022 102.892575,38.5886 L102.892575,67.3958768 C102.942638,67.9243622 103.361054,68.3427779 103.88954,68.3928417 L109.366018,68.3928417 C109.953026,68.3866816 110.427384,67.9123233 110.433544,67.3253154 L110.433544,52.0316924 C110.433544,48.6970953 110.271936,44.1356397 114.202891,44.1356397 C118.08377,44.1356397 117.546592,48.822285 117.546592,52.0316924 L117.546592,67.3253154 C117.546592,67.8693213 117.990447,68.3564229 118.543557,68.3928417 L124.020035,68.3928417 C124.607043,68.3866816 125.081402,67.9123233 125.087562,67.3253154 L125.087562,52.0316924 C125.087562,50.3951222 125.021553,48.0119665 125.586044,46.5552142 C126.14826,45.0984619 127.529898,44.1379158 128.859184,44.1379158 C130.443403,44.1379158 131.652052,44.6910265 132.059487,46.6280518 C132.314419,47.7797966 132.20061,50.8230432 132.20061,52.0339686 L132.20061,67.3275915 C132.20061,67.8715975 132.644464,68.358699 133.197575,68.3951178 L138.674053,68.3951178 C139.261061,68.3889578 139.735419,67.9145995 139.741579,67.3275915 L139.741579,49.1181878 C139.741579,46.0248653 140.053415,42.5127266 138.31897,40.0840473 C136.787104,37.9034712 134.283311,36.9543061 131.988926,36.9543061 C128.770414,36.9543061 125.777243,38.652333 124.450233,42.2896614 C122.91609,38.652333 120.753724,36.9520299 117.332632,36.9520299 Z M210.444142,36.9520299 C202.52988,36.9520299 198.139137,43.9102983 198.139137,52.8852582 C198.139137,61.7987613 202.48208,68.9596094 210.444142,68.9596094 C218.103472,68.9596094 222.963107,61.962646 222.963107,53.1675039 C222.963107,44.0787353 218.560984,36.9520299 210.444142,36.9520299 Z M241.668717,36.9520299 C237.88799,36.9520299 235.727899,38.8435317 234.200585,42.7835914 L234.130024,42.7835914 L234.130024,38.3723634 C234.032148,37.926233 233.611056,37.6166731 233.133059,37.589359 L228.082226,37.589359 C227.541739,37.5771982 227.080093,37.9768325 227.014699,38.5134862 L227.014699,67.320763 C227.025364,67.8791008 227.455358,68.3395277 228.011664,68.3882893 L233.417581,68.3882893 C234.003579,68.3797332 234.476551,67.9067609 234.485107,67.320763 L234.485107,51.8154557 C234.485107,49.8716019 234.648992,48.0984612 235.409234,46.3389775 C236.023802,44.943682 237.209689,44.062802 238.538976,44.062802 C242.312875,44.062802 241.953239,48.6629527 241.953239,51.8154557 L241.953239,67.4641621 C242.02531,67.9691538 242.441205,68.3546638 242.950204,68.3882893 L248.426682,68.3882893 C248.963859,68.3882893 249.430475,67.9785777 249.494208,67.4641621 L249.494208,49.3253197 C249.494208,46.5370048 249.501037,42.6629541 248.071599,40.3617407 C246.539733,37.8784333 244.115606,36.9520299 241.668717,36.9520299 Z M175.94415,37.4505123 C175.388763,37.4505123 174.949462,37.8920903 174.947185,38.5180386 L174.947185,42.6424686 C174.949462,43.2593121 175.375106,43.7054425 175.94415,43.7099949 L185.333374,43.7099949 L174.592102,59.5726617 C173.936564,60.5946645 173.881935,61.7532378 173.881935,62.4178811 L173.881935,66.6151486 C173.881935,67.2206113 174.53975,67.878426 175.161146,67.5392759 C181.281782,64.1978503 188.617895,64.4937531 194.153554,67.4687144 C194.825026,67.8351787 195.505602,67.1477737 195.505602,66.5445872 L195.505602,62.1333591 C195.47394,61.4716736 195.094753,60.8760556 194.508637,60.5673504 C191.367515,58.7600671 187.721082,58.2069564 184.265848,58.2911749 L193.58451,44.6341221 C194.447181,43.4072635 194.92973,42.6675065 194.936558,42.0734247 L194.936558,38.5180386 C194.936558,37.9057474 194.517742,37.4505123 193.939594,37.4505123 L175.94415,37.4505123 Z M210.444142,42.856429 C212.178588,42.856429 213.457798,43.6303287 214.072366,45.6310869 C214.782532,47.9368527 214.85537,50.8162147 214.85537,53.2426177 C214.85537,56.9391267 214.682381,63.0574864 210.444142,63.0574864 C206.158104,63.0574864 206.176313,55.4823744 206.176313,51.9611309 C206.176313,48.4489922 206.410759,42.856429 210.444142,42.856429 Z M88.8804385,53.3837406 L88.8804385,54.5923898 C88.8804385,56.7797944 88.9601047,58.6212204 87.8834737,60.5673504 C87.0139746,62.1492923 85.6482693,63.1280478 84.1141271,63.1280478 C82.0200456,63.1280478 80.7704253,61.4300209 80.7704253,59.0036178 C80.7727015,54.219097 84.9289979,53.3837406 88.8804385,53.3837406 Z M160.579966,53.3837406 L160.579966,54.5923898 C160.579966,56.7797944 160.659632,58.6212204 159.583001,60.5673504 C158.713502,62.1492923 157.354625,63.1280478 155.813654,63.1280478 C153.717297,63.1280478 152.469953,61.4300209 152.469953,59.0036178 C152.472229,54.219097 156.623973,53.3837406 160.579966,53.3837406 Z" id="Shape"></path>
            <path d="M196.074646,69.3169689 L196.074646,73.4413989 L198.849304,73.4413989 L198.849304,69.3169689 L196.074646,69.3169689 Z M115.6255,70.0271357 L115.6255,99.4034563 L118.186198,99.4034563 L118.186198,96.7721974 C118.73248,97.8146858 119.353876,98.595414 120.10729,99.1189344 C120.858428,99.6424547 121.721098,99.9019387 122.667987,99.9019387 C124.548108,99.9019387 126.171021,98.9413927 127.575422,96.9861579 C128.979822,95.0309232 129.710474,92.1970847 129.710474,88.5916228 C129.710474,86.2312288 129.407743,84.2759941 128.786347,82.6166622 C128.164951,80.9618826 127.334147,79.7304717 126.296211,78.917877 C125.258275,78.1052824 124.079216,77.6386664 122.811386,77.6386664 C121.930097,77.6293516 121.065051,77.8760556 120.32125,78.3488332 C119.581493,78.8222777 118.982859,79.5939012 118.400158,80.5544472 L118.400158,70.0271357 L115.6255,70.0271357 Z M141.944917,76.9284997 C140.01472,76.9284997 138.482854,77.4998197 137.392566,78.6356313 C136.302278,79.7691667 135.755996,81.2327475 135.755996,83.0468594 C135.755996,84.1007286 135.992718,84.9907132 136.395601,85.8215173 C136.798485,86.6523213 137.378909,87.3192407 138.102733,87.8131708 C138.831109,88.3071009 140.283309,88.9558109 142.441124,89.6614253 C143.934295,90.1416983 144.826555,90.5514099 145.215781,90.8700744 C145.780273,91.3366904 146.069347,91.9489816 146.069347,92.7911665 C146.069347,93.7653696 145.732473,94.5779643 145.072382,95.2084649 C144.414568,95.8435179 143.499545,96.1325921 142.297724,96.1325921 C141.095904,96.1325921 140.105768,95.7957182 139.381944,95.0650658 C138.65812,94.3344135 138.266618,93.2236399 138.102733,91.7213641 L135.328075,92.2904079 C135.954023,96.8541398 138.230199,99.1212105 142.156602,99.1189344 C144.250683,99.1189344 145.853111,98.5248526 147.064036,97.2706799 C148.274961,96.0165072 148.91229,94.3230326 148.91229,92.2904079 C148.91229,91.1932914 148.718815,90.24185 148.343247,89.4451886 C147.967678,88.6485272 147.450986,88.0589977 146.777238,87.5969341 C146.101214,87.1371467 144.594386,86.5225793 142.295448,85.7486796 C140.624736,85.1637025 139.64598,84.7357816 139.309106,84.469469 C138.742338,84.0187863 138.45554,83.4042189 138.45554,82.6212145 C138.45554,81.8200008 138.719577,81.1417005 139.309106,80.629561 C139.898636,80.1174215 140.80683,79.8465566 142.013203,79.8465566 C144.134598,79.8465566 145.320486,81.0119585 145.568589,83.3313813 L148.272685,82.9034603 C148.086039,81.4353271 147.765098,80.2767538 147.27572,79.4891971 C146.786343,78.7016404 146.062519,78.0369971 145.140668,77.568105 C144.221093,77.101489 143.162671,76.9284997 141.944917,76.9284997 Z M158.945672,76.9284997 C156.721848,76.9284997 154.84628,77.8435222 153.396356,79.773719 C151.946432,81.7039158 151.261303,84.4990593 151.261303,88.1682542 C151.261303,91.7031547 151.960089,94.4732602 153.396356,96.3488288 C154.832623,98.2221212 156.694534,99.1234867 159.016233,99.1234867 C160.862212,99.1234867 162.391802,98.5703761 163.639146,97.4163551 C164.888766,96.2623341 165.794684,94.5643072 166.270405,92.2949603 L163.425185,91.7964779 C162.608038,94.7031539 161.10121,96.130316 159.013957,96.1348683 C157.684671,96.1348683 156.598935,95.5703768 155.670255,94.3571753 C154.741576,93.1416976 154.215779,91.3389666 154.104247,88.9512585 L166.33869,88.9512585 L166.33869,87.9542937 C166.33869,84.3647649 165.623971,81.6697732 164.203637,79.773719 C162.787856,77.8776649 161.064791,76.9284997 158.945672,76.9284997 Z M175.803027,76.9284997 C175.138384,76.9284997 174.557959,77.1538411 174.025334,77.6386664 C173.492709,78.1234918 172.887247,79.1295614 172.247641,80.6250086 L172.247641,77.3518683 L169.757505,77.3518683 L169.757505,98.6204519 L172.532163,98.6204519 L172.532163,87.5263727 C172.532163,85.9785734 172.677839,84.4899546 173.030646,83.1151446 C173.230949,82.3275879 173.608794,81.706192 174.098172,81.2668901 C174.58755,80.8275883 175.145213,80.6272848 175.734742,80.6272848 C176.388005,80.6272848 177.036715,80.889045 177.726396,81.4102892 L178.650523,78.0665874 C177.680872,77.2926878 176.731707,76.9284997 175.803027,76.9284997 Z M209.80226,76.9284997 C207.605751,76.9284997 205.796192,77.8526269 204.396344,79.7031576 C203.001048,81.5514121 202.261291,84.3283461 202.261291,88.0248551 C202.261291,91.6917738 203.007877,94.470984 204.396344,96.3465526 C205.782535,98.219845 207.51698,99.1212105 209.658861,99.1212105 C211.42745,99.1212105 212.947935,98.4633958 214.211212,97.129557 C215.47449,95.7957182 216.243837,93.8336549 216.557949,91.2979954 L213.853853,90.8700744 C213.653549,92.6841863 213.180105,93.9884348 212.431243,94.8533815 C211.682381,95.7137759 210.781016,96.1325921 209.727147,96.1325921 C208.384203,96.1325921 207.241563,95.5066439 206.383445,94.2115 C205.525327,92.9163562 205.104234,90.8450365 205.104234,87.9520175 C205.104234,85.1477693 205.557193,83.1242493 206.456282,81.8336578 C207.355372,80.5430663 208.500288,79.8420043 209.870546,79.8420043 C210.785568,79.8420043 211.566296,80.1970877 212.217283,80.9095306 C212.872821,81.6196973 213.307571,82.7486804 213.569331,84.1826709 L216.273427,83.613627 C215.947934,81.3738704 215.228663,79.682672 214.067813,78.5627937 C212.906964,77.4406392 211.498011,76.9284997 209.80226,76.9284997 Z M225.664927,76.9284997 C223.441104,76.9284997 221.565535,77.8435222 220.115612,79.773719 C218.665688,81.7039158 217.980559,84.4990593 217.980559,88.1682542 C217.980559,91.7031547 218.679345,94.4732602 220.115612,96.3488288 C221.554154,98.2221212 223.41379,99.1234867 225.735489,99.1234867 C227.576915,99.1234867 229.108781,98.5703761 230.358401,97.4163551 C231.605745,96.2623341 232.511663,94.5643072 232.98966,92.2949603 L230.144441,91.7964779 C229.327294,94.7031539 227.886475,96.130316 225.80605,96.1348683 C224.476764,96.1348683 223.320467,95.5703768 222.391787,94.3571753 C221.463107,93.1416976 220.939587,91.3389666 220.825778,88.9512585 L233.060221,88.9512585 L233.060221,87.9542937 C233.060221,84.3647649 232.345502,81.6697732 230.925169,79.773719 C229.51394,77.8776649 227.786323,76.9284997 225.664927,76.9284997 Z M242.096638,76.9284997 C240.161889,76.9284997 238.634575,77.4998197 237.544287,78.6356313 C236.451723,79.7691667 235.907717,81.2327475 235.907717,83.0468594 C235.907717,84.1007286 236.073878,84.9907132 236.476761,85.8215173 C236.877368,86.6500451 237.455516,87.3192407 238.183892,87.8131708 C238.907716,88.3071009 240.366745,88.9558109 242.522283,89.6614253 C244.010902,90.1416983 244.978276,90.5514099 245.367502,90.8700744 C245.931994,91.3366904 246.221068,91.9489816 246.221068,92.7911665 C246.221068,93.7653696 245.884194,94.5779643 245.224103,95.2084649 C244.568565,95.8435179 243.651266,96.1325921 242.449445,96.1325921 C241.245348,96.1325921 240.257488,95.7957182 239.533664,95.0650658 C238.809841,94.3344135 238.343225,93.2236399 238.181616,91.7213641 L235.406958,92.2904079 C236.032907,96.8541398 238.30453,99.1212105 242.235485,99.1189344 C244.331842,99.1189344 246.002555,98.5248526 247.215757,97.2706799 C248.428958,96.0165072 249.064011,94.3230326 249.064011,92.2904079 C249.064011,91.1932914 248.870536,90.24185 248.494967,89.4451886 C248.119398,88.6485272 247.534421,88.0589977 246.858397,87.5969341 C246.184649,87.1371467 244.746106,86.5225793 242.447169,85.7486796 C240.776456,85.1637025 239.727139,84.7357816 239.387989,84.469469 C238.821222,84.0187863 238.534423,83.4042189 238.534423,82.6212145 C238.534423,81.8200008 238.869021,81.1417005 239.458551,80.629561 C240.04808,80.1174215 240.960826,79.8465566 242.162647,79.8465566 C244.284043,79.8465566 245.46993,81.0119585 245.718033,83.3313813 L248.42213,82.9034603 C248.233207,81.4353271 247.916819,80.2767538 247.425165,79.4891971 C246.902999,78.6652583 246.164414,78.0006894 245.290112,77.568105 C244.377366,77.101489 243.312116,76.9284997 242.096638,76.9284997 Z M178.648247,77.3541445 L184.837168,98.6227281 L187.468427,98.6227281 L193.657348,77.3541445 L190.812128,77.3541445 L187.183905,90.371592 C186.744603,91.9444293 186.357653,93.303306 186.116378,94.4254605 C185.813647,93.0119556 185.524573,91.5278892 185.119414,90.0870701 L181.564028,77.3541445 L178.648247,77.3541445 Z M196.074646,77.3541445 L196.074646,98.6227281 L198.849304,98.6227281 L198.849304,77.3541445 L196.074646,77.3541445 Z M104.886504,77.6386664 C102.685443,77.6386664 100.914578,78.6265266 99.4805877,80.5544472 C98.044321,82.484644 97.2749737,85.2797875 97.2749737,88.9489823 C97.2749737,92.4838829 97.9851404,95.183427 99.4100262,97.0567194 C100.834912,98.9300118 102.730966,99.9019387 105.029903,99.9019387 C106.855396,99.9019387 108.346291,99.2782666 109.582254,98.1242457 C110.815942,96.9702247 111.669507,95.2721978 112.142952,93.0028509 L109.368294,92.5749299 C108.560252,95.481606 107.092118,96.908768 105.029903,96.9133203 C103.711998,96.9133203 102.605777,96.3488288 101.686202,95.1356273 C100.766627,93.9201496 100.231726,92.1174186 100.120193,89.7297105 L112.211237,89.7297105 L112.281799,88.7327457 C112.281799,85.143217 111.553422,82.3776638 110.146746,80.4816096 C108.74007,78.5855554 106.982862,77.6386664 104.886504,77.6386664 Z M73.6596531,78.1371489 L78.6399251,99.4057325 L81.5557058,99.4057325 L84.8288462,83.0445832 L85.39789,86.6728069 L88.0291489,99.4057325 L90.8743682,99.4057325 L95.9252016,78.1371489 L93.2939428,78.1371489 L90.5192849,90.4421535 L89.5951576,94.5665834 L88.7415918,90.4421535 L86.3242935,78.1371489 L83.4790741,78.1371489 L80.9183767,90.5855525 L80.0648109,94.9967806 L79.0678461,90.4444296 L76.5071486,78.139425 L73.6596531,78.139425 L73.6596531,78.1371489 Z M250.702857,78.3511094 L250.702857,79.3480742 L253.406954,79.3480742 L253.406954,86.4611226 L254.47448,86.4611226 L254.47448,79.3480742 L257.178577,79.3480742 L257.178577,78.3511094 L250.702857,78.3511094 Z M258.243827,78.3511094 L258.243827,86.4588464 L259.240792,86.4588464 L259.240792,79.5597585 L261.587529,86.4588464 L262.584493,86.4588464 L264.93123,79.7008814 L264.93123,86.4588464 L265.998757,86.4588464 L265.998757,78.3511094 L264.505586,78.3511094 L262.584493,84.041548 C262.391019,84.6105919 262.252172,85.0225797 262.156572,85.3207586 L261.728651,84.1121095 L259.807559,78.3511094 L258.243827,78.3511094 Z M158.872834,79.8442805 C160.254473,79.8442805 161.392561,80.5134761 162.287097,81.835934 C162.901665,82.7418518 163.299996,84.1212142 163.425185,85.960364 L154.249922,85.960364 C154.336417,84.0939001 154.864489,82.653081 155.743093,81.5491359 C156.621697,80.4451908 157.632319,79.8442805 158.872834,79.8442805 Z M225.594366,79.8442805 C226.971452,79.8442805 228.114092,80.5134761 229.008629,81.835934 C229.623196,82.7418518 230.021527,84.1212142 230.146717,85.960364 L220.971453,85.960364 C221.057948,84.0939001 221.586021,82.653081 222.464625,81.5491359 C223.340952,80.4497431 224.351574,79.8442805 225.594366,79.8442805 Z M104.886504,80.6272848 C106.25221,80.6272848 107.349326,81.2964804 108.230206,82.6189384 C108.837945,83.5248562 109.243104,84.9042185 109.368294,86.7433683 L100.334153,86.7433683 C100.420648,84.8769044 100.882712,83.3655239 101.756763,82.2615788 C102.623986,81.1599099 103.655093,80.6272848 104.886504,80.6272848 Z M122.526864,80.6272848 C123.760551,80.6272848 124.809868,81.3124136 125.656606,82.6189384 C126.503343,83.9277393 126.865255,85.9444307 126.865255,88.737298 C126.865255,91.4573277 126.464648,93.4854001 125.586044,94.8556577 C124.70744,96.2259153 123.6604,96.9178727 122.526864,96.9178727 C121.693784,96.9178727 120.935818,96.6379031 120.250689,96.0643069 C119.563284,95.4907107 119.060249,94.6690113 118.68468,93.5741709 C118.309111,92.4793305 118.115636,90.7949607 118.115636,88.593899 C118.115636,86.0013351 118.5777,84.0597574 119.467684,82.6894998 C120.357669,81.3192422 121.393329,80.6272848 122.526864,80.6272848 Z" id="Shape"></path>
            <path d="M33.7901636,58.0772144 L23.1922906,62.6295654 L33.0071592,66.8268329 L44.3880366,62.6295654 L33.7901636,58.0772144 Z M17.8569353,63.7676531 L17.5018519,84.2532324 L33.0071592,91.0817588 L33.0071592,69.8131752 L17.8569353,63.7676531 Z M49.7233919,63.7676531 L35.7112557,69.1030084 L35.7112557,89.1606667 L49.7233919,83.470228 L49.7233919,63.7676531 Z M66.4396245,0.0347399005 L55.7689139,4.58709084 L65.6566202,8.78435841 L77.0374975,4.58709084 L66.4396245,0.0347399005 Z M51.644484,6.08253813 L51.644484,26.5681174 L64.8736158,30.4103016 L65.3015368,11.7729768 L51.644484,6.08253813 Z M81.2347651,7.22062586 L68.7158,12.5559812 L68.7158,32.686477 L81.2347651,26.9960384 L81.2347651,7.22062586 Z M16.3273454,28.8670546 L5.72947236,33.4194055 L15.544341,37.6166731 L26.9252183,33.4194055 L16.3273454,28.8670546 Z M0.394117052,34.5574933 L0.0390336779,55.0430725 L15.544341,61.8715989 L15.544341,40.6030153 L0.394117052,34.5574933 Z M32.2605737,34.5574933 L18.2484375,39.8928486 L18.2484375,59.9505068 L32.2605737,54.2600682 L32.2605737,34.5574933 Z M50.4699774,28.1113643 L39.8721044,32.6637153 L49.6869731,36.8609829 L61.0678504,32.6637153 L50.4699774,28.1113643 Z M34.5367491,33.801803 L34.1816658,54.2873823 L49.6869731,61.1159087 L49.6869731,39.8496013 L34.5367491,33.801803 Z M66.4032057,33.801803 L52.3910695,39.1371583 L52.3910695,59.1948166 L66.4032057,53.5043779 L66.4032057,33.801803 Z M99.7878714,0.0347399005 L89.1899984,4.58709084 L99.004867,8.78435841 L110.385744,4.58709084 L99.7878714,0.0347399005 Z M83.8546431,5.72517858 L83.4995597,26.2107578 L99.004867,33.0392842 L99.004867,11.7729768 L83.8546431,5.72517858 Z M115.7211,5.72517858 L101.708963,11.0605339 L101.708963,31.1181921 L115.7211,25.4277535 L115.7211,5.72517858 Z" id="Shape"></path>
        </g>
    </g>
</svg>