<?xml version="1.0" encoding="UTF-8" standalone="no"?>
<svg width="247px" height="42px" viewBox="0 0 247 42" version="1.1" xmlns="http://www.w3.org/2000/svg" xmlns:xlink="http://www.w3.org/1999/xlink">
    <!-- Generator: Sketch 48.1 (47250) - http://www.bohemiancoding.com/sketch -->
    <title>Booking.com_logo</title>
    <desc>Created with Sketch.</desc>
    <defs>
        <polygon id="path-1" points="1.30130208 42.1141146 247.395573 42.1141146 247.395573 0.358046875 1.30130208 0.358046875 1.30130208 42.1141146"></polygon>
        <polygon id="path-3" points="1.3015625 0.358020833 247.395938 0.358020833 247.395938 42.1140885 1.3015625 42.1140885"></polygon>
        <polygon id="path-5" points="1.30130208 44.1974479 247.395573 44.1974479 247.395573 2.44138021 1.30130208 2.44138021 1.30130208 44.1974479"></polygon>
        <polygon id="path-7" points="1.3015625 43.375625 247.34349 43.375625 247.34349 2.49466146 1.3015625 2.49466146"></polygon>
        <polygon id="path-9" points="1.3015625 2.44135417 247.395938 2.44135417 247.395938 44.1974219 1.3015625 44.1974219"></polygon>
        <polygon id="path-11" points="1.30130208 42.1141146 247.395573 42.1141146 247.395573 0.358046875 1.30130208 0.358046875 1.30130208 42.1141146"></polygon>
        <polygon id="path-13" points="1.3015625 0.358020833 247.395938 0.358020833 247.395938 42.1140885 1.3015625 42.1140885"></polygon>
    </defs>
    <g id="Page-1" stroke="none" stroke-width="1" fill="none" fill-rule="evenodd">
        <g id="Booking.com_logo" transform="translate(-2.000000, -2.000000)">
            <g id="g3358" transform="translate(125.260937, 22.021458) scale(-1, 1) rotate(-180.000000) translate(-125.260937, -22.021458) translate(1.302604, 0.146458)">
                <g id="g3360-Clipped">
                    <mask id="mask-2" fill="white">
                        <use xlink:href="#path-1"></use>
                    </mask>
                    <g id="path3364"></g>
                    <g id="g3360" mask="url(#mask-2)">
                        <g id="g3366-Clipped">
                            <mask id="mask-4" fill="white">
                                <use xlink:href="#path-3"></use>
                            </mask>
                            <g id="path3370"></g>
                            <g id="g3366" mask="url(#mask-4)" fill="#7C7C7C" fill-rule="nonzero">
                                <g transform="translate(23.437500, 8.333333)">
                                    <path d="M74.3710937,29.2097917 C74.3710937,31.2825 76.0440104,32.9589583 78.1033854,32.9589583 C80.1697917,32.9589583 81.8492188,31.2825 81.8492188,29.2097917 C81.8492188,27.1397656 80.1697917,25.4615365 78.1033854,25.4615365 C76.0440104,25.4615365 74.3710937,27.1397656 74.3710937,29.2097917" id="path3372"></path>
                                    <path d="M133.372396,4.27255208 C133.372396,6.34611979 135.044531,8.024375 137.103906,8.024375 C139.169531,8.024375 140.848698,6.34611979 140.848698,4.27255208 C140.848698,2.20429687 139.169531,0.524270833 137.103906,0.524270833 C135.044531,0.524270833 133.372396,2.20429687 133.372396,4.27255208" id="path3374"></path>
                                    <path d="M12.9986979,5.89302083 C9.778125,5.89302083 7.54010417,8.45080729 7.54010417,12.1058073 C7.54010417,15.7598958 9.778125,18.3159115 12.9986979,18.3159115 C16.2377604,18.3159115 18.5005208,15.7598958 18.5005208,12.1058073 C18.5005208,8.39307292 16.2848958,5.89302083 12.9986979,5.89302083 Z M12.9986979,23.7761719 C6.18515625,23.7761719 1.24036458,18.8667448 1.24036458,12.1058073 C1.24036458,5.34486979 6.18515625,0.436328125 12.9986979,0.436328125 C19.8377604,0.436328125 24.803125,5.34486979 24.803125,12.1058073 C24.803125,18.8667448 19.8377604,23.7761719 12.9986979,23.7761719 Z" id="path3376"></path>
                                    <path d="M67.1286458,11.5221094 C66.8638021,12.0205208 66.5601562,12.442526 66.2367187,12.7774479 L66.0307292,12.9960156 L66.2473958,13.2039062 C66.5601562,13.5335156 66.8799479,13.9244271 67.1882812,14.3775 L73.2010417,23.3159635 L65.9018229,23.3159635 L61.3841146,16.3240625 C61.1283854,15.9491406 60.6119792,15.7598958 59.8390625,15.7598958 L58.809375,15.7598958 L58.809375,28.9788021 C58.809375,31.6227604 57.1622396,31.9825781 55.3828125,31.9825781 L52.3364583,31.9825781 L52.3416667,0.780130208 L58.809375,0.780130208 L58.809375,10.1397135 L59.4153646,10.1397135 C60.1526042,10.1397135 60.6546875,10.0544271 60.8848958,9.65375 L64.4528646,2.91947917 C65.4494792,1.09197917 66.4427083,0.780130208 68.3111979,0.780130208 L73.2677083,0.780130208 L69.5763021,6.88630208 L67.1286458,11.5221094" id="path3378"></path>
                                    <path d="M98.5273438,23.8259375 C95.2375,23.8259375 93.1382813,22.3644792 91.9619792,21.1286719 L91.5692708,20.7315365 L91.4307292,21.2716927 C91.0851563,22.5954687 89.9203125,23.3239844 88.1674479,23.3239844 L85.26875,23.3239844 L85.2869792,0.788125 L91.7106771,0.788125 L91.7106771,11.1747396 C91.7106771,12.1902083 91.8427083,13.0715104 92.1111979,13.8755469 C92.8263021,16.3089583 94.8208333,17.8219531 97.3138021,17.8219531 C99.3190104,17.8219531 100.102604,16.7638281 100.102604,14.0292448 L100.102604,4.21390625 C100.102604,1.88 101.182031,0.788125 103.517708,0.788125 L106.57474,0.788125 L106.564323,15.1211198 C106.564323,20.8159375 103.786979,23.8259375 98.5291667,23.8259375" id="path3380"></path>
                                    <path d="M78.1888021,23.3141927 L75.1440104,23.3141927 L75.1648437,5.88947917 L75.1627604,5.88947917 L75.1627604,0.7828125 L78.4127604,0.7828125 C78.4536458,0.7828125 78.4864583,0.778385417 78.5273437,0.778385417 L80.0411458,0.7828125 L81.5479167,0.7828125 L81.5479167,0.791666667 L81.5583333,0.791666667 L81.5713542,19.8928385 C81.5713542,22.1974219 80.4695313,23.3141667 78.1908854,23.3141667" id="path3382"></path>
                                    <path d="M38.2307292,5.89302083 C35.0104167,5.89302083 32.7679687,8.45080729 32.7679687,12.1058073 C32.7679687,15.7598958 35.0104167,18.3159115 38.2307292,18.3159115 C41.4630208,18.3159115 43.7320312,15.7598958 43.7320312,12.1058073 C43.7320312,8.39307292 41.5171875,5.89302083 38.2307292,5.89302083 Z M38.2307292,23.7761719 C31.4104167,23.7761719 26.4645833,18.8667448 26.4645833,12.1058073 C26.4645833,5.34486979 31.4104167,0.436328125 38.2307292,0.436328125 C45.0627604,0.436328125 50.0361979,5.34486979 50.0361979,12.1058073 C50.0361979,18.8667448 45.0627604,23.7761719 38.2307292,23.7761719 Z" id="path3384"></path>
                                </g>
                            </g>
                        </g>
                    </g>
                </g>
            </g>
            <g id="g3386" transform="translate(125.000521, 23.844375) scale(-1, 1) rotate(-180.000000) translate(-125.000521, -23.844375) translate(1.302604, 1.708958)">
                <g id="g3388-Clipped">
                    <mask id="mask-6" fill="white">
                        <use xlink:href="#path-5"></use>
                    </mask>
                    <g id="path3392"></g>
                    <g id="g3388" mask="url(#mask-6)">
                        <g id="g3394-Clipped">
                            <mask id="mask-8" fill="white">
                                <use xlink:href="#path-7"></use>
                            </mask>
                            <g id="path3398"></g>
                            <g id="g3394" mask="url(#mask-8)">
                                <g id="g3400-Clipped">
                                    <mask id="mask-10" fill="white">
                                        <use xlink:href="#path-9"></use>
                                    </mask>
                                    <g id="path3404"></g>
                                    <g id="g3400" mask="url(#mask-10)" fill="#7C7C7C" fill-rule="nonzero">
                                        <g transform="translate(130.208333, 0.000000)">
                                            <path d="M69.1539063,16.3096875 C65.9348958,16.3096875 63.6908854,18.867474 63.6908854,22.522474 C63.6908854,26.1765625 65.9348958,28.7325781 69.1539063,28.7325781 C72.3867188,28.7325781 74.6567708,26.1765625 74.6567708,22.522474 C74.6567708,18.8097396 72.4408854,16.3096875 69.1539063,16.3096875 Z M69.1539063,34.1928385 C62.3351563,34.1928385 57.3893229,29.2834115 57.3893229,22.522474 C57.3893229,15.7615365 62.3351562,10.8529948 69.1539063,10.8529948 C75.9867187,10.8529948 80.9591146,15.7615365 80.9591146,22.522474 C80.9591146,29.2834115 75.9867187,34.1928385 69.1539063,34.1928385 Z" id="path3406"></path>
                                            <path d="M13.3382812,17.3011979 C9.82630208,17.3011979 8.57630208,20.3653646 8.57630208,23.2367708 C8.57630208,24.501875 8.89609375,28.6250781 13.0007812,28.6250781 C15.040625,28.6250781 17.7591146,28.0404948 17.7591146,23.0244271 C17.7591146,18.2935677 15.3533854,17.3011979 13.3382812,17.3011979 Z M21.0942708,33.791276 C19.8752604,33.791276 18.9372396,33.3053125 18.4671875,32.4177604 L18.2895833,32.0730729 L17.9919271,32.3315885 C16.9549479,33.2289063 15.0958333,34.2932292 12.0768229,34.2932292 C6.07005208,34.2932292 2.02604167,29.7817969 2.02604167,23.0679688 C2.02604167,16.3621094 6.21041667,11.6756771 12.1976562,11.6756771 C14.2427083,11.6756771 15.8588542,12.1527604 17.1398437,13.1229167 L17.6356771,13.4951563 L17.6356771,12.8688281 C17.6356771,9.85882813 15.6890625,8.19835938 12.1604167,8.19835938 C10.4455729,8.19835938 8.88463542,8.61591146 7.84088542,8.99440104 C6.47786458,9.40572917 5.67916667,9.06546875 5.1265625,7.69817708 L4.61666667,6.43661458 L3.8953125,4.59401042 L4.3421875,4.35591146 C6.60052083,3.15742188 9.54036458,2.44223958 12.1976562,2.44223958 C17.6684896,2.44223958 24.05625,5.24255208 24.05625,13.1229167 L24.0796875,33.791276 L21.0953125,33.791276 L21.0942708,33.791276 Z" id="path3408"></path>
                                        </g>
                                    </g>
                                </g>
                            </g>
                        </g>
                    </g>
                </g>
            </g>
            <g id="g3410" transform="translate(125.260937, 22.021458) scale(-1, 1) rotate(-180.000000) translate(-125.260937, -22.021458) translate(1.302604, 0.146458)">
                <g id="g3412-Clipped">
                    <mask id="mask-12" fill="white">
                        <use xlink:href="#path-11"></use>
                    </mask>
                    <g id="path3416"></g>
                    <g id="g3412" mask="url(#mask-12)">
                        <g id="g3418-Clipped">
                            <mask id="mask-14" fill="white">
                                <use xlink:href="#path-13"></use>
                            </mask>
                            <g id="path3422"></g>
                            <g id="g3418" mask="url(#mask-14)" fill="#7C7C7C" fill-rule="nonzero">
                                <g transform="translate(0.000000, 8.333333)">
                                    <path d="M12.5125,6.1515625 L7.28333333,6.15677083 L7.28333333,12.4086198 C7.28333333,13.7448177 7.80130208,14.4395833 8.94635417,14.5994792 L12.5125,14.5994792 C15.0578125,14.5994792 16.7023437,12.9940885 16.7041667,10.3972396 C16.7023437,7.73195313 15.0986979,6.15320313 12.5125,6.15143229 L12.5125,6.1515625 Z M7.28333333,23.0165885 L7.28333333,24.6619531 C7.28333333,26.1020833 7.89270833,26.7870573 9.22994792,26.875026 L11.9057292,26.875026 C14.2005208,26.875026 15.575,25.5015104 15.575,23.2040365 C15.575,21.4520573 14.6341146,19.4077865 11.9901042,19.4077865 L7.28333333,19.4077865 L7.28333333,23.0165885 Z M19.1908854,16.7771615 L18.2455729,17.3084375 L19.0708333,18.0138542 C20.0304687,18.8391927 21.6393229,20.6942188 21.6393229,23.8996615 C21.6393229,28.8038021 17.8351563,31.9692708 11.9473958,31.9692708 L5.22838542,31.9692708 L5.22838542,31.9710417 L4.46328125,31.9710417 C2.71770833,31.9070573 1.32109375,30.4873698 1.3015625,28.7309375 L1.3015625,0.893854167 L4.38515625,0.893854167 C4.39296875,0.892083333 4.39557292,0.893854167 4.39817708,0.892083333 L12.0802083,0.893854167 C18.6252604,0.893854167 22.8497396,4.45645833 22.8497396,9.97447917 C22.8497396,12.9453646 21.484375,15.4853906 19.1895833,16.7771615 L19.1908854,16.7771615 Z" id="path3424"></path>
                                    <path d="M239.863021,23.7530729 C237.197656,23.7530729 234.621094,22.5048437 232.966927,20.4117187 L232.501302,19.8217969 L232.136198,20.481901 C230.946615,22.6514323 228.898698,23.7530729 226.051302,23.7530729 C223.065365,23.7530729 221.06276,22.0872917 220.132552,21.0966927 L219.523958,20.437474 L219.289583,21.3045833 C218.95,22.5528125 217.838802,23.2404687 216.155208,23.2404687 L213.455208,23.2404687 L213.429167,0.791692708 L219.563802,0.791692708 L219.563802,10.7011979 C219.563802,11.5691927 219.671354,12.4283073 219.888802,13.3265104 C220.47526,15.7208073 222.084375,18.2963542 224.789583,18.038724 C226.458073,17.8788021 227.272656,16.5896875 227.272656,14.0994271 L227.272656,0.791692708 L233.450781,0.791692708 L233.450781,10.7011979 C233.450781,11.7859635 233.552083,12.5979948 233.796615,13.4126823 C234.29401,15.6985937 235.973958,18.0422656 238.584115,18.0422656 C240.472917,18.0422656 241.171354,16.9726042 241.171354,14.0994271 L241.171354,4.07354167 C241.171354,1.80539062 242.183073,0.791692708 244.449479,0.791692708 L247.336979,0.791692708 L247.342187,15.1228906 C247.342187,20.8479167 244.821615,23.7530729 239.861719,23.7530729" id="path3426"></path>
                                    <path d="M184.045573,8.58585938 C184.027344,8.56372396 181.3875,5.78020833 177.911979,5.78020833 C174.745573,5.78020833 171.546354,7.72320313 171.546354,12.0604948 C171.546354,15.8052083 174.026823,18.422526 177.577083,18.422526 C178.730208,18.422526 180.041406,18.009401 180.246615,17.3146615 L180.276823,17.1973698 C180.749479,15.6221875 182.18099,15.5377865 182.4625,15.5377865 L185.823437,15.5341406 L185.823437,18.4721615 C185.823437,22.347474 180.894271,23.7529688 177.577083,23.7529688 C170.483854,23.7529688 165.336979,18.8142188 165.336979,12.0133073 C165.336979,5.21505208 170.427865,0.283411458 177.447396,0.283411458 C183.5375,0.283411458 186.849479,4.28664063 186.880469,4.32664063 L187.057292,4.54341146 L184.395573,8.95888021 L184.045573,8.58575521" id="path3428"></path>
                                </g>
                            </g>
                        </g>
                    </g>
                </g>
            </g>
        </g>
    </g>
</svg>