<svg width="247" height="42" xmlns="http://www.w3.org/2000/svg" xmlns:xlink="http://www.w3.org/1999/xlink"><defs><path id="a" d="M1.301 42.114H247.4V.358H1.301z"/><path id="c" d="M1.302.358H247.4v41.756H1.302z"/><path id="e" d="M1.301 44.197H247.4V2.441H1.301z"/><path id="g" d="M1.302 43.376H247.34V2.495H1.302z"/><path id="i" d="M1.302 2.441H247.4v41.756H1.302z"/><path id="k" d="M1.301 42.114H247.4V.358H1.301z"/><path id="m" d="M1.302.358H247.4v41.756H1.302z"/></defs><g fill="none" fill-rule="evenodd"><g transform="matrix(1 0 0 -1 -.7 41.896)"><mask id="b" fill="#fff"><use xlink:href="#a"/></mask><g mask="url(#b)"><mask id="d" fill="#fff"><use xlink:href="#c"/></mask><g fill="#7C7C7C" fill-rule="nonzero" mask="url(#d)"><path d="M97.809 37.543a3.74 3.74 0 0 0 3.732 3.75 3.749 3.749 0 0 0 0-7.498 3.742 3.742 0 0 0-3.732 3.748M156.808 12.606c0 2.073 1.672 3.752 3.732 3.752a3.749 3.749 0 0 0 3.744-3.752 3.75 3.75 0 0 0-3.744-3.748c-2.06 0-3.732 1.68-3.732 3.748M36.437 14.226c-3.22 0-5.459 2.558-5.459 6.213 0 3.654 2.238 6.21 5.459 6.21 3.24 0 5.502-2.556 5.502-6.21 0-3.713-2.216-6.213-5.502-6.213zm0 17.883c-6.814 0-11.758-4.91-11.758-11.67S29.624 8.77 36.437 8.77c6.84 0 11.804 4.909 11.804 11.67 0 6.76-4.965 11.67-11.804 11.67zM90.567 19.855c-.265.499-.568.92-.892 1.256l-.206.218.217.208c.313.33.632.72.94 1.174l6.013 8.938H89.34l-4.517-6.992c-.256-.375-.773-.564-1.546-.564h-1.03v13.22c0 2.643-1.646 3.003-3.426 3.003h-3.046l.005-31.202h6.468v9.36h.606c.737 0 1.239-.086 1.47-.486l3.567-6.735c.997-1.827 1.99-2.14 3.858-2.14h4.957l-3.691 6.107-2.448 4.636M121.965 32.16c-3.29 0-5.39-1.462-6.565-2.698l-.393-.397-.139.54c-.345 1.324-1.51 2.052-3.263 2.052h-2.899l.019-22.536h6.423v10.387c0 1.016.132 1.897.4 2.701.716 2.434 2.71 3.947 5.203 3.947 2.006 0 2.79-1.059 2.79-3.793v-9.815c0-2.334 1.079-3.426 3.414-3.426h3.057l-.01 14.333c0 5.695-2.777 8.705-8.035 8.705M101.627 31.647h-3.045l.021-17.425h-.002V9.116h3.25c.04 0 .074-.005.115-.005l1.513.005h1.507v.008h.01l.014 19.101c0 2.305-1.102 3.422-3.38 3.422M61.669 14.226c-3.22 0-5.463 2.558-5.463 6.213 0 3.654 2.243 6.21 5.463 6.21 3.232 0 5.501-2.556 5.501-6.21 0-3.713-2.215-6.213-5.501-6.213zm0 17.883c-6.82 0-11.766-4.91-11.766-11.67S54.849 8.77 61.669 8.77c6.832 0 11.805 4.909 11.805 11.67 0 6.76-4.973 11.67-11.805 11.67z"/></g></g></g><g transform="matrix(1 0 0 -1 -.7 43.979)"><mask id="f" fill="#fff"><use xlink:href="#e"/></mask><g mask="url(#f)"><mask id="h" fill="#fff"><use xlink:href="#g"/></mask><g mask="url(#h)"><mask id="j" fill="#fff"><use xlink:href="#i"/></mask><g fill="#7C7C7C" fill-rule="nonzero" mask="url(#j)"><path d="M199.364 16.31c-3.219 0-5.463 2.558-5.463 6.213 0 3.654 2.244 6.21 5.463 6.21 3.233 0 5.503-2.556 5.503-6.21 0-3.713-2.216-6.213-5.503-6.213zm0 17.883c-6.819 0-11.765-4.91-11.765-11.67s4.946-11.669 11.765-11.669c6.833 0 11.805 4.908 11.805 11.669s-4.972 11.67-11.805 11.67zM143.548 17.301c-3.512 0-4.762 3.064-4.762 5.936 0 1.265.32 5.388 4.425 5.388 2.04 0 4.758-.585 4.758-5.6 0-4.732-2.406-5.724-4.421-5.724zm7.756 16.49c-1.219 0-2.157-.486-2.627-1.373l-.178-.345-.297.258c-1.037.898-2.896 1.962-5.915 1.962-6.007 0-10.051-4.511-10.051-11.225 0-6.706 4.184-11.392 10.172-11.392 2.045 0 3.66.477 4.942 1.447l.496.372v-.626c0-3.01-1.947-4.67-5.476-4.67-1.715 0-3.276.417-4.32.796-1.362.41-2.16.07-2.714-1.297l-.51-1.261-.72-1.843.446-.238c2.258-1.198 5.198-1.914 7.856-1.914 5.47 0 11.859 2.8 11.859 10.681l.023 20.668h-2.985z"/></g></g></g></g><g transform="matrix(1 0 0 -1 -.7 41.896)"><mask id="l" fill="#fff"><use xlink:href="#k"/></mask><g mask="url(#l)"><mask id="n" fill="#fff"><use xlink:href="#m"/></mask><g fill="#7C7C7C" fill-rule="nonzero" mask="url(#n)"><path d="m12.512 14.485-5.23.005v6.252c0 1.336.519 2.03 1.664 2.19h3.566c2.545 0 4.19-1.605 4.192-4.201-.002-2.666-1.606-4.244-4.192-4.246zM7.282 31.35v1.645c0 1.44.61 2.125 1.947 2.213h2.676c2.295 0 3.67-1.373 3.67-3.67 0-1.753-.941-3.797-3.585-3.797H7.283v3.609zm11.909-6.24-.946.532.826.705c.96.826 2.568 2.68 2.568 5.886 0 4.904-3.804 8.07-9.692 8.07H5.228v.001h-.765a3.28 3.28 0 0 1-3.161-3.24V9.227h3.083l.013-.001 7.682.001c6.545 0 10.77 3.563 10.77 9.08 0 2.972-1.365 5.512-3.66 6.804h.001zM239.86 32.086a8.856 8.856 0 0 1-6.896-3.341l-.466-.59-.365.66c-1.19 2.17-3.237 3.271-6.085 3.271-2.986 0-4.988-1.666-5.919-2.656l-.608-.66-.234.868c-.34 1.248-1.451 1.936-3.135 1.936h-2.7l-.026-22.45h6.135v9.91c0 .868.107 1.727.325 2.625.586 2.395 2.195 4.97 4.9 4.713 1.669-.16 2.484-1.45 2.484-3.94V9.124h6.178v9.91c0 1.085.101 1.897.345 2.711.498 2.286 2.178 4.63 4.788 4.63 1.889 0 2.587-1.07 2.587-3.943V12.406c0-2.268 1.012-3.282 3.278-3.282h2.888l.005 14.331c0 5.725-2.52 8.63-7.48 8.63M184.05 16.92c-.018-.023-2.658-2.807-6.134-2.807-3.166 0-6.365 1.944-6.365 6.28 0 3.745 2.48 6.363 6.03 6.363 1.154 0 2.465-.413 2.67-1.108l.03-.117c.473-1.576 1.904-1.66 2.186-1.66l3.36-.004v2.938c0 3.876-4.928 5.281-8.246 5.281-7.093 0-12.24-4.939-12.24-11.74 0-6.798 5.091-11.73 12.11-11.73 6.09 0 9.403 4.003 9.434 4.043l.176.217-2.661 4.416-.35-.373"/></g></g></g></g></svg>