<svg viewBox="0 0 79.97 113.78" xmlns="http://www.w3.org/2000/svg"><defs><style>.cls-2{fill-rule:evenodd;fill:#d62783}</style></defs><g id="Layer_2" data-name="Layer 2"><g id="Logo"><path d="M0 98.24c0-3.85 2.24-6.08 7.47-6.08a23.78 23.78 0 0 1 5.71.69l-.44 3.44a30.92 30.92 0 0 0-5.14-.54c-2.74 0-3.6.95-3.6 3.19V107c0 2.24.88 3.18 3.62 3.18a30.92 30.92 0 0 0 5.14-.54l.44 3.44a23.78 23.78 0 0 1-5.71.69c-5.23 0-7.47-2.24-7.47-6.08ZM21.69 113.78c-5.26 0-6.68-2.9-6.68-6.05v-3.88c0-3.15 1.42-6.05 6.68-6.05s6.68 2.9 6.68 6.05v3.88c0 3.15-1.37 6.05-6.68 6.05zm0-12.7c-2 0-2.84.91-2.84 2.65v4.13c0 1.73.79 2.65 2.84 2.65s2.84-.91 2.84-2.65v-4.13c0-1.73-.79-2.65-2.84-2.65zM40.06 113.47v-10.72c0-.82-.35-1.23-1.23-1.23a10.61 10.61 0 0 0-4 1.29v10.65H31V98.12h2.93l.38 1.29a15.39 15.39 0 0 1 6.15-1.61c2.55 0 3.47 1.8 3.47 4.54v11.13ZM51.82 113.78a18.08 18.08 0 0 1-5.3-.88l.54-2.93a17.18 17.18 0 0 0 4.57.66c1.7 0 2-.38 2-1.54 0-.95-.19-1.42-2.68-2-3.75-.91-4.19-1.86-4.19-4.82s1.36-4.44 5.74-4.44a20.18 20.18 0 0 1 4.6.54l-.38 3.06a27 27 0 0 0-4.22-.44c-1.67 0-2 .38-2 1.32 0 1.23.09 1.32 2.18 1.86 4.29 1.13 4.7 1.7 4.7 4.85-.01 2.98-.93 4.76-5.56 4.76ZM63.73 98.12v10.72c0 .82.35 1.23 1.23 1.23a10.61 10.61 0 0 0 4-1.29V98.12h3.85v15.35h-2.93l-.38-1.29a15.39 15.39 0 0 1-6.15 1.61c-2.55 0-3.47-1.8-3.47-4.54V98.12ZM76.12 113.47V91.84l3.88-.53v22.16ZM2.93 88.42V86.3H1v2.12H0v-5.09h1v2.13h1.93v-2.13h1v5.09Zm4.62 0h-.79l-.07-.25a2.15 2.15 0 0 1-1.14.32c-.7 0-1-.46-1-1.09s.34-1 1.11-1h.92V86c0-.41-.12-.55-.73-.55a5.56 5.56 0 0 0-1.06.11l-.12-.7A5.18 5.18 0 0 1 6 84.67c1.2 0 1.55.41 1.55 1.33ZM6.59 87h-.71c-.31 0-.4.08-.4.36s.09.37.38.37a1.55 1.55 0 0 0 .72-.19Zm3 1.46a4.68 4.68 0 0 1-1.32-.21l.13-.7a4.45 4.45 0 0 0 1.14.16c.42 0 .49-.09.49-.37s0-.34-.67-.48c-.93-.22-1-.44-1-1.15s.34-1.06 1.43-1.06a5.23 5.23 0 0 1 1.15.13l-.09.73a7 7 0 0 0-1.05-.11c-.42 0-.49.09-.49.32s0 .32.54.44c1.07.27 1.17.41 1.17 1.16s-.32 1.17-1.47 1.17Zm4.38-.08v-2.52c0-.2-.09-.29-.31-.29a2.72 2.72 0 0 0-1 .31v2.55h-1v-5.17l1 .14V85a3.48 3.48 0 0 1 1.4-.35c.64 0 .86.43.86 1.09v2.66Zm1.76-4.19v-.9h1v.9Zm0 4.19v-3.63h1v3.67Zm1.72-3.64c0-.92.56-1.45 1.86-1.45a6.15 6.15 0 0 1 1.42.17l-.11.82a8 8 0 0 0-1.28-.13c-.68 0-.9.23-.9.76v1.93c0 .54.22.76.9.76a8 8 0 0 0 1.28-.13l.11.82a6.15 6.15 0 0 1-1.42.17c-1.3 0-1.86-.54-1.86-1.45Zm5.4 3.72c-1.31 0-1.66-.69-1.66-1.45v-.93c0-.75.35-1.45 1.66-1.45s1.66.69 1.66 1.45V87c-.03.8-.38 1.49-1.69 1.49Zm0-3c-.51 0-.71.22-.71.63v1c0 .41.2.63.71.63s.71-.22.71-.63v-1c-.04-.41-.23-.63-.74-.63Zm4.36.06a7.59 7.59 0 0 0-1 .54v2.37h-1v-3.68H26l.06.41a4.35 4.35 0 0 1 1-.48ZM31 87.2a1.13 1.13 0 0 1-1.26 1.3 5.49 5.49 0 0 1-1-.11v1.5l-1 .14v-5.28h.76l.09.31a2.07 2.07 0 0 1 1.21-.38c.77 0 1.18.44 1.18 1.27Zm-2.28.41a4.41 4.41 0 0 0 .85.1c.35 0 .48-.16.48-.49v-1.3c0-.3-.12-.47-.47-.47a1.38 1.38 0 0 0-.86.33Z"/><path d="M38.56 47a8.35 8.35 0 1 1 8.34-8.4 8.33 8.33 0 0 1-8.34 8.4" style="fill-rule:evenodd;fill:#961d59"/><path class="cls-2" d="M54.81 42.46a3.85 3.85 0 1 1 3.85-3.85 3.84 3.84 0 0 1-3.85 3.85M68.9 46.09a3.69 3.69 0 1 1 .08-.3c0 .1 0 .19-.08.3M66.18 36.17A3.86 3.86 0 1 1 69 31.54a4 4 0 0 1 0 1.51 3.71 3.71 0 0 1-2.9 3.13M79.88 45.67a3.85 3.85 0 1 1-3.13-4.46A3.87 3.87 0 0 1 80 45.32a1 1 0 0 0-.08.34M76.74 36a3.84 3.84 0 1 1 3.16-4.42 4.29 4.29 0 0 1 0 1A3.82 3.82 0 0 1 76.74 36M74.06 59a3.9 3.9 0 1 1 .48-1.58 3.47 3.47 0 0 1-.48 1.58M72.67 23.62a3.86 3.86 0 1 1 1.47-5.26 3.6 3.6 0 0 1 .48 2.23 3.86 3.86 0 0 1-1.94 3"/><path d="M38.71 77.41a38.71 38.71 0 1 1 0-77.41 38.33 38.33 0 0 1 23.5 8l-4.73 6.17a30.91 30.91 0 0 0-49.7 24.54 30.94 30.94 0 0 0 49.71 24.58l4.72 6.18a38.37 38.37 0 0 1-23.5 7.94z" style="fill:#d62783"/></g></g></svg>