<svg width="613.33" height="200" xml:space="preserve" xmlns="http://www.w3.org/2000/svg"><path d="M125.038 33.404a69.598 69.598 0 0 0-17.694-3.293c-7.3 40.262-27.42 68.436-44.867 86.082a173.523 173.523 0 0 1-20.28 17.54 70.176 70.176 0 0 0 5.636 8.628c10.973-6.945 21.032-14.835 28.895-22.326 18.798-17.906 40.482-46.363 48.308-86.631M148.583 77.887a150.354 150.354 0 0 0 9.436-21.731 70.583 70.583 0 0 0-12.35-11.987c-9.611 37.965-32.024 65.35-51.59 83.005-10.995 9.92-23.311 18.726-36.13 25.902a70.641 70.641 0 0 0 5.933 4.584c14.05-6.967 28.869-16.414 42.933-28.5 17.702-15.21 31.756-32.462 41.77-51.273" fill="#239de0"/><path d="M142.636 41.99a69.837 69.837 0 0 0-15.438-7.849c-7.981 40.673-29.9 69.427-48.91 87.534a187.046 187.046 0 0 1-28.952 22.602 70.45 70.45 0 0 0 5.896 6.342 195.616 195.616 0 0 0 36.528-26.01c19.4-17.506 41.654-44.764 50.878-82.618M166.41 81.618a150.508 150.508 0 0 0 2.903-5.459 69.808 69.808 0 0 0-7.938-15.484 155.87 155.87 0 0 1-8.693 19.4c-10.286 19.323-24.701 37.025-42.843 52.615-12.612 10.838-26.746 20.345-41.373 27.874a70.353 70.353 0 0 0 5.855 3.041c15.421-7.112 31.85-17 47.554-29.904 18.854-15.493 33.838-33.016 44.535-52.082M106.27 30.07a67.804 67.804 0 0 0-2.762-.07C64.91 30 33.509 61.402 33.509 100c0 11.84 2.967 22.999 8.18 32.787a172.52 172.52 0 0 0 20.034-17.34c17.31-17.51 37.27-45.45 44.548-85.374" fill="#239de0"/><path d="M125.593 138.219c-13.436 11.04-28.407 20.68-43.839 28.303a69.693 69.693 0 0 0 21.754 3.479c38.596 0 69.998-31.402 69.998-69.998 0-5.446-.645-10.738-1.826-15.828-.058.1-.107.203-.163.305-11.056 19.702-26.506 37.783-45.924 53.74" fill="#239de0"/><path d="M107.344 30.11c-.356-.018-.716-.026-1.074-.038-7.278 39.923-27.238 67.864-44.548 85.374a172.396 172.396 0 0 1-20.034 17.34c.169.316.336.632.51.946a173.523 173.523 0 0 0 20.28-17.54c17.446-17.646 37.566-45.82 44.867-86.082" fill="#fff"/><path d="M127.2 34.137a68.58 68.58 0 0 0-2.162-.733c-7.827 40.268-29.51 68.725-48.308 86.631-7.862 7.49-17.922 15.381-28.895 22.326.49.646.99 1.286 1.502 1.912a187.005 187.005 0 0 0 28.952-22.602c19.01-18.107 40.93-46.86 48.91-87.534" fill="#fff"/><path d="M145.663 44.164a68.866 68.866 0 0 0-3.03-2.18c-9.223 37.854-31.477 65.112-50.877 82.618a195.635 195.635 0 0 1-36.528 26.01 70.575 70.575 0 0 0 2.713 2.458c12.819-7.176 25.136-15.98 36.13-25.902 19.566-17.655 41.98-45.039 51.59-83.004" fill="#fff"/><path d="M152.69 80.074a155.818 155.818 0 0 0 8.693-19.4 71.508 71.508 0 0 0-3.364-4.518 150.348 150.348 0 0 1-9.436 21.731c-10.013 18.81-24.066 36.062-41.77 51.273-14.063 12.085-28.882 21.533-42.932 28.5a70.15 70.15 0 0 0 4.593 2.902c14.626-7.528 28.76-17.035 41.372-27.874 18.142-15.59 32.558-33.292 42.843-52.616" fill="#fff"/><path d="M166.41 81.618c-10.698 19.066-25.682 36.588-44.536 52.081-15.702 12.904-32.132 22.793-47.553 29.905a69.543 69.543 0 0 0 7.427 2.918c15.431-7.624 30.403-17.263 43.839-28.303 19.418-15.957 34.868-34.037 45.924-53.74.056-.102.105-.205.162-.305a69.429 69.429 0 0 0-2.36-8.015c-.931 1.828-1.889 3.65-2.905 5.458" fill="#fff"/><path d="M195.955 101.042c0-15.438 12.958-28.397 28.158-28.397 7.599 0 14.638 3.199 19.758 8.4l-4.24 4.318c-4-4.24-9.518-6.96-15.518-6.96-11.84 0-21.84 10.4-21.84 22.64 0 12.32 10 22.718 21.84 22.718 6 0 11.518-2.718 15.518-6.959l4.24 4.32c-5.12 5.12-12.16 8.4-19.758 8.4-15.2 0-28.158-13.039-28.158-28.478M296.673 101.042c0-12.239-9.92-22.639-21.76-22.639-11.838 0-21.838 10.4-21.838 22.64 0 12.319 10 22.718 21.838 22.718 11.84 0 21.76-10.399 21.76-22.719zm-49.918 0c0-15.438 12.96-28.397 28.158-28.397 15.278 0 28.078 12.96 28.078 28.397 0 15.44-12.8 28.478-28.078 28.478-15.198 0-28.158-13.038-28.158-28.478M312.272 73.604h6.24l34.078 44.718V73.604h6.24v54.958h-6.24l-34.078-44.718v44.718h-6.24V73.604M386.03 79.524h-18.478v-5.92h43.196v5.92H392.27v49.036h-6.24V79.524M462.588 101.042c0-12.239-9.92-22.639-21.758-22.639-11.84 0-21.84 10.4-21.84 22.64 0 12.319 10 22.718 21.84 22.718 11.839 0 21.758-10.399 21.758-22.719zm-49.916 0c0-15.438 12.959-28.397 28.158-28.397 15.279 0 28.077 12.96 28.077 28.397 0 15.44-12.798 28.478-28.077 28.478-15.2 0-28.158-13.038-28.158-28.478M477.548 105.762V73.604h6.24v32.158c0 10.56 6.958 18.08 16.718 18.08s16.72-7.52 16.72-18.08V73.604h6.238v32.158c0 13.92-9.518 23.758-22.958 23.758-13.438 0-22.958-9.839-22.958-23.758M540.506 102.882h14.959c8.958 0 15.04-4.319 15.04-11.679s-6.082-11.678-15.04-11.678h-14.959zm21.357 5.361 14.24 20.318h-7.12l-13.918-19.758h-14.559v19.758h-6.24V73.604h22.319c11.36 0 20.238 7.28 20.238 17.598 0 8.64-6.24 15.2-14.96 17.04" fill="#696566"/></svg>