<svg id="Layer_1" data-name="Layer 1" xmlns="http://www.w3.org/2000/svg" viewBox="0 0 144 218.16"><defs><style>.cls-1{fill:#316be6;}.cls-2{font-size:28.2px;font-family:Raleway-Bold, Raleway;font-weight:700;letter-spacing:0em;}.cls-3{letter-spacing:0em;}.cls-4{letter-spacing:0em;}.cls-5{letter-spacing:-0.01em;}.cls-6{letter-spacing:0em;}.cls-7{letter-spacing:-0.02em;}.cls-8{fill:#fff;}</style></defs><title>Heptio_OS_icons</title><rect class="cls-1" x="5.48" y="5.49" width="133.19" height="133.19"/><text class="cls-2" transform="translate(30.03 205.71)">C<tspan class="cls-3" x="18.75" y="0">o</tspan><tspan class="cls-4" x="35.81" y="0">n</tspan><tspan class="cls-5" x="52.73" y="0">t</tspan><tspan class="cls-6" x="63.28" y="0">ou</tspan><tspan class="cls-7" x="97.88" y="0">r</tspan></text><path class="cls-8" d="M76,5.49h-1a151.76,151.76,0,0,1-42.11,82A162,162,0,0,1,5.45,109.67v1.18a162.47,162.47,0,0,0,28.09-22.7A152.78,152.78,0,0,0,76,5.49Z"/><path class="cls-8" d="M95.24,5.49H93.09C86.66,45.93,65.3,74.23,46.9,91.75A181.11,181.11,0,0,1,5.45,120.86v2.42a172.2,172.2,0,0,0,42.91-30C67.07,75.47,88.79,46.67,95.24,5.49Z"/><path class="cls-8" d="M63.16,98.44C84,79.63,108.32,49,114.52,5.49h-3.27C105.06,47.87,81.35,77.67,61,96,42.66,112.58,22.55,123.9,5.45,130.27v3.49c4.18-1.52,8.48-3.3,12.82-5.34A186.19,186.19,0,0,0,63.16,98.44Z"/><path class="cls-8" d="M78,103.61C95,89,108.47,72.4,118.11,54.28A141.51,141.51,0,0,0,133.76,5.49h-4.4a137.19,137.19,0,0,1-15.1,46.75C104.88,69.87,91.7,86,75.1,100.31c-23.7,20.36-49.69,32.76-69.65,38v.46H18.66q5.36-1.94,10.88-4.38A199.8,199.8,0,0,0,78,103.61Z"/><path class="cls-8" d="M135.77,58.42q1.53-2.74,2.93-5.5V39.72a140.65,140.65,0,0,1-7.72,16C121,73.61,106.91,90,89.23,104.56a203,203,0,0,1-59.58,34.18H44.39A214.84,214.84,0,0,0,92.71,108.8C110.92,93.84,125.4,76.89,135.77,58.42Z"/><path d="M27.3,177.58H21.17V164.13a6.81,6.81,0,0,0-1.05-4.19,3.56,3.56,0,0,0-3-1.35,4.58,4.58,0,0,0-1.74.37,6.49,6.49,0,0,0-1.74,1,9.11,9.11,0,0,0-1.51,1.58,6.31,6.31,0,0,0-1,2v14H5V144.17h6.14V158a9.24,9.24,0,0,1,3.59-3.59,10.13,10.13,0,0,1,5-1.26,7.94,7.94,0,0,1,3.8.8,6,6,0,0,1,2.29,2.13,8.62,8.62,0,0,1,1.14,3,18.17,18.17,0,0,1,.32,3.48Z"/><path d="M42.67,178a13.41,13.41,0,0,1-5.22-1,12,12,0,0,1-4-2.68,11.76,11.76,0,0,1-2.54-3.94,12.48,12.48,0,0,1-.89-4.71,13.35,13.35,0,0,1,.86-4.83,11.73,11.73,0,0,1,2.52-4,12,12,0,0,1,4-2.72,13.33,13.33,0,0,1,5.28-1,13,13,0,0,1,5.24,1,12,12,0,0,1,3.94,2.7,11.49,11.49,0,0,1,2.47,3.93,13.23,13.23,0,0,1,.85,4.67c0,.4,0,.78,0,1.15a4.35,4.35,0,0,1-.11.91H36.53a7.19,7.19,0,0,0,.69,2.52A6.17,6.17,0,0,0,38.64,172a6,6,0,0,0,2,1.19,6.33,6.33,0,0,0,2.29.42,7,7,0,0,0,3.45-.9,4.75,4.75,0,0,0,2.22-2.35l5.26,1.46a10.63,10.63,0,0,1-4.23,4.51A13.17,13.17,0,0,1,42.67,178Zm6.22-14.46a6.41,6.41,0,0,0-2-4.33,6.09,6.09,0,0,0-4.28-1.62,6.32,6.32,0,0,0-2.31.43,6,6,0,0,0-1.9,1.22,6.27,6.27,0,0,0-1.35,1.87,6.65,6.65,0,0,0-.62,2.43Z"/><path d="M72.24,178a9.43,9.43,0,0,1-4.94-1.26,8.93,8.93,0,0,1-3.3-3.41v14H57.87V153.6h5.36v4.12a9.73,9.73,0,0,1,3.43-3.32,9.62,9.62,0,0,1,4.85-1.21,10.31,10.31,0,0,1,4.48,1,11.15,11.15,0,0,1,3.55,2.66,12.23,12.23,0,0,1,2.33,3.93,13.5,13.5,0,0,1,.85,4.79,15,15,0,0,1-.78,4.89,12.57,12.57,0,0,1-2.17,4,10.12,10.12,0,0,1-3.32,2.65A9.27,9.27,0,0,1,72.24,178Zm-2.06-5.22a5.46,5.46,0,0,0,2.54-.59,6.2,6.2,0,0,0,2-1.6A7.36,7.36,0,0,0,76,168.29a8.21,8.21,0,0,0,.46-2.74,7.89,7.89,0,0,0-.5-2.82,7,7,0,0,0-1.4-2.26,6.33,6.33,0,0,0-2.1-1.51,6.26,6.26,0,0,0-2.63-.55,5.74,5.74,0,0,0-1.79.3,6.21,6.21,0,0,0-1.69.84,7.75,7.75,0,0,0-1.4,1.28,5.57,5.57,0,0,0-.94,1.61v5.62a8.11,8.11,0,0,0,2.52,3.41A5.76,5.76,0,0,0,70.18,172.82Z"/><path d="M99.54,176.35a29.2,29.2,0,0,1-3,1.1,12.88,12.88,0,0,1-3.75.55,8.76,8.76,0,0,1-2.4-.32,5.38,5.38,0,0,1-2-1,5,5,0,0,1-1.35-1.83,6.59,6.59,0,0,1-.51-2.73V158.32H83.39V153.6h3.15v-7.78h6.14v7.78h5v4.72h-5V170a2.18,2.18,0,0,0,.66,1.81,2.52,2.52,0,0,0,1.62.53,5.71,5.71,0,0,0,1.88-.32c.61-.22,1.1-.4,1.47-.55Z"/><path d="M103.33,150.26v-6.09h6.13v6.09Zm0,27.32v-24h6.13v24Z"/><path d="M125.66,178a13,13,0,0,1-5.26-1,11.65,11.65,0,0,1-4-2.72,11.84,11.84,0,0,1-2.5-4,12.87,12.87,0,0,1-.87-4.71,13,13,0,0,1,.87-4.76,11.77,11.77,0,0,1,6.46-6.68,13.16,13.16,0,0,1,5.26-1,13,13,0,0,1,5.24,1,11.84,11.84,0,0,1,6.43,6.68,13,13,0,0,1,.87,4.76,12.87,12.87,0,0,1-.87,4.71,12.09,12.09,0,0,1-2.47,4,11.47,11.47,0,0,1-3.94,2.72A13,13,0,0,1,125.66,178Zm-6.27-12.4a8.38,8.38,0,0,0,.48,2.91,7.07,7.07,0,0,0,1.33,2.26,6,6,0,0,0,6.93,1.49,5.92,5.92,0,0,0,2-1.49,7.08,7.08,0,0,0,1.33-2.29,8.54,8.54,0,0,0,.48-2.93,8.45,8.45,0,0,0-.48-2.88,7.18,7.18,0,0,0-1.33-2.29,6.05,6.05,0,0,0-2-1.49,5.85,5.85,0,0,0-2.47-.52,5.55,5.55,0,0,0-2.47.55,6,6,0,0,0-2,1.51,6.9,6.9,0,0,0-1.33,2.29A8.37,8.37,0,0,0,119.39,165.64Z"/></svg>