<?xml version="1.0" encoding="UTF-8" standalone="no"?>
<!-- Created with Inkscape (http://www.inkscape.org/) -->

<svg
   xmlns:dc="http://purl.org/dc/elements/1.1/"
   xmlns:cc="http://creativecommons.org/ns#"
   xmlns:rdf="http://www.w3.org/1999/02/22-rdf-syntax-ns#"
   xmlns:svg="http://www.w3.org/2000/svg"
   xmlns="http://www.w3.org/2000/svg"
   xmlns:sodipodi="http://sodipodi.sourceforge.net/DTD/sodipodi-0.dtd"
   xmlns:inkscape="http://www.inkscape.org/namespaces/inkscape"
   version="1.1"
   id="svg3813"
   xml:space="preserve"
   width="1066.6667"
   height="1066.6667"
   viewBox="0 0 1066.6667 1066.6667"
   sodipodi:docname="Heptio_Project_Icon_Contour.svg"
   inkscape:version="0.92.3 (3ce5693, 2018-03-11)"><metadata
     id="metadata3819"><rdf:RDF><cc:Work
         rdf:about=""><dc:format>image/svg+xml</dc:format><dc:type
           rdf:resource="http://purl.org/dc/dcmitype/StillImage" /><dc:title></dc:title></cc:Work></rdf:RDF></metadata><defs
     id="defs3817"><clipPath
       clipPathUnits="userSpaceOnUse"
       id="clipPath3829"><path
         d="M 0,800 H 800 V 0 H 0 Z"
         id="path3827"
         inkscape:connector-curvature="0" /></clipPath></defs><sodipodi:namedview
     pagecolor="#ffffff"
     bordercolor="#666666"
     borderopacity="1"
     objecttolerance="10"
     gridtolerance="10"
     guidetolerance="10"
     inkscape:pageopacity="0"
     inkscape:pageshadow="2"
     inkscape:window-width="2506"
     inkscape:window-height="1053"
     id="namedview3815"
     showgrid="false"
     inkscape:zoom="0.22124998"
     inkscape:cx="533.33337"
     inkscape:cy="533.33337"
     inkscape:window-x="0"
     inkscape:window-y="27"
     inkscape:window-maximized="1"
     inkscape:current-layer="g3821" /><g
     id="g3821"
     inkscape:groupmode="layer"
     inkscape:label="Heptio_Project_Icon_Contour"
     transform="matrix(1.3333333,0,0,-1.3333333,0,1066.6667)"><g
       id="g3823"><g
         id="g3825"
         clip-path="url(#clipPath3829)"><g
           id="g3831"
           transform="translate(635.165,800)"><path
             d="m 0,0 h -96.091 c -38.756,-247.25 -169.16,-420.147 -281.456,-527.112 -83.811,-79.836 -174.212,-139.566 -257.618,-180.084 v -41.981 c 102.673,38.299 223.394,106.234 333.451,205.551 C -179.521,-433.358 -37.127,-254.414 0,0"
             style="fill:#2c67ea;fill-opacity:1;fill-rule:nonzero;stroke:none"
             id="path3833"
             inkscape:connector-curvature="0" /></g><g
           id="g3835"
           transform="translate(526.1787,800)"><path
             d="m 0,0 h -102.894 c -39.24,-232.932 -154.763,-395.235 -254.658,-496.278 -54.116,-54.739 -111.935,-100.14 -168.627,-136.266 v -60.078 c 94.291,47.55 184.596,113.517 248.847,174.719 C -166.862,-412.676 -38.631,-242.773 0,0"
             style="fill:#2c67ea;fill-opacity:1;fill-rule:nonzero;stroke:none"
             id="path3837"
             inkscape:connector-curvature="0" /></g><g
           id="g3839"
           transform="translate(417.2158,800)"><path
             d="m 0,0 h -417.216 v -625.44 c 55.279,35.554 111.578,79.971 164.372,133.371 C -153.744,-391.83 -39.158,-230.904 0,0"
             style="fill:#2c67ea;fill-opacity:1;fill-rule:nonzero;stroke:none"
             id="path3841"
             inkscape:connector-curvature="0" /></g><g
           id="g3843"
           transform="translate(653.2715,519.3525)"><path
             d="M 0,0 C 47.458,89.164 77.775,183.191 90.637,280.647 H 1.551 C -35.698,19.164 -181.622,-164.47 -306.788,-277.42 c -80.629,-72.761 -173.834,-134.988 -269.542,-179.954 -26.052,-12.24 -51.838,-22.965 -76.941,-32.09 v -27.13 c 119.833,31.284 275.889,105.733 418.168,227.99 C -135.459,-202.984 -56.358,-105.883 0,0"
             style="fill:#2c67ea;fill-opacity:1;fill-rule:nonzero;stroke:none"
             id="path3845"
             inkscape:connector-curvature="0" /></g><g
           id="g3847"
           transform="translate(800,515.2681)"><path
             d="M 0,0 C -5.622,-11.068 -11.482,-22.079 -17.623,-33.022 -79.848,-143.92 -166.816,-245.692 -276.114,-335.507 -364.269,-407.947 -464.132,-469.78 -566.2,-515.268 H 0 Z"
             style="fill:#2c67ea;fill-opacity:1;fill-rule:nonzero;stroke:none"
             id="path3849"
             inkscape:connector-curvature="0" /></g><g
           id="g3851"
           transform="translate(753.667,498.3555)"><path
             d="M 0,0 C 17.692,31.531 33.131,63.608 46.333,96.162 V 301.645 H 16.656 C 3.654,199.869 -27.77,101.708 -77.279,8.694 c -57.894,-108.769 -139.032,-208.413 -241.154,-296.165 -87.482,-75.172 -187.989,-138.998 -290.646,-184.581 -22.038,-9.785 -43.861,-18.548 -65.28,-26.303 h 65.954 c 110.489,39.342 237.884,106.721 357.72,205.197 C -144.558,-205.95 -60.217,-107.317 0,0"
             style="fill:#2c67ea;fill-opacity:1;fill-rule:nonzero;stroke:none"
             id="path3853"
             inkscape:connector-curvature="0" /></g><g
           id="g3855"
           transform="translate(423.2852,800)"><path
             d="m 0,0 h -6.069 c -39.159,-230.904 -153.744,-391.83 -252.844,-492.069 -52.794,-53.4 -109.093,-97.817 -164.372,-133.371 v -7.104 c 56.691,36.126 114.511,81.527 168.627,136.266 C -154.764,-395.235 -39.24,-232.932 0,0"
             style="fill:#ffffff;fill-opacity:1;fill-rule:nonzero;stroke:none"
             id="path3857"
             inkscape:connector-curvature="0" /></g><g
           id="g3859"
           transform="translate(539.0742,800)"><path
             d="m 0,0 h -12.896 c -38.63,-242.773 -166.862,-412.676 -277.332,-517.903 -64.251,-61.202 -154.555,-127.169 -248.846,-174.719 v -14.574 c 83.406,40.518 173.806,100.248 257.618,180.084 C -169.16,-420.147 -38.756,-247.25 0,0"
             style="fill:#ffffff;fill-opacity:1;fill-rule:nonzero;stroke:none"
             id="path3861"
             inkscape:connector-curvature="0" /></g><g
           id="g3863"
           transform="translate(346.4834,241.9326)"><path
             d="M 0,0 C 125.166,112.95 271.09,296.584 308.339,558.067 H 288.682 C 251.555,303.653 109.161,124.709 -13.032,14.441 -123.09,-84.876 -243.811,-152.811 -346.483,-191.109 v -20.935 c 25.103,9.125 50.889,19.85 76.941,32.09 C -173.834,-134.988 -80.629,-72.761 0,0"
             style="fill:#ffffff;fill-opacity:1;fill-rule:nonzero;stroke:none"
             id="path3865"
             inkscape:connector-curvature="0" /></g><g
           id="g3867"
           transform="translate(435.2344,210.8848)"><path
             d="m 0,0 c 102.122,87.752 183.26,187.396 241.153,296.165 49.51,93.014 80.934,191.175 93.936,292.95 H 308.674 C 295.812,491.659 265.495,397.632 218.037,308.468 161.679,202.585 82.578,105.483 -17.065,19.863 -159.345,-102.394 -315.401,-176.842 -435.234,-208.126 v -2.759 h 79.307 c 21.419,7.756 43.242,16.519 65.281,26.304 C -187.989,-138.998 -87.482,-75.172 0,0"
             style="fill:#ffffff;fill-opacity:1;fill-rule:nonzero;stroke:none"
             id="path3869"
             inkscape:connector-curvature="0" /></g><g
           id="g3871"
           transform="translate(782.377,482.2456)"><path
             d="m 0,0 c 6.141,10.943 12.001,21.955 17.623,33.022 v 79.25 C 4.421,79.718 -11.018,47.641 -28.71,16.11 -88.927,-91.208 -173.268,-189.84 -279.395,-277.048 -399.23,-375.524 -526.626,-442.903 -637.115,-482.246 h 88.538 c 102.068,45.489 201.931,107.322 290.086,179.761 C -149.193,-212.669 -62.225,-110.898 0,0"
             style="fill:#ffffff;fill-opacity:1;fill-rule:nonzero;stroke:none"
             id="path3873"
             inkscape:connector-curvature="0" /></g></g></g></g></svg>