<?xml version="1.0" encoding="utf-8"?>
<!-- Generator: Adobe Illustrator 22.1.0, SVG Export Plug-In . SVG Version: 6.00 Build 0)  -->
<svg version="1.1" id="Logo" xmlns="http://www.w3.org/2000/svg" xmlns:xlink="http://www.w3.org/1999/xlink" x="0px" y="0px"
	 viewBox="0 0 320 88" style="enable-background:new 0 0 320 88;" xml:space="preserve">
<style type="text/css">
	.st0{fill:#7C7C7C;}
</style>
<title>Cookpad</title>
<g>
	<path class="st0" d="M272.9,28.3c-3.4,0-6.8,0.6-10.1,1.7c-0.7,0.2-2,0.8-2,0.8l1.7,6l0.3-0.1c0,0,1.1-0.4,1.8-0.5
		c2.4-0.8,4.9-1.3,7.4-1.4c2.3,0,4.1,0.5,5.2,1.4s1.5,2.3,1.6,4.4h-6c-4.4,0-7.9,0.9-10.3,2.8c-2.3,1.7-3.6,4.4-3.5,7.2
		c-0.1,2.6,1,5.1,3,6.8c2,1.6,4.4,2.5,7,2.5h0.4c2.3,0,4.6-0.4,6.7-1.2c0.9-0.4,1.8-0.8,2.6-1.3v2.4h6.8V40.2c0.1-3-1-5.9-3-8.2
		C280.2,29.5,277,28.3,272.9,28.3z M278.7,49.6c-1,1.1-2.1,2-3.4,2.6c-1.3,0.7-2.8,1.1-4.2,1.2c-3.7,0.2-5.8-1-5.8-3.2
		c0-1.2,1.2-2.2,2.4-2.6c1.9-0.5,3.8-0.7,5.8-0.6h5.3V49.6z"/>
	<path class="st0" d="M240.9,28.2c-2.6-0.1-5.2,0.5-7.5,1.7v-1.7h-7.2v40.6h7.2V58.1c2.3,1.2,4.9,1.7,7.5,1.7
		c4.1,0.2,8.2-1.4,11.1-4.4c2.8-3.1,4.3-7.2,4.2-11.4c0.2-4.2-1.4-8.3-4.2-11.4C249.1,29.7,245.1,28.1,240.9,28.2z M249.2,43.9
		c0,3.2-0.9,5.6-2.7,7.2c-0.8,0.7-1.7,1.2-2.7,1.5c-1.9,0.7-4,0.7-5.9,0c-1-0.3-1.9-0.8-2.6-1.5c-0.8-0.8-1.5-1.8-1.9-2.8
		c-0.5-1.4-0.8-2.9-0.8-4.4c0-1.5,0.2-3,0.8-4.4c1.2-3.1,4.2-5.1,7.5-4.9c2-0.1,4,0.7,5.6,2C248.4,38.6,249.4,41.2,249.2,43.9z"/>
	<path class="st0" d="M311.8,19.1v10.8c-2.3-1.2-4.9-1.7-7.5-1.7c-4.1-0.2-8.2,1.4-11.1,4.4c-2.8,3.1-4.3,7.2-4.2,11.4
		c-0.2,4.2,1.3,8.3,4.2,11.4c2.9,3,6.9,4.5,11.1,4.4c2.6,0,5.2-0.5,7.5-1.7v1.7h7.2V19.1H311.8z M311.8,48.4
		c-1.2,3.1-4.2,5.1-7.5,4.9c-2.1,0.1-4-0.7-5.6-2c-1.9-1.9-2.9-4.5-2.7-7.2c0-3.2,0.9-5.6,2.7-7.2c0.8-0.7,1.7-1.2,2.7-1.5
		c1.9-0.7,4-0.7,5.9,0c1,0.3,1.9,0.9,2.6,1.6c0.8,0.8,1.5,1.8,1.9,2.8c0.5,1.4,0.8,2.9,0.8,4.3C312.6,45.5,312.4,47,311.8,48.4z"/>
	<polygon class="st0" points="222.9,33.8 218.4,28.1 202.6,40.5 202.6,19.1 195.4,19.1 195.4,59.8 202.6,59.8 202.6,49.7 
		206.4,46.7 217.7,59.9 223.2,55.2 212.1,42.2 	"/>
	<path class="st0" d="M141.7,28.2c-4.8,0-8.8,1.5-11.6,4.4c-2.9,3.1-4.4,7.2-4.3,11.4c-0.2,4.2,1.4,8.3,4.3,11.4
		c2.8,2.9,6.8,4.4,11.6,4.4s8.8-1.5,11.6-4.4c2.9-3.1,4.4-7.2,4.3-11.4c0.2-4.2-1.4-8.3-4.3-11.4C150.5,29.8,146.5,28.2,141.7,28.2z
		 M150.3,43.9c0,3.2-1,5.6-2.8,7.2c-0.8,0.7-1.7,1.2-2.8,1.6c-1.9,0.7-4.1,0.7-6,0c-1-0.3-1.9-0.9-2.8-1.5c-1.9-1.6-2.8-4.1-2.8-7.2
		c-0.2-2.7,0.9-5.3,2.8-7.1c3.4-2.7,8.2-2.7,11.5,0C149.5,38.6,150.5,41.3,150.3,43.9z"/>
	<path class="st0" d="M175.8,28.2c-4.8,0-8.8,1.5-11.6,4.4c-2.9,3.1-4.4,7.2-4.3,11.4c-0.2,4.2,1.4,8.3,4.3,11.4
		c2.8,2.9,6.8,4.4,11.6,4.4s8.8-1.5,11.6-4.4c2.9-3.1,4.4-7.2,4.3-11.4c0.2-4.2-1.4-8.3-4.3-11.4C184.6,29.8,180.6,28.2,175.8,28.2z
		 M184.4,43.9c0,3.2-1,5.6-2.8,7.2c-0.8,0.7-1.8,1.2-2.8,1.6c-1.9,0.7-4.1,0.7-6,0c-1-0.3-1.9-0.9-2.8-1.5c-1.8-1.6-2.8-4.1-2.8-7.2
		c-0.2-2.7,0.9-5.3,2.8-7.1c3.4-2.7,8.2-2.7,11.5,0C183.6,38.6,184.6,41.3,184.4,43.9z"/>
	<path class="st0" d="M119.7,49c-1.6,1.9-3.8,3.2-6.2,3.8c-0.9,0.2-1.7,0.3-2.6,0.3c-1.7,0-3.5-0.4-4.9-1.4c-1.1-0.8-2.1-1.8-2.8-3
		c-0.7-1.5-1.1-3.1-1.1-4.8c0-1.7,0.4-3.3,1.1-4.8c0.7-1.2,1.6-2.2,2.8-3c1.5-1,3.2-1.4,4.9-1.4c0.9,0,1.8,0.1,2.6,0.3
		c2.4,0.6,4.5,2,6.2,3.8l0.2,0.2l4.6-4.6c-0.9-1-1.8-1.8-2.8-2.6c-3.2-2.4-7.1-3.7-11.1-3.7c-5-0.1-9.8,2.1-12.8,6.1
		c-2,2.8-3,6.2-2.9,9.7c0,3.4,1,6.8,2.9,9.6c3.1,4,7.8,6.2,12.8,6.1c4,0,7.9-1.3,11.1-3.7c1-0.8,2-1.7,2.8-2.6l-4.7-4.6L119.7,49z"
		/>
	<path class="st0" d="M44.4,0.6C44.4,0.6,44.4,0.6,44.4,0.6C20.4,0.6,1,20,1,44s19.4,43.4,43.4,43.4S87.7,68,87.7,44c0,0,0,0,0,0
		C87.7,20,68.3,0.6,44.4,0.6z M44.4,83c-21.5,0-39-17.5-39-39s17.5-39,39-39s39,17.5,39,39S65.9,83,44.4,83z"/>
	<path class="st0" d="M64.5,22.6c-3,0-5.8,1-8.2,2.8c-2.8-6.7-10.5-9.9-17.2-7.1c-2.5,1-4.6,2.8-6,5c-6.6-3-14.5-0.1-17.5,6.5
		c-0.8,1.7-1.2,3.6-1.2,5.6c0,5.6,3.5,10.6,8.8,12.5l-2.5,20.1c-0.1,0.6,0.1,1.2,0.5,1.7c0.4,0.5,1,0.7,1.6,0.7h36
		c1.1,0,2-0.8,2.1-1.9l2.4-19.6c0.4,0,0.8,0.1,1.3,0.1c7.3,0,13.3-6,13.3-13.3S71.8,22.6,64.5,22.6L64.5,22.6z M67.3,27.3
		c4.7,1.5,7.3,6.6,5.8,11.4c-1.2,3.7-4.7,6.2-8.6,6.2l0,0c-0.3,0-0.5,0-0.8,0l0.3-2.4c0.2-1.2-0.7-2.3-1.8-2.4
		c-1.2-0.1-2.2,0.7-2.3,1.9c0,0,0,0,0,0c0,0-0.8,7-1.7,13.6H30.7c-1.2,0-2.2,1-2.2,2.2s1,2.2,2.2,2.2h26.9c-0.4,3-0.7,5.4-0.8,6.4
		H25.1l2.7-21.8h-0.2c-4.9,0-8.9-4-8.9-9c0-4.9,4-8.9,9-8.9c2.7,0,5.3,1.2,6.9,3.3c0.2,0.3,0.5,0.3,0.6-0.1c0.4-5,4.8-8.6,9.8-8.2
		c4.2,0.4,7.5,3.5,8.1,7.7c-0.3,0.6-0.6,1.2-0.9,1.8l3.8,2C57.5,28.3,62.5,25.7,67.3,27.3z"/>
</g>
</svg>
