<?xml version="1.0" encoding="UTF-8" standalone="no"?>
<svg width="447" height="150" xmlns="http://www.w3.org/2000/svg">
  <title>databricks-logo</title>
  <desc>Databricks Official Company Logo</desc>
  <defs></defs>
  <g id="Page-1" stroke="none" stroke-width="1" fill="none" fill-rule="evenodd">
    <g id="databricks-logo" fill="#7C7C7C" fill-rule="nonzero">
      <path d="m439.62268,66.73049c0.14848,-0.36939 0.44544,-0.74239 0.73878,-1.03936c0.29695,-0.29695 0.66995,-0.51786 1.03934,-0.66634c0.373,-0.14847 0.81482,-0.2209 1.26025,-0.2209c0.44543,0 0.89087,0.07243 1.26388,0.2209c0.36938,0.14848 0.73877,0.36939 1.03572,0.66634c0.29696,0.29697 0.52148,0.66997 0.74239,1.03936c0.14848,0.36938 0.29696,0.81481 0.29696,1.33629c0,0.44544 -0.07605,0.88726 -0.29696,1.33269c-0.14847,0.37301 -0.44543,0.7424 -0.74239,1.03935c-0.29695,0.29695 -0.66634,0.51786 -1.03572,0.66634c-0.37301,0.14847 -0.81845,0.22453 -1.26388,0.22453c-0.44543,0 -0.88725,-0.07606 -1.26025,-0.22453c-0.36939,-0.14848 -0.74239,-0.36939 -1.03934,-0.66634c-0.29334,-0.29695 -0.51787,-0.66634 -0.73878,-1.03935c-0.14848,-0.36938 -0.29695,-0.81482 -0.29695,-1.33269c0,-0.52148 0.07242,-0.89086 0.29695,-1.33629m0.51786,2.44807c0.14848,0.36939 0.29696,0.66634 0.59392,0.89087c0.2209,0.22091 0.51786,0.44544 0.89087,0.59392c0.29695,0.14486 0.66634,0.22091 1.11178,0.22091c0.36937,0 0.74239,-0.07605 1.03934,-0.22091c0.29334,-0.14848 0.59029,-0.37301 0.88725,-0.59392c0.22453,-0.22453 0.44543,-0.52148 0.59391,-0.89087c0.14848,-0.36938 0.22452,-0.74239 0.22452,-1.11178c0,-0.373 -0.07604,-0.74239 -0.22452,-1.11176c-0.14848,-0.37302 -0.29696,-0.66997 -0.59391,-0.89087c-0.22091,-0.22453 -0.51786,-0.44544 -0.88725,-0.59392c-0.29695,-0.14847 -0.66997,-0.22452 -1.03934,-0.22452c-0.37302,0 -0.7424,0.07605 -1.11178,0.22452c-0.37301,0.14848 -0.59392,0.36939 -0.89087,0.59392c-0.22453,0.2209 -0.44544,0.51785 -0.59392,0.89087c-0.14847,0.36937 -0.2209,0.73876 -0.2209,1.11176c0,0.36939 0.07243,0.7424 0.2209,1.11178m2.74504,-3.04199c0.44543,0 0.81482,0.07605 1.03935,0.29696c0.22091,0.14848 0.29333,0.44543 0.29333,0.81482c0,0.37301 -0.07242,0.59391 -0.29333,0.74239c-0.22453,0.14848 -0.44543,0.22453 -0.7424,0.29696l1.11178,1.70569l-0.66634,0l-1.03934,-1.62964l-0.66635,0l0,1.62964l-0.52148,0l0,-3.85682l1.48478,0zm-0.29696,1.70569l0.36939,0c0.14847,0 0.22452,0 0.29696,-0.07243c0.07605,-0.07605 0.14848,-0.07605 0.22453,-0.22453c0.07242,-0.07242 0.07242,-0.2209 0.07242,-0.36938c0,-0.14848 0,-0.2209 -0.07242,-0.29696c-0.07605,-0.07242 -0.14849,-0.14847 -0.22453,-0.14847c-0.07244,-0.07244 -0.14849,-0.07244 -0.29696,-0.07244l-1.11178,0l0,1.26026l0.74239,0l0,-0.07605zm0,0" fill="rgb(50%,50%,50%)" fill-rule="nonzero" id="svg_1" stroke="null"/>
      <path d="m1.07242,64.20998l-0.07242,0.07242l0,9.5678l10.1617,5.26554l-10.1617,5.26554l0,9.64384l27.44311,14.31185l2.81746,0l27.4395,-14.31185l0,-9.64384l-10.15808,-5.26554l10.15808,-5.26554l0,-9.5678l-0.07243,-0.07242l-28.7758,-14.76091l-28.77942,14.76091zm0,0" fill="rgb(36%,36%,36%)" fill-rule="nonzero" id="svg_2" stroke="null"/>
      <path d="m29.85184,88.90805l-18.69015,-9.79231l-10.16169,5.26554l28.85184,15.05787l28.84823,-15.05787l-10.15808,-5.26554l-18.69015,9.79231zm0,0" fill="rgb(50%,50%,50%)" fill-rule="nonzero" id="svg_3" stroke="null"/>
      <path d="m1,64.2824l28.85184,15.05787l28.84823,-15.05787l-28.84823,-14.83333l-28.85184,14.83333zm0,0" fill="rgb(50%,50%,50%)" fill-rule="nonzero" id="svg_4" stroke="null"/>
      <path d="m99.93718,69.54795l0.22452,0c0,0 -0.22452,-2.52051 -0.22452,-2.81746l0,-19.9504l-6.00794,0l0,-5.11707l12.24039,0l0,56.81283l5.71098,0l0,5.11707l-10.45865,0l-0.89088,-5.78703l-0.29695,0c0,0 -3.85681,6.37732 -13.20007,6.37732c-10.23413,0 -17.94776,-6.89518 -17.94776,-20.02283c0,-12.83069 8.30391,-19.9504 18.02018,-19.9504c9.86475,0.07242 12.8307,5.33797 12.8307,5.33797m0,22.99239l0,-17.42989c-1.11178,-1.62964 -4.37468,-5.5625 -11.64287,-5.5625c-6.22884,0 -13.05522,4.5992 -13.05522,14.68485c0,10.08928 6.15642,14.76091 13.12765,14.76091c4.67525,0 9.41931,-2.22717 11.57044,-6.45337" fill="rgb(50%,50%,50%)" fill-rule="nonzero" id="svg_5" stroke="null"/>
      <path d="m143.69479,97.13954c0,0 -3.41138,7.04367 -14.75729,7.04367c-8.01058,0 -13.34855,-4.74406 -13.34855,-11.19743c0,-7.19577 6.82275,-10.97652 17.72322,-10.97652l9.79232,0l0,-3.2629c0,-6.67428 -3.85681,-9.49536 -10.90409,-9.49536c-6.75033,0 -10.16171,3.26652 -10.16171,7.56513l0,0.81845l-5.71098,0l0,-1.93021c0,-5.63494 4.97222,-11.57044 16.02116,-11.57044c10.45866,0 16.98446,4.67525 16.98446,14.7609l0,19.43254l4.67163,0l0,5.11706l-9.27083,0l-0.74239,-6.45337l-0.29695,0l0,0.14848zm-0.66634,-10.60714l-9.41932,0c-6.82276,0 -11.93982,2.00265 -11.93982,6.45338c0,3.85681 3.55986,6.30489 8.52844,6.30489c8.97388,0 12.83069,-6.75033 12.83069,-6.75033l0,-6.00794l0.00001,0zm0,0" fill="rgb(50%,50%,50%)" fill-rule="nonzero" id="svg_6" stroke="null"/>
      <path d="m166.83565,54.49371l0,10.38261l12.31282,0l0,4.96858l-12.31282,0l0,20.91732c0,5.48645 2.44808,8.15544 6.45337,8.15544c4.30225,0 6.97123,-1.26026 6.97123,-1.26026l0,5.26555c0,0 -3.19046,1.33631 -8.01057,1.33631c-7.4891,0 -11.71892,-4.30226 -11.71892,-13.12765l0,-21.28671l-5.93189,0l0,-4.96858l5.93189,0l1.1154,-10.38261l5.18949,0zm0,0" fill="rgb(50%,50%,50%)" fill-rule="nonzero" id="svg_7" stroke="null"/>
      <path d="m212.07804,97.13954c0,0 -3.41137,7.04367 -14.75728,7.04367c-8.01058,0 -13.35218,-4.74406 -13.35218,-11.19743c0,-7.19577 6.82276,-10.97652 17.72686,-10.97652l9.78869,0l0,-3.2629c0,-6.67428 -3.85682,-9.49536 -10.90047,-9.49536c-6.75033,0 -10.16171,3.26652 -10.16171,7.56513l0,0.81845l-5.71098,0l0,-1.93021c0,-5.63494 4.96859,-11.57044 16.02116,-11.57044c10.45504,0 16.98447,4.67525 16.98447,14.7609l0,19.43254l4.67162,0l0,5.11706l-9.41931,0l-0.74239,-6.45337l-0.14848,0l0,0.14848zm-0.66634,-10.60714l-9.41931,0c-6.82276,0 -11.94344,2.00265 -11.94344,6.45338c0,3.85681 3.56348,6.30489 8.53206,6.30489c8.97388,0 12.83069,-6.75033 12.83069,-6.75033l0,-6.00794zm0,0" fill="rgb(50%,50%,50%)" fill-rule="nonzero" id="svg_8" stroke="null"/>
      <path d="m233.73413,97.80589l-0.96329,5.78703l-4.74769,0l0,-56.81283l-5.71097,0l0,-5.11706l11.94344,0l0,25.06746c0,0.29695 -0.22453,2.81746 -0.22453,2.81746l0.22453,0c0,0 3.4838,-5.33797 12.97916,-5.33797c9.64022,0 17.94775,7.11971 17.94775,19.9504c0,13.12765 -7.71362,20.02283 -17.87532,20.02283c-9.41931,0 -13.27613,-6.37732 -13.27613,-6.37732l-0.29695,0zm0.52148,-22.76786l0,17.42989c2.07508,4.22619 6.89519,6.44974 11.64286,6.44974c6.89881,0 13.0516,-4.74406 13.0516,-14.75728c0,-10.16171 -6.74671,-14.68485 -12.97916,-14.68485c-7.11972,0 -10.53109,3.8568 -11.7153,5.5625" fill="rgb(50%,50%,50%)" fill-rule="nonzero" id="svg_9" stroke="null"/>
      <path d="m295.51554,70.58729c-0.89086,-0.29695 -2.44808,-0.5939 -4.37468,-0.5939c-9.64383,0 -11.64648,11.498 -11.64648,11.498l0,17.05689l6.3049,0l0,5.11706l-18.31715,0l0,-5.11706l5.71098,0l0,-28.55489l-5.71098,0l0,-5.11707l10.45505,0l0.5939,9.86474l0.22453,0c0,0 1.92659,-10.45866 12.45769,-10.45866c1.78173,0 3.26289,0.22453 4.22981,0.44544l0,5.85945l0.07243,0zm0,0" fill="rgb(50%,50%,50%)" fill-rule="nonzero" id="svg_10" stroke="null"/>
      <path d="m313.16634,98.47585l5.5625,0l0,5.11707l-17.50232,0l0,-5.11707l5.71098,0l0,-28.48246l-5.71098,0l0,-5.11707l11.93982,0l0,33.59953zm-3.41137,-40.64681c-2.66899,0 -4.82011,-2.1475 -4.82011,-4.96859c0,-2.66899 2.15112,-4.82011 4.82011,-4.82011c2.74503,0 4.96858,2.15112 4.96858,4.82011c0,2.82109 -2.22355,4.96859 -4.96858,4.96859" fill="rgb(50%,50%,50%)" fill-rule="nonzero" id="svg_11" stroke="null"/>
      <path d="m326.81547,84.2328c0,10.16171 6.5258,14.76091 13.94247,14.76091c9.0463,0 12.6822,-4.22619 12.6822,-4.22619l2.15113,4.52314c0,0 -4.30225,4.9686 -15.27877,4.9686c-11.57043,0 -19.72949,-7.11972 -19.72949,-20.02646c0,-13.49703 7.41667,-19.9504 19.28406,-19.9504c12.16434,0 16.53902,6.67428 16.53902,13.87004l0,2.07507l-5.71097,0l0,-1.26025c0,-5.7834 -3.33534,-9.49174 -10.90048,-9.49174c-7.71362,0 -12.97917,3.92924 -12.97917,14.75728" fill="rgb(50%,50%,50%)" fill-rule="nonzero" id="svg_12" stroke="null"/>
      <path d="m370.87003,81.04595l9.64022,0l9.27084,-11.20105l-4.82011,0l0,-4.96858l17.57837,0l0,4.96858l-6.00794,0l-11.27347,13.72156l11.86739,15.1303l5.93188,0l0,4.96858l-9.41931,0l-13.64551,-17.72684l-9.12236,0l0,12.53735l5.5625,0l0,5.18949l-17.65441,0l0,-5.18949l5.85946,0l0,-51.69576l-5.85946,0l0,-5.11706l12.09191,0l0,39.38292zm0,0" fill="rgb(50%,50%,50%)" fill-rule="nonzero" id="svg_13" stroke="null"/>
      <path d="m411.6617,91.05918l0,0.88725c0,4.00529 3.33533,7.1197 10.38261,7.1197c7.11971,0 10.31019,-2.29959 10.31019,-6.15278c0,-4.0053 -5.11707,-5.34159 -10.75563,-6.3049c-6.97123,-1.26025 -14.75727,-3.04199 -14.75727,-11.498c0,-6.67428 6.30126,-10.90047 14.97819,-10.90047c11.498,0 15.72419,4.74406 15.72419,10.60352l0,2.82108l-5.7834,0l0,-1.70569c0,-4.15377 -2.74504,-6.60185 -9.64384,-6.60185c-4.52315,0 -9.0463,1.85417 -9.0463,5.93189c0,4.5992 5.48644,5.41402 11.125,6.45336c7.34061,1.40874 14.3879,3.63591 14.3879,11.27349c0,6.22884 -4.67164,11.19743 -16.31812,11.19743c-11.93982,0 -16.39054,-5.33798 -16.39054,-10.82805l0,-2.44446l5.78702,0l0,0.14849l0,-0.00001zm0,0" fill="rgb(50%,50%,50%)" fill-rule="nonzero" id="svg_14" stroke="null"/>
    </g>
  </g>
</svg>
