<?xml version="1.0" encoding="utf-8"?>
<!-- Generator: Adobe Illustrator 23.0.2, SVG Export Plug-In . SVG Version: 6.00 Build 0)  -->
<svg version="1.1" id="Layer_1" xmlns="http://www.w3.org/2000/svg" xmlns:xlink="http://www.w3.org/1999/xlink" x="0px" y="0px"
	 viewBox="0 0 730 174" style="enable-background:new 0 0 730 174;" xml:space="preserve">
<style type="text/css">
	.st0{fill:#6E6E6E;}
</style>
<path class="st0" d="M12.72,106.09l20.52,0c7.65,0,14.32-1.19,20.02-3.58c5.69-2.39,10.4-5.52,14.13-9.39
	c3.73-3.87,6.53-8.29,8.4-13.26c1.87-4.97,2.8-10.09,2.8-15.34c0-5.26-0.93-10.37-2.8-15.34c-1.87-4.97-4.66-9.39-8.39-13.26
	c-3.73-3.87-8.44-7-14.13-9.39c-5.69-2.39-12.37-3.58-20.02-3.58l-20.52,0L12.72,106.09L12.72,106.09z M2.39,13.74l33.72,0
	c6.31,0,12.65,1.05,19.01,3.15c6.36,2.1,12.1,5.28,17.22,9.54c5.12,4.25,9.25,9.56,12.41,15.92c3.16,6.36,4.74,13.74,4.74,22.15
	c0,8.51-1.58,15.92-4.74,22.23c-3.16,6.31-7.3,11.59-12.41,15.84c-5.12,4.25-10.86,7.43-17.22,9.54c-6.36,2.1-12.7,3.15-19.01,3.15
	l-33.72,0L2.39,13.74L2.39,13.74z"/>
<polygon class="st0" points="129.59,106.09 183.98,106.09 183.98,115.26 119.26,115.26 119.26,13.74 182.25,13.74 182.25,22.92 
	129.59,22.92 129.59,57.91 178.81,57.91 178.81,66.94 129.59,66.94 129.59,106.09 "/>
<path class="st0" d="M296.05,98.92c-1.72,2.58-3.8,5.02-6.24,7.31c-2.44,2.29-5.26,4.3-8.47,6.02c-3.21,1.72-6.74,3.08-10.62,4.09
	c-3.88,1-8.11,1.51-12.7,1.51c-7.66,0-14.73-1.34-21.24-4.02c-6.51-2.67-12.1-6.38-16.79-11.11c-4.69-4.73-8.35-10.35-10.98-16.85
	c-2.63-6.5-3.95-13.62-3.95-21.37c0-7.74,1.34-14.86,4.02-21.37c2.68-6.5,6.39-12.12,11.12-16.85c4.74-4.73,10.33-8.44,16.79-11.11
	c6.46-2.67,13.47-4.02,21.02-4.02c3.73,0,7.39,0.38,10.98,1.15c3.59,0.77,6.96,1.84,10.12,3.23c3.16,1.39,6.03,3.06,8.61,5.02
	c2.58,1.96,4.74,4.18,6.46,6.67l-8.61,6.31c-1.05-1.62-2.47-3.25-4.23-4.88c-1.77-1.62-3.85-3.06-6.24-4.3
	c-2.39-1.24-5-2.25-7.82-3.01c-2.82-0.76-5.86-1.15-9.11-1.15c-6.6,0-12.51,1.2-17.72,3.58c-5.21,2.39-9.64,5.62-13.27,9.68
	c-3.64,4.06-6.41,8.77-8.32,14.12c-1.91,5.36-2.87,10.99-2.87,16.92c0,5.93,0.98,11.57,2.94,16.92c1.96,5.35,4.76,10.06,8.39,14.12
	c3.64,4.06,8.06,7.29,13.27,9.68c5.21,2.39,11.07,3.58,17.58,3.58c5.83,0,11.38-1.19,16.65-3.58c5.26-2.39,9.66-6.21,13.2-11.47
	L296.05,98.92L296.05,98.92z"/>
<polygon class="st0" points="331.74,115.26 321.41,115.26 321.41,13.74 331.74,13.74 331.74,115.26 "/>
<path class="st0" d="M377.7,59.34l17.51,0c8.13,0,14.3-1.58,18.51-4.73c4.21-3.15,6.31-7.74,6.31-13.77
	c0-6.31-2.18-10.92-6.53-13.84c-4.35-2.92-10.45-4.37-18.3-4.37l-17.51,0L377.7,59.34L377.7,59.34z M367.37,13.74l28.7,0
	c5.17,0,9.85,0.55,14.06,1.65c4.21,1.1,7.82,2.77,10.83,5.02c3.01,2.25,5.33,5.07,6.96,8.46c1.63,3.39,2.44,7.38,2.44,11.97
	c0,4.59-0.84,8.58-2.51,11.97c-1.67,3.39-4.02,6.21-7.03,8.46c-3.01,2.25-6.65,3.94-10.91,5.09c-4.26,1.15-8.97,1.72-14.14,1.72
	l-18.08,0l0,47.18h-10.33L367.37,13.74L367.37,13.74z"/>
<polygon class="st0" points="456.83,13.74 467.16,13.74 467.16,57.76 522.56,57.76 522.56,13.74 532.89,13.74 532.89,115.26 
	522.56,115.26 522.56,67.23 467.16,67.23 467.16,115.26 456.83,115.26 456.83,13.74 "/>
<polygon class="st0" points="578.82,106.09 633.21,106.09 633.21,115.26 568.49,115.26 568.49,13.74 631.49,13.74 631.49,22.92 
	578.82,22.92 578.82,57.91 628.05,57.91 628.05,66.94 578.82,66.94 578.82,106.09 "/>
<path class="st0" d="M670.36,58.91l17.94,0c8.32,0,14.73-1.51,19.23-4.52c4.5-3.01,6.74-7.53,6.74-13.55c0-3.35-0.62-6.17-1.87-8.46
	c-1.24-2.29-2.96-4.16-5.17-5.59c-2.2-1.43-4.88-2.48-8.03-3.15c-3.16-0.67-6.65-1-10.48-1l-18.37,0L670.36,58.91L670.36,58.91z
	 M670.36,115.26h-10.33l0-101.52l29.85,0c4.97,0,9.59,0.48,13.85,1.43c4.26,0.96,7.94,2.51,11.05,4.66
	c3.11,2.15,5.52,4.95,7.25,8.39c1.72,3.44,2.58,7.65,2.58,12.62c0,3.73-0.67,7.12-2.01,10.18c-1.34,3.06-3.16,5.71-5.45,7.96
	c-2.3,2.25-5.02,4.04-8.18,5.38c-3.16,1.34-6.6,2.2-10.33,2.58l29.71,48.32l-12.63,0L687.58,67.8l-17.22,0L670.36,115.26
	L670.36,115.26z"/>
<polygon class="st0" points="142.59,145.31 137.82,145.31 137.82,142.89 150.13,142.89 150.13,145.31 145.36,145.31 145.36,158.44 
	142.59,158.44 142.59,145.31 "/>
<polygon class="st0" points="163.75,142.89 174.05,142.89 174.05,145.31 166.52,145.31 166.52,149.26 173.66,149.26 173.66,151.59 
	166.52,151.59 166.52,155.98 174.45,155.98 174.45,158.44 163.75,158.44 163.75,142.89 "/>
<path class="st0" d="M199.92,146.54c-0.41-0.56-0.95-0.96-1.6-1.22c-0.66-0.26-1.3-0.38-1.93-0.38c-0.81,0-1.54,0.15-2.2,0.44
	c-0.66,0.29-1.23,0.7-1.7,1.21c-0.48,0.51-0.84,1.11-1.1,1.8c-0.26,0.69-0.38,1.43-0.38,2.24c0,0.85,0.12,1.62,0.37,2.33
	c0.25,0.7,0.6,1.31,1.07,1.81c0.46,0.51,1.01,0.9,1.66,1.17c0.65,0.28,1.37,0.42,2.18,0.42c0.83,0,1.57-0.16,2.22-0.49
	c0.64-0.33,1.17-0.76,1.56-1.31l2.22,1.56c-0.69,0.86-1.53,1.53-2.53,2.01c-1,0.47-2.16,0.71-3.49,0.71c-1.22,0-2.33-0.2-3.35-0.6
	c-1.02-0.4-1.89-0.97-2.63-1.69c-0.73-0.72-1.3-1.59-1.71-2.59c-0.41-1-0.61-2.11-0.61-3.33c0-1.24,0.22-2.37,0.65-3.37
	c0.43-1,1.03-1.86,1.78-2.56c0.75-0.7,1.64-1.24,2.67-1.62c1.03-0.38,2.14-0.57,3.34-0.57c0.5,0,1.02,0.05,1.56,0.14
	c0.54,0.09,1.06,0.24,1.56,0.44c0.5,0.2,0.97,0.44,1.41,0.74c0.44,0.29,0.81,0.64,1.12,1.05L199.92,146.54L199.92,146.54z"/>
<polygon class="st0" points="215.86,142.89 218.63,142.89 218.63,149.17 225.91,149.17 225.91,142.89 228.67,142.89 228.67,158.44 
	225.91,158.44 225.91,151.55 218.63,151.55 218.63,158.44 215.86,158.44 215.86,142.89 "/>
<polygon class="st0" points="243.97,142.89 247.64,142.89 254.87,154.53 254.91,154.53 254.91,142.89 257.68,142.89 257.68,158.44 
	254.17,158.44 246.78,146.43 246.74,146.43 246.74,158.44 243.97,158.44 243.97,142.89 "/>
<path class="st0" d="M275.22,150.62c0,0.83,0.13,1.6,0.38,2.29c0.26,0.7,0.62,1.3,1.1,1.81c0.48,0.51,1.04,0.91,1.69,1.2
	c0.65,0.29,1.37,0.43,2.16,0.43s1.52-0.14,2.18-0.43c0.66-0.29,1.23-0.68,1.7-1.2c0.48-0.51,0.84-1.12,1.1-1.81
	c0.26-0.69,0.38-1.46,0.38-2.29c0-0.81-0.13-1.55-0.38-2.24c-0.26-0.69-0.62-1.29-1.09-1.8c-0.47-0.51-1.03-0.91-1.69-1.21
	c-0.66-0.29-1.39-0.44-2.2-0.44c-0.81,0-1.53,0.15-2.19,0.44c-0.65,0.29-1.21,0.7-1.68,1.21c-0.47,0.51-0.83,1.11-1.09,1.8
	C275.35,149.07,275.22,149.82,275.22,150.62L275.22,150.62z M272.21,150.62c0-1.24,0.21-2.37,0.63-3.37c0.42-1,1-1.86,1.74-2.56
	c0.74-0.7,1.62-1.24,2.64-1.62c1.02-0.38,2.13-0.57,3.33-0.57c1.22,0,2.34,0.19,3.36,0.57c1.03,0.38,1.91,0.92,2.66,1.62
	c0.75,0.7,1.33,1.56,1.75,2.56c0.42,1,0.63,2.13,0.63,3.37c0,1.21-0.21,2.32-0.63,3.33c-0.42,1-1,1.87-1.75,2.59
	c-0.75,0.72-1.63,1.29-2.66,1.69c-1.03,0.4-2.15,0.6-3.36,0.6c-1.2,0-2.31-0.2-3.33-0.6c-1.02-0.4-1.9-0.97-2.64-1.69
	c-0.74-0.72-1.32-1.59-1.74-2.59C272.42,152.95,272.21,151.84,272.21,150.62L272.21,150.62z"/>
<polygon class="st0" points="303.43,142.89 306.2,142.89 306.2,155.98 312.81,155.98 312.81,158.44 303.43,158.44 303.43,142.89 "/>
<path class="st0" d="M328.32,150.62c0,0.83,0.13,1.6,0.38,2.29c0.26,0.7,0.62,1.3,1.1,1.81c0.48,0.51,1.04,0.91,1.69,1.2
	c0.65,0.29,1.37,0.43,2.16,0.43c0.79,0,1.52-0.14,2.18-0.43c0.66-0.29,1.23-0.68,1.7-1.2c0.48-0.51,0.84-1.12,1.1-1.81
	c0.26-0.69,0.38-1.46,0.38-2.29c0-0.81-0.13-1.55-0.38-2.24c-0.26-0.69-0.62-1.29-1.09-1.8c-0.47-0.51-1.03-0.91-1.69-1.21
	c-0.66-0.29-1.39-0.44-2.2-0.44c-0.81,0-1.53,0.15-2.19,0.44c-0.65,0.29-1.21,0.7-1.68,1.21c-0.47,0.51-0.83,1.11-1.09,1.8
	C328.45,149.07,328.32,149.82,328.32,150.62L328.32,150.62z M325.31,150.62c0-1.24,0.21-2.37,0.63-3.37c0.42-1,1-1.86,1.74-2.56
	c0.74-0.7,1.62-1.24,2.64-1.62c1.02-0.38,2.13-0.57,3.33-0.57c1.22,0,2.34,0.19,3.36,0.57c1.03,0.38,1.91,0.92,2.66,1.62
	c0.75,0.7,1.33,1.56,1.75,2.56c0.42,1,0.63,2.13,0.63,3.37c0,1.21-0.21,2.32-0.63,3.33c-0.42,1-1,1.87-1.75,2.59
	c-0.75,0.72-1.63,1.29-2.66,1.69c-1.03,0.4-2.15,0.6-3.36,0.6c-1.2,0-2.31-0.2-3.33-0.6c-1.02-0.4-1.9-0.97-2.64-1.69
	c-0.74-0.72-1.32-1.59-1.74-2.59C325.52,152.95,325.31,151.84,325.31,150.62L325.31,150.62z"/>
<path class="st0" d="M370.1,157.63c-0.79,0.38-1.66,0.68-2.6,0.89c-0.94,0.21-2.03,0.32-3.26,0.32c-1.26,0-2.41-0.2-3.45-0.6
	c-1.04-0.4-1.93-0.97-2.68-1.69c-0.75-0.72-1.33-1.59-1.75-2.59c-0.42-1-0.63-2.11-0.63-3.33c0-1.24,0.22-2.37,0.65-3.37
	c0.43-1,1.03-1.86,1.78-2.56c0.75-0.7,1.64-1.24,2.67-1.62c1.03-0.38,2.14-0.57,3.34-0.57c1.24,0,2.38,0.18,3.42,0.54
	c1.03,0.36,1.87,0.83,2.49,1.42l-1.91,2.06c-0.4-0.44-0.95-0.81-1.66-1.12c-0.71-0.31-1.48-0.46-2.32-0.46
	c-0.82,0-1.56,0.15-2.23,0.44c-0.67,0.29-1.24,0.7-1.7,1.21c-0.47,0.51-0.83,1.11-1.09,1.8c-0.26,0.69-0.38,1.43-0.38,2.24
	c0,0.83,0.13,1.6,0.38,2.29c0.26,0.7,0.62,1.3,1.1,1.81c0.48,0.51,1.05,0.91,1.74,1.2c0.68,0.29,1.45,0.43,2.32,0.43
	c1.19,0,2.22-0.18,3.1-0.55v-3.95h-3.27v-2.28h5.95L370.1,157.63L370.1,157.63z"/>
<polygon class="st0" points="388.92,151.7 383.07,142.9 386.46,142.9 390.37,149.44 394.32,142.9 397.53,142.9 391.69,151.7 
	391.69,158.44 388.92,158.44 388.92,151.7 "/>
<path class="st0" d="M435.98,146.14c-0.29-0.38-0.71-0.7-1.24-0.96c-0.54-0.26-1.07-0.38-1.62-0.38c-0.32,0-0.64,0.04-0.97,0.12
	c-0.32,0.08-0.61,0.2-0.88,0.37c-0.26,0.17-0.48,0.39-0.65,0.66c-0.17,0.27-0.25,0.6-0.25,0.98c0,0.35,0.07,0.65,0.22,0.9
	c0.15,0.25,0.35,0.46,0.6,0.64c0.26,0.18,0.57,0.33,0.93,0.46c0.37,0.13,0.77,0.26,1.21,0.39c0.5,0.16,1.01,0.34,1.55,0.55
	c0.53,0.2,1.03,0.48,1.47,0.81c0.45,0.34,0.81,0.76,1.1,1.27c0.29,0.51,0.43,1.15,0.43,1.91c0,0.83-0.15,1.56-0.46,2.18
	c-0.31,0.62-0.72,1.14-1.23,1.55c-0.51,0.41-1.11,0.72-1.8,0.92c-0.69,0.2-1.41,0.31-2.17,0.31c-1.01,0-2-0.19-2.97-0.56
	c-0.97-0.37-1.76-0.93-2.37-1.66l1.98-1.84c0.38,0.53,0.89,0.94,1.53,1.25c0.64,0.31,1.26,0.46,1.88,0.46
	c0.32,0,0.65-0.04,0.99-0.12c0.34-0.08,0.64-0.22,0.91-0.41c0.27-0.19,0.49-0.43,0.66-0.71c0.17-0.29,0.25-0.64,0.25-1.06
	c0-0.41-0.09-0.75-0.29-1.02c-0.19-0.27-0.45-0.5-0.77-0.7c-0.32-0.2-0.7-0.37-1.14-0.52c-0.44-0.15-0.9-0.3-1.38-0.46
	c-0.47-0.15-0.94-0.32-1.41-0.53c-0.47-0.2-0.89-0.48-1.26-0.81c-0.37-0.34-0.68-0.75-0.91-1.24c-0.23-0.49-0.35-1.1-0.35-1.83
	c0-0.79,0.16-1.47,0.5-2.04c0.33-0.57,0.76-1.04,1.3-1.42c0.53-0.37,1.14-0.65,1.82-0.83c0.68-0.18,1.37-0.27,2.08-0.27
	c0.79,0,1.59,0.14,2.41,0.42c0.81,0.28,1.52,0.7,2.12,1.25L435.98,146.14L435.98,146.14z"/>
<polygon class="st0" points="455.91,145.31 451.14,145.31 451.14,142.9 463.44,142.9 463.44,145.31 458.68,145.31 458.68,158.44 
	455.91,158.44 455.91,145.31 "/>
<path class="st0" d="M489.53,152.73c0,0.94-0.16,1.78-0.48,2.54c-0.32,0.75-0.76,1.39-1.32,1.92c-0.56,0.53-1.22,0.93-1.98,1.22
	c-0.76,0.29-1.59,0.43-2.48,0.43c-0.89,0-1.72-0.14-2.48-0.43c-0.76-0.28-1.42-0.69-1.99-1.22c-0.56-0.53-1-1.17-1.32-1.92
	c-0.31-0.75-0.47-1.6-0.47-2.54l0-9.84h2.77l0,9.73c0,0.45,0.06,0.9,0.18,1.35c0.12,0.45,0.31,0.85,0.58,1.2
	c0.27,0.35,0.63,0.64,1.08,0.86c0.45,0.22,1,0.33,1.66,0.33s1.21-0.11,1.66-0.33c0.45-0.22,0.81-0.5,1.08-0.86
	c0.27-0.35,0.46-0.75,0.58-1.2c0.12-0.45,0.18-0.9,0.18-1.35l0-9.73h2.77L489.53,152.73L489.53,152.73z"/>
<path class="st0" d="M509.8,156.02c0.72,0,1.43-0.08,2.15-0.25c0.72-0.17,1.37-0.45,1.95-0.86c0.58-0.4,1.05-0.95,1.42-1.64
	c0.37-0.69,0.55-1.56,0.55-2.61c0-1.11-0.18-2.02-0.55-2.72c-0.37-0.7-0.84-1.25-1.42-1.65c-0.58-0.4-1.23-0.67-1.95-0.81
	c-0.72-0.15-1.44-0.22-2.15-0.22h-2.31l0,10.76H509.8L509.8,156.02z M504.72,142.9h5.52c1.01,0,2.03,0.13,3.05,0.4
	c1.03,0.26,1.95,0.7,2.77,1.31c0.82,0.61,1.49,1.41,2,2.39c0.51,0.99,0.77,2.21,0.77,3.68c0,1.36-0.26,2.53-0.77,3.51
	c-0.51,0.98-1.18,1.79-2,2.42c-0.82,0.63-1.74,1.09-2.77,1.39c-1.03,0.3-2.04,0.45-3.05,0.45h-5.52L504.72,142.9L504.72,142.9z"/>
<polygon class="st0" points="533.34,142.9 536.11,142.9 536.11,158.44 533.34,158.44 533.34,142.9 "/>
<path class="st0" d="M553.65,150.62c0,0.83,0.13,1.6,0.38,2.29c0.26,0.7,0.62,1.3,1.1,1.81c0.47,0.51,1.04,0.91,1.69,1.2
	c0.65,0.29,1.37,0.43,2.16,0.43c0.79,0,1.52-0.14,2.18-0.43c0.66-0.29,1.23-0.68,1.7-1.2c0.48-0.51,0.84-1.12,1.1-1.81
	c0.26-0.69,0.38-1.46,0.38-2.29c0-0.81-0.13-1.55-0.38-2.24c-0.26-0.69-0.62-1.29-1.09-1.8c-0.47-0.51-1.03-0.91-1.69-1.21
	c-0.66-0.29-1.39-0.44-2.2-0.44c-0.81,0-1.53,0.15-2.19,0.44c-0.65,0.29-1.21,0.7-1.68,1.21c-0.47,0.51-0.83,1.11-1.09,1.8
	C553.78,149.07,553.65,149.82,553.65,150.62L553.65,150.62z M550.64,150.62c0-1.24,0.21-2.37,0.63-3.37c0.42-1,1-1.86,1.74-2.56
	c0.74-0.7,1.62-1.24,2.64-1.62s2.13-0.57,3.33-0.57c1.22,0,2.34,0.19,3.36,0.57c1.03,0.38,1.91,0.92,2.66,1.62
	c0.75,0.7,1.33,1.56,1.75,2.56c0.42,1,0.63,2.13,0.63,3.37c0,1.21-0.21,2.32-0.63,3.33c-0.42,1-1,1.87-1.75,2.59
	c-0.75,0.72-1.63,1.29-2.66,1.69c-1.03,0.4-2.15,0.6-3.36,0.6c-1.2,0-2.31-0.2-3.33-0.6c-1.02-0.4-1.9-0.97-2.64-1.69
	c-0.74-0.72-1.32-1.59-1.74-2.59C550.85,152.95,550.64,151.84,550.64,150.62L550.64,150.62z"/>
<path class="st0" d="M589.53,146.14c-0.29-0.38-0.71-0.7-1.24-0.96c-0.54-0.26-1.07-0.38-1.61-0.38c-0.32,0-0.65,0.04-0.97,0.12
	c-0.32,0.08-0.61,0.2-0.88,0.37c-0.26,0.17-0.48,0.39-0.65,0.66c-0.17,0.27-0.25,0.6-0.25,0.98c0,0.35,0.07,0.65,0.22,0.9
	c0.15,0.25,0.35,0.46,0.6,0.64c0.26,0.18,0.57,0.33,0.93,0.46c0.37,0.13,0.77,0.26,1.21,0.39c0.5,0.16,1.01,0.34,1.55,0.55
	c0.53,0.2,1.03,0.48,1.47,0.81c0.45,0.34,0.81,0.76,1.1,1.27c0.29,0.51,0.43,1.15,0.43,1.91c0,0.83-0.15,1.56-0.46,2.18
	c-0.31,0.62-0.72,1.14-1.23,1.55c-0.51,0.41-1.11,0.72-1.8,0.92c-0.69,0.2-1.41,0.31-2.18,0.31c-1.01,0-2-0.19-2.97-0.56
	c-0.97-0.37-1.76-0.93-2.37-1.66l1.98-1.84c0.38,0.53,0.89,0.94,1.53,1.25c0.64,0.31,1.26,0.46,1.88,0.46
	c0.32,0,0.65-0.04,0.99-0.12c0.34-0.08,0.64-0.22,0.91-0.41c0.27-0.19,0.49-0.43,0.66-0.71c0.17-0.29,0.25-0.64,0.25-1.06
	c0-0.41-0.09-0.75-0.29-1.02c-0.19-0.27-0.45-0.5-0.77-0.7c-0.32-0.2-0.7-0.37-1.14-0.52c-0.44-0.15-0.9-0.3-1.38-0.46
	c-0.47-0.15-0.94-0.32-1.41-0.53c-0.47-0.2-0.89-0.48-1.26-0.81c-0.37-0.34-0.68-0.75-0.91-1.24c-0.23-0.49-0.35-1.1-0.35-1.83
	c0-0.79,0.16-1.47,0.49-2.04c0.33-0.57,0.76-1.04,1.3-1.42c0.53-0.37,1.14-0.65,1.82-0.83c0.68-0.18,1.37-0.27,2.08-0.27
	c0.79,0,1.59,0.14,2.41,0.42c0.81,0.28,1.52,0.7,2.12,1.25L589.53,146.14L589.53,146.14z"/>
</svg>
