<?xml version="1.0" encoding="UTF-8"?>
<svg width="200px" height="149px" viewBox="0 0 200 149" version="1.1" xmlns="http://www.w3.org/2000/svg" xmlns:xlink="http://www.w3.org/1999/xlink">
    <!-- Generator: Sketch 51.1 (57501) - http://www.bohemiancoding.com/sketch -->
    <title>digital-ocean</title>
    <desc>Created with Sketch.</desc>
    <defs></defs>
    <g id="Page-1" stroke="none" stroke-width="1" fill="none" fill-rule="evenodd">
        <g id="digital-ocean" fill="#7B7B7B">
            <g id="XMLID_690_" transform="translate(49.717514, 0.000000)">
                <g id="XMLID_691_">
                    <g id="XMLID_44_">
                        <g id="XMLID_48_" fill-rule="nonzero">
                            <path d="M50.2824859,99.7175141 L50.2824859,80.3954802 C70.7344633,80.3954802 86.6101695,60.1129944 78.7570621,38.5875706 C75.8757062,30.6779661 69.4915254,24.2937853 61.5254237,21.4124294 C40,13.6158192 19.7175141,29.4350282 19.7175141,49.8870056 C19.7175141,49.8870056 19.7175141,49.8870056 19.7175141,49.8870056 L0.451977401,49.8870056 C0.451977401,17.2881356 31.9774011,-8.13559322 66.1581921,2.54237288 C81.0734463,7.23163842 92.9943503,19.0960452 97.6271186,34.0112994 C108.305085,68.1920904 82.8813559,99.7175141 50.2824859,99.7175141 Z" id="XMLID_49_"></path>
                        </g>
                        <polygon id="XMLID_47_" points="50.3389831 80.5084746 31.0734463 80.5084746 31.0734463 61.2429379 50.3389831 61.2429379"></polygon>
                        <polygon id="XMLID_46_" points="16.3276836 95.2542373 16.3276836 80.5084746 31.0734463 80.5084746 31.0734463 95.2542373"></polygon>
                        <path d="M16.3276836,80.5084746 L3.95480226,80.5084746 C3.95480226,80.5084746 3.95480226,80.5084746 3.95480226,80.5084746 L3.95480226,68.1355932 C3.95480226,68.1355932 3.95480226,68.1355932 3.95480226,68.1355932 L16.3276836,68.1355932 C16.3276836,68.1355932 16.3276836,68.1355932 16.3276836,68.1355932 L16.3276836,80.5084746 Z" id="XMLID_45_"></path>
                    </g>
                </g>
            </g>
            <g id="XMLID_234_" transform="translate(0.000000, 115.819209)" fill-rule="nonzero">
                <path d="M17.6271186,3.44632768 C15.1412429,1.69491525 11.9774011,0.847457627 8.36158192,0.847457627 L0.451977401,0.847457627 L0.451977401,25.9887006 L8.4180791,25.9887006 C12.0338983,25.9887006 15.1977401,25.0847458 17.6836158,23.220339 C19.039548,22.259887 20.1129944,20.9039548 20.9039548,19.2090395 C21.6384181,17.5141243 22.0338983,15.480226 22.0338983,13.2768362 C22.0338983,11.0734463 21.6384181,9.0960452 20.9039548,7.40112994 C20.1129944,5.70621469 19.039548,4.35028249 17.6271186,3.44632768 Z M5.08474576,5.08474576 L7.57062147,5.08474576 C10.3389831,5.08474576 12.5988701,5.64971751 14.3502825,6.72316384 C16.2711864,7.90960452 17.2316384,10.1129944 17.2316384,13.2768362 C17.2316384,16.5536723 16.2711864,18.8700565 14.3502825,20.1129944 C12.7118644,21.1864407 10.4519774,21.7514124 7.62711864,21.7514124 L5.08474576,21.7514124 L5.08474576,5.08474576 Z" id="XMLID_677_"></path>
                <path d="M27.5141243,0.508474576 C26.7231638,0.508474576 26.1016949,0.790960452 25.5367232,1.29943503 C25.0282486,1.8079096 24.7457627,2.42937853 24.7457627,3.22033898 C24.7457627,4.01129944 25.0282486,4.63276836 25.5367232,5.19774011 C26.0451977,5.70621469 26.7231638,5.98870056 27.5141243,5.98870056 C28.2485876,5.98870056 28.9265537,5.70621469 29.4915254,5.19774011 C30,4.68926554 30.2824859,4.01129944 30.2824859,3.22033898 C30.2824859,2.42937853 30,1.8079096 29.4915254,1.29943503 C28.9265537,0.790960452 28.2485876,0.508474576 27.5141243,0.508474576 Z" id="XMLID_676_"></path>
                <rect id="XMLID_675_" x="25.2542373" y="8.24858757" width="4.46327684" height="17.740113"></rect>
                <path d="M45.9322034,9.71751412 C44.5762712,8.53107345 43.1073446,7.79661017 41.4689266,7.79661017 C38.9830508,7.79661017 36.9491525,8.6440678 35.3672316,10.3389831 C33.7853107,11.9774011 32.9378531,14.1242938 32.9378531,16.7231638 C32.9378531,19.2090395 33.7288136,21.3559322 35.3107345,23.0508475 C36.8926554,24.6892655 38.9830508,25.5367232 41.4124294,25.5367232 C43.1073446,25.5367232 44.6327684,25.0847458 45.819209,24.1242938 L45.819209,24.519774 C45.819209,25.9887006 45.4237288,27.1186441 44.6327684,27.9096045 C43.8418079,28.700565 42.7683616,29.0960452 41.4124294,29.0960452 C39.3785311,29.0960452 38.079096,28.3050847 36.4971751,26.1581921 L33.4463277,29.0960452 L33.5028249,29.2090395 C34.180791,30.1129944 35.1412429,31.0169492 36.4971751,31.8644068 C37.7966102,32.7118644 39.4915254,33.1638418 41.4689266,33.1638418 C44.1242938,33.1638418 46.2711864,32.3728814 47.8531073,30.7344633 C49.4350282,29.0960452 50.2259887,26.9491525 50.2259887,24.2937853 L50.2259887,8.1920904 L45.819209,8.1920904 L45.819209,9.71751412 L45.9322034,9.71751412 Z M44.7457627,20.2259887 C43.9548023,21.1299435 42.9378531,21.5254237 41.6949153,21.5254237 C40.3954802,21.5254237 39.4350282,21.0734463 38.6440678,20.2259887 C37.8531073,19.3220339 37.5141243,18.1920904 37.5141243,16.779661 C37.5141243,15.3107345 37.9096045,14.180791 38.6440678,13.2768362 C39.3785311,12.3728814 40.4519774,11.9774011 41.6949153,11.9774011 C42.9943503,11.9774011 43.9548023,12.4293785 44.7457627,13.2768362 C45.5367232,14.180791 45.9322034,15.3672316 45.9322034,16.779661 C45.9322034,18.1920904 45.5367232,19.3220339 44.7457627,20.2259887 Z" id="XMLID_670_"></path>
                <rect id="XMLID_668_" x="54.1242938" y="8.24858757" width="4.46327684" height="17.740113"></rect>
                <path d="M56.3841808,0.508474576 C55.5932203,0.508474576 54.9717514,0.790960452 54.4067797,1.29943503 C53.8983051,1.8079096 53.6158192,2.42937853 53.6158192,3.22033898 C53.6158192,4.01129944 53.8983051,4.63276836 54.4067797,5.19774011 C54.9152542,5.70621469 55.5932203,5.98870056 56.3841808,5.98870056 C57.1186441,5.98870056 57.7966102,5.70621469 58.3615819,5.19774011 C58.8700565,4.68926554 59.1525424,4.01129944 59.1525424,3.22033898 C59.1525424,2.42937853 58.8700565,1.8079096 58.3615819,1.29943503 C57.7966102,0.790960452 57.1751412,0.508474576 56.3841808,0.508474576 Z" id="XMLID_660_"></path>
                <path d="M68.3615819,3.44632768 L63.9548023,3.44632768 L63.9548023,8.24858757 L61.4124294,8.24858757 L61.4124294,12.3163842 L63.9548023,12.3163842 L63.9548023,19.6610169 C63.9548023,21.9774011 64.4067797,23.6158192 65.3107345,24.5762712 C66.2146893,25.5367232 67.8531073,25.9887006 70.1129944,25.9887006 C70.8474576,25.9887006 71.5819209,25.9887006 72.259887,25.9322034 L72.4858757,25.9322034 L72.4858757,21.8644068 L70.960452,21.920904 C69.8870056,21.920904 69.2090395,21.7514124 68.8700565,21.3559322 C68.5310734,20.960452 68.3615819,20.1694915 68.3615819,18.9830508 L68.3615819,12.259887 L72.5423729,12.259887 L72.5423729,8.1920904 L68.3615819,8.1920904 L68.3615819,3.44632768 Z" id="XMLID_652_"></path>
                <rect id="XMLID_642_" x="93.4463277" y="0.790960452" width="4.46327684" height="25.1977401"></rect>
                <path d="M142.99435,19.6610169 C142.20339,20.5649718 141.355932,21.3559322 140.734463,21.7514124 C140.112994,22.1468927 139.322034,22.3728814 138.418079,22.3728814 C137.118644,22.3728814 136.045198,21.920904 135.19774,20.9039548 C134.350282,19.9435028 133.898305,18.6440678 133.898305,17.1751412 C133.898305,15.6497175 134.350282,14.4067797 135.19774,13.4463277 C136.045198,12.4858757 137.118644,11.9774011 138.418079,11.9774011 C139.830508,11.9774011 141.355932,12.8813559 142.655367,14.4067797 L145.59322,11.5819209 C143.672316,9.0960452 141.242938,7.90960452 138.305085,7.90960452 C135.875706,7.90960452 133.728814,8.81355932 131.977401,10.5649718 C130.225989,12.3163842 129.378531,14.519774 129.378531,17.1751412 C129.378531,19.8305085 130.282486,22.0338983 131.977401,23.7853107 C133.728814,25.5367232 135.819209,26.440678 138.305085,26.440678 C141.525424,26.440678 144.124294,25.0282486 145.932203,22.4858757 L142.99435,19.6610169 Z" id="XMLID_448_"></path>
                <path d="M161.355932,10.7344633 C160.734463,9.83050847 159.887006,9.15254237 158.813559,8.6440678 C157.740113,8.13559322 156.497175,7.85310734 155.141243,7.85310734 C152.655367,7.85310734 150.621469,8.75706215 149.096045,10.5649718 C147.627119,12.3728814 146.836158,14.5762712 146.836158,17.2316384 C146.836158,19.9435028 147.683616,22.1468927 149.265537,23.8418079 C150.903955,25.5367232 153.050847,26.3841808 155.706215,26.3841808 C158.700565,26.3841808 161.186441,25.1412429 163.050847,22.7683616 L163.163842,22.6553672 L160.225989,19.8305085 C159.943503,20.1694915 159.548023,20.5084746 159.20904,20.8474576 C158.757062,21.2429379 158.361582,21.5819209 157.909605,21.8079096 C157.231638,22.1468927 156.497175,22.3163842 155.649718,22.3163842 C154.40678,22.3163842 153.389831,21.9774011 152.59887,21.2429379 C151.864407,20.5649718 151.412429,19.6610169 151.299435,18.5310734 L163.107345,18.5310734 L163.163842,16.8926554 C163.163842,15.7627119 162.99435,14.6327684 162.711864,13.6158192 C162.429379,12.5988701 161.977401,11.6384181 161.355932,10.7344633 Z M151.581921,14.9152542 C151.80791,14.0677966 152.20339,13.3333333 152.768362,12.8248588 C153.389831,12.2033898 154.180791,11.920904 155.084746,11.920904 C156.158192,11.920904 157.00565,12.2033898 157.570621,12.8248588 C158.079096,13.3898305 158.418079,14.0677966 158.474576,14.9152542 L151.581921,14.9152542 Z" id="XMLID_445_"></path>
                <path d="M178.474576,9.60451977 C177.118644,8.47457627 175.254237,7.85310734 172.937853,7.85310734 C171.468927,7.85310734 170.056497,8.1920904 168.813559,8.81355932 C167.627119,9.37853107 166.497175,10.3954802 165.762712,11.6384181 L165.819209,11.6949153 L168.700565,14.4067797 C169.887006,12.5423729 171.186441,11.8644068 172.937853,11.8644068 C173.898305,11.8644068 174.632768,12.0903955 175.254237,12.5988701 C175.819209,13.1073446 176.158192,13.7288136 176.158192,14.519774 L176.158192,15.3672316 C175.028249,15.0282486 173.954802,14.8587571 172.881356,14.8587571 C170.677966,14.8587571 168.870056,15.3672316 167.514124,16.3841808 C166.158192,17.4011299 165.480226,18.9265537 165.480226,20.8474576 C165.480226,22.5423729 166.045198,23.8418079 167.231638,24.8587571 C168.418079,25.819209 169.830508,26.3276836 171.525424,26.3276836 C173.220339,26.3276836 174.80226,25.6497175 176.271186,24.4632768 L176.271186,25.9322034 L180.677966,25.9322034 L180.677966,14.519774 C180.508475,12.4293785 179.830508,10.7344633 178.474576,9.60451977 Z M170.564972,19.2090395 C171.073446,18.8700565 171.80791,18.700565 172.711864,18.700565 C173.785311,18.700565 174.915254,18.9265537 176.101695,19.3220339 L176.101695,21.0734463 C175.141243,21.9774011 173.841808,22.4293785 172.259887,22.4293785 C171.468927,22.4293785 170.903955,22.259887 170.451977,21.920904 C170.056497,21.5819209 169.830508,21.1864407 169.830508,20.6214689 C169.830508,20 170.056497,19.5480226 170.564972,19.2090395 Z" id="XMLID_442_"></path>
                <path d="M197.683616,9.94350282 C196.440678,8.53107345 194.689266,7.85310734 192.485876,7.85310734 C190.734463,7.85310734 189.265537,8.36158192 188.19209,9.37853107 L188.19209,8.30508475 L183.841808,8.30508475 L183.841808,25.9887006 L188.305085,25.9887006 L188.305085,16.2146893 C188.305085,14.8587571 188.644068,13.7853107 189.265537,13.0508475 C189.887006,12.3163842 190.734463,11.920904 191.920904,11.920904 C192.937853,11.920904 193.672316,12.259887 194.237288,12.9378531 C194.80226,13.6158192 195.084746,14.5762712 195.084746,15.7062147 L195.084746,25.9887006 L199.548023,25.9887006 L199.548023,15.7062147 C199.548023,13.2768362 198.926554,11.299435 197.683616,9.94350282 Z" id="XMLID_393_"></path>
                <path d="M87.8531073,9.60451977 C86.4971751,8.47457627 84.6327684,7.85310734 82.3163842,7.85310734 C80.8474576,7.85310734 79.4350282,8.1920904 78.1920904,8.81355932 C77.0056497,9.37853107 75.8757062,10.3954802 75.1412429,11.6384181 L75.1977401,11.6949153 L78.079096,14.4067797 C79.2655367,12.5423729 80.5649718,11.8644068 82.3163842,11.8644068 C83.2768362,11.8644068 84.0112994,12.0903955 84.6327684,12.5988701 C85.1977401,13.1073446 85.5367232,13.7288136 85.5367232,14.519774 L85.5367232,15.3672316 C84.4067797,15.0282486 83.3333333,14.8587571 82.259887,14.8587571 C80.0564972,14.8587571 78.2485876,15.3672316 76.8926554,16.3841808 C75.5367232,17.4011299 74.8587571,18.9265537 74.8587571,20.8474576 C74.8587571,22.5423729 75.4237288,23.8418079 76.6101695,24.8587571 C77.7966102,25.819209 79.2090395,26.3276836 80.9039548,26.3276836 C82.5988701,26.3276836 84.180791,25.6497175 85.6497175,24.4632768 L85.6497175,25.9322034 L90.0564972,25.9322034 L90.0564972,14.519774 C89.8870056,12.4293785 89.2090395,10.7344633 87.8531073,9.60451977 Z M79.9435028,19.2090395 C80.4519774,18.8700565 81.1864407,18.700565 82.0903955,18.700565 C83.1638418,18.700565 84.2937853,18.9265537 85.480226,19.3220339 L85.480226,21.0734463 C84.519774,21.9774011 83.220339,22.4293785 81.6384181,22.4293785 C80.8474576,22.4293785 80.2824859,22.259887 79.8305085,21.920904 C79.4350282,21.5819209 79.2090395,21.1864407 79.2090395,20.6214689 C79.2090395,20 79.4350282,19.5480226 79.9435028,19.2090395 Z" id="XMLID_320_"></path>
                <path d="M114.124294,26.3841808 C106.949153,26.3841808 101.129944,20.5649718 101.129944,13.3898305 C101.129944,6.21468927 106.949153,0.395480226 114.124294,0.395480226 C121.299435,0.395480226 127.118644,6.21468927 127.118644,13.3898305 C127.118644,20.5649718 121.299435,26.3841808 114.124294,26.3841808 Z M114.124294,4.97175141 C109.491525,4.97175141 105.706215,8.75706215 105.706215,13.3898305 C105.706215,18.0225989 109.491525,21.8079096 114.124294,21.8079096 C118.757062,21.8079096 122.542373,18.0225989 122.542373,13.3898305 C122.542373,8.75706215 118.757062,4.97175141 114.124294,4.97175141 Z" id="XMLID_235_"></path>
            </g>
        </g>
    </g>
</svg>