<?xml version="1.0" encoding="utf-8"?>
<svg version="1.1" id="Layer_1" xmlns="http://www.w3.org/2000/svg" xmlns:xlink="http://www.w3.org/1999/xlink" x="0px" y="0px"
	 width="324px" height="63.8px" viewBox="0 0 324 63.8" style="enable-background:new 0 0 324 63.8;" xml:space="preserve">
<style type="text/css">
	.st0{fill:#7D7D7D;}
</style>
<path class="st0" d="M37.6,12L18.8,24l18.8,12L18.8,48L0,35.9l18.8-12L0,12L18.8,0L37.6,12z M18.7,51.8l18.8-12l18.8,12l-18.8,12
	L18.7,51.8z M37.6,35.9l18.8-12L37.6,12L56.3,0l18.8,12L56.3,24l18.8,12L56.3,48L37.6,35.9z"/>
<path class="st0" d="M89.8,12H105c9.7,0,17.7,5.6,17.7,18.4v2.7c0,12.9-7.5,18.7-17.4,18.7H89.8V12z M98.3,19.2v25.3h6.5c5.5,0,9.2-3.6,9.2-11.6
	v-2.1c0-8-3.9-11.6-9.5-11.6H98.3z M127.2,19.6h6.8l1.1,7.5c1.3-5.1,4.6-7.8,10.6-7.8h2.1v8.6h-3.5c-6.9,0-8.6,2.4-8.6,9.2v14.8
	h-8.4V19.6H127.2z M149.5,36.4v-0.9c0-10.8,6.9-16.7,16.3-16.7c9.6,0,16.3,5.9,16.3,16.7v0.9c0,10.6-6.5,16.3-16.3,16.3
	C155.4,52.6,149.5,47,149.5,36.4z M173.5,36.3v-0.8c0-6-3-9.6-7.8-9.6c-4.7,0-7.8,3.3-7.8,9.6v0.8c0,5.8,3,9.1,7.8,9.1
	C170.5,45.3,173.5,42.1,173.5,36.3z M186.5,19.6h7l0.8,6.1c1.7-4.1,5.3-6.9,10.6-6.9c8.2,0,13.6,5.9,13.6,16.8v0.9
	c0,10.6-6,16.2-13.6,16.2c-5.1,0-8.6-2.3-10.3-6V63h-8.2L186.5,19.6L186.5,19.6z M210,36.3v-0.7c0-6.4-3.3-9.6-7.7-9.6
	c-4.7,0-7.8,3.6-7.8,9.6v0.6c0,5.7,3,9.3,7.7,9.3C207,45.4,210,42.3,210,36.3z M230.9,45.9l-0.7,5.9H223v-43h8.2v16.5
	c1.8-4.2,5.4-6.5,10.5-6.5c7.7,0.1,13.4,5.4,13.4,16.1v1c0,10.7-5.4,16.8-13.6,16.8C236.1,52.6,232.6,50.1,230.9,45.9z M246.5,35.9
	v-0.8c0-5.9-3.2-9.2-7.7-9.2c-4.6,0-7.8,3.7-7.8,9.3v0.7c0,6,3.1,9.5,7.7,9.5C243.6,45.4,246.5,42.3,246.5,35.9z M258.7,36.4v-0.9
	c0-10.8,6.9-16.7,16.3-16.7c9.6,0,16.3,5.9,16.3,16.7v0.9c0,10.6-6.6,16.3-16.3,16.3C264.6,52.6,258.7,47,258.7,36.4z M282.8,36.3
	v-0.8c0-6-3-9.6-7.8-9.6c-4.7,0-7.8,3.3-7.8,9.6v0.8c0,5.8,3,9.1,7.8,9.1C279.8,45.3,282.8,42.1,282.8,36.3z M302.3,35.1L291,19.6
	h9.7l6.5,9.7l6.6-9.7h9.6L311.9,35L324,51.8h-9.5l-7.4-10.7l-7.2,10.7H290L302.3,35.1z"/>
</svg>
