<svg width="110" height="44" xmlns="http://www.w3.org/2000/svg"><g fill="#222" fill-rule="nonzero" opacity=".597"><path d="M14.251 9.567C6.498 9.567.036 12.829.036 22.67c0 7.797 4.345 12.707 14.414 12.707 11.853 0 12.613-7.743 12.613-7.743H21.32s-1.231 4.17-7.22 4.17c-4.877 0-8.385-3.269-8.385-7.848h21.949v-2.874c0-4.531-2.9-11.516-13.413-11.516zm-.2 3.673c4.642 0 7.807 2.82 7.807 7.048H5.842c0-4.488 4.132-7.048 8.208-7.048z"/><path d="M27.661.036v30.4c0 1.725-.124 4.148-.124 4.148h5.477s.197-1.74.197-3.33c0 0 2.707 4.199 10.065 4.199 7.75 0 13.013-5.336 13.013-12.98 0-7.112-4.835-12.831-13-12.831-7.647 0-10.023 4.094-10.023 4.094V.036h-5.605zm14.214 13.365c5.262 0 8.609 3.874 8.609 9.072 0 5.573-3.865 9.22-8.571 9.22-5.617 0-8.647-4.35-8.647-9.17 0-4.493 2.719-9.122 8.609-9.122z"/><path d="M69.903 9.567c-11.664 0-12.412 6.334-12.412 7.346h5.806s.304-3.698 6.206-3.698c3.835 0 6.807 1.741 6.807 5.088v1.191h-6.807c-9.037 0-13.814 2.622-13.814 7.942 0 5.236 4.414 8.085 10.379 8.085 8.13 0 10.748-4.455 10.748-4.455 0 1.772.138 3.518.138 3.518h5.16s-.2-2.164-.2-3.549V19.066c0-7.848-6.382-9.5-12.011-9.5zm6.406 13.5v1.59c0 2.07-1.289 7.222-8.877 7.222-4.156 0-5.937-2.057-5.937-4.443 0-4.34 6-4.368 14.815-4.368z"/><path d="M78.789 10.56h6.531l9.374 18.625 9.356-18.625h5.91L92.928 43.718h-6.206l4.915-9.243z"/></g></svg>