<svg id="Layer_1" data-name="Layer 1" viewBox="0 0 430.39 154.14" xmlns="http://www.w3.org/2000/svg"><defs><style>.cls-3{fill:#010101}.cls-4{fill:#4a0d66}</style></defs><path transform="translate(0 -11.21)" d="M148.45 121.65a11 11 0 0 1-5.3 8.81L79.52 164.2a12.7 12.7 0 0 1-10.6 0L5.3 130.46a11 11 0 0 1-5.3-8.81V54.92a11 11 0 0 1 5.3-8.81l63.62-33.74a12.7 12.7 0 0 1 10.6 0l63.62 33.74a11 11 0 0 1 5.3 8.81Z" style="fill:#b31aab"/><path id="Fill-5" transform="translate(0 -11.21)" d="m29.07 105.82 61.6-77.09c1.37 2.66 0 4.17-.53 5.76-5.6 15.09-11.11 30.28-17 45.27-1.44 3.8-.82 4.7 3.24 4.7h39.65c1.07 0 2.51-.53 3.16.63s-.73 2-1.36 2.93L67.36 153.7c-.8 1.07-1.6 2.66-3.07 1.87s-.53-2.4 0-3.73c3.89-14 7.6-27.88 11.64-41.81 1-3.28 0-4-3-3.91H35.22Z" style="fill:#fff"/><path class="cls-3" transform="translate(0 -11.21)" d="M166.65 118.37c0-6.94 3.29-14.51 12.31-14.51s12.31 7.58 12.31 14.51S188 132.88 179 132.88s-12.35-7.55-12.35-14.51zm19.64 0c0-4.61-1.88-9.9-7.34-9.9s-7.34 5.57-7.34 9.9c0 4.57 1.88 9.9 7.34 9.9s7.38-5.61 7.38-9.9zM197.12 104.34h11.67c7 0 9.42 4.41 9.42 8.7 0 4-2.67 8.74-9.42 8.74h-6.86v10.62h-4.81Zm16.12 8.7a3.88 3.88 0 0 0-4.21-4.13h-7.1v8.3H209a3.93 3.93 0 0 0 4.21-4.17ZM222.61 104.34h18.29v4.53h-13.47v6.78h8.3v4.53h-8.3v7.7h14.35v4.53h-19.17zM247.19 104.34h12.43c7 0 9.22 4.13 9.22 8.54a8.22 8.22 0 0 1-5.77 8l5.61 11.51h-5.35l-5.41-11h-5.85v11h-4.81Zm12.51 12.51c3.13 0 4.17-1.92 4.17-4s-.88-4-4.17-4H252v7.94ZM290.33 126.27h-11.11L277 132.4h-5.09l10.46-28.06h4.77l10.42 28.06h-5.05Zm-4.61-12.75a23.56 23.56 0 0 1-.92-2.85c-.24.84-.64 2-.92 2.85l-3.13 8.42h8ZM309.64 132.4h-4.81v-23.45h-8v-4.61h20.85v4.61h-8zM320.33 118.37c0-6.94 3.29-14.51 12.31-14.51s12.31 7.58 12.31 14.51-3.23 14.51-12.32 14.51-12.3-7.55-12.3-14.51zm19.64 0c0-4.61-1.88-9.9-7.34-9.9s-7.34 5.57-7.34 9.9c0 4.57 1.88 9.9 7.34 9.9s7.32-5.61 7.32-9.9zM350.75 104.34h12.43c7 0 9.22 4.13 9.22 8.54a8.22 8.22 0 0 1-5.77 8l5.61 11.51h-5.35l-5.41-11h-5.85v11h-4.81Zm12.51 12.51c3.13 0 4.17-1.92 4.17-4s-.88-4-4.17-4h-7.7v7.94Z"/><path class="cls-4" transform="translate(0 -11.21)" d="M173 74.19a12.85 12.85 0 0 0 1.46 6.11 15.2 15.2 0 0 0 3.84 4.7 17.71 17.71 0 0 0 5.52 3 19.73 19.73 0 0 0 6.49 1.08 14.52 14.52 0 0 0 7.9-2.11 25.47 25.47 0 0 0 6.17-5.57l7.36 5.63q-8.11 10.49-22.72 10.49a28.26 28.26 0 0 1-11-2.05 23.87 23.87 0 0 1-8.33-5.68 25.18 25.18 0 0 1-5.25-8.54 30.19 30.19 0 0 1-1.84-10.66 28 28 0 0 1 2-10.65 26.43 26.43 0 0 1 5.52-8.54 25.18 25.18 0 0 1 8.38-5.68 27 27 0 0 1 10.6-2.05 25.33 25.33 0 0 1 11.52 2.38 22.78 22.78 0 0 1 7.73 6.22 24.6 24.6 0 0 1 4.38 8.65 36.06 36.06 0 0 1 1.35 9.79v3.46Zm30.72-7.79a20.58 20.58 0 0 0-1-5.95 13.11 13.11 0 0 0-2.76-4.7 12.72 12.72 0 0 0-4.6-3.14 16.83 16.83 0 0 0-6.44-1.14 15.64 15.64 0 0 0-6.54 1.35 16 16 0 0 0-5 3.52 16.27 16.27 0 0 0-3.19 4.81A13.25 13.25 0 0 0 173 66.4ZM222.59 45h9.74v7.9h.22a14.35 14.35 0 0 1 6.38-6.65 21.13 21.13 0 0 1 10.49-2.54 22.26 22.26 0 0 1 7.09 1.14 16 16 0 0 1 5.95 3.52 17 17 0 0 1 4.06 6.11 23.37 23.37 0 0 1 1.48 8.78v33h-9.74V66a17.12 17.12 0 0 0-1-6.11 11.19 11.19 0 0 0-2.6-4.11 9.75 9.75 0 0 0-3.66-2.31 13.78 13.78 0 0 0-4.38-.7 15.91 15.91 0 0 0-5.63 1 11.75 11.75 0 0 0-4.54 3.08 14.54 14.54 0 0 0-3 5.35 24.38 24.38 0 0 0-1.08 7.68v26.38h-9.74ZM271.16 45h11.25l15.36 39.27L312.48 45h10.38l-20.12 51.26H292ZM323.51 70.62a26.13 26.13 0 0 1 2.11-10.49 27.35 27.35 0 0 1 5.79-8.55 27.55 27.55 0 0 1 38.73 0 27.38 27.38 0 0 1 5.79 8.55A26.13 26.13 0 0 1 378 70.62a26.66 26.66 0 0 1-7.9 19.09 27.5 27.5 0 0 1-8.65 5.73 28.24 28.24 0 0 1-21.42 0 27.45 27.45 0 0 1-8.65-5.73 26.66 26.66 0 0 1-7.9-19.09zm10.38 0a21 21 0 0 0 1.19 7.19 16.18 16.18 0 0 0 3.35 5.63 15.46 15.46 0 0 0 5.3 3.68 19 19 0 0 0 14.06 0 15.51 15.51 0 0 0 5.3-3.68 16.24 16.24 0 0 0 3.35-5.63 22.34 22.34 0 0 0 0-14.39 16.28 16.28 0 0 0-3.35-5.63 15.59 15.59 0 0 0-5.3-3.68 19 19 0 0 0-14.06 0 15.54 15.54 0 0 0-5.3 3.68 16.22 16.22 0 0 0-3.35 5.63 21 21 0 0 0-1.18 7.2zM378.79 45H390l15.18 40h.22L420 45h10.38L406 107.29a66.44 66.44 0 0 1-2.69 6.11 18.44 18.44 0 0 1-3.34 4.7 13.51 13.51 0 0 1-4.69 3 18.46 18.46 0 0 1-6.73 1.08 35.93 35.93 0 0 1-4.36-.27 15.79 15.79 0 0 1-4.26-1.14l1.18-8.87a15.2 15.2 0 0 0 5.8 1.19 10.81 10.81 0 0 0 3.82-.59 7.56 7.56 0 0 0 2.69-1.73 10.15 10.15 0 0 0 1.88-2.65q.75-1.52 1.5-3.46l3.2-8.08Z"/></svg>