<svg width="847" height="509" viewBox="0 0 847 509" fill="none" xmlns="http://www.w3.org/2000/svg">
<rect width="847" height="509" fill="white"/>
<path d="M361.47 174.293L361.817 189.355L377.712 199.211L377.365 184.149L361.47 174.293Z" fill="#000717"/>
<path d="M400.272 236.693L399.925 221.978L386.043 213.302L385.418 212.885L385.766 227.739L400.272 236.693Z" fill="#000717"/>
<path d="M350.643 256.892L314.272 234.403L313.439 196.643L331.208 188.938V173.876L302.472 186.093C301.426 186.515 300.534 187.247 299.914 188.189C299.294 189.131 298.976 190.24 299.001 191.368L300.043 236.693C300.131 237.928 300.518 239.124 301.171 240.176C301.824 241.228 302.723 242.105 303.791 242.732L347.589 269.733C348.548 270.343 349.625 270.744 350.749 270.911C351.872 271.079 353.019 271.008 354.114 270.705H354.739L381.462 259.113L366.747 249.951L350.643 256.892Z" fill="#000717"/>
<path d="M468.017 173.46C467.905 172.035 467.449 170.659 466.687 169.45C465.925 168.24 464.881 167.235 463.644 166.519L410.753 133.618L409.156 134.312L409.503 150.207L451.15 176.167L452.122 218.577L468.156 228.503L468.989 228.156L468.017 173.46Z" fill="#000717"/>
<path d="M404.644 247.938L355.501 217.467L354.53 166.38L376.88 156.732L376.463 139.101L341.758 154.094C340.536 154.59 339.496 155.447 338.776 156.551C338.056 157.656 337.692 158.954 337.732 160.272L339.12 220.174C339.214 221.603 339.663 222.987 340.426 224.199C341.19 225.411 342.244 226.413 343.493 227.115L401.035 262.862C402.158 263.574 403.418 264.041 404.734 264.233C406.05 264.424 407.391 264.335 408.67 263.972H409.434L443.445 249.257L426.509 238.776L404.644 247.938Z" fill="#000717"/>
<path d="M542.913 131.466L469.059 85.6545C467.768 84.8512 466.323 84.3253 464.817 84.1102C463.312 83.8951 461.778 83.9956 460.313 84.4051L459.48 84.7522L387.431 115.779C386.057 116.339 384.884 117.301 384.066 118.54C383.248 119.779 382.825 121.236 382.85 122.72L384.655 199.558C384.78 201.194 385.3 202.775 386.17 204.165C387.041 205.556 388.236 206.714 389.653 207.541L463.506 253.422C464.816 254.302 466.306 254.878 467.868 255.106C469.43 255.335 471.023 255.209 472.53 254.74L473.363 254.393L545.411 223.367C546.786 222.807 547.959 221.844 548.777 220.605C549.594 219.367 550.018 217.909 549.993 216.425L547.841 139.518C547.746 137.873 547.247 136.278 546.387 134.873C545.527 133.469 544.334 132.298 542.913 131.466ZM467.81 236.693L403.674 196.921L402.077 129.8L464.547 102.799L528.753 142.572L530.28 209.345L467.81 236.693Z" fill="#000717"/>
<path fill-rule="evenodd" clip-rule="evenodd" d="M537.542 396.119H537.878C543.421 396.282 547.396 393.414 550.308 388.381C550.701 387.663 551.289 387.061 552.009 386.642C552.729 386.222 553.554 386 554.395 386C555.243 386 556.074 386.228 556.796 386.658C557.517 387.088 558.101 387.703 558.482 388.435C561.393 393.414 565.369 396.282 570.912 396.119H571.304C572.521 396.119 573.689 396.587 574.55 397.419C575.411 398.251 575.895 399.38 575.895 400.557C575.895 401.734 575.411 402.862 574.55 403.694C573.689 404.527 572.521 404.994 571.304 404.994C570.421 404.99 569.558 404.743 568.815 404.283C568.071 403.823 567.478 403.169 567.104 402.397C564.753 397.743 559.602 394.983 554.395 394.875C549.188 394.929 544.093 397.743 541.741 402.343C541.408 403.075 540.877 403.706 540.203 404.17C539.529 404.634 538.738 404.914 537.914 404.979C537.089 405.045 536.262 404.893 535.519 404.542C534.776 404.19 534.145 403.651 533.693 402.981C533.241 402.311 532.985 401.536 532.951 400.737C532.918 399.938 533.108 399.145 533.502 398.442C533.897 397.739 534.48 397.152 535.191 396.743C535.903 396.334 536.715 396.119 537.542 396.119ZM557.81 426.748C557.934 426.851 558.03 426.981 558.09 427.127C558.579 427.778 558.871 428.547 558.933 429.349C558.994 430.151 558.824 430.954 558.44 431.667C558.057 432.381 557.475 432.977 556.76 433.389C556.046 433.801 555.227 434.012 554.395 433.999C553.802 434 553.215 433.886 552.668 433.665C552.121 433.444 551.624 433.12 551.208 432.712C550.791 432.305 550.462 431.821 550.24 431.29C550.019 430.758 549.908 430.189 549.916 429.616C549.893 428.718 550.189 427.839 550.756 427.127C550.862 427.01 550.956 426.883 551.035 426.748C553.387 423.609 553.555 416.737 549.244 411.326C548.28 410.201 547.764 408.781 547.788 407.321C547.786 406.292 548.039 405.277 548.526 404.362C549.013 403.447 549.72 402.658 550.588 402.061C551.455 401.465 552.458 401.078 553.512 400.933C554.566 400.788 555.641 400.889 556.647 401.228C557.652 401.567 558.558 402.134 559.29 402.882C560.022 403.629 560.558 404.536 560.853 405.524C561.148 406.513 561.193 407.556 560.985 408.565C560.777 409.575 560.322 410.521 559.658 411.326C555.235 416.737 555.459 423.609 557.81 426.748ZM554.395 403.154C555.281 403.154 556.147 403.408 556.883 403.884C557.62 404.36 558.194 405.036 558.533 405.827C558.872 406.618 558.961 407.488 558.788 408.328C558.615 409.168 558.188 409.939 557.562 410.545C556.936 411.15 556.138 411.562 555.269 411.729C554.4 411.896 553.499 411.811 552.681 411.483C551.862 411.155 551.163 410.6 550.671 409.889C550.178 409.177 549.916 408.34 549.916 407.483C549.916 406.335 550.388 405.234 551.228 404.422C552.068 403.61 553.207 403.154 554.395 403.154Z" fill="black"/>
<path fill-rule="evenodd" clip-rule="evenodd" d="M554.421 403.684C555.17 403.684 555.903 403.906 556.526 404.323C557.149 404.739 557.635 405.331 557.922 406.024C558.209 406.716 558.284 407.478 558.137 408.213C557.991 408.948 557.63 409.623 557.1 410.153C556.57 410.683 555.895 411.044 555.16 411.19C554.425 411.337 553.663 411.262 552.971 410.975C552.278 410.688 551.686 410.202 551.27 409.579C550.854 408.956 550.631 408.223 550.631 407.474C550.631 406.469 551.031 405.505 551.741 404.794C552.452 404.083 553.416 403.684 554.421 403.684" fill="#F15C22"/>
<path d="M590.165 433.997C589.001 434.022 587.839 433.883 586.714 433.585C585.722 433.359 584.79 432.92 583.984 432.299C583.207 431.672 582.604 430.857 582.233 429.931C581.793 428.8 581.583 427.593 581.614 426.38V416.036H578.421V411.044H581.614V403.684H588.352V411.044H594.842V416.036H588.352V423.91C588.352 425.66 588.764 426.946 589.588 427.77C590.412 428.593 591.751 429.005 593.606 429.005H594.842V433.997H590.165Z" fill="black"/>
<path d="M606.334 433.947C604.78 433.998 603.229 433.782 601.747 433.308C600.643 432.918 599.685 432.194 599.005 431.233C598.299 430.124 597.849 428.87 597.687 427.562C597.456 425.727 597.35 423.878 597.371 422.029C597.348 419.977 597.525 417.927 597.898 415.91C598.152 414.511 598.834 413.227 599.849 412.239C600.896 411.323 602.173 410.715 603.539 410.483C605.452 410.131 607.395 409.971 609.339 410.004C611.066 409.991 612.793 410.098 614.506 410.324C615.838 410.472 617.118 410.927 618.249 411.654C619.278 412.368 620.083 413.365 620.569 414.527C621.152 416.126 621.421 417.825 621.36 419.528C621.374 420.173 621.303 420.817 621.149 421.444C621.044 422.004 620.848 422.543 620.569 423.04C620.295 423.484 619.914 423.85 619.462 424.104C618.906 424.381 618.288 424.509 617.669 424.476H604.383C604.366 425.121 604.437 425.766 604.594 426.392C604.686 426.936 604.944 427.438 605.332 427.828C605.725 428.233 606.215 428.526 606.755 428.679C607.506 428.912 608.29 429.02 609.075 428.999H620.516V434H606.334V433.947ZM612.977 419.581C613.609 419.581 613.978 419.422 614.084 419.102C614.188 418.794 614.241 418.471 614.242 418.145C614.263 417.607 614.095 417.079 613.768 416.655C613.451 416.223 613.035 415.876 612.555 415.644C612.06 415.38 611.526 415.2 610.973 415.112C610.417 415.009 609.852 414.955 609.286 414.952C607.599 414.952 606.334 415.272 605.543 415.91C604.752 416.549 604.33 417.772 604.33 419.528H612.966L612.977 419.581Z" fill="black"/>
<path d="M635.587 433.996C634.44 434.024 633.295 433.886 632.187 433.585C631.195 433.358 630.264 432.919 629.457 432.298C628.681 431.672 628.077 430.857 627.706 429.931C627.266 428.8 627.056 427.593 627.088 426.38V416.036H623.895V411.044H627.088V403.684H633.825V411.044H640.316V416.036H633.825V423.91C633.825 425.659 634.238 426.946 635.062 427.769C635.886 428.593 637.225 429.004 639.079 429.004H640.316V433.996H635.587Z" fill="black"/>
<path d="M644.111 420.308C644.064 418.865 644.296 417.427 644.795 416.067C645.177 414.967 645.87 413.994 646.794 413.257C647.75 412.517 648.865 411.993 650.056 411.725C651.558 411.399 653.094 411.244 654.633 411.265H659.263V416.221H656.527C654.475 416.221 653.055 416.732 652.266 417.753C651.476 418.775 651.056 420.308 651.056 422.249V434H644.163V420.308H644.111Z" fill="black"/>
<path d="M676.191 411.365C678.444 411.365 680.235 412.026 681.413 413.349C682.681 414.775 683.341 416.636 683.256 418.537V429.727C683.256 432.576 681.822 434 678.956 434H666.158C664.11 434 662.625 433.39 661.806 432.22C660.987 431.05 660.526 429.27 660.526 426.879C660.526 424.742 660.936 423.013 661.806 421.741C662.676 420.47 664.11 419.809 666.158 419.809H676.55V418.791C676.55 416.96 675.577 416.045 673.683 416.045H662.113V411.263H676.191V411.365ZM669.383 424.488C668.052 424.488 667.335 425.302 667.335 426.981C667.302 427.607 667.463 428.228 667.796 428.761C667.972 428.994 668.206 429.177 668.476 429.293C668.745 429.409 669.04 429.453 669.331 429.422H675.065C676.089 429.422 676.55 428.913 676.55 427.896V424.488H669.383Z" fill="black"/>
<path d="M698.789 433.997C697.626 434.022 696.465 433.883 695.34 433.585C694.361 433.369 693.445 432.929 692.664 432.299C691.872 431.675 691.252 430.861 690.862 429.931C690.422 428.8 690.212 427.593 690.244 426.38V416.036H687.053V411.044H690.244V403.684H696.988V411.044H703.474V416.036H696.988V423.91C696.988 425.66 697.4 426.946 698.223 427.77C699.047 428.593 700.385 429.005 702.238 429.005H703.474V433.997H698.789Z" fill="black"/>
<path d="M714.965 433.947C713.412 433.998 711.861 433.782 710.379 433.308C709.275 432.918 708.317 432.194 707.637 431.233C706.931 430.124 706.481 428.87 706.319 427.562C706.088 425.727 705.982 423.878 706.003 422.029C705.98 419.977 706.156 417.927 706.53 415.91C706.783 414.511 707.466 413.227 708.48 412.239C709.534 411.333 710.808 410.727 712.171 410.483C714.084 410.131 716.027 409.971 717.971 410.004C719.698 409.991 721.425 410.098 723.138 410.324C724.47 410.472 725.75 410.927 726.881 411.654C727.91 412.368 728.715 413.365 729.201 414.527C729.784 416.126 730.053 417.825 729.992 419.528C730.006 420.173 729.935 420.817 729.781 421.444C729.675 422.004 729.479 422.543 729.201 423.04C728.927 423.484 728.546 423.85 728.093 424.104C727.537 424.381 726.92 424.509 726.301 424.476H713.015C712.998 425.121 713.069 425.766 713.226 426.392C713.318 426.936 713.576 427.438 713.964 427.828C714.356 428.233 714.847 428.526 715.387 428.679C716.138 428.912 716.922 429.02 717.707 428.999H729.148V434H714.965V433.947ZM721.609 419.581C722.241 419.581 722.61 419.422 722.716 419.102C722.819 418.794 722.873 418.471 722.874 418.145C722.895 417.607 722.727 417.079 722.399 416.655C722.071 416.235 721.657 415.891 721.187 415.644C720.692 415.38 720.158 415.2 719.605 415.112C719.048 415.009 718.484 414.955 717.918 414.952C716.231 414.952 714.965 415.272 714.175 415.91C713.384 416.549 712.962 417.772 712.962 419.528H721.598L721.609 419.581Z" fill="black"/>
<path d="M150.6 365H122.184V319.624H150.6V327.944H131.016V338.312H148.744V346.184H131.016V356.68H150.6V365ZM166.931 346.888V365H158.419V333.512H166.675V337.416C167.571 335.88 168.851 334.707 170.515 333.896C172.179 333.085 173.928 332.68 175.763 332.68C179.475 332.68 182.291 333.853 184.211 336.2C186.174 338.504 187.155 341.491 187.155 345.16V365H178.643V346.632C178.643 344.755 178.152 343.24 177.171 342.088C176.232 340.936 174.782 340.36 172.819 340.36C171.027 340.36 169.598 340.979 168.531 342.216C167.464 343.453 166.931 345.011 166.931 346.888ZM224.928 333.512L212.704 365H204.192L191.328 333.512H200.672L208.48 354.632L215.968 333.512H224.928ZM237.617 355.848C239.196 357.427 241.094 358.216 243.313 358.216C245.532 358.216 247.409 357.427 248.945 355.848C250.524 354.269 251.313 352.072 251.313 349.256C251.313 346.44 250.524 344.243 248.945 342.664C247.409 341.085 245.532 340.296 243.313 340.296C241.094 340.296 239.196 341.085 237.617 342.664C236.081 344.243 235.313 346.44 235.313 349.256C235.313 352.072 236.081 354.269 237.617 355.848ZM231.473 337.288C234.63 334.131 238.577 332.552 243.313 332.552C248.049 332.552 251.974 334.131 255.089 337.288C258.246 340.445 259.825 344.435 259.825 349.256C259.825 354.077 258.246 358.067 255.089 361.224C251.974 364.381 248.049 365.96 243.313 365.96C238.577 365.96 234.63 364.381 231.473 361.224C228.358 358.067 226.801 354.077 226.801 349.256C226.801 344.435 228.358 340.445 231.473 337.288ZM275.924 377.416H266.9L274.324 361.032L260.948 333.512H270.484L278.868 351.944L286.612 333.512H295.7L275.924 377.416ZM326.205 365H317.309V319.624H345.981V328.008H326.141V339.208H343.805V347.336H326.205V365ZM370.715 365C370.544 364.147 370.459 363.016 370.459 361.608C369.648 363.016 368.432 364.083 366.811 364.808C365.232 365.491 363.547 365.832 361.755 365.832C358.043 365.832 355.12 364.659 352.987 362.312C350.853 359.923 349.786 356.957 349.786 353.416V333.512H358.299V351.688C358.299 353.565 358.789 355.101 359.771 356.296C360.752 357.448 362.181 358.024 364.059 358.024C365.893 358.024 367.344 357.469 368.411 356.36C369.477 355.208 370.011 353.693 370.011 351.816V333.512H378.523V359.304C378.523 361.309 378.629 363.208 378.843 365H370.715ZM396.119 346.888V365H387.607V333.512H395.863V337.416C396.759 335.88 398.039 334.707 399.703 333.896C401.367 333.085 403.116 332.68 404.951 332.68C408.663 332.68 411.479 333.853 413.399 336.2C415.361 338.504 416.343 341.491 416.343 345.16V365H407.831V346.632C407.831 344.755 407.34 343.24 406.359 342.088C405.42 340.936 403.969 340.36 402.007 340.36C400.215 340.36 398.785 340.979 397.719 342.216C396.652 343.453 396.119 345.011 396.119 346.888ZM454.998 318.664V359.304C454.998 361.395 455.083 363.293 455.254 365H447.126C446.912 363.933 446.806 362.717 446.806 361.352C446.08 362.675 444.928 363.741 443.35 364.552C441.814 365.363 440.022 365.768 437.974 365.768C433.494 365.768 429.803 364.211 426.902 361.096C424.043 357.939 422.614 353.971 422.614 349.192C422.614 344.541 424.022 340.637 426.838 337.48C429.696 334.323 433.323 332.744 437.718 332.744C442.24 332.744 445.206 334.045 446.614 336.648V318.664H454.998ZM431.19 349.192C431.19 351.965 431.915 354.163 433.366 355.784C434.816 357.363 436.694 358.152 438.998 358.152C441.259 358.152 443.115 357.341 444.566 355.72C446.016 354.099 446.742 351.901 446.742 349.128C446.742 346.397 446.016 344.264 444.566 342.728C443.115 341.149 441.259 340.36 438.998 340.36C436.736 340.36 434.859 341.149 433.366 342.728C431.915 344.307 431.19 346.461 431.19 349.192ZM462.124 356.424C462.124 353.736 462.999 351.581 464.748 349.96C466.497 348.339 468.759 347.315 471.532 346.888L479.276 345.736C480.855 345.523 481.644 344.776 481.644 343.496C481.644 342.301 481.175 341.32 480.236 340.552C479.34 339.784 478.039 339.4 476.332 339.4C474.54 339.4 473.111 339.891 472.044 340.872C471.02 341.853 470.444 343.069 470.316 344.52L462.764 342.92C463.063 340.189 464.407 337.779 466.796 335.688C469.185 333.597 472.343 332.552 476.268 332.552C480.961 332.552 484.417 333.683 486.636 335.944C488.855 338.163 489.964 341.021 489.964 344.52V360.008C489.964 361.885 490.092 363.549 490.348 365H482.54C482.327 364.061 482.22 362.803 482.22 361.224C480.215 364.339 477.121 365.896 472.94 365.896C469.697 365.896 467.073 364.957 465.068 363.08C463.105 361.203 462.124 358.984 462.124 356.424ZM474.732 359.56C476.737 359.56 478.38 359.005 479.66 357.896C480.983 356.744 481.644 354.867 481.644 352.264V350.856L474.54 351.944C471.937 352.328 470.636 353.651 470.636 355.912C470.636 356.936 470.999 357.811 471.724 358.536C472.449 359.219 473.452 359.56 474.732 359.56ZM507.056 365H498.544V333.512H506.672V337.352C507.483 335.901 508.763 334.749 510.512 333.896C512.261 333.043 514.053 332.616 515.888 332.616C520.453 332.616 523.568 334.365 525.232 337.864C527.493 334.365 530.821 332.616 535.216 332.616C538.416 332.616 541.104 333.619 543.28 335.624C545.499 337.629 546.608 340.616 546.608 344.584V365H538.352V346.312C538.352 344.52 537.883 343.091 536.944 342.024C536.048 340.915 534.661 340.36 532.784 340.36C531.035 340.36 529.627 340.957 528.56 342.152C527.493 343.347 526.96 344.819 526.96 346.568V365H518.512V346.312C518.512 344.52 518.043 343.091 517.104 342.024C516.165 340.915 514.779 340.36 512.944 340.36C511.152 340.36 509.723 340.957 508.656 342.152C507.589 343.304 507.056 344.776 507.056 346.568V365ZM561.44 345.672H575.52C575.434 343.923 574.794 342.451 573.6 341.256C572.448 340.061 570.741 339.464 568.48 339.464C566.432 339.464 564.768 340.104 563.488 341.384C562.208 342.664 561.525 344.093 561.44 345.672ZM576.352 353.864L583.456 355.976C582.602 358.877 580.917 361.267 578.4 363.144C575.925 365.021 572.832 365.96 569.12 365.96C564.597 365.96 560.757 364.445 557.6 361.416C554.442 358.344 552.864 354.248 552.864 349.128C552.864 344.264 554.4 340.296 557.472 337.224C560.544 334.109 564.17 332.552 568.352 332.552C573.216 332.552 577.013 334.003 579.744 336.904C582.517 339.805 583.904 343.795 583.904 348.872C583.904 349.213 583.882 349.597 583.84 350.024C583.84 350.451 583.84 350.792 583.84 351.048L583.776 351.496H561.248C561.333 353.544 562.144 355.251 563.68 356.616C565.216 357.981 567.05 358.664 569.184 358.664C572.81 358.664 575.2 357.064 576.352 353.864ZM599.119 346.888V365H590.607V333.512H598.863V337.416C599.759 335.88 601.039 334.707 602.703 333.896C604.367 333.085 606.116 332.68 607.951 332.68C611.663 332.68 614.479 333.853 616.399 336.2C618.361 338.504 619.343 341.491 619.343 345.16V365H610.831V346.632C610.831 344.755 610.34 343.24 609.359 342.088C608.42 340.936 606.969 340.36 605.007 340.36C603.215 340.36 601.785 340.979 600.719 342.216C599.652 343.453 599.119 345.011 599.119 346.888ZM638.478 324.104V333.512H644.814V341.064H638.478V354.248C638.478 355.571 638.776 356.509 639.374 357.064C639.971 357.619 640.91 357.896 642.19 357.896C643.342 357.896 644.216 357.811 644.814 357.64V364.68C643.576 365.192 641.976 365.448 640.014 365.448C636.942 365.448 634.51 364.595 632.718 362.888C630.926 361.139 630.03 358.749 630.03 355.72V341.064H624.334V333.512H625.934C627.512 333.512 628.707 333.064 629.518 332.168C630.371 331.229 630.798 330.013 630.798 328.52V324.104H638.478ZM650.312 356.424C650.312 353.736 651.186 351.581 652.936 349.96C654.685 348.339 656.946 347.315 659.72 346.888L667.464 345.736C669.042 345.523 669.832 344.776 669.832 343.496C669.832 342.301 669.362 341.32 668.424 340.552C667.528 339.784 666.226 339.4 664.52 339.4C662.728 339.4 661.298 339.891 660.232 340.872C659.208 341.853 658.632 343.069 658.504 344.52L650.952 342.92C651.25 340.189 652.594 337.779 654.984 335.688C657.373 333.597 660.53 332.552 664.456 332.552C669.149 332.552 672.605 333.683 674.824 335.944C677.042 338.163 678.152 341.021 678.152 344.52V360.008C678.152 361.885 678.28 363.549 678.536 365H670.728C670.514 364.061 670.408 362.803 670.408 361.224C668.402 364.339 665.309 365.896 661.128 365.896C657.885 365.896 655.261 364.957 653.256 363.08C651.293 361.203 650.312 358.984 650.312 356.424ZM662.92 359.56C664.925 359.56 666.568 359.005 667.848 357.896C669.17 356.744 669.832 354.867 669.832 352.264V350.856L662.728 351.944C660.125 352.328 658.824 353.651 658.824 355.912C658.824 356.936 659.186 357.811 659.912 358.536C660.637 359.219 661.64 359.56 662.92 359.56ZM695.244 365H686.732V318.664H695.244V365ZM701.669 356.232L708.965 354.632C709.05 355.997 709.583 357.149 710.565 358.088C711.589 358.984 712.975 359.432 714.725 359.432C716.047 359.432 717.071 359.133 717.797 358.536C718.522 357.939 718.885 357.192 718.885 356.296C718.885 354.717 717.754 353.693 715.493 353.224L711.333 352.264C708.389 351.624 706.17 350.472 704.677 348.808C703.226 347.144 702.501 345.16 702.501 342.856C702.501 339.997 703.61 337.565 705.829 335.56C708.09 333.555 710.906 332.552 714.277 332.552C716.41 332.552 718.287 332.872 719.909 333.512C721.53 334.109 722.789 334.899 723.685 335.88C724.581 336.819 725.263 337.779 725.733 338.76C726.202 339.741 726.501 340.701 726.629 341.64L719.525 343.24C719.354 342.131 718.842 341.149 717.989 340.296C717.178 339.443 715.962 339.016 714.341 339.016C713.231 339.016 712.271 339.315 711.461 339.912C710.693 340.509 710.309 341.256 710.309 342.152C710.309 343.688 711.269 344.627 713.189 344.968L717.669 345.928C720.698 346.568 723.002 347.741 724.581 349.448C726.202 351.155 727.013 353.203 727.013 355.592C727.013 358.408 725.946 360.84 723.813 362.888C721.679 364.936 718.671 365.96 714.789 365.96C712.57 365.96 710.586 365.64 708.837 365C707.087 364.317 705.722 363.464 704.741 362.44C703.802 361.373 703.077 360.328 702.565 359.304C702.095 358.237 701.797 357.213 701.669 356.232Z" fill="#000717"/>
<path d="M492.228 434H488.88V407.936H492.228V419.132C492.684 418.292 493.404 417.596 494.388 417.044C495.396 416.468 496.584 416.18 497.952 416.18C500.472 416.18 502.428 417.032 503.82 418.736C505.212 420.44 505.908 422.612 505.908 425.252C505.908 427.916 505.188 430.124 503.748 431.876C502.308 433.604 500.34 434.468 497.844 434.468C495.252 434.468 493.38 433.472 492.228 431.48V434ZM501.048 429.752C501.984 428.624 502.452 427.124 502.452 425.252C502.452 423.38 501.984 421.904 501.048 420.824C500.136 419.72 498.9 419.168 497.34 419.168C495.828 419.168 494.592 419.72 493.632 420.824C492.672 421.928 492.192 423.404 492.192 425.252C492.192 427.1 492.672 428.6 493.632 429.752C494.592 430.88 495.828 431.444 497.34 431.444C498.876 431.444 500.112 430.88 501.048 429.752ZM513.837 441.236H510.129L514.449 432.092L506.997 416.684H510.885L516.285 428.636L521.469 416.684H525.105L513.837 441.236Z" fill="#000717"/>
</svg>
