<?xml version="1.0" encoding="utf-8"?>
<!-- Generator: Adobe Illustrator 25.4.1, SVG Export Plug-In . SVG Version: 6.00 Build 0)  -->
<svg version="1.1" id="Layer_1" xmlns="http://www.w3.org/2000/svg" xmlns:xlink="http://www.w3.org/1999/xlink" x="0px" y="0px"
	 viewBox="0 0 570 200" style="enable-background:new 0 0 570 200;" xml:space="preserve">
<style type="text/css">
	.st0{fill:#F02A95;}
	.st1{fill:#FFFFFF;}
</style>
<g>
	<path class="st0" d="M388.1,53.3h45c1.6,0,3.2,0.2,4.7,0.5c1.6,0.3,3.1,0.8,4.5,1.4c1.5,0.6,2.9,1.3,4.2,2.2c1.3,0.9,2.5,1.9,3.7,3
		c1.1,1.1,2.1,2.3,3,3.7c0.9,1.3,1.6,2.7,2.2,4.2c0.6,1.5,1.1,3,1.4,4.5c0.3,1.6,0.5,3.1,0.5,4.7v45c0,1.6-0.2,3.2-0.5,4.7
		c-0.3,1.6-0.8,3.1-1.4,4.5c-0.6,1.5-1.3,2.9-2.2,4.2c-0.9,1.3-1.9,2.5-3,3.7c-1.1,1.1-2.3,2.1-3.7,3c-1.3,0.9-2.7,1.6-4.2,2.2
		c-1.5,0.6-3,1.1-4.5,1.4c-1.6,0.3-3.1,0.5-4.7,0.5h-45c-1.6,0-3.2-0.2-4.7-0.5c-1.6-0.3-3.1-0.8-4.5-1.4c-1.5-0.6-2.9-1.3-4.2-2.2
		c-1.3-0.9-2.5-1.9-3.7-3c-1.1-1.1-2.1-2.3-3-3.7c-0.9-1.3-1.6-2.7-2.2-4.2c-0.6-1.5-1.1-3-1.4-4.5c-0.3-1.6-0.5-3.1-0.5-4.7v-45
		c0-1.6,0.2-3.2,0.5-4.7c0.3-1.6,0.8-3.1,1.4-4.5c0.6-1.5,1.3-2.9,2.2-4.2c0.9-1.3,1.9-2.5,3-3.7c1.1-1.1,2.3-2.1,3.7-3
		c1.3-0.9,2.7-1.6,4.2-2.2c1.5-0.6,3-1.1,4.5-1.4C384.9,53.5,386.5,53.3,388.1,53.3z"/>
	<path class="st1" d="M422.9,109.4l11.4,3.4c-1.4,4.7-4.1,8.5-8.1,11.5c-4,3-9,4.5-14.9,4.5c-7.3,0-13.5-2.4-18.5-7.3
		c-5.1-4.9-7.6-11.5-7.6-19.8c0-7.8,2.5-14.2,7.4-19.2c4.9-5,10.8-7.5,17.5-7.5c7.8,0,13.9,2.3,18.3,7c4.5,4.7,6.7,11.1,6.7,19.3
		c0,0.5,0,1.2-0.1,1.9c0,0.7,0,1.2,0,1.6l-0.1,0.7h-36.2c0.1,3.3,1.4,6,3.9,8.2c2.5,2.2,5.4,3.3,8.9,3.3
		C417.2,117.2,421.1,114.6,422.9,109.4z M398.9,96.3h22.7c-0.1-2.8-1.2-5.2-3.1-7.1c-1.9-1.9-4.6-2.9-8.2-2.9c-3.3,0-6,1-8,3.1
		C400.2,91.4,399.1,93.7,398.9,96.3z"/>
	<path d="M359.1,104.5h-29.9V92.3h29.9V104.5z M298.4,89.4c-3.6,0-6.7,1.3-9.2,3.8s-3.7,6-3.7,10.4c0,4.4,1.2,7.9,3.7,10.5
		c2.5,2.5,5.6,3.8,9.3,3.8c3.2,0,5.8-0.8,7.7-2.5c1.9-1.7,3.2-3.7,3.9-6.1l12,4c-1.2,4.7-3.9,8.7-8,12c-4.1,3.4-9.3,5-15.7,5
		c-7.6,0-13.9-2.5-19-7.6c-5.1-5.1-7.6-11.6-7.6-19.3c0-7.8,2.5-14.2,7.5-19.3c5.1-5.1,11.3-7.6,18.7-7.6c6.5,0,11.7,1.7,15.9,5
		c4.1,3.3,6.8,7.3,7.9,12L309.6,98C307.9,92.3,304.2,89.4,298.4,89.4z M229.2,99.8V129h-13.7V78.3h13.3v6.3c1.4-2.5,3.5-4.4,6.2-5.7
		c2.7-1.3,5.5-2,8.4-2c6,0,10.5,1.9,13.6,5.7c3.2,3.7,4.7,8.5,4.7,14.4V129H248V99.4c0-3-0.8-5.5-2.4-7.3c-1.5-1.9-3.8-2.8-7-2.8
		c-2.9,0-5.2,1-6.9,3C230,94.3,229.2,96.8,229.2,99.8z M188.3,129c-0.3-1.4-0.4-3.2-0.4-5.5c-1.3,2.3-3.3,4-5.9,5.1
		c-2.5,1.1-5.3,1.6-8.1,1.6c-6,0-10.7-1.9-14.1-5.7c-3.4-3.8-5.1-8.6-5.1-14.3v-32h13.7v29.2c0,3,0.8,5.5,2.4,7.4
		c1.6,1.9,3.9,2.8,6.9,2.8c3,0,5.3-0.9,7-2.7c1.7-1.9,2.6-4.3,2.6-7.3V78.3h13.7v41.5c0,3.2,0.2,6.3,0.5,9.2H188.3z M142.1,65.7
		c-1.9,0-3.6,0.5-5,1.6c-1.4,1-2.1,2.8-2.1,5.4v5.6h11.4V90H135V129h-13.8V90h-8.4V78.3h8.4v-5.8c0-5.7,1.6-10.3,4.9-13.7
		c3.4-3.4,7.9-5.1,13.5-5.1c3,0,5.3,0.3,6.8,1v11.5C145.3,65.9,143.8,65.7,142.1,65.7z"/>
</g>
</svg>
