<?xml version="1.0" encoding="utf-8"?>
<!-- Generator: Adobe Illustrator 16.2.0, SVG Export Plug-In . SVG Version: 6.00 Build 0)  -->
<!DOCTYPE svg PUBLIC "-//W3C//DTD SVG 1.1//EN" "http://www.w3.org/Graphics/SVG/1.1/DTD/svg11.dtd">
<svg version="1.1" id="Layer_1" xmlns="http://www.w3.org/2000/svg" xmlns:xlink="http://www.w3.org/1999/xlink" x="0px" y="0px"
	 width="144.311px" height="144.31px" viewBox="0 0 144.311 144.31" enable-background="new 0 0 144.311 144.31"
	 xml:space="preserve">
<g>
	<g>
		<g>
			
				<linearGradient id="SVGID_1_" gradientUnits="userSpaceOnUse" x1="-2743.3132" y1="1454.7229" x2="-2664.3796" y2="1454.7229" gradientTransform="matrix(1 0 0 1 2776 -1395.9395)">
				<stop  offset="0" style="stop-color:#A4DCE8"/>
				<stop  offset="0.0825" style="stop-color:#99D7E5"/>
				<stop  offset="0.4645" style="stop-color:#77C7DB"/>
				<stop  offset="0.784" style="stop-color:#5FC0D7"/>
				<stop  offset="1" style="stop-color:#55BDD6"/>
			</linearGradient>
			<path fill="url(#SVGID_1_)" d="M109.184,34.598L74.588,14.627c-1.329-0.788-3.539-0.788-4.868,0L35.123,34.598
				c-1.329,0.765-2.437,2.658-2.437,4.215v39.955c0,1.539,1.105,3.431,2.437,4.218l34.597,19.969c1.329,0.767,3.539,0.767,4.868,0
				l34.596-19.969c1.334-0.787,2.437-2.679,2.437-4.218V38.813C111.618,37.256,110.518,35.363,109.184,34.598z M102.603,73.162
				c0,1.189-0.834,2.659-1.871,3.242L74.025,91.822c-1.015,0.61-2.727,0.61-3.74,0L43.575,76.406
				c-1.017-0.583-1.871-2.053-1.871-3.242V42.327c0-1.194,0.854-2.659,1.871-3.246l26.707-15.416c1.016-0.586,2.728-0.586,3.74,0
				l26.707,15.416c1.037,0.587,1.871,2.052,1.871,3.246L102.603,73.162L102.603,73.162z"/>
			<path fill="none" stroke="#FFFFFF" stroke-width="0.1406" stroke-miterlimit="10" d="M109.184,34.598L74.588,14.627
				c-1.329-0.788-3.539-0.788-4.868,0L35.123,34.598c-1.329,0.765-2.437,2.658-2.437,4.215v39.955c0,1.539,1.105,3.431,2.437,4.218
				l34.597,19.969c1.329,0.767,3.539,0.767,4.868,0l34.596-19.969c1.334-0.787,2.437-2.679,2.437-4.218V38.813
				C111.618,37.256,110.518,35.363,109.184,34.598z M102.603,73.162c0,1.189-0.834,2.659-1.871,3.242L74.025,91.822
				c-1.015,0.61-2.727,0.61-3.74,0L43.575,76.406c-1.017-0.583-1.871-2.053-1.871-3.242V42.327c0-1.194,0.854-2.659,1.871-3.246
				l26.707-15.416c1.016-0.586,2.728-0.586,3.74,0l26.707,15.416c1.037,0.587,1.871,2.052,1.871,3.246L102.603,73.162
				L102.603,73.162z"/>
		</g>
	</g>
	<g>
		<path fill="#4AB6E4" d="M31.884,120.415h3.29v5.195c-1.453,1.621-3.465,2.433-6.035,2.433c-2.149,0-3.958-0.713-5.418-2.139
			c-1.46-1.425-2.188-3.225-2.188-5.396s0.742-3.982,2.229-5.438c1.488-1.451,3.283-2.18,5.387-2.18c2.104,0,3.933,0.69,5.479,2.073
			l-1.697,2.452c-0.657-0.571-1.261-0.967-1.813-1.186c-0.557-0.217-1.149-0.323-1.792-0.323c-1.243,0-2.292,0.423-3.146,1.268
			c-0.853,0.847-1.277,1.961-1.277,3.345c0,1.383,0.407,2.488,1.229,3.318c0.816,0.832,1.792,1.248,2.924,1.248
			s2.074-0.217,2.829-0.648L31.884,120.415L31.884,120.415z"/>
		<path fill="#4AB6E4" d="M47.538,126.24c-1.271,1.2-2.767,1.803-4.478,1.803c-1.712,0-3.126-0.524-4.244-1.582
			c-1.114-1.055-1.677-2.469-1.677-4.244c0-1.771,0.569-3.185,1.708-4.231c1.14-1.047,2.483-1.569,4.034-1.569
			s2.868,0.468,3.95,1.403c1.083,0.937,1.625,2.223,1.625,3.854v1.679h-8.215c0.097,0.614,0.419,1.117,0.964,1.511
			c0.544,0.392,1.156,0.586,1.844,0.586c1.104,0,2.012-0.368,2.725-1.108L47.538,126.24z M44.521,119.555
			c-0.433-0.363-0.96-0.545-1.582-0.545s-1.188,0.188-1.708,0.564c-0.517,0.378-0.813,0.888-0.897,1.529h4.942
			C45.205,120.436,44.953,119.918,44.521,119.555z"/>
		<path fill="#4AB6E4" d="M54.35,118.865v5.051c0,0.433,0.111,0.771,0.335,1.017c0.226,0.243,0.489,0.364,0.796,0.364
			c0.587,0,1.083-0.264,1.488-0.795l1.174,2.199c-0.979,0.896-2.009,1.342-3.091,1.342c-1.083,0-1.998-0.354-2.746-1.066
			c-0.747-0.714-1.121-1.686-1.121-2.912v-5.196h-1.318v-2.266h1.318v-3.375h3.165v3.375h2.727v2.265L54.35,118.865L54.35,118.865z"
			/>
		<path fill="#4AB6E4" d="M70.696,113.227v2.912h-7.294v3.021h6.563v2.787h-6.563v3.038h7.523v2.893H60.133v-14.649L70.696,113.227
			L70.696,113.227z"/>
		<path fill="#4AB6E4" d="M76.564,121.586v6.287H73.42V116.6h3.144v1.258c0.95-0.963,2.021-1.444,3.206-1.444
			c1.188,0,2.188,0.419,2.986,1.258c0.804,0.838,1.205,1.956,1.205,3.354v6.854h-3.146v-6.371c0-1.729-0.636-2.598-1.903-2.598
			c-0.63,0-1.181,0.228-1.646,0.681C76.797,120.041,76.564,120.708,76.564,121.586z"/>
		<path fill="#4AB6E4" d="M89.661,127.875l-4.466-11.294h3.271l2.809,7.104l2.812-7.104h3.27l-4.464,11.294H89.661z"/>
		<path fill="#4AB6E4" d="M109.927,122.24c0,1.635-0.564,3.01-1.697,4.129c-1.132,1.116-2.554,1.676-4.265,1.676
			c-1.712,0-3.133-0.56-4.267-1.676c-1.134-1.119-1.695-2.494-1.695-4.129c0-1.636,0.563-3.017,1.695-4.14
			c1.134-1.125,2.555-1.688,4.267-1.688c1.711,0,3.133,0.563,4.265,1.688C109.361,119.223,109.927,120.604,109.927,122.24z
			 M101.167,122.24c0,0.922,0.262,1.674,0.786,2.252c0.521,0.58,1.19,0.868,2.012,0.868c0.816,0,1.488-0.288,2.012-0.868
			c0.523-0.578,0.786-1.33,0.786-2.252c0-0.923-0.263-1.679-0.786-2.265c-0.521-0.588-1.192-0.881-2.012-0.881
			s-1.488,0.293-2.012,0.881C101.429,120.561,101.167,121.317,101.167,122.24z"/>
		<path fill="#4AB6E4" d="M113.93,132.319c-1.104,0-2.145-0.446-3.123-1.342l1.426-2.326c0.53,0.519,1.075,0.773,1.636,0.773
			c0.296,0,0.548-0.143,0.757-0.43c0.21-0.287,0.313-0.592,0.313-0.912c0-0.319-1.453-4.146-4.355-11.482h3.354l2.745,7.021
			l2.745-7.021h3.354l-5.237,13.286c-0.312,0.77-0.786,1.364-1.438,1.791C115.449,132.106,114.726,132.319,113.93,132.319z"/>
	</g>
</g>
</svg>
