<svg width="144.31" height="144.31" xml:space="preserve" xmlns="http://www.w3.org/2000/svg"><linearGradient id="a" x1="-2743.3" x2="-2664.4" y1="1454.7" y2="1454.7" gradientTransform="translate(2776 -1395.9)" gradientUnits="userSpaceOnUse"><stop stop-color="#A4DCE8" offset="0"/><stop stop-color="#99D7E5" offset=".083"/><stop stop-color="#77C7DB" offset=".465"/><stop stop-color="#5FC0D7" offset=".784"/><stop stop-color="#55BDD6" offset="1"/></linearGradient><path d="M109.18 34.598 74.584 14.627c-1.329-.788-3.539-.788-4.868 0L35.119 34.598c-1.329.765-2.437 2.658-2.437 4.215v39.955c0 1.539 1.105 3.431 2.437 4.218l34.597 19.969c1.329.767 3.539.767 4.868 0l34.596-19.969c1.334-.787 2.437-2.679 2.437-4.218V38.813c-.003-1.557-1.103-3.45-2.437-4.215zm-6.581 38.564c0 1.189-.834 2.659-1.871 3.242L74.021 91.822c-1.015.61-2.727.61-3.74 0l-26.71-15.416c-1.017-.583-1.871-2.053-1.871-3.242V42.327c0-1.194.854-2.659 1.871-3.246l26.707-15.416c1.016-.586 2.728-.586 3.74 0l26.707 15.416c1.037.587 1.871 2.052 1.871 3.246l.003 30.835z" fill="url(#a)"/><path d="M109.18 34.598 74.584 14.627c-1.329-.788-3.539-.788-4.868 0L35.119 34.598c-1.329.765-2.437 2.658-2.437 4.215v39.955c0 1.539 1.105 3.431 2.437 4.218l34.597 19.969c1.329.767 3.539.767 4.868 0l34.596-19.969c1.334-.787 2.437-2.679 2.437-4.218V38.813c-.003-1.557-1.103-3.45-2.437-4.215zm-6.581 38.564c0 1.189-.834 2.659-1.871 3.242L74.021 91.822c-1.015.61-2.727.61-3.74 0l-26.71-15.416c-1.017-.583-1.871-2.053-1.871-3.242V42.327c0-1.194.854-2.659 1.871-3.246l26.707-15.416c1.016-.586 2.728-.586 3.74 0l26.707 15.416c1.037.587 1.871 2.052 1.871 3.246l.003 30.835z" fill="none" stroke="#fff" stroke-miterlimit="10" stroke-width=".141"/><g fill="#4AB6E4"><path d="M31.884 120.42h3.29v5.195c-1.453 1.621-3.465 2.433-6.035 2.433-2.149 0-3.958-.713-5.418-2.139-1.46-1.425-2.188-3.225-2.188-5.396s.742-3.982 2.229-5.438c1.488-1.451 3.283-2.18 5.387-2.18s3.933.69 5.479 2.073l-1.697 2.452c-.657-.571-1.261-.967-1.813-1.186a4.871 4.871 0 0 0-1.792-.323c-1.243 0-2.292.423-3.146 1.268-.853.847-1.277 1.961-1.277 3.345 0 1.383.407 2.488 1.229 3.318.816.832 1.792 1.248 2.924 1.248s2.074-.217 2.829-.648l-.001-4.022zM47.538 126.24c-1.271 1.2-2.767 1.803-4.478 1.803-1.712 0-3.126-.524-4.244-1.582-1.114-1.055-1.677-2.469-1.677-4.244 0-1.771.569-3.185 1.708-4.231 1.14-1.047 2.483-1.569 4.034-1.569s2.868.468 3.95 1.403c1.083.937 1.625 2.223 1.625 3.854v1.679h-8.215c.097.614.419 1.117.964 1.511a3.07 3.07 0 0 0 1.844.586c1.104 0 2.012-.368 2.725-1.108l1.764 1.898zm-3.017-6.685c-.433-.363-.96-.545-1.582-.545s-1.188.188-1.708.564a2.163 2.163 0 0 0-.897 1.529h4.942c-.071-.667-.323-1.185-.755-1.548zM54.35 118.86v5.051c0 .433.111.771.335 1.017.226.243.489.364.796.364.587 0 1.083-.264 1.488-.795l1.174 2.199c-.979.896-2.009 1.342-3.091 1.342-1.083 0-1.998-.354-2.746-1.066-.747-.714-1.121-1.686-1.121-2.912v-5.196h-1.318v-2.266h1.318v-3.375h3.165v3.375h2.727v2.265l-2.727-.003zM70.696 113.23v2.912h-7.294v3.021h6.563v2.787h-6.563v3.038h7.523v2.893H60.133v-14.649l10.563-.002zM76.564 121.59v6.287H73.42v-11.273h3.144v1.258c.95-.963 2.021-1.444 3.206-1.444 1.188 0 2.188.419 2.986 1.258.804.838 1.205 1.956 1.205 3.354v6.854h-3.146v-6.371c0-1.729-.636-2.598-1.903-2.598-.63 0-1.181.228-1.646.681-.469.449-.702 1.116-.702 1.994zM89.661 127.88l-4.466-11.294h3.271l2.809 7.104 2.812-7.104h3.27l-4.464 11.294h-3.232zM109.93 122.24c0 1.635-.564 3.01-1.697 4.129-1.132 1.116-2.554 1.676-4.265 1.676-1.712 0-3.133-.56-4.267-1.676-1.134-1.119-1.695-2.494-1.695-4.129 0-1.636.563-3.017 1.695-4.14 1.134-1.125 2.555-1.688 4.267-1.688 1.711 0 3.133.563 4.265 1.688 1.131 1.123 1.697 2.504 1.697 4.14zm-8.76 0c0 .922.262 1.674.786 2.252.521.58 1.19.868 2.012.868.816 0 1.488-.288 2.012-.868.523-.578.786-1.33.786-2.252 0-.923-.263-1.679-.786-2.265-.521-.588-1.192-.881-2.012-.881s-1.488.293-2.012.881c-.524.586-.786 1.342-.786 2.265zM113.93 132.32c-1.104 0-2.145-.446-3.123-1.342l1.426-2.326c.53.519 1.075.773 1.636.773.296 0 .548-.143.757-.43.21-.287.313-.592.313-.912 0-.319-1.453-4.146-4.355-11.482h3.354l2.745 7.021 2.745-7.021h3.354l-5.237 13.286c-.312.77-.786 1.364-1.438 1.791a3.896 3.896 0 0 1-2.177.642z"/></g></svg>