<svg width="520" height="200" xml:space="preserve" xmlns="http://www.w3.org/2000/svg"><path d="M50.636 145.797c12.845 14.81 31.775 24.204 52.872 24.204 21.033 0 39.914-9.339 52.756-24.072-15.757 3.513-33.595 5.579-52.508 5.579-19.155 0-37.214-2.115-53.12-5.71M57.533 100.154c1.5 1.01 5.402 2.751 13.608 4.258 8.995 1.65 20.58 2.561 32.616 2.561 12.038 0 23.622-.91 32.617-2.561 8.206-1.507 12.109-3.247 13.608-4.258-1.499-1.009-5.402-2.75-13.608-4.256-8.588-1.577-19.542-2.467-30.993-2.545v4.902a1.353 1.353 0 1 1-2.705 0v-4.908c-11.647.053-22.81.95-31.536 2.55-8.205 1.508-12.108 3.248-13.607 4.257M102.675 69.682c-24.813.097-48.168 3.535-66.068 9.724a69.566 69.566 0 0 0-1.924 7.916c14.718-7.1 39.637-11.803 67.993-11.92v-5.72" fill="#239de0"/><path d="M41.466 132.354a70.362 70.362 0 0 0 8.598 12.783c16.555 3.805 34.878 5.83 53.692 5.83 18.583 0 36.682-1.977 53.075-5.692a70.248 70.248 0 0 0 8.622-12.731c-16.948 5.38-38.375 8.777-61.697 8.777-23.594 0-45.25-3.476-62.291-8.967M52.757 93.91c-7.63 2.431-11.306 5.112-12.43 7.283 1.124 3.596 7.106 7.82 18.586 11.197 12.34 3.6 28.265 5.582 44.843 5.582 16.58 0 32.504-1.983 44.844-5.582 11.48-3.377 17.462-7.601 18.588-11.197-1.126-2.171-4.802-4.852-12.432-7.282-3.356-1.622-7.494-3.071-12.321-4.313-10.552-2.58-23.477-4.02-37.055-4.127v4.087c27.182.18 48.956 4.854 48.956 10.597 0 5.858-22.646 10.608-50.58 10.608-27.934 0-50.579-4.75-50.579-10.608 0-5.781 22.064-10.479 49.498-10.6v-4.093c-13.776.075-26.904 1.523-37.597 4.136-4.827 1.242-8.965 2.691-12.32 4.313" fill="#239de0"/><path d="M35.995 118.451a69.448 69.448 0 0 0 4.545 12.099c18.053 6.09 40.205 9.42 63.216 9.42 22.754 0 44.672-3.253 62.614-9.214a69.351 69.351 0 0 0 4.568-12.017c-15.106 7.294-39.567 12.396-67.182 12.396-27.973 0-52.706-5.237-67.761-12.684M102.675 61.79c-22.265.075-43.518 2.485-61.753 6.918a69.585 69.585 0 0 0-3.611 8.588c17.351-5.5 40.233-8.875 65.363-8.97V61.79" fill="#239de0"/><path d="M102.675 30.03c-26.749.317-49.924 15.706-61.43 38.057 17.738-4.26 38.808-6.752 61.43-6.83V30.031M105.38 77.574v4.91c36.158.242 65.21 8.522 65.21 18.709 0 10.338-29.923 19.757-66.834 19.757s-66.832-9.418-66.832-19.757c0-10.238 29.342-18.55 65.75-18.713v-4.91c-19.317.088-37.58 2.54-51.885 6.949-6.735 2.139-12.254 4.629-16.415 7.405-.141.066-.271.134-.41.202a70.421 70.421 0 0 0-.455 7.877c0 5.248.6 10.357 1.7 15.278 3.212 1.792 7.032 3.507 11.477 5.087 15.682 5.547 35.951 8.603 57.07 8.603 21.12 0 41.387-3.056 57.071-8.603 4.181-1.486 7.815-3.092 10.906-4.769a69.922 69.922 0 0 0 1.774-15.596c0-2.76-.179-5.479-.49-8.158-4.149-2.744-9.62-5.207-16.293-7.326-14.171-4.367-32.225-6.813-51.344-6.945M105.38 68.333c24.647.14 47.108 3.433 64.265 8.788a69.346 69.346 0 0 0-3.624-8.556c-17.96-4.307-38.81-6.658-60.641-6.769v6.537" fill="#239de0"/><path d="M105.38 30.058v31.204c22.18.113 42.846 2.55 60.324 6.693-11.38-21.988-34.066-37.201-60.324-37.897M105.38 75.412c27.797.173 52.225 4.751 66.91 11.666a69.345 69.345 0 0 0-1.933-7.855c-17.695-6.026-40.614-9.393-64.977-9.537v5.726" fill="#239de0"/><path d="M136.37 95.899c8.206 1.506 12.109 3.247 13.608 4.256-1.499 1.01-5.402 2.751-13.608 4.257-8.995 1.651-20.578 2.562-32.617 2.562-12.037 0-23.62-.91-32.616-2.562-8.206-1.506-12.108-3.246-13.608-4.257 1.5-1.01 5.402-2.75 13.608-4.256 8.725-1.602 19.887-2.498 31.535-2.55v-3.794c-27.433.121-49.497 4.819-49.497 10.6 0 5.858 22.644 10.608 50.578 10.608 27.934 0 50.58-4.75 50.58-10.608 0-5.743-21.774-10.418-48.956-10.597v3.795c11.45.078 22.405.97 30.993 2.546" fill="#fff"/><path d="M142.436 89.597c4.827 1.242 8.966 2.691 12.321 4.313 7.63 2.43 11.307 5.111 12.432 7.282-1.125 3.596-7.108 7.82-18.587 11.198-12.34 3.598-28.265 5.581-44.845 5.581-16.578 0-32.503-1.983-44.842-5.581-11.48-3.378-17.463-7.602-18.587-11.198 1.125-2.17 4.8-4.852 12.43-7.282 3.357-1.622 7.495-3.071 12.322-4.313 10.692-2.613 23.82-4.06 37.596-4.135v-2.983c-36.408.163-65.75 8.475-65.75 18.713 0 10.338 29.922 19.757 66.832 19.757s66.833-9.419 66.833-19.757c0-10.188-29.052-18.467-65.21-18.71v2.988c13.579.108 26.504 1.548 37.056 4.127M103.756 61.243c.544 0 1.082.01 1.624.014V30.052c-.624-.016-1.245-.046-1.872-.046-.28 0-.555.018-.834.02v31.227c.362-.002.72-.01 1.082-.01" fill="#fff"/><path d="M104.028 99.61c.747 0 1.353-.606 1.353-1.355v-4.902c-.542-.004-1.08-.016-1.624-.016-.363 0-.72.01-1.082.01v4.908c0 .749.605 1.354 1.353 1.354M102.675 61.79v6.536c.362 0 .719-.01 1.081-.01.545 0 1.083.011 1.624.014v-6.536c-.541-.004-1.08-.013-1.624-.013-.361 0-.72.008-1.081.01M102.675 77.57v4.91c.36-.002.719-.008 1.081-.008.545 0 1.083.008 1.624.012v-4.91c-.541-.004-1.08-.013-1.624-.013-.361 0-.72.007-1.081.009M103.756 89.548c.544 0 1.083.005 1.624.009V85.47c-.543-.004-1.08-.02-1.624-.02-.363 0-.72.01-1.082.012v4.092c.36-.002.72-.006 1.082-.006M102.675 69.682v5.72c.36-.002.72-.007 1.081-.007.546 0 1.082.014 1.624.017v-5.726c-.541-.003-1.08-.013-1.624-.013-.361 0-.72.007-1.081.009" fill="#fff"/><path d="M102.675 89.555v3.793c.362-.002.719-.01 1.081-.01.545 0 1.083.01 1.624.015v-3.796c-.54-.003-1.08-.009-1.624-.009-.362 0-.72.004-1.081.007M102.675 82.479v2.983c.362-.001.719-.013 1.081-.013.545 0 1.082.017 1.624.021v-2.987c-.541-.004-1.08-.012-1.624-.012-.362 0-.72.006-1.081.008M103.756 128.971c-21.118 0-41.387-3.056-57.07-8.603-4.445-1.58-8.265-3.295-11.477-5.087a67.7 67.7 0 0 0 .786 3.17c15.055 7.447 39.788 12.684 67.76 12.684 27.615 0 52.077-5.102 67.183-12.396a68.58 68.58 0 0 0 .795-3.14c-3.092 1.677-6.726 3.283-10.907 4.77-15.683 5.546-35.95 8.602-57.07 8.602M105.38 77.574c19.118.132 37.172 2.578 51.344 6.945 6.672 2.119 12.144 4.582 16.292 7.325a70.961 70.961 0 0 0-.726-4.766c-14.685-6.915-39.113-11.493-66.91-11.666v2.162M50.79 84.519c14.304-4.409 32.567-6.86 51.885-6.95v-2.167c-28.356.117-53.275 4.82-67.993 11.92a69.598 69.598 0 0 0-.717 4.803c.138-.067.268-.135.41-.202 4.16-2.776 9.678-5.265 16.415-7.404M102.675 75.402v2.167c.36-.002.72-.008 1.081-.008.544 0 1.083.008 1.624.013v-2.162c-.542-.002-1.078-.017-1.624-.017-.361 0-.72.006-1.081.007M105.38 69.686c24.363.144 47.282 3.511 64.977 9.537-.22-.708-.47-1.403-.712-2.1-17.157-5.356-39.618-8.65-64.265-8.79v1.353M102.675 68.329c-25.13.094-48.012 3.47-65.364 8.97-.24.699-.485 1.397-.704 2.107 17.9-6.19 41.255-9.627 66.068-9.724v-1.353M102.675 68.329v1.353c.36-.002.72-.01 1.081-.01.544 0 1.083.01 1.624.013v-1.352c-.541-.003-1.08-.015-1.624-.015-.362 0-.72.01-1.081.01" fill="#fff"/><path d="M40.54 130.55c.296.608.612 1.205.925 1.804 17.04 5.491 38.697 8.967 62.292 8.967 23.32 0 44.748-3.396 61.697-8.777.312-.592.623-1.185.917-1.789-17.942 5.961-39.86 9.215-62.614 9.215-23.01 0-45.163-3.33-63.216-9.42M105.38 61.79c21.831.11 42.682 2.461 60.641 6.77-.105-.208-.212-.412-.317-.618-17.478-4.143-38.145-6.58-60.324-6.693v.541M102.675 61.257c-22.622.077-43.692 2.57-61.43 6.83-.109.21-.217.418-.324.629 18.236-4.433 39.489-6.843 61.753-6.918v-.541" fill="#fff"/><path d="M102.675 61.257v.541c.36-.001.72-.01 1.081-.01.544 0 1.083.01 1.624.014v-.541c-.541-.004-1.08-.014-1.624-.014-.362 0-.72.008-1.081.01M50.064 145.137c.188.222.382.44.572.66 15.907 3.596 33.965 5.711 53.12 5.711 18.913 0 36.752-2.066 52.508-5.579.191-.217.38-.433.567-.653-16.393 3.714-34.492 5.692-53.075 5.692-18.814 0-37.137-2.026-53.692-5.83" fill="#fff"/><path d="M223.474 99.617h22v21.52c-5.12 5.119-13.76 8.399-21.358 8.399-15.2 0-28.158-13.04-28.158-28.478 0-15.44 12.958-28.4 28.158-28.4 7.598 0 16.238 3.201 21.358 8.4l-4.24 4.32c-4-4.239-11.118-6.96-17.118-6.96-11.84 0-21.84 10.4-21.84 22.64 0 12.32 10 22.718 21.84 22.718 5.12 0 11.038-2 15.118-5.12v-13.119h-15.76v-5.919M255.314 73.62h6.24v54.955h-6.24V73.62M272.993 73.62h6.24l20.398 38.317 20.398-38.318h6.242v54.956h-6.242V87.057l-20.398 38.32-20.398-38.32v41.518h-6.24V73.62M363.47 122.895c6.802 0 11.602-4.24 11.602-10.158 0-5.92-4.8-10.16-11.601-10.16h-18.318v20.318zm-.958-25.998c6.079 0 10.399-3.68 10.399-8.798 0-5.12-4.32-8.8-10.399-8.8h-17.36v17.599zm-23.6-23.278h25.2c8.879 0 15.12 5.68 15.12 13.68 0 5.838-2.88 9.199-7.84 12.079 6.319 3.2 9.998 8.158 9.998 14.158 0 8.8-6.8 15.038-16.318 15.038h-26.16V73.618M426.51 110.177l-12.72-28.878-12.8 28.878zm2.56 5.919h-30.64l-5.52 12.479h-6.798l24.238-54.956h6.8l24.238 54.956h-6.8l-5.519-12.479M483.228 122.655v5.92H446.99V73.617h6.24v49.037h29.998" fill="#696566"/></svg>