<svg id="Layer_1" data-name="Layer 1" xmlns="http://www.w3.org/2000/svg" viewBox="0 0 300 440"><defs><style>.cls-1{fill:#316be6;}.cls-2{fill:#fff;}</style></defs><title>Heptio_OS-logo_Gimbal</title><path d="M110.5,415.58a14.41,14.41,0,0,1-10.66,4.79,15.86,15.86,0,0,1-7.21-1.69,19.23,19.23,0,0,1-5.9-4.54,21.76,21.76,0,0,1-4-6.57,21.24,21.24,0,0,1-1.44-7.73,20.85,20.85,0,0,1,1.44-7.75,20,20,0,0,1,4-6.38,19.36,19.36,0,0,1,6-4.34,19.09,19.09,0,0,1,16.89.76,15.2,15.2,0,0,1,5.87,6.37l-5.81,4.29a10.86,10.86,0,0,0-4-4.57,10.63,10.63,0,0,0-5.67-1.58,9.36,9.36,0,0,0-4.48,1.07,10.47,10.47,0,0,0-3.42,2.94,14.55,14.55,0,0,0-2.2,4.28,16.7,16.7,0,0,0-.79,5.14,16.17,16.17,0,0,0,.85,5.27,13.18,13.18,0,0,0,2.37,4.26A11.46,11.46,0,0,0,96,412.45a10,10,0,0,0,4.54,1q5.53,0,10-5.47V405.2h-8.06v-5.7h14.49v20.59H110.5Z"/><path d="M122.85,420.09V390.53h7.56v29.56Z"/><path d="M183,420.09h-7.55V403.51c0-2.37-.42-4.1-1.24-5.19a4,4,0,0,0-3.39-1.64,6.28,6.28,0,0,0-4.17,1.72,9.41,9.41,0,0,0-2.82,4.49v17.2H156.3V403.51q0-3.56-1.21-5.19a4,4,0,0,0-3.36-1.64,6.45,6.45,0,0,0-4.2,1.69,9.24,9.24,0,0,0-2.85,4.46v17.26h-7.56V390.53H144V396a11.23,11.23,0,0,1,4.48-4.43A13.34,13.34,0,0,1,155,390a8.26,8.26,0,0,1,5.72,1.8,8.38,8.38,0,0,1,2.62,4.46,12.86,12.86,0,0,1,4.57-4.66,12.35,12.35,0,0,1,6.32-1.6,8.83,8.83,0,0,1,4.45,1,7.34,7.34,0,0,1,2.71,2.65,11.25,11.25,0,0,1,1.33,3.73,24.79,24.79,0,0,1,.36,4.22Z"/><path d="M206.33,420.65a12,12,0,0,1-6-1.52,11.08,11.08,0,0,1-4.17-4.18v5.14h-6.6V378.92h7.56v16.8a11.43,11.43,0,0,1,4.14-4.2,11.68,11.68,0,0,1,5.95-1.49,11.29,11.29,0,0,1,5.28,1.24,13,13,0,0,1,4.11,3.33,14.92,14.92,0,0,1,2.65,4.9,18.53,18.53,0,0,1,.93,5.92,16.66,16.66,0,0,1-1,6,14.91,14.91,0,0,1-2.9,4.82,13.58,13.58,0,0,1-4.4,3.25A12.81,12.81,0,0,1,206.33,420.65Zm-2.09-6.43a7.66,7.66,0,0,0,3.3-.7,8.4,8.4,0,0,0,2.59-1.89,8.3,8.3,0,0,0,1.7-2.76,9.74,9.74,0,0,0,.59-3.39,10.39,10.39,0,0,0-.57-3.44,9,9,0,0,0-1.6-2.88,8.2,8.2,0,0,0-2.46-2,6.59,6.59,0,0,0-3.1-.73,6.92,6.92,0,0,0-4.54,1.66,11,11,0,0,0-3.07,4.09v7.05a6.47,6.47,0,0,0,1.15,2,8.42,8.42,0,0,0,1.72,1.55,8.62,8.62,0,0,0,2.09,1A7.18,7.18,0,0,0,204.24,414.22Z"/><path d="M233.34,420.65a11.18,11.18,0,0,1-4-.7,9.58,9.58,0,0,1-3.22-2,9,9,0,0,1-2.87-6.68,8.18,8.18,0,0,1,.93-3.86,8.82,8.82,0,0,1,2.59-3,12.74,12.74,0,0,1,4-2,17.31,17.31,0,0,1,5.07-.7,21.51,21.51,0,0,1,3.87.34,15.61,15.61,0,0,1,3.35.95v-1.69a5.92,5.92,0,0,0-1.66-4.51,7,7,0,0,0-4.94-1.58,12.9,12.9,0,0,0-4.62.85,21.22,21.22,0,0,0-4.63,2.48l-2.31-4.8a21.9,21.9,0,0,1,12.3-3.77q6.36,0,9.9,3.13t3.52,9v9.19a2.52,2.52,0,0,0,.45,1.69,2.2,2.2,0,0,0,1.58.57v6.43a18.16,18.16,0,0,1-2,.31c-.62.05-1.16.08-1.61.08a5.2,5.2,0,0,1-3.27-1,4.11,4.11,0,0,1-1.41-2.51l-.17-1.64a13.08,13.08,0,0,1-4.79,3.95A13.83,13.83,0,0,1,233.34,420.65Zm2.14-5.53a9.85,9.85,0,0,0,3.64-.67,6.51,6.51,0,0,0,2.68-1.81A2.7,2.7,0,0,0,243,410.5v-3.38a18.65,18.65,0,0,0-2.93-.82,15.55,15.55,0,0,0-3.05-.31,8.09,8.09,0,0,0-4.79,1.32,4,4,0,0,0-1.86,3.36,4.07,4.07,0,0,0,1.46,3.19A5.37,5.37,0,0,0,235.48,415.12Z"/><path d="M257.76,378.92h7.56v31.35c0,2.3,1,3.44,3.1,3.44a5.49,5.49,0,0,0,1.44-.22c.54-.15,1.06-.32,1.55-.51l1,6a14.25,14.25,0,0,1-3.55,1.12,18.8,18.8,0,0,1-3.66.4,7.57,7.57,0,0,1-5.5-1.89,7.15,7.15,0,0,1-1.95-5.39Z"/><path d="M61.39,364H49.12V337.13q0-5.69-2.1-8.38a7.12,7.12,0,0,0-6-2.7,9.33,9.33,0,0,0-3.48.73,13.81,13.81,0,0,0-3.48,2.06,17.49,17.49,0,0,0-3,3.16,12.2,12.2,0,0,0-2,4v28H16.81V297.22H29.08V325a18.36,18.36,0,0,1,7.18-7.18,20.26,20.26,0,0,1,10-2.52,15.73,15.73,0,0,1,7.6,1.6,12.15,12.15,0,0,1,4.58,4.26,17.52,17.52,0,0,1,2.29,6,37.91,37.91,0,0,1,.64,7Z"/><path d="M92.11,365a26.63,26.63,0,0,1-10.43-2,23.52,23.52,0,0,1-13-13.22,25.3,25.3,0,0,1-1.79-9.43,26.71,26.71,0,0,1,1.74-9.66,23.68,23.68,0,0,1,5-8,24.19,24.19,0,0,1,8-5.45,26.75,26.75,0,0,1,10.58-2,26.08,26.08,0,0,1,10.48,2,24.39,24.39,0,0,1,7.87,5.4,23.11,23.11,0,0,1,4.94,7.88,26.17,26.17,0,0,1,1.69,9.33c0,.79,0,1.56,0,2.29a9.45,9.45,0,0,1-.23,1.83H79.85a14.17,14.17,0,0,0,1.37,5A12.34,12.34,0,0,0,88,355.16a12.93,12.93,0,0,0,4.58.82,14.12,14.12,0,0,0,6.91-1.78,9.4,9.4,0,0,0,4.44-4.72l10.53,2.93a21.4,21.4,0,0,1-8.47,9A26.23,26.23,0,0,1,92.11,365ZM104.56,336a12.71,12.71,0,0,0-4-8.65,12.51,12.51,0,0,0-17,0,12.51,12.51,0,0,0-2.7,3.76A13.18,13.18,0,0,0,79.67,336Z"/><path d="M151.26,365a18.85,18.85,0,0,1-9.88-2.52,17.77,17.77,0,0,1-6.59-6.82v27.92H122.52V316.07h10.71v8.24a19.57,19.57,0,0,1,6.87-6.64,19.13,19.13,0,0,1,9.7-2.42,20.45,20.45,0,0,1,9,2,22.17,22.17,0,0,1,7.09,5.31,24.71,24.71,0,0,1,4.67,7.87,27.06,27.06,0,0,1,1.69,9.56,30.45,30.45,0,0,1-1.55,9.8,25.16,25.16,0,0,1-4.35,8,20.16,20.16,0,0,1-6.64,5.31A18.57,18.57,0,0,1,151.26,365Zm-4.12-10.43a11,11,0,0,0,5.08-1.19,12.33,12.33,0,0,0,4-3.21,15.06,15.06,0,0,0,2.56-4.67,16.68,16.68,0,0,0,.91-5.49,15.54,15.54,0,0,0-1-5.63,13.94,13.94,0,0,0-2.8-4.53,12.85,12.85,0,0,0-4.21-3,12.61,12.61,0,0,0-5.26-1.1,11.42,11.42,0,0,0-3.57.6,12.8,12.8,0,0,0-3.39,1.69,15.08,15.08,0,0,0-2.79,2.57,10.46,10.46,0,0,0-1.87,3.2V345a16.24,16.24,0,0,0,5,6.82A11.52,11.52,0,0,0,147.14,354.52Z"/><path d="M205.86,361.56a52.15,52.15,0,0,1-6,2.2,25.44,25.44,0,0,1-7.5,1.1,17.37,17.37,0,0,1-4.81-.64,10.54,10.54,0,0,1-3.94-2.06,10.22,10.22,0,0,1-2.7-3.66,13.3,13.3,0,0,1-1-5.45V325.5h-6.32v-9.43h6.32V300.51h12.26v15.56H202.2v9.43H192.13v23.43a4.35,4.35,0,0,0,1.33,3.62,5.07,5.07,0,0,0,3.25,1.05,11.2,11.2,0,0,0,3.75-.64c1.22-.43,2.2-.79,2.93-1.1Z"/><path d="M213.44,309.39V297.22H225.7v12.17Zm0,54.65v-48H225.7v48Z"/><path d="M258.1,365a26.37,26.37,0,0,1-10.53-2,23.66,23.66,0,0,1-7.92-5.45,24.19,24.19,0,0,1-5-7.92,25.81,25.81,0,0,1-1.73-9.42,26.07,26.07,0,0,1,1.73-9.52,24.19,24.19,0,0,1,5-7.92,23.81,23.81,0,0,1,7.92-5.45,26.37,26.37,0,0,1,10.53-2,26.05,26.05,0,0,1,10.48,2,23.9,23.9,0,0,1,7.87,5.45,24.19,24.19,0,0,1,5,7.92,26.64,26.64,0,0,1,0,18.94,24.56,24.56,0,0,1-4.94,7.92,23.1,23.1,0,0,1-7.88,5.45A26.35,26.35,0,0,1,258.1,365Zm-12.54-24.8a16.74,16.74,0,0,0,1,5.81,14.13,14.13,0,0,0,2.65,4.53,11.91,11.91,0,0,0,4,3,12.06,12.06,0,0,0,9.89,0,11.91,11.91,0,0,0,4-3,14.08,14.08,0,0,0,2.66-4.58,17.11,17.11,0,0,0,1-5.86,16.82,16.82,0,0,0-1-5.76,14.08,14.08,0,0,0-2.66-4.58,11.91,11.91,0,0,0-4-3,11.72,11.72,0,0,0-4.94-1.06,11.35,11.35,0,0,0-5,1.1,12.47,12.47,0,0,0-4,3,14.06,14.06,0,0,0-2.65,4.58A16.83,16.83,0,0,0,245.56,340.15Z"/><rect class="cls-1" x="16.81" y="19.48" width="266.38" height="266.38"/><path class="cls-2" d="M154,136.51c22.24,0,43.64,1.68,60.26,4.73,15.15,2.79,22.36,6,25.13,7.87-2.77,1.86-10,5.08-25.13,7.86-16.62,3.05-38,4.73-60.26,4.73S110.36,160,93.74,157c-15.15-2.78-22.37-6-25.13-7.86,2.76-1.87,10-5.08,25.13-7.87,16.62-3.05,38-4.73,60.26-4.73m0-7c-51.61,0-93.44,8.77-93.44,19.6S102.39,168.7,154,168.7s93.44-8.77,93.44-19.59-41.83-19.6-93.44-19.6Z"/><path class="cls-2" d="M154,121.94c26.18,0,51.18,2.71,71.46,7.66a124.2,124.2,0,0,1,22.76,8c14.09,4.49,20.88,9.44,23,13.45-2.08,6.65-13.13,14.45-34.34,20.69C214.05,178.36,184.63,182,154,182s-60-3.66-82.84-10.31C50,165.47,38.9,157.67,36.82,151c2.08-4,8.87-9,23-13.45a124.2,124.2,0,0,1,22.76-8c20.28-4.95,45.28-7.66,71.46-7.66m0-5.5c-68.19,0-123.47,15.48-123.47,34.58s55.28,36.5,123.47,36.5,123.47-17.4,123.47-36.5S222.19,116.44,154,116.44Z"/><path class="cls-2" d="M152,19.48V145.6a2.5,2.5,0,1,0,5,0V19.35Z"/><path class="cls-2" d="M283.19,180.85v-5.26a134.34,134.34,0,0,1-23.76,10.86C230.46,196.7,193,202.34,154,202.34S77.54,196.7,48.57,186.45c-13.82-4.92-24.45-10.52-31.76-16.34V176C42.05,193.3,94,206.34,154,206.34,208.23,206.34,255.89,195.69,283.19,180.85Z"/><path class="cls-2" d="M16.81,130.69v8.24a72.71,72.71,0,0,1,9-5c7.69-5.13,17.88-9.73,30.33-13.68,26.92-8.3,61.42-12.85,97.85-12.85s70.93,4.55,97.85,12.85c12.45,4,22.64,8.55,30.33,13.68.35.16.67.33,1,.5v-8.24c-27.3-13.71-75-22.79-129.19-22.79C94,103.37,42.05,114.48,16.81,130.69Z"/><path class="cls-2" d="M16.81,112v3.91c4.05-1.76,8.35-3.44,12.94-5,33.57-11.64,77.57-18,124.25-18s90.68,6.41,124.25,18c1.69.59,3.33,1.19,4.94,1.81V109C250,97.44,204.39,90.29,154,90.29,99.43,90.29,50.43,98.68,16.81,112Z"/><path class="cls-2" d="M283.19,203.6v-2.89l-1.17.48C246.87,215,201.4,222.66,154,222.66S61.13,215,26,201.19q-4.78-1.89-9.17-3.89v3C50.43,215.11,99.43,225.16,154,225.16,204.39,225.16,250,216.59,283.19,203.6Z"/><path class="cls-2" d="M16.81,95.81v1C55.15,84.79,103.21,78.22,154,78.22c47.32,0,92.26,5.71,129.19,16.24v-1C247.32,83.26,202.56,77.22,154,77.22,101.76,77.22,53.92,84.21,16.81,95.81Z"/><path class="cls-2" d="M283.19,224.94v-1C245.56,236.27,200.58,243,154,243c-49.93,0-98-7.7-137.19-21.83v1.06C53.92,235.48,101.76,244,154,244,202.56,244,247.32,236.64,283.19,224.94Z"/></svg>