<svg id="Layer_1" version="1.1" viewBox="0 0 300.45 361.61" xml:space="preserve" xmlns="http://www.w3.org/2000/svg"><style>.st1,.st3,.st4,.st5{fill-rule:evenodd;clip-rule:evenodd;fill:#5aacd8}.st3,.st4,.st5{fill:#fff}.st4,.st5{fill:#003c6a}.st5{fill:#f4fafb}</style><path d="M154.16 234.75c47.633 0 86.247 1.888 86.247 4.218s-38.615 4.219-86.247 4.219-86.246-1.89-86.246-4.219c0-2.33 38.614-4.218 86.246-4.218" style="opacity:.24;fill-rule:evenodd;clip-rule:evenodd"/><path class="st1" d="M106.15 239.76c23.098 0 27.491-15.063 42.763-15.184 15.271-.122 21.903 15.184 44.185 15.184 28.846 0 49.626-49.598 56.761-91.1 3.202 4.488 6.309 8.913 8.999 13.049 13.402 20.605 25.573 18.318 32.279 13.461 6.704-4.855 8.377-20.299-5.035-35.841-6.961-8.068-21.053-18.563-33.77-25.804-3.55-50.601-48.074-84.185-102.49-84.185-19.974 0-38.61 4.53-54.383 12.759-3.572-2.64-7.358-4.772-11.967-6.688-10.32-4.292-11.203-1.187-11.94-10.066-.72-8.67-5.5-16.499-15.33-19.654C39.833.431 22.465 7.88 17.426 22.33 12.39 36.78 19.73 52.164 36.208 57.125c24.64 7.418 27.654-18.342 37.355-12.674 4.845 2.013 8.292 5.573 3.92 9.688-.262.223-.524.45-.785.677l-.11.088c-.064.05-.113.098-.156.145-16.63 14.553-27.413 34.624-29.084 58.48-12.717 7.242-26.804 17.733-33.765 25.8C.173 154.871 1.845 170.315 8.55 175.17c6.706 4.857 18.876 7.145 32.278-13.46 2.482-3.817 5.32-7.879 8.258-12.01 6.81 50.733 30.443 90.06 57.06 90.06"/><path d="M154.26 31.918c50.591 0 91.603 41.012 91.603 91.604 0 92.153-182.63 96.824-182.63-13.298 0-50.592 40.439-78.306 91.031-78.306" style="fill-rule:evenodd;clip-rule:evenodd;fill:#64bbe4"/><path class="st3" d="M257.77 127.63c-1.717 3.31 6.27 7.491 13.534 16.801 7.264 9.31 13.156 10.981 14.873 7.67 1.717-3.31-1.542-9.797-8.983-15.884-7.441-6.086-17.707-11.897-19.424-8.586M16.083 161.38c1.828 1.055 2.551 3.77 1.615 6.061-.937 2.293-3.178 3.295-5.006 2.24-1.828-1.056-2.552-3.77-1.615-6.062.936-2.293 3.178-3.295 5.006-2.239m26.518-34.549c3.436 1.63-7.739 3.536-18.649 22.37-3.895 6.724-4.828 10.435-8.245 9.582-1.466-.366-4.826-2.394.775-11.705 5.601-9.312 22.318-22.052 26.119-20.247z"/><path class="st4" d="M149.91 134.86c15.536 0 21.251-5.46 27.993.563 6.744 6.023-6.043 25.903-28.129 25.903-22.086 0-34.487-19.673-28.129-25.903 6.357-6.23 12.729-.563 28.264-.563"/><path class="st1" d="M164.65 154.57c-3.994 2.464-9.058 4.159-14.915 4.159-6.063 0-11.24-1.797-15.26-4.383.339-4.71 8.77-7.248 15.082-4.128 6.624-3.12 14.951-.463 15.093 4.352"/><path class="st3" d="M149.9 136.65c10.172 0 15.771-2.196 20.374-2.189.002.078.005.158.005.238 0 3.548-2.663 6.426-5.948 6.426a5.584 5.584 0 0 1-2.924-.83c-1.087 2.11-3.337 3.561-5.936 3.561-2.296 0-4.32-1.133-5.509-2.853-1.19 1.72-3.213 2.853-5.51 2.853-2.647 0-4.93-1.504-5.993-3.678-.905.6-1.97.947-3.108.947-3.285 0-5.948-2.878-5.948-6.426 0-.104.002-.207.007-.31 4.6.097 10.319 2.26 20.49 2.26"/><path class="st5" d="M232.48 87.653c2.002-.34 4.213 1.301 4.935 3.667.722 2.366-.316 4.559-2.32 4.899-2.002.34-4.212-1.302-4.934-3.667-.721-2.366.317-4.56 2.319-4.899m-81.128-28.117c-17.897 3.668-23.46-13.596-.829-19.06 28.35-6.844 68.597 11.636 80.67 37.08 3.214 6.777-1.812 9.317-7.3 2.526-15.198-18.8-42.516-26.7-72.54-20.546z"/><path class="st4" d="M203.98 108.82c8.999 0 16.293 7.295 16.293 16.293s-7.294 16.293-16.293 16.293c-8.999 0-16.292-7.295-16.292-16.293 0-8.999 7.294-16.293 16.292-16.293"/><path class="st5" d="M211.36 114.04a4.545 4.545 0 1 1 0 9.09 4.545 4.545 0 0 1 0-9.09"/><path class="st4" d="M95.703 108.82c8.998 0 16.293 7.295 16.293 16.293s-7.294 16.293-16.293 16.293c-8.998 0-16.293-7.295-16.293-16.293 0-8.999 7.295-16.293 16.293-16.293"/><path class="st5" d="M103.09 114.04a4.545 4.545 0 1 1 0 9.09 4.545 4.545 0 0 1 0-9.09"/><path class="st3" d="M51.19 8.779c6.162 0 11.157 4.995 11.157 11.157 0 11.224-22.244 11.793-22.244-1.62 0-6.162 4.925-9.537 11.088-9.537"/><path class="st1" d="M157.99 329c1.13 2.587 2.92 4.28 5.375 5.075 2.454.796 5.241.53 8.36-.796 3.052-1.327 5.158-3.134 6.319-5.424 1.16-2.29 1.211-4.727.149-7.316-1.127-2.52-2.92-4.195-5.374-5.024-2.454-.83-5.208-.581-8.261.746-3.118 1.326-5.257 3.151-6.418 5.474-1.161 2.32-1.212 4.744-.15 7.265m61.405 0c1.13 2.587 2.92 4.28 5.375 5.075 2.454.796 5.241.53 8.359-.796 3.053-1.327 5.16-3.135 6.32-5.424 1.161-2.29 1.211-4.727.15-7.316-1.128-2.52-2.919-4.195-5.374-5.024-2.455-.83-5.209-.581-8.26.746-3.119 1.326-5.259 3.151-6.42 5.474-1.161 2.32-1.212 4.743-.15 7.265zm-100.56-53.928 4.928-.392c8.933-.712 10.232-.039 10.13 9.078l-.64 57.407c-.076 6.82.02 12.802-6.014 13.318l-6.872.588c-9.447.81-8.175-1.416-8.256-10.654l-.506-58.17c-.082-9.308-1.79-10.457 7.23-11.175zm-37.926 25.414c-2.023-1.028-4.296-1.543-6.817-1.543-2.455 0-5.01.53-7.664 1.593a25.01 25.01 0 0 0-7.265 4.478c-2.19 1.925-3.997 4.28-5.424 7.067-1.427 2.787-2.14 5.937-2.14 9.455-.067 3.25.447 5.855 1.542 7.812 1.095 1.957 2.488 3.366 4.18 4.23 1.693.862 3.567 1.243 5.624 1.144 11.175-.54 23.423-11.773 9.759-9.18-6.648 1.262-11.008 1.692-10.227-4.401.807-6.302.866-9.68 10.61-10.91l22.323-2.815c11.29-1.423 14.147 1.25 12.967 10.686-.52 4.16-2.29 7.813-3.981 11.197-1.692 3.383-3.466 6.42-5.324 9.106-1.859 2.687-3.401 4.727-4.628 6.12-1.227 1.395-1.907 2.157-2.04 2.29-2.39 2.389-5.292 4.478-8.709 6.27-3.416 1.791-7.082 3.152-10.997 4.08-3.914.93-7.961 1.344-12.141 1.245-4.18-.1-8.16-.83-11.943-2.19-3.782-1.36-7.281-3.433-10.5-6.22-3.218-2.786-5.822-6.403-7.812-10.848-2.256-4.976-3.55-9.936-3.882-14.88-.331-4.942.066-9.719 1.194-14.33a46.502 46.502 0 0 1 5.424-13.087 52.586 52.586 0 0 1 8.957-11.096 54.869 54.869 0 0 1 11.694-8.41 50.176 50.176 0 0 1 13.634-4.976c.134 0 .847-.084 2.14-.249 1.294-.166 3.169-.183 5.623-.05 2.456.132 5.209.614 8.261 1.443 3.052.83 6.37 2.223 9.953 4.18 13.5 7.376 9.166 10.738 5.076 16.302-1.714 2.331-3.623 4.635-5.04 5.996-2.961 2.841-7.023 3.24-12.427.493zm165.14-9.184c-2.66 1.106-4.69 2.377-6.71 4.11-.356-.09-.717-.173-1.081-.25-4.015-.863-8.245-.996-12.69-.399s-8.476 1.875-12.092 3.832c-3.616 1.957-6.634 4.462-9.056 7.514-2.422 3.052-4.18 6.552-5.275 10.5l-.07.258c-.772-3.1-1.926-5.925-3.463-8.47-2.123-3.516-4.776-6.385-7.962-8.608-3.185-2.223-6.784-3.765-10.798-4.628s-8.243-.995-12.69-.398c-4.444.596-8.475 1.874-12.091 3.831-3.616 1.958-6.634 4.463-9.056 7.514-2.422 3.053-4.18 6.553-5.275 10.5-1.095 3.947-1.31 8.21-.647 12.788.597 4.579 1.957 8.609 4.08 12.093 2.123 3.483 4.777 6.337 7.962 8.56 3.184 2.222 6.8 3.764 10.848 4.627 4.047.862 8.293.995 12.739.397 4.444-.597 8.476-1.874 12.092-3.831 3.615-1.958 6.633-4.445 9.055-7.464 2.423-3.02 4.181-6.503 5.276-10.45l.045-.165c.738 3.056 1.867 5.831 3.389 8.327 2.123 3.482 4.776 6.336 7.962 8.559 3.184 2.222 6.8 3.765 10.847 4.627 4.047.863 8.292.996 12.739.398 4.445-.597 8.476-1.875 12.092-3.832 3.615-1.957 6.634-4.445 9.056-7.464 2.422-3.019 4.18-6.502 5.276-10.449 1.094-3.948 1.31-8.21.645-12.79-.663-4.577-2.056-8.625-4.18-12.14-2.122-3.516-4.773-6.383-7.957-8.607l-.004-.003c-2.476-1.932-.922-3.62 1.317-4.55 4.223-2.469 5.535 8.747 16.263 5.518 7.176-2.16 10.371-8.858 8.177-15.15-2.193-6.292-9.756-9.535-16.89-7.245-4.28 1.374-6.361 4.782-6.675 8.557-.32 3.866-.705 2.514-5.199 4.382z"/><path class="st3" d="M267.24 282.12a4.476 4.476 0 0 0-4.476 4.476c0 4.502 8.924 4.73 8.924-.65 0-2.472-1.976-3.826-4.448-3.826"/></svg>