<?xml version="1.0" encoding="UTF-8" standalone="no"?>
<svg
   xmlns:dc="http://purl.org/dc/elements/1.1/"
   xmlns:cc="http://creativecommons.org/ns#"
   xmlns:rdf="http://www.w3.org/1999/02/22-rdf-syntax-ns#"
   xmlns:svg="http://www.w3.org/2000/svg"
   xmlns="http://www.w3.org/2000/svg"
   viewBox="0 0 793.70135 793.70001"
   height="793.70001"
   width="793.70135"
   xml:space="preserve"
   id="svg2"
   version="1.1"><metadata
     id="metadata8"><rdf:RDF><cc:Work
         rdf:about=""><dc:format>image/svg+xml</dc:format><dc:type
           rdf:resource="http://purl.org/dc/dcmitype/StillImage" /></cc:Work></rdf:RDF></metadata><defs
     id="defs6"><clipPath
       id="clipPath18"
       clipPathUnits="userSpaceOnUse"><path
         id="path16"
         d="M 0,595.275 H 595.276 V 0 H 0 Z" /></clipPath><clipPath
       id="clipPath38"
       clipPathUnits="userSpaceOnUse"><path
         id="path36"
         d="m 244.229,263.185 h 111.005 v -5.43 H 244.229 Z" /></clipPath></defs><g
     transform="matrix(1.3333333,0,0,-1.3333333,0,793.7)"
     id="g10"><g
       id="g12"><g
         clip-path="url(#clipPath18)"
         id="g14"><g
           transform="translate(254.2563,391.4702)"
           id="g20"><path
             id="path22"
             style="fill:#5aacd8;fill-opacity:1;fill-rule:evenodd;stroke:none"
             d="m 0,0 c 5.79,-2.408 9.561,-5.343 14.237,-10.212 l -6.436,-4.889 c -1.709,1.781 -14.078,1.125 -12.244,2.556 3.659,2.855 1.362,5.352 -1.947,6.727 -6.243,3.647 -8.183,-12.931 -24.04,-8.156 -10.605,3.193 -15.329,13.093 -12.086,22.392 3.243,9.299 14.42,14.093 24.966,10.708 6.327,-2.03 9.403,-7.068 9.866,-12.648 C -7.21,0.764 -6.642,2.762 0,0" /></g><g
           transform="translate(247.1235,345.855)"
           id="g24"><path
             id="path26"
             style="fill:#5aacd8;fill-opacity:1;fill-rule:evenodd;stroke:none"
             d="m 0,0 c 3.571,-4.539 -11.699,-22.402 -20.324,-35.663 -8.624,-13.26 -16.457,-11.788 -20.772,-8.663 -4.315,3.125 -5.391,13.064 3.24,23.066 C -29.227,-11.258 -3.571,4.54 0,0" /></g><g
           transform="translate(346.7847,345.855)"
           id="g28"><path
             id="path30"
             style="fill:#5aacd8;fill-opacity:1;fill-rule:evenodd;stroke:none"
             d="m 0,0 c -3.571,-4.539 11.698,-22.402 20.323,-35.663 8.625,-13.26 16.457,-11.788 20.773,-8.663 4.314,3.125 5.391,13.064 -3.24,23.066 C 29.226,-11.258 3.571,4.54 0,0" /></g><g
           id="g32"><g
             id="g34" /><g
             id="g46"><g
               style="opacity:0.24000501"
               id="g44"
               clip-path="url(#clipPath38)"><g
                 id="g42"
                 transform="translate(299.731,263.1846)"><path
                   id="path40"
                   style="fill:#000000;fill-opacity:1;fill-rule:evenodd;stroke:none"
                   d="M 0,0 C 30.654,0 55.503,-1.215 55.503,-2.715 55.503,-4.214 30.654,-5.43 0,-5.43 c -30.653,0 -55.502,1.216 -55.502,2.715 C -55.502,-1.215 -30.653,0 0,0" /></g></g></g></g><g
           transform="translate(268.834,259.9629)"
           id="g48"><path
             id="path50"
             style="fill:#5aacd8;fill-opacity:1;fill-rule:evenodd;stroke:none"
             d="M 0,0 C 14.865,0 17.692,9.694 27.52,9.772 37.348,9.85 41.616,0 55.956,0 c 23.18,0 38.27,49.774 38.27,77.018 0,34.905 -29.598,58.396 -66.106,58.396 -36.509,0 -66.106,-23.491 -66.106,-58.396 C -37.986,35.712 -20.347,0 0,0" /></g><g
           transform="translate(299.7983,393.7158)"
           id="g52"><path
             id="path54"
             style="fill:#64bbe4;fill-opacity:1;fill-rule:evenodd;stroke:none"
             d="m 0,0 c 32.558,0 58.951,-26.393 58.951,-58.951 0,-59.305 -117.533,-62.31 -117.533,8.558 C -58.582,-17.835 -32.558,0 0,0" /></g><g
           transform="translate(366.4136,332.1191)"
           id="g56"><path
             id="path58"
             style="fill:#ffffff;fill-opacity:1;fill-rule:evenodd;stroke:none"
             d="m 0,0 c -1.104,-2.13 4.035,-4.821 8.71,-10.812 4.675,-5.991 8.467,-7.066 9.571,-4.936 1.105,2.13 -0.992,6.306 -5.781,10.222 C 7.712,-1.609 1.105,2.13 0,0" /></g><g
           transform="translate(227.9409,332.6338)"
           id="g60"><path
             id="path62"
             style="fill:#ffffff;fill-opacity:1;fill-rule:evenodd;stroke:none"
             d="m 0,0 c 2.211,-1.049 -4.98,-2.275 -12.001,-14.396 -2.507,-4.328 -3.107,-6.715 -5.307,-6.167 -0.943,0.236 -3.106,1.541 0.499,7.533 C -13.204,-7.038 -2.447,1.161 0,0 m -17.066,-22.234 c 1.177,-0.679 1.643,-2.426 1.04,-3.901 -0.603,-1.475 -2.045,-2.12 -3.222,-1.441 -1.176,0.68 -1.642,2.426 -1.039,3.901 0.602,1.475 2.045,2.12 3.221,1.441" /></g><g
           transform="translate(296.9961,327.4663)"
           id="g64"><path
             id="path66"
             style="fill:#003c6a;fill-opacity:1;fill-rule:evenodd;stroke:none"
             d="m 0,0 c 9.998,0 13.675,3.514 18.015,-0.362 4.34,-3.876 -3.89,-16.67 -18.102,-16.67 -14.214,0 -22.194,12.66 -18.103,16.67 C -14.098,3.646 -9.998,0 0,0" /></g><g
           transform="translate(306.4839,314.7866)"
           id="g68"><path
             id="path70"
             style="fill:#5aacd8;fill-opacity:1;fill-rule:evenodd;stroke:none"
             d="m 0,0 c -2.57,-1.586 -5.829,-2.676 -9.599,-2.676 -3.901,0 -7.233,1.156 -9.82,2.82 0.218,3.032 5.644,4.665 9.706,2.656 C -5.45,4.809 -0.091,3.099 0,0" /></g><g
           transform="translate(296.9922,326.3135)"
           id="g72"><path
             id="path74"
             style="fill:#ffffff;fill-opacity:1;fill-rule:evenodd;stroke:none"
             d="m 0,0 c 6.545,0 10.149,1.414 13.111,1.409 0.002,-0.051 0.003,-0.101 0.003,-0.153 0,-2.283 -1.713,-4.135 -3.827,-4.135 -0.685,0 -1.327,0.194 -1.882,0.534 -0.699,-1.358 -2.148,-2.292 -3.82,-2.292 -1.478,0 -2.78,0.729 -3.545,1.836 -0.766,-1.107 -2.068,-1.836 -3.546,-1.836 -1.703,0 -3.173,0.969 -3.857,2.367 -0.582,-0.386 -1.267,-0.609 -2.001,-0.609 -2.114,0 -3.827,1.852 -3.827,4.135 0,0.067 0.002,0.134 0.004,0.2 C -10.227,1.393 -6.546,0 0,0" /></g><g
           transform="translate(297.9258,375.9424)"
           id="g76"><path
             id="path78"
             style="fill:#f4fafb;fill-opacity:1;fill-rule:evenodd;stroke:none"
             d="M 0,0 C -11.517,-2.36 -15.097,8.75 -0.534,12.266 17.71,16.67 43.611,4.778 51.38,-11.597 53.45,-15.958 50.214,-17.592 46.683,-13.223 36.903,-1.123 19.322,3.96 0,0 m 52.209,-18.094 c 1.29,0.219 2.711,-0.838 3.176,-2.36 0.465,-1.523 -0.203,-2.934 -1.492,-3.153 -1.289,-0.219 -2.711,0.837 -3.176,2.36 -0.465,1.522 0.203,2.934 1.492,3.153" /></g><g
           transform="translate(331.7935,344.2251)"
           id="g80"><path
             id="path82"
             style="fill:#003c6a;fill-opacity:1;fill-rule:evenodd;stroke:none"
             d="M 0,0 C 5.791,0 10.485,-4.694 10.485,-10.485 10.485,-16.276 5.791,-20.97 0,-20.97 c -5.791,0 -10.485,4.694 -10.485,10.485 C -10.485,-4.694 -5.791,0 0,0" /></g><g
           transform="translate(336.5464,340.8652)"
           id="g84"><path
             id="path86"
             style="fill:#f4fafb;fill-opacity:1;fill-rule:evenodd;stroke:none"
             d="M 0,0 C 1.615,0 2.924,-1.31 2.924,-2.925 2.924,-4.54 1.615,-5.85 0,-5.85 c -1.615,0 -2.926,1.31 -2.926,2.925 C -2.926,-1.31 -1.615,0 0,0" /></g><g
           transform="translate(262.1138,344.2251)"
           id="g88"><path
             id="path90"
             style="fill:#003c6a;fill-opacity:1;fill-rule:evenodd;stroke:none"
             d="M 0,0 C 5.791,0 10.485,-4.694 10.485,-10.485 10.485,-16.276 5.791,-20.97 0,-20.97 c -5.791,0 -10.485,4.694 -10.485,10.485 C -10.485,-4.694 -5.791,0 0,0" /></g><g
           transform="translate(266.8662,340.8652)"
           id="g92"><path
             id="path94"
             style="fill:#f4fafb;fill-opacity:1;fill-rule:evenodd;stroke:none"
             d="M 0,0 C 1.616,0 2.925,-1.31 2.925,-2.925 2.925,-4.54 1.616,-5.85 0,-5.85 c -1.615,0 -2.924,1.31 -2.924,2.925 C -2.924,-1.31 -1.615,0 0,0" /></g><g
           transform="translate(233.4678,408.6069)"
           id="g96"><path
             id="path98"
             style="fill:#ffffff;fill-opacity:1;fill-rule:evenodd;stroke:none"
             d="m 0,0 c 3.966,0 7.18,-3.215 7.18,-7.18 0,-7.223 -14.315,-7.59 -14.315,1.042 C -7.135,-2.172 -3.965,0 0,0" /></g><g
           transform="translate(268.5815,301.3311)"
           id="g100"><path
             id="path102"
             style="fill:#df9934;fill-opacity:1;fill-rule:evenodd;stroke:none"
             d="m 0,0 18.034,4.832 c 1.849,0.496 3.768,-0.612 4.263,-2.461 0.495,-1.85 -0.612,-3.768 -2.461,-4.264 L 1.801,-6.725 C -0.048,-7.221 -1.966,-6.113 -2.461,-4.264 -2.957,-2.414 -1.85,-0.496 0,0 m 4.238,-15.818 18.034,4.832 c 1.85,0.495 3.768,-0.613 4.264,-2.462 0.495,-1.849 -0.612,-3.768 -2.462,-4.263 L 6.04,-22.543 c -1.849,-0.496 -3.768,0.611 -4.263,2.461 -0.496,1.85 0.612,3.768 2.461,4.264" /></g><g
           transform="translate(268.5815,301.3311)"
           id="g104"><path
             id="path106"
             style="fill:#efc340;fill-opacity:1;fill-rule:evenodd;stroke:none"
             d="M 0,0 18.034,4.832 C 19.607,5.253 21.23,4.515 21.985,3.146 22.015,1.584 20.979,0.134 19.406,-0.288 L 1.372,-5.12 C -0.202,-5.542 -1.824,-4.804 -2.579,-3.436 -2.609,-1.873 -1.573,-0.422 0,0 m 26.223,-12.672 c 0.03,-1.561 -1.006,-3.013 -2.578,-3.434 L 5.61,-20.938 c -1.573,-0.422 -3.196,0.316 -3.951,1.684 -0.03,1.563 1.006,3.014 2.579,3.436 l 18.034,4.832 c 1.573,0.421 3.196,-0.318 3.951,-1.686" /></g><g
           transform="translate(247.5552,286.3906)"
           id="g108"><path
             id="path110"
             style="fill:#b73d3d;fill-opacity:1;fill-rule:nonzero;stroke:none"
             d="m 0,0 c 1.799,0.609 3.752,-0.355 4.361,-2.154 0.61,-1.799 -0.355,-3.752 -2.153,-4.362 -17.443,-5.951 -23.294,6.683 -28.829,18.633 -3.26,7.039 -6.379,13.774 -11.591,13.741 -6.162,-0.038 -9.001,-7.351 -12.32,-15.901 -5.964,-15.362 -13.198,-33.998 -42.155,-32.415 -1.896,0.097 -3.354,1.712 -3.258,3.608 0.097,1.896 1.713,3.355 3.609,3.258 24.005,-1.312 30.249,14.769 35.396,28.026 4.231,10.9 7.851,20.224 18.702,20.291 9.626,0.059 13.654,-8.637 17.864,-17.726 C -16.107,5.785 -11.595,-3.956 0,0" /></g><g
           transform="translate(330.4155,305.6396)"
           id="g112"><path
             id="path114"
             style="fill:#404553;fill-opacity:1;fill-rule:evenodd;stroke:none"
             d="m 0,0 -6.266,1.679 -3.668,0.983 c -1.345,0.36 -2.74,-0.446 -3.1,-1.79 l -8.027,-29.955 c -0.36,-1.346 0.445,-2.74 1.79,-3.102 l 3.667,-0.982 6.268,-1.68 c 9.582,-2.566 19.524,3.172 22.091,12.755 C 15.322,-12.509 9.583,-2.568 0,0" /></g><g
           transform="translate(330.4165,305.6396)"
           id="g116"><path
             id="path118"
             style="fill:#535864;fill-opacity:1;fill-rule:evenodd;stroke:none"
             d="m 0,0 -6.268,1.679 -3.667,0.983 c -1.345,0.36 -2.74,-0.445 -3.1,-1.79 l -6.401,-23.888 c 0.054,-0.018 0.109,-0.035 0.165,-0.049 l 3.667,-0.983 6.267,-1.68 c 9.582,-2.567 19.523,3.172 22.091,12.755 l 0.02,0.083 C 11.179,-6.82 6.465,-1.732 0,0" /></g><g
           transform="translate(340.7095,279.875)"
           id="g120"><path
             id="path122"
             style="fill:#404553;fill-opacity:1;fill-rule:nonzero;stroke:none"
             d="m 0,0 c -1.8,0.609 -2.764,2.563 -2.154,4.361 0.609,1.799 2.562,2.764 4.361,2.155 11.596,-3.956 16.107,5.785 20.374,14.999 4.21,9.089 8.237,17.784 17.864,17.725 10.852,-0.067 14.472,-9.39 18.702,-20.29 5.147,-13.258 11.39,-29.339 35.396,-28.026 1.896,0.097 3.512,-1.362 3.608,-3.258 0.097,-1.896 -1.362,-3.512 -3.257,-3.608 C 65.938,-17.525 58.702,1.11 52.739,16.473 49.42,25.022 46.581,32.336 40.419,32.374 35.207,32.406 32.088,25.672 28.828,18.633 23.293,6.683 17.441,-5.951 0,0" /></g><g
           transform="translate(260.0557,305.6396)"
           id="g124"><path
             id="path126"
             style="fill:#b73d3d;fill-opacity:1;fill-rule:evenodd;stroke:none"
             d="m 0,0 6.267,1.679 3.667,0.983 c 1.346,0.36 2.74,-0.446 3.101,-1.79 l 8.026,-29.955 c 0.36,-1.346 -0.444,-2.74 -1.79,-3.102 l -3.667,-0.982 -6.267,-1.68 c -9.583,-2.566 -19.524,3.172 -22.091,12.755 C -15.322,-12.509 -9.583,-2.568 0,0" /></g><g
           transform="translate(260.0557,305.6396)"
           id="g128"><path
             id="path130"
             style="fill:#dc4545;fill-opacity:1;fill-rule:evenodd;stroke:none"
             d="m 0,0 6.267,1.679 3.667,0.983 c 1.346,0.36 2.74,-0.445 3.101,-1.79 l 6.978,-26.043 -0.914,-0.245 -6.266,-1.679 c -9.583,-2.568 -19.524,3.171 -22.092,12.754 -0.72,2.687 -0.786,5.402 -0.299,7.974 2.33,3.01 5.619,5.311 9.558,6.367" /></g><g
           transform="translate(130.8931,220.8779)"
           id="g132"><path
             id="path134"
             style="fill:#5aacd8;fill-opacity:1;fill-rule:nonzero;stroke:none"
             d="m 0,0 c -1.302,0.662 -2.765,0.993 -4.387,0.993 -1.58,0 -3.224,-0.341 -4.932,-1.024 -1.708,-0.684 -3.266,-1.645 -4.676,-2.883 -1.409,-1.238 -2.572,-2.754 -3.49,-4.547 -0.918,-1.793 -1.377,-3.821 -1.377,-6.085 -0.043,-2.092 0.288,-3.767 0.992,-5.027 0.705,-1.26 1.602,-2.167 2.69,-2.722 1.089,-0.556 2.296,-0.801 3.619,-0.737 7.192,0.347 15.074,7.577 6.28,5.908 -4.278,-0.813 -7.084,-1.089 -6.581,2.832 0.52,4.056 0.557,6.229 6.829,7.021 4.789,0.604 9.294,1.172 14.365,1.812 7.266,0.916 9.104,-0.805 8.345,-6.877 -0.335,-2.677 -1.473,-5.027 -2.563,-7.205 -1.088,-2.178 -2.23,-4.131 -3.426,-5.86 -1.195,-1.73 -2.188,-3.042 -2.978,-3.939 -0.79,-0.897 -1.228,-1.388 -1.313,-1.473 -1.537,-1.538 -3.405,-2.882 -5.604,-4.036 -2.199,-1.152 -4.558,-2.028 -7.078,-2.626 -2.519,-0.597 -5.123,-0.864 -7.813,-0.8 -2.69,0.064 -5.252,0.534 -7.686,1.41 -2.433,0.875 -4.686,2.209 -6.757,4.002 -2.07,1.794 -3.746,4.12 -5.027,6.981 -1.452,3.202 -2.285,6.394 -2.498,9.575 -0.214,3.181 0.043,6.255 0.768,9.223 0.726,2.968 1.89,5.774 3.491,8.422 1.601,2.647 3.522,5.028 5.764,7.141 2.242,2.114 4.75,3.918 7.525,5.413 2.776,1.494 5.701,2.561 8.775,3.202 0.086,0 0.545,0.053 1.377,0.16 0.833,0.106 2.039,0.117 3.619,0.032 1.58,-0.086 3.351,-0.395 5.316,-0.929 1.964,-0.534 4.099,-1.43 6.405,-2.69 C 16.663,9.92 13.873,7.757 11.24,4.177 10.138,2.677 8.909,1.193 7.996,0.317 6.091,-1.511 3.478,-1.767 0,0" /></g><g
           transform="translate(155.2993,237.2334)"
           id="g136"><path
             id="path138"
             style="fill:#5aacd8;fill-opacity:1;fill-rule:nonzero;stroke:none"
             d="M 0,0 C 1.679,0.134 1.493,0.119 3.172,0.253 8.92,0.711 9.756,0.277 9.691,-5.59 9.54,-19.094 9.429,-29.029 9.278,-42.533 c -0.049,-4.39 0.014,-8.238 -3.869,-8.571 -1.889,-0.162 -2.534,-0.217 -4.422,-0.379 -6.08,-0.521 -5.262,0.912 -5.314,6.857 -0.12,13.832 -0.205,23.602 -0.326,37.435 C -4.705,-1.202 -5.804,-0.462 0,0" /></g><g
           transform="translate(246.9141,207.9727)"
           id="g140"><path
             id="path142"
             style="fill:#5aacd8;fill-opacity:1;fill-rule:nonzero;stroke:none"
             d="m 0,0 c 0.427,-2.946 0.289,-5.689 -0.416,-8.229 -0.705,-2.542 -1.836,-4.783 -3.395,-6.725 -1.558,-1.943 -3.501,-3.544 -5.828,-4.804 -2.327,-1.26 -4.921,-2.082 -7.781,-2.466 -2.862,-0.384 -5.594,-0.299 -8.199,0.256 -2.605,0.555 -4.932,1.548 -6.981,2.979 -2.049,1.429 -3.757,3.266 -5.124,5.508 -0.979,1.605 -1.705,3.391 -2.18,5.358 l -0.03,-0.106 c -0.704,-2.542 -1.836,-4.783 -3.394,-6.725 -1.559,-1.943 -3.501,-3.544 -5.828,-4.804 -2.327,-1.26 -4.921,-2.082 -7.782,-2.466 -2.861,-0.384 -5.593,-0.299 -8.198,0.256 -2.605,0.555 -4.931,1.548 -6.981,2.979 -2.05,1.429 -3.758,3.266 -5.124,5.508 -1.366,2.241 -2.241,4.835 -2.626,7.781 -0.427,2.946 -0.288,5.689 0.416,8.23 0.705,2.54 1.836,4.793 3.395,6.757 1.559,1.964 3.501,3.576 5.828,4.836 2.327,1.259 4.921,2.081 7.782,2.466 2.861,0.384 5.583,0.299 8.166,-0.257 2.583,-0.555 4.9,-1.548 6.949,-2.978 2.05,-1.43 3.758,-3.277 5.124,-5.541 0.989,-1.636 1.731,-3.454 2.228,-5.45 l 0.045,0.167 c 0.705,2.54 1.837,4.793 3.395,6.757 1.559,1.964 3.501,3.576 5.829,4.836 2.326,1.259 4.92,2.081 7.781,2.466 2.861,0.384 5.583,0.299 8.166,-0.257 2.583,-0.555 4.9,-1.548 6.95,-2.978 2.049,-1.43 3.757,-3.277 5.123,-5.541 C -1.323,5.551 -0.427,2.946 0,0 m -26.9,-5.443 c 0.726,-1.665 1.879,-2.755 3.459,-3.267 1.58,-0.513 3.373,-0.342 5.379,0.512 1.965,0.854 3.321,2.018 4.068,3.491 0.747,1.473 0.779,3.042 0.096,4.707 -0.726,1.623 -1.879,2.701 -3.458,3.234 -1.581,0.535 -3.353,0.374 -5.317,-0.48 -2.007,-0.854 -3.384,-2.027 -4.131,-3.523 -0.747,-1.494 -0.779,-3.052 -0.096,-4.674 m -39.517,0 c 0.726,-1.665 1.879,-2.755 3.459,-3.267 1.58,-0.513 3.373,-0.342 5.379,0.512 1.965,0.854 3.321,2.018 4.067,3.491 0.748,1.473 0.78,3.042 0.096,4.707 -0.725,1.623 -1.878,2.701 -3.458,3.234 -1.58,0.535 -3.352,0.374 -5.316,-0.48 -2.007,-0.854 -3.384,-2.027 -4.131,-3.523 -0.747,-1.494 -0.779,-3.052 -0.096,-4.674" /></g><g
           transform="translate(237.1655,226.7891)"
           id="g144"><path
             id="path146"
             style="fill:#5aacd8;fill-opacity:1;fill-rule:evenodd;stroke:none"
             d="m 0,0 c -2.521,-1.049 -4.163,-2.326 -6.199,-4.446 l 2.802,-2.129 c 0.745,0.775 6.13,0.49 5.332,1.113 -1.594,1.243 -0.594,2.329 0.847,2.929 2.718,1.588 3.563,-5.63 10.467,-3.552 4.617,1.391 6.674,5.701 5.262,9.75 C 17.1,7.714 12.233,9.801 7.641,8.327 4.887,7.443 3.547,5.25 3.345,2.82 3.139,0.332 2.892,1.202 0,0" /></g><g
           transform="translate(250.8027,232.7021)"
           id="g148"><path
             id="path150"
             style="fill:#ffffff;fill-opacity:1;fill-rule:evenodd;stroke:none"
             d="m 0,0 c -1.591,0 -2.88,-1.29 -2.88,-2.881 0,-2.897 5.742,-3.044 5.742,0.418 C 2.862,-0.872 1.591,0 0,0" /></g><g
           transform="translate(282.4253,187.5293)"
           id="g152"><path
             id="path154"
             style="fill:#dc4545;fill-opacity:1;fill-rule:nonzero;stroke:none"
             d="m 0,0 c -1.25,-0.637 -2.535,-1.152 -3.851,-1.547 -1.317,-0.395 -2.655,-0.67 -4.016,-0.823 -1.361,-0.153 -2.677,-0.231 -3.949,-0.231 -2.984,0 -5.739,0.505 -8.262,1.515 -2.524,1.009 -4.718,2.402 -6.582,4.18 -1.866,1.777 -3.325,3.861 -4.379,6.254 -1.052,2.391 -1.579,4.969 -1.579,7.734 0,3.204 0.548,6.089 1.646,8.656 1.097,2.568 2.622,4.741 4.575,6.518 1.952,1.776 4.268,3.138 6.945,4.081 2.677,0.943 5.573,1.415 8.689,1.415 3.116,0 5.825,-0.505 8.13,-1.514 4.424,-1.938 5.881,-3.022 3.221,-6.507 -1.69,-2.214 -1.407,-1.844 -3.097,-4.059 -2.429,-3.186 -2.206,-3.837 -5.127,-2.731 -0.812,0.307 -1.635,0.527 -2.469,0.658 -0.834,0.131 -1.635,0.175 -2.402,0.131 -0.769,-0.043 -1.394,-0.197 -1.877,-0.46 -0.833,-0.439 -1.547,-0.955 -2.139,-1.547 -0.592,-0.592 -1.053,-1.24 -1.382,-1.942 -0.329,-0.702 -0.483,-1.459 -0.461,-2.271 0.022,-0.812 0.252,-1.635 0.691,-2.469 0.877,-1.755 2.128,-2.83 3.752,-3.225 1.624,-0.395 3.346,-0.173 5.134,0.724 3.393,1.703 3.876,1.025 5.982,-1.763 C -1.065,8.474 -1.111,8.534 0.63,6.229 2.996,3.098 4.292,2.184 0,0 M 43.61,20.373 C 44.05,17.346 43.907,14.525 43.183,11.915 42.459,9.303 41.296,7 39.694,5.002 38.093,3.006 36.095,1.36 33.704,0.065 31.312,-1.229 28.646,-2.073 25.705,-2.469 22.765,-2.864 19.957,-2.776 17.279,-2.206 14.603,-1.635 12.211,-0.614 10.104,0.855 7.998,2.326 6.243,4.213 4.838,6.517 3.434,8.82 2.534,11.487 2.139,14.515 1.7,17.543 1.843,20.363 2.567,22.974 c 0.724,2.611 1.887,4.925 3.489,6.944 1.602,2.02 3.599,3.676 5.99,4.971 2.392,1.295 5.058,2.139 7.998,2.534 2.94,0.394 5.738,0.307 8.394,-0.263 2.654,-0.571 5.035,-1.591 7.141,-3.061 2.108,-1.471 3.862,-3.369 5.267,-5.695 1.404,-2.326 2.326,-5.003 2.764,-8.031 M 15.963,14.778 c 0.746,-1.712 1.931,-2.831 3.555,-3.357 1.624,-0.526 3.466,-0.352 5.529,0.526 2.018,0.878 3.412,2.074 4.18,3.588 0.768,1.514 0.801,3.127 0.099,4.838 -0.746,1.668 -1.931,2.776 -3.555,3.325 -1.624,0.548 -3.445,0.384 -5.463,-0.494 -2.063,-0.878 -3.478,-2.085 -4.246,-3.62 -0.768,-1.536 -0.801,-3.139 -0.099,-4.806 m 42.788,16.786 h 0.263 c 1.449,1.975 2.929,3.314 4.444,4.016 1.514,0.702 3.171,1.053 4.97,1.053 1.843,0 3.467,-0.329 4.871,-0.987 1.404,-0.659 2.59,-1.581 3.555,-2.765 0.965,-1.185 1.7,-2.568 2.205,-4.148 0.504,-1.579 0.756,-3.291 0.756,-5.134 V 1.545 c 0,-3.134 -0.931,-3.5 -4.028,-3.757 -2.732,-0.227 -2.504,-0.211 -5.236,-0.436 -3.783,-0.314 -4.948,0.137 -4.92,3.701 0.057,7.058 0.072,12.789 0.163,19.847 0.011,0.79 -0.252,1.448 -0.888,1.975 -0.636,0.526 -1.393,0.79 -2.271,0.79 -0.834,0 -1.591,-0.252 -2.272,-0.757 -0.679,-0.505 -1.028,-1.197 -1.019,-2.074 0.069,-7.036 0.14,-12.63 0.218,-19.666 0.035,-3.262 -1.174,-3.597 -4.517,-3.362 -2.829,0.198 -3.989,-0.132 -6.818,0.066 -3.611,0.252 -2.67,2.187 -2.726,6.183 -0.143,10.231 -0.246,17.35 -0.388,27.581 -0.046,3.303 0.918,3.786 2.937,4.123 2.613,0.435 3.692,0.302 6.334,0.517 3.056,0.249 4.367,0.527 4.367,-2.36 z M 156.399,1.175 c -1.893,-1.356 -4.019,-2.127 -6.082,-2.755 -2.808,-0.856 -6.034,-1.284 -9.676,-1.284 -2.985,0 -5.716,0.516 -8.196,1.547 -2.479,1.032 -4.618,2.425 -6.418,4.18 -1.798,1.756 -3.203,3.807 -4.213,6.156 -1.009,2.347 -1.514,4.837 -1.514,7.471 0,3.291 0.526,6.232 1.58,8.821 1.053,2.588 2.479,4.783 4.279,6.583 1.799,1.798 3.895,3.17 6.286,4.114 2.392,0.943 4.949,1.415 7.669,1.415 4.389,0 8.196,-1.119 11.421,-3.358 2.347,-1.627 4.258,-3.65 5.733,-6.067 2.194,-3.594 -1.197,-4.895 -4.552,-7.421 L 140.93,11.708 c -1.374,-1.034 -1.724,-1.737 0.04,-1.933 0.79,-0.087 1.514,-0.131 2.173,-0.131 2.018,0 3.719,0.361 5.101,1.085 3.881,2.033 3.779,2.612 5.931,-0.931 1.206,-1.986 0.668,-1.1 1.874,-3.085 1.418,-2.747 2.014,-4.347 0.35,-5.538 M 141.923,25.87 c -0.724,0.263 -1.019,0.231 -1.941,0.231 -0.877,0 -1.678,-0.187 -2.402,-0.56 -0.725,-0.373 -1.35,-0.878 -1.876,-1.515 -0.526,-0.635 -0.933,-1.348 -1.218,-2.138 -0.285,-0.79 -0.427,-1.602 -0.427,-2.436 0,-0.79 0.054,-1.35 0.164,-1.679 0.445,-1.335 1.483,-0.318 2.49,0.445 l 5.7,4.396 c 1.495,1.154 2.093,2.318 -0.49,3.256 m 69.088,-28.8 c -4.213,0 -7.493,0.955 -9.841,2.864 -2.348,1.909 -3.522,5.014 -3.522,9.314 V 24.85 c -3.592,-0.066 -3.607,0.297 -3.497,3.527 0.083,2.407 0.1,2.841 0.183,5.248 0.088,2.526 0.345,2.547 3.183,2.547 0,3.732 -0.944,3.921 2.206,5.342 2.995,1.35 3.699,1.671 6.694,3.022 4.272,1.929 5.384,1.436 5.384,-3.701 v -4.663 c 1.07,0.159 1.365,0.203 2.433,0.361 2.816,0.416 2.832,-0.659 2.648,-3.764 -0.13,-2.201 -0.11,-1.821 -0.24,-4.022 -0.167,-2.83 0.323,-3.897 -2.38,-3.897 h -2.329 V 13.33 c 0,-1.316 0.186,-2.194 0.559,-2.633 0.373,-0.439 1.218,-0.659 2.534,-0.659 2.764,0 2.163,-0.901 1.559,-4.331 -0.416,-2.359 -0.509,-2.871 -0.816,-4.618 -0.671,-3.797 -0.868,-4.019 -4.758,-4.019 M 97.049,31.564 h 0.264 c 1.448,1.975 2.929,3.314 4.443,4.016 1.515,0.702 3.171,1.053 4.971,1.053 1.842,0 3.466,-0.329 4.871,-0.987 1.404,-0.659 2.59,-1.581 3.554,-2.765 0.966,-1.185 1.701,-2.568 2.205,-4.148 0.505,-1.579 0.757,-3.291 0.757,-5.134 V 1.545 c 0,-3.134 -0.931,-3.5 -4.028,-3.757 -2.732,-0.227 -2.504,-0.211 -5.236,-0.436 -3.784,-0.314 -4.949,0.137 -4.92,3.701 0.056,7.058 0.072,12.789 0.163,19.847 0.01,0.79 -0.252,1.448 -0.888,1.975 -0.637,0.526 -1.394,0.79 -2.271,0.79 -0.834,0 -1.591,-0.252 -2.272,-0.757 -0.68,-0.505 -1.028,-1.197 -1.019,-2.074 0.069,-7.036 0.14,-12.63 0.217,-19.666 0.036,-3.262 -1.174,-3.597 -4.516,-3.362 -2.83,0.198 -3.99,-0.132 -6.82,0.066 -3.609,0.252 -2.669,2.187 -2.724,6.183 -0.143,10.231 -0.246,17.35 -0.388,27.581 -0.046,3.303 0.918,3.786 2.937,4.123 2.613,0.435 3.692,0.302 6.334,0.517 3.056,0.249 4.366,0.527 4.366,-2.36 z M 191.153,0 c -1.251,-0.637 -2.535,-1.152 -3.851,-1.547 -1.317,-0.395 -2.656,-0.67 -4.016,-0.823 -1.36,-0.153 -2.677,-0.231 -3.949,-0.231 -2.984,0 -5.738,0.505 -8.262,1.515 -2.523,1.009 -4.718,2.402 -6.583,4.18 -1.865,1.777 -3.324,3.861 -4.377,6.254 -1.053,2.391 -1.58,4.969 -1.58,7.734 0,3.204 0.549,6.089 1.646,8.656 1.096,2.568 2.622,4.741 4.575,6.518 1.952,1.776 4.267,3.138 6.945,4.081 2.677,0.943 5.573,1.415 8.689,1.415 3.116,0 5.826,-0.505 8.13,-1.514 4.423,-1.938 5.88,-3.022 3.221,-6.507 -1.69,-2.214 -1.407,-1.844 -3.096,-4.059 -2.43,-3.186 -2.207,-3.837 -5.128,-2.731 -0.812,0.307 -1.635,0.527 -2.469,0.658 -0.833,0.131 -1.634,0.175 -2.402,0.131 -0.769,-0.043 -1.394,-0.197 -1.876,-0.46 -0.834,-0.439 -1.547,-0.955 -2.14,-1.547 -0.593,-0.592 -1.054,-1.24 -1.382,-1.942 -0.329,-0.702 -0.483,-1.459 -0.461,-2.271 0.022,-0.812 0.252,-1.635 0.691,-2.469 0.877,-1.755 2.128,-2.83 3.752,-3.225 1.624,-0.395 3.346,-0.173 5.134,0.724 3.393,1.703 3.876,1.025 5.983,-1.763 1.741,-2.303 1.695,-2.243 3.436,-4.548 2.366,-3.131 3.662,-4.045 -0.63,-6.229" /></g></g></g></g></svg>