<?xml version="1.0" encoding="utf-8"?>
<!-- Generator: Adobe Illustrator 26.5.0, SVG Export Plug-In . SVG Version: 6.00 Build 0)  -->
<svg version="1.1" id="Layer_1" xmlns="http://www.w3.org/2000/svg" xmlns:xlink="http://www.w3.org/1999/xlink" x="0px" y="0px"
	 viewBox="0 0 419.3 316.1" style="enable-background:new 0 0 419.3 316.1;" xml:space="preserve">
<style type="text/css">
	.st0{fill:#003C6A;}
	.st1{opacity:0.3;fill-rule:evenodd;clip-rule:evenodd;fill:#003C6A;}
	.st2{fill-rule:evenodd;clip-rule:evenodd;fill:#CF63CC;}
	.st3{fill:none;stroke:#CF63CC;stroke-width:4.9997;stroke-linecap:round;stroke-linejoin:round;stroke-miterlimit:2.6131;}
	.st4{fill-rule:evenodd;clip-rule:evenodd;fill:#E005A3;}
	.st5{fill-rule:evenodd;clip-rule:evenodd;fill:#B11AA9;}
	.st6{fill-rule:evenodd;clip-rule:evenodd;fill:#158BC2;}
	.st7{fill-rule:evenodd;clip-rule:evenodd;fill:#FFFFFF;}
	.st8{fill-rule:evenodd;clip-rule:evenodd;fill:#289BCD;}
	.st9{fill-rule:evenodd;clip-rule:evenodd;fill:#003C6A;}
	.st10{fill-rule:evenodd;clip-rule:evenodd;fill:#EEF7F8;}
	.st11{fill-rule:evenodd;clip-rule:evenodd;fill:#466BAF;}
	.st12{fill:#E005A3;}
	.st13{fill:#466BAF;}
	.st14{fill:none;stroke:#466BAF;stroke-width:1.9998;stroke-miterlimit:2.6131;}
	.st15{fill:none;stroke:#0DCE93;stroke-width:2.9999;stroke-linecap:round;stroke-linejoin:round;stroke-miterlimit:2.6131;}
	.st16{fill-rule:evenodd;clip-rule:evenodd;fill:#0DCE93;}
	.st17{fill-rule:evenodd;clip-rule:evenodd;fill:#1756BC;}
	.st18{fill-rule:evenodd;clip-rule:evenodd;fill:#FBC65F;}
	.st19{fill-rule:evenodd;clip-rule:evenodd;fill:#BC4797;}
	.st20{fill-rule:evenodd;clip-rule:evenodd;fill:#BF0A17;}
	.st21{fill-rule:evenodd;clip-rule:evenodd;fill:#E251B5;}
	.st22{fill-rule:evenodd;clip-rule:evenodd;fill:#FFB830;}
	.st23{fill-rule:evenodd;clip-rule:evenodd;fill:#0FAC7C;}
	.st24{fill-rule:evenodd;clip-rule:evenodd;fill:#316DE6;}
	.st25{fill-rule:evenodd;clip-rule:evenodd;fill:#3F609D;}
	.st26{fill-rule:evenodd;clip-rule:evenodd;fill:#373737;}
	.st27{fill-rule:evenodd;clip-rule:evenodd;fill:#F8C514;}
	.st28{fill-rule:evenodd;clip-rule:evenodd;fill:#C9DD72;}
	.st29{fill-rule:evenodd;clip-rule:evenodd;fill:#96C83F;}
	.st30{fill-rule:evenodd;clip-rule:evenodd;fill:#6388C5;}
	.st31{fill-rule:evenodd;clip-rule:evenodd;fill:#8062A8;}
	.st32{fill-rule:evenodd;clip-rule:evenodd;fill:#F17424;}
	.st33{fill-rule:evenodd;clip-rule:evenodd;fill:#E8232A;}
	.st34{fill-rule:evenodd;clip-rule:evenodd;fill:#466BB0;}
	.st35{fill:#FFFFFF;}
	.st36{opacity:0.5;fill-rule:evenodd;clip-rule:evenodd;fill:#869ECB;}
	.st37{fill-rule:evenodd;clip-rule:evenodd;fill:#7E4BC6;}
	.st38{fill-rule:evenodd;clip-rule:evenodd;fill:#4D9DC9;}
	.st39{fill-rule:evenodd;clip-rule:evenodd;fill:#E5EAF4;}
	.st40{fill-rule:evenodd;clip-rule:evenodd;fill:#7C86E2;}
	.st41{fill:none;stroke:#DF3EAD;stroke-width:0.279;stroke-miterlimit:10;}
	.st42{fill:#CF63CC;}
	.st43{fill:#B11AA9;}
	.st44{fill:none;stroke:#DF3EAD;stroke-width:0.3116;stroke-miterlimit:10;}
	.st45{fill:none;stroke:#466BAF;stroke-width:2.8883;stroke-miterlimit:2.6131;}
	.st46{fill:none;stroke:#466BAF;stroke-width:2.5881;stroke-miterlimit:2.6131;}
	.st47{fill:none;stroke:#0DCE93;stroke-width:3.8973;stroke-linecap:round;stroke-linejoin:round;stroke-miterlimit:2.6131;}
	.st48{fill:none;stroke:#0DCE93;stroke-width:4.342;stroke-linecap:round;stroke-linejoin:round;stroke-miterlimit:2.6131;}
	.st49{fill:none;stroke:#939598;stroke-width:5;stroke-miterlimit:10;}
	.st50{fill:#6B6B6B;stroke:#939598;stroke-width:3.5824;stroke-miterlimit:10;}
	.st51{opacity:0.5;}
	.st52{fill:#6B6B6B;stroke:#939598;stroke-width:3.4266;stroke-miterlimit:10;}
	.st53{fill:#6B6B6B;stroke:#939598;stroke-width:4.7527;stroke-miterlimit:10;}
	.st54{fill:#6B6B6B;stroke:#939598;stroke-width:4.7676;stroke-miterlimit:10;}
	.st55{fill-rule:evenodd;clip-rule:evenodd;fill:#456989;}
	.st56{fill-rule:evenodd;clip-rule:evenodd;fill:#8592A4;}
	.st57{fill-rule:evenodd;clip-rule:evenodd;fill:#E88C5E;}
</style>
<g>
	<path class="st9" d="M80.2,309.1c0,1.7-0.6,3.1-1.7,4.3c-1.1,1.1-2.6,1.7-4.3,1.7c-1.6,0-3-0.6-4.1-1.7c-1.1-1.1-1.7-2.6-1.7-4.3
		v-60.5c0-1.7,0.6-3.1,1.7-4.3c1.1-1.1,2.6-1.7,4.3-1.7c1.6,0,3,0.6,4.1,1.7c1.1,1.1,1.7,2.6,1.7,4.3V309.1z M127.9,289
		c0-3.2-0.7-6-2-8.6c-1.3-2.5-3.1-4.5-5.4-5.8c-2.2-1.4-4.7-2.1-7.5-2.1c-2.7,0-5.2,0.7-7.5,2.1c-2.2,1.4-4,3.3-5.4,5.8
		c-1.3,2.5-2,5.4-2,8.6c0,3.2,0.7,6,2,8.5c1.3,2.5,3.1,4.4,5.4,5.8c2.3,1.4,4.7,2.1,7.5,2.1c2.7,0,5.2-0.7,7.5-2.1
		c2.3-1.4,4-3.3,5.4-5.8C127.2,295,127.9,292.2,127.9,289z M139.6,289c0,5.2-1.2,9.9-3.5,14c-2.3,4.1-5.6,7.4-9.6,9.6
		c-4.1,2.3-8.6,3.4-13.5,3.4c-5,0-9.5-1.1-13.5-3.4c-4-2.3-7.2-5.5-9.6-9.6c-2.3-4.1-3.5-8.8-3.5-14c0-5.2,1.2-9.9,3.5-14
		c2.3-4.1,5.5-7.4,9.6-9.7c4-2.3,8.5-3.5,13.5-3.5c4.9,0,9.4,1.2,13.5,3.5c4.1,2.3,7.3,5.5,9.6,9.7
		C138.5,279.1,139.6,283.8,139.6,289z M185.7,289c0-3.2-0.7-6-2-8.6c-1.3-2.5-3.1-4.5-5.4-5.8c-2.2-1.4-4.7-2.1-7.5-2.1
		c-2.7,0-5.2,0.7-7.5,2.1c-2.2,1.4-4,3.3-5.4,5.8c-1.3,2.5-2,5.4-2,8.6c0,3.2,0.7,6,2,8.5c1.3,2.5,3.1,4.4,5.4,5.8
		c2.3,1.4,4.7,2.1,7.5,2.1c2.7,0,5.2-0.7,7.5-2.1c2.3-1.4,4-3.3,5.4-5.8C185,295,185.7,292.2,185.7,289z M197.4,289
		c0,5.2-1.2,9.9-3.5,14c-2.3,4.1-5.6,7.4-9.6,9.6c-4.1,2.3-8.6,3.4-13.5,3.4c-5,0-9.5-1.1-13.5-3.4c-4-2.3-7.2-5.5-9.6-9.6
		c-2.3-4.1-3.5-8.8-3.5-14c0-5.2,1.2-9.9,3.5-14c2.3-4.1,5.5-7.4,9.6-9.7c4-2.3,8.5-3.5,13.5-3.5c4.9,0,9.4,1.2,13.5,3.5
		c4.1,2.3,7.3,5.5,9.6,9.7C196.3,279.1,197.4,283.8,197.4,289z M268.5,246.6c0.8,0,1.5,0.3,2,0.8c0.6,0.6,0.8,1.3,0.8,2.1v62.6
		c0,0.8-0.3,1.5-0.9,2.1c-0.6,0.6-1.3,0.8-2.2,0.8c-0.9,0-1.7-0.3-2.2-0.8c-0.6-0.6-0.9-1.3-0.9-2.1v-53.8l-23,34.8
		c-0.7,0.8-1.4,1.2-2.2,1.2h-0.2c-0.8,0-1.5-0.4-2.2-1.2l-23-35v54c0,0.8-0.3,1.5-0.8,2.1c-0.6,0.6-1.3,0.8-2.1,0.8
		c-0.8,0-1.5-0.3-2.1-0.8c-0.5-0.6-0.8-1.3-0.8-2.1v-62.6c0-0.8,0.3-1.5,0.8-2.1c0.6-0.6,1.3-0.9,2.1-0.9c0.5,0,0.9,0.1,1.5,0.3
		c0.5,0.2,0.9,0.5,1.2,0.9l25.6,38.4l25.8-38.4C266.6,246.9,267.4,246.5,268.5,246.6z M304.4,269.6c-3.8,0-7.3,1.3-10.5,3.9
		c-3.2,2.6-5.3,6.4-6.2,11.2H321V284c-0.3-2.9-1.3-5.5-2.9-7.7c-1.6-2.2-3.7-3.8-6.1-5C309.5,270.2,307,269.6,304.4,269.6z
		 M327.1,287.2c0,0.8-0.3,1.5-0.9,2c-0.6,0.6-1.3,0.8-2.1,0.8h-37c0,3.9,0.8,7.4,2.4,10.5c1.6,3.1,3.9,5.5,6.8,7.3
		c3,1.8,6.5,2.7,10.5,2.7c3.1,0,5.9-0.7,8.4-2c2.5-1.3,4.5-3,6-5c0.7-0.6,1.4-0.9,2.1-0.9c0.7,0,1.2,0.3,1.8,0.8
		c0.5,0.5,0.8,1.1,0.8,1.8c0,0.7-0.3,1.4-1,2.1c-2.1,2.5-4.7,4.6-7.9,6.3c-3.2,1.6-6.5,2.4-10,2.4c-5,0-9.5-1.1-13.3-3.2
		c-3.8-2.2-6.8-5.2-9-9c-2.2-3.9-3.2-8.4-3.2-13.5c0-5.3,1.1-10,3.2-14c2.1-4,4.9-7.1,8.5-9.2c3.5-2.1,7.3-3.2,11.2-3.2
		c3.9,0,7.6,0.9,11,2.7c3.4,1.8,6.2,4.5,8.4,8C325.9,278.2,327,282.4,327.1,287.2z M333,307.2c-0.5-0.8-0.8-1.6-0.8-2.2
		c0-0.8,0.4-1.5,1.3-2c0.4-0.4,0.9-0.6,1.6-0.6c0.8,0,1.5,0.3,2.2,1c3.8,5.1,9,7.6,15.4,7.6c3.1,0,5.9-0.7,8.2-2.2
		c2.3-1.5,3.5-3.6,3.5-6.4c0-2.7-1.1-4.8-3.2-6.2c-2.2-1.4-5.2-2.5-9-3.5c-5.4-1.4-9.7-3.1-12.7-5.3c-3.1-2.2-4.6-5.4-4.6-9.6
		c0-2.7,0.8-5.1,2.2-7.2c1.5-2.1,3.5-3.8,6.1-4.9c2.6-1.2,5.5-1.8,8.8-1.8c2.8,0,5.6,0.5,8.5,1.6c2.8,1.1,5.3,2.8,7.3,5.1
		c0.6,0.5,0.9,1.1,0.9,2c0,0.8-0.3,1.5-1,2.1c-0.5,0.4-1,0.6-1.8,0.6c-0.7,0-1.2-0.3-1.8-0.8c-1.6-1.8-3.4-3.1-5.6-4
		c-2.2-0.9-4.5-1.4-6.9-1.4c-3.1,0-5.7,0.7-7.9,2.2c-2.2,1.4-3.3,3.6-3.3,6.5c0.1,2.6,1.3,4.6,3.6,6c2.2,1.4,5.6,2.6,9.9,3.7
		c3.4,0.8,6.2,1.8,8.4,2.8c2.2,1,4,2.5,5.4,4.4c1.4,1.9,2.1,4.4,2.1,7.5c0,4.2-1.7,7.6-5.1,10.1c-3.4,2.5-7.6,3.8-12.6,3.8
		C344,316.1,337.7,313.1,333,307.2z M401,264.7c5.9,0,10.2,1.8,13.1,5.5c2.9,3.7,4.3,8.4,4.3,14.2v27.7c0,0.8-0.3,1.5-0.8,2.1
		c-0.6,0.6-1.3,0.8-2.1,0.8c-0.8,0-1.5-0.3-2.1-0.8c-0.6-0.6-0.8-1.3-0.8-2.1v-27.7c0-4.2-1-7.7-3-10.3c-2-2.6-5.2-4-9.5-4
		c-2.7,0-5.3,0.7-7.8,2c-2.4,1.3-4.4,3-5.9,5.2c-1.5,2.2-2.2,4.5-2.2,7.1v27.7c0,0.8-0.3,1.5-0.8,2.1c-0.6,0.6-1.3,0.8-2.1,0.8
		c-0.8,0-1.6-0.3-2.1-0.8c-0.6-0.6-0.8-1.3-0.8-2.1v-66.5c0-0.8,0.3-1.6,0.8-2.1c0.6-0.6,1.3-0.8,2.1-0.8c0.8,0,1.5,0.3,2.1,0.8
		c0.6,0.6,0.8,1.3,0.8,2.1v28.7c1.8-2.8,4.2-5.1,7.3-6.9C394.6,265.6,397.8,264.7,401,264.7z M54.3,278.1c1.7,0,3.1,0.6,4.2,1.7
		c1.1,1.1,1.7,2.6,1.7,4.3v20.7c0,2.3-1,4-3,5.3c-6.4,4-13.4,6-21,6c-6.5,0-12.4-1.6-17.9-4.7s-9.8-7.4-13-12.8
		c-3.2-5.4-4.8-11.3-4.8-17.7c0-6.4,1.6-12.3,4.8-17.7c3.2-5.4,7.5-9.7,13-12.8c5.5-3.2,11.4-4.7,17.9-4.7s12.1,1.3,16.8,3.9
		c1,0.5,1.7,1.2,2.2,2.1c0.5,0.8,0.7,1.8,0.7,2.7c0,1.6-0.5,3-1.6,4.3c-1.1,1.2-2.4,1.8-4,1.8c-1,0-2.1-0.3-3.2-0.8
		c-3.5-1.5-7.2-2.2-11-2.2c-4.2,0-8,1.1-11.5,3.2c-3.5,2.1-6.3,5-8.4,8.6c-2.1,3.6-3.1,7.5-3.1,11.7c0,4.2,1,8.2,3.1,11.7
		c2.1,3.6,4.8,6.4,8.4,8.6c3.5,2.1,7.4,3.2,11.5,3.2c1.8,0,3.8-0.2,5.9-0.5c2.1-0.3,3.9-0.8,5.5-1.3v-12.7h-9.2
		c-1.7,0-3.1-0.6-4.3-1.7c-1.1-1.1-1.7-2.5-1.7-4.2c0-1.7,0.6-3.1,1.7-4.2c1.1-1.1,2.6-1.7,4.3-1.7H54.3z"/>
	<g>
		<g>
			<polygon class="st13" points="243,167.4 213.6,119.2 201.9,123.6 112.8,157.4 111.5,154 200.6,120.2 206.2,118.1 111.9,108.1 
				112.3,104.5 211,115 209.9,113.2 193.7,86.5 196.9,84.6 213.1,111.3 215.2,114.7 271.8,93.2 273.1,96.6 221.8,116.1 312.8,125.7 
				312.5,129.4 218,119.4 246.1,165.5 			"/>
			<path class="st11" d="M215.9,98.4c26.4,0,50.2,7.8,53.5,18.7c3.8,12.9-21.3,25.1-56.8,25.1c-35.5,0-58.8-12.2-53-25.1
				C164.6,106.2,189.5,98.4,215.9,98.4z"/>
			<path class="st14" d="M215.9,98.4c26.4,0,50.2,7.8,53.5,18.7c3.8,12.9-21.3,25.1-56.8,25.1c-35.5,0-58.8-12.2-53-25.1
				C164.6,106.2,189.5,98.4,215.9,98.4z"/>
			<path class="st11" d="M103,150.7c27.7,5.7,41.8,20.5,29.9,34.9c-14.2,17.3-58.5,27.3-96.6,19.4c-38-7.9-44.8-28.5-19.4-43.4
				C38,149.1,75.3,145,103,150.7"/>
			<path class="st13" d="M192.4,66.2c1.4,0,2.9,0,4.5,0.1c7.1,0.3,13.3,1.3,17.8,2.7c5.1,1.7,8.2,4.1,8.2,7.1l0,0l0,0.1v0
				c-0.1,3.5-4.7,6.5-11.9,8.5c-6.4,1.8-15.1,2.9-24.7,2.9v0c-9,0-16.6-1-21.9-2.7c-2.7-0.8-4.8-1.9-6.3-3c-1.8-1.4-2.6-3.1-2.3-5
				c0.1-0.6,0.4-1.2,0.7-1.8c1.7-2.7,6.6-5,13.2-6.6C176.2,67.1,184.2,66.2,192.4,66.2L192.4,66.2z M281.8,82.4
				c5.4,0,10.8,0.7,15.1,1.8c4.5,1.2,8,3,9.4,5.1c0.4,0.5,0.6,1.1,0.7,1.7c0.3,1.5-0.3,2.8-1.6,4c-1,0.9-2.4,1.6-4.2,2.2
				c-3.2,1-7.7,1.7-13,1.7c-5.9,0-11.6-0.8-16-2c-4.8-1.4-8.2-3.5-9-5.9c-0.1-0.4-0.2-0.8-0.2-1.2c0-1.4,0.7-2.5,1.9-3.5
				c1-0.8,2.3-1.5,4-2C272.1,83,276.6,82.4,281.8,82.4z M100.6,95.6c5.2,0.5,9.5,1.5,12.4,2.9c1.6,0.8,2.8,1.7,3.6,2.7
				c1,1.3,1.2,2.7,0.7,4.1c-0.3,0.8-0.7,1.5-1.4,2.2c-2.4,2.4-7.3,4.3-13.4,5.4c-5.8,1.1-12.7,1.5-19.4,0.9
				c-5.9-0.5-10.5-1.7-13.2-3.3c-1.4-0.8-2.5-1.7-3.1-2.8h0c-0.7-1.3-0.8-2.6-0.2-4c0.4-1,1.3-2,2.6-2.9c2.9-2.1,7.8-3.6,13.5-4.6
				C88.2,95.4,94.6,95.1,100.6,95.6z M341.5,113.9c12.5-1.2,26.5-0.5,39,1.9c12.3,2.3,23.3,6.1,30.5,11.2c3.7,2.6,6.1,5.3,7.3,8.1
				c1.3,2.9,1.3,5.7,0.1,8.4c-1.1,2.5-3.4,4.9-6.7,6.9c-5.9,3.7-15.3,6.5-28,7.7c-15.9,1.5-32.2,0.1-45.7-3.2
				c-14.2-3.5-25.3-9.1-29.8-15.8c-1.2-1.8-1.9-3.6-2.1-5.4c-0.2-2.2,0.3-4.3,1.6-6.3c1.2-1.9,2.9-3.6,5.2-5.2
				C319.1,118.1,329.1,115.1,341.5,113.9z M249.5,161.9c9.5-0.9,19.1,0.3,27,3.1c7.9,2.9,14.2,7.4,16.9,13.1
				c0.8,1.7,1.3,3.5,1.5,5.2c0.4,3.8-0.8,7.5-3.3,10.9c-2.4,3.2-6,6.1-10.6,8.3c-5,2.4-11.2,4.2-18.3,4.9c-11.3,1.1-22-0.7-30.1-4.3
				c-8.6-3.9-14.4-9.8-15.3-16.8c0-0.1,0-0.3-0.1-0.5l0,0c-0.6-5.9,2.6-11.3,8.3-15.6c5.4-4,13.1-7,22-8.2
				C248.2,162,248.9,162,249.5,161.9z M103.3,148.9c11.9,2.5,21.4,6.6,27.5,11.6c3.1,2.5,5.3,5.3,6.7,8.2c1.4,3,1.8,6.2,1.1,9.5
				c-0.6,2.8-2,5.7-4.3,8.5c-7.5,9.1-22.9,16.3-41.4,20c-17.6,3.5-38.1,4-57,0.1c-12.8-2.7-22.2-6.8-28.2-11.6
				c-4-3.3-6.5-6.9-7.4-10.8l0,0c-0.9-3.9-0.3-7.9,2-11.9c2.5-4.4,7-8.6,13.6-12.5c10.6-6.3,25.2-10.5,40.6-12.4
				C72.4,145.6,89.1,146,103.3,148.9z"/>
			<path class="st11" d="M249.7,163.7c18.3-1.8,36.9,4.6,42.1,15.2c5.8,12-7,24.5-29.3,26.7c-22.3,2.2-41.8-7.1-43.4-19.5
				C217.7,175.1,231.4,165.5,249.7,163.7"/>
			<path class="st11" d="M341.7,115.7c24.4-2.3,54.2,2.8,68.2,12.7c16.3,11.5,5.6,24.7-26.4,27.8c-31.9,3.1-65.5-5.9-73.8-18.2
				C302.6,127.5,317.3,118,341.7,115.7"/>
			<path class="st11" d="M281.8,84.2c10.5,0,20.7,2.6,22.9,6.1c2.4,3.6-4.9,6.8-16.6,6.7c-11.6,0-22.1-3.1-23.3-6.7
				C263.7,86.8,271.3,84.2,281.8,84.2"/>
			<path class="st11" d="M192.4,68c16,0,28.9,3.5,28.7,8.2c-0.2,5.1-15.8,9.7-34.7,9.7c-18.9,0-31.4-4.5-28.1-9.7
				C161.2,71.6,176.4,68,192.4,68"/>
			<path class="st11" d="M100.4,97.4c11.6,1,18,4.8,14.1,8.8c-4.1,4.2-18.3,6.9-31.3,5.7c-13.1-1.1-18.7-5.6-13.1-9.6
				C75.4,98.5,88.8,96.4,100.4,97.4"/>
		</g>
		<g>
			<path class="st1" d="M215.6,105.3c24.1,0,43.6,5.2,43.6,11.7c0,6.4-19.5,11.7-43.6,11.7c-24.1,0-43.6-5.2-43.6-11.7
				C172.1,110.6,191.6,105.3,215.6,105.3"/>
			<path class="st6" d="M182,15.9c4.5,1.9,7.5,4.2,11.2,8l-5.1,3.8c-1.3-1.4-11.1-0.9-9.6-2c2.9-2.2,1.1-4.2-1.5-5.3
				c-4.9-2.9-6.4,10.2-18.9,6.4c-8.3-2.5-12-10.3-9.5-17.6C151.2,2,160-1.8,168.3,0.9c5,1.6,7.4,5.6,7.8,9.9
				C176.4,15.3,176.8,13.7,182,15.9"/>
			<path class="st6" d="M254.1,64.8c-2.6-3.7,10.3-17,17.8-26.9c7.4-10,13.5-8.4,16.7-5.7c3.2,2.7,3.6,10.5-3.7,17.9
				C277.6,57.4,256.7,68.5,254.1,64.8"/>
			<path class="st6" d="M193.5,119.2c11.7,0,13.9-7.6,21.6-7.7c7.7-0.1,11.1,7.7,22.3,7.7c18.2,0,30.1-39.1,30.1-60.5
				c0-27.4-23.2-45.9-51.9-45.9c-28.7,0-51.9,18.5-51.9,45.9C163.7,91.1,177.5,119.2,193.5,119.2"/>
			<path class="st7" d="M269.3,47.4c-0.9-1.7,3.1-3.8,6.7-8.6c3.6-4.8,6.6-5.7,7.4-4c0.9,1.7-0.7,5-4.4,8.1
				C275.3,46.1,270.2,49.1,269.3,47.4"/>
			<path class="st7" d="M165.7,2.4c3.1,0,5.6,2.5,5.6,5.6c0,5.7-11.2,6-11.2-0.8C160.1,4.1,162.6,2.4,165.7,2.4"/>
			<path class="st6" d="M177.3,58.5c1.4,4.3-14.6,13.5-24.4,21c-9.9,7.5-15.3,4.4-17.7,0.9c-2.4-3.4-0.5-11.1,8.5-16.2
				C152.7,59.1,175.9,54.2,177.3,58.5"/>
			<path class="st7" d="M141.1,75.2c0.7,0.8,0.6,2.2-0.3,3.2c-0.8,0.9-2.1,1-2.8,0.2c-0.7-0.8-0.6-2.2,0.3-3.2
				C139.2,74.5,140.4,74.4,141.1,75.2 M159.6,63.2c1.4,1.4-4.3,0.4-12.7,7.5c-3,2.5-4.1,4.2-5.6,3.2c-0.6-0.4-1.9-2,2.4-5.4
				C148,64.9,158.1,61.7,159.6,63.2z"/>
			<path class="st8" d="M217.8,14.9c25.6,0,46.3,20.7,46.3,46.3c0,46.6-92.3,48.9-92.3-6.7C171.8,28.9,192.2,14.9,217.8,14.9"/>
			<path class="st9" d="M218,67.1c7.8-0.5,10.6-3.4,14.1-0.6c3.6,2.8-2.3,13.2-13.4,13.9c-11.1,0.7-18-8.9-15-12.2
				C206.8,64.9,210.2,67.6,218,67.1"/>
			<path class="st6" d="M226,76.6c-1.9,1.4-4.4,2.4-7.4,2.6c-3.1,0.2-5.7-0.6-7.8-1.7c0-2.4,4.2-3.9,7.5-2.5
				C221.5,73.1,225.8,74.1,226,76.6"/>
			<path class="st7" d="M218,68c5.1-0.3,7.9-1.6,10.2-1.7c0,0,0,0.1,0,0.1c0.1,1.8-1.1,3.3-2.8,3.4c-0.5,0-1-0.1-1.5-0.3
				c-0.5,1.1-1.6,1.9-2.9,2c-1.2,0.1-2.2-0.4-2.9-1.3c-0.5,0.9-1.5,1.5-2.7,1.6c-1.3,0.1-2.5-0.6-3.1-1.7c-0.4,0.3-1,0.5-1.5,0.6
				c-1.7,0.1-3.1-1.3-3.2-3.1c0-0.1,0-0.1,0-0.2C210,67.4,212.9,68.3,218,68"/>
			<path class="st10" d="M257.3,43c1-0.2,2.1,0.7,2.5,1.9c0.4,1.2-0.2,2.3-1.2,2.5c-1,0.2-2.1-0.7-2.5-1.9
				C255.8,44.3,256.3,43.2,257.3,43 M216.3,28.8c-9,1.9-11.9-6.9-0.4-9.6c14.3-3.5,34.7,5.9,40.8,18.7c1.6,3.4-0.9,4.7-3.7,1.3
				C245.3,29.7,231.5,25.7,216.3,28.8z"/>
			<path class="st9" d="M241.6,47.1c4.5-0.1,8.3,3.4,8.5,8c0.1,4.5-3.4,8.3-8,8.5c-4.5,0.1-8.3-3.4-8.5-8
				C233.5,51,237.1,47.2,241.6,47.1"/>
			<path class="st10" d="M245.4,49.6c1.3,0,2.3,1,2.4,2.2c0,1.3-1,2.3-2.2,2.4c-1.3,0-2.3-1-2.4-2.2
				C243.2,50.7,244.2,49.7,245.4,49.6"/>
			<path class="st9" d="M192.1,47.7c4.5-0.1,8.3,3.4,8.5,8c0.1,4.5-3.4,8.3-8,8.5c-4.5,0.1-8.3-3.4-8.5-8
				C184,51.6,187.6,47.8,192.1,47.7"/>
			<path class="st10" d="M196,50.2c1.3,0,2.3,1,2.4,2.2c0,1.3-1,2.3-2.2,2.4c-1.3,0-2.3-1-2.4-2.2C193.7,51.3,194.7,50.2,196,50.2"
				/>
		</g>
	</g>
</g>
</svg>
