<?xml version="1.0" encoding="utf-8"?>
<!-- Generator: Adobe Illustrator 26.5.0, SVG Export Plug-In . SVG Version: 6.00 Build 0)  -->
<svg version="1.1" id="Layer_1" xmlns="http://www.w3.org/2000/svg" xmlns:xlink="http://www.w3.org/1999/xlink" x="0px" y="0px"
	 viewBox="0 0 439.9 304.2" style="enable-background:new 0 0 439.9 304.2;" xml:space="preserve">
<style type="text/css">
	.st0{fill:#003C6A;}
	.st1{opacity:0.3;fill-rule:evenodd;clip-rule:evenodd;fill:#003C6A;}
	.st2{fill-rule:evenodd;clip-rule:evenodd;fill:#CF63CC;}
	.st3{fill:none;stroke:#CF63CC;stroke-width:4.9997;stroke-linecap:round;stroke-linejoin:round;stroke-miterlimit:2.6131;}
	.st4{fill-rule:evenodd;clip-rule:evenodd;fill:#E005A3;}
	.st5{fill-rule:evenodd;clip-rule:evenodd;fill:#B11AA9;}
	.st6{fill-rule:evenodd;clip-rule:evenodd;fill:#158BC2;}
	.st7{fill-rule:evenodd;clip-rule:evenodd;fill:#FFFFFF;}
	.st8{fill-rule:evenodd;clip-rule:evenodd;fill:#289BCD;}
	.st9{fill-rule:evenodd;clip-rule:evenodd;fill:#003C6A;}
	.st10{fill-rule:evenodd;clip-rule:evenodd;fill:#EEF7F8;}
	.st11{fill-rule:evenodd;clip-rule:evenodd;fill:#466BAF;}
	.st12{fill:#E005A3;}
	.st13{fill:#466BAF;}
	.st14{fill:none;stroke:#466BAF;stroke-width:1.9998;stroke-miterlimit:2.6131;}
	.st15{fill:none;stroke:#0DCE93;stroke-width:2.9999;stroke-linecap:round;stroke-linejoin:round;stroke-miterlimit:2.6131;}
	.st16{fill-rule:evenodd;clip-rule:evenodd;fill:#0DCE93;}
	.st17{fill-rule:evenodd;clip-rule:evenodd;fill:#1756BC;}
	.st18{fill-rule:evenodd;clip-rule:evenodd;fill:#FBC65F;}
	.st19{fill-rule:evenodd;clip-rule:evenodd;fill:#BC4797;}
	.st20{fill-rule:evenodd;clip-rule:evenodd;fill:#BF0A17;}
	.st21{fill-rule:evenodd;clip-rule:evenodd;fill:#E251B5;}
	.st22{fill-rule:evenodd;clip-rule:evenodd;fill:#FFB830;}
	.st23{fill-rule:evenodd;clip-rule:evenodd;fill:#0FAC7C;}
	.st24{fill-rule:evenodd;clip-rule:evenodd;fill:#316DE6;}
	.st25{fill-rule:evenodd;clip-rule:evenodd;fill:#3F609D;}
	.st26{fill-rule:evenodd;clip-rule:evenodd;fill:#373737;}
	.st27{fill-rule:evenodd;clip-rule:evenodd;fill:#F8C514;}
	.st28{fill-rule:evenodd;clip-rule:evenodd;fill:#C9DD72;}
	.st29{fill-rule:evenodd;clip-rule:evenodd;fill:#96C83F;}
	.st30{fill-rule:evenodd;clip-rule:evenodd;fill:#6388C5;}
	.st31{fill-rule:evenodd;clip-rule:evenodd;fill:#8062A8;}
	.st32{fill-rule:evenodd;clip-rule:evenodd;fill:#F17424;}
	.st33{fill-rule:evenodd;clip-rule:evenodd;fill:#E8232A;}
	.st34{fill-rule:evenodd;clip-rule:evenodd;fill:#466BB0;}
	.st35{fill:#FFFFFF;}
	.st36{opacity:0.5;fill-rule:evenodd;clip-rule:evenodd;fill:#869ECB;}
	.st37{fill-rule:evenodd;clip-rule:evenodd;fill:#7E4BC6;}
	.st38{fill-rule:evenodd;clip-rule:evenodd;fill:#4D9DC9;}
	.st39{fill-rule:evenodd;clip-rule:evenodd;fill:#E5EAF4;}
	.st40{fill-rule:evenodd;clip-rule:evenodd;fill:#7C86E2;}
	.st41{fill:none;stroke:#DF3EAD;stroke-width:0.279;stroke-miterlimit:10;}
	.st42{fill:#CF63CC;}
	.st43{fill:#B11AA9;}
	.st44{fill:none;stroke:#DF3EAD;stroke-width:0.3116;stroke-miterlimit:10;}
	.st45{fill:none;stroke:#466BAF;stroke-width:2.8883;stroke-miterlimit:2.6131;}
	.st46{fill:none;stroke:#466BAF;stroke-width:2.5881;stroke-miterlimit:2.6131;}
	.st47{fill:none;stroke:#0DCE93;stroke-width:3.8973;stroke-linecap:round;stroke-linejoin:round;stroke-miterlimit:2.6131;}
	.st48{fill:none;stroke:#0DCE93;stroke-width:4.342;stroke-linecap:round;stroke-linejoin:round;stroke-miterlimit:2.6131;}
	.st49{fill:none;stroke:#939598;stroke-width:5;stroke-miterlimit:10;}
	.st50{fill:#6B6B6B;stroke:#939598;stroke-width:3.5824;stroke-miterlimit:10;}
	.st51{opacity:0.5;}
	.st52{fill:#6B6B6B;stroke:#939598;stroke-width:3.4266;stroke-miterlimit:10;}
	.st53{fill:#6B6B6B;stroke:#939598;stroke-width:4.7527;stroke-miterlimit:10;}
	.st54{fill:#6B6B6B;stroke:#939598;stroke-width:4.7676;stroke-miterlimit:10;}
	.st55{fill-rule:evenodd;clip-rule:evenodd;fill:#456989;}
	.st56{fill-rule:evenodd;clip-rule:evenodd;fill:#8592A4;}
	.st57{fill-rule:evenodd;clip-rule:evenodd;fill:#E88C5E;}
</style>
<g>
	<path class="st0" d="M391.7,238.7c-3.8,0-7.3,1.3-10.6,3.9c-3.2,2.6-5.3,6.4-6.3,11.3h33.6v-0.8c-0.3-3-1.3-5.5-3-7.7
		c-1.6-2.2-3.7-3.9-6.2-5C396.8,239.3,394.3,238.7,391.7,238.7 M414.5,256.4c0,0.8-0.3,1.5-0.9,2c-0.6,0.6-1.3,0.8-2.1,0.8h-37.2
		c0,3.9,0.8,7.5,2.4,10.6c1.6,3.1,3.9,5.6,6.9,7.4c3,1.8,6.5,2.7,10.6,2.7c3.2,0,6-0.7,8.5-2c2.5-1.3,4.5-3,6-5
		c0.7-0.6,1.4-0.9,2.1-0.9c0.7,0,1.2,0.3,1.8,0.8c0.5,0.5,0.8,1.1,0.8,1.8c0,0.7-0.3,1.4-1,2.1c-2.1,2.6-4.7,4.7-7.9,6.3
		c-3.2,1.6-6.6,2.5-10.1,2.5c-5.1,0-9.5-1.1-13.4-3.2c-3.9-2.2-6.9-5.2-9.1-9.1c-2.2-3.9-3.3-8.4-3.3-13.5c0-5.4,1.1-10.1,3.2-14.1
		c2.1-4,5-7.1,8.5-9.3c3.5-2.1,7.3-3.2,11.3-3.2c3.9,0,7.6,0.9,11.1,2.8c3.4,1.8,6.3,4.5,8.4,8.1
		C413.3,247.4,414.5,251.6,414.5,256.4z M337.5,280c3.6,0,6.8-0.9,9.7-2.6c2.9-1.7,5.1-4.2,6.7-7.4c1.6-3.2,2.4-6.8,2.4-10.8
		c0-4-0.8-7.6-2.4-10.7c-1.6-3.2-3.8-5.6-6.7-7.3c-2.9-1.7-6.1-2.6-9.7-2.6c-3.5,0-6.7,0.9-9.6,2.7c-2.9,1.8-5.1,4.3-6.7,7.4
		c-1.6,3.2-2.4,6.7-2.4,10.5c0,3.9,0.8,7.5,2.4,10.6c1.6,3.2,3.8,5.6,6.7,7.4C330.7,279.1,333.9,280,337.5,280z M358.9,234.2
		c0.9,0,1.6,0.3,2.1,0.8c0.6,0.6,0.8,1.3,0.8,2.2v42.7c0,5.1-1.1,9.5-3.2,13.2c-2.1,3.6-5.1,6.4-8.8,8.3c-3.7,1.9-8,2.9-12.8,2.9
		c-2.3,0-4.7-0.3-7.2-0.9c-2.5-0.6-4.7-1.3-6.5-2.3c-1.8-0.9-2.8-1.9-3.1-2.9c-0.5-0.5-0.7-1-0.7-1.6c0-0.7,0.3-1.2,0.9-1.6
		c0.3-0.2,0.6-0.3,1-0.3c0.4,0,1.1,0.2,2.3,0.7l2.1,0.9c4.1,1.6,7.9,2.4,11.4,2.4c5.8,0,10.4-1.7,13.7-5c3.3-3.3,5-7.8,5-13.5v-6.1
		c-1.6,3.5-4.2,6.3-7.8,8.3c-3.5,2-7.3,3-11.1,3c-4.5,0-8.6-1.1-12.3-3.4c-3.6-2.3-6.5-5.4-8.6-9.4c-2.1-4-3.2-8.5-3.2-13.5
		c0-4.9,1.1-9.4,3.2-13.4c2.1-4,5-7.1,8.6-9.4c3.6-2.3,7.7-3.4,12.2-3.4c4.1,0,7.9,1,11.4,3.1c3.4,2.1,6,4.5,7.6,7.4v-6.3
		c0-0.9,0.3-1.6,0.8-2.2C357.3,234.5,358,234.2,358.9,234.2z M280.8,280c3.4,0,6.5-0.9,9.2-2.7c2.7-1.8,4.9-4.3,6.4-7.4
		c1.5-3.2,2.3-6.7,2.3-10.7c0-3.9-0.8-7.4-2.3-10.5c-1.5-3.2-3.7-5.6-6.4-7.4c-2.7-1.8-5.8-2.7-9.2-2.7c-3.4,0-6.5,0.9-9.2,2.7
		c-2.7,1.8-4.9,4.3-6.4,7.4c-1.5,3.2-2.3,6.7-2.3,10.5c0,3.9,0.8,7.5,2.3,10.6c1.5,3.2,3.7,5.6,6.4,7.4
		C274.3,279.1,277.4,280,280.8,280z M301.3,211.6c0.9,0,1.6,0.3,2.1,0.8c0.6,0.6,0.8,1.3,0.8,2.1v67c0,0.9-0.3,1.6-0.8,2.1
		c-0.6,0.6-1.3,0.8-2.1,0.8c-0.9,0-1.6-0.3-2.1-0.8c-0.6-0.6-0.8-1.3-0.8-2.1v-6.9c-1.6,3-4.1,5.6-7.3,7.7
		c-3.3,2.1-6.8,3.2-10.8,3.2c-4.3,0-8.3-1.1-11.8-3.4c-3.5-2.3-6.3-5.4-8.3-9.4c-2-4-3.1-8.5-3.1-13.5c0-4.9,1-9.4,3.1-13.4
		c2-4,4.8-7.1,8.3-9.4c3.5-2.3,7.4-3.4,11.7-3.4c3.9,0,7.5,1,10.7,2.9c3.3,1.9,5.8,4.4,7.5,7.5v-28.9c0-0.9,0.3-1.6,0.8-2.1
		C299.8,211.9,300.5,211.6,301.3,211.6z M249,278.7c0.9,0,1.6,0.3,2.1,0.9c0.6,0.6,0.8,1.3,0.8,2.1c0,0.9-0.3,1.5-0.8,2.1
		c-0.6,0.5-1.3,0.8-2.1,0.8h-36.2c-0.9,0-1.6-0.3-2.1-0.8c-0.6-0.6-0.8-1.3-0.8-2.1v-63.1c0-0.9,0.3-1.6,0.8-2.1
		c0.6-0.6,1.3-0.8,2.1-0.8H249c0.9,0,1.6,0.3,2.1,0.8c0.6,0.6,0.8,1.3,0.8,2.1c0,0.9-0.3,1.5-0.8,2.1c-0.6,0.5-1.3,0.8-2.1,0.8
		h-32.9v24.7h28.5c0.9,0,1.6,0.3,2.1,0.8c0.6,0.6,0.8,1.3,0.8,2.1c0,0.9-0.3,1.5-0.8,2.1c-0.6,0.5-1.3,0.8-2.1,0.8h-28.5v26.8H249z
		 M128.4,258.2c0-3.2-0.7-6.1-2-8.6c-1.3-2.5-3.2-4.5-5.4-5.9c-2.3-1.4-4.8-2.1-7.5-2.1c-2.8,0-5.3,0.7-7.5,2.1
		c-2.3,1.4-4.1,3.3-5.4,5.9c-1.3,2.5-2,5.4-2,8.6c0,3.2,0.7,6.1,2,8.6c1.3,2.5,3.2,4.4,5.4,5.8c2.3,1.4,4.8,2.1,7.5,2.1
		c2.8,0,5.3-0.7,7.5-2.1c2.3-1.4,4.1-3.3,5.4-5.8C127.7,264.3,128.4,261.4,128.4,258.2z M140.2,258.2c0,5.3-1.2,10-3.5,14.1
		c-2.4,4.2-5.6,7.4-9.7,9.7c-4.1,2.3-8.6,3.4-13.5,3.4c-5,0-9.5-1.1-13.6-3.4c-4.1-2.3-7.3-5.5-9.7-9.7c-2.4-4.2-3.5-8.9-3.5-14.1
		c0-5.3,1.2-10,3.5-14.1c2.4-4.2,5.6-7.4,9.7-9.8c4.1-2.3,8.6-3.5,13.6-3.5c4.9,0,9.4,1.2,13.5,3.5c4.1,2.3,7.3,5.6,9.7,9.8
		C139,248.2,140.2,253,140.2,258.2z M185.6,258.2c0-3.2-0.7-6.1-2-8.6c-1.3-2.5-3.2-4.5-5.4-5.9c-2.3-1.4-4.8-2.1-7.5-2.1
		c-2.8,0-5.3,0.7-7.5,2.1c-2.3,1.4-4.1,3.3-5.4,5.9c-1.3,2.5-2,5.4-2,8.6c0,3.2,0.7,6.1,2,8.6c1.3,2.5,3.2,4.4,5.4,5.8
		c2.3,1.4,4.8,2.1,7.5,2.1c2.8,0,5.3-0.7,7.5-2.1c2.3-1.4,4.1-3.3,5.4-5.8C184.9,264.3,185.6,261.4,185.6,258.2z M197.4,258.2
		c0,5.3-1.2,10-3.5,14.1c-2.4,4.2-5.6,7.4-9.7,9.7c-4.1,2.3-8.6,3.4-13.5,3.4c-5,0-9.5-1.1-13.6-3.4c-4.1-2.3-7.3-5.5-9.7-9.7
		c-2.4-4.2-3.5-8.9-3.5-14.1c0-5.3,1.2-10,3.5-14.1c2.4-4.2,5.6-7.4,9.7-9.8c4.1-2.3,8.6-3.5,13.6-3.5c4.9,0,9.4,1.2,13.5,3.5
		s7.3,5.6,9.7,9.8C196.2,248.2,197.4,253,197.4,258.2z M80.3,278.5c0,1.7-0.6,3.1-1.7,4.3c-1.1,1.1-2.6,1.7-4.3,1.7
		c-1.6,0-3-0.6-4.1-1.7c-1.1-1.2-1.7-2.6-1.7-4.3v-60.9c0-1.7,0.6-3.1,1.7-4.3c1.2-1.2,2.6-1.7,4.3-1.7c1.6,0,3,0.6,4.1,1.7
		c1.1,1.1,1.7,2.6,1.7,4.3V278.5z M54.3,247.3c1.7,0,3.1,0.6,4.2,1.7c1.1,1.1,1.7,2.6,1.7,4.3v20.9c0,2.3-1,4.1-3.1,5.3
		c-6.4,4-13.5,6-21.2,6c-6.5,0-12.5-1.6-18-4.8c-5.5-3.2-9.9-7.5-13.1-12.9C1.6,262.4,0,256.5,0,250c0-6.4,1.6-12.4,4.8-17.8
		c3.2-5.4,7.6-9.7,13.1-12.9c5.5-3.2,11.5-4.8,18-4.8c6.5,0,12.2,1.3,16.9,3.9c1,0.5,1.7,1.2,2.2,2.1c0.5,0.9,0.7,1.8,0.7,2.8
		c0,1.6-0.5,3.1-1.6,4.3c-1.1,1.2-2.4,1.8-4,1.8c-1,0-2.1-0.3-3.3-0.8c-3.5-1.5-7.2-2.3-11-2.3c-4.2,0-8.1,1.1-11.6,3.2
		c-3.5,2.1-6.4,5-8.4,8.6c-2.1,3.6-3.1,7.6-3.1,11.8c0,4.3,1,8.2,3.1,11.8c2.1,3.6,4.9,6.5,8.4,8.6c3.5,2.1,7.4,3.2,11.6,3.2
		c1.8,0,3.8-0.2,5.9-0.5c2.1-0.3,3.9-0.8,5.5-1.3v-12.8h-9.3c-1.7,0-3.1-0.6-4.3-1.7c-1.2-1.1-1.7-2.5-1.7-4.2
		c0-1.7,0.6-3.1,1.7-4.2c1.1-1.1,2.6-1.7,4.3-1.7H54.3z"/>
	<g>
		<path class="st1" d="M207.4,118.6c23.4-0.7,42.3,3.8,42.3,10.1c0,6.3-19,11.9-42.3,12.6c-23.4,0.7-42.3-3.8-42.3-10.1
			C165.1,124.9,184,119.3,207.4,118.6"/>
		<g>
			<polygon class="st2" points="178.5,83.9 312.5,83.9 238.7,176.1 104.7,176.1 			"/>
			<path class="st3" d="M266.2,107.6h56.1l46.4-18.5h46 M226.7,152.5h56.1l13.8,18.5h46 M89.9,130h288.7"/>
			<path class="st2" d="M105.3,118.6c11,2.9,13,10.5,4.5,16.8c-8.5,6.3-24.3,9.1-35.3,6.1c-11-2.9-13-10.5-4.5-16.8
				C78.5,118.4,94.3,115.6,105.3,118.6"/>
			<path class="st4" d="M430.1,77.6c11,2.9,13,10.5,4.5,16.8c-8.5,6.3-24.3,9.1-35.3,6.1c-11-2.9-13-10.5-4.5-16.8
				C403.3,77.4,419.1,74.6,430.1,77.6"/>
			<path class="st4" d="M394.1,118.6c11,2.9,13,10.5,4.5,16.8c-8.5,6.3-24.3,9.1-35.3,6.1c-11-2.9-13-10.5-4.5-16.8
				C367.2,118.4,383,115.6,394.1,118.6"/>
			<path class="st4" d="M358,159.5c11,2.9,13,10.5,4.5,16.8c-8.5,6.3-24.3,9.1-35.3,6.1c-11-2.9-13-10.5-4.5-16.8
				C331.2,159.3,347,156.6,358,159.5"/>
			<polygon class="st5" points="49.3,111.1 133,111.1 104.3,147 20.6,147 			"/>
		</g>
		<g>
			<path class="st1" d="M212.9,105.3c24.1,0,43.6,5.2,43.6,11.7c0,6.4-19.5,11.7-43.6,11.7c-24.1,0-43.6-5.2-43.6-11.7
				C169.4,110.6,188.9,105.3,212.9,105.3"/>
			<path class="st6" d="M179.3,15.9c4.5,1.9,7.5,4.2,11.2,8l-5.1,3.8c-1.3-1.4-11.1-0.9-9.6-2c2.9-2.2,1.1-4.2-1.5-5.3
				c-4.9-2.9-6.4,10.2-18.9,6.4c-8.3-2.5-12-10.3-9.5-17.6c2.5-7.3,11.3-11.1,19.6-8.4c5,1.6,7.4,5.6,7.8,9.9
				C173.7,15.3,174.1,13.7,179.3,15.9"/>
			<path class="st6" d="M251.4,64.8c-2.6-3.7,10.3-17,17.8-26.9c7.4-10,13.5-8.4,16.7-5.7c3.2,2.7,3.6,10.5-3.7,17.9
				C274.9,57.4,254,68.5,251.4,64.8"/>
			<path class="st6" d="M190.8,119.2c11.7,0,13.9-7.6,21.6-7.7c7.7-0.1,11.1,7.7,22.3,7.7c18.2,0,30.1-39.1,30.1-60.5
				c0-27.4-23.3-45.9-51.9-45.9c-28.7,0-51.9,18.5-51.9,45.9C160.9,91.1,174.8,119.2,190.8,119.2"/>
			<path class="st7" d="M266.6,47.4c-0.9-1.7,3.1-3.8,6.7-8.6c3.6-4.8,6.6-5.7,7.4-4c0.9,1.7-0.7,5-4.4,8.1
				C272.6,46.1,267.5,49.1,266.6,47.4"/>
			<path class="st7" d="M163,2.4c3.1,0,5.6,2.5,5.6,5.6c0,5.7-11.2,6-11.2-0.8C157.4,4.1,159.9,2.4,163,2.4"/>
			<path class="st6" d="M174.6,58.5c1.4,4.3-14.6,13.5-24.4,21c-9.9,7.5-15.3,4.4-17.7,0.9c-2.4-3.4-0.6-11.1,8.5-16.2
				C150,59.1,173.1,54.2,174.6,58.5"/>
			<path class="st7" d="M138.4,75.2c0.7,0.8,0.6,2.2-0.3,3.2c-0.8,0.9-2.1,1-2.8,0.2c-0.7-0.8-0.6-2.2,0.3-3.2
				C136.5,74.5,137.7,74.4,138.4,75.2 M156.9,63.2c1.4,1.4-4.3,0.4-12.7,7.5c-3,2.5-4.1,4.2-5.6,3.2c-0.6-0.4-1.9-2,2.4-5.4
				C145.3,64.9,155.4,61.7,156.9,63.2z"/>
			<path class="st8" d="M215.1,14.9c25.6,0,46.3,20.7,46.3,46.3c0,46.6-92.3,48.9-92.3-6.7C169.1,28.9,189.5,14.9,215.1,14.9"/>
			<path class="st9" d="M215.3,67.1c7.8-0.5,10.6-3.4,14.1-0.6c3.6,2.8-2.3,13.2-13.4,13.9c-11.1,0.7-18-8.9-15-12.2
				C204,64.9,207.4,67.6,215.3,67.1"/>
			<path class="st6" d="M223.3,76.6c-1.9,1.4-4.4,2.4-7.4,2.5c-3.1,0.2-5.7-0.6-7.8-1.7c0-2.4,4.2-3.9,7.5-2.5
				C218.8,73.1,223.1,74.2,223.3,76.6"/>
			<path class="st7" d="M215.3,68c5.1-0.3,7.9-1.6,10.2-1.7c0,0,0,0.1,0,0.1c0.1,1.8-1.1,3.3-2.8,3.4c-0.5,0-1.1-0.1-1.5-0.3
				c-0.5,1.1-1.6,1.9-2.9,2c-1.2,0.1-2.2-0.4-2.9-1.3c-0.5,0.9-1.5,1.5-2.7,1.6c-1.3,0.1-2.5-0.6-3.1-1.7c-0.4,0.3-1,0.5-1.5,0.6
				c-1.7,0.1-3.1-1.3-3.2-3.1c0-0.1,0-0.1,0-0.2C207.2,67.4,210.2,68.3,215.3,68"/>
			<path class="st10" d="M254.6,43c1-0.2,2.1,0.7,2.5,1.9c0.4,1.2-0.2,2.3-1.2,2.5c-1,0.2-2.1-0.7-2.5-1.9
				C253.1,44.3,253.6,43.2,254.6,43 M213.6,28.8c-9,1.9-11.9-6.9-0.4-9.6c14.3-3.5,34.7,5.9,40.8,18.7c1.6,3.4-0.9,4.7-3.7,1.3
				C242.6,29.7,228.8,25.7,213.6,28.8z"/>
			<path class="st9" d="M238.9,47.1c4.5-0.1,8.3,3.4,8.5,8c0.1,4.5-3.4,8.3-8,8.5c-4.5,0.1-8.3-3.4-8.5-8
				C230.8,51,234.3,47.2,238.9,47.1"/>
			<path class="st10" d="M242.7,49.6c1.3,0,2.3,1,2.4,2.2c0,1.3-1,2.3-2.2,2.4c-1.3,0-2.3-1-2.4-2.2
				C240.4,50.7,241.4,49.7,242.7,49.6"/>
			<path class="st9" d="M189.4,47.7c4.5-0.1,8.3,3.4,8.5,8c0.1,4.5-3.4,8.3-8,8.5c-4.5,0.1-8.3-3.4-8.5-8
				C181.3,51.6,184.9,47.8,189.4,47.7"/>
			<path class="st10" d="M193.2,50.2c1.3,0,2.3,1,2.4,2.2c0,1.3-1,2.3-2.2,2.4c-1.3,0-2.3-1-2.4-2.2C191,51.3,192,50.2,193.2,50.2"
				/>
		</g>
	</g>
</g>
</svg>
