<?xml version="1.0" encoding="UTF-8"?>
<svg width="340px" height="162px" viewBox="0 0 340 162" version="1.1" xmlns="http://www.w3.org/2000/svg" xmlns:xlink="http://www.w3.org/1999/xlink">
    <!-- Generator: Sketch 51.1 (57501) - http://www.bohemiancoding.com/sketch -->
    <title>Go-Jek</title>
    <desc>Created with Sketch.</desc>
    <defs></defs>
    <g id="Go-Jek" stroke="none" stroke-width="1" fill="none" fill-rule="evenodd">
        <g id="logo/gojek" transform="translate(49.000000, 37.000000)" fill="#7B7B7B">
            <g>
                <path d="M130.210386,68.0772723 C126.598856,67.9229715 123.79614,64.8359457 123.949645,61.1888649 C124.030893,59.3207823 124.877002,57.6695278 126.16398,56.5252137 L127.660071,59.1533709 C127.058039,59.7514129 126.667783,60.5689721 126.627492,61.486037 C126.547576,63.411268 128.027351,65.0369738 129.934676,65.121688 C131.838671,65.2047214 133.450308,63.7111294 133.533886,61.7899323 C133.615134,59.8636928 132.135692,58.2349614 130.229366,58.1526004 C130.086516,58.1462132 129.945665,58.1519281 129.806811,58.1623493 C129.457845,57.4947207 128.909422,56.441508 128.296401,55.2508029 C129.066923,54.9738009 129.905041,54.8329468 130.775458,54.871606 C134.387654,55.0265792 137.18937,58.1139412 137.033534,61.7596773 C136.875701,65.4077665 133.820917,68.2376242 130.210386,68.0772723 L130.210386,68.0772723 Z M119.327512,42.3523936 C113.357466,41.8847847 108.176255,44.4245299 108.176255,44.4245299 C108.176255,44.4245299 108.000773,44.6662343 107.822294,44.4114193 C106.78139,42.9134571 106.66418,41.7983897 106.66418,41.7983897 L109.149896,35.9642034 C111.073204,38.4061238 119.384785,41.0208343 119.384785,41.0208343 L119.327512,42.3523936 Z M92.1661139,67.596889 C88.6777872,67.4429243 85.9536558,64.557599 85.9176936,61.0775935 L88.6884426,61.1976053 C88.5978713,63.284869 90.202515,65.0487397 92.2700045,65.1411857 C94.3408239,65.2295978 96.0863192,63.6109515 96.1745596,61.5213345 L98.9436437,61.6453803 C98.611327,65.1105945 95.6521098,67.7478282 92.1661139,67.596889 L92.1661139,67.596889 Z M92.7311856,54.4100481 C93.0388616,54.423831 93.3368811,54.4682051 93.6339016,54.524345 L92.7072108,57.5915369 C92.6669199,57.5881753 92.6322897,57.5854859 92.5943297,57.5807796 C91.028645,57.5132099 89.6447689,58.4245599 89.028418,59.7769616 L86.0585453,59.6475371 C86.7012019,56.5406774 89.4862692,54.2685216 92.7311856,54.4100481 L92.7311856,54.4100481 Z M95.9681103,55.4521672 C97.5777487,56.4989927 98.6972365,58.2235318 98.9316563,60.2116261 L95.9574549,60.0818655 C95.7143775,59.3954115 95.2815,58.8014036 94.7164284,58.3623689 L95.9681103,55.4521672 Z M130.815748,51.8299628 C129.431206,51.7687804 128.100275,52.0064507 126.88622,52.4824639 C125.629876,49.977344 124.551012,47.7014903 124.78077,47.7135923 C125.289235,47.7354432 127.313103,47.8218382 127.313103,47.8218382 C127.313103,47.8218382 127.651747,44.6611917 127.52255,42.9164826 C127.39535,41.1677395 126.789322,41.1381568 126.789322,41.1381568 L124.521709,41.8568828 C121.846194,42.7699136 121.448945,42.5456899 121.448945,42.5456899 C121.448945,42.5456899 121.480579,39.8479461 120.973446,39.8240782 C120.465314,39.8022273 117.992252,39.1719133 117.992252,39.1719133 C117.783139,38.7614528 116.11989,37.8746431 115.250805,37.2191165 C114.279162,36.1050575 110.894393,33.6342267 108.4503,31.9096876 C108.774625,32.0034784 109.116931,32.0633162 109.469227,32.0764267 C111.900333,32.183328 113.959498,30.278267 114.066719,27.8218913 C114.168944,25.364171 112.282265,23.2880008 109.849826,23.1804272 C107.413059,23.0711728 105.356224,24.9799316 105.250003,27.4366434 C105.205383,28.4996049 105.536368,29.4916351 106.119421,30.2853265 C105.903648,30.1404383 105.784773,30.0584134 105.784773,30.0584134 C105.19939,29.5212178 104.522103,30.2291865 104.522103,30.2291865 C104.522103,30.2291865 98.86173,41.5610554 98.5264164,42.2612922 C98.1914358,42.9655631 99.5476743,44.4591551 99.5476743,44.4591551 L91.8284695,44.6329537 C90.5068611,44.6783363 89.5052492,49.1436487 89.5052492,49.1436487 C84.3916339,50.04962 81.3791395,56.3725937 81.3791395,56.3725937 L82.658792,57.3498325 L82.5655568,59.4955894 L80.2356769,59.394403 C79.3882359,60.2758341 80.175407,60.8254679 80.175407,60.8254679 L82.5032891,60.9290075 L82.5032891,60.9690114 L82.4879719,61.3387956 L82.4966294,61.3387956 C82.4903027,66.6909177 86.6655728,71.1417749 92.0136078,71.374739 C97.3653057,71.6063583 101.908855,67.5310002 102.35605,62.190644 C103.431252,62.1805589 108.331092,62.144589 111.476113,62.190644 C115.026042,62.2430861 115.926427,60.1302736 115.926427,60.1302736 L116.245758,52.6670198 C116.245758,52.6670198 118.476409,52.7648445 119.513317,52.2962271 C120.542566,51.8299628 122.075619,49.3372811 122.075619,49.3372811 L124.592635,53.7646066 C122.331016,55.4646054 120.818276,58.1415069 120.68475,61.2056733 C120.452328,66.6209949 124.613613,71.1979149 129.9753,71.4349129 C135.337653,71.6685493 139.875209,67.4691454 140.105633,62.0531515 C140.339387,56.6398468 136.177103,52.0622545 130.815748,51.8299628 L130.815748,51.8299628 Z" id="Fill-1"></path>
                <path d="M32.1534751,33.9188261 C31.9903136,34.0220295 31.7658832,34.073127 31.481183,34.073127 L31.2977096,34.073127 C29.8305878,33.9911021 27.9968521,33.8878987 25.7961695,33.7645252 C23.5954868,33.6411518 21.1906858,33.579297 18.5830983,33.579297 C17.3603858,33.579297 16.2498885,33.7443552 15.2516064,34.073127 C14.2526583,34.4029072 13.4072153,34.9680047 12.7146113,35.7701003 C12.0213413,36.572532 11.4922318,37.6523019 11.1256178,39.0100823 C10.7586709,40.3678626 10.5751974,42.0554233 10.5751974,44.0707472 L10.5751974,51.7847819 C10.5751974,53.9244878 10.7893053,55.6725586 11.2171881,57.030339 C11.6450708,58.3877832 12.1951583,59.4581404 12.8677833,60.2390574 C13.5400754,61.0213191 14.2832927,61.5564977 15.0987674,61.8439208 C15.913576,62.1320163 16.6880938,62.2762322 17.4216547,62.2762322 C19.0922288,62.2762322 20.6615763,62.2140412 22.1283651,62.0906677 L22.1283651,47.8966691 C22.1283651,47.5678973 22.2402472,47.2794656 22.4646776,47.0327187 C22.688109,46.7859718 22.9631527,46.6625983 23.2898087,46.6625983 L31.1142361,46.6625983 C31.4398932,46.6625983 31.7255923,46.7859718 31.9700016,47.0327187 C32.2147439,47.2794656 32.3369486,47.5678973 32.3369486,47.8966691 L32.3369486,68.6321504 C32.3369486,69.4140759 31.9290447,69.8877358 31.1142361,70.0514494 C29.4429959,70.3812296 27.5077005,70.6797464 25.3070179,70.9463271 C23.1066682,71.2135803 20.4781028,71.3477111 17.4216547,71.3477111 C16.28019,71.3477111 15.047155,71.2240015 13.7235488,70.9772546 C12.3986107,70.7305076 11.0949834,70.319711 9.81133514,69.7428476 C8.52768684,69.1676651 7.29465192,68.3854034 6.11289633,67.3977434 C4.93047478,66.4104196 3.88191227,65.1975274 2.96487792,63.7567137 C2.04817656,62.3175808 1.3239392,60.5997651 0.794829695,58.6039389 C0.264721243,56.608785 0,54.3147782 0,51.7229271 L0,44.0707472 C0,40.1207796 0.550420396,36.8811337 1.65059522,34.3508013 C2.75110303,31.8204688 4.18759038,29.8148937 5.96005727,28.3337399 C7.73285715,26.8525861 9.72908841,25.8249222 11.950749,25.248395 C14.1714106,24.6725401 16.3824157,24.3841084 18.5830983,24.3841084 C21.6395465,24.3841084 24.246801,24.5595878 26.4075257,24.9088658 C28.5669185,25.2588161 30.2175137,25.5566605 31.3589784,25.8037436 C32.0512494,25.9271171 32.3978844,26.2357188 32.3978844,26.7292126 L32.3978844,33.2706952 C32.3978844,33.6004755 32.3159706,33.8166312 32.1534751,33.9188261" id="Fill-3"></path>
                <path d="M65.2841212,44.177514 C65.2841212,40.4178171 64.6621095,37.7113329 63.4197511,36.0583975 C62.1760607,34.4057983 60.2717327,33.5794987 57.7041031,33.5794987 C55.1368065,33.5794987 53.241802,34.4057983 52.0194225,36.0583975 C50.7967101,37.7113329 50.1853538,40.4178171 50.1853538,44.177514 L50.1853538,51.5540366 C50.1853538,55.3150781 50.7967101,58.02089 52.0194225,59.6734892 C53.241802,61.3260885 55.1368065,62.1523881 57.7041031,62.1523881 C60.2717327,62.1523881 62.1760607,61.3260885 63.4197511,59.6734892 C64.6621095,58.02089 65.2841212,55.3150781 65.2841212,51.5540366 L65.2841212,44.177514 Z M75.737114,51.5379005 C75.737114,55.1170755 75.2689403,58.1620803 74.332926,60.6712343 C73.3969116,63.1810605 72.1159272,65.2283204 70.4886407,66.8116691 C68.8610213,68.3960263 66.9487017,69.5480722 64.7520148,70.2674706 C62.555328,70.9868689 60.1951466,71.3475766 57.6734687,71.3475766 C55.1511248,71.3475766 52.7909434,70.9868689 50.5942566,70.2674706 C48.3975697,69.5480722 46.4852501,68.3960263 44.8576307,66.8116691 C43.2303443,65.2283204 41.9493598,63.1810605 41.0133455,60.6712343 C40.0773311,58.1620803 39.6101564,55.1170755 39.6101564,51.5379005 L39.6101564,44.1939862 C39.6101564,40.6144751 40.0773311,37.5704787 41.0133455,35.0606525 C41.9493598,32.5514986 43.2303443,30.5042387 44.8576307,28.9202177 C46.4852501,27.3368689 48.3975697,26.1844869 50.5942566,25.46408 C52.7909434,24.7446816 55.1511248,24.3843101 57.6734687,24.3843101 C60.1951466,24.3843101 62.555328,24.7446816 64.7520148,25.46408 C66.9487017,26.1844869 68.8610213,27.3368689 70.4886407,28.9202177 C72.1159272,30.5042387 73.3969116,32.5514986 74.332926,35.0606525 C75.2689403,37.5704787 75.737114,40.6144751 75.737114,44.1939862 L75.737114,51.5379005 Z" id="Fill-5"></path>
                <path d="M162.058016,67.3884988 C161.600498,68.4887749 160.983481,69.3628103 160.199307,70.0038817 C159.418796,70.6436084 158.496433,71.0970983 157.434885,71.3626705 C156.376333,71.6255535 155.227209,71.7573311 153.991844,71.7573311 C153.43443,71.7573311 152.699871,71.8655771 152.260999,71.8326327 C151.821129,71.7990159 146.691198,71.9590316 146.039218,71.8924705 C145.548734,71.8262455 145.306989,71.5478988 145.306989,71.0533965 L145.162807,62.928229 C145.162807,62.7645154 145.210424,62.6105507 145.309986,62.4612924 C145.405885,62.3123702 145.536747,62.2384133 145.70124,62.2384133 L150.216153,62.2686684 C150.770569,62.2686684 151.120201,62.1291589 151.267712,61.8494676 C151.415223,61.5684316 151.488147,61.1162864 151.488147,60.4896702 L151.395244,26.5555821 C151.395244,26.2933715 151.491143,26.0691478 151.686604,25.8886259 C151.885062,25.7084401 152.110824,25.6183472 152.371217,25.6183472 L161.519916,25.6805382 C161.776979,25.6805382 162.009734,25.7706311 162.20353,25.9514892 C162.398991,26.1330196 162.496888,26.3555625 162.496888,26.6181093 L162.496888,62.6562695 C162.496888,64.3330728 162.512205,66.2865419 162.058016,67.3884988" id="Fill-18"></path>
                <path d="M197.182163,71.0512114 C196.121946,71.2162696 194.70677,71.3907405 192.933637,71.576305 C191.16117,71.7608609 188.624508,71.8536431 185.323651,71.8536431 C183.36771,71.8536431 181.488356,71.6885849 179.688251,71.3598131 C177.886815,71.0310413 176.300152,70.3936678 174.926932,69.4470203 C173.553378,68.5007089 172.456866,67.1536859 171.637396,65.4046066 C170.817925,63.6561996 170.408357,61.3837076 170.408357,58.5851135 L170.408357,38.0967153 C170.408357,35.2994658 170.817925,33.0363865 171.637396,31.3081496 C172.456866,29.5802488 173.553378,28.2439832 174.926932,27.2969995 C176.300152,26.3510242 177.897137,25.7136507 179.718886,25.3838704 C181.539635,25.0550987 183.428313,24.8903766 185.384586,24.8903766 C187.014204,24.8903766 188.450358,24.9209679 189.694381,24.9828227 C190.93674,25.0443413 192.026925,25.1169535 192.964271,25.1986422 C193.901618,25.2816755 194.70677,25.3637004 195.379395,25.4457253 C196.051687,25.5284225 196.652055,25.6104473 197.182163,25.6924722 C197.996972,25.8158456 198.404876,26.2276508 198.404876,26.9268791 L198.404876,32.66593 C198.404876,32.9957102 198.283004,33.2831334 198.037929,33.5298803 C197.793852,33.7766273 197.508153,33.9003369 197.182163,33.9003369 L184.77323,33.9003369 C183.346066,33.9003369 182.338128,34.1991898 181.747749,34.7952147 C181.156039,35.3919119 180.861016,36.492188 180.861016,38.0967153 L180.861016,43.7127289 L196.693012,43.7127289 C197.019002,43.7127289 197.304368,43.8361023 197.549443,44.0828492 C197.793852,44.3295962 197.915724,44.6180278 197.915724,44.9467996 L197.915724,50.8095601 C197.915724,51.1393404 197.793852,51.4267636 197.549443,51.6735105 C197.304368,51.9202574 197.019002,52.0436309 196.693012,52.0436309 L180.861016,52.0436309 L180.861016,58.5851135 C180.861016,60.1899769 181.156039,61.2909254 181.747749,61.8869503 C182.338128,62.4836475 183.346066,62.781828 184.77323,62.781828 L197.182163,62.781828 C197.508153,62.781828 197.793852,62.9052015 198.037929,63.1519484 C198.283004,63.3986953 198.404876,63.687127 198.404876,64.0158988 L198.404876,69.755622 C198.404876,70.4958628 197.996972,70.9278379 197.182163,71.0512114" id="Fill-7"></path>
                <path d="M241.621701,26.1244474 C241.621701,26.3711943 241.519142,26.659626 241.316023,26.9883977 L226.767676,47.8472525 L241.377292,70.0020328 C241.539454,70.2084396 241.621701,70.4340079 241.621701,70.6814272 C241.621701,71.0928962 241.336335,71.2979583 240.765935,71.2979583 L230.252007,71.2979583 C229.88506,71.2979583 229.610016,71.2162696 229.426543,71.0512114 C229.243069,70.8871617 229.069585,70.6814272 228.906757,70.4340079 L216.498156,50.0689832 L216.498156,70.0638876 C216.498156,70.3936678 216.375952,70.6814272 216.130877,70.9278379 C215.8868,71.1745849 215.601101,71.2979583 215.275777,71.2979583 L207.267543,71.2979583 C206.94122,71.2979583 206.656187,71.1745849 206.412111,70.9278379 C206.167368,70.6814272 206.044831,70.3936678 206.044831,70.0638876 L206.044831,26.6182774 C206.044831,26.2895056 206.167368,26.0114951 206.412111,25.7849182 C206.656187,25.5593499 206.94122,25.4457253 207.267543,25.4457253 L215.275777,25.4457253 C215.601101,25.4457253 215.8868,25.5593499 216.130877,25.7849182 C216.375952,26.0114951 216.498156,26.2895056 216.498156,26.6182774 L216.498156,46.2427252 L229.946329,26.1863022 C230.231029,25.6924722 230.679889,25.4457253 231.291246,25.4457253 L240.643731,25.4457253 C241.295045,25.4457253 241.621701,25.6723021 241.621701,26.1244474" id="Fill-9"></path>
                <path d="M88.8637913,9.69671677 C90.487415,8.68821439 109.701848,-4.93900594 129.467368,10.6178156 C129.467368,10.6178156 131.618437,10.1001177 131.482247,8.67241452 C131.345724,7.24134964 111.188949,-9.30682975 86.5269188,7.44607562 C85.790361,7.95167148 87.2378368,10.7005128 88.8637913,9.69671677" id="Fill-12"></path>
                <path d="M93.4941488,15.93027 C94.7328444,15.1190979 109.386081,4.17987258 124.458876,16.6691661 C124.458876,16.6691661 126.196379,16.2576971 126.091823,15.1083405 C125.985934,13.9626818 110.616452,0.679696988 91.8095893,14.1260592 C91.2468486,14.529124 92.2567851,16.7377442 93.4941488,15.93027" id="Fill-14"></path>
                <path d="M98.8316283,21.5187178 C99.6484349,20.9398375 109.302602,13.0620892 119.231147,22.0542326 C119.231147,22.0542326 120.314007,21.6229298 120.245746,20.7959578 C120.177484,19.9706667 110.047817,10.4070386 97.6561994,20.08967 C97.2852567,20.3791101 98.0151548,22.1009599 98.8316283,21.5187178" id="Fill-16"></path>
            </g>
        </g>
    </g>
</svg>