<svg width="340" height="162" xmlns="http://www.w3.org/2000/svg"><g fill="#7B7B7B" fill-rule="evenodd"><path d="M179.21 105.077c-3.611-.154-6.414-3.241-6.26-6.888a6.608 6.608 0 0 1 2.214-4.664l1.496 2.628a3.494 3.494 0 0 0-1.033 2.333c-.08 1.925 1.4 3.55 3.307 3.635 1.904.084 3.516-1.41 3.6-3.331.08-1.927-1.399-3.555-3.305-3.638-.143-.006-.284 0-.423.01-.349-.667-.897-1.72-1.51-2.911a6.469 6.469 0 0 1 2.48-.38c3.611.155 6.413 3.243 6.257 6.889-.158 3.648-3.212 6.477-6.823 6.317zm-10.883-25.725c-5.97-.468-11.151 2.072-11.151 2.072s-.175.242-.354-.013c-1.04-1.498-1.158-2.613-1.158-2.613l2.486-5.834c1.923 2.442 10.235 5.056 10.235 5.056l-.058 1.332zm-27.161 25.244c-3.488-.154-6.213-3.04-6.248-6.52l2.77.12c-.09 2.088 1.514 3.852 3.582 3.944 2.07.089 3.816-1.53 3.904-3.62l2.77.124c-.333 3.466-3.292 6.103-6.778 5.952zm.565-13.187c.308.014.606.058.903.114l-.927 3.068-.113-.011a3.745 3.745 0 0 0-3.566 2.196l-2.97-.13c.643-3.106 3.428-5.378 6.673-5.237zm3.237 1.042a6.605 6.605 0 0 1 2.963 4.76l-2.974-.13a3.769 3.769 0 0 0-1.24-1.72l1.251-2.91zm34.848-3.622a9.583 9.583 0 0 0-3.93.652c-1.256-2.505-2.335-4.78-2.105-4.768l2.532.108s.339-3.16.21-4.906c-.127-1.748-.733-1.778-.733-1.778l-2.268.719c-2.676.913-3.073.689-3.073.689s.032-2.698-.475-2.722c-.508-.022-2.982-.652-2.982-.652-.209-.41-1.872-1.297-2.74-1.953-.973-1.114-4.357-3.585-6.801-5.31.324.094.666.154 1.018.167 2.432.107 4.49-1.798 4.598-4.254.102-2.458-1.785-4.534-4.217-4.642-2.437-.109-4.494 1.8-4.6 4.257a4.481 4.481 0 0 0 .87 2.848 35.76 35.76 0 0 1-.335-.227c-.585-.537-1.263.171-1.263.171s-5.66 11.332-5.995 12.032c-.335.704 1.021 2.198 1.021 2.198l-7.72.174c-1.32.045-2.322 4.51-2.322 4.51-5.114.907-8.127 7.23-8.127 7.23l1.28.977-.093 2.145-2.33-.1c-.847.88-.06 1.43-.06 1.43l2.328.104v.04l-.016.37h.009c-.006 5.352 4.169 9.803 9.517 10.036 5.352.231 9.895-3.844 10.342-9.184 1.075-.01 5.975-.046 9.12 0 3.55.052 4.45-2.06 4.45-2.06l.32-7.464s2.23.098 3.267-.37c1.03-.467 2.563-2.96 2.563-2.96l2.517 4.428a9.82 9.82 0 0 0-3.908 7.44c-.233 5.416 3.929 9.993 9.29 10.23 5.363.233 9.9-3.966 10.13-9.382.234-5.413-3.928-9.991-9.29-10.223zM81.153 70.919c-.163.103-.388.154-.672.154h-.184l-5.501-.308c-2.201-.124-4.606-.186-7.213-.186-1.223 0-2.334.166-3.332.494a5.622 5.622 0 0 0-2.537 1.697c-.693.803-1.222 1.883-1.589 3.24-.367 1.358-.55 3.046-.55 5.061v7.714c0 2.14.214 3.888.642 5.246.428 1.357.978 2.427 1.65 3.208.673.783 1.416 1.318 2.231 1.605.815.288 1.59.433 2.323.433 1.67 0 3.24-.063 4.707-.186V84.897c0-.329.112-.617.336-.864a1.07 1.07 0 0 1 .825-.37h7.825c.325 0 .611.123.856.37.244.247.366.535.366.864v20.735c0 .782-.407 1.256-1.222 1.42-1.671.329-3.607.628-5.807.894-2.2.267-4.83.402-7.886.402-1.141 0-2.374-.124-3.698-.37a17.202 17.202 0 0 1-3.912-1.235c-1.284-.576-2.517-1.358-3.699-2.345-1.182-.988-2.23-2.2-3.148-3.641-.916-1.44-1.64-3.157-2.17-5.153-.53-1.995-.794-4.29-.794-6.881V81.07c0-3.95.55-7.19 1.65-9.72 1.1-2.53 2.537-4.536 4.31-6.017a15.178 15.178 0 0 1 5.99-3.086 26.337 26.337 0 0 1 6.633-.864c3.056 0 5.663.175 7.824.525 2.16.35 3.81.648 4.952.895.692.123 1.039.432 1.039.925v6.542c0 .33-.082.546-.245.648M114.284 81.178c0-3.76-.622-6.466-1.864-8.12-1.244-1.652-3.148-2.478-5.716-2.478-2.567 0-4.462.826-5.685 2.479-1.222 1.653-1.834 4.36-1.834 8.119v7.377c0 3.76.612 6.466 1.834 8.119 1.223 1.653 3.118 2.479 5.685 2.479 2.568 0 4.472-.826 5.716-2.479 1.242-1.653 1.864-4.358 1.864-8.12v-7.376zm10.453 7.36c0 3.58-.468 6.625-1.404 9.134-.936 2.51-2.217 4.557-3.844 6.14a14.644 14.644 0 0 1-5.737 3.456c-2.197.72-4.557 1.08-7.079 1.08-2.522 0-4.882-.36-7.079-1.08a14.644 14.644 0 0 1-5.736-3.456c-1.628-1.583-2.909-3.63-3.845-6.14-.936-2.51-1.403-5.554-1.403-9.134v-7.344c0-3.579.467-6.623 1.403-9.133.936-2.509 2.217-4.556 3.845-6.14a14.67 14.67 0 0 1 5.736-3.456c2.197-.72 4.557-1.08 7.08-1.08 2.521 0 4.881.36 7.078 1.08a14.67 14.67 0 0 1 5.737 3.456c1.627 1.584 2.908 3.631 3.844 6.14.936 2.51 1.404 5.554 1.404 9.133v7.344zM211.06 104.388c-.458 1.1-1.075 1.974-1.859 2.615-.78.64-1.703 1.094-2.764 1.36-1.059.262-2.208.394-3.443.394-.558 0-1.292.108-1.73.075-.44-.033-5.57.127-6.223.06-.49-.066-.732-.345-.732-.84l-.144-8.124c0-.164.048-.318.147-.467a.444.444 0 0 1 .391-.223l4.515.03c.555 0 .904-.14 1.052-.419.147-.281.22-.733.22-1.36l-.093-33.934c0-.262.096-.486.292-.667a.984.984 0 0 1 .684-.27l9.149.062c.257 0 .49.09.684.271a.876.876 0 0 1 .293.667v36.038c0 1.676.015 3.63-.439 4.732M246.18 108.051c-1.06.165-2.475.34-4.248.525-1.773.185-4.31.277-7.61.277-1.956 0-3.836-.165-5.636-.493-1.801-.33-3.388-.967-4.761-1.913-1.374-.947-2.47-2.294-3.29-4.043-.82-1.748-1.229-4.02-1.229-6.82V75.098c0-2.797.41-5.06 1.23-6.789.819-1.728 1.915-3.064 3.289-4.01 1.373-.947 2.97-1.584 4.792-1.914 1.82-.329 3.71-.493 5.665-.493 1.63 0 3.066.03 4.31.092 1.243.061 2.333.134 3.27.216.938.083 1.743.165 2.415.247.673.083 1.273.165 1.803.247.815.123 1.223.535 1.223 1.234v5.74c0 .329-.122.616-.367.863-.244.247-.53.37-.856.37h-12.409c-1.427 0-2.435.3-3.025.895-.592.597-.887 1.697-.887 3.302v5.616h15.832c.326 0 .611.123.856.37s.367.535.367.864v5.863c0 .33-.122.617-.367.864a1.17 1.17 0 0 1-.856.37h-15.832v6.541c0 1.605.295 2.706.887 3.302.59.597 1.598.895 3.025.895h12.41c.325 0 .61.123.855.37s.367.535.367.864v5.74c0 .74-.408 1.172-1.223 1.295M290.62 63.124c0 .247-.103.535-.306.864l-14.548 20.859 14.61 22.155c.162.206.245.432.245.68 0 .41-.286.616-.856.616h-10.514c-.367 0-.642-.082-.825-.247a3.13 3.13 0 0 1-.52-.617l-12.41-20.365v19.995c0 .33-.121.617-.367.864-.244.247-.53.37-.855.37h-8.008c-.326 0-.611-.123-.855-.37a1.187 1.187 0 0 1-.368-.864V63.618c0-.329.123-.607.368-.833.244-.226.529-.34.855-.34h8.008c.326 0 .611.114.855.34.246.226.368.504.368.833v19.624l13.448-20.056c.284-.494.733-.74 1.345-.74h9.352c.651 0 .978.226.978.678M137.864 46.697c1.624-1.009 20.838-14.636 40.604.92 0 0 2.151-.517 2.015-1.945-.137-1.43-20.293-17.979-44.955-1.226-.737.506.71 3.255 2.337 2.25"/><path d="M142.494 52.93c1.239-.811 15.892-11.75 30.965.739 0 0 1.738-.412 1.633-1.56-.106-1.147-15.475-14.43-34.282-.983-.563.403.447 2.612 1.685 1.804"/><path d="M147.832 58.519c.817-.579 10.471-8.457 20.4.536 0 0 1.083-.432 1.015-1.259-.069-.825-10.198-10.389-22.59-.706-.371.29.359 2.011 1.175 1.429"/></g></svg>