<?xml version="1.0" encoding="UTF-8" standalone="no"?>
<svg width="133px" height="46px" viewBox="0 0 133 46" version="1.1" xmlns="http://www.w3.org/2000/svg" xmlns:xlink="http://www.w3.org/1999/xlink">
    <!-- Generator: Sketch 45 (43475) - http://www.bohemiancoding.com/sketch -->
    <title>google-1-1</title>
    <desc>Created with Sketch.</desc>
    <defs></defs>
    <g id="Page-1" stroke="none" stroke-width="1" fill="none" fill-rule="evenodd" opacity="0.597423041">
        <g id="Envoy-R2" transform="translate(-531.000000, -1008.000000)" fill-rule="nonzero" fill="#222222">
            <g id="Group-22" transform="translate(298.000000, 1005.000000)">
                <g id="google-1-1" transform="translate(233.000000, 3.000000)">
                    <path d="M20.602249,22.4140772 L26.3065499,22.4140772 L26.3065499,30.4489807 C24.526723,31.022471 22.2793595,31.3370116 19.9432703,31.3370116 C10.4756538,31.3370116 4.91125965,23.2062008 4.91125965,15.2654286 C4.91125965,7.47722008 9.94436218,2.01423166 16.9662663,2.01423166 C21.4096352,2.01423166 23.9950772,3.52388417 26.3081438,5.62674131 L26.3081438,8.24820849 L30.6452543,3.8986332 C27.9020186,2.03732046 23.9297284,0.268362934 18.251992,0.268362934 C5.78789081,0.268362934 0.0906737683,9.21101158 0.0906737683,16.5601776 C0.0906737683,27.0210039 7.68814381,33.3226486 17.2356312,33.3226486 C21.8649521,33.3226486 25.9753782,32.614 30.7233542,31.2890579 L30.7233542,22.9877452 C30.7233542,22.5632664 30.9093063,22.2719923 31.1873489,22.0162394 L32.6855912,20.5136911 L22.5113569,20.5136911 L20.602249,22.4140772 L20.602249,22.4140772 Z" id="Shape"></path>
                    <path d="M46.1556045,11.4948494 C38.9813968,11.4948494 34.536257,16.7521699 34.536257,22.332556 C34.536257,27.1492355 38.1173395,32.8679768 45.3728349,32.8679768 C52.3522357,32.8679768 56.6344461,27.6003552 56.6344461,21.9222857 C56.6344461,16.6331737 52.4496391,11.4968031 46.1556045,11.4968031 L46.1556045,11.4948494 L46.1556045,11.4948494 Z M44.9653342,13.0275907 C50.0234075,13.0275907 52.2759068,19.6363166 52.2759068,24.3499846 C52.2759068,31.3601004 47.0320586,31.4986332 46.4051345,31.4986332 C44.0054674,31.4986332 42.3283569,30.0442162 41.0729148,28.1365483 C39.9678282,26.3784247 38.8875353,23.1120695 38.8875353,19.9204865 C38.8875353,16.7413359 39.9251478,15.1890579 41.5581611,14.0470502 C42.893474,13.1909884 44.1437803,13.0275907 44.9635632,13.0275907 L44.9653342,13.0275907 Z" id="Shape"></path>
                    <path d="M93.0528921,11.4930734 C86.787016,11.4930734 83.3973755,15.4714517 83.3973755,19.9133822 C83.3973755,23.2950039 85.8129814,27.1099846 90.7964967,27.1099846 L92.0572517,27.1099846 C92.0572517,27.1099846 91.7138602,27.9465097 91.7120892,28.7546178 C91.7120892,29.9465328 92.1388935,30.6159305 93.0454541,31.6460463 C84.4704075,32.1699846 81.0240959,35.6386332 81.0240959,39.3665869 C81.0240959,42.631166 84.1411838,45.8440618 90.6918322,45.8440618 C98.4469188,45.8440618 102.463483,41.526278 102.463483,37.2887722 C102.463483,34.3014363 100.979409,32.6639073 97.2214061,29.8399691 C96.1163196,28.9785792 95.902032,28.4299537 95.902032,27.7852432 C95.902032,26.8616911 96.4528043,26.2505483 96.6546951,26.0198378 C97.0106605,25.6433127 97.6269587,25.2135058 97.8571851,25.0074826 C99.1198881,23.9347413 100.903257,22.3471197 100.903257,19.1784479 C100.903257,17.0045483 100.001655,15.1343552 97.9475047,13.3831583 L100.455201,13.3831583 L102.339515,11.4934286 L93.0528921,11.4934286 L93.0528921,11.4930734 Z M91.3244234,12.9068185 C92.4613875,12.9068185 93.4104514,13.3099846 94.4128216,14.1465097 C95.5248149,15.1517606 97.3014541,17.8531506 97.3014541,21.1956988 C97.3014541,24.8028803 94.5068602,25.7903707 92.9944501,25.7903707 C92.2541838,25.7903707 91.3671039,25.5825714 90.6160346,25.0675135 C88.947779,23.9825174 87.291743,21.0944633 87.291743,17.6577838 C87.291743,14.5567799 89.1335539,12.9068185 91.3244234,12.9068185 Z M93.8055553,33.01539 C94.2835406,33.01539 94.6272863,33.0546409 94.6272863,33.0546409 C94.6272863,33.0546409 95.7553955,33.862749 96.543478,34.4664324 C98.3782051,35.921027 99.5220759,37.0328417 99.5220759,39.0133282 C99.5220759,41.7360309 97.0037537,43.8708571 92.9252051,43.8708571 C88.4483648,43.8708571 85.0266698,41.7804324 85.0266698,38.3670193 C85.0266698,35.5393514 87.3714368,33.1057915 93.8055553,33.01539 Z" id="Shape"></path>
                    <path d="M103.696257,32.2445792 L112.297868,32.2445792 L113.60821,30.930471 L111.141246,30.6214363 C110.477132,30.5397375 110.082382,29.9642934 110.082382,29.40661 L110.082382,3.35000772 C110.082382,2.83672587 110.319692,2.57386873 110.493071,2.40674131 L112.044619,0.850911197 L104.709253,0.850911197 L102.800145,2.76550579 L105.65141,2.76550579 L105.65141,29.7563166 C105.65141,30.1399459 105.530984,30.401027 105.272422,30.6692124 L103.696257,32.2445792 L103.696257,32.2445792 Z" id="Shape"></path>
                    <path d="M123.952635,11.4948494 C119.149759,11.4948494 114.047589,15.1659691 114.047589,21.7569344 C114.047589,27.2003861 117.708188,32.8679768 124.547682,32.8679768 C126.253128,32.8679768 127.657509,32.6479228 128.973341,32.0422857 C130.384806,31.390471 131.743141,30.3319382 132.734708,29.001668 C130.862968,29.9483089 129.33639,30.5699305 127.30845,30.5699305 C123.454815,30.5699305 119.739316,27.7815135 118.439422,22.6557992 L132.052884,17.1375753 C131.266573,14.3260695 129.049316,11.4948494 123.954406,11.4948494 L123.952635,11.4948494 Z M123.06343,13.0027259 C125.640372,13.0027259 127.503257,15.1286718 127.503257,16.7928417 C127.503257,17.3309884 127.166949,17.6151583 126.500887,17.8780154 L118.133044,21.2720695 C118.133044,21.2720695 117.906537,20.2153127 117.906537,19.073305 C117.906537,14.2832664 121.359932,13.0027259 123.06343,13.0027259 L123.06343,13.0027259 Z" id="Shape"></path>
                    <path d="M70.4993862,11.4948494 C63.3251784,11.4948494 58.8800386,16.7521699 58.8800386,22.332556 C58.8800386,27.1492355 62.4611212,32.8679768 69.7166165,32.8679768 C76.6960173,32.8679768 80.9782277,27.6003552 80.9782277,21.9222857 C80.9782277,16.6331737 76.7934208,11.4968031 70.4993862,11.4968031 L70.4993862,11.4948494 L70.4993862,11.4948494 Z M69.3091158,13.0275907 C74.3671891,13.0275907 76.6196884,19.6363166 76.6196884,24.3499846 C76.6196884,31.3601004 71.3758402,31.4986332 70.7489161,31.4986332 C68.349249,31.4986332 66.6721385,30.0442162 65.4166964,28.1365483 C64.3116099,26.3784247 63.2313169,23.1120695 63.2313169,19.9204865 C63.2313169,16.7413359 64.2689294,15.1890579 65.9019427,14.0470502 C67.2372557,13.1909884 68.4875619,13.0275907 69.3073449,13.0275907 L69.3091158,13.0275907 Z" id="Shape"></path>
                </g>
            </g>
        </g>
    </g>
</svg>