<?xml version="1.0" encoding="UTF-8" standalone="no"?>
<svg width="270px" height="90px" viewBox="0 0 270 90" version="1.1" xmlns="http://www.w3.org/2000/svg" xmlns:xlink="http://www.w3.org/1999/xlink">
    <!-- Generator: Sketch 46.2 (44496) - http://www.bohemiancoding.com/sketch -->
    <title>Google_2015_logo</title>
    <desc>Created with Sketch.</desc>
    <defs></defs>
    <g id="Page-1" stroke="none" stroke-width="1" fill="none" fill-rule="evenodd">
        <g id="Google_2015_logo" fill-rule="nonzero" fill="#7C7C7C">
            <path d="M115.75,47.18 C115.75,59.95 105.76,69.36 93.5,69.36 C81.24,69.36 71.25,59.95 71.25,47.18 C71.25,34.32 81.24,25 93.5,25 C105.76,25 115.75,34.32 115.75,47.18 Z M106.01,47.18 C106.01,39.2 100.22,33.74 93.5,33.74 C86.78,33.74 80.99,39.2 80.99,47.18 C80.99,55.08 86.78,60.62 93.5,60.62 C100.22,60.62 106.01,55.07 106.01,47.18 Z" id="Shape"></path>
            <path d="M163.75,47.18 C163.75,59.95 153.76,69.36 141.5,69.36 C129.24,69.36 119.25,59.95 119.25,47.18 C119.25,34.33 129.24,25 141.5,25 C153.76,25 163.75,34.32 163.75,47.18 Z M154.01,47.18 C154.01,39.2 148.22,33.74 141.5,33.74 C134.78,33.74 128.99,39.2 128.99,47.18 C128.99,55.08 134.78,60.62 141.5,60.62 C148.22,60.62 154.01,55.07 154.01,47.18 Z" id="Shape"></path>
            <path d="M209.75,26.34 L209.75,66.16 C209.75,82.54 200.09,89.23 188.67,89.23 C177.92,89.23 171.45,82.04 169.01,76.16 L177.49,72.63 C179,76.24 182.7,80.5 188.66,80.5 C195.97,80.5 200.5,75.99 200.5,67.5 L200.5,64.31 L200.16,64.31 C197.98,67 193.78,69.35 188.48,69.35 C177.39,69.35 167.23,59.69 167.23,47.26 C167.23,34.74 177.39,25 188.48,25 C193.77,25 197.97,27.35 200.16,29.96 L200.5,29.96 L200.5,26.35 L209.75,26.35 L209.75,26.34 Z M201.19,47.26 C201.19,39.45 195.98,33.74 189.35,33.74 C182.63,33.74 177,39.45 177,47.26 C177,54.99 182.63,60.62 189.35,60.62 C195.98,60.62 201.19,54.99 201.19,47.26 Z" id="Shape"></path>
            <polygon id="Shape" points="225 3 225 68 215.5 68 215.5 3"></polygon>
            <path d="M262.02,54.48 L269.58,59.52 C267.14,63.13 261.26,69.35 251.1,69.35 C238.5,69.35 229.09,59.61 229.09,47.17 C229.09,33.98 238.58,24.99 250.01,24.99 C261.52,24.99 267.15,34.15 268.99,39.1 L270,41.62 L240.35,53.9 C242.62,58.35 246.15,60.62 251.1,60.62 C256.06,60.62 259.5,58.18 262.02,54.48 Z M238.75,46.5 L258.57,38.27 C257.48,35.5 254.2,33.57 250.34,33.57 C245.39,33.57 238.5,37.94 238.75,46.5 L238.75,46.5 Z" id="Shape"></path>
            <path d="M35.29,41.41 L35.29,32 L67,32 C67.31,33.64 67.47,35.58 67.47,37.68 C67.47,44.74 65.54,53.47 59.32,59.69 C53.27,65.99 45.54,69.35 35.3,69.35 C16.32,69.35 0.36,53.89 0.36,34.91 C0.36,15.93 16.32,0.47 35.3,0.47 C45.8,0.47 53.28,4.59 58.9,9.96 L52.26,16.6 C48.23,12.82 42.77,9.88 35.29,9.88 C21.43,9.88 10.59,21.05 10.59,34.91 C10.59,48.77 21.43,59.94 35.29,59.94 C44.28,59.94 49.4,56.33 52.68,53.05 C55.34,50.39 57.09,46.59 57.78,41.4 L35.29,41.41 Z" id="Shape"></path>
        </g>
    </g>
</svg>