<svg id="Layer_1" data-name="Layer 1" xmlns="http://www.w3.org/2000/svg" viewBox="0 0 369.54 78"><defs><style>.cls-1{fill:#f63440;}</style></defs><title>grubhub_registered_Red_RGB</title><path class="cls-1" d="M460.57,268.84H447.76a1.28,1.28,0,0,0-1.28,1.28v28.33h-13V270.12a1.28,1.28,0,0,0-1.28-1.28H419.4a1.28,1.28,0,0,0-1.28,1.28v73a1.28,1.28,0,0,0,1.28,1.28h12.81a1.28,1.28,0,0,0,1.28-1.28V313.79h13v29.34a1.28,1.28,0,0,0,1.28,1.28h12.81a1.28,1.28,0,0,0,1.28-1.28v-73A1.28,1.28,0,0,0,460.57,268.84Z" transform="translate(-203.24 -267.61)"/><path class="cls-1" d="M351.71,268.84H338.6a1.21,1.21,0,0,0-1.28,1.12v52.11a9.15,9.15,0,0,1-1.72,5.86,5.73,5.73,0,0,1-8.61,0,9.15,9.15,0,0,1-1.71-5.86V322l0-18.12h0V270a1.21,1.21,0,0,0-1.28-1.12H310.89a1.21,1.21,0,0,0-1.28,1.12v52.25c0,6.88,1.66,13,5.58,17.11s9.61,6.3,16.11,6.3h0c6.49,0,12.13-2.11,16.1-6.3S353,329.09,353,322.21V270A1.21,1.21,0,0,0,351.71,268.84Z" transform="translate(-203.24 -267.61)"/><path class="cls-1" d="M224.94,267.61h0c-6.5,0-12.13,2.11-16.11,6.3s-5.59,10.23-5.59,17.11v31.19c0,6.88,1.67,13,5.59,17.11s9.61,6.3,16.11,6.3,12.12-2.11,16.1-6.3,5.59-10.23,5.59-17.11V305.05a1.32,1.32,0,0,0-1.32-1.31h-19a1.36,1.36,0,0,0-1.37,1.31v12.73a1.36,1.36,0,0,0,1.37,1.32h5v.3h0V322a9.66,9.66,0,0,1-1.8,6.19,6,6,0,0,1-9,0,9.67,9.67,0,0,1-1.85-6.19v-2.77h0V291.17a9.65,9.65,0,0,1,1.85-6.19,6,6,0,0,1,9,0,9.64,9.64,0,0,1,1.8,6.19v2.89a1.22,1.22,0,0,0,1.28,1.13h12.82a1.22,1.22,0,0,0,1.28-1.13v-3c0-6.88-1.67-13-5.59-17.11S231.43,267.61,224.94,267.61Z" transform="translate(-203.24 -267.61)"/><path class="cls-1" d="M401.12,305.37a20.27,20.27,0,0,0,6.19-14.15c0-7.71-2.92-12.65-5.37-15.45a20.73,20.73,0,0,0-15.86-6.93h-20.5a1.28,1.28,0,0,0-1.28,1.28v73a1.28,1.28,0,0,0,1.28,1.28H387a21.35,21.35,0,0,0,16.88-7.7c2.32-2.87,4.8-7.89,4.8-15.52A20.43,20.43,0,0,0,401.12,305.37Zm-21.53-21.15h6.49a5.35,5.35,0,0,1,4.31,1.7,7.85,7.85,0,0,1,1.55,5.3,8.4,8.4,0,0,1-1.6,5.54,5.27,5.27,0,0,1-4.26,1.8h-6.49Zm12,42.86a5.57,5.57,0,0,1-4.64,2h-7.38V313.45H387a5.55,5.55,0,0,1,4.56,2,8.67,8.67,0,0,1,1.74,5.71A9.28,9.28,0,0,1,391.61,327.08Z" transform="translate(-203.24 -267.61)"/><path class="cls-1" d="M291.14,311.86h0a21.18,21.18,0,0,0,3.63-3.27,24,24,0,0,0,5.78-16.33,23.75,23.75,0,0,0-5.79-16.11,21.76,21.76,0,0,0-15.39-7.26v-.06H257.74a1.28,1.28,0,0,0-1.28,1.29v73a1.28,1.28,0,0,0,1.28,1.28h12.81a1.28,1.28,0,0,0,1.28-1.28V315.92h4.58l8.11,27.57a1.29,1.29,0,0,0,1.23.92h13.61a1.28,1.28,0,0,0,1.22-1.66Zm-7.92-13.44a6.51,6.51,0,0,1-5.18,2.12h-6.21V284.21H278a6.48,6.48,0,0,1,5.18,2.12,8.59,8.59,0,0,1,1.94,5.93A9.08,9.08,0,0,1,283.22,298.42Z" transform="translate(-203.24 -267.61)"/><path class="cls-1" d="M564.76,305.37a20.23,20.23,0,0,0,6.2-14.15c0-7.71-2.92-12.65-5.37-15.45a20.74,20.74,0,0,0-15.87-6.93H529.23a1.28,1.28,0,0,0-1.28,1.28v73a1.28,1.28,0,0,0,1.28,1.28h21.39a21.37,21.37,0,0,0,16.88-7.7c2.31-2.87,4.8-7.89,4.8-15.52A20.4,20.4,0,0,0,564.76,305.37Zm-21.53-21.15h6.49a5.37,5.37,0,0,1,4.32,1.7,7.85,7.85,0,0,1,1.55,5.3,8.34,8.34,0,0,1-1.61,5.54,5.25,5.25,0,0,1-4.26,1.8h-6.49Zm12,42.86a5.59,5.59,0,0,1-4.65,2h-7.38V313.45h7.38a5.52,5.52,0,0,1,4.56,2,8.62,8.62,0,0,1,1.75,5.71A9.28,9.28,0,0,1,555.26,327.08Z" transform="translate(-203.24 -267.61)"/><path class="cls-1" d="M515.27,268.84H502.16a1.21,1.21,0,0,0-1.28,1.12v52.11a9.15,9.15,0,0,1-1.71,5.86,5.73,5.73,0,0,1-8.61,0,9.15,9.15,0,0,1-1.71-5.86V322l0-18.12h0V270a1.21,1.21,0,0,0-1.28-1.12H474.44a1.21,1.21,0,0,0-1.28,1.12v52.25c0,6.88,1.67,13,5.59,17.11s9.61,6.3,16.1,6.3h0c6.5,0,12.13-2.11,16.11-6.3s5.59-10.23,5.59-17.11V270A1.21,1.21,0,0,0,515.27,268.84Z" transform="translate(-203.24 -267.61)"/><path class="cls-1" d="M569.82,268.61a3,3,0,1,1-2.94,3A3,3,0,0,1,569.82,268.61Zm0,5.49a2.46,2.46,0,1,0-2.33-2.46A2.38,2.38,0,0,0,569.82,274.1Zm-1-4H570a.92.92,0,0,1,1,1,.82.82,0,0,1-.57.82v0a.79.79,0,0,1,.1.17l.6,1.16h-.65L569.9,272h-.5v1.21h-.59Zm1.09,1.49a.48.48,0,0,0,.5-.53.47.47,0,0,0-.5-.51h-.5v1Z" transform="translate(-203.24 -267.61)"/></svg>