<?xml version="1.0" encoding="UTF-8"?>
<svg width="177px" height="200px" viewBox="0 0 177 200" version="1.1" xmlns="http://www.w3.org/2000/svg" xmlns:xlink="http://www.w3.org/1999/xlink">
    <!-- Generator: Sketch 57.1 (83088) - https://sketch.com -->
    <title>Kuma-new-bear</title>
    <desc>Created with Sketch.</desc>
    <g id="Page-1" stroke="none" stroke-width="1" fill="none" fill-rule="evenodd">
        <g id="Kuma-new-bear" transform="translate(-52.000000, -40.000000)">
            <path d="M214.17,92.71 C213.999174,92.2204821 214.089645,91.6776545 214.41,91.27 C220.47,83.62 225.97,74.82 225.97,68.07 C225.97,53.07 217.41,40.88 198.78,40.88 C189.55,40.88 182.78,43.88 178.33,48.71 C177.919837,49.1634152 177.282611,49.3354271 176.7,49.15 C169.596941,46.8510342 162.320009,45.1287824 154.94,44 C154.436228,43.9325181 153.932065,44.1213011 153.596513,44.5030668 C153.260961,44.8848325 153.138432,45.4090518 153.27,45.9 C154.81,51.67 164.05,88.33 171.49,116.24 C175.99,133.13 164.33,149.72 146.85,149.67 L136.03,149.67 C118.37,149.67 107.65,133.02 111.72,116.42 C118.59,88.37 128,52 129.53,46 C129.660823,45.5136538 129.54056,44.9940981 129.209341,44.614702 C128.878123,44.2353059 128.379553,44.0460175 127.88,44.11 C119.291896,45.1111484 110.838588,47.0459198 102.67,49.88 C102.057826,50.0970971 101.37522,49.9094803 100.96,49.41 C96.51,44.18 89.57,40.91 79.96,40.91 C61.33,40.91 52.77,53.08 52.77,68.1 C52.77,75.97 60.25,86.64 67.37,95 C67.7128779,95.4117714 67.8187597,95.9714323 67.65,96.48 L55.53,131.68 C55.5243651,131.71645 55.5243651,131.75355 55.53,131.79 C55.21,133.02 50.53,153.79 86.09,186.85 C96.73,196.76 133.8,232.47 140.46,238.85 C141.039447,239.402381 141.950553,239.402381 142.53,238.85 C149.38,232.48 187.83,196.79 198.53,186.85 C236.95,151.02 227.8,131.68 227.8,131.68 L214.17,92.71 Z" id="Path" fill="#290B53" fill-rule="nonzero"></path>
            <path d="M148.72,126.360012 L134.24,126.360012 C133.085487,126.360012 131.978549,125.900019 131.164064,125.081781 C130.349579,124.263542 129.89468,123.154501 129.9,122 L128.1,104.17 C128.1,103.017226 128.558618,101.911812 129.37469,101.097616 C130.190762,100.28342 131.297229,99.8273438 132.45,99.8299885 L150.45,99.8299885 C151.602771,99.8273438 152.709238,100.28342 153.52531,101.097616 C154.341382,101.911812 154.8,103.017226 154.8,104.17 L153.07,122 C153.075331,123.156236 152.619063,124.266801 151.802411,125.08533 C150.985759,125.903859 149.876245,126.362676 148.72,126.360012 L148.72,126.360012 Z" id="Path" fill="#290B53" fill-rule="nonzero"></path>
            <rect id="Rectangle" x="0" y="0" width="280" height="280"></rect>
        </g>
    </g>
</svg>