<?xml version="1.0" encoding="utf-8"?>
<!-- Generator: Adobe Illustrator 24.2.0, SVG Export Plug-In . SVG Version: 6.00 Build 0)  -->
<svg version="1.1" id="Layer_1" xmlns="http://www.w3.org/2000/svg" xmlns:xlink="http://www.w3.org/1999/xlink" x="0px" y="0px"
	 viewBox="0 0 351.9 318.3" style="enable-background:new 0 0 351.9 318.3;" xml:space="preserve">
<style type="text/css">
	.st0{fill:#290B53;}
</style>
<g>
	<g id="Layer_2_3_">
		<g id="Layer_1-2_2_">
			<path class="st0" d="M236.9,73.9c-0.1-0.4-0.1-0.9,0.2-1.2c5-6.3,9.6-13.7,9.6-19.3c0-12.4-7.1-22.6-22.6-22.6
				c-7.7,0-13.3,2.5-17,6.5c-0.3,0.4-0.9,0.5-1.4,0.4c-5.9-1.9-11.9-3.3-18.1-4.3c-0.7-0.1-1.3,0.4-1.4,1.1c0,0.2,0,0.3,0,0.5
				c1.3,4.8,8.9,35.2,15.1,58.4c3.7,14-5.9,27.8-20.4,27.7h-9c-14.7,0-23.5-13.8-20.2-27.6c5.7-23.3,13.5-53.5,14.8-58.4
				c0.2-0.7-0.2-1.4-0.9-1.5c-0.2,0-0.3-0.1-0.5,0c-7.1,0.8-14.1,2.4-20.9,4.8c-0.5,0.2-1.1,0-1.4-0.4c-3.7-4.3-9.5-7.1-17.4-7.1
				C110.1,30.9,103,41,103,53.5c0,6.5,6.2,15.4,12.1,22.3c0.3,0.3,0.4,0.8,0.2,1.2l-10.1,29.2c0,0,0,0.1,0,0.1
				c-0.3,1-4.1,18.3,25.4,45.7c8.8,8.2,39.6,37.9,45.1,43.1c0.5,0.5,1.2,0.5,1.7,0c5.7-5.3,37.6-34.9,46.5-43.1
				c31.9-29.7,24.3-45.8,24.3-45.8L236.9,73.9z"/>
			<path class="st0" d="M182.6,101.8h-12c-2,0-3.6-1.6-3.6-3.6c0,0,0,0,0,0l-1.5-14.8c0-2,1.6-3.6,3.6-3.6c0,0,0,0,0,0H184
				c2,0,3.6,1.6,3.6,3.6c0,0,0,0,0,0l-1.4,14.8C186.2,100.2,184.6,101.8,182.6,101.8C182.6,101.8,182.6,101.8,182.6,101.8z"/>
		</g>
	</g>
	<g>
		<polygon class="st0" points="91.5,207.4 70.9,207.4 46.7,239.2 41.8,239.2 41.8,207.4 23.2,207.4 23.2,287.3 41.8,287.3 
			41.8,253.4 46.9,253.4 70.9,287.3 92.8,287.3 61.9,244.9 		"/>
		<path class="st0" d="M138.2,273.3h-14.9c-3.1,0-4.1-0.3-5.1-1.4c-1-1-1.4-2.5-1.4-5.1v-42.3H99.3v44.3c0,9.1,1.1,12.4,3.6,15.1
			c2.4,2.4,5.8,3.5,11.3,3.5h7.6c5.7,0,8.3-1.3,16.3-8.4v8.3h17.6v-62.7h-17.5L138.2,273.3z"/>
		<path class="st0" d="M257.9,227.9c-2.4-2.4-5.8-3.5-11.2-3.5h-5.4c-5.9,0-8.6,1.3-17.1,9.1c-0.4-2.1-1.4-4.1-3-5.6
			c-2.4-2.4-5.8-3.5-11.2-3.5h-5.4c-5.8,0-8.3,1.1-16.4,8.4v-8.3h-17.5v62.7h17.4v-48.9h12.6c3.1,0,4.2,0.5,5.2,1.5
			c0.9,0.9,1.4,2.4,1.4,5.1v42.3H225v-48.9h12.3c3.1,0,4.2,0.5,5.2,1.5c0.9,0.9,1.4,2.4,1.4,5.1v42.3h17.7V243
			C261.6,233.7,260.6,230.5,257.9,227.9z"/>
		<path class="st0" d="M324.9,228.1c-2.3-2.4-6-3.5-12.4-3.5h-19.4c-5.7,0-8.3,0.8-16.2,8v5.7l28.6,0.1c2.6,0,3.8,0.2,4.6,0.9
			c0.8,0.9,1.2,2,1.2,8.2v3.3c-5.6-1.2-11.4-1.8-17.2-1.8c-11.3,0-14.9,1.4-17.8,4.2c-2.5,2.5-3.6,6.7-3.8,13.2v2.4
			c0,9.1,1.1,12.4,3.6,15.1c2.4,2.4,5.8,3.5,11.3,3.5h7.6c5.7,0,8.3-1.2,16.2-8.4l0,0v8.3h17.5v-42.4
			C328.7,234.2,327.8,230.9,324.9,228.1z M296.5,273.3c-3.1,0-4.1-0.3-5.1-1.4c-1-1-1.4-2.5-1.4-5.1v-7.3l21.2-0.1v6.9l0,0v6.9
			L296.5,273.3z"/>
	</g>
</g>
</svg>
