<svg id="Layer_1" version="1.1" viewBox="0 0 351.9 318.3" xml:space="preserve" xmlns="http://www.w3.org/2000/svg"><style>.st0{fill:#290b53}</style><g id="Layer_2_3_"><g id="Layer_1-2_2_"><path class="st0" d="M236.9 73.9c-.1-.4-.1-.9.2-1.2 5-6.3 9.6-13.7 9.6-19.3 0-12.4-7.1-22.6-22.6-22.6-7.7 0-13.3 2.5-17 6.5-.3.4-.9.5-1.4.4-5.9-1.9-11.9-3.3-18.1-4.3-.7-.1-1.3.4-1.4 1.1v.5c1.3 4.8 8.9 35.2 15.1 58.4 3.7 14-5.9 27.8-20.4 27.7h-9c-14.7 0-23.5-13.8-20.2-27.6 5.7-23.3 13.5-53.5 14.8-58.4.2-.7-.2-1.4-.9-1.5-.2 0-.3-.1-.5 0-7.1.8-14.1 2.4-20.9 4.8-.5.2-1.1 0-1.4-.4-3.7-4.3-9.5-7.1-17.4-7.1-15.3 0-22.4 10.1-22.4 22.6 0 6.5 6.2 15.4 12.1 22.3.3.3.4.8.2 1.2l-10.1 29.2v.1c-.3 1-4.1 18.3 25.4 45.7 8.8 8.2 39.6 37.9 45.1 43.1.5.5 1.2.5 1.7 0 5.7-5.3 37.6-34.9 46.5-43.1 31.9-29.7 24.3-45.8 24.3-45.8l-11.3-32.3z"/><path class="st0" d="M182.6 101.8h-12c-2 0-3.6-1.6-3.6-3.6l-1.5-14.8c0-2 1.6-3.6 3.6-3.6H184c2 0 3.6 1.6 3.6 3.6l-1.4 14.8c0 2-1.6 3.6-3.6 3.6z"/></g></g><path class="st0" d="M91.5 207.4H70.9l-24.2 31.8h-4.9v-31.8H23.2v79.9h18.6v-33.9h5.1l24 33.9h21.9l-30.9-42.4zM138.2 273.3h-14.9c-3.1 0-4.1-.3-5.1-1.4-1-1-1.4-2.5-1.4-5.1v-42.3H99.3v44.3c0 9.1 1.1 12.4 3.6 15.1 2.4 2.4 5.8 3.5 11.3 3.5h7.6c5.7 0 8.3-1.3 16.3-8.4v8.3h17.6v-62.7h-17.5v48.7zM257.9 227.9c-2.4-2.4-5.8-3.5-11.2-3.5h-5.4c-5.9 0-8.6 1.3-17.1 9.1-.4-2.1-1.4-4.1-3-5.6-2.4-2.4-5.8-3.5-11.2-3.5h-5.4c-5.8 0-8.3 1.1-16.4 8.4v-8.3h-17.5v62.7h17.4v-48.9h12.6c3.1 0 4.2.5 5.2 1.5.9.9 1.4 2.4 1.4 5.1v42.3H225v-48.9h12.3c3.1 0 4.2.5 5.2 1.5.9.9 1.4 2.4 1.4 5.1v42.3h17.7V243c0-9.3-1-12.5-3.7-15.1zM324.9 228.1c-2.3-2.4-6-3.5-12.4-3.5h-19.4c-5.7 0-8.3.8-16.2 8v5.7l28.6.1c2.6 0 3.8.2 4.6.9.8.9 1.2 2 1.2 8.2v3.3c-5.6-1.2-11.4-1.8-17.2-1.8-11.3 0-14.9 1.4-17.8 4.2-2.5 2.5-3.6 6.7-3.8 13.2v2.4c0 9.1 1.1 12.4 3.6 15.1 2.4 2.4 5.8 3.5 11.3 3.5h7.6c5.7 0 8.3-1.2 16.2-8.4v8.3h17.5v-42.4c0-10.7-.9-14-3.8-16.8zm-28.4 45.2c-3.1 0-4.1-.3-5.1-1.4-1-1-1.4-2.5-1.4-5.1v-7.3l21.2-.1v13.8l-14.7.1z"/></svg>