<svg width="183" height="39" xmlns="http://www.w3.org/2000/svg"><g fill="#222" fill-rule="nonzero" opacity=".597"><path d="M182.96 17.618V14.41h-3.996V9.422l-.134.041-3.753 1.145-.074.023v3.779h-5.923v-2.105c0-.98.22-1.73.653-2.231.43-.494 1.045-.746 1.83-.746.564 0 1.149.133 1.737.394l.147.066V6.409l-.07-.025c-.548-.197-1.294-.296-2.219-.296-1.165 0-2.224.253-3.147.754a5.374 5.374 0 0 0-2.16 2.13c-.508.91-.765 1.96-.765 3.123v2.315h-2.783v3.208h2.783v13.516h3.994V17.618h5.923v8.589c0 3.537 1.673 5.33 4.974 5.33.542 0 1.113-.064 1.695-.188.594-.127.998-.254 1.236-.39l.052-.031V27.69l-.162.107a2.801 2.801 0 0 1-.803.35 3.06 3.06 0 0 1-.79.133c-.773 0-1.345-.208-1.7-.618-.358-.413-.54-1.137-.54-2.149v-7.895h3.995zm-29.576 10.663c-1.45 0-2.593-.48-3.398-1.423-.81-.95-1.221-2.302-1.221-4.02 0-1.774.41-3.162 1.221-4.128.806-.96 1.938-1.446 3.365-1.446 1.385 0 2.488.465 3.277 1.383.794.922 1.197 2.3 1.197 4.093 0 1.816-.379 3.211-1.126 4.144-.742.927-1.857 1.397-3.315 1.397zm.178-14.274c-2.766 0-4.963.808-6.53 2.402-1.564 1.594-2.358 3.8-2.358 6.556 0 2.619.775 4.725 2.303 6.26 1.528 1.534 3.607 2.312 6.18 2.312 2.681 0 4.834-.82 6.4-2.435 1.565-1.614 2.358-3.8 2.358-6.492 0-2.659-.744-4.78-2.212-6.305-1.47-1.525-3.536-2.298-6.141-2.298zm-15.327 0c-1.882 0-3.438.48-4.627 1.426-1.196.952-1.802 2.2-1.802 3.71 0 .785.13 1.483.388 2.074.26.594.66 1.116 1.194 1.555.529.435 1.345.89 2.427 1.354.91.373 1.589.689 2.02.938.42.244.72.489.888.728.165.233.248.553.248.948 0 1.123-.844 1.67-2.58 1.67-.645 0-1.38-.134-2.184-.399a8.21 8.21 0 0 1-2.236-1.13l-.166-.119v3.834l.061.029c.565.26 1.278.48 2.118.652.838.173 1.6.26 2.26.26 2.042 0 3.686-.482 4.886-1.433 1.207-.959 1.819-2.236 1.819-3.799 0-1.127-.33-2.094-.979-2.873-.644-.774-1.763-1.484-3.324-2.111-1.244-.498-2.04-.911-2.369-1.228-.317-.307-.478-.74-.478-1.288 0-.487.199-.876.607-1.192.41-.317.982-.478 1.7-.478.665 0 1.346.105 2.023.31.676.205 1.27.48 1.767.817l.163.111v-3.637l-.063-.027c-.457-.195-1.061-.363-1.794-.499a10.984 10.984 0 0 0-1.967-.203zm-16.841 14.274c-1.45 0-2.593-.48-3.398-1.423-.811-.95-1.22-2.302-1.22-4.02 0-1.774.41-3.162 1.22-4.128.806-.96 1.938-1.446 3.366-1.446 1.384 0 2.486.465 3.276 1.383.794.922 1.197 2.3 1.197 4.093 0 1.816-.38 3.211-1.126 4.144-.742.927-1.857 1.397-3.315 1.397zm.178-14.274c-2.767 0-4.964.808-6.53 2.402-1.564 1.594-2.359 3.8-2.359 6.556 0 2.62.776 4.725 2.304 6.26 1.528 1.534 3.607 2.312 6.18 2.312 2.68 0 4.834-.82 6.4-2.435 1.565-1.614 2.358-3.8 2.358-6.492 0-2.659-.744-4.78-2.213-6.305-1.47-1.525-3.536-2.298-6.14-2.298zm-14.951 3.3V14.41h-3.946v16.724h3.946v-8.555c0-1.455.33-2.65.983-3.552.644-.892 1.503-1.344 2.552-1.344.355 0 .754.058 1.186.174.428.115.737.24.92.37l.166.12v-3.965l-.064-.028c-.368-.155-.887-.234-1.545-.234a4.05 4.05 0 0 0-2.639.943c-.667.55-1.149 1.304-1.517 2.243h-.042zm-11.011-3.3c-1.81 0-3.425.387-4.798 1.15a7.76 7.76 0 0 0-3.164 3.244c-.721 1.385-1.087 3.003-1.087 4.807 0 1.58.355 3.03 1.056 4.308a7.413 7.413 0 0 0 2.952 2.976c1.256.694 2.707 1.045 4.313 1.045 1.875 0 3.476-.373 4.76-1.11l.051-.03v-3.604l-.165.12a7.425 7.425 0 0 1-1.93 1.003c-.698.242-1.334.365-1.891.365-1.548 0-2.79-.483-3.693-1.435-.904-.954-1.362-2.293-1.362-3.977 0-1.696.478-3.069 1.42-4.082.939-1.01 2.184-1.523 3.7-1.523 1.297 0 2.56.438 3.756 1.302l.165.12V14.89l-.053-.03c-.45-.251-1.063-.459-1.825-.616-.759-.157-1.5-.236-2.206-.236zm-11.766.403h-3.946v16.723h3.946V14.41zM81.91 7.286c-.65 0-1.215.22-1.68.657-.468.438-.705.99-.705 1.64 0 .64.234 1.182.697 1.609.46.425 1.028.64 1.688.64.66 0 1.231-.215 1.696-.64.469-.427.706-.968.706-1.609 0-.628-.231-1.174-.687-1.622-.455-.448-1.032-.675-1.715-.675zm-9.844 5.89v17.957h4.027V7.797H70.52L63.438 25.13 56.564 7.797h-5.8v23.336h3.784V13.174h.13l7.259 17.96h2.855l7.146-17.958h.13zM18.56 18.506H0V0h18.56zM39.052 18.506h-18.56V0h18.56zM18.559 38.946H0V20.44h18.559zM39.052 38.946h-18.56V20.44h18.56z"/></g></svg>