<?xml version="1.0" encoding="UTF-8" standalone="no"?>
<svg
   xmlns:dc="http://purl.org/dc/elements/1.1/"
   xmlns:cc="http://creativecommons.org/ns#"
   xmlns:rdf="http://www.w3.org/1999/02/22-rdf-syntax-ns#"
   xmlns:svg="http://www.w3.org/2000/svg"
   xmlns="http://www.w3.org/2000/svg"
   viewBox="0 0 744.09497 744.09375"
   height="744.09375"
   width="744.09497"
   xml:space="preserve"
   version="1.1"
   id="svg2"><metadata
     id="metadata8"><rdf:RDF><cc:Work
         rdf:about=""><dc:format>image/svg+xml</dc:format><dc:type
           rdf:resource="http://purl.org/dc/dcmitype/StillImage" /></cc:Work></rdf:RDF></metadata><defs
     id="defs6"><clipPath
       id="clipPath16"
       clipPathUnits="userSpaceOnUse"><path
         id="path18"
         d="m 0,595.275 595.276,0 L 595.276,0 0,0 0,595.275 Z" /></clipPath><clipPath
       id="clipPath48"
       clipPathUnits="userSpaceOnUse"><path
         id="path50"
         d="m 259.25,280.424 74.249,0 0,-5.398 -74.249,0 0,5.398 z" /></clipPath></defs><g
     transform="matrix(1.25,0,0,-1.25,0,744.09375)"
     id="g10"><g
       id="g12"><g
         clip-path="url(#clipPath16)"
         id="g14"><g
           transform="translate(232.689,298.6216)"
           id="g20"><path
             id="path22"
             style="fill:#e951b5;fill-opacity:1;fill-rule:evenodd;stroke:none"
             d="M 0,0 C 5.796,2.307 13.397,6.839 13.282,12.02 18.504,6.42 23.728,-3.386 22.319,-2.261 17.241,1.794 6.927,-4.076 0.638,-6.619 c -3.177,-1.284 -3.258,-2.065 -3.196,-5.428 0.033,-1.836 -0.294,-3.934 -1.225,-5.993 0.561,-2.66 1.672,-3.974 4.272,-5.791 7.376,-5.148 14.927,-9.964 22.652,-14.434 6.96,-4.027 14.062,-7.775 21.307,-11.238 3.66,-1.749 8.595,-3.425 12.152,-1.069 2.394,1.584 5.264,2.507 8.349,2.507 3.273,0 6.302,-1.038 8.778,-2.803 3.39,-2.415 7.169,-0.731 10.644,0.91 7.753,3.663 15.313,7.614 22.673,11.854 8.056,4.641 15.894,9.642 23.508,15.01 5.208,3.671 3.852,3.78 3.852,8.728 0,6.334 3.888,11.758 9.408,14.02 3.581,1.468 3.607,5.183 3.907,8.731 0.743,8.782 1.123,17.532 1.132,26.251 0.006,8.898 -0.37,17.78 -1.135,26.646 -0.4,4.629 0.016,6.336 -4.13,8.114 -5.399,2.315 -9.182,7.68 -9.182,13.927 0,4.689 -3.285,8.291 -7.041,10.871 -6.725,4.62 -13.595,8.963 -20.609,13.021 -7.254,4.197 -14.586,8.256 -22.227,11.677 -5.539,2.48 -7.346,-0.654 -11.314,-2.404 -4.559,-2.01 -3.608,-3.183 -3.847,-7.363 -0.357,-6.239 0.437,-13.225 2.579,-14.641 -7.292,-2.781 -16.097,-0.011 -14.291,0.039 4.396,0.123 5.082,9.674 5.434,16.458 0.179,3.429 -0.497,3.79 -3.576,4.978 -2.006,0.773 -4.134,2.162 -5.744,4.362 -1.023,1.522 -3.964,0.571 -5.46,-0.113 -8.993,-4.117 -16.983,-8.271 -25.457,-13.154 -7.925,-4.565 -15.639,-9.479 -23.135,-14.748 -4.828,-3.392 -4.222,-4.211 -4.222,-8.983 0,-6.071 -3.572,-11.306 -8.727,-13.722 -4.387,-2.054 -4.029,-2.599 -4.505,-8.037 -0.8,-9.116 -1.209,-18.201 -1.217,-27.25 -0.006,-7.138 0.235,-14.267 0.725,-21.384 0.318,-4.62 1.243,-8.172 5.698,-9.719 1.64,-0.57 3.133,-1.508 4.425,-2.753 C -4.596,-2.926 -3.883,-1.545 0,0 m -16.744,-26.659 c -6.274,-0.195 -12.039,3.986 -14.367,9.784 -2.113,5.262 -1.025,10.809 2.68,14.946 1.985,2.124 4.152,6.562 3.638,13.846 -0.527,7.454 -0.787,14.92 -0.78,22.397 0.009,9.283 0.422,18.566 1.231,27.85 0.305,3.503 -2.308,6.25 -4.527,8.727 -0.189,0.211 -0.304,0.445 -0.36,0.698 -3.398,2.777 -5.569,7.002 -5.569,11.734 0,8.365 6.782,15.146 15.147,15.146 1.753,0 3.436,-0.3 5.003,-0.847 0.297,0.072 0.624,0.072 0.987,-0.019 4.098,-1.019 8.891,-0.332 11.735,1.628 6.968,4.806 14.131,9.324 21.481,13.559 8.571,4.939 15.774,8.738 24.812,12.893 5.091,2.339 7.275,7.715 8.127,9.407 2.623,5.589 8.664,9.164 14.718,9.182 5.981,0.017 10.745,-3.39 12.771,-8.85 1.35,-4.139 1.228,-7.602 8.335,-10.999 7.405,-3.538 14.657,-7.365 21.757,-11.472 7.501,-4.198 15.208,-9.091 23.226,-14.746 6.432,-4.538 9.729,0.264 16.249,0.264 8.364,0 15.145,-6.781 15.145,-15.146 0,-4.604 -2.054,-8.728 -5.297,-11.506 -1.687,-1.536 -5.636,-2.202 -5.101,-9.816 0.641,-9.116 1.179,-18.227 1.171,-27.365 0.043,-7.678 -0.297,-15.846 -1.019,-24.639 -0.771,-9.414 3.633,-11.704 4.852,-12.774 3.299,-2.778 5.394,-6.938 5.394,-11.589 0,-8.365 -6.781,-15.145 -15.145,-15.145 -2.356,0 -4.586,0.537 -6.574,1.497 -0.204,-0.033 -0.407,-0.015 -0.609,0.068 -2.686,1.107 -5.022,1.535 -8.076,-0.615 -7.744,-5.451 -15.729,-10.542 -23.95,-15.278 -7.661,-4.413 -15.51,-8.512 -23.543,-12.298 -6.828,-3.22 -6.304,-6.863 -6.874,-9.357 -1.102,-7.281 -7.386,-12.863 -14.975,-12.863 -7.637,0 -13.954,5.654 -14.994,13.005 -0.827,2.13 -0.06,5.954 -6.871,9.163 -7.927,3.736 -15.682,7.803 -23.265,12.189 -8.151,4.715 -16.107,9.804 -23.868,15.254 -6.027,4.233 -8.585,2.44 -12.695,2.087" /></g><g
           transform="translate(237.9121,190.7119)"
           id="g24"><path
             id="path26"
             style="fill:#e951b5;fill-opacity:1;fill-rule:nonzero;stroke:none"
             d="m 0,0 c -1.211,1.354 -2.702,2.456 -4.471,3.303 -1.769,0.846 -3.609,1.315 -5.524,1.404 -1.912,0.088 -3.824,-0.284 -5.734,-1.118 -1.91,-0.835 -3.627,-2.275 -5.15,-4.321 -0.509,-0.656 -0.947,-1.303 -1.315,-1.945 l -1.316,-3.504 c -0.296,-1.721 -0.216,-3.295 0.24,-4.716 0.462,-1.436 1.222,-2.693 2.279,-3.77 3.692,-3.76 9.511,-5.196 11.118,-4.144 -0.818,0.742 -2.983,2.781 -4.403,4.323 -1.855,2.012 -0.997,2.926 1.597,5.599 3.126,3.221 4.97,4.626 7.296,2.873 l 4.007,-3.497 C 3.104,-13.426 4.693,-5.255 0,0 m -39.709,-2.677 c 0.166,1.136 0.398,2.285 0.695,3.45 1.042,4.14 2.551,7.74 4.527,10.799 1.978,3.06 4.242,5.619 6.795,7.681 2.553,2.06 5.334,3.601 8.343,4.621 3.008,1.02 6.083,1.525 9.224,1.514 3.141,-0.013 6.277,-0.533 9.409,-1.562 3.134,-1.029 6.095,-2.572 8.882,-4.63 0.066,-0.072 0.454,-0.418 1.164,-1.036 0.71,-0.617 1.641,-1.642 2.795,-3.074 1.154,-1.432 2.304,-3.232 3.451,-5.398 1.146,-2.167 2.179,-4.811 3.1,-7.926 2.272,-7.696 0.547,-15.932 -3.568,-22.866 1.116,-0.779 3.723,-3.208 4.592,-3.709 2.58,-1.487 0.882,-4.297 -0.602,-6.377 -0.702,-0.983 -2.969,-3.79 -4.755,-5.595 -2.257,-2.279 -2.381,-1.711 -4.062,-0.381 -1.854,1.465 -4.13,3.182 -5.527,4.874 -2.941,-2.046 -6.162,-3.589 -9.516,-4.457 -2.08,-0.537 -3.725,-0.873 -4.932,-1.006 -1.21,-0.134 -1.875,-0.202 -1.998,-0.206 -2.213,-0.072 -4.55,0.314 -7.012,1.157 -2.462,0.844 -4.859,2.076 -7.192,3.697 -2.333,1.619 -4.51,3.612 -6.529,5.976 -2.019,2.365 -3.667,4.987 -4.944,7.865 -1.277,2.879 -2.106,6.017 -2.486,9.414 -0.136,1.206 -0.188,2.43 -0.157,3.671 l 0.303,3.504 z" /></g><g
           transform="translate(266.4722,215.959)"
           id="g28"><path
             id="path30"
             style="fill:#e951b5;fill-opacity:1;fill-rule:nonzero;stroke:none"
             d="m 0,0 c 2.025,0.161 1.801,0.143 3.826,0.304 6.935,0.552 7.944,0.03 7.864,-7.048 l -0.449,-36.726 14.218,2.094 c 6.19,0.905 6.885,2.328 7.736,-4.572 0.246,-1.995 0.219,-1.775 0.465,-3.771 0.843,-6.833 0.448,-7.897 -5.622,-8.643 -13.974,-1.72 -9.386,-0.824 -23.359,-2.542 -9.314,-1.147 -9.916,1.314 -9.897,9.603 0.212,15.325 -0.276,28.906 -0.396,42.625 C -5.677,-1.45 -7.002,-0.559 0,0" /></g><g
           transform="translate(386.7759,182.876)"
           id="g32"><path
             id="path34"
             style="fill:#e951b5;fill-opacity:1;fill-rule:nonzero;stroke:none"
             d="m 0,0 c 0.492,-3.396 0.332,-6.559 -0.479,-9.488 -0.813,-2.929 -2.118,-5.513 -3.915,-7.753 -1.796,-2.239 -4.037,-4.086 -6.718,-5.538 -2.684,-1.452 -5.674,-2.4 -8.972,-2.843 -3.299,-0.442 -6.448,-0.345 -9.451,0.296 -3.003,0.639 -5.687,1.784 -8.049,3.433 -2.363,1.649 -4.332,3.766 -5.907,6.35 -1.128,1.852 -1.966,3.91 -2.514,6.178 l -0.033,-0.123 c -0.813,-2.929 -2.117,-5.513 -3.914,-7.753 -1.797,-2.239 -4.037,-4.086 -6.719,-5.538 -2.683,-1.452 -5.674,-2.4 -8.972,-2.843 -3.298,-0.442 -6.449,-0.345 -9.451,0.296 -3.003,0.639 -5.686,1.784 -8.049,3.433 -2.363,1.649 -4.332,3.766 -5.906,6.35 -1.576,2.585 -2.585,5.574 -3.028,8.972 -0.492,3.396 -0.332,6.559 0.48,9.488 0.812,2.929 2.117,5.525 3.913,7.79 1.797,2.264 4.037,4.122 6.719,5.574 2.684,1.452 5.674,2.401 8.972,2.844 3.299,0.442 6.436,0.344 9.415,-0.296 2.977,-0.64 5.648,-1.784 8.011,-3.433 2.363,-1.65 4.332,-3.779 5.907,-6.387 1.14,-1.889 1.996,-3.984 2.569,-6.284 l 0.053,0.192 c 0.811,2.929 2.116,5.525 3.913,7.79 1.797,2.264 4.036,4.122 6.719,5.574 2.683,1.452 5.674,2.401 8.971,2.844 3.299,0.442 6.437,0.344 9.414,-0.296 2.979,-0.64 5.65,-1.784 8.013,-3.433 2.362,-1.65 4.331,-3.779 5.906,-6.387 C -1.526,6.399 -0.492,3.396 0,0 m -31.013,-6.276 c 0.837,-1.919 2.166,-3.175 3.988,-3.766 1.821,-0.591 3.889,-0.394 6.202,0.591 2.265,0.984 3.828,2.326 4.689,4.024 0.862,1.698 0.899,3.507 0.111,5.427 -0.837,1.871 -2.165,3.113 -3.987,3.729 -1.822,0.616 -3.865,0.431 -6.13,-0.554 -2.313,-0.984 -3.9,-2.338 -4.761,-4.061 -0.862,-1.722 -0.899,-3.519 -0.112,-5.39 m -45.558,0 c 0.838,-1.919 2.166,-3.175 3.987,-3.766 1.822,-0.591 3.89,-0.394 6.203,0.591 2.265,0.984 3.827,2.326 4.689,4.024 0.861,1.698 0.898,3.507 0.11,5.427 -0.837,1.871 -2.165,3.113 -3.987,3.729 -1.821,0.616 -3.865,0.431 -6.128,-0.554 -2.315,-0.984 -3.902,-2.338 -4.763,-4.061 -0.862,-1.722 -0.898,-3.519 -0.111,-5.39" /></g><g
           transform="translate(375.5366,204.5684)"
           id="g36"><path
             id="path38"
             style="fill:#e951b5;fill-opacity:1;fill-rule:evenodd;stroke:none"
             d="m 0,0 c -2.906,-1.208 -4.799,-2.682 -7.146,-5.126 l 3.23,-2.454 c 0.858,0.894 7.066,0.565 6.146,1.283 -1.836,1.434 -0.683,2.687 0.978,3.377 3.134,1.831 4.106,-6.491 12.066,-4.095 5.324,1.604 7.695,6.573 6.068,11.241 C 19.714,8.894 14.103,11.3 8.81,9.601 5.634,8.581 4.09,6.053 3.857,3.252 3.619,0.384 3.334,1.387 0,0" /></g><g
           transform="translate(391.2593,211.3857)"
           id="g40"><path
             id="path42"
             style="fill:#ffffff;fill-opacity:1;fill-rule:evenodd;stroke:none"
             d="M 0,0 C -1.834,0 -3.321,-1.486 -3.321,-3.32 -3.321,-6.661 3.3,-6.831 3.3,-2.839 3.3,-1.005 1.834,0 0,0" /></g><g
           id="g44"><g
             id="g46" /><g
             id="g52"><g
               style="opacity:0.24000501"
               id="g54"
               clip-path="url(#clipPath48)"><g
                 id="g56"
                 transform="translate(296.3745,280.4238)"><path
                   id="path58"
                   style="fill:#000000;fill-opacity:1;fill-rule:evenodd;stroke:none"
                   d="m 0,0 c 20.504,0 37.124,-1.208 37.124,-2.699 0,-1.49 -16.62,-2.698 -37.124,-2.698 -20.503,0 -37.124,1.208 -37.124,2.698 C -37.124,-1.208 -20.503,0 0,0" /></g></g></g></g><g
           transform="translate(260.5054,365.6206)"
           id="g60"><path
             id="path62"
             style="fill:#e951b5;fill-opacity:1;fill-rule:evenodd;stroke:none"
             d="m 0,0 c 2.516,-3.788 -10.595,-16.839 -18.201,-26.699 -7.606,-9.861 -13.659,-8.21 -16.847,-5.485 -3.189,2.725 -3.405,10.592 3.999,17.894 C -23.645,-6.987 -2.515,3.788 0,0" /></g><g
           transform="translate(344.7046,347.9419)"
           id="g64"><path
             id="path66"
             style="fill:#e951b5;fill-opacity:1;fill-rule:evenodd;stroke:none"
             d="m 0,0 c -3.801,-2.495 3.13,-19.647 6.251,-31.703 3.121,-12.055 9.336,-12.915 13.338,-11.662 4.003,1.254 7.292,8.404 3.351,18.028 C 18.999,-15.713 3.801,2.496 0,0" /></g><g
           transform="translate(289.1709,295.6943)"
           id="g68"><path
             id="path70"
             style="fill:#e951b5;fill-opacity:1;fill-rule:evenodd;stroke:none"
             d="M 0,0 C 10.149,-2.266 16.641,-15.048 27.638,-17.595 45.416,-21.711 58.262,18.833 63.1,39.726 69.298,66.496 50.773,89.769 22.773,96.252 -5.228,102.735 -31.978,89.946 -38.296,63.205 -44.384,37.44 -46.905,11.477 -38.21,3.471 -27.806,-6.109 -10.148,2.265 0,0" /></g><g
           transform="translate(313.1167,389.3521)"
           id="g72"><path
             id="path74"
             style="fill:#ed7ac7;fill-opacity:1;fill-rule:evenodd;stroke:none"
             d="M 0,0 C 24.97,-5.782 40.524,-30.71 34.742,-55.68 24.211,-101.163 -66.462,-82.595 -53.877,-28.245 -48.095,-3.275 -24.969,5.782 0,0" /></g><g
           transform="translate(355.9214,332.7798)"
           id="g76"><path
             id="path78"
             style="fill:#ffffff;fill-opacity:1;fill-rule:evenodd;stroke:none"
             d="m 0,0 c -1.358,-1.314 1.806,-4.608 3.797,-10.249 1.991,-5.641 4.553,-7.392 5.91,-6.078 1.357,1.314 0.836,4.955 -1.759,9.076 C 5.354,-3.129 1.357,1.314 0,0" /></g><g
           transform="translate(244.6177,356.4585)"
           id="g80"><path
             id="path82"
             style="fill:#ffffff;fill-opacity:1;fill-rule:evenodd;stroke:none"
             d="m 0,0 c 1.669,-0.963 -4.051,-1.47 -10.327,-10.538 -2.24,-3.237 -2.862,-5.072 -4.553,-4.503 -0.726,0.245 -2.34,1.405 0.867,5.879 C -10.806,-4.688 -1.846,1.066 0,0 m -14.796,-16.368 c 0.88,-0.607 1.135,-2.007 0.569,-3.126 -0.566,-1.119 -1.739,-1.534 -2.619,-0.927 -0.881,0.608 -1.135,2.007 -0.569,3.127 0.566,1.119 1.738,1.534 2.619,0.926" /></g><g
           transform="translate(299.9155,339.856)"
           id="g84"><path
             id="path86"
             style="fill:#223853;fill-opacity:1;fill-rule:evenodd;stroke:none"
             d="M 0,0 C 7.668,-1.775 11.112,0.266 13.752,-3.478 16.392,-7.221 7.809,-15.571 -3.091,-13.047 -13.992,-10.523 -17.864,0.604 -14.014,2.952 -10.165,5.3 -7.667,1.775 0,0" /></g><g
           transform="translate(304.9399,328.4463)"
           id="g88"><path
             id="path90"
             style="fill:#e435aa;fill-opacity:1;fill-rule:evenodd;stroke:none"
             d="m 0,0 c -2.253,-0.76 -4.945,-1.017 -7.836,-0.348 -2.993,0.693 -5.343,2.171 -7.031,3.907 0.705,2.287 5.157,2.575 7.915,0.314 C -3.325,4.656 0.48,2.393 0,0" /></g><g
           transform="translate(299.7075,338.9722)"
           id="g92"><path
             id="path94"
             style="fill:#ffffff;fill-opacity:1;fill-rule:evenodd;stroke:none"
             d="M 0,0 C 5.021,-1.162 8.035,-0.718 10.306,-1.248 10.298,-1.287 10.29,-1.326 10.281,-1.365 9.876,-3.117 8.232,-4.232 6.611,-3.857 6.087,-3.736 5.629,-3.472 5.263,-3.113 4.485,-4.031 3.209,-4.49 1.927,-4.192 c -1.134,0.262 -2.003,1.052 -2.394,2.037 -0.784,-0.713 -1.911,-1.041 -3.045,-0.779 -1.306,0.303 -2.262,1.307 -2.537,2.501 -0.516,-0.193 -1.08,-0.242 -1.643,-0.112 -1.621,0.376 -2.607,2.1 -2.201,3.851 0.012,0.051 0.025,0.102 0.039,0.152 C -7.595,2.885 -5.02,1.163 0,0" /></g><g
           transform="translate(307.1841,376.6284)"
           id="g96"><path
             id="path98"
             style="fill:#f4fafb;fill-opacity:1;fill-rule:evenodd;stroke:none"
             d="m 0,0 c -9.251,0.235 -10.024,9.392 1.77,9.501 14.774,0.138 32.526,-13.582 35.576,-27.52 0.812,-3.712 -1.959,-4.391 -3.892,-0.413 C 28.103,-7.415 15.522,-0.395 0,0 m 36.828,-23.149 c 1.027,-0.061 1.93,-1.124 2.016,-2.374 0.087,-1.25 -0.677,-2.214 -1.704,-2.153 -1.027,0.061 -1.93,1.124 -2.016,2.374 -0.086,1.25 0.677,2.214 1.704,2.153" /></g><g
           transform="translate(329.5786,346.5288)"
           id="g100"><path
             id="path102"
             style="fill:#223853;fill-opacity:1;fill-rule:evenodd;stroke:none"
             d="m 0,0 c 4.441,-1.028 7.208,-5.462 6.18,-9.903 -1.029,-4.441 -5.462,-7.208 -9.904,-6.18 -4.441,1.029 -7.208,5.463 -6.179,9.904 C -8.875,-1.738 -4.44,1.028 0,0" /></g><g
           transform="translate(332.6274,343.1079)"
           id="g104"><path
             id="path106"
             style="fill:#f4fafb;fill-opacity:1;fill-rule:evenodd;stroke:none"
             d="M 0,0 C 1.238,-0.287 2.01,-1.523 1.724,-2.763 1.437,-4.001 0.199,-4.773 -1.039,-4.486 -2.278,-4.199 -3.05,-2.962 -2.763,-1.724 -2.476,-0.485 -1.239,0.287 0,0" /></g><g
           transform="translate(276.1396,358.9033)"
           id="g108"><path
             id="path110"
             style="fill:#223853;fill-opacity:1;fill-rule:evenodd;stroke:none"
             d="m 0,0 c 4.441,-1.028 7.208,-5.462 6.179,-9.903 -1.028,-4.442 -5.462,-7.208 -9.903,-6.18 -4.441,1.028 -7.208,5.462 -6.179,9.903 C -8.875,-1.738 -4.441,1.028 0,0" /></g><g
           transform="translate(279.1875,355.4819)"
           id="g112"><path
             id="path114"
             style="fill:#f4fafb;fill-opacity:1;fill-rule:evenodd;stroke:none"
             d="M 0,0 C 1.239,-0.287 2.011,-1.523 1.724,-2.762 1.437,-4.001 0.2,-4.773 -1.039,-4.486 -2.277,-4.199 -3.049,-2.962 -2.762,-1.724 -2.475,-0.484 -1.239,0.287 0,0" /></g><g
           transform="translate(305.0103,435.8022)"
           id="g116"><path
             id="path118"
             style="fill:#ffffff;fill-opacity:1;fill-rule:evenodd;stroke:none"
             d="m 0,0 c 2.354,-1.735 2.909,-5.078 1.238,-7.466 -3.042,-4.351 -11.696,1.692 -8.06,6.891 C -5.152,1.813 -2.355,1.735 0,0" /></g><g
           transform="translate(220.0112,391.4795)"
           id="g120"><path
             id="path122"
             style="fill:#ffffff;fill-opacity:1;fill-rule:evenodd;stroke:none"
             d="m 0,0 c 2.355,-1.735 2.91,-5.078 1.239,-7.466 -3.042,-4.351 -11.696,1.692 -8.061,6.891 C -5.152,1.813 -2.354,1.735 0,0" /></g><g
           transform="translate(389.7231,390.8613)"
           id="g124"><path
             id="path126"
             style="fill:#ffffff;fill-opacity:1;fill-rule:evenodd;stroke:none"
             d="m 0,0 c 2.354,-1.735 2.91,-5.078 1.239,-7.467 -3.042,-4.35 -11.696,1.692 -8.06,6.891 C -5.151,1.813 -2.354,1.734 0,0" /></g><g
           transform="translate(389.7231,293.4473)"
           id="g128"><path
             id="path130"
             style="fill:#ffffff;fill-opacity:1;fill-rule:evenodd;stroke:none"
             d="m 0,0 c 2.354,-1.735 2.91,-5.078 1.239,-7.467 -3.042,-4.35 -11.696,1.692 -8.06,6.892 C -5.151,1.813 -2.354,1.734 0,0" /></g><g
           transform="translate(304.1753,245.2334)"
           id="g132"><path
             id="path134"
             style="fill:#ffffff;fill-opacity:1;fill-rule:evenodd;stroke:none"
             d="m 0,0 c 2.354,-1.735 2.909,-5.078 1.239,-7.467 -3.042,-4.35 -11.697,1.693 -8.061,6.891 C -5.151,1.813 -2.354,1.734 0,0" /></g><g
           transform="translate(220.647,297.7441)"
           id="g136"><path
             id="path138"
             style="fill:#ffffff;fill-opacity:1;fill-rule:evenodd;stroke:none"
             d="M 0,0 C 2.699,-1.125 4.033,-4.24 2.979,-6.958 1.058,-11.907 -8.785,-8.096 -6.49,-2.181 -5.435,0.536 -2.7,1.125 0,0" /></g></g></g></g></svg>