<?xml version="1.0" encoding="UTF-8"?>
<svg width="815px" height="450px" viewBox="0 0 815 450" version="1.1" xmlns="http://www.w3.org/2000/svg" xmlns:xlink="http://www.w3.org/1999/xlink">
    <!-- Generator: Sketch 50 (54983) - http://www.bohemiancoding.com/sketch -->
    <title>Rotor_Turbine_Labs_Logo_Horiz_3c</title>
    <desc>Created with Sketch.</desc>
    <defs></defs>
    <g id="Rotor_Turbine_Labs_Logo_Horiz_3c" stroke="none" stroke-width="1" fill="none" fill-rule="evenodd">
        <g id="Group-3" transform="translate(75.000000, 75.000000)">
            <g id="Symbol">
                <g id="Group">
                    <path d="M219.860318,-0.00017640314 L0.00026460471,92.1343016 L0.00026460471,210.154176 L218.379414,118.638873 L219.860318,118.019698 L219.860318,-0.00017640314 Z M13.4148414,101.058536 L206.445741,20.1671126 L206.445741,109.094581 L13.4148414,189.987769 L13.4148414,101.058536 Z" id="Fill-1" fill="#953984"></path>
                    <path d="M105.029548,215.643401 L241.804604,299.885603 L241.804604,181.456473 L105.029548,97.213389 L105.029548,215.643401 Z M118.444124,208.150678 L118.444124,121.231559 L228.390027,188.949196 L228.390027,275.867433 L118.444124,208.150678 Z" id="Fill-2" fill="#C04589"></path>
                </g>
            </g>
            <g id="Group-2" transform="translate(273.000000, 184.000000)" fill="#051925">
                <path d="M15.355,16.359 L15.355,16.536 C18.659,16.772 23.792,19.014 23.792,25.032 C23.792,30.519 19.544,34 13.172,34 L0.31,34 L0.31,0.96 L11.874,0.96 C17.597,0.96 21.373,4.5 21.373,8.807 C21.373,13.763 18.541,15.651 15.355,16.359 Z M1.903,15.887 L11.579,15.887 C15.355,15.887 19.78,13.822 19.78,8.984 C19.78,5.326 16.594,2.494 11.638,2.494 L1.903,2.494 L1.903,15.887 Z M1.903,32.466 L13.231,32.466 C18.246,32.466 22.199,29.811 22.199,25.15 C22.199,20.253 17.892,17.421 12.877,17.421 L1.903,17.421 L1.903,32.466 Z M39.899,34 L39.899,18.896 L52.938,0.96 L51.109,0.96 L44.678,9.869 C41.433,14.294 39.191,17.303 39.132,17.362 L39.073,17.362 L33.645,9.928 L27.155,0.96 L25.267,0.96 L38.306,18.896 L38.306,34 L39.899,34 Z" id="by"></path>
                <g id="TL-Workmark" transform="translate(64.000000, 0.000000)">
                    <polygon id="Fill-3" points="26.6314151 0.816906905 26.6314151 5.77423605 15.9094537 5.77423605 15.9094537 34.1843627 10.7135393 34.1843627 10.7135393 5.77423605 0.038853156 5.77423605 0.038853156 0.816906905"></polygon>
                    <path d="M59.0253333,0.816906905 L59.0253333,20.0268079 C59.0253333,29.6560139 53.7825409,34.8514873 45.0914315,34.8514873 C36.4003221,34.8514873 31.2044077,29.6560139 31.2044077,20.0268079 L31.2044077,0.816906905 L36.4472002,0.816906905 L36.4472002,19.9790989 C36.4472002,26.7004594 39.3758859,29.9418671 45.0914315,29.9418671 C50.8538551,29.9418671 53.8294189,26.7004594 53.8294189,19.9790989 L53.8294189,0.816906905 L59.0253333,0.816906905 L59.0253333,0.816906905 Z" id="Fill-4"></path>
                    <path d="M76.8796695,17.5958925 C81.3672487,17.5958925 83.5399268,14.9265922 83.5399268,11.6374755 C83.5399268,8.20523169 81.1781475,5.7744766 76.8796695,5.7744766 L70.6921653,5.7744766 L70.6921653,17.5958925 L76.8796695,17.5958925 Z M84.2955372,34.1842023 L77.30475,22.2196593 C76.9742201,22.2673684 76.6436902,22.2673684 76.265885,22.2673684 L70.6921653,22.2673684 L70.6921653,34.1842023 L65.4493729,34.1842023 L65.4493729,0.816746538 L76.265885,0.816746538 C84.2013839,0.816746538 88.9714232,5.05924205 88.9714232,11.6374755 C88.9714232,16.3089514 86.5627659,19.6930853 82.3592358,21.2662805 L90.1997868,34.1842023 L84.2955372,34.1842023 Z" id="Fill-6"></path>
                    <path d="M108.809972,29.7034423 C112.446993,29.7034423 115.044751,27.5108314 115.044751,24.1262966 C115.044751,20.7894709 112.211013,18.501442 108.668543,18.501442 L100.969024,18.501442 L100.969024,29.7034423 L108.809972,29.7034423 Z M107.723434,14.4020735 C111.029925,14.4020735 113.249878,12.3525898 113.249878,9.82601572 C113.249878,7.10900645 111.029925,5.29766693 107.723434,5.29766693 L100.969024,5.29766693 L100.969024,14.4020735 L107.723434,14.4020735 Z M108.762696,0.817027179 C114.572395,0.817027179 118.493068,4.39199718 118.493068,9.20660015 C118.493068,12.543025 115.894912,15.3554523 113.486255,15.9752688 L113.486255,16.0225769 C116.650523,16.5473763 120.476645,19.9315101 120.476645,24.2694237 C120.476645,29.9892955 116.603645,34.184082 109.28193,34.184082 L95.7258338,34.184082 L95.7258338,0.817027179 L108.762696,0.817027179 Z" id="Fill-8"></path>
                    <polygon id="Fill-10" points="126.002613 34.184523 131.245405 34.184523 131.245405 0.817067271 126.002613 0.817067271"></polygon>
                    <path d="M167.04827,0.816906905 L167.04827,34.1843627 L162.136008,34.1843627 L150.091132,17.7864881 C147.162447,13.7348287 144.328709,9.58775121 144.281433,9.58775121 L144.234158,9.58775121 C144.186883,9.58775121 144.328709,14.068391 144.328709,20.0268079 L144.328709,34.1843627 L139.085519,34.1843627 L139.085519,0.816906905 L143.998179,0.816906905 L156.137208,17.2624905 C158.49859,20.5034973 161.805478,25.1749732 161.852356,25.1749732 L161.899631,25.1749732 C161.946907,25.1749732 161.805478,20.2653531 161.805478,15.0217698 L161.805478,0.816906905 L167.04827,0.816906905 Z" id="Fill-12"></path>
                    <polygon id="Fill-13" points="197.891916 29.2267529 197.891916 34.184082 174.8891 34.184082 174.8891 0.817027179 197.608661 0.817027179 197.608661 5.77435633 180.131892 5.77435633 180.131892 14.4497826 194.066191 14.4497826 194.066191 19.1212584 180.131892 19.1212584 180.131892 29.2267529"></polygon>
                    <polygon id="Fill-14" points="236.793857 32.4203714 236.793857 34.1840018 216.199698 34.1840018 216.199698 0.816946996 217.994571 0.816946996 217.994571 32.4203714"></polygon>
                    <path d="M263.924722,22.0290638 L257.123036,6.63227696 C256.414701,5.01177357 255.658693,3.00959793 255.611418,3.00959793 L255.564142,3.00959793 C255.516867,3.00959793 254.761257,5.01177357 254.052524,6.63227696 L247.250838,22.0290638 L263.924722,22.0290638 Z M264.680332,23.6972762 L246.495228,23.6972762 L241.866617,34.1840419 L239.929918,34.1840419 L254.808532,0.816987088 L256.367425,0.816987088 L271.246039,34.1840419 L269.309737,34.1840419 L264.680332,23.6972762 Z" id="Fill-15"></path>
                    <path d="M288.959423,32.5159097 C293.730257,32.5159097 297.509104,29.5126462 297.509104,24.6030261 C297.509104,20.0746773 293.39933,16.7378516 288.581618,16.7378516 L278.095239,16.7378516 L278.095239,32.5159097 L288.959423,32.5159097 Z M287.40053,15.1173482 C292.124088,15.1173482 295.194203,12.1617938 295.194203,8.77725896 C295.194203,4.91643569 292.124088,2.48527969 287.40053,2.48527969 L278.095239,2.48527969 L278.095239,15.1173482 L287.40053,15.1173482 Z M287.73106,0.817067271 C293.304779,0.817067271 297.036351,3.96305691 297.036351,8.72954993 C297.036351,12.2095028 293.82441,15.2123653 290.895725,15.6890547 L290.895725,15.7367638 C294.108062,15.9275999 299.39813,19.0258805 299.39813,24.459899 C299.39813,30.4187169 295.241478,34.1841221 288.912148,34.1841221 L276.300763,34.1841221 L276.300763,0.817067271 L287.73106,0.817067271 Z" id="Fill-16"></path>
                    <path d="M324.337923,9.44482457 C323.629588,4.77334869 319.803466,1.8655033 314.796255,1.8655033 C309.458912,1.8655033 305.538637,4.39167644 305.538637,8.77729905 C305.538637,13.1152126 310.781827,14.4498628 315.363162,15.6890948 C319.803466,16.8810188 326.652427,18.5969402 326.652427,25.4610269 C326.652427,30.8473364 322.023419,34.8516877 314.985357,34.8516877 C307.805866,34.8516877 303.55506,30.4660651 303.082307,25.1274646 L304.830302,24.6507752 C305.113556,29.2268331 308.703302,33.1353654 314.985357,33.1353654 C320.984554,33.1353654 324.809882,29.8939577 324.809882,25.4610269 C324.809882,19.4549009 318.150022,18.310686 313.521014,17.0237449 C309.78984,15.975349 303.696489,14.4975718 303.696489,8.77729905 C303.696489,3.58142475 308.420047,0.149581844 314.796255,0.149581844 C320.653627,0.149581844 325.188084,3.53411663 326.085123,8.96813518 L324.337923,9.44482457 Z" id="Fill-17"></path>
                </g>
            </g>
            <path d="M321.524862,157.119877 L302.202885,123.03639 L287.441375,123.03639 L287.441375,157.119877 L274,157.119877 L274,73.111283 L300.042664,73.111283 C320.324739,73.111283 331.485881,84.5124494 331.485881,98.0738367 C331.485881,107.914843 325.845304,116.315703 315.404236,120.39612 L336.766421,157.119877 L321.524862,157.119877 Z M300.042664,84.3924371 L287.441375,84.3924371 L287.441375,111.755236 L300.042664,111.755236 C312.283917,111.755236 318.044506,106.234672 318.044506,98.0738367 C318.044506,90.0330141 312.283917,84.3924371 300.042664,84.3924371 Z M345.391454,115.11558 C345.391454,90.5130632 364.11337,71.9111602 387.875801,71.9111602 C410.918158,71.9111602 430.480159,90.5130632 430.480159,115.11558 C430.480159,139.718097 411.758244,158.32 387.875801,158.32 C364.11337,158.32 345.391454,139.718097 345.391454,115.11558 Z M358.832829,115.11558 C358.832829,133.477459 370.95407,147.038846 387.875801,147.038846 C404.437495,147.038846 417.038784,133.477459 417.038784,115.11558 C417.038784,97.8338122 404.917544,83.1923143 387.875801,83.1923143 C370.95407,83.1923143 358.832829,97.8338122 358.832829,115.11558 Z M495.782689,84.3924371 L495.782689,73.111283 L435.296501,73.111283 L435.296501,84.3924371 L459.178944,84.3924371 L459.178944,157.119877 L472.620319,157.119877 L472.620319,84.3924371 L495.782689,84.3924371 Z M501.863413,115.11558 C501.863413,90.5130632 520.585328,71.9111602 544.347759,71.9111602 C567.390117,71.9111602 586.952118,90.5130632 586.952118,115.11558 C586.952118,139.718097 568.230203,158.32 544.347759,158.32 C520.585328,158.32 501.863413,139.718097 501.863413,115.11558 Z M515.304788,115.11558 C515.304788,133.477459 527.426028,147.038846 544.347759,147.038846 C560.909454,147.038846 573.510743,133.477459 573.510743,115.11558 C573.510743,97.8338122 561.389503,83.1923143 544.347759,83.1923143 C527.426028,83.1923143 515.304788,97.8338122 515.304788,115.11558 Z M649.758441,157.119877 L630.436464,123.03639 L615.674954,123.03639 L615.674954,157.119877 L602.233579,157.119877 L602.233579,73.111283 L628.276243,73.111283 C648.558318,73.111283 659.71946,84.5124494 659.71946,98.0738367 C659.71946,107.914843 654.078883,116.315703 643.637815,120.39612 L665,157.119877 L649.758441,157.119877 Z M628.276243,84.3924371 L615.674954,84.3924371 L615.674954,111.755236 L628.276243,111.755236 C640.517495,111.755236 646.278085,106.234672 646.278085,98.0738367 C646.278085,90.0330141 640.517495,84.3924371 628.276243,84.3924371 Z" id="ROTOR" fill="#051925"></path>
        </g>
    </g>
</svg>