<?xml version="1.0" encoding="UTF-8" standalone="no"?>
<svg width="125px" height="88px" viewBox="0 0 125 88" version="1.1" xmlns="http://www.w3.org/2000/svg" xmlns:xlink="http://www.w3.org/1999/xlink">
    <!-- Generator: Sketch 48.1 (47250) - http://www.bohemiancoding.com/sketch -->
    <title>Salesforce_Logo_RGB_8_13_14</title>
    <desc>Created with Sketch.</desc>
    <defs></defs>
    <g id="Page-1" stroke="none" stroke-width="1" fill="none" fill-rule="evenodd">
        <g id="Salesforce_Logo_RGB_8_13_14">
            <path d="M51.8772894,9.70695971 C55.9065934,5.54029304 61.492674,2.93040293 67.6739927,2.93040293 C75.9157509,2.93040293 83.0586081,7.50915751 86.9047619,14.3315018 C90.2472527,12.8663004 93.9102564,12.0421245 97.7564103,12.0421245 C112.591575,12.0421245 124.6337,24.1758242 124.6337,39.1483516 C124.6337,54.1208791 112.591575,66.2545788 97.7564103,66.2545788 C95.9249084,66.2545788 94.1849817,66.0714286 92.4450549,65.7051282 C89.1025641,71.7032967 82.6465201,75.7783883 75.3205128,75.7783883 C72.2527473,75.7783883 69.3223443,75.0457875 66.7124542,73.8095238 C63.2783883,81.8223443 55.3571429,87.4542125 46.1080586,87.4542125 C36.4468864,87.4542125 28.2509158,81.3644689 25.0915751,72.8021978 C23.7179487,73.0769231 22.2985348,73.2600733 20.8333333,73.2600733 C9.34065934,73.2600733 0.0457875458,63.8278388 0.0457875458,52.2435897 C0.0457875458,44.459707 4.21245421,37.6831502 10.4395604,34.0201465 C9.15750916,31.0897436 8.47069597,27.8388278 8.47069597,24.4047619 C8.47069597,11.0347985 19.3223443,0.228937729 32.6923077,0.228937729 C40.4761905,0.228937729 47.4358974,3.93772894 51.8772894,9.70695971 Z" id="Shape" fill="#7B7B7B" fill-rule="nonzero"></path>
            <g id="Group" transform="translate(17.857143, 30.219780)" fill="#FFFFFF">
                <path d="M0.183150183,15.2472527 C0.0915750916,15.4304029 0.228937729,15.4761905 0.228937729,15.521978 C0.457875458,15.7051282 0.686813187,15.7967033 0.961538462,15.9340659 C2.24358974,16.6208791 3.43406593,16.8040293 4.67032967,16.8040293 C7.23443223,16.8040293 8.83699634,15.4304029 8.83699634,13.2783883 L8.83699634,13.2326007 C8.83699634,11.2179487 7.05128205,10.485348 5.35714286,9.93589744 L5.12820513,9.84432234 C3.84615385,9.43223443 2.74725275,9.06593407 2.74725275,8.24175824 L2.74725275,8.1959707 C2.74725275,7.46336996 3.38827839,6.95970696 4.3956044,6.95970696 C5.49450549,6.95970696 6.82234432,7.32600733 7.64652015,7.78388278 C7.64652015,7.78388278 7.87545788,7.92124542 7.96703297,7.69230769 C8.01282051,7.55494505 8.42490842,6.41025641 8.47069597,6.27289377 C8.51648352,6.13553114 8.42490842,6.04395604 8.33333333,5.9981685 C7.37179487,5.4029304 6.04395604,5.03663004 4.67032967,5.03663004 L4.3956044,5.03663004 C2.06043956,5.03663004 0.412087912,6.45604396 0.412087912,8.47069597 L0.412087912,8.51648352 C0.412087912,10.6684982 2.1978022,11.3553114 3.89194139,11.8131868 L4.16666667,11.9047619 C5.4029304,12.2710623 6.45604396,12.5915751 6.45604396,13.4615385 L6.45604396,13.507326 C6.45604396,14.2857143 5.76923077,14.8809524 4.67032967,14.8809524 C4.25824176,14.8809524 2.88461538,14.8809524 1.37362637,13.9194139 C1.19047619,13.8278388 1.0989011,13.7362637 0.961538462,13.6446886 C0.86996337,13.5989011 0.686813187,13.507326 0.641025641,13.7820513 L0.183150183,15.2472527 Z" id="Shape" fill-rule="nonzero"></path>
                <path d="M37.6373626,15.2472527 C37.5457875,15.4304029 37.6831502,15.4761905 37.6831502,15.521978 C37.9120879,15.7051282 38.1410256,15.7967033 38.4157509,15.9340659 C39.6978022,16.6208791 40.8882784,16.8040293 42.1245421,16.8040293 C44.6886447,16.8040293 46.2912088,15.4304029 46.2912088,13.2783883 L46.2912088,13.2326007 C46.2912088,11.2179487 44.5054945,10.485348 42.8113553,9.93589744 L42.5824176,9.84432234 C41.3003663,9.43223443 40.2014652,9.06593407 40.2014652,8.24175824 L40.2014652,8.1959707 C40.2014652,7.46336996 40.8424908,6.95970696 41.8498168,6.95970696 C42.9487179,6.95970696 44.2765568,7.32600733 45.1007326,7.78388278 C45.1007326,7.78388278 45.3296703,7.92124542 45.4212454,7.69230769 C45.467033,7.55494505 45.8791209,6.41025641 45.9249084,6.27289377 C45.970696,6.13553114 45.8791209,6.04395604 45.7875458,5.9981685 C44.8260073,5.4029304 43.4981685,5.03663004 42.1245421,5.03663004 L41.8498168,5.03663004 C39.514652,5.03663004 37.8663004,6.45604396 37.8663004,8.47069597 L37.8663004,8.51648352 C37.8663004,10.6684982 39.6520147,11.3553114 41.3461538,11.8131868 L41.6208791,11.9047619 C42.8571429,12.2710623 43.9102564,12.5915751 43.9102564,13.4615385 L43.9102564,13.507326 C43.9102564,14.2857143 43.2234432,14.8809524 42.1245421,14.8809524 C41.7124542,14.8809524 40.3388278,14.8809524 38.8278388,13.9194139 C38.6446886,13.8278388 38.5531136,13.7362637 38.4157509,13.6446886 C38.3699634,13.5989011 38.1410256,13.5531136 38.0952381,13.7820513 L37.6373626,15.2472527 Z" id="Shape" fill-rule="nonzero"></path>
                <path d="M65.2930403,8.65384615 C65.0641026,7.96703297 64.7435897,7.32600733 64.3315018,6.82234432 C63.8736264,6.31868132 63.3241758,5.86080586 62.6831502,5.58608059 C62.0421245,5.26556777 61.2637363,5.12820513 60.3937729,5.12820513 C59.5238095,5.12820513 58.7454212,5.26556777 58.1043956,5.58608059 C57.46337,5.90659341 56.9139194,6.31868132 56.456044,6.82234432 C56.043956,7.32600733 55.6776557,7.96703297 55.4945055,8.65384615 C55.2655678,9.34065934 55.1739927,10.1190476 55.1739927,10.9432234 C55.1739927,11.7673993 55.2655678,12.5457875 55.4945055,13.2326007 C55.7234432,13.9194139 56.043956,14.5604396 56.456044,15.0641026 C56.9139194,15.5677656 57.46337,16.025641 58.1043956,16.3003663 C58.7454212,16.5750916 59.5238095,16.7582418 60.3937729,16.7582418 C61.2637363,16.7582418 62.0421245,16.6208791 62.6831502,16.3003663 C63.3241758,16.025641 63.8736264,15.5677656 64.3315018,15.0641026 C64.7435897,14.5604396 65.1098901,13.9194139 65.2930403,13.2326007 C65.521978,12.5457875 65.6135531,11.7673993 65.6135531,10.9432234 C65.6135531,10.1190476 65.521978,9.34065934 65.2930403,8.65384615 M63.1868132,10.9432234 C63.1868132,12.1794872 62.9578755,13.1410256 62.5,13.8278388 C62.0421245,14.514652 61.3553114,14.8351648 60.4395604,14.8351648 C59.478022,14.8351648 58.8369963,14.514652 58.3791209,13.8278388 C57.9212454,13.1410256 57.6923077,12.1794872 57.6923077,10.9432234 C57.6923077,9.70695971 57.9212454,8.74542125 58.3791209,8.05860806 C58.8369963,7.37179487 59.478022,7.05128205 60.4395604,7.05128205 C61.4010989,7.05128205 62.0879121,7.37179487 62.5,8.05860806 C62.9578755,8.74542125 63.1868132,9.70695971 63.1868132,10.9432234" id="Shape" fill-rule="nonzero"></path>
                <path d="M82.8296703,14.514652 C82.7380952,14.2857143 82.5549451,14.3772894 82.5549451,14.3772894 C82.2344322,14.514652 81.9139194,14.6062271 81.547619,14.6520147 C81.1813187,14.6978022 80.8150183,14.7435897 80.3571429,14.7435897 C79.3040293,14.7435897 78.525641,14.4230769 77.9304029,13.8278388 C77.3351648,13.2326007 77.014652,12.2252747 77.014652,10.8974359 C77.014652,9.70695971 77.2893773,8.79120879 77.8388278,8.1043956 C78.3424908,7.41758242 79.1666667,7.05128205 80.2197802,7.05128205 C81.0897436,7.05128205 81.7765568,7.14285714 82.46337,7.37179487 C82.46337,7.37179487 82.6465201,7.46336996 82.6923077,7.23443223 C82.8754579,6.73076923 83.0128205,6.36446886 83.1959707,5.76923077 C83.2417582,5.58608059 83.1043956,5.54029304 83.0586081,5.54029304 C82.7838828,5.44871795 82.1428571,5.26556777 81.6391941,5.17399267 C81.1813187,5.08241758 80.6318681,5.08241758 80.03663,5.08241758 C79.1208791,5.08241758 78.3424908,5.21978022 77.6556777,5.54029304 C76.9688645,5.86080586 76.3736264,6.27289377 75.9157509,6.77655678 C75.4578755,7.28021978 75.0915751,7.92124542 74.8626374,8.60805861 C74.6336996,9.29487179 74.496337,10.0732601 74.496337,10.8974359 C74.496337,12.6831502 74.9542125,14.1025641 75.9157509,15.1556777 C76.8772894,16.2087912 78.2967033,16.7582418 80.1282051,16.7582418 C81.2271062,16.7582418 82.3260073,16.529304 83.1501832,16.2087912 C83.1501832,16.2087912 83.2875458,16.1172161 83.2417582,15.9340659 L82.8296703,14.514652 Z" id="Shape"></path>
                <path d="M93.7271062,8.24175824 C93.543956,7.55494505 93.0860806,6.86813187 92.8113553,6.54761905 C92.3534799,6.04395604 91.8956044,5.67765568 91.4377289,5.49450549 C90.8424908,5.21978022 90.1556777,5.08241758 89.3772894,5.08241758 C88.4615385,5.08241758 87.6373626,5.21978022 86.996337,5.54029304 C86.3095238,5.86080586 85.7600733,6.27289377 85.3479853,6.82234432 C84.8901099,7.37179487 84.5695971,7.96703297 84.3864469,8.6996337 C84.1575092,9.43223443 84.0659341,10.1648352 84.0659341,10.989011 C84.0659341,11.8131868 84.1575092,12.5915751 84.3864469,13.2783883 C84.6153846,13.9652015 84.9358974,14.6062271 85.4395604,15.1098901 C85.8974359,15.6135531 86.5384615,16.025641 87.2710623,16.3003663 C88.003663,16.5750916 88.8736264,16.7124542 89.8809524,16.7124542 C91.9871795,16.7124542 93.0860806,16.2545788 93.4981685,15.9798535 C93.5897436,15.9340659 93.6355311,15.8424908 93.543956,15.6135531 L93.0860806,14.2857143 C92.9945055,14.1025641 92.8113553,14.1483516 92.8113553,14.1483516 C92.3076923,14.3315018 91.5750916,14.6978022 89.8351648,14.6978022 C88.7362637,14.6978022 87.8663004,14.3772894 87.3626374,13.8278388 C86.8131868,13.2783883 86.5842491,12.5 86.5384615,11.4468864 L93.7728938,11.4468864 C93.7728938,11.4468864 93.956044,11.4468864 94.0018315,11.2637363 C93.956044,11.2637363 94.1849817,9.89010989 93.7271062,8.24175824 Z M86.5384615,9.75274725 C86.6300366,9.06593407 86.8131868,8.51648352 87.1336996,8.05860806 C87.5915751,7.37179487 88.2326007,7.00549451 89.1941392,7.00549451 C90.1556777,7.00549451 90.7509158,7.37179487 91.2087912,8.05860806 C91.529304,8.51648352 91.6208791,9.11172161 91.6666667,9.75274725 L86.5384615,9.75274725 Z" id="Shape"></path>
                <path d="M35.8974359,8.24175824 C35.7142857,7.55494505 35.2564103,6.86813187 34.981685,6.54761905 C34.5238095,6.04395604 34.0659341,5.67765568 33.6080586,5.49450549 C33.0128205,5.21978022 32.3260073,5.08241758 31.547619,5.08241758 C30.6318681,5.08241758 29.8076923,5.21978022 29.1666667,5.54029304 C28.4798535,5.86080586 27.9304029,6.27289377 27.518315,6.82234432 C27.0604396,7.37179487 26.7399267,7.96703297 26.5567766,8.6996337 C26.3278388,9.43223443 26.2362637,10.1648352 26.2362637,10.989011 C26.2362637,11.8131868 26.3278388,12.5915751 26.5567766,13.2783883 C26.7857143,13.9652015 27.1062271,14.6062271 27.6098901,15.1098901 C28.0677656,15.6135531 28.7087912,16.025641 29.4413919,16.3003663 C30.1739927,16.5750916 31.043956,16.7124542 32.0512821,16.7124542 C34.1575092,16.7124542 35.2564103,16.2545788 35.6684982,15.9798535 C35.7600733,15.9340659 35.8058608,15.8424908 35.7142857,15.6135531 L35.2564103,14.2857143 C35.1648352,14.1025641 34.981685,14.1483516 34.981685,14.1483516 C34.478022,14.3315018 33.7454212,14.6978022 32.0054945,14.6978022 C30.9065934,14.6978022 30.03663,14.3772894 29.532967,13.8278388 C28.9835165,13.2783883 28.7545788,12.5 28.7087912,11.4468864 L35.9432234,11.4468864 C35.9432234,11.4468864 36.1263736,11.4468864 36.1721612,11.2637363 C36.1263736,11.2637363 36.3553114,9.89010989 35.8974359,8.24175824 Z M28.7087912,9.75274725 C28.8003663,9.06593407 28.9835165,8.51648352 29.3040293,8.05860806 C29.7619048,7.37179487 30.4029304,7.00549451 31.3644689,7.00549451 C32.3260073,7.00549451 32.9212454,7.37179487 33.3791209,8.05860806 C33.6538462,8.51648352 33.7912088,9.11172161 33.8369963,9.75274725 L28.7087912,9.75274725 Z" id="Shape"></path>
                <path d="M15.9798535,9.38644689 C15.7051282,9.38644689 15.2930403,9.34065934 14.8351648,9.34065934 C14.1941392,9.34065934 13.5989011,9.43223443 13.0494505,9.56959707 C12.5,9.70695971 11.996337,9.93589744 11.5384615,10.2564103 C11.0805861,10.5769231 10.7600733,10.989011 10.485348,11.4468864 C10.2106227,11.9047619 10.1190476,12.5 10.1190476,13.0952381 C10.1190476,13.7362637 10.2106227,14.2857143 10.4395604,14.7435897 C10.6684982,15.2014652 10.989011,15.5677656 11.4010989,15.8882784 C11.8131868,16.1630037 12.3168498,16.3919414 12.8663004,16.529304 C13.4157509,16.6666667 14.0567766,16.7124542 14.7893773,16.7124542 C15.521978,16.7124542 16.2545788,16.6666667 16.9871795,16.529304 C17.6739927,16.3919414 18.543956,16.2545788 18.8186813,16.1630037 C19.047619,16.1172161 19.3223443,16.025641 19.3223443,16.025641 C19.5054945,15.9798535 19.5054945,15.7967033 19.5054945,15.7967033 L19.5054945,9.2032967 C19.5054945,7.73809524 19.1391941,6.68498168 18.3608059,5.9981685 C17.5824176,5.35714286 16.4835165,4.99084249 15.0641026,4.99084249 C14.514652,4.99084249 13.6446886,5.08241758 13.1410256,5.17399267 C13.1410256,5.17399267 11.5842491,5.49450549 10.8974359,5.9981685 C10.8974359,5.9981685 10.7600733,6.08974359 10.8516484,6.27289377 L11.3553114,7.64652015 C11.4010989,7.82967033 11.5842491,7.78388278 11.5842491,7.78388278 C11.5842491,7.78388278 11.6300366,7.78388278 11.7216117,7.73809524 C13.0952381,7.00549451 14.8809524,7.00549451 14.8809524,7.00549451 C15.6593407,7.00549451 16.2545788,7.14285714 16.6666667,7.46336996 C17.0787546,7.78388278 17.2619048,8.24175824 17.2619048,9.2032967 L17.2619048,9.52380952 C16.529304,9.47802198 15.9798535,9.38644689 15.9798535,9.38644689 Z M13.0952381,14.4688645 C12.8205128,14.2399267 12.7747253,14.1941392 12.6831502,14.0567766 C12.5457875,13.8278388 12.4542125,13.507326 12.4542125,13.0952381 C12.4542125,12.4542125 12.6831502,11.996337 13.0952381,11.6758242 C13.0952381,11.6758242 13.7362637,11.1263736 15.2014652,11.1721612 C16.2545788,11.1721612 17.1703297,11.3553114 17.1703297,11.3553114 L17.1703297,14.6520147 C17.1703297,14.6520147 16.2545788,14.8351648 15.2014652,14.9267399 C13.7362637,14.9725275 13.0952381,14.4688645 13.0952381,14.4688645 Z" id="Shape" fill-rule="nonzero"></path>
                <path d="M74.2216117,5.67765568 C74.2673993,5.49450549 74.1758242,5.44871795 74.1300366,5.4029304 C73.992674,5.35714286 73.3974359,5.21978022 72.9395604,5.21978022 C72.0238095,5.17399267 71.5201465,5.31135531 71.0622711,5.54029304 C70.6043956,5.72344322 70.1007326,6.08974359 69.8260073,6.45604396 L69.8260073,5.58608059 C69.8260073,5.44871795 69.7344322,5.35714286 69.5970696,5.35714286 L67.7655678,5.35714286 C67.6282051,5.35714286 67.53663,5.44871795 67.53663,5.58608059 L67.53663,16.3461538 C67.53663,16.4835165 67.6282051,16.5750916 67.7655678,16.5750916 L69.6428571,16.5750916 C69.7802198,16.5750916 69.8717949,16.4835165 69.8717949,16.3461538 L69.8717949,10.9432234 C69.8717949,10.2106227 69.96337,9.47802198 70.1007326,9.06593407 C70.2380952,8.60805861 70.467033,8.24175824 70.7417582,8.01282051 C71.0164835,7.73809524 71.2912088,7.55494505 71.6117216,7.46336996 C71.9322344,7.37179487 72.2985348,7.32600733 72.5732601,7.32600733 C72.9395604,7.32600733 73.3516484,7.41758242 73.3516484,7.41758242 C73.489011,7.41758242 73.5805861,7.32600733 73.6263736,7.23443223 C73.8095238,6.86813187 74.1758242,5.86080586 74.2216117,5.67765568 Z" id="Shape"></path>
                <path d="M56.4102564,0.686813187 C56.1813187,0.595238095 55.952381,0.549450549 55.6776557,0.503663004 C55.4029304,0.457875458 55.0824176,0.412087912 54.7161172,0.412087912 C53.3882784,0.412087912 52.3809524,0.778388278 51.6483516,1.51098901 C50.9157509,2.24358974 50.4578755,3.34249084 50.1831502,4.80769231 L50.0915751,5.31135531 L48.4432234,5.31135531 C48.4432234,5.31135531 48.2600733,5.31135531 48.2142857,5.54029304 L47.9395604,7.05128205 C47.9395604,7.18864469 47.985348,7.28021978 48.1684982,7.28021978 L49.7710623,7.28021978 L48.1684982,16.3003663 C48.0311355,17.032967 47.8937729,17.6282051 47.7564103,18.0860806 C47.6190476,18.543956 47.4358974,18.8644689 47.2527473,19.0934066 C47.0695971,19.3223443 46.8864469,19.5054945 46.6117216,19.5970696 C46.3827839,19.6886447 46.0622711,19.7344322 45.7417582,19.7344322 C45.5586081,19.7344322 45.3296703,19.6886447 45.1465201,19.6886447 C44.96337,19.6428571 44.8717949,19.5970696 44.7344322,19.5512821 C44.7344322,19.5512821 44.5512821,19.459707 44.459707,19.6886447 C44.4139194,19.8260073 43.956044,21.0164835 43.9102564,21.1538462 C43.8644689,21.2912088 43.9102564,21.4285714 44.0018315,21.4285714 C44.2307692,21.5201465 44.3681319,21.5659341 44.6428571,21.6117216 C45.0549451,21.7032967 45.3754579,21.7032967 45.6959707,21.7032967 C46.3827839,21.7032967 46.978022,21.6117216 47.481685,21.4285714 C47.985348,21.2454212 48.4432234,20.9249084 48.8095238,20.5128205 C49.2216117,20.0549451 49.496337,19.5512821 49.7252747,18.9102564 C49.9542125,18.2692308 50.1831502,17.4450549 50.3663004,16.4835165 L52.014652,7.28021978 L54.3956044,7.28021978 C54.3956044,7.28021978 54.5787546,7.28021978 54.6245421,7.05128205 L54.8992674,5.54029304 C54.8992674,5.4029304 54.8534799,5.31135531 54.6703297,5.31135531 L52.3809524,5.31135531 C52.3809524,5.26556777 52.518315,4.44139194 52.7472527,3.66300366 C52.8388278,3.34249084 53.0677656,3.06776557 53.2509158,2.88461538 C53.4340659,2.7014652 53.6172161,2.56410256 53.8461538,2.51831502 C54.0750916,2.42673993 54.3498168,2.42673993 54.6245421,2.42673993 C54.8534799,2.42673993 55.03663,2.47252747 55.2197802,2.47252747 C55.4487179,2.51831502 55.540293,2.56410256 55.5860806,2.56410256 C55.8150183,2.65567766 55.8608059,2.56410256 55.9065934,2.47252747 L56.456044,0.961538462 C56.5934066,0.778388278 56.456044,0.732600733 56.4102564,0.686813187 Z" id="Shape"></path>
                <path d="M24.1300366,16.3003663 C24.1300366,16.4377289 24.0384615,16.529304 23.9010989,16.529304 L21.978022,16.529304 C21.8406593,16.529304 21.7490842,16.4377289 21.7490842,16.3003663 L21.7490842,0.915750916 C21.7490842,0.778388278 21.8406593,0.686813187 21.978022,0.686813187 L23.9010989,0.686813187 C24.0384615,0.686813187 24.1300366,0.778388278 24.1300366,0.915750916 L24.1300366,16.3003663 Z" id="Shape"></path>
            </g>
        </g>
    </g>
</svg>