<svg width="793.7" height="793.7" xml:space="preserve" xmlns="http://www.w3.org/2000/svg"><defs><clipPath id="a"><path d="M0 595.275h595.276V0H0Z"/></clipPath><clipPath id="b"><path d="M204.36 233.85H359.4v-7.583H204.36z"/></clipPath></defs><g clip-path="url(#a)" transform="matrix(1.3333 0 0 -1.3333 0 793.7)"><path d="M346.92 317.13c-3.218 7.452 23.955 26.226 40.445 41.138s26.601 10.093 31.339 4.295c4.738-5.799 2.623-19.689-12.701-30.172-15.325-10.483-55.865-22.714-59.083-15.261" fill="#5aacd8" fill-rule="evenodd"/><path d="M379.54 342.33c-1.004 3.219 6.771 5.678 14.713 12.817 7.943 7.14 13.455 7.694 14.459 4.475 1.005-3.22-2.925-8.481-10.515-12.723-7.59-4.241-17.652-7.789-18.657-4.569" fill="#fff" fill-rule="evenodd"/><path d="M413.77 420.86a11.24 11.24 0 0 0 4.428-.872l14.102 15.033a7.228 7.228 0 1 0 4.403-4.129l-13.749-14.655a11.248 11.248 0 0 0 2.065-5.058l19.41-2.876a12.533 12.533 0 0 0 10.455 7.718c6.895.631 12.995-4.448 13.626-11.342.63-6.895-4.448-12.995-11.343-13.626-6.876-.628-12.961 4.421-13.62 11.287l-19.29 2.859a11.333 11.333 0 0 0-3.223-4.337l6.696-14.988a7.226 7.226 0 0 0 7.152-7.182 7.229 7.229 0 1 0-12.661 4.721l-6.695 14.987a11.312 11.312 0 0 0-7.762 1.647l-10.436-11.124a12.494 12.494 0 0 0 1.731-4.188c1.448-6.77-2.865-13.433-9.636-14.881-6.77-1.449-13.433 2.865-14.882 9.636-1.448 6.77 2.866 13.433 9.636 14.881 3.103.664 6.182.118 8.747-1.321l10.794 11.506a11.216 11.216 0 0 0-1.111 3.852l-21.922 3.249a7.229 7.229 0 1 0 .885 5.962l22.039-3.266a11.36 11.36 0 0 0 3.038 3.92l-7.396 16.554a12.452 12.452 0 0 0-2.13-.195c-6.923-.043-12.571 5.534-12.615 12.458-.043 6.923 5.535 12.571 12.458 12.614s12.571-5.534 12.615-12.457a12.517 12.517 0 0 0-4.819-9.958l7.396-16.555a11.3 11.3 0 0 0 1.614.126" fill="#003c6a" fill-rule="evenodd"/><path d="M399.18 457.48c1.556-.309 2.651-1.389 2.448-2.411-.203-1.023-1.629-1.6-3.184-1.291s-2.652 1.389-2.448 2.411c.204 1.023 1.629 1.601 3.184 1.291M458.48 414.08c1.555-.309 2.65-1.389 2.447-2.411-.203-1.023-1.629-1.601-3.184-1.291-1.556.309-2.652 1.389-2.448 2.411.204 1.023 1.629 1.601 3.185 1.291M387.14 391.36c1.555-.31 2.65-1.389 2.447-2.411-.203-1.023-1.629-1.6-3.184-1.291-1.556.309-2.651 1.389-2.448 2.411.204 1.023 1.629 1.601 3.185 1.291M414.69 417.89c1.555-.31 2.65-1.389 2.447-2.411-.203-1.023-1.629-1.601-3.184-1.291-1.556.309-2.652 1.389-2.448 2.411.204 1.023 1.629 1.601 3.185 1.291" fill="#fff" fill-rule="evenodd"/><path d="M441.04 379.42a.717.717 0 0 0 1.368.431c.589-1.868.329-4.226-.571-6.228-.853-1.896-2.287-3.497-4.135-4.113a.715.715 0 0 0-.454 1.357c1.44.479 2.583 1.783 3.283 3.339.764 1.701.993 3.675.509 5.214m3.151-2.147a.718.718 0 0 0 1.402.297c.449-2.116.258-3.813-.286-5.161-.714-1.77-2.025-2.917-3.299-3.624a.715.715 0 1 0-.696 1.25c1.037.574 2.097 1.498 2.666 2.907.446 1.105.597 2.524.213 4.331M383.77 459.93a.912.912 0 0 1-.754 1.661c-2.267-1.029-4.277-3.275-5.408-5.826-1.07-2.415-1.368-5.132-.383-7.402a.908.908 0 1 1 1.668.722c-.768 1.769-.504 3.957.375 5.94.961 2.166 2.635 4.058 4.502 4.905m-4.706 1.161a.911.911 0 0 1-.908 1.578c-2.383-1.37-3.827-2.992-4.641-4.65-1.069-2.178-1.043-4.391-.631-6.197a.91.91 0 1 1 1.774.403c-.336 1.467-.362 3.255.489 4.989.668 1.359 1.882 2.706 3.917 3.877" fill="#003c6a"/><path d="M207.74 333.47c-3.711 7.22-35.472-1.839-57.464-5.1-21.993-3.261-24.694-14.131-23.226-21.474s13.538-14.534 31.37-9.359c17.831 5.175 53.031 28.713 49.32 35.933" fill="#5aacd8" fill-rule="evenodd"/><path d="M179.62 316.7c-.047 3.439-5.822-5.032-25.418-6.911-6.997-.67-10.399-.04-10.985-3.172-.251-1.343.151-4.87 9.917-3.771 9.767 1.1 26.539 10.048 26.486 13.854m-38.397-8.795c-.18 1.9-2.14 3.517-4.377 3.61s-3.906-1.373-3.726-3.273c.18-1.901 2.139-3.518 4.376-3.611 2.238-.093 3.906 1.372 3.727 3.274" fill="#fff" fill-rule="evenodd"/><path d="M218.37 413.03c8.087-3.363 13.354-7.462 19.884-14.263l-8.988-6.828c-2.387 2.487-19.663 1.571-17.102 3.57 5.112 3.987 1.903 7.474-2.719 9.395-8.719 5.094-11.428-18.06-33.575-11.392-14.812 4.46-21.409 18.287-16.88 31.275 4.528 12.988 20.14 19.683 34.869 14.956 8.836-2.837 13.133-9.873 13.78-17.666.662-7.981 1.455-5.19 10.731-9.047" fill="#5aacd8" fill-rule="evenodd"/><g clip-path="url(#b)" opacity=".24"><path d="M281.88 233.85c42.813 0 77.52-1.698 77.52-3.792s-34.707-3.791-77.52-3.791-77.52 1.697-77.52 3.791 34.707 3.792 77.52 3.792" fill-rule="evenodd"/></g><path d="M238.73 229.35c20.761 0 24.71 13.539 38.437 13.648 13.726.109 19.687-13.648 39.713-13.648 32.376 0 53.452 69.518 53.452 107.568 0 48.751-41.336 81.561-92.328 81.561-50.991 0-92.328-32.81-92.328-81.561 0-57.69 24.636-107.568 53.054-107.568" fill="#5aacd8" fill-rule="evenodd"/><path d="M281.98 416.16c45.473 0 82.335-36.862 82.335-82.335 0-82.829-164.15-87.026-164.15 11.953 0 45.472 36.347 70.382 81.819 70.382" fill="#64bbe4" fill-rule="evenodd"/><path d="M278.06 323.63c13.963 0 19.1 4.907 25.161-.506 6.062-5.414-5.432-23.282-25.283-23.282s-30.998 17.683-25.283 23.282 11.441.506 25.405.506" fill="#003c6a" fill-rule="evenodd"/><path d="M291.31 305.92c-3.589-2.215-8.141-3.738-13.405-3.738-5.449 0-10.103 1.615-13.716 3.939.304 4.235 7.882 6.515 13.556 3.71 5.954 2.805 13.439.417 13.565-3.911" fill="#5aacd8" fill-rule="evenodd"/><path d="M278.06 322.02c9.142 0 14.174 1.974 18.312 1.968.002-.071.004-.142.004-.213 0-3.19-2.393-5.776-5.346-5.776-.955 0-1.852.271-2.629.746-.976-1.897-2.998-3.201-5.334-3.201a6.003 6.003 0 0 0-4.952 2.564 6.003 6.003 0 0 0-4.952-2.564c-2.379 0-4.432 1.352-5.387 3.306a5.027 5.027 0 0 0-2.794-.851c-2.952 0-5.346 2.586-5.346 5.776 0 .093.003.185.007.278 4.134-.087 9.274-2.033 18.417-2.033" fill="#fff" fill-rule="evenodd"/><path d="M279.36 391.34c-16.085-3.297-21.085 12.221-.744 17.131 25.481 6.151 61.655-10.458 72.507-33.328 2.889-6.091-1.629-8.373-6.562-2.271-13.66 16.899-38.214 23.999-65.201 18.468m72.92-25.272c1.801.306 3.786-1.17 4.435-3.296s-.284-4.098-2.084-4.404c-1.8-.305-3.786 1.17-4.435 3.297-.649 2.126.284 4.097 2.084 4.403" fill="#f4fafb" fill-rule="evenodd"/><path d="M333.23 355.78c8.086.162 14.773-6.262 14.936-14.348.162-8.086-6.262-14.772-14.348-14.935-8.087-.162-14.774 6.262-14.936 14.348s6.262 14.773 14.348 14.935" fill="#003c6a" fill-rule="evenodd"/><path d="M339.96 351.22a4.085 4.085 0 1 0 .164-8.168 4.085 4.085 0 0 0-.164 8.168" fill="#f4fafb" fill-rule="evenodd"/><path d="M235.93 353.82c8.086.162 14.772-6.261 14.935-14.348.162-8.086-6.262-14.772-14.348-14.934-8.087-.163-14.773 6.261-14.935 14.347s6.262 14.773 14.348 14.935" fill="#003c6a" fill-rule="evenodd"/><path d="M242.66 349.27a4.085 4.085 0 1 0 .164-8.168 4.085 4.085 0 0 0-.164 8.168" fill="#f4fafb" fill-rule="evenodd"/><path d="M189.33 436.96c5.539 0 10.028-4.49 10.028-10.028 0-10.089-19.993-10.6-19.993 1.455 0 5.539 4.427 8.573 9.965 8.573" fill="#fff" fill-rule="evenodd"/><path d="M145.95 352.03c9.206 0 16.668-7.463 16.668-16.669s-7.462-16.669-16.668-16.669c-9.207 0-16.669 7.463-16.669 16.669s7.462 16.669 16.669 16.669" fill="#003c6a" fill-rule="evenodd"/><path d="M149.8 347.77c2.476-.493 4.22-2.21 3.896-3.838s-2.593-2.547-5.068-2.055c-2.476.493-4.22 2.211-3.896 3.838.323 1.628 2.592 2.547 5.068 2.055" fill="#fff" fill-rule="evenodd"/><path d="M224.46 161.49c-.607.736-1.268 1.235-1.983 1.495-.716.261-1.528.391-2.439.391-.867 0-1.659-.185-2.373-.553a5.888 5.888 0 0 1-1.854-1.496 7.052 7.052 0 0 1-1.203-2.113 7.034 7.034 0 0 1-.423-2.407c0-.78.055-1.333.163-1.659.108-.324.249-.66.422-1.007l9.69 7.349m11.699-22.385c-2.223-1.443-3.596-2.371-5.911-3.076-2.774-.845-5.961-1.268-9.56-1.268-2.948 0-5.646.509-8.096 1.529a20.33 20.33 0 0 0-6.341 4.129c-8.604 8.259-5.795 22.755.13 28.679 1.778 1.778 3.848 3.133 6.211 4.065s4.888 1.398 7.576 1.398c4.335 0 8.097-1.106 11.284-3.317 2.578-1.789 4.099-3.159 5.613-5.913 1.389-2.529-.085-4.525-2.378-6.249-5.717-4.302-9.841-7.011-15.56-11.314.478-.26 1.106-.434 1.887-.52.78-.087 1.495-.131 2.146-.131 1.994 0 3.661.384 5.04 1.073.693.348 1.434.818 2.316 1.468 1.953 1.439 2.341-.41 3.777-2.773l2.355-3.88c1.055-1.738 1.196-2.806-.489-3.9m-76.695 40.012 7.179-9.433 6.539 8.907c1.424 1.94 2.04 3.007 4.49 3.086 2.656.084 5.311.17 7.967.255 3.351.107 3.34-1.836 4.314-5.095 4.308-14.41 7.578-25.333 11.817-39.514.882-2.952-.634-3.903-3.763-4.092-4.617-.278-6.374-.386-11.279-.682-2.898-.174-3.45-.197-4.447 2.779l-5.38 16.039c-2.149-3.763-3.234-5.786-5.431-9.523-.432-.734-6.23-1.777-7.314-.375-3.656 4.732-4.24 5.872-7.002 9.695-1.171-5.307-2.05-9.284-3.22-14.591-.51-2.312-2.091-3.109-4.574-3.089-5.063.041-7.633-.085-12.66-.129-3.356-.029-3.515 1.298-2.638 4.364 4.022 14.04 7.484 26.118 11.504 40.157.875 3.052 2.221 3.04 5.185 3.09l5.189.09c2.128.036 2.266-.286 3.524-1.939m82.993-31.908a21.018 21.018 0 0 1 3.761-.317c.591 0 1.212.011 1.865.033.653.02 1.244.084 1.77.189.527.105.969.284 1.328.537.358.253.537.632.537 1.138 0 .632-.327 1.105-.98 1.423-.653.315-1.454.621-2.402.916s-1.991.642-3.129 1.043c-1.138.4-2.181.99-3.129 1.769-.948.78-1.749 1.823-2.402 3.129-.653 1.307-.98 3.014-.98 5.121 0 1.39.274 2.76.822 4.109.548 1.348 1.433 2.57 2.654 3.666 1.223 1.095 2.803 1.98 4.742 2.655 1.938.674 4.277 1.011 7.016 1.011a40.726 40.726 0 0 0 6.163-.474c.948-.147 1.823-.296 2.624-.442 1.849-.341 3.076-3.59 2.379-5.741-.92-2.836-.687-5.624-3.454-5.164-1.01.168-2.107.253-3.287.253-.253 0-.653-.011-1.202-.032-.547-.02-1.095-.084-1.643-.189s-1.032-.285-1.453-.537c-.422-.253-.633-.59-.633-1.012 0-.674.337-1.18 1.012-1.517.674-.337 1.506-.653 2.497-.948.99-.295 2.075-.653 3.256-1.074a11.457 11.457 0 0 0 3.254-1.802c.991-.779 1.823-1.822 2.497-3.129s1.012-3.013 1.012-5.12c0-2.276-.495-4.172-1.486-5.689-.99-1.517-2.297-2.729-3.919-3.635s-3.487-1.548-5.594-1.928a37.075 37.075 0 0 0-6.574-.568c-1.77 0-3.508.105-5.215.315-2.645.326-4.358 1.223-5.032 2.763-.399.912-.192 2.246-.257 3.291-.201 3.196.787 6.465 3.582 5.957m41.099 23.387a8.846 8.846 0 0 0 2.413 1.584c1.435.631 3.046.947 4.829.947 1.828 0 3.448-.326 4.862-.979s2.6-1.566 3.557-2.741 1.686-2.556 2.186-4.145c.501-1.587.729-3.294.686-5.123l-.392-25.256c-4.59-.392-9.18-.785-13.771-1.176v23.822c0 .739-.26 1.37-.783 1.892-.522.523-1.218.784-2.088.784-.827 0-1.534-.25-2.122-.75-.586-.501-.881-1.187-.881-2.057v-15.346c0-5.723 1.411-8.529-3.676-8.095l-5.541.475c-3.092.265-4.508 2.592-4.539 6.08l-.37 41.674c-.048 5.558 4.745 5.116 10.596 5.109 4.497-.006 3.905-3.184 3.794-7.626-.099-4.039-.083-3.31-.156-6.289-.083-3.395-.319-4.348 1.396-2.784" fill="#58acd8"/><path d="m304.79 185.81 18.867 1.81-2.262-23.713 9.563.711.775 22.549 18.415.905-5.233-49.881-14.99-1.81.84 14.215-6.785-.969-.646-14.861-16.089-.322zm67.146-42.818h-.13c-.868-2.385-2.222-4.077-4.065-5.073-1.842-.997-4-1.496-6.471-1.496-3.251 0-5.884.965-7.901 2.894-2.016 1.93-3.024 4.736-3.024 8.422v24.892c0 2.981 1.486 2.542 4.541 2.788l5.8.468c2.406.194 4.167.687 4.127-1.758-.118-7.322-.213-14.646-.356-21.968-.02-1.04.185-1.789.683-2.244.499-.455 1.268-.682 2.308-.682.867 0 1.572.217 2.113.65.542.434.792 1.171.749 2.211-.117 6.846-.234 13.693-.349 20.539-.051 2.996 2.36 2.606 5.453 2.847 3.081.241 2.3.181 4.604.36 2.992.234 4.849.008 4.777-2.908-.283-11.31-.552-21.836-.833-33.043-.054-2.14-.895-2.399-2.802-2.481-2.908-.126-2.583-.114-5.491-.239-2.232-.096-3.733-.542-3.733 1.673zm38.915 19.832c1.977-.673 3.333-1.792 4.064-3.357.732-1.564.78-3.104.144-4.618-.636-1.557-1.775-2.686-3.418-3.387-1.644-.701-3.455-.715-5.433-.041-2.023.711-3.411 1.837-4.163 3.377-.753 1.54-.791 3.092-.112 4.655a5.922 5.922 0 0 0 1.354 2.026c.586.571 1.274 1.014 2.065 1.328s1.652.484 2.584.511c.932.026 1.903-.139 2.915-.494m12.693 8.815c-1.547 1.764-3.594 2.936-5.839 3.794-2.244.857-4.686 1.126-7.319.806-1.338-.163-2.768-.533-4.286-1.11-1.518-.576-2.86-1.523-4.024-2.84-.028 3.541-.002 8.844-.03 12.384-.022 2.61-1.089 3.223-3.55 3.134l-6.981-.252c-2.596-.095-3.183-1.193-3.127-3.544.359-15.082.638-27.003 1.001-42.199.073-3.063-.414-4.322 2.606-4.217 2.961.103 3.254.111 6.216.214 2.271.079 4.752-.303 4.67 1.841l-.052 1.371c1.44-1.349 2.918-2.289 4.435-2.822 1.517-.534 3.313-.674 5.385-.422 2.592.315 4.934 1.178 7.029 2.586 2.092 1.408 3.867 3.125 5.269 5.179 4.573 6.704 3.917 20.029-1.403 26.097M155.82 203.69c-.689 0-1.232-.164-1.63-.49-.397-.326-.596-.76-.596-1.298 0-.539.243-.967.729-1.285.486-.319 1.607-.694 3.365-1.126 1.757-.433 3.121-1.082 4.092-1.947.972-.866 1.457-2.128 1.457-3.789 0-1.66-.622-3.006-1.867-4.041-1.245-1.032-2.883-1.548-4.914-1.548-2.932 0-5.573 1.086-7.922 3.257l2.464 3.021c1.996-1.748 3.841-2.623 5.537-2.623.76 0 1.355.164 1.788.491.433.326.649.768.649 1.324s-.23.998-.688 1.325c-.46.327-1.369.658-2.729.993-2.155.512-3.731 1.179-4.729 2.001-.998.821-1.497 2.11-1.497 3.867 0 1.758.632 3.113 1.894 4.067 1.263.953 2.839 1.43 4.729 1.43 1.236 0 2.473-.212 3.709-.635 1.237-.425 2.314-1.025 3.232-1.802l-2.093-3.02c-1.606 1.219-3.267 1.828-4.98 1.828m24.293 3.205v-3.682h-9.219v-3.815h8.292v-3.523h-8.292v-3.842h9.51v-3.656h-13.643v18.518zm18.995-6.145c0-2.968-1.174-4.884-3.523-5.749l4.689-6.624h-5.086l-4.107 5.908h-2.861v-5.908h-4.133v18.518h7.021c2.879 0 4.932-.485 6.159-1.457 1.227-.971 1.841-2.534 1.841-4.688m-7.868-2.888c1.413 0 2.375.229 2.888.688.512.459.768 1.188.768 2.186s-.265 1.683-.795 2.054c-.53.37-1.457.555-2.782.555h-3.099v-5.483zm18.598-2.756 4.715 11.789h4.477l-7.444-18.518h-3.496l-7.445 18.518h4.477zm11.392 11.789h4.133v-18.518h-4.133zm17.193-14.862c2.031 0 3.691.804 4.981 2.411l2.649-2.729c-2.102-2.366-4.579-3.549-7.431-3.549-2.853 0-5.201.9-7.047 2.702-1.846 1.801-2.768 4.075-2.768 6.821 0 2.747.94 5.038 2.821 6.875s4.181 2.755 6.901 2.755c3.038 0 5.581-1.156 7.629-3.47l-2.569-2.914c-1.307 1.624-2.932 2.437-4.874 2.437-1.555 0-2.884-.508-3.988-1.523-1.103-1.016-1.655-2.385-1.655-4.106 0-1.723.52-3.105 1.562-4.147s2.306-1.563 3.789-1.563m24.241 14.862v-3.682h-9.22v-3.815h8.292v-3.523h-8.292v-3.842h9.511v-3.656h-13.644v18.518z" fill="#003c6a"/><path d="M251.21 95.78c-1.369 0-2.625.426-3.761 1.187a7.917 7.917 0 0 0-2.373 2.444c-.273.443-.35.93-.225 1.427.115.51.394.914.841 1.205.446.271.938.343 1.445.223.511-.12.91-.409 1.185-.856.307-.5.737-.902 1.219-1.232.499-.339 1.057-.582 1.669-.582.629 0 1.179.186 1.656.611.429.365.671.812.671 1.383 0 .463-.116.899-.501 1.187-.505.378-1.743.72-2.35.886-1.166.318-2.606.792-3.593 1.509-1.417 1.028-2.036 2.474-2.036 4.202 0 1.632.634 3.003 1.82 4.117 1.213 1.141 2.669 1.692 4.333 1.692a6.313 6.313 0 0 0 3.372-.947 5.804 5.804 0 0 0 2.257-2.54c.221-.478.245-.975.062-1.469a1.843 1.843 0 0 0-1.003-1.066 1.864 1.864 0 0 0-1.447-.057c-.491.18-.855.52-1.081.999-.178.396-.47.696-.829.916a2.616 2.616 0 0 1-1.331.348c-.633 0-1.189-.188-1.668-.607-.423-.37-.652-.822-.652-1.386 0-.443.102-.876.459-1.15.511-.363 1.753-.704 2.359-.873 1.157-.322 2.633-.799 3.609-1.514 1.416-1.038 2.036-2.51 2.036-4.247 0-1.629-.62-3.007-1.804-4.123-1.21-1.141-2.68-1.687-4.339-1.687m16.877 19.403c2.648 0 4.896-.975 6.752-2.86 1.87-1.899 2.8-4.196 2.8-6.861 0-2.661-.93-4.951-2.801-6.844-1.855-1.879-4.11-2.838-6.751-2.838s-4.894.957-6.746 2.838c-1.868 1.897-2.805 4.181-2.805 6.844 0 2.668.937 4.958 2.805 6.86 1.852 1.888 4.098 2.861 6.746 2.861m14.124 6.326c.527 0 .98-.195 1.352-.57.367-.371.55-.827.55-1.349V97.677a1.882 1.882 0 0 0-1.902-1.897c-.524 0-.981.184-1.362.552-.37.37-.552.823-.552 1.345v21.913c0 .524.18.979.552 1.35.374.375.831.569 1.362.569m14.112-6.326c2.648 0 4.896-.975 6.751-2.86 1.87-1.899 2.801-4.196 2.801-6.861 0-2.661-.93-4.951-2.801-6.844-1.855-1.879-4.11-2.838-6.751-2.838s-4.894.957-6.746 2.838c-1.868 1.897-2.805 4.181-2.805 6.844 0 2.668.937 4.958 2.805 6.86 1.852 1.888 4.097 2.861 6.746 2.861m22.546 6.292c.403 0 .785-.106 1.139-.298.379-.207.674-.503.887-.878.205-.363.317-.756.317-1.173 0-.41-.112-.799-.311-1.158a2.217 2.217 0 0 0-.873-.874 2.335 2.335 0 0 0-2.326.001 2.245 2.245 0 0 0-.872.873c-.198.359-.31.748-.31 1.158 0 .414.111.806.309 1.168.209.382.508.677.891.883.356.193.743.298 1.149.298m0-6.292c.526 0 .98-.197 1.34-.564.381-.367.573-.828.573-1.356V97.677c0-.528-.192-.983-.568-1.345a1.839 1.839 0 0 0-1.345-.552c-.524 0-.977.182-1.349.551-.373.368-.571.82-.571 1.346v15.586c0 .526.197.986.567 1.349.37.376.824.571 1.353.571m14.056 0c2.647 0 4.896-.976 6.751-2.86 1.87-1.899 2.801-4.196 2.801-6.861 0-2.661-.931-4.951-2.801-6.844-1.855-1.878-4.111-2.838-6.751-2.838-2.642 0-4.895.957-6.746 2.838-1.868 1.897-2.806 4.181-2.806 6.844 0 2.668.938 4.958 2.805 6.86 1.852 1.888 4.097 2.861 6.747 2.861m-22.05-14.711a2.37 2.37 0 0 0 1.139-.297 2.23 2.23 0 0 0 .886-.879c.205-.362.318-.756.318-1.172 0-.411-.113-.799-.311-1.157a2.213 2.213 0 0 0-.873-.875 2.339 2.339 0 0 0-1.159-.312c-.417 0-.805.107-1.167.312-.369.21-.666.501-.872.875a2.373 2.373 0 0 0-.311 1.157c0 .413.112.806.31 1.168.209.382.508.676.892.884.355.192.742.296 1.148.296m-42.788-.876c1.594 0 2.937.573 4.051 1.713 1.129 1.156 1.684 2.538 1.684 4.153 0 1.623-.549 3.013-1.684 4.175-1.114 1.141-2.457 1.712-4.051 1.712s-2.938-.569-4.051-1.712c-1.132-1.161-1.684-2.554-1.684-4.175 0-1.613.558-2.998 1.684-4.154 1.113-1.141 2.457-1.712 4.051-1.712m28.236 0c1.594 0 2.937.573 4.051 1.713 1.129 1.156 1.684 2.538 1.684 4.153 0 1.623-.548 3.013-1.684 4.175-1.114 1.141-2.457 1.712-4.051 1.712-1.593 0-2.938-.569-4.051-1.712-1.132-1.161-1.684-2.554-1.684-4.175 0-1.613.558-2.998 1.684-4.154 1.113-1.141 2.458-1.712 4.051-1.712m36.602 0c1.594 0 2.936.573 4.051 1.713 1.129 1.156 1.684 2.538 1.684 4.153 0 1.623-.55 3.013-1.684 4.175-1.115 1.141-2.457 1.712-4.051 1.712s-2.939-.569-4.051-1.712c-1.133-1.161-1.685-2.554-1.685-4.175 0-1.613.559-2.998 1.685-4.154 1.112-1.141 2.457-1.712 4.051-1.712" fill="#35393b"/></g></svg>