<?xml version="1.0" encoding="UTF-8" standalone="no"?>
<svg
   xmlns:dc="http://purl.org/dc/elements/1.1/"
   xmlns:cc="http://creativecommons.org/ns#"
   xmlns:rdf="http://www.w3.org/1999/02/22-rdf-syntax-ns#"
   xmlns:svg="http://www.w3.org/2000/svg"
   xmlns="http://www.w3.org/2000/svg"
   viewBox="0 0 793.70135 793.70001"
   height="793.70001"
   width="793.70135"
   xml:space="preserve"
   id="svg2"
   version="1.1"><metadata
     id="metadata8"><rdf:RDF><cc:Work
         rdf:about=""><dc:format>image/svg+xml</dc:format><dc:type
           rdf:resource="http://purl.org/dc/dcmitype/StillImage" /></cc:Work></rdf:RDF></metadata><defs
     id="defs6"><clipPath
       id="clipPath18"
       clipPathUnits="userSpaceOnUse"><path
         id="path16"
         d="M 0,595.275 H 595.276 V 0 H 0 Z" /></clipPath><clipPath
       id="clipPath74"
       clipPathUnits="userSpaceOnUse"><path
         id="path72"
         d="m 204.361,233.854 h 155.04 v -7.583 h -155.04 z" /></clipPath></defs><g
     transform="matrix(1.3333333,0,0,-1.3333333,0,793.7)"
     id="g10"><g
       id="g12"><g
         clip-path="url(#clipPath18)"
         id="g14"><g
           transform="translate(346.9204,317.1318)"
           id="g20"><path
             id="path22"
             style="fill:#5aacd8;fill-opacity:1;fill-rule:evenodd;stroke:none"
             d="M 0,0 C -3.218,7.452 23.955,26.226 40.445,41.138 56.935,56.05 67.046,51.231 71.784,45.433 76.522,39.634 74.407,25.744 59.083,15.261 43.758,4.778 3.218,-7.453 0,0" /></g><g
           transform="translate(379.5444,342.3296)"
           id="g24"><path
             id="path26"
             style="fill:#ffffff;fill-opacity:1;fill-rule:evenodd;stroke:none"
             d="m 0,0 c -1.004,3.219 6.771,5.678 14.713,12.817 7.943,7.14 13.455,7.694 14.459,4.475 C 30.177,14.072 26.247,8.811 18.657,4.569 11.067,0.328 1.005,-3.22 0,0" /></g><g
           transform="translate(413.7671,420.8574)"
           id="g28"><path
             id="path30"
             style="fill:#003c6a;fill-opacity:1;fill-rule:evenodd;stroke:none"
             d="M 0,0 C 1.569,0.01 3.066,-0.301 4.428,-0.872 L 18.53,14.161 c -0.156,0.386 -0.282,0.791 -0.372,1.214 -0.836,3.903 1.653,7.744 5.556,8.58 3.903,0.835 7.745,-1.652 8.58,-5.557 0.835,-3.902 -1.652,-7.745 -5.556,-8.58 -1.313,-0.281 -2.619,-0.185 -3.805,0.214 L 9.184,-4.623 c 1.069,-1.459 1.796,-3.183 2.065,-5.058 l 19.41,-2.876 c 1.721,4.177 5.646,7.279 10.455,7.718 6.895,0.631 12.995,-4.448 13.626,-11.342 0.63,-6.895 -4.448,-12.995 -11.343,-13.626 -6.876,-0.628 -12.961,4.421 -13.62,11.287 l -19.29,2.859 c -0.712,-1.695 -1.826,-3.181 -3.223,-4.337 l 6.696,-14.988 c 3.936,-0.039 7.128,-3.23 7.152,-7.182 0.026,-3.992 -3.191,-7.248 -7.182,-7.272 -3.992,-0.025 -7.248,3.19 -7.274,7.182 -0.01,1.842 0.668,3.528 1.795,4.811 L 1.756,-22.46 c -0.527,-0.079 -1.067,-0.123 -1.614,-0.126 -2.263,-0.014 -4.374,0.639 -6.148,1.773 l -10.436,-11.124 c 0.805,-1.244 1.403,-2.652 1.731,-4.188 1.448,-6.77 -2.865,-13.433 -9.636,-14.881 -6.77,-1.449 -13.433,2.865 -14.882,9.636 -1.448,6.77 2.866,13.433 9.636,14.881 3.103,0.664 6.182,0.118 8.747,-1.321 l 10.794,11.506 c -0.586,1.181 -0.971,2.48 -1.111,3.852 l -21.922,3.249 c -1.166,-1.788 -3.108,-3.044 -5.398,-3.254 -3.976,-0.363 -7.494,2.565 -7.857,6.54 -0.363,3.976 2.565,7.493 6.54,7.856 3.506,0.321 6.655,-1.919 7.6,-5.18 l 22.039,-3.266 c 0.714,1.522 1.757,2.859 3.038,3.92 l -7.396,16.554 c -0.692,-0.124 -1.403,-0.191 -2.13,-0.195 -6.923,-0.043 -12.571,5.534 -12.615,12.458 -0.043,6.923 5.535,12.571 12.458,12.614 6.923,0.043 12.571,-5.534 12.615,-12.457 0.025,-4.041 -1.865,-7.647 -4.819,-9.958 L -1.614,-0.126 C -1.087,-0.047 -0.548,-0.003 0,0" /></g><g
           transform="translate(399.1753,457.4785)"
           id="g32"><path
             id="path34"
             style="fill:#ffffff;fill-opacity:1;fill-rule:evenodd;stroke:none"
             d="m 0,0 c 1.556,-0.309 2.651,-1.389 2.448,-2.411 -0.203,-1.023 -1.629,-1.6 -3.184,-1.291 -1.555,0.309 -2.652,1.389 -2.448,2.411 C -2.98,-0.268 -1.555,0.31 0,0" /></g><g
           transform="translate(458.4761,414.0757)"
           id="g36"><path
             id="path38"
             style="fill:#ffffff;fill-opacity:1;fill-rule:evenodd;stroke:none"
             d="M 0,0 C 1.555,-0.309 2.65,-1.389 2.447,-2.411 2.244,-3.434 0.818,-4.012 -0.737,-3.702 -2.293,-3.393 -3.389,-2.313 -3.185,-1.291 -2.981,-0.268 -1.556,0.31 0,0" /></g><g
           transform="translate(387.1382,391.3638)"
           id="g40"><path
             id="path42"
             style="fill:#ffffff;fill-opacity:1;fill-rule:evenodd;stroke:none"
             d="m 0,0 c 1.555,-0.31 2.65,-1.389 2.447,-2.411 -0.203,-1.023 -1.629,-1.6 -3.184,-1.291 -1.556,0.309 -2.651,1.389 -2.448,2.411 C -2.981,-0.268 -1.556,0.31 0,0" /></g><g
           transform="translate(414.6929,417.8906)"
           id="g44"><path
             id="path46"
             style="fill:#ffffff;fill-opacity:1;fill-rule:evenodd;stroke:none"
             d="M 0,0 C 1.555,-0.31 2.65,-1.389 2.447,-2.411 2.244,-3.434 0.818,-4.012 -0.737,-3.702 -2.293,-3.393 -3.389,-2.313 -3.185,-1.291 -2.981,-0.268 -1.556,0.31 0,0" /></g><g
           transform="translate(441.0386,379.4243)"
           id="g48"><path
             id="path50"
             style="fill:#003c6a;fill-opacity:1;fill-rule:nonzero;stroke:none"
             d="m 0,0 c -0.119,0.377 0.091,0.781 0.468,0.899 0.378,0.119 0.781,-0.09 0.9,-0.468 0.589,-1.868 0.329,-4.226 -0.571,-6.228 -0.853,-1.896 -2.287,-3.497 -4.135,-4.113 -0.375,-0.125 -0.78,0.077 -0.905,0.452 -0.125,0.375 0.077,0.78 0.451,0.905 1.44,0.479 2.583,1.783 3.283,3.339 C 0.255,-3.513 0.484,-1.539 0,0 m 3.151,-2.147 c -0.082,0.387 0.166,0.768 0.553,0.85 0.387,0.081 0.768,-0.166 0.849,-0.553 0.449,-2.116 0.258,-3.813 -0.286,-5.161 -0.714,-1.77 -2.025,-2.917 -3.299,-3.624 -0.346,-0.193 -0.781,-0.068 -0.973,0.277 -0.192,0.346 -0.067,0.781 0.277,0.973 1.037,0.574 2.097,1.498 2.666,2.907 0.446,1.105 0.597,2.524 0.213,4.331" /></g><g
           transform="translate(383.7661,459.9292)"
           id="g52"><path
             id="path54"
             style="fill:#003c6a;fill-opacity:1;fill-rule:nonzero;stroke:none"
             d="m 0,0 c 0.458,0.208 0.661,0.749 0.453,1.207 -0.208,0.458 -0.748,0.662 -1.207,0.454 -2.267,-1.029 -4.277,-3.275 -5.408,-5.826 -1.07,-2.415 -1.368,-5.132 -0.383,-7.402 0.199,-0.462 0.734,-0.673 1.195,-0.474 0.461,0.2 0.673,0.735 0.473,1.196 -0.768,1.769 -0.504,3.957 0.375,5.94 C -3.541,-2.739 -1.867,-0.847 0,0 m -4.706,1.161 c 0.435,0.251 0.586,0.808 0.335,1.243 -0.251,0.436 -0.808,0.586 -1.243,0.335 -2.383,-1.37 -3.827,-2.992 -4.641,-4.65 -1.069,-2.178 -1.043,-4.391 -0.631,-6.197 0.112,-0.491 0.599,-0.797 1.088,-0.686 0.49,0.112 0.797,0.599 0.686,1.089 -0.336,1.467 -0.362,3.255 0.489,4.989 0.668,1.359 1.882,2.706 3.917,3.877" /></g><g
           transform="translate(207.7359,333.4717)"
           id="g56"><path
             id="path58"
             style="fill:#5aacd8;fill-opacity:1;fill-rule:evenodd;stroke:none"
             d="m 0,0 c -3.711,7.22 -35.472,-1.839 -57.464,-5.1 -21.993,-3.261 -24.694,-14.131 -23.226,-21.474 1.468,-7.343 13.538,-14.534 31.37,-9.359 C -31.489,-30.758 3.711,-7.22 0,0" /></g><g
           transform="translate(179.6157,316.6963)"
           id="g60"><path
             id="path62"
             style="fill:#ffffff;fill-opacity:1;fill-rule:evenodd;stroke:none"
             d="m 0,0 c -0.047,3.439 -5.822,-5.032 -25.418,-6.911 -6.997,-0.67 -10.399,-0.04 -10.985,-3.172 -0.251,-1.343 0.151,-4.87 9.917,-3.771 C -16.719,-12.754 0.053,-3.806 0,0 m -38.397,-8.795 c -0.18,1.9 -2.14,3.517 -4.377,3.61 -2.237,0.093 -3.906,-1.373 -3.726,-3.273 0.18,-1.901 2.139,-3.518 4.376,-3.611 2.238,-0.093 3.906,1.372 3.727,3.274" /></g><g
           transform="translate(218.3672,413.0269)"
           id="g64"><path
             id="path66"
             style="fill:#5aacd8;fill-opacity:1;fill-rule:evenodd;stroke:none"
             d="m 0,0 c 8.087,-3.363 13.354,-7.462 19.884,-14.263 l -8.988,-6.828 c -2.387,2.487 -19.663,1.571 -17.102,3.57 5.112,3.987 1.903,7.474 -2.719,9.395 -8.719,5.094 -11.428,-18.06 -33.575,-11.392 -14.812,4.46 -21.409,18.287 -16.88,31.275 4.528,12.988 20.14,19.683 34.869,14.956 8.836,-2.837 13.133,-9.873 13.78,-17.666 C -10.069,1.066 -9.276,3.857 0,0" /></g><g
           id="g68"><g
             id="g70" /><g
             id="g82"><g
               style="opacity:0.24000501"
               id="g80"
               clip-path="url(#clipPath74)"><g
                 id="g78"
                 transform="translate(281.8813,233.8545)"><path
                   id="path76"
                   style="fill:#000000;fill-opacity:1;fill-rule:evenodd;stroke:none"
                   d="m 0,0 c 42.813,0 77.52,-1.698 77.52,-3.792 0,-2.094 -34.707,-3.791 -77.52,-3.791 -42.813,0 -77.52,1.697 -77.52,3.791 C -77.52,-1.698 -42.813,0 0,0" /></g></g></g></g><g
           transform="translate(238.728,229.3545)"
           id="g84"><path
             id="path86"
             style="fill:#5aacd8;fill-opacity:1;fill-rule:evenodd;stroke:none"
             d="M 0,0 C 20.761,0 24.71,13.539 38.437,13.648 52.163,13.757 58.124,0 78.15,0 c 32.376,0 53.452,69.518 53.452,107.568 0,48.751 -41.336,81.561 -92.328,81.561 -50.991,0 -92.328,-32.81 -92.328,-81.561 C -53.054,49.878 -28.418,0 0,0" /></g><g
           transform="translate(281.9751,416.1631)"
           id="g88"><path
             id="path90"
             style="fill:#64bbe4;fill-opacity:1;fill-rule:evenodd;stroke:none"
             d="m 0,0 c 45.473,0 82.335,-36.862 82.335,-82.335 0,-82.829 -164.154,-87.026 -164.154,11.953 C -81.819,-24.91 -45.472,0 0,0" /></g><g
           transform="translate(278.061,323.6348)"
           id="g92"><path
             id="path94"
             style="fill:#003c6a;fill-opacity:1;fill-rule:evenodd;stroke:none"
             d="m 0,0 c 13.963,0 19.1,4.907 25.161,-0.506 6.062,-5.414 -5.432,-23.282 -25.283,-23.282 -19.851,0 -30.998,17.683 -25.283,23.282 C -19.69,5.093 -13.964,0 0,0" /></g><g
           transform="translate(291.3115,305.9248)"
           id="g96"><path
             id="path98"
             style="fill:#5aacd8;fill-opacity:1;fill-rule:evenodd;stroke:none"
             d="m 0,0 c -3.589,-2.215 -8.141,-3.738 -13.405,-3.738 -5.449,0 -10.103,1.615 -13.716,3.939 0.304,4.235 7.882,6.515 13.556,3.71 C -7.611,6.716 -0.126,4.328 0,0" /></g><g
           transform="translate(278.0557,322.0244)"
           id="g100"><path
             id="path102"
             style="fill:#ffffff;fill-opacity:1;fill-rule:evenodd;stroke:none"
             d="m 0,0 c 9.142,0 14.174,1.974 18.312,1.968 0.002,-0.071 0.004,-0.142 0.004,-0.213 0,-3.19 -2.393,-5.776 -5.346,-5.776 -0.955,0 -1.852,0.271 -2.629,0.746 -0.976,-1.897 -2.998,-3.201 -5.334,-3.201 -2.064,0 -3.883,1.018 -4.952,2.564 -1.069,-1.546 -2.888,-2.564 -4.952,-2.564 -2.379,0 -4.432,1.352 -5.387,3.306 -0.813,-0.54 -1.77,-0.851 -2.794,-0.851 -2.952,0 -5.346,2.586 -5.346,5.776 0,0.093 0.003,0.185 0.007,0.278 C -14.283,1.946 -9.143,0 0,0" /></g><g
           transform="translate(279.3589,391.3398)"
           id="g104"><path
             id="path106"
             style="fill:#f4fafb;fill-opacity:1;fill-rule:evenodd;stroke:none"
             d="M 0,0 C -16.085,-3.297 -21.085,12.221 -0.744,17.131 24.737,23.282 60.911,6.673 71.763,-16.197 74.652,-22.288 70.134,-24.57 65.201,-18.468 51.541,-1.569 26.987,5.531 0,0 m 72.92,-25.272 c 1.801,0.306 3.786,-1.17 4.435,-3.296 0.649,-2.126 -0.284,-4.098 -2.084,-4.404 -1.8,-0.305 -3.786,1.17 -4.435,3.297 -0.649,2.126 0.284,4.097 2.084,4.403" /></g><g
           transform="translate(333.2339,355.7764)"
           id="g108"><path
             id="path110"
             style="fill:#003c6a;fill-opacity:1;fill-rule:evenodd;stroke:none"
             d="M 0,0 C 8.086,0.162 14.773,-6.262 14.936,-14.348 15.098,-22.434 8.674,-29.12 0.588,-29.283 -7.499,-29.445 -14.186,-23.021 -14.348,-14.935 -14.51,-6.849 -8.086,-0.162 0,0" /></g><g
           transform="translate(339.9644,351.2173)"
           id="g112"><path
             id="path114"
             style="fill:#f4fafb;fill-opacity:1;fill-rule:evenodd;stroke:none"
             d="M 0,0 C 2.256,0.045 4.121,-1.747 4.166,-4.002 4.211,-6.258 2.419,-8.123 0.164,-8.168 -2.092,-8.213 -3.957,-6.421 -4.002,-4.166 -4.048,-1.911 -2.256,-0.045 0,0" /></g><g
           transform="translate(235.9346,353.8247)"
           id="g116"><path
             id="path118"
             style="fill:#003c6a;fill-opacity:1;fill-rule:evenodd;stroke:none"
             d="M 0,0 C 8.086,0.162 14.772,-6.261 14.935,-14.348 15.097,-22.434 8.673,-29.12 0.587,-29.282 -7.5,-29.445 -14.186,-23.021 -14.348,-14.935 -14.51,-6.849 -8.086,-0.162 0,0" /></g><g
           transform="translate(242.6646,349.2656)"
           id="g120"><path
             id="path122"
             style="fill:#f4fafb;fill-opacity:1;fill-rule:evenodd;stroke:none"
             d="M 0,0 C 2.256,0.045 4.121,-1.747 4.166,-4.002 4.211,-6.258 2.419,-8.123 0.164,-8.168 -2.092,-8.213 -3.957,-6.421 -4.002,-4.166 -4.047,-1.91 -2.256,-0.045 0,0" /></g><g
           transform="translate(189.333,436.9609)"
           id="g124"><path
             id="path126"
             style="fill:#ffffff;fill-opacity:1;fill-rule:evenodd;stroke:none"
             d="m 0,0 c 5.539,0 10.028,-4.49 10.028,-10.028 0,-10.089 -19.993,-10.6 -19.993,1.455 C -9.965,-3.034 -5.538,0 0,0" /></g><g
           transform="translate(145.9487,352.0303)"
           id="g128"><path
             id="path130"
             style="fill:#003c6a;fill-opacity:1;fill-rule:evenodd;stroke:none"
             d="m 0,0 c 9.206,0 16.668,-7.463 16.668,-16.669 0,-9.206 -7.462,-16.669 -16.668,-16.669 -9.207,0 -16.669,7.463 -16.669,16.669 C -16.669,-7.463 -9.207,0 0,0" /></g><g
           transform="translate(149.8032,347.7661)"
           id="g132"><path
             id="path134"
             style="fill:#ffffff;fill-opacity:1;fill-rule:evenodd;stroke:none"
             d="M 0,0 C 2.476,-0.493 4.22,-2.21 3.896,-3.838 3.572,-5.466 1.303,-6.385 -1.172,-5.893 -3.648,-5.4 -5.392,-3.682 -5.068,-2.055 -4.745,-0.427 -2.476,0.492 0,0" /></g><g
           transform="translate(224.4575,161.4902)"
           id="g136"><path
             id="path138"
             style="fill:#58acd8;fill-opacity:1;fill-rule:nonzero;stroke:none"
             d="m 0,0 c -0.607,0.736 -1.268,1.235 -1.983,1.495 -0.716,0.261 -1.528,0.391 -2.439,0.391 -0.867,0 -1.659,-0.185 -2.373,-0.553 -0.716,-0.369 -1.334,-0.868 -1.854,-1.496 -0.52,-0.629 -0.921,-1.333 -1.203,-2.113 -0.282,-0.781 -0.423,-1.583 -0.423,-2.407 0,-0.78 0.055,-1.333 0.163,-1.659 0.108,-0.324 0.249,-0.66 0.422,-1.007 C -6.459,-4.899 -3.229,-2.45 0,0 m 11.699,-22.385 c -2.223,-1.443 -3.596,-2.371 -5.911,-3.076 -2.774,-0.845 -5.961,-1.268 -9.56,-1.268 -2.948,0 -5.646,0.509 -8.096,1.529 -2.449,1.018 -4.549,2.409 -6.341,4.129 -8.604,8.259 -5.795,22.755 0.13,28.679 1.778,1.778 3.848,3.133 6.211,4.065 2.363,0.932 4.888,1.398 7.576,1.398 4.335,0 8.097,-1.106 11.284,-3.317 C 9.57,7.965 11.091,6.595 12.605,3.841 13.994,1.312 12.52,-0.684 10.227,-2.408 4.51,-6.71 0.386,-9.419 -5.333,-13.722 c 0.478,-0.26 1.106,-0.434 1.887,-0.52 0.78,-0.087 1.495,-0.131 2.146,-0.131 1.994,0 3.661,0.384 5.04,1.073 0.693,0.348 1.434,0.818 2.316,1.468 1.953,1.439 2.341,-0.41 3.777,-2.773 1.314,-2.166 1.293,-2.13 2.355,-3.88 1.055,-1.738 1.196,-2.806 -0.489,-3.9 m -76.695,40.012 c 2.566,-3.37 4.613,-6.062 7.179,-9.433 2.538,3.457 4.001,5.45 6.539,8.907 1.424,1.94 2.04,3.007 4.49,3.086 2.656,0.084 5.311,0.17 7.967,0.255 3.351,0.107 3.34,-1.836 4.314,-5.095 4.308,-14.41 7.578,-25.333 11.817,-39.514 0.882,-2.952 -0.634,-3.903 -3.763,-4.092 -4.617,-0.278 -6.374,-0.386 -11.279,-0.682 -2.898,-0.174 -3.45,-0.197 -4.447,2.779 -1.793,5.347 -3.587,10.692 -5.38,16.039 -2.149,-3.763 -3.234,-5.786 -5.431,-9.523 -0.432,-0.734 -6.23,-1.777 -7.314,-0.375 -3.656,4.732 -4.24,5.872 -7.002,9.695 -1.171,-5.307 -2.05,-9.284 -3.22,-14.591 -0.51,-2.312 -2.091,-3.109 -4.574,-3.089 -5.063,0.041 -7.633,-0.085 -12.66,-0.129 -3.356,-0.029 -3.515,1.298 -2.638,4.364 4.022,14.04 7.484,26.118 11.504,40.157 0.875,3.052 2.221,3.04 5.185,3.09 2.427,0.042 2.762,0.048 5.189,0.09 2.128,0.036 2.266,-0.286 3.524,-1.939 m 82.993,-31.908 c 1.159,-0.211 2.413,-0.317 3.761,-0.317 0.591,0 1.212,0.011 1.865,0.033 0.653,0.02 1.244,0.084 1.77,0.189 0.527,0.105 0.969,0.284 1.328,0.537 0.358,0.253 0.537,0.632 0.537,1.138 0,0.632 -0.327,1.105 -0.98,1.423 -0.653,0.315 -1.454,0.621 -2.402,0.916 -0.948,0.295 -1.991,0.642 -3.129,1.043 -1.138,0.4 -2.181,0.99 -3.129,1.769 -0.948,0.78 -1.749,1.823 -2.402,3.129 -0.653,1.307 -0.98,3.014 -0.98,5.121 0,1.39 0.274,2.76 0.822,4.109 0.548,1.348 1.433,2.57 2.654,3.666 1.223,1.095 2.803,1.98 4.742,2.655 1.938,0.674 4.277,1.011 7.016,1.011 1.053,0 2.107,-0.042 3.16,-0.126 1.054,-0.084 2.055,-0.201 3.003,-0.348 0.948,-0.147 1.823,-0.296 2.624,-0.442 1.849,-0.341 3.076,-3.59 2.379,-5.741 C 39.716,2.648 39.949,-0.14 37.182,0.32 36.172,0.488 35.075,0.573 33.895,0.573 33.642,0.573 33.242,0.562 32.693,0.541 32.146,0.521 31.598,0.457 31.05,0.352 30.502,0.247 30.018,0.067 29.597,-0.185 c -0.422,-0.253 -0.633,-0.59 -0.633,-1.012 0,-0.674 0.337,-1.18 1.012,-1.517 0.674,-0.337 1.506,-0.653 2.497,-0.948 0.99,-0.295 2.075,-0.653 3.256,-1.074 1.179,-0.422 2.265,-1.022 3.254,-1.802 0.991,-0.779 1.823,-1.822 2.497,-3.129 0.674,-1.307 1.012,-3.013 1.012,-5.12 0,-2.276 -0.495,-4.172 -1.486,-5.689 -0.99,-1.517 -2.297,-2.729 -3.919,-3.635 -1.622,-0.906 -3.487,-1.548 -5.594,-1.928 -2.107,-0.379 -4.298,-0.568 -6.574,-0.568 -1.77,0 -3.508,0.105 -5.215,0.315 -2.645,0.326 -4.358,1.223 -5.032,2.763 -0.399,0.912 -0.192,2.246 -0.257,3.291 -0.201,3.196 0.787,6.465 3.582,5.957 M 59.096,9.106 c 0.74,0.674 1.545,1.204 2.413,1.584 1.435,0.631 3.046,0.947 4.829,0.947 1.828,0 3.448,-0.326 4.862,-0.979 1.414,-0.653 2.6,-1.566 3.557,-2.741 0.957,-1.175 1.686,-2.556 2.186,-4.145 0.501,-1.587 0.729,-3.294 0.686,-5.123 -0.131,-8.419 -0.261,-16.837 -0.392,-25.256 -4.59,-0.392 -9.18,-0.785 -13.771,-1.176 v 23.822 c 0,0.739 -0.26,1.37 -0.783,1.892 -0.522,0.523 -1.218,0.784 -2.088,0.784 -0.827,0 -1.534,-0.25 -2.122,-0.75 -0.586,-0.501 -0.881,-1.187 -0.881,-2.057 v -15.346 c 0,-5.723 1.411,-8.529 -3.676,-8.095 -2.624,0.224 -2.915,0.25 -5.541,0.475 -3.092,0.265 -4.508,2.592 -4.539,6.08 -0.128,14.446 -0.244,27.473 -0.37,41.674 -0.048,5.558 4.745,5.116 10.596,5.109 4.497,-0.006 3.905,-3.184 3.794,-7.626 C 57.757,14.14 57.773,14.869 57.7,11.89 57.617,8.495 57.381,7.542 59.096,9.106" /></g><g
           transform="translate(304.7886,185.8057)"
           id="g140"><path
             id="path142"
             style="fill:#003c6a;fill-opacity:1;fill-rule:nonzero;stroke:none"
             d="m 0,0 18.867,1.81 -2.262,-23.713 9.563,0.711 0.775,22.549 18.415,0.905 -5.233,-49.881 -14.99,-1.81 0.84,14.215 -6.785,-0.969 -0.646,-14.861 -16.089,-0.322 z m 67.146,-42.818 h -0.13 c -0.868,-2.385 -2.222,-4.077 -4.065,-5.073 -1.842,-0.997 -4,-1.496 -6.471,-1.496 -3.251,0 -5.884,0.965 -7.901,2.894 -2.016,1.93 -3.024,4.736 -3.024,8.422 v 24.892 c 0,2.981 1.486,2.542 4.541,2.788 3.232,0.261 3.024,0.245 5.8,0.468 2.406,0.194 4.167,0.687 4.127,-1.758 -0.118,-7.322 -0.213,-14.646 -0.356,-21.968 -0.02,-1.04 0.185,-1.789 0.683,-2.244 0.499,-0.455 1.268,-0.682 2.308,-0.682 0.867,0 1.572,0.217 2.113,0.65 0.542,0.434 0.792,1.171 0.749,2.211 -0.117,6.846 -0.234,13.693 -0.349,20.539 -0.051,2.996 2.36,2.606 5.453,2.847 3.081,0.241 2.3,0.181 4.604,0.36 2.992,0.234 4.849,0.008 4.777,-2.908 -0.283,-11.31 -0.552,-21.836 -0.833,-33.043 -0.054,-2.14 -0.895,-2.399 -2.802,-2.481 -2.908,-0.126 -2.583,-0.114 -5.491,-0.239 -2.232,-0.096 -3.733,-0.542 -3.733,1.673 z m 38.915,19.832 c 1.977,-0.673 3.333,-1.792 4.064,-3.357 0.732,-1.564 0.78,-3.104 0.144,-4.618 -0.636,-1.557 -1.775,-2.686 -3.418,-3.387 -1.644,-0.701 -3.455,-0.715 -5.433,-0.041 -2.023,0.711 -3.411,1.837 -4.163,3.377 -0.753,1.54 -0.791,3.092 -0.112,4.655 0.317,0.779 0.769,1.454 1.354,2.026 0.586,0.571 1.274,1.014 2.065,1.328 0.791,0.314 1.652,0.484 2.584,0.511 0.932,0.026 1.903,-0.139 2.915,-0.494 m 12.693,8.815 c -1.547,1.764 -3.594,2.936 -5.839,3.794 -2.244,0.857 -4.686,1.126 -7.319,0.806 -1.338,-0.163 -2.768,-0.533 -4.286,-1.11 -1.518,-0.576 -2.86,-1.523 -4.024,-2.84 -0.028,3.541 -0.002,8.844 -0.03,12.384 -0.022,2.61 -1.089,3.223 -3.55,3.134 C 90.654,1.886 89.776,1.856 86.725,1.745 84.129,1.65 83.542,0.552 83.598,-1.799 c 0.359,-15.082 0.638,-27.003 1.001,-42.199 0.073,-3.063 -0.414,-4.322 2.606,-4.217 2.961,0.103 3.254,0.111 6.216,0.214 2.271,0.079 4.752,-0.303 4.67,1.841 -0.034,0.914 -0.017,0.457 -0.052,1.371 1.44,-1.349 2.918,-2.289 4.435,-2.822 1.517,-0.534 3.313,-0.674 5.385,-0.422 2.592,0.315 4.934,1.178 7.029,2.586 2.092,1.408 3.867,3.125 5.269,5.179 4.573,6.704 3.917,20.029 -1.403,26.097" /></g><g
           transform="translate(155.8164,203.6914)"
           id="g144"><path
             id="path146"
             style="fill:#003c6a;fill-opacity:1;fill-rule:nonzero;stroke:none"
             d="m 0,0 c -0.689,0 -1.232,-0.164 -1.63,-0.49 -0.397,-0.326 -0.596,-0.76 -0.596,-1.298 0,-0.539 0.243,-0.967 0.729,-1.285 0.486,-0.319 1.607,-0.694 3.365,-1.126 1.757,-0.433 3.121,-1.082 4.092,-1.947 0.972,-0.866 1.457,-2.128 1.457,-3.789 0,-1.66 -0.622,-3.006 -1.867,-4.041 -1.245,-1.032 -2.883,-1.548 -4.914,-1.548 -2.932,0 -5.573,1.086 -7.922,3.257 l 2.464,3.021 c 1.996,-1.748 3.841,-2.623 5.537,-2.623 0.76,0 1.355,0.164 1.788,0.491 0.433,0.326 0.649,0.768 0.649,1.324 0,0.556 -0.23,0.998 -0.688,1.325 -0.46,0.327 -1.369,0.658 -2.729,0.993 -2.155,0.512 -3.731,1.179 -4.729,2.001 -0.998,0.821 -1.497,2.11 -1.497,3.867 0,1.758 0.632,3.113 1.894,4.067 1.263,0.953 2.839,1.43 4.729,1.43 1.236,0 2.473,-0.212 3.709,-0.635 C 5.078,2.569 6.155,1.969 7.073,1.192 L 4.98,-1.828 C 3.374,-0.609 1.713,0 0,0 m 24.293,3.205 v -3.682 h -9.219 v -3.815 h 8.292 v -3.523 h -8.292 v -3.842 h 9.51 v -3.656 H 10.941 V 3.205 Z M 43.288,-2.94 c 0,-2.968 -1.174,-4.884 -3.523,-5.749 l 4.689,-6.624 h -5.086 l -4.107,5.908 H 32.4 v -5.908 H 28.267 V 3.205 h 7.021 c 2.879,0 4.932,-0.485 6.159,-1.457 1.227,-0.971 1.841,-2.534 1.841,-4.688 M 35.42,-5.828 c 1.413,0 2.375,0.229 2.888,0.688 0.512,0.459 0.768,1.188 0.768,2.186 0,0.998 -0.265,1.683 -0.795,2.054 -0.53,0.37 -1.457,0.555 -2.782,0.555 H 32.4 V -5.828 Z M 54.018,-8.584 58.733,3.205 H 63.21 L 55.766,-15.313 H 52.27 L 44.825,3.205 h 4.477 z M 65.41,3.205 h 4.133 V -15.313 H 65.41 Z m 17.193,-14.862 c 2.031,0 3.691,0.804 4.981,2.411 l 2.649,-2.729 c -2.102,-2.366 -4.579,-3.549 -7.431,-3.549 -2.853,0 -5.201,0.9 -7.047,2.702 -1.846,1.801 -2.768,4.075 -2.768,6.821 0,2.747 0.94,5.038 2.821,6.875 1.881,1.837 4.181,2.755 6.901,2.755 3.038,0 5.581,-1.156 7.629,-3.47 l -2.569,-2.914 c -1.307,1.624 -2.932,2.437 -4.874,2.437 -1.555,0 -2.884,-0.508 -3.988,-1.523 -1.103,-1.016 -1.655,-2.385 -1.655,-4.106 0,-1.723 0.52,-3.105 1.562,-4.147 1.042,-1.042 2.306,-1.563 3.789,-1.563 m 24.241,14.862 v -3.682 h -9.22 v -3.815 h 8.292 v -3.523 h -8.292 v -3.842 h 9.511 v -3.656 H 93.491 V 3.205 Z" /></g><g
           transform="translate(251.2134,95.7803)"
           id="g148"><path
             id="path150"
             style="fill:#35393b;fill-opacity:1;fill-rule:nonzero;stroke:none"
             d="m 0,0 c -1.369,0 -2.625,0.426 -3.761,1.187 -0.965,0.645 -1.764,1.456 -2.373,2.444 -0.273,0.443 -0.35,0.93 -0.225,1.427 0.115,0.51 0.394,0.914 0.841,1.205 0.446,0.271 0.938,0.343 1.445,0.223 0.511,-0.12 0.91,-0.409 1.185,-0.856 0.307,-0.5 0.737,-0.902 1.219,-1.232 C -1.17,4.059 -0.612,3.816 0,3.816 c 0.629,0 1.179,0.186 1.656,0.611 0.429,0.365 0.671,0.812 0.671,1.383 0,0.463 -0.116,0.899 -0.501,1.187 -0.505,0.378 -1.743,0.72 -2.35,0.886 -1.166,0.318 -2.606,0.792 -3.593,1.509 -1.417,1.028 -2.036,2.474 -2.036,4.202 0,1.632 0.634,3.003 1.82,4.117 1.213,1.141 2.669,1.692 4.333,1.692 1.209,0 2.342,-0.311 3.372,-0.947 1.004,-0.62 1.761,-1.471 2.257,-2.54 C 5.85,15.438 5.874,14.941 5.691,14.447 5.507,13.953 5.167,13.599 4.688,13.381 4.221,13.167 3.724,13.148 3.241,13.324 2.75,13.504 2.386,13.844 2.16,14.323 1.982,14.719 1.69,15.019 1.331,15.239 0.92,15.476 0.475,15.587 0,15.587 c -0.633,0 -1.189,-0.188 -1.668,-0.607 -0.423,-0.37 -0.652,-0.822 -0.652,-1.386 0,-0.443 0.102,-0.876 0.459,-1.15 C -1.35,12.081 -0.108,11.74 0.498,11.571 1.655,11.249 3.131,10.772 4.107,10.057 5.523,9.019 6.143,7.547 6.143,5.81 6.143,4.181 5.523,2.803 4.339,1.687 3.129,0.546 1.659,0 0,0 m 16.877,19.403 c 2.648,0 4.896,-0.975 6.752,-2.86 1.87,-1.899 2.8,-4.196 2.8,-6.861 0,-2.661 -0.93,-4.951 -2.801,-6.844 C 21.773,0.959 19.518,0 16.877,0 14.236,0 11.983,0.957 10.131,2.838 8.263,4.735 7.326,7.019 7.326,9.682 c 0,2.668 0.937,4.958 2.805,6.86 1.852,1.888 4.098,2.861 6.746,2.861 m 14.124,6.326 c 0.527,0 0.98,-0.195 1.352,-0.57 0.367,-0.371 0.55,-0.827 0.55,-1.349 V 1.897 c 0,-0.519 -0.186,-0.972 -0.556,-1.35 C 31.972,0.186 31.521,0 31.001,0 30.477,0 30.02,0.184 29.639,0.552 29.269,0.922 29.087,1.375 29.087,1.897 V 23.81 c 0,0.524 0.18,0.979 0.552,1.35 0.374,0.375 0.831,0.569 1.362,0.569 m 14.112,-6.326 c 2.648,0 4.896,-0.975 6.751,-2.86 1.87,-1.899 2.801,-4.196 2.801,-6.861 0,-2.661 -0.93,-4.951 -2.801,-6.844 C 50.009,0.959 47.754,0 45.113,0 c -2.641,0 -4.894,0.957 -6.746,2.838 -1.868,1.897 -2.805,4.181 -2.805,6.844 0,2.668 0.937,4.958 2.805,6.86 1.852,1.888 4.097,2.861 6.746,2.861 m 22.546,6.292 c 0.403,0 0.785,-0.106 1.139,-0.298 0.379,-0.207 0.674,-0.503 0.887,-0.878 0.205,-0.363 0.317,-0.756 0.317,-1.173 0,-0.41 -0.112,-0.799 -0.311,-1.158 -0.207,-0.375 -0.5,-0.664 -0.873,-0.874 -0.358,-0.202 -0.747,-0.311 -1.159,-0.311 -0.417,0 -0.805,0.106 -1.167,0.312 -0.369,0.209 -0.666,0.501 -0.872,0.873 -0.198,0.359 -0.31,0.748 -0.31,1.158 0,0.414 0.111,0.806 0.309,1.168 0.209,0.382 0.508,0.677 0.891,0.883 0.356,0.193 0.743,0.298 1.149,0.298 m 0,-6.292 c 0.526,0 0.98,-0.197 1.34,-0.564 0.381,-0.367 0.573,-0.828 0.573,-1.356 V 1.897 C 69.572,1.369 69.38,0.914 69.004,0.552 68.635,0.183 68.181,0 67.659,0 67.135,0 66.682,0.182 66.31,0.551 65.937,0.919 65.739,1.371 65.739,1.897 v 15.586 c 0,0.526 0.197,0.986 0.567,1.349 0.37,0.376 0.824,0.571 1.353,0.571 m 14.056,0 c 2.647,0 4.896,-0.976 6.751,-2.86 1.87,-1.899 2.801,-4.196 2.801,-6.861 0,-2.661 -0.931,-4.951 -2.801,-6.844 C 86.611,0.96 84.355,0 81.715,0 79.073,0 76.82,0.957 74.969,2.838 c -1.868,1.897 -2.806,4.181 -2.806,6.844 0,2.668 0.938,4.958 2.805,6.86 1.852,1.888 4.097,2.861 6.747,2.861 M 59.665,4.692 c 0.402,0 0.785,-0.105 1.139,-0.297 C 61.183,4.188 61.478,3.892 61.69,3.516 61.895,3.154 62.008,2.76 62.008,2.344 62.008,1.933 61.895,1.545 61.697,1.187 61.49,0.812 61.197,0.521 60.824,0.312 60.465,0.11 60.077,0 59.665,0 59.248,0 58.86,0.107 58.498,0.312 c -0.369,0.21 -0.666,0.501 -0.872,0.875 -0.198,0.358 -0.311,0.746 -0.311,1.157 0,0.413 0.112,0.806 0.31,1.168 0.209,0.382 0.508,0.676 0.892,0.884 0.355,0.192 0.742,0.296 1.148,0.296 M 16.877,3.816 c 1.594,0 2.937,0.573 4.051,1.713 1.129,1.156 1.684,2.538 1.684,4.153 0,1.623 -0.549,3.013 -1.684,4.175 -1.114,1.141 -2.457,1.712 -4.051,1.712 -1.594,0 -2.938,-0.569 -4.051,-1.712 -1.132,-1.161 -1.684,-2.554 -1.684,-4.175 0,-1.613 0.558,-2.998 1.684,-4.154 1.113,-1.141 2.457,-1.712 4.051,-1.712 m 28.236,0 c 1.594,0 2.937,0.573 4.051,1.713 1.129,1.156 1.684,2.538 1.684,4.153 0,1.623 -0.548,3.013 -1.684,4.175 -1.114,1.141 -2.457,1.712 -4.051,1.712 -1.593,0 -2.938,-0.569 -4.051,-1.712 -1.132,-1.161 -1.684,-2.554 -1.684,-4.175 0,-1.613 0.558,-2.998 1.684,-4.154 1.113,-1.141 2.458,-1.712 4.051,-1.712 m 36.602,0 c 1.594,0 2.936,0.573 4.051,1.713 1.129,1.156 1.684,2.538 1.684,4.153 0,1.623 -0.55,3.013 -1.684,4.175 -1.115,1.141 -2.457,1.712 -4.051,1.712 -1.594,0 -2.939,-0.569 -4.051,-1.712 -1.133,-1.161 -1.685,-2.554 -1.685,-4.175 0,-1.613 0.559,-2.998 1.685,-4.154 1.112,-1.141 2.457,-1.712 4.051,-1.712" /></g></g></g></g></svg>