<?xml version="1.0" encoding="UTF-8"?>
<svg width="101px" height="101px" viewBox="0 0 101 101" version="1.1" xmlns="http://www.w3.org/2000/svg" xmlns:xlink="http://www.w3.org/1999/xlink">
    <!-- Generator: Sketch 52.4 (67378) - http://www.bohemiancoding.com/sketch -->
    <title>snapchat</title>
    <desc>Created with Sketch.</desc>
    <g id="Page-1" stroke="none" stroke-width="1" fill="none" fill-rule="evenodd">
        <g id="snapchat" transform="translate(0.087638, 0.451822)">
            <path d="M0.027464173,74.6087955 L0.027464173,74.6132665 C0.0873354664,76.8339472 0.105802261,79.0674574 0.48038662,81.274531 C0.877325519,83.6095114 1.4447421,85.8863701 2.52728506,88.0055806 C3.99082716,90.8739598 6.00079201,93.2962202 8.53793526,95.2748887 C10.3595388,96.6956656 12.3494818,97.8235008 14.5522788,98.5349584 C17.7643348,99.5710428 21.0780554,99.968176 24.4401784,99.9876148 C26.537812,100.000833 28.6340848,100.053318 30.7324959,100.04457 C45.9714895,99.9804224 61.2108719,100.154593 76.4502544,99.9504868 C78.4724656,99.9230782 80.461631,99.6764007 82.4463255,99.3134796 C86.2502909,98.6171842 89.6122196,96.9940501 92.4885687,94.4279431 C95.8407779,91.4380718 98.1024744,87.778925 99.1233965,83.3626396 C99.7915058,80.4759879 99.9586788,77.5473486 99.9872538,74.6084068 L99.9872538,74.0221346 C99.9872538,73.7947015 99.9007514,24.0855882 99.8927815,23.4285591 C99.870427,21.6236728 99.7374661,19.8323937 99.3990378,18.0564712 C98.9875198,15.8923572 98.4061073,13.7836436 97.3698286,11.8257745 C96.2756224,9.75729912 94.9049974,7.89740128 93.2097456,6.27212893 C90.6129255,3.7820274 87.6162506,2.02107271 84.1275814,1.08956869 C80.976563,0.248454771 77.76198,0.0622317219 74.5238761,0.0651475317 C74.5186276,0.0643699824 74.5063812,0.031518526 74.5056037,0.015578766 L25.4935633,0.015578766 C25.4925914,0.0322960752 25.4920082,0.0490133844 25.4908419,0.0651475317 C23.6531042,0.0987765374 21.8126451,0.0849750379 19.984238,0.311630649 C17.9812711,0.560640801 15.9975485,0.935613934 14.101689,1.63579705 C11.1155111,2.74030578 8.52102357,4.46063353 6.30481377,6.75731967 C3.79391281,9.35938828 2.0240163,12.3686983 1.08493117,15.8729185 C0.24712184,18.9994441 0.0647865378,22.1881736 0.0603156295,25.3994521" id="Path" fill="#7D7D7D"></path>
            <path d="M49.9045281,84.4041668 C49.7849799,84.4144693 49.6615439,84.4189402 49.5379136,84.4189402 C45.1764454,84.4189402 42.2602469,82.357074 39.6867532,80.5364424 C37.842212,79.2334642 36.1026399,78.0033812 34.0646832,77.6643698 C33.0637829,77.498363 32.0681311,77.4141933 31.1061083,77.4141933 C29.3727566,77.4141933 28.0029092,77.683031 27.0027864,77.8785846 C26.3873562,77.9985216 25.8566788,78.1017412 25.4465216,78.1017412 C25.0169256,78.1017412 24.4949957,78.0064914 24.2774763,77.2637375 C24.1050547,76.6778541 23.9814244,76.1102432 23.8620706,75.563626 C23.5634916,74.1976664 23.3469442,73.3639392 22.8355111,73.2848235 C17.3652577,72.4407938 14.1331798,71.1974925 13.489369,69.6917684 C13.4239452,69.5413635 13.3855177,69.3806128 13.3758468,69.2168802 C13.3507203,68.7688948 13.6673176,68.3740073 14.1100477,68.3011215 C18.4542154,67.5857762 22.3168858,65.2896732 25.5913401,61.4744334 C28.1279002,58.5207181 29.3735341,55.698603 29.5072726,55.3870002 C29.5132234,55.3726708 29.5197735,55.3585977 29.5269057,55.3448181 C30.1580813,54.0641945 30.2836556,52.9575475 29.9012957,52.0565623 C29.1964473,50.3943563 26.86205,49.6537407 25.3176428,49.1636902 C24.9335334,49.0421982 24.5702236,48.9271209 24.2807808,48.812238 C22.911711,48.2714525 20.6601227,47.1288438 20.9600623,45.5517795 C21.1785537,44.4017842 22.6996344,43.6009084 23.9289398,43.6009084 C24.2702839,43.6009084 24.5727506,43.6607797 24.827398,43.7803279 C26.2164897,44.4311366 27.4662058,44.7610119 28.5409733,44.7610119 C29.8775804,44.7610119 30.5231407,44.2521059 30.6792337,44.1074818 C30.638754,43.377544 30.5947572,42.6478056 30.5472448,41.9182918 C30.2335036,36.9273975 29.842202,30.7163339 31.4309295,27.1545751 C36.186032,16.493014 46.2702628,15.6639521 49.2467214,15.6639521 C49.7380073,15.659828 50.2292891,15.6552275 50.720566,15.6501506 C53.7051889,15.6501506 63.8104135,16.4801844 68.5684319,27.1481604 C70.1571594,30.7122518 69.765469,36.9285638 69.4507559,41.9247066 L69.4359825,42.163803 C69.3928285,42.8422147 69.3529791,43.484276 69.3193501,44.1067042 C69.4663069,44.2419978 70.0570499,44.7085273 71.2589467,44.7557635 C72.2835623,44.7164972 73.4609662,44.388177 74.7575296,43.7811055 C75.1583563,43.5929385 75.6021425,43.5538667 75.9034429,43.5538667 C76.3588923,43.5538667 76.8223117,43.6425073 77.2085593,43.8036544 L77.2291643,43.8116243 C78.3293966,44.2021484 79.0499903,44.9826135 79.0655413,45.8025392 C79.0793428,46.5668701 78.5113431,47.7092843 75.7176086,48.8126268 C75.4314704,48.9259546 75.0664111,49.0418094 74.6807466,49.164079 C73.1349787,49.6547126 70.8025253,50.3949395 70.0976769,52.0561735 C69.7147339,52.9571587 69.8406968,54.0634169 70.4720669,55.3436518 C70.4790648,55.3576477 70.4850908,55.371838 70.4918944,55.3866114 C70.6862817,55.8422553 75.3914267,66.5706856 85.8891193,68.3001496 C86.3316865,68.3733588 86.6481742,68.7680051 86.6235146,69.2159082 C86.613217,69.3812185 86.5738674,69.5434206 86.507271,69.695073 C85.8679311,71.1924385 82.6360475,72.4339903 77.164239,73.2791863 C76.6506677,73.3584963 76.4343146,74.1885302 76.1384571,75.5472975 C76.0159931,76.1084937 75.8913908,76.6586098 75.7213019,77.2367177 C75.5620987,77.780419 75.207925,78.0461465 74.6391477,78.0461465 L74.5534229,78.0461465 C74.1831151,78.0461465 73.6584637,77.9788884 72.9967693,77.8494265 C71.8401648,77.624326 70.5430182,77.4147765 68.8934475,77.4147765 C67.931619,77.4147765 66.9361616,77.4991406 65.934095,77.6649529 C63.8982766,78.0039644 62.1588989,79.2321035 60.3176622,80.5337209 C57.7391145,82.3568796 54.821944,84.4189402 50.4608646,84.4189402 C50.2532589,84.4189402 50.0551783,84.4113591 49.9045281,84.4041668 Z" id="Path" fill="#FFFFFF"></path>
            <path d="M50.7203717,16.5285869 C53.5302403,16.5285869 63.2060634,17.2833928 67.7658066,27.5060274 C69.2672543,30.8722326 68.8823674,36.9699683 68.5736803,41.8683343 C68.5254723,42.6456891 68.477653,43.3991344 68.4387755,44.1185618 L68.422447,44.4278321 L68.6288863,44.658181 C68.7122785,44.7507094 69.4927436,45.5663586 71.2286223,45.6334222 L71.2566141,45.6349773 L71.2857722,45.6343941 C72.4334349,45.590657 73.7261105,45.2341506 75.1299757,44.5765384 C75.3368038,44.4797335 75.6120563,44.4324974 75.9032485,44.4324974 C76.2350676,44.4324974 76.5876862,44.4948957 76.8784896,44.6173597 L76.9224212,44.6348546 C77.6585659,44.8928065 78.1789408,45.3791636 78.1869107,45.8192565 C78.1911872,46.0680722 78.0051585,46.9643921 75.3957032,47.9952281 C75.140667,48.0959207 74.8049601,48.2030281 74.4157967,48.3256865 C72.7176291,48.8649169 70.1521053,49.6786222 69.2886369,51.7132743 C68.8024742,52.8593819 68.9356295,54.2119288 69.6840207,55.7328152 C69.9919302,56.4514651 74.8391723,67.3698119 85.746439,69.167117 C85.742717,69.2277109 85.7276155,69.2870616 85.7019243,69.3420656 C85.517062,69.7774932 84.3419906,71.2818566 77.0299173,72.4100806 C75.8857536,72.585418 75.6054471,73.8679855 75.2804315,75.3589362 C75.1630216,75.8927238 75.0436678,76.4315654 74.8796049,76.9880963 C74.8294529,77.1562413 74.8201223,77.1657663 74.6399253,77.1657663 L74.5540061,77.1657663 C74.2297681,77.1657663 73.7375794,77.0985083 73.1670526,76.9865412 C72.1280524,76.784184 70.7086362,76.5359514 68.8940306,76.5359514 C67.8812727,76.5359514 66.837996,76.6240089 65.7912203,76.798763 C63.5536279,77.1708204 61.7339682,78.4578588 59.8068124,79.8201251 C57.2187396,81.648921 54.5437758,83.5412815 50.4624197,83.5412815 C50.2841665,83.5412815 50.1101899,83.5352555 49.9358244,83.5265081 L49.889949,83.5245642 L49.8438792,83.5280632 C49.7437698,83.5368106 49.6428828,83.5412815 49.5398575,83.5412815 C45.4590846,83.5412815 42.7829544,81.6495041 40.196048,79.8201251 C38.2685033,78.4578588 36.4478717,77.1708204 34.2106681,76.798763 C33.1648644,76.624592 32.1206157,76.5359514 31.1084409,76.5359514 C29.2942241,76.5359514 27.8730584,76.8135365 26.8361965,77.0162825 C26.2656697,77.1278608 25.7717316,77.2234993 25.4484654,77.2234993 C25.1837099,77.2234993 25.1786559,77.2079484 25.1226723,77.0166712 C24.9586094,76.4597516 24.8386724,75.9080804 24.7218457,75.3750703 C24.3960525,73.8825645 24.1155516,72.5929991 22.971971,72.4174673 C15.6604809,71.2882714 14.4852152,69.7813809 14.2997697,69.3471197 C14.2745586,69.2906941 14.2593639,69.2303099 14.2548662,69.1686721 C25.1619385,67.3729221 30.0082087,56.4541865 30.3170902,55.7328152 C31.066842,54.2130952 31.199803,52.8607426 30.7120852,51.7132743 C29.8486167,49.6797886 27.2834817,48.8649169 25.5864804,48.3266585 C25.1963451,48.2032225 24.8604438,48.0959207 24.6052133,47.9952281 C22.4016387,47.1245673 21.7238101,46.2474917 21.8245027,45.7160368 C21.9413295,45.1031336 23.0038506,44.4799279 23.9310781,44.4799279 C24.1394613,44.4799279 24.3221853,44.5135569 24.4572845,44.5767327 C25.9632031,45.2825531 27.3379102,45.6404201 28.5436947,45.6404201 C30.4391654,45.6404201 31.2828064,44.7584849 31.3733908,44.6577923 L31.5788582,44.4280264 L31.5623353,44.1203113 C31.524041,43.4012726 31.4768049,42.6480218 31.4270417,41.872222 C31.1193266,36.9726897 30.7344397,30.8790361 32.2353042,27.5126366 C36.7781358,17.3275188 46.4067227,16.5423884 49.2490541,16.5423884 C49.3190335,16.5423884 50.5547537,16.5297532 50.5547537,16.5297532 C50.6052944,16.5293644 50.6614723,16.5285869 50.7203717,16.5285869 M50.7203717,14.7717143 L50.7170671,14.7717143 C50.6523361,14.7717143 50.5914929,14.7717143 50.5335654,14.7724919 L49.2441944,14.7853214 C47.5790726,14.7853214 44.2474684,15.0205301 40.6687979,16.6001214 C38.622677,17.5026617 36.7822179,18.7230253 35.1987388,20.2273887 C33.3108492,22.0198342 31.7728568,24.2298236 30.6283043,26.7969025 C28.9521024,30.5555756 29.3500133,36.8865761 29.669586,41.9742754 L29.6707523,41.9822452 C29.7049645,42.5271129 29.7409262,43.0960846 29.7737776,43.6504772 C29.5278777,43.7634162 29.1291893,43.8825756 28.5415564,43.8825756 C27.5960565,43.8825756 26.4717203,43.5803034 25.2006216,42.9847006 C24.8266204,42.8105296 24.3997459,42.7224721 23.9287454,42.7224721 C23.1719956,42.7224721 22.37423,42.94524 21.6822112,43.3520927 C20.8115504,43.8633313 20.2489935,44.5858689 20.0962051,45.3869391 C19.9955125,45.9168389 20.0003721,46.9641978 21.1637802,48.0263301 C21.8037033,48.6110471 22.7437603,49.1502775 23.957126,49.629831 C24.2755324,49.7552108 24.6534213,49.8749534 25.0536648,50.0018884 C26.4425622,50.4433419 28.5446666,51.1102848 29.0928389,52.4004334 C29.3706183,53.0545468 29.2510701,53.9152938 28.7384708,54.9556547 C28.7250581,54.9840353 28.7116453,55.0118327 28.6993989,55.0409907 C28.5712977,55.3401528 27.3762045,58.0471906 24.924786,60.9021571 C23.5318065,62.52568 21.9975074,63.8825034 20.3669866,64.9360827 C18.3768493,66.2223436 16.2234266,67.0632631 13.967173,67.4349316 C13.0812644,67.580441 12.4475861,68.3704641 12.4977993,69.2668377 C12.5129615,69.5253728 12.5736103,69.7831304 12.6787739,70.0325293 L12.6813009,70.0370003 C13.0395567,70.875004 13.8701737,71.5868503 15.2205824,72.2147214 C16.8707363,72.9811905 19.3386777,73.6259733 22.5552046,74.1304084 C22.7177124,74.4394842 22.8864406,75.2162559 23.0032674,75.7480996 C23.125537,76.3133779 23.2530551,76.894596 23.4348072,77.5119701 C23.630944,78.1808569 24.1396556,78.9801775 25.4465216,78.9801775 C25.9418205,78.9801775 26.5113753,78.8685992 27.1709315,78.7406923 C28.136842,78.5511647 29.4577038,78.2926296 31.1063027,78.2926296 C32.0203118,78.2926296 32.9675612,78.3731059 33.921031,78.5315316 C35.7589631,78.8374972 37.3434141,79.9567794 39.1766809,81.252954 C41.8600034,83.1497854 44.8973052,85.2967934 49.5379136,85.2967934 C49.6644598,85.2967934 49.7913947,85.2927112 49.9167745,85.2839638 C50.0701461,85.2911561 50.2602569,85.2967934 50.4608646,85.2967934 C55.1028337,85.2967934 58.139358,83.1490079 60.8197647,81.2537316 L60.8240412,81.2498438 C62.6576967,79.9552243 64.2403983,78.8374972 66.0777472,78.5315316 C67.0308282,78.3733003 67.9778832,78.2926296 68.8922811,78.2926296 C70.4672072,78.2926296 71.7142018,78.4934317 72.8276523,78.7105623 C73.5542721,78.8536314 74.1189673,78.9224445 74.5522566,78.9224445 L74.5946331,78.923222 L74.6385646,78.923222 C75.594367,78.923222 76.2966884,78.3985707 76.5647485,77.4804794 C76.7428073,76.8761292 76.8699366,76.3085182 76.9953164,75.7337149 C77.1045621,75.2353059 77.2791219,74.436374 77.4416297,74.1239936 C80.6602949,73.6185866 83.1272643,72.9751645 84.7776126,72.2088897 C86.1249111,71.5839345 86.9545562,70.8728657 87.3149502,70.038361 C87.4230296,69.7881845 87.4862055,69.5288718 87.5003957,69.2648938 C87.5507784,68.3683986 86.9169105,67.5782437 86.0308276,67.4329878 C76.0033579,65.7803068 71.4859911,55.4770015 71.2991849,55.0392413 C71.2869701,55.0103729 71.2736776,54.9819724 71.2593355,54.9540996 C70.7467361,53.9133499 70.6283543,53.0535748 70.9063281,52.3982952 C71.453334,51.1093129 73.5540777,50.44237 74.9439471,50.0011108 C75.3463288,49.8743703 75.7255785,49.7538501 76.0414578,49.6290535 C77.4097502,49.0886567 78.3877128,48.5023846 79.0328843,47.836608 C79.8034356,47.0429246 79.9535026,46.2824814 79.944172,45.7848499 C79.9206511,44.5808149 79.0002272,43.5109071 77.5361019,42.9870333 C77.0415806,42.7825378 76.477663,42.6746529 75.9034429,42.6746529 C75.51253,42.6746529 74.9336445,42.7283038 74.3856667,42.9841175 C73.2125392,43.5330672 72.1616814,43.8332013 71.2595299,43.8759665 C70.779782,43.8516681 70.4432975,43.7476708 70.2253893,43.6483389 C70.252798,43.1786992 70.2831224,42.6962298 70.3144187,42.1931555 L70.3274427,41.9777743 C70.6487649,36.8867705 71.0480365,30.5509103 69.3710571,26.7895158 C68.2216449,24.2133007 66.6782096,21.997674 64.7827389,20.2013408 C63.1930394,18.6960055 61.3463599,17.4758363 59.2928523,16.5738791 C55.7192359,15.005951 52.3878261,14.7717143 50.7203717,14.7717143" id="Shape" fill="#020202" fill-rule="nonzero"></path>
            <polygon id="Path" points="0.027464173 0.0460975747 99.9874482 0.0460975747 99.9874482 100.005887 0.027464173 100.005887"></polygon>
        </g>
    </g>
</svg>