<svg id="Layer_1" data-name="Layer 1" viewBox="0 0 186.62 244.43" xmlns="http://www.w3.org/2000/svg"><defs><style>.cls-1{fill:#0eb1e4}.cls-1,.cls-2,.cls-3,.cls-8{fill-rule:evenodd}.cls-2{fill:#158bc2}.cls-3{fill:#fff}.cls-8{fill:#a96c25}</style></defs><path class="cls-1" d="M59.18 4.87c3.25-4.65 6.39-6.27 8.43-3.56a34.24 34.24 0 0 0 25.75 13.88 34.24 34.24 0 0 0 25.75-13.87c2-2.71 5.18-1.09 8.43 3.56 14.94 21.37 17 42.47 7.58 57 18.42 18.71 13.31 44.33 6.68 56.69-2.84 5.31-4 4.9-7.1 2.06l-3.38-3.07a83.91 83.91 0 0 1-6.06 16.79c-3.83 8.07-12.21 9.44-12.68-.08H74.14c-.47 9.52-8.85 8.15-12.68.08a83.88 83.88 0 0 1-6.06-16.79l-3.4 3.02c-3.15 2.84-4.26 3.25-7.1-2.06-6.62-12.36-11.74-38 6.68-56.69-9.38-14.49-7.36-35.58 7.58-57"/><path class="cls-2" d="M93.36 15.19a34.24 34.24 0 0 0 25.75-13.87c2-2.71 5.18-1.09 8.43 3.56 14.94 21.37 17 42.47 7.58 57 18.42 18.71 13.31 44.33 6.68 56.69-2.84 5.31-4 4.9-7.1 2.06l-3.38-3.07a83.91 83.91 0 0 1-6.06 16.79c-3.83 8.07-12.21 9.44-12.68-.08H93.36V78.73c0-1.64 1-2.92-5-3.64-14-1.7-27.2-10.36-31.63-22.72a23 23 0 0 1-1.36-7.77 15.88 15.88 0 0 1 6.62-13c7.75-5.75 19.62-3.8 24.64 4.65 2.87 4.75 3.28 10.69 3.86 16.09.22 2 .38 4.14.73 6.13.16.93.42 2.23 1.37 2.68.51.24.18.16.76.16Z"/><path class="cls-1" d="M85.39 162.62c-.44 1-1.65 7.34-3.13 8.29-5.35 3.44-20.94-34.85-22-39.11a415.49 415.49 0 0 1 66.11 0c-1 4.19-16.55 42.63-22 39.15-1.48-1-2.69-7.31-3.13-8.29-.78 2.35-4.06 16.9-8.38 15.91s-6.55-12.88-7.56-15.91"/><path class="cls-2" d="M93.36 130.46c11.85 0 23.69.42 33.06 1.3a104.33 104.33 0 0 1-3.72 9.91v.43l-.05.13V143l-.06.13V143.48l-.06.13v.07l-.06.14v.55l-.27.62v.19l-.12.28v.07l-.12.28v.07c-5.3 12.16-12.94 27.17-16.41 24.93-1.48-1-2.69-7.31-3.13-8.29-.76 2.27-3.85 16-8 16v-33c0-2.08-.25-4.92-5.34-4.8a234.61 234.61 0 0 0-23.49 2.13c-.66-1.51-1.83-4.54-2.4-5.92a269.59 269.59 0 0 1 31.18-1.78z"/><path class="cls-3" d="M93.36 71a43 43 0 0 0 6.07-.44c14.76-2.11 31.9-12.9 31.9-29.49a15.88 15.88 0 0 0-6.62-13c-7.75-5.75-19.62-3.8-24.64 4.65-2.84 4.79-3.25 10.72-3.84 16.12-.22 2-.38 4.14-.73 6.13-.16.93-.42 2.23-1.37 2.68-.51.24-.18.16-.76.16s-.25.08-.76-.16c-1-.45-1.21-1.75-1.37-2.68-.35-2-.51-4.12-.73-6.13-.58-5.4-1-11.33-3.84-16.12-5-8.46-16.89-10.4-24.64-4.65a15.88 15.88 0 0 0-6.62 13 22.93 22.93 0 0 0 1.36 7.77C61.84 63 79.05 71 93.36 71"/><path d="M93.36 71a43 43 0 0 0 6.07-.44c14.76-2.11 31.9-12.9 31.9-29.49a15.88 15.88 0 0 0-6.62-13c-7.75-5.75-19.62-3.8-24.64 4.65-2.84 4.79-3.25 10.72-3.84 16.12-.22 2-.38 4.14-.73 6.13-.16.93-.42 2.23-1.37 2.68-.52.24-.18.16-.76.16Z" style="fill:#ddf4f9;fill-rule:evenodd"/><path d="M76 34.72A7.26 7.26 0 1 1 68.77 42 7.26 7.26 0 0 1 76 34.72m34.65 0a7.26 7.26 0 1 1-7.23 7.28 7.26 7.26 0 0 1 7.26-7.28z" style="fill:#35393b;fill-rule:evenodd"/><path class="cls-3" d="M78.35 37.85a2.1 2.1 0 1 1-2.1 2.1 2.1 2.1 0 0 1 2.1-2.1M113.11 37.85a2.1 2.1 0 1 1-2.1 2.1 2.1 2.1 0 0 1 2.1-2.1M93.36 78.48A19.66 19.66 0 0 0 73.71 97.6h-.9a14 14 0 0 0 0 28.09h41.11a14 14 0 0 0 0-28.09 13.75 13.75 0 0 0-9.66 3.58 16.27 16.27 0 0 1 8.14-8 19.67 19.67 0 0 0-19-14.72"/><path d="M168.37 237.14a10.4 10.4 0 0 0 7.74-3.27 11.44 11.44 0 0 0 0-15.91 10.79 10.79 0 0 0-15.48 0 11.45 11.45 0 0 0 0 15.91 10.39 10.39 0 0 0 7.74 3.27m-69.92 0a10.4 10.4 0 0 0 7.74-3.27 11.44 11.44 0 0 0 0-15.91 10.79 10.79 0 0 0-15.48 0 11.45 11.45 0 0 0 0 15.91 10.38 10.38 0 0 0 7.74 3.27zm-53.94 0a10.4 10.4 0 0 0 7.74-3.27 11.44 11.44 0 0 0 0-15.91 10.79 10.79 0 0 0-15.48 0 11.45 11.45 0 0 0 0 15.91 10.38 10.38 0 0 0 7.73 3.27zm81.74-1.67a4.52 4.52 0 0 1 2.18.57 4.27 4.27 0 0 1 1.69 1.68 4.42 4.42 0 0 1 0 4.45 4.23 4.23 0 0 1-1.67 1.67 4.44 4.44 0 0 1-4.44 0 4.29 4.29 0 0 1-1.67-1.67 4.54 4.54 0 0 1-.59-2.21 4.61 4.61 0 0 1 .59-2.23 4.14 4.14 0 0 1 1.7-1.69 4.59 4.59 0 0 1 2.21-.57zm42.12-28.1a17.48 17.48 0 0 1 12.9 5.46 18.69 18.69 0 0 1 0 26.18 18 18 0 0 1-25.79 0 18.67 18.67 0 0 1 0-26.18 17.43 17.43 0 0 1 12.89-5.47zm-26.85 0a3.71 3.71 0 0 1 3.66 3.67v29.78a3.46 3.46 0 0 1-1.09 2.57 3.66 3.66 0 0 1-6.24-2.57V211a3.71 3.71 0 0 1 3.67-3.67zm0-12a4.52 4.52 0 0 1 2.18.57 4.27 4.27 0 0 1 1.69 1.68 4.42 4.42 0 0 1 0 4.45 4.23 4.23 0 0 1-1.67 1.67 4.44 4.44 0 0 1-4.44 0 4.29 4.29 0 0 1-1.67-1.67 4.53 4.53 0 0 1-.59-2.21 4.62 4.62 0 0 1 .59-2.23 4.15 4.15 0 0 1 1.7-1.69 4.59 4.59 0 0 1 2.21-.6zm-43.07 12a17.48 17.48 0 0 1 12.9 5.46 18.69 18.69 0 0 1 0 26.18 18 18 0 0 1-25.79 0 18.67 18.67 0 0 1 0-26.18 17.43 17.43 0 0 1 12.89-5.47zm-27-12.09a3.66 3.66 0 0 1 3.63 3.67v41.86a3.6 3.6 0 0 1-3.63 3.62 3.63 3.63 0 0 1-2.6-1.05 3.52 3.52 0 0 1-1.05-2.57v-41.87a3.52 3.52 0 0 1 1.05-2.58 3.57 3.57 0 0 1 2.64-1.08zm-27 12.09a17.48 17.48 0 0 1 12.9 5.46 18.69 18.69 0 0 1 0 26.18 17.5 17.5 0 0 1-12.9 5.42A17.45 17.45 0 0 1 31.61 239a18.67 18.67 0 0 1 0-26.18 17.43 17.43 0 0 1 12.89-5.46zm-32.19 37.06a12.74 12.74 0 0 1-7.19-2.27 15.13 15.13 0 0 1-4.53-4.67 3.45 3.45 0 0 1-.43-2.73A3.56 3.56 0 0 1 4.48 232a3.52 3.52 0 0 1 2.26 1.64A7.89 7.89 0 0 0 9.07 236a5.68 5.68 0 0 0 3.19 1.11 4.56 4.56 0 0 0 3.16-1.11 3.33 3.33 0 0 0 1.28-2.64 2.65 2.65 0 0 0-1-2.27 17.24 17.24 0 0 0-4.49-1.69 22.33 22.33 0 0 1-6.86-2.88 9.36 9.36 0 0 1-3.89-8A10.44 10.44 0 0 1 4 210.59a11.68 11.68 0 0 1 8.28-3.23 12.07 12.07 0 0 1 6.44 1.81A11.06 11.06 0 0 1 23 214a3.64 3.64 0 0 1-4.56 5 3.58 3.58 0 0 1-2.06-1.91 4 4 0 0 0-1.58-1.75 5 5 0 0 0-2.54-.66 4.65 4.65 0 0 0-3.19 1.16 3.38 3.38 0 0 0-1.25 2.65 2.61 2.61 0 0 0 .88 2.2 18.73 18.73 0 0 0 4.51 1.67 22.64 22.64 0 0 1 6.9 2.89 9.51 9.51 0 0 1 3.89 8.08 10.46 10.46 0 0 1-3.44 7.88 11.7 11.7 0 0 1-8.3 3.22z" style="fill:#35393b"/><path d="M18.73 121c.55-4 3.45-8 7.46-9 2.25 1.69 4.52 3.35 6.85 4.92a123.1 123.1 0 0 0 11.17 6.63c6.21 3.29 8.14 5.24 15.56 4.09a220.52 220.52 0 0 1 33.78-2.56 216.75 216.75 0 0 1 42.3 4.07 166.26 166.26 0 0 1 36.68 11.6c.54 4.16-1 8.6-4.81 10.61a154.77 154.77 0 0 0-34.15-10.76 205.06 205.06 0 0 0-40-3.84 205.07 205.07 0 0 0-40 3.84 154.75 154.75 0 0 0-34.19 10.78c-4.74-2.06-6-5.7-4.83-10.6A152.8 152.8 0 0 1 34 133.44l2.56-.77-2.3-1.35A161.68 161.68 0 0 1 18.73 121" style="fill:#c18e2e;fill-rule:evenodd"/><path class="cls-8" d="M18.73 121.64a11.8 11.8 0 0 1 2.07-5.14c7.25 5.53 14.81 11 22.85 15.09l-7.09 1.76-2.3-1.35a161.63 161.63 0 0 1-15.53-10.35M171.32 147.77a8.68 8.68 0 0 1-3.61 3.58 154.79 154.79 0 0 0-34.15-10.76 205.09 205.09 0 0 0-40-3.84 205.1 205.1 0 0 0-40 3.84 154.76 154.76 0 0 0-34.19 10.78 8.69 8.69 0 0 1-4.22-3.44c18-9.43 46.35-15.52 78.25-15.52 31.72 0 59.94 6 78 15.36"/></svg>