<?xml version="1.0" encoding="utf-8"?>
<!-- Generator: Adobe Illustrator 26.5.0, SVG Export Plug-In . SVG Version: 6.00 Build 0)  -->
<svg version="1.1" id="Layer_1" xmlns="http://www.w3.org/2000/svg" xmlns:xlink="http://www.w3.org/1999/xlink" x="0px" y="0px"
	 viewBox="0 0 209.4 73.9" style="enable-background:new 0 0 209.4 73.9;" xml:space="preserve">
<style type="text/css">
	.st0{fill:#158BC2;}
	.st1{fill:#35393B;}
	.st2{opacity:0.3;fill-rule:evenodd;clip-rule:evenodd;fill:#003C6A;}
	.st3{fill-rule:evenodd;clip-rule:evenodd;fill:#158BC2;}
	.st4{fill-rule:evenodd;clip-rule:evenodd;fill:#FFFFFF;}
	.st5{fill-rule:evenodd;clip-rule:evenodd;fill:#289BCD;}
	.st6{fill-rule:evenodd;clip-rule:evenodd;fill:#EEF7F8;}
	.st7{fill-rule:evenodd;clip-rule:evenodd;fill:#975A1F;}
	.st8{fill-rule:evenodd;clip-rule:evenodd;fill:#3B3C3A;}
	.st9{fill:#222222;}
	.st10{fill-rule:evenodd;clip-rule:evenodd;fill:#F4FAFB;}
	.st11{fill-rule:evenodd;clip-rule:evenodd;fill:#173D69;}
	.st12{fill-rule:evenodd;clip-rule:evenodd;fill:#DBECEF;}
	.st13{fill:#FFFFFF;}
</style>
<g>
	<g>
		<g>
			<g>
				<path class="st0" d="M99.3,66.1h-8.2l-1.3,3.3h-3.3l6.8-17.3h3.8l6.8,17.3h-3.3L99.3,66.1z M92,63.4h6.5l-3.2-8.7L92,63.4z"/>
				<path class="st0" d="M104.1,60.8c0-5.3,4-8.9,8.9-8.9c3.6,0,5.8,1.8,7.1,3.9l-2.6,1.3c-0.8-1.4-2.5-2.5-4.5-2.5
					c-3.3,0-5.8,2.6-5.8,6.2c0,3.6,2.5,6.2,5.8,6.2c2,0,3.7-1.1,4.5-2.5l2.6,1.3c-1.3,2.1-3.4,3.9-7.1,3.9
					C108.1,69.7,104.1,66.1,104.1,60.8z"/>
				<path class="st0" d="M133.4,66.1h-8.2l-1.3,3.3h-3.3l6.8-17.3h3.8l6.8,17.3h-3.3L133.4,66.1z M126.1,63.4h6.5l-3.2-8.7
					L126.1,63.4z"/>
				<path class="st0" d="M139.9,52.1h6.4c5.4,0,9,3.6,9,8.6s-3.7,8.6-9,8.6h-6.4V52.1z M146.3,66.7c3.8,0,5.9-2.7,5.9-6
					c0-3.3-2.1-6-5.9-6h-3.4v11.9H146.3z"/>
				<path class="st0" d="M158.2,52.1h11.8v2.7h-8.8v4.5h8.6v2.7h-8.6v4.8h8.8v2.7h-11.8V52.1z"/>
				<path class="st0" d="M188.1,56.3l-5.3,13.1h-1.3l-5.3-13.1v13.1h-3V52.1h4.3l4.7,11.6l4.7-11.6h4.3v17.3h-3V56.3z"/>
				<path class="st0" d="M199.7,62.2L193,52.1h3.5l4.8,7.4l4.7-7.4h3.5l-6.7,10.1v7.2h-3V62.2z"/>
			</g>
			<path class="st1" d="M179.7,8.6c0.5,0,1,0.1,1.4,0.4c0.5,0.3,0.8,0.6,1.1,1.1c0.3,0.5,0.4,0.9,0.4,1.5c0,0.5-0.1,1-0.4,1.5
				c-0.3,0.5-0.6,0.8-1.1,1.1c-0.5,0.3-0.9,0.4-1.5,0.4c-0.5,0-1-0.1-1.5-0.4c-0.5-0.3-0.8-0.6-1.1-1.1c-0.2-0.5-0.4-0.9-0.4-1.5
				c0-0.5,0.1-1,0.4-1.5c0.3-0.5,0.6-0.8,1.1-1.1C178.7,8.7,179.2,8.6,179.7,8.6z M197.4,36.1c2,0,3.7-0.7,5.1-2.2
				c1.4-1.5,2.1-3.2,2.1-5.2c0-2-0.7-3.8-2.1-5.2c-1.4-1.4-3.1-2.1-5.1-2.1c-2,0-3.7,0.7-5.1,2.1c-1.4,1.5-2.1,3.2-2.1,5.2
				c0,2,0.7,3.8,2.1,5.2C193.7,35.4,195.4,36.1,197.4,36.1 M151.4,36.1c2,0,3.7-0.7,5.1-2.2c1.4-1.5,2.1-3.2,2.1-5.2
				c0-2-0.7-3.8-2.1-5.2c-1.4-1.4-3.1-2.1-5.1-2.1c-2,0-3.7,0.7-5.1,2.1c-1.4,1.5-2.1,3.2-2.1,5.2c0,2,0.7,3.8,2.1,5.2
				C147.7,35.4,149.4,36.1,151.4,36.1z M115.9,36.1c2,0,3.7-0.7,5.1-2.2c1.4-1.5,2.1-3.2,2.1-5.2c0-2-0.7-3.8-2.1-5.2
				c-1.4-1.4-3.1-2.1-5.1-2.1c-2,0-3.7,0.7-5.1,2.1c-1.4,1.5-2.1,3.2-2.1,5.2c0,2,0.7,3.8,2.1,5.2C112.2,35.4,113.9,36.1,115.9,36.1
				z M169.7,35c0.5,0,1,0.1,1.4,0.4c0.5,0.3,0.8,0.6,1.1,1.1c0.3,0.5,0.4,0.9,0.4,1.5c0,0.5-0.1,1-0.4,1.5c-0.3,0.5-0.6,0.8-1.1,1.1
				c-0.5,0.3-0.9,0.4-1.5,0.4c-0.5,0-1-0.1-1.5-0.4c-0.5-0.3-0.8-0.6-1.1-1.1c-0.2-0.4-0.4-0.9-0.4-1.5c0-0.5,0.1-1,0.4-1.5
				c0.3-0.5,0.6-0.9,1.1-1.1C168.7,35.1,169.2,35,169.7,35z M197.4,16.5c3.3,0,6.2,1.2,8.5,3.6c2.3,2.4,3.5,5.3,3.5,8.6
				c0,3.3-1.2,6.2-3.5,8.6c-2.3,2.4-5.2,3.6-8.5,3.6c-3.3,0-6.1-1.2-8.5-3.6c-2.3-2.4-3.5-5.3-3.5-8.6c0-3.4,1.2-6.2,3.5-8.6
				C191.2,17.7,194,16.5,197.4,16.5z M179.7,16.5c0.7,0,1.2,0.2,1.7,0.7c0.5,0.5,0.7,1,0.7,1.7v19.6c0,0.7-0.2,1.2-0.7,1.7
				c-0.5,0.5-1,0.7-1.7,0.7c-0.7,0-1.2-0.2-1.7-0.7c-0.5-0.5-0.7-1-0.7-1.7V18.9c0-0.7,0.2-1.2,0.7-1.7
				C178.5,16.7,179,16.5,179.7,16.5z M151.4,16.5c3.3,0,6.1,1.2,8.5,3.6c2.3,2.4,3.5,5.3,3.5,8.6c0,3.3-1.2,6.2-3.5,8.6
				c-2.3,2.4-5.2,3.6-8.5,3.6c-3.3,0-6.1-1.2-8.5-3.6c-2.3-2.4-3.5-5.3-3.5-8.6c0-3.4,1.2-6.2,3.5-8.6
				C145.2,17.7,148.1,16.5,151.4,16.5z M115.9,16.5c3.3,0,6.1,1.2,8.5,3.6c2.3,2.4,3.5,5.3,3.5,8.6c0,3.3-1.2,6.2-3.5,8.6
				c-2.3,2.4-5.2,3.6-8.5,3.6c-3.3,0-6.1-1.2-8.5-3.6c-2.3-2.4-3.5-5.3-3.5-8.6c0-3.4,1.2-6.2,3.5-8.6
				C109.8,17.7,112.6,16.5,115.9,16.5z M133.7,8.6c0.7,0,1.2,0.2,1.7,0.7c0.5,0.5,0.7,1,0.7,1.7v27.5c0,0.7-0.2,1.2-0.7,1.7
				c-0.5,0.5-1,0.7-1.7,0.7c-0.7,0-1.2-0.2-1.7-0.7c-0.5-0.5-0.7-1-0.7-1.7V11c0-0.7,0.2-1.2,0.7-1.7C132.4,8.8,133,8.6,133.7,8.6z
				 M94.7,40.9c-1.7,0-3.3-0.5-4.7-1.5c-1.2-0.8-2.2-1.8-3-3.1c-0.3-0.6-0.4-1.2-0.3-1.8c0.1-0.6,0.5-1.1,1.1-1.5
				c0.6-0.3,1.2-0.4,1.8-0.3c0.6,0.2,1.1,0.5,1.5,1.1c0.4,0.6,0.9,1.1,1.5,1.5c0.6,0.4,1.3,0.7,2.1,0.7c0.8,0,1.5-0.2,2.1-0.8
				c0.5-0.5,0.8-1,0.8-1.7c0-0.6-0.1-1.1-0.6-1.5c-0.6-0.5-2.2-0.9-3-1.1c-1.5-0.4-3.3-1-4.5-1.9C87.8,27.8,87,26,87,23.8
				c0-2,0.8-3.8,2.3-5.2c1.5-1.4,3.4-2.1,5.4-2.1c1.5,0,2.9,0.4,4.2,1.2c1.3,0.8,2.2,1.8,2.8,3.2c0.3,0.6,0.3,1.2,0.1,1.8
				c-0.2,0.6-0.7,1.1-1.3,1.3c-0.6,0.3-1.2,0.3-1.8,0.1c-0.6-0.2-1.1-0.7-1.4-1.3c-0.2-0.5-0.6-0.9-1-1.1c-0.5-0.3-1.1-0.4-1.7-0.4
				c-0.8,0-1.5,0.2-2.1,0.8c-0.5,0.5-0.8,1-0.8,1.7c0,0.6,0.1,1.1,0.6,1.4c0.6,0.5,2.2,0.9,3,1.1c1.5,0.4,3.3,1,4.5,1.9
				c1.8,1.3,2.6,3.2,2.6,5.3c0,2-0.8,3.8-2.3,5.2C98.7,40.2,96.8,40.9,94.7,40.9z"/>
		</g>
	</g>
	<g>
		<g>
			<path class="st2" d="M38.5,62.8c11.4,0,20.6,2.5,20.6,5.5c0,3.1-9.2,5.5-20.6,5.5c-11.4,0-20.6-2.5-20.6-5.5
				C17.9,65.3,27.1,62.8,38.5,62.8"/>
			<path class="st3" d="M22.6,20.5c2.2,0.9,3.6,2,5.3,3.8l-2.4,1.8c-0.6-0.7-5.2-0.4-4.6-0.9c1.4-1.1,0.5-2-0.7-2.5
				c-2.3-1.4-3,4.8-8.9,3c-3.9-1.2-5.7-4.9-4.5-8.3c1.2-3.5,5.4-5.2,9.3-4c2.4,0.8,3.5,2.6,3.7,4.7C19.9,20.2,20.1,19.5,22.6,20.5"
				/>
			<path class="st3" d="M56.7,43.6c-1.2-1.8,4.9-8,8.4-12.7c3.5-4.7,6.4-4,7.9-2.7c1.5,1.3,1.7,5-1.8,8.5
				C67.8,40.2,57.9,45.4,56.7,43.6"/>
			<path class="st3" d="M28,69.4c5.5,0,6.6-3.6,10.2-3.6c3.7,0,5.2,3.6,10.6,3.6c8.6,0,14.2-18.5,14.2-28.6c0-13-11-21.7-24.6-21.7
				c-13.6,0-24.6,8.7-24.6,21.7C13.9,56.1,20.5,69.4,28,69.4"/>
			<path class="st4" d="M63.9,35.4c-0.4-0.8,1.5-1.8,3.2-4.1c1.7-2.3,3.1-2.7,3.5-1.9c0.4,0.8-0.3,2.4-2.1,3.8
				C66.8,34.8,64.3,36.2,63.9,35.4"/>
			<path class="st4" d="M14.9,14.1c1.5,0,2.7,1.2,2.7,2.7c0,2.7-5.3,2.8-5.3-0.4C12.2,14.9,13.4,14.1,14.9,14.1"/>
			<path class="st3" d="M20.4,40.7c0.7,2-6.9,6.4-11.6,10c-4.7,3.6-7.2,2.1-8.4,0.4c-1.1-1.6-0.3-5.2,4-7.7
				C8.7,41,19.7,38.6,20.4,40.7"/>
			<path class="st4" d="M3.3,48.6c0.3,0.4,0.3,1.1-0.1,1.5c-0.4,0.4-1,0.5-1.3,0.1c-0.3-0.4-0.3-1.1,0.1-1.5
				C2.3,48.2,2.9,48.2,3.3,48.6 M12,42.9c0.6,0.6-2,0.2-6,3.5c-1.4,1.2-1.9,2-2.6,1.5c-0.3-0.2-0.9-0.9,1.1-2.6
				C6.5,43.7,11.3,42.2,12,42.9z"/>
			<path class="st5" d="M39.5,20c12.1,0,21.9,9.8,21.9,21.9c0,22-43.7,23.2-43.7-3.2C17.8,26.7,27.4,20,39.5,20"/>
			<path class="st6" d="M58.2,33.4c0.5-0.1,1,0.3,1.2,0.9c0.2,0.6-0.1,1.1-0.6,1.2c-0.5,0.1-1-0.3-1.2-0.9
				C57.5,34,57.8,33.4,58.2,33.4 M38.8,26.6c-4.3,0.9-5.6-3.3-0.2-4.6c6.8-1.6,16.4,2.8,19.3,8.9c0.8,1.6-0.4,2.2-1.7,0.6
				C52.6,27,46,25.2,38.8,26.6z"/>
		</g>
		<polygon class="st7" points="64.6,48.6 67.8,26.2 70.6,48.6 		"/>
		<path class="st8" d="M67.4,22.6c-0.4,0.1-0.7,0.5-0.7,1c0,0.6,0.4,1,0.9,1c0.5,0,0.9-0.5,0.9-1c0-0.4-0.3-0.8-0.6-1v-1.7h-0.6
			V22.6z"/>
		<path class="st7" d="M68.4,24.2L68.4,24.2c-0.2,0.2-0.4,0.4-0.7,0.4c-0.3,0-0.5-0.1-0.7-0.4v2.2h0.8l0-0.3l0,0.3h0.5V24.2z"/>
		<path class="st1" d="M45.1,9.6c0.2,0,0.3,0.1,0.5,0.1c0,0,0,0,0,0c0.2,0,0.3,0.1,0.5,0.1c0,0,0,0,0,0c0.2,0,0.3,0.1,0.5,0.1
			c0,0,0,0,0,0c0.2,0,0.3,0.1,0.5,0.1c0,0,0,0,0.1,0c0.1,0,0.3,0.1,0.4,0.1c0,0,0,0,0.1,0c0.1,0,0.3,0.1,0.4,0.1c0,0,0,0,0.1,0
			c0.1,0,0.3,0.1,0.4,0.1c0,0,0.1,0,0.1,0c0.1,0,0.3,0.1,0.4,0.1c0,0,0.1,0,0.1,0c0.1,0,0.3,0.1,0.4,0.1c0,0,0.1,0,0.1,0
			c0.1,0,0.3,0.1,0.4,0.1c0,0,0.1,0,0.1,0c0.1,0.1,0.3,0.1,0.4,0.2c0,0,0.1,0,0.1,0c0.1,0.1,0.2,0.1,0.4,0.2c0,0,0.1,0,0.1,0.1
			c0.1,0.1,0.2,0.1,0.4,0.2c0,0,0.1,0,0.1,0.1c0.1,0.1,0.2,0.1,0.4,0.2c0,0,0.1,0,0.1,0.1c0.1,0.1,0.2,0.1,0.3,0.2
			c0,0,0.1,0,0.1,0.1c0.1,0.1,0.2,0.1,0.3,0.2c0.1,0,0.1,0.1,0.2,0.1c0.1,0.1,0.2,0.1,0.3,0.2c0.1,0,0.1,0.1,0.2,0.1
			c0.1,0.1,0.2,0.1,0.3,0.2c0.1,0,0.1,0.1,0.2,0.1c0.1,0.1,0.2,0.1,0.3,0.2c0.1,0,0.1,0.1,0.2,0.1c0.1,0.1,0.2,0.1,0.3,0.2
			c0.1,0,0.1,0.1,0.2,0.1c0.1,0.1,0.2,0.1,0.3,0.2c0.1,0,0.1,0.1,0.2,0.1c0.1,0.1,0.2,0.1,0.3,0.2c0.1,0,0.1,0.1,0.2,0.1
			c0.1,0.1,0.2,0.1,0.3,0.2c0.1,0,0.1,0.1,0.2,0.1c0.1,0.1,0.2,0.1,0.3,0.2c0.1,0,0.1,0.1,0.2,0.1c0.1,0.1,0.2,0.1,0.3,0.2
			c0.1,0.1,0.1,0.1,0.2,0.2c0.1,0.1,0.2,0.1,0.3,0.2c0.1,0.1,0.2,0.1,0.2,0.2c0.1,0.1,0.2,0.1,0.3,0.2c0.1,0.1,0.2,0.1,0.2,0.2
			c0.1,0.1,0.2,0.1,0.2,0.2c0.1,0.1,0.2,0.1,0.3,0.2c0.1,0.1,0.2,0.1,0.2,0.2c0.1,0.1,0.2,0.1,0.3,0.2c0.1,0.1,0.1,0.1,0.2,0.2
			c0.1,0.1,0.2,0.2,0.3,0.2c0.1,0,0.1,0.1,0.2,0.1c0.2,0.1,0.3,0.3,0.5,0.4l-1.1,5.9L58.7,28c-5-4.3-11.4-0.3-16.8-1.4l0,0L45.1,9.6
			C45.1,9.6,45.1,9.6,45.1,9.6z"/>
		<path class="st9" d="M28.1,11.3c0.1,0,0.1,0,0.2-0.1c0.1,0,0.3-0.1,0.4-0.1c0.1,0,0.1,0,0.2-0.1c0.1,0,0.2-0.1,0.3-0.1
			c0.1,0,0.1,0,0.2-0.1c0.1,0,0.2-0.1,0.3-0.1c0.1,0,0.1,0,0.2-0.1c0.1,0,0.2-0.1,0.3-0.1c0.1,0,0.1,0,0.2-0.1
			c0.1,0,0.2-0.1,0.3-0.1c0.1,0,0.1,0,0.2-0.1c0.1,0,0.2-0.1,0.3-0.1c0.1,0,0.1,0,0.2-0.1c0.1,0,0.2-0.1,0.4-0.1c0.1,0,0.1,0,0.2,0
			c0.1,0,0.2-0.1,0.4-0.1c0.1,0,0.1,0,0.2,0c0.1,0,0.2-0.1,0.4-0.1c0.1,0,0.1,0,0.2,0c0.1,0,0.2-0.1,0.4-0.1c0.1,0,0.1,0,0.2,0
			c0.1,0,0.2,0,0.4-0.1c0.1,0,0.1,0,0.2,0c0.1,0,0.3,0,0.4-0.1c0.1,0,0.1,0,0.2,0c0.1,0,0.3,0,0.4-0.1c0.1,0,0.1,0,0.2,0
			c0.1,0,0.3,0,0.4-0.1c0,0,0.1,0,0.1,0c0.1,0,0.3,0,0.4,0c0,0,0.1,0,0.1,0c0.1,0,0.3,0,0.4,0c0,0,0.1,0,0.1,0c0.1,0,0.3,0,0.4,0
			c0,0,0.1,0,0.1,0c0.1,0,0.3,0,0.4,0c0,0,0.1,0,0.1,0c0.1,0,0.3,0,0.4,0c0,0,0.1,0,0.1,0c0.1,0,0.3,0,0.4,0c0,0,0.1,0,0.1,0
			c0.1,0,0.3,0,0.4,0c0,0,0.1,0,0.1,0c0.2,0,0.3,0,0.4,0c0,0,0.1,0,0.1,0c0.2,0,0.3,0,0.5,0c0,0,0,0,0.1,0c0.2,0,0.3,0,0.5,0
			c0,0,0,0,0.1,0c0.2,0,0.3,0,0.5,0c0,0,0,0,0.1,0c0.2,0,0.3,0,0.5,0c0,0,0,0,0,0c0.2,0,0.3,0,0.5,0.1c0,0,0,0,0,0
			c0.2,0,0.3,0,0.5,0.1c0,0,0,0,0,0c0.2,0,0.3,0,0.5,0.1c0,0,0,0,0,0c0.2,0,0.3,0.1,0.5,0.1c0,0,0,0,0,0c0.2,0,0.3,0.1,0.5,0.1
			c0,0,0,0,0,0l-3.1,17.1c-5.6-1.1-10.3-7.1-16.3-4.7l1-5.2l1-5.2C27.8,11.5,27.9,11.4,28.1,11.3z"/>
		<path d="M46.8,0l29.4,19.4l-16.6,4l1.1-5.9c-0.2-0.1-0.3-0.3-0.5-0.4c-0.1,0-0.1-0.1-0.2-0.1c-0.1-0.1-0.2-0.2-0.3-0.2
			c-0.1-0.1-0.1-0.1-0.2-0.2c-0.1-0.1-0.2-0.1-0.3-0.2c-0.1-0.1-0.2-0.1-0.2-0.2c-0.1-0.1-0.2-0.1-0.3-0.2c-0.1-0.1-0.2-0.1-0.2-0.2
			c-0.1-0.1-0.2-0.1-0.2-0.2c-0.1-0.1-0.2-0.1-0.3-0.2c-0.1-0.1-0.2-0.1-0.2-0.2c-0.1-0.1-0.2-0.1-0.3-0.2c-0.1-0.1-0.1-0.1-0.2-0.2
			c-0.1-0.1-0.2-0.1-0.3-0.2c-0.1,0-0.1-0.1-0.2-0.1c-0.1-0.1-0.2-0.1-0.3-0.2c-0.1,0-0.1-0.1-0.2-0.1c-0.1-0.1-0.2-0.1-0.3-0.2
			c-0.1,0-0.1-0.1-0.2-0.1c-0.1-0.1-0.2-0.1-0.3-0.2c-0.1,0-0.1-0.1-0.2-0.1c-0.1-0.1-0.2-0.1-0.3-0.2c-0.1,0-0.1-0.1-0.2-0.1
			c-0.1-0.1-0.2-0.1-0.3-0.2c-0.1,0-0.1-0.1-0.2-0.1c-0.1-0.1-0.2-0.1-0.3-0.2c-0.1,0-0.1-0.1-0.2-0.1c-0.1-0.1-0.2-0.1-0.3-0.2
			c-0.1,0-0.1-0.1-0.2-0.1c-0.1-0.1-0.2-0.1-0.3-0.2c-0.1,0-0.1-0.1-0.2-0.1c-0.1-0.1-0.2-0.1-0.3-0.2c0,0-0.1,0-0.1-0.1
			c-0.1-0.1-0.2-0.1-0.3-0.2c0,0-0.1,0-0.1-0.1c-0.1-0.1-0.2-0.1-0.4-0.2c0,0-0.1,0-0.1-0.1c-0.1-0.1-0.2-0.1-0.4-0.2
			c0,0-0.1,0-0.1-0.1c-0.1-0.1-0.2-0.1-0.4-0.2c0,0-0.1,0-0.1,0c-0.1-0.1-0.3-0.1-0.4-0.2c0,0-0.1,0-0.1,0c-0.1-0.1-0.3-0.1-0.4-0.1
			c0,0-0.1,0-0.1,0c-0.1,0-0.3-0.1-0.4-0.1c0,0-0.1,0-0.1,0c-0.1,0-0.3-0.1-0.4-0.1c0,0-0.1,0-0.1,0c-0.1,0-0.3-0.1-0.4-0.1
			c0,0,0,0-0.1,0c-0.1,0-0.3-0.1-0.4-0.1c0,0,0,0-0.1,0c-0.1,0-0.3-0.1-0.4-0.1c0,0,0,0-0.1,0c-0.2,0-0.3-0.1-0.5-0.1c0,0,0,0,0,0
			c-0.2,0-0.3-0.1-0.5-0.1c0,0,0,0,0,0c-0.2,0-0.3-0.1-0.5-0.1c0,0,0,0,0,0c-0.2,0-0.3-0.1-0.5-0.1c0,0,0,0,0,0c0,0,0,0,0,0
			c-0.2,0-0.3-0.1-0.5-0.1c0,0,0,0,0,0c-0.2,0-0.3-0.1-0.5-0.1c0,0,0,0,0,0c-0.2,0-0.3-0.1-0.5-0.1c0,0,0,0,0,0
			c-0.2,0-0.3,0-0.5-0.1c0,0,0,0,0,0c-0.2,0-0.3,0-0.5-0.1c0,0,0,0,0,0c-0.2,0-0.3,0-0.5,0c0,0,0,0-0.1,0c-0.2,0-0.3,0-0.5,0
			c0,0,0,0-0.1,0c-0.2,0-0.3,0-0.5,0c0,0,0,0-0.1,0c-0.2,0-0.3,0-0.5,0c0,0-0.1,0-0.1,0c-0.1,0-0.3,0-0.4,0c0,0-0.1,0-0.1,0
			c-0.1,0-0.3,0-0.4,0c0,0-0.1,0-0.1,0c-0.1,0-0.3,0-0.4,0c0,0-0.1,0-0.1,0c-0.1,0-0.3,0-0.4,0c0,0-0.1,0-0.1,0c-0.1,0-0.3,0-0.4,0
			c0,0-0.1,0-0.1,0c-0.1,0-0.3,0-0.4,0c0,0-0.1,0-0.1,0c-0.1,0-0.3,0-0.4,0c0,0-0.1,0-0.1,0c-0.1,0-0.3,0-0.4,0c0,0-0.1,0-0.1,0
			c-0.1,0-0.3,0-0.4,0.1c-0.1,0-0.1,0-0.2,0c-0.1,0-0.3,0-0.4,0.1c-0.1,0-0.1,0-0.2,0c-0.1,0-0.3,0-0.4,0.1c-0.1,0-0.1,0-0.2,0
			c-0.1,0-0.2,0-0.4,0.1c-0.1,0-0.1,0-0.2,0c-0.1,0-0.2,0.1-0.4,0.1c-0.1,0-0.1,0-0.2,0c-0.1,0-0.2,0.1-0.4,0.1c-0.1,0-0.1,0-0.2,0
			c-0.1,0-0.2,0.1-0.4,0.1c-0.1,0-0.1,0-0.2,0c-0.1,0-0.2,0.1-0.4,0.1c-0.1,0-0.1,0-0.2,0.1c-0.1,0-0.2,0.1-0.3,0.1
			c-0.1,0-0.1,0-0.2,0.1c-0.1,0-0.2,0.1-0.3,0.1c-0.1,0-0.1,0-0.2,0.1c-0.1,0-0.2,0.1-0.3,0.1c-0.1,0-0.1,0-0.2,0.1
			c-0.1,0-0.2,0.1-0.3,0.1c-0.1,0-0.1,0-0.2,0.1c-0.1,0-0.2,0.1-0.3,0.1c-0.1,0-0.1,0-0.2,0.1c-0.1,0-0.3,0.1-0.4,0.1
			c-0.1,0-0.1,0-0.2,0.1c-0.2,0.1-0.4,0.1-0.6,0.2l-1,5.2l-14.1-9L46.8,0z"/>
		<g>
			<path class="st10" d="M56,31.7c0.4-0.1,0.9,0.3,1,0.8c0.2,0.5-0.1,1-0.5,1c-0.4,0.1-0.9-0.3-1-0.8C55.3,32.3,55.6,31.8,56,31.7"
				/>
			<path class="st11" d="M38.5,44.4c3.1,0,4.2-1.2,5.6,0.1c1.3,1.3-1.2,5.5-5.6,5.5c-4.4,0-6.9-4.2-5.6-5.5
				C34.2,43.2,35.4,44.4,38.5,44.4"/>
			<path class="st5" d="M41.5,48.6c-0.8,0.5-1.8,0.9-3,0.9c-1.2,0-2.2-0.4-3-0.9c0.1-1,1.7-1.5,3-0.9C39.8,47,41.4,47.6,41.5,48.6"
				/>
			<path class="st4" d="M38.5,44.9c2.1,0,3.3-0.5,4.3-0.5c0,0,0,0,0,0c0,0.7-0.6,1.4-1.2,1.4c-0.2,0-0.4-0.1-0.6-0.2
				c-0.2,0.4-0.7,0.8-1.2,0.8c-0.5,0-0.9-0.2-1.2-0.6c-0.2,0.4-0.7,0.6-1.2,0.6c-0.6,0-1-0.3-1.3-0.8c-0.2,0.1-0.4,0.2-0.7,0.2
				c-0.7,0-1.2-0.6-1.2-1.4c0,0,0,0,0-0.1C35.2,44.5,36.4,44.9,38.5,44.9"/>
			<path class="st11" d="M14.8,35.7c0.6,0.7-0.1,5.2,2.1,8.1c1.7,2.2,5.1,2.6,8.4,2.5c1.6-0.1,3.2-0.4,4.5-0.9
				c1.6-0.7,2.2-1.3,3.1-2.5c0.8-1.1,1.3-2.5,1.8-4c1.3-3.7,6.5-3.7,7.8,0c0.5,1.5,1,2.8,1.8,4c0.8,1.2,1.5,1.8,3.1,2.5
				c1.3,0.6,2.9,0.9,4.5,0.9c3.3,0.1,6.7-0.3,8.4-2.5c2.3-2.8,1.5-7.4,2.1-8.1c1.2-1.3,0.9-4.8-1.3-5.3c-2.8-0.6-6.8-0.8-9.6-0.7
				c-4.1,0.2-6.8,1.2-9.1,1.9c-2.1,0.6-6,0.4-8.2-0.2c-2.2-0.6-4.8-1.5-8.5-1.7c-2.8-0.2-6.8,0.1-9.6,0.7
				C13.8,30.9,13.5,34.4,14.8,35.7"/>
			<path class="st12" d="M55.4,31.9c2.3,0.3,3.6,0.6,4.2,2.9c0.6,2.1,0.1,4.6-0.6,6.3c-0.7,1.7-2.1,2.6-4.1,3
				c-1.9,0.4-4.5,0.3-6.2-0.4c-1.8-0.8-2.8-1.6-3.6-3.5c-0.6-1.3-1.6-4.1-1.1-5.9C44.6,32.1,52.8,31.6,55.4,31.9 M21.6,31.9
				c-2.3,0.3-3.6,0.6-4.2,2.9c-0.6,2.1-0.1,4.6,0.6,6.3c0.7,1.7,2.1,2.6,4.1,3c1.9,0.4,4.5,0.3,6.2-0.4c1.8-0.8,2.8-1.6,3.6-3.5
				c0.6-1.3,1.6-4.1,1.1-5.9C32.5,32.1,24.2,31.6,21.6,31.9z"/>
			<path class="st4" d="M55.4,33.2c2.3,0.3,3.6,0.6,4.2,2.9c0.1,0.5,0.2,1,0.2,1.5c-0.1,1.3-0.4,2.6-0.8,3.6c-0.7,1.7-2.1,2.6-4.1,3
				c-1.9,0.4-4.5,0.3-6.2-0.4c-1.8-0.8-2.8-1.6-3.6-3.5c-0.4-0.9-1.1-2.6-1.2-4.1c0-0.2,0.1-0.4,0.1-0.6
				C44.6,33.4,52.8,32.8,55.4,33.2 M17.2,37.6c0.1,1.3,0.4,2.6,0.8,3.6c0.7,1.7,2.1,2.6,4.1,3c1.9,0.4,4.5,0.3,6.2-0.4
				c1.8-0.8,2.8-1.6,3.6-3.5c0.4-0.9,1.1-2.6,1.2-4.1c0-0.2-0.1-0.4-0.1-0.6c-0.6-2.2-8.9-2.7-11.4-2.3c-2.3,0.3-3.6,0.6-4.2,2.9
				C17.3,36.6,17.2,37.1,17.2,37.6z"/>
			<path class="st11" d="M48.5,34c1.9,0,3.4,1.5,3.4,3.4c0,1.9-1.5,3.4-3.4,3.4c-1.9,0-3.4-1.5-3.4-3.4C45,35.6,46.6,34,48.5,34"/>
			<path class="st10" d="M50,35.1c0.5,0,1,0.4,1,1c0,0.5-0.4,1-1,1c-0.5,0-1-0.4-1-1C49.1,35.6,49.5,35.1,50,35.1"/>
			<path class="st11" d="M28.6,34c1.9,0,3.4,1.5,3.4,3.4c0,1.9-1.5,3.4-3.4,3.4c-1.9,0-3.4-1.5-3.4-3.4C25.1,35.6,26.7,34,28.6,34"
				/>
			<path class="st10" d="M30.1,35.1c0.5,0,1,0.4,1,1c0,0.5-0.4,1-1,1c-0.5,0-1-0.4-1-1C29.2,35.6,29.6,35.1,30.1,35.1"/>
		</g>
	</g>
</g>
</svg>
