<?xml version="1.0" encoding="UTF-8" standalone="no"?>
<!-- Created with Inkscape (http://www.inkscape.org/) -->

<svg
   xmlns:dc="http://purl.org/dc/elements/1.1/"
   xmlns:cc="http://creativecommons.org/ns#"
   xmlns:rdf="http://www.w3.org/1999/02/22-rdf-syntax-ns#"
   xmlns:svg="http://www.w3.org/2000/svg"
   xmlns="http://www.w3.org/2000/svg"
   xmlns:sodipodi="http://sodipodi.sourceforge.net/DTD/sodipodi-0.dtd"
   xmlns:inkscape="http://www.inkscape.org/namespaces/inkscape"
   version="1.1"
   id="svg29"
   xml:space="preserve"
   width="315.38266"
   height="288.492"
   viewBox="0 0 315.38266 288.492"
   sodipodi:docname="sqoop.svg"
   inkscape:version="0.92.3 (d244b95, 2018-08-02)"><metadata
     id="metadata35"><rdf:RDF><cc:Work
         rdf:about=""><dc:format>image/svg+xml</dc:format><dc:type
           rdf:resource="http://purl.org/dc/dcmitype/StillImage" /><dc:title></dc:title></cc:Work></rdf:RDF></metadata><defs
     id="defs33"><clipPath
       clipPathUnits="userSpaceOnUse"
       id="clipPath45"><path
         d="M 0,216.369 H 236.537 V 0 H 0 Z"
         id="path43"
         inkscape:connector-curvature="0" /></clipPath><clipPath
       clipPathUnits="userSpaceOnUse"
       id="clipPath65"><path
         d="M 87.0867,73.7771 H 189.8 V 68.7537 H 87.0867 Z"
         id="path63"
         inkscape:connector-curvature="0" /></clipPath></defs><sodipodi:namedview
     pagecolor="#ffffff"
     bordercolor="#666666"
     borderopacity="1"
     objecttolerance="10"
     gridtolerance="10"
     guidetolerance="10"
     inkscape:pageopacity="0"
     inkscape:pageshadow="2"
     inkscape:window-width="1920"
     inkscape:window-height="1018"
     id="namedview31"
     showgrid="false"
     inkscape:zoom="2.8527654"
     inkscape:cx="157.69133"
     inkscape:cy="144.246"
     inkscape:window-x="0"
     inkscape:window-y="34"
     inkscape:window-maximized="1"
     inkscape:current-layer="g41" /><g
     id="g37"
     inkscape:groupmode="layer"
     inkscape:label="Sqoop A colored"
     transform="matrix(1.3333333,0,0,-1.3333333,0,288.492)"><g
       id="g39"><g
         id="g41"
         clip-path="url(#clipPath45)"><g
           id="g47"
           transform="translate(96.3655,192.4788)"><path
             d="m 0,0 c 5.357,-2.228 8.847,-4.944 13.173,-9.448 l -5.954,-4.524 c -1.582,1.647 -13.027,1.041 -11.33,2.365 3.386,2.641 1.26,4.951 -1.802,6.224 -5.776,3.375 -7.571,-11.964 -22.244,-7.547 -9.812,2.954 -14.183,12.115 -11.183,20.72 3.001,8.604 13.343,13.04 23.101,9.908 5.855,-1.88 8.701,-6.541 9.129,-11.704 C -6.671,0.707 -6.145,2.555 0,0"
             style="fill:#5aacd8;fill-opacity:1;fill-rule:evenodd;stroke:none"
             id="path49"
             inkscape:connector-curvature="0" /></g><g
           id="g51"
           transform="translate(89.7654,150.2722)"><path
             d="m 0,0 c 3.304,-4.201 -10.824,-20.729 -18.805,-32.999 -7.98,-12.271 -15.227,-10.908 -19.22,-8.017 -3.993,2.892 -4.989,12.088 2.997,21.343 C -27.043,-10.418 -3.305,4.2 0,0"
             style="fill:#5aacd8;fill-opacity:1;fill-rule:evenodd;stroke:none"
             id="path53"
             inkscape:connector-curvature="0" /></g><g
           id="g55"
           transform="translate(181.9812,121.472)"><path
             d="m 0,0 c -3.304,4.201 10.825,20.728 18.806,32.999 7.98,12.27 15.226,10.908 19.22,8.015 3.993,-2.89 4.989,-12.087 -2.998,-21.342 C 27.044,10.417 3.305,-4.201 0,0"
             style="fill:#5aacd8;fill-opacity:1;fill-rule:evenodd;stroke:none"
             id="path57"
             inkscape:connector-curvature="0" /></g><g
           id="g59"><g
             id="g61" /><g
             id="g73"><g
               clip-path="url(#clipPath65)"
               id="g71"
               style="opacity:0.24000501"><g
                 transform="translate(138.4431,73.7771)"
                 id="g69"><path
                   d="m 0,0 c 28.363,0 51.357,-1.125 51.357,-2.512 0,-1.387 -22.994,-2.511 -51.357,-2.511 -28.363,0 -51.356,1.124 -51.356,2.511 C -51.356,-1.125 -28.363,0 0,0"
                   style="fill:#000000;fill-opacity:1;fill-rule:evenodd;stroke:none"
                   id="path67"
                   inkscape:connector-curvature="0" /></g></g></g></g><g
           id="g75"
           transform="translate(109.8543,70.7967)"><path
             d="M 0,0 C 13.755,0 16.37,8.969 25.464,9.042 34.558,9.113 38.507,0 51.774,0 c 21.45,0 35.413,46.055 35.413,71.264 0,32.297 -27.387,54.033 -61.167,54.033 -33.783,0 -61.168,-21.736 -61.168,-54.033 C -35.148,33.043 -18.827,0 0,0"
             style="fill:#5aacd8;fill-opacity:1;fill-rule:evenodd;stroke:none"
             id="path77"
             inkscape:connector-curvature="0" /></g><g
           id="g79"
           transform="translate(138.5056,194.5564)"><path
             d="m 0,0 c 30.125,0 54.547,-23.866 54.547,-53.306 0,-53.627 -108.752,-56.344 -108.752,7.739 C -54.205,-16.127 -30.125,0 0,0"
             style="fill:#64bbe4;fill-opacity:1;fill-rule:evenodd;stroke:none"
             id="path81"
             inkscape:connector-curvature="0" /></g><g
           id="g83"
           transform="translate(199.8523,145.3928)"><path
             d="m 0,0 c -1.022,1.971 3.732,4.46 8.058,10.004 4.326,5.543 7.834,6.538 8.857,4.568 C 17.937,12.6 15.996,8.737 11.565,5.113 7.136,1.488 1.021,-1.972 0,0"
             style="fill:#ffffff;fill-opacity:1;fill-rule:evenodd;stroke:none"
             id="path85"
             inkscape:connector-curvature="0" /></g><g
           id="g87"
           transform="translate(72.0154,138.0379)"><path
             d="m 0,0 c 2.046,-0.971 -4.607,-2.105 -11.104,-13.32 -2.319,-4.005 -2.875,-6.214 -4.91,-5.706 -0.873,0.218 -2.874,1.425 0.462,6.969 C -12.217,-6.511 -2.263,1.074 0,0 m -15.79,-20.573 c 1.089,-0.628 1.519,-2.245 0.961,-3.61 -0.557,-1.364 -1.892,-1.961 -2.981,-1.333 -1.088,0.63 -1.519,2.246 -0.961,3.61 0.558,1.365 1.892,1.962 2.981,1.333"
             style="fill:#ffffff;fill-opacity:1;fill-rule:evenodd;stroke:none"
             id="path89"
             inkscape:connector-curvature="0" /></g><g
           id="g91"
           transform="translate(135.9119,133.2566)"><path
             d="m 0,0 c 9.252,0 12.654,3.251 16.67,-0.335 4.016,-3.587 -3.6,-15.425 -16.75,-15.425 -13.152,0 -20.536,11.716 -16.75,15.425 C -13.045,3.374 -9.25,0 0,0"
             style="fill:#003c6a;fill-opacity:1;fill-rule:evenodd;stroke:none"
             id="path93"
             inkscape:connector-curvature="0" /></g><g
           id="g95"
           transform="translate(144.6912,121.5242)"><path
             d="m 0,0 c -2.378,-1.468 -5.393,-2.477 -8.882,-2.477 -3.609,0 -6.692,1.07 -9.087,2.61 0.203,2.805 5.223,4.316 8.982,2.458 C -5.043,4.449 -0.084,2.866 0,0"
             style="fill:#5aacd8;fill-opacity:1;fill-rule:evenodd;stroke:none"
             id="path97"
             inkscape:connector-curvature="0" /></g><g
           id="g99"
           transform="translate(136.7732,178.1116)"><path
             d="m 0,0 c -10.656,-2.184 -13.971,8.096 -0.494,11.349 16.881,4.076 40.848,-6.929 48.035,-22.08 1.915,-4.035 -1.079,-5.547 -4.346,-1.504 C 34.146,-1.04 17.879,3.664 0,0 m 48.309,-16.743 c 1.193,0.202 2.507,-0.775 2.939,-2.183 0.429,-1.409 -0.189,-2.716 -1.382,-2.918 -1.192,-0.202 -2.508,0.775 -2.938,2.183 -0.43,1.41 0.189,2.716 1.381,2.918"
             style="fill:#f4fafb;fill-opacity:1;fill-rule:evenodd;stroke:none"
             id="path101"
             inkscape:connector-curvature="0" /></g><g
           id="g103"
           transform="translate(77.1306,208.3357)"><path
             d="m 0,0 c 3.669,0 6.644,-2.975 6.644,-6.644 0,-6.684 -13.247,-7.022 -13.247,0.964 C -6.603,-2.011 -3.669,0 0,0"
             style="fill:#ffffff;fill-opacity:1;fill-rule:evenodd;stroke:none"
             id="path105"
             inkscape:connector-curvature="0" /></g><g
           id="g107"
           transform="translate(135.909,132.1902)"><path
             d="m 0,0 c 6.058,0 9.39,1.308 12.132,1.303 0.002,-0.046 0.003,-0.093 0.003,-0.141 0,-2.113 -1.587,-3.827 -3.542,-3.827 -0.633,0 -1.228,0.181 -1.742,0.495 -0.646,-1.257 -1.987,-2.121 -3.534,-2.121 -1.367,0 -2.573,0.675 -3.281,1.699 -0.709,-1.024 -1.912,-1.699 -3.281,-1.699 -1.576,0 -2.936,0.896 -3.568,2.19 -0.54,-0.357 -1.173,-0.564 -1.852,-0.564 -1.955,0 -3.54,1.714 -3.54,3.827 0,0.062 10e-4,0.123 0.003,0.184 C -9.463,1.288 -6.058,0 0,0"
             style="fill:#ffffff;fill-opacity:1;fill-rule:evenodd;stroke:none"
             id="path109"
             inkscape:connector-curvature="0" /></g><g
           id="g111"
           transform="translate(168.1111,148.7634)"><path
             d="m 0,0 c 5.357,0 9.701,-4.343 9.701,-9.702 0,-5.358 -4.344,-9.701 -9.701,-9.701 -5.359,0 -9.702,4.343 -9.702,9.701 C -9.702,-4.343 -5.359,0 0,0"
             style="fill:#003c6a;fill-opacity:1;fill-rule:evenodd;stroke:none"
             id="path113"
             inkscape:connector-curvature="0" /></g><g
           id="g115"
           transform="translate(172.5076,145.6541)"><path
             d="m 0,0 c 1.494,0 2.706,-1.211 2.706,-2.706 0,-1.495 -1.212,-2.706 -2.706,-2.706 -1.495,0 -2.707,1.211 -2.707,2.706 C -2.707,-1.211 -1.495,0 0,0"
             style="fill:#f4fafb;fill-opacity:1;fill-rule:evenodd;stroke:none"
             id="path117"
             inkscape:connector-curvature="0" /></g><g
           id="g119"
           transform="translate(103.6365,148.7634)"><path
             d="m 0,0 c 5.358,0 9.701,-4.343 9.701,-9.702 0,-5.358 -4.343,-9.701 -9.701,-9.701 -5.358,0 -9.702,4.343 -9.702,9.701 C -9.702,-4.343 -5.358,0 0,0"
             style="fill:#003c6a;fill-opacity:1;fill-rule:evenodd;stroke:none"
             id="path121"
             inkscape:connector-curvature="0" /></g><g
           id="g123"
           transform="translate(108.034,145.6541)"><path
             d="m 0,0 c 1.495,0 2.706,-1.211 2.706,-2.706 0,-1.495 -1.211,-2.706 -2.706,-2.706 -1.495,0 -2.707,1.211 -2.707,2.706 C -2.707,-1.211 -1.495,0 0,0"
             style="fill:#f4fafb;fill-opacity:1;fill-rule:evenodd;stroke:none"
             id="path125"
             inkscape:connector-curvature="0" /></g><g
           id="g127"
           transform="translate(94.8923,102.8494)"><path
             d="m 0,0 c 2.537,-0.776 4.438,2.949 4.737,5.38 0.3,2.431 -0.745,4.559 -2.332,4.755 -29.911,3.677 -59.822,7.355 -89.734,11.033 -1.587,0.195 -1.357,-5.49 -1.655,-7.921 C -79.958,16.197 -12.274,3.758 0,0"
             style="fill:#9f9f9f;fill-opacity:1;fill-rule:nonzero;stroke:none"
             id="path129"
             inkscape:connector-curvature="0" /></g><g
           id="g131"
           transform="translate(99.6673,108.6282)"><path
             d="m 0,0 c 0.145,2.26 -0.87,4.171 -2.37,4.356 l -83.361,10.25 -0.492,-4.004 z"
             style="fill:#cbcbcb;fill-opacity:1;fill-rule:nonzero;stroke:none"
             id="path133"
             inkscape:connector-curvature="0" /></g><g
           id="g135"
           transform="translate(22.284,127.4597)"><path
             d="m 0,0 c -11.723,1.441 -21.616,-0.566 -22.097,-4.484 -0.482,-3.918 8.63,-8.263 20.352,-9.704 11.722,-1.441 21.616,0.565 22.097,4.484 C 20.834,-5.786 11.722,-1.441 0,0"
             style="fill:#cbcbcb;fill-opacity:1;fill-rule:evenodd;stroke:none"
             id="path137"
             inkscape:connector-curvature="0" /></g><g
           id="g139"
           transform="translate(0.1868,122.9754)"><path
             d="m 0,0 c -1.456,-11.84 5.683,-23.016 18.521,-24.595 12.839,-1.579 22.376,6.753 23.928,19.375 z"
             style="fill:#cbcbcb;fill-opacity:1;fill-rule:evenodd;stroke:none"
             id="path141"
             inkscape:connector-curvature="0" /></g><g
           id="g143"
           transform="translate(40.6048,118.0056)"><path
             d="m 0,0 -38.276,4.706 c 0.003,-0.418 0.063,-0.861 0.191,-1.333 0.411,-1.515 1.481,-2.418 3.397,-3.658 1.979,-1.282 2.143,-3.025 2.306,-5.532 0.222,-3.402 1.642,-4.196 3.435,0.69 0.666,1.814 1.695,1.375 3.015,1.005 9.816,-2.754 22.528,-2.784 25.332,2.281 0.252,0.455 0.501,1.106 0.6,1.841"
             style="fill:#b7b7b7;fill-opacity:1;fill-rule:evenodd;stroke:none"
             id="path145"
             inkscape:connector-curvature="0" /></g><g
           id="g147"
           transform="translate(22.1067,126.0188)"><path
             d="m 0,0 c -10.294,1.266 -18.93,-0.072 -19.289,-2.988 -0.358,-2.917 7.696,-6.306 17.991,-7.572 10.294,-1.267 18.929,0.072 19.288,2.988 C 18.349,-4.656 10.294,-1.266 0,0"
             style="fill:#9f9f9f;fill-opacity:1;fill-rule:evenodd;stroke:none"
             id="path149"
             inkscape:connector-curvature="0" /></g><g
           id="g151"
           transform="translate(2.5193,122.9075)"><path
             d="m 0,0 c -0.716,2.442 0.684,4.044 2.471,5.391 2.334,1.758 1.797,2.467 2.789,5.934 1.513,5.288 9.118,8.553 16.508,7.726 C 28.349,18.313 33.181,15.31 35.86,6.633 36.795,3.605 35.534,1.547 36.912,0.244 38.751,-1.497 38.129,-3.752 37.485,-4.828 34.681,-9.52 21.97,-9.492 12.153,-6.941 10.833,-6.598 9.805,-6.191 9.139,-7.872 7.346,-12.397 5.926,-11.661 5.704,-8.511 5.54,-6.189 5.376,-4.575 3.397,-3.388 1.481,-2.239 0.411,-1.403 0,0"
             style="fill:#ffa4bb;fill-opacity:1;fill-rule:evenodd;stroke:none"
             id="path153"
             inkscape:connector-curvature="0" /></g><g
           id="g155"
           transform="translate(6.9851,130.9412)"><path
             d="m 0,0 c 0.218,0.78 0.359,1.771 0.794,3.291 1.514,5.288 9.119,8.554 16.508,7.727 6.581,-0.738 11.414,-3.743 14.093,-12.419 0.808,-2.621 -0.027,-4.515 0.627,-5.822 -1.376,-3.433 -3.51,-6.426 -7.928,-4.058 -3.727,1.996 -5.036,0.404 -7.843,1.1 -4.077,1.014 0.893,3.182 -8.673,3.838 C -1.251,-5.738 2.829,0.07 0,0"
             style="fill:#ffcae7;fill-opacity:1;fill-rule:evenodd;stroke:none"
             id="path157"
             inkscape:connector-curvature="0" /></g><g
           id="g159"
           transform="translate(30.9514,129.4422)"><path
             d="M 0,0 C 0.463,-2.981 4.529,-4.17 3.76,1.222 3.185,5.26 -1.588,9.661 -4.807,10.079 -11.142,10.9 -1.323,8.524 0,0"
             style="fill:#ffffff;fill-opacity:1;fill-rule:evenodd;stroke:none"
             id="path161"
             inkscape:connector-curvature="0" /></g><g
           id="g163"
           transform="translate(220.7586,137.0183)"><path
             d="m 0,0 -26.737,38.28 0.031,0.006 c -0.117,0.147 -0.194,0.304 -0.225,0.472 -0.459,2.457 8.726,6.232 20.516,8.431 11.791,2.201 21.72,1.993 22.178,-0.463 0.031,-0.169 0.016,-0.343 -0.041,-0.523 l 0.007,0.002 C 11.882,30.526 8.642,17.324 4.792,1.646 3.692,-2.826 2.63,-3.766 0,0"
             style="fill:#d9b356;fill-opacity:1;fill-rule:evenodd;stroke:none"
             id="path165"
             inkscape:connector-curvature="0" /></g><g
           id="g167"
           transform="translate(220.7586,137.0183)"><path
             d="m 0,0 -26.737,38.28 0.031,0.006 c -0.117,0.147 -0.194,0.304 -0.225,0.472 -0.35,1.872 4.901,4.51 12.637,6.633 -1.687,-3.456 1.632,-5.56 2.67,-11.232 1.118,-6.098 4.807,-9.948 7.131,-15.832 C -1.655,11.145 2.392,8.077 5.936,6.311 L 4.792,1.646 C 3.692,-2.826 2.63,-3.766 0,0"
             style="fill:#c39a50;fill-opacity:1;fill-rule:evenodd;stroke:none"
             id="path169"
             inkscape:connector-curvature="0" /></g><g
           id="g171"
           transform="translate(214.7146,182.7117)"><path
             d="M 0,0 C 10.092,1.883 18.592,1.706 18.982,-0.396 19.375,-2.5 11.512,-5.73 1.421,-7.613 -8.67,-9.496 -17.17,-9.318 -17.562,-7.216 -17.955,-5.113 -10.092,-1.883 0,0"
             style="fill:#a27033;fill-opacity:1;fill-rule:evenodd;stroke:none"
             id="path173"
             inkscape:connector-curvature="0" /></g><g
           id="g175"
           transform="translate(223.7752,168.7576)"><path
             d="M 0,0 C 0.078,0.382 0.453,0.626 0.834,0.547 1.215,0.468 1.46,0.093 1.381,-0.288 L -0.04,-7.036 2.768,-8.962 c 0.321,-0.22 0.402,-0.66 0.18,-0.979 -0.219,-0.32 -0.657,-0.401 -0.978,-0.181 l -2.325,1.594 -0.798,-3.791 2.801,-1.921 c 0.322,-0.219 0.405,-0.658 0.186,-0.98 -0.221,-0.322 -0.66,-0.405 -0.982,-0.185 l -2.321,1.591 -0.686,-3.267 3.069,-2.104 c 0.32,-0.22 0.404,-0.659 0.184,-0.981 -0.219,-0.32 -0.659,-0.404 -0.981,-0.184 l -2.758,1.89 c -0.153,-0.109 -0.349,-0.156 -0.548,-0.115 -0.383,0.08 -0.627,0.454 -0.547,0.835 l 0.006,0.028 -4.094,2.805 -0.188,-0.891 c -0.079,-0.382 -0.454,-0.626 -0.835,-0.547 -0.381,0.08 -0.626,0.454 -0.546,0.835 l 0.309,1.468 -2.717,1.861 c -0.321,0.22 -0.404,0.66 -0.185,0.981 0.22,0.322 0.66,0.404 0.982,0.184 l 2.234,-1.532 0.69,3.267 -7.247,4.967 c -0.321,0.219 -0.403,0.658 -0.183,0.98 0.219,0.321 0.657,0.404 0.98,0.184 l 6.762,-4.636 0.799,3.792 -2.978,2.042 c -0.321,0.22 -0.401,0.659 -0.182,0.979 0.222,0.32 0.66,0.401 0.981,0.18 l 2.494,-1.71 0.672,3.184 c 0.078,0.381 0.452,0.626 0.833,0.546 0.38,-0.079 0.627,-0.454 0.545,-0.834 l -0.791,-3.76 4.095,-2.806 z m -5.707,-4.858 -0.799,-3.792 4.093,-2.806 0.798,3.791 z m -1.113,-5.287 -0.69,-3.267 4.094,-2.806 0.687,3.268 z"
             style="fill:#a27033;fill-opacity:1;fill-rule:nonzero;stroke:none"
             id="path177"
             inkscape:connector-curvature="0" /></g><g
           id="g179"
           transform="translate(236.2449,184.9197)"><path
             d="m 0,0 c 0.583,2.755 -1.097,4.404 -3.185,5.738 -2.724,1.742 -2.191,2.571 -3.58,6.312 -2.121,5.707 -10.79,8.665 -18.875,7.124 -7.197,-1.372 -12.276,-5.098 -14.496,-14.902 -0.774,-3.419 0.791,-5.584 -0.617,-7.138 -1.883,-2.076 -1.004,-4.513 -0.203,-5.647 3.494,-4.939 17.519,-3.828 28.135,-0.179 1.427,0.489 2.702,-0.11 3.09,-2.073 1.095,-5.543 3.761,-3.555 4.16,0.888 0.23,2.565 0.38,3.668 2.463,5.146 C -1.091,-3.301 -0.334,-1.583 0,0"
             style="fill:#67defc;fill-opacity:1;fill-rule:evenodd;stroke:none"
             id="path181"
             inkscape:connector-curvature="0" /></g><g
           id="g183"
           transform="translate(230.6365,193.405)"><path
             d="m 0,0 c -0.309,0.843 -0.547,1.924 -1.158,3.564 -2.119,5.707 -10.788,8.666 -18.873,7.124 -7.198,-1.372 -12.277,-5.097 -14.496,-14.901 -0.67,-2.96 0.412,-4.978 -0.2,-6.477 1.813,-3.671 4.422,-6.793 9.094,-3.806 3.944,2.52 5.525,0.875 8.563,1.882 4.412,1.463 -1.256,3.434 9.246,4.97 C 1.867,-6.227 -3.129,-0.162 0,0"
             style="fill:#9ceaff;fill-opacity:1;fill-rule:evenodd;stroke:none"
             id="path185"
             inkscape:connector-curvature="0" /></g><g
           id="g187"
           transform="translate(194.4334,191.572)"><path
             d="m 0,0 c -1.401,2.076 -0.568,3.998 0.707,5.795 1.664,2.347 0.947,2.851 0.844,6.4 -0.16,5.411 5.996,10.748 13.178,12.18 6.392,1.274 11.822,-0.101 16.928,-7.439 1.781,-2.561 1.213,-4.867 2.895,-5.679 2.245,-1.082 2.337,-3.384 2.053,-4.586 C 35.377,1.432 23.445,-2.34 13.475,-2.88 12.134,-2.953 11.047,-2.878 10.924,-4.654 10.596,-9.434 8.41,-10.083 7.26,-7.194 6.414,-5.064 6.409,-2.685 4.199,-2.164 2.059,-1.658 0.805,-1.193 0,0"
             style="fill:#ffa4bb;fill-opacity:1;fill-rule:evenodd;stroke:none"
             id="path189"
             inkscape:connector-curvature="0" /></g><g
           id="g191"
           transform="translate(196.2224,200.4422)"><path
             d="m 0,0 c -0.029,0.797 -0.193,1.769 -0.238,3.325 -0.16,5.411 5.996,10.748 13.177,12.18 6.393,1.274 11.823,-0.101 16.929,-7.44 1.542,-2.215 1.324,-4.242 2.329,-5.272 -0.266,-3.631 -1.374,-7.077 -6.225,-6.177 -4.093,0.76 -4.845,-1.125 -7.687,-1.31 -4.126,-0.268 -0.112,3.251 -9.282,1.007 C 0.541,-5.757 2.633,0.911 0,0"
             style="fill:#ffcae7;fill-opacity:1;fill-rule:evenodd;stroke:none"
             id="path193"
             inkscape:connector-curvature="0" /></g><g
           id="g195"
           transform="translate(219.1521,206.197)"><path
             d="M 0,0 C 1.325,-2.659 5.494,-2.559 3.162,2.269 1.416,5.885 -4.376,8.588 -7.521,8.018 -13.709,6.896 -3.789,7.601 0,0"
             style="fill:#ffffff;fill-opacity:1;fill-rule:evenodd;stroke:none"
             id="path197"
             inkscape:connector-curvature="0" /></g><g
           id="g199"
           transform="translate(190.4744,31.5779)"><path
             d="m 0,0 c 0.396,-2.727 0.267,-5.265 -0.385,-7.615 -0.652,-2.351 -1.699,-4.425 -3.142,-6.222 -1.442,-1.799 -3.239,-3.28 -5.393,-4.445 -2.152,-1.166 -4.553,-1.927 -7.199,-2.282 -2.649,-0.356 -5.177,-0.277 -7.586,0.237 -2.41,0.514 -4.564,1.431 -6.459,2.756 -1.897,1.322 -3.478,3.022 -4.742,5.096 -0.905,1.486 -1.577,3.139 -2.017,4.958 l -0.028,-0.098 c -0.652,-2.351 -1.697,-4.425 -3.141,-6.222 -1.442,-1.799 -3.24,-3.28 -5.392,-4.445 -2.153,-1.166 -4.553,-1.927 -7.201,-2.282 -2.647,-0.356 -5.174,-0.277 -7.585,0.237 -2.411,0.514 -4.564,1.431 -6.459,2.756 -1.898,1.322 -3.478,3.022 -4.742,5.096 -1.264,2.074 -2.074,4.474 -2.429,7.201 -0.395,2.725 -0.267,5.264 0.384,7.614 0.653,2.351 1.699,4.436 3.142,6.253 1.441,1.817 3.239,3.309 5.392,4.474 2.154,1.165 4.554,1.927 7.201,2.282 2.647,0.355 5.166,0.277 7.556,-0.237 2.391,-0.514 4.534,-1.432 6.429,-2.756 1.898,-1.323 3.478,-3.032 4.741,-5.126 0.916,-1.515 1.604,-3.197 2.062,-5.043 l 0.042,0.153 c 0.652,2.351 1.699,4.436 3.14,6.253 1.444,1.817 3.241,3.309 5.395,4.474 2.152,1.165 4.553,1.927 7.199,2.282 2.647,0.355 5.166,0.277 7.557,-0.237 2.389,-0.514 4.534,-1.432 6.43,-2.756 C -5.334,11.033 -3.753,9.324 -2.49,7.23 -1.225,5.136 -0.396,2.726 0,0 m -24.891,-5.037 c 0.672,-1.541 1.739,-2.548 3.202,-3.023 1.46,-0.474 3.119,-0.316 4.976,0.475 1.818,0.789 3.072,1.866 3.764,3.229 0.691,1.364 0.72,2.815 0.09,4.356 -0.673,1.501 -1.74,2.499 -3.202,2.992 -1.461,0.494 -3.101,0.347 -4.918,-0.444 -1.857,-0.79 -3.13,-1.876 -3.822,-3.26 -0.691,-1.382 -0.722,-2.824 -0.09,-4.325 m -36.565,0 c 0.673,-1.541 1.739,-2.548 3.2,-3.023 1.463,-0.474 3.122,-0.316 4.979,0.475 1.817,0.789 3.071,1.866 3.762,3.229 0.692,1.364 0.722,2.815 0.089,4.356 -0.67,1.501 -1.738,2.499 -3.2,2.992 -1.462,0.494 -3.101,0.347 -4.919,-0.444 -1.855,-0.79 -3.131,-1.876 -3.822,-3.26 -0.692,-1.382 -0.721,-2.824 -0.089,-4.325"
             style="fill:#5aacd8;fill-opacity:1;fill-rule:nonzero;stroke:none"
             id="path201"
             inkscape:connector-curvature="0" /></g><g
           id="g203"
           transform="translate(164.9422,49.1643)"><path
             d="M 0,0 C 2.054,-1.471 3.267,-2.965 4.659,-5.301 L 1.688,-6.635 c -0.509,0.853 -5.421,1.72 -4.572,2.116 1.695,0.787 1.021,1.976 -0.152,2.816 -2.12,1.999 -4.177,-2.783 -9.967,0.532 -3.872,2.216 -5.037,4.985 -2.92,8.339 2.118,3.355 6.941,4.221 10.773,1.934 C -2.853,7.73 -2.103,5.473 -2.427,3.241 -2.761,0.955 -2.355,1.688 0,0"
             style="fill:#5aacd8;fill-opacity:1;fill-rule:evenodd;stroke:none"
             id="path205"
             inkscape:connector-curvature="0" /></g><g
           id="g207"
           transform="translate(102.9749,31.7942)"><path
             d="m 0,0 c -0.323,0.687 -0.778,1.263 -1.364,1.728 -0.586,0.465 -1.253,0.798 -2.001,1 C -4.113,2.93 -4.931,2.991 -5.82,2.911 -6.709,2.83 -7.599,2.567 -8.488,2.122 c -1.819,-0.849 -3.043,-2.031 -3.669,-3.547 -0.626,-1.516 -0.616,-2.961 0.031,-4.335 0.647,-1.334 1.749,-2.234 3.305,-2.698 1.555,-0.466 3.243,-0.273 5.062,0.575 1.86,0.89 3.113,2.092 3.759,3.608 0.647,1.516 0.647,2.941 0,4.275 m -1.035,-27.062 c 0.094,3.109 0.153,5.095 0.247,8.204 -1.131,-1.05 -2.415,-1.758 -3.85,-2.121 -1.435,-0.364 -2.779,-0.546 -4.032,-0.546 -2.506,0 -4.78,0.525 -6.822,1.577 -2.041,1.05 -3.8,2.434 -5.275,4.153 -1.475,1.718 -2.617,3.698 -3.426,5.942 -0.807,2.243 -1.213,4.577 -1.213,7.003 0,2.264 0.385,4.497 1.154,6.7 0.767,2.203 1.849,4.174 3.243,5.912 1.395,1.739 3.092,3.143 5.092,4.214 2.001,1.071 4.215,1.607 6.64,1.607 1.941,0 3.608,-0.334 5.003,-1.001 1.394,-0.666 2.739,-1.707 4.032,-3.123 0,4.092 0.561,4.074 4.226,3.758 2.304,-0.199 2.235,-0.194 4.539,-0.393 3.173,-0.275 3.838,-0.902 3.796,-3.851 -0.197,-13.757 -0.367,-25.684 -0.565,-39.441 -0.048,-3.37 -0.525,-3.507 -3.741,-3.234 -2.631,0.224 -3.512,0.298 -6.143,0.522 -2.98,0.253 -2.998,1.016 -2.905,4.118"
             style="fill:#5aacd8;fill-opacity:1;fill-rule:nonzero;stroke:none"
             id="path209"
             inkscape:connector-curvature="0" /></g><g
           id="g211"
           transform="translate(68.4138,41.3133)"><path
             d="m 0,0 c 1.253,-0.566 2.537,-1.213 3.851,-1.94 1.314,-0.727 2.505,-1.617 3.577,-2.668 1.071,-1.05 1.961,-2.314 2.667,-3.789 0.709,-1.476 1.102,-3.224 1.183,-5.246 0.121,-2.869 -0.343,-5.406 -1.394,-7.609 -1.051,-2.203 -2.537,-4.062 -4.457,-5.579 -1.921,-1.515 -4.215,-2.688 -6.882,-3.516 -2.668,-0.829 -5.538,-1.303 -8.61,-1.424 -1.414,-0.042 -2.87,0.03 -4.366,0.211 -1.495,0.183 -2.971,0.455 -4.425,0.819 -1.456,0.364 -2.871,0.799 -4.245,1.303 -0.531,0.196 -1.049,0.396 -1.556,0.599 -3.033,1.221 -1.801,2.484 -0.672,5.662 l 1.459,4.109 c 0.98,2.761 1.879,4.107 4.537,2.904 0.848,-0.383 0.901,-0.369 1.871,-0.691 0.97,-0.324 1.981,-0.607 3.031,-0.85 1.051,-0.242 2.082,-0.344 3.093,-0.303 1.495,0.081 2.759,0.344 3.789,0.788 1.03,0.445 1.527,1.193 1.486,2.243 -0.041,0.688 -0.395,1.213 -1.061,1.577 -0.667,0.364 -1.466,0.728 -2.395,1.092 -0.606,0.161 -1.405,0.384 -2.395,0.667 -0.99,0.283 -2.052,0.666 -3.184,1.152 -1.131,0.485 -2.273,1.071 -3.425,1.758 -1.153,0.687 -2.204,1.516 -3.154,2.486 -0.949,0.971 -1.738,2.092 -2.365,3.365 -0.626,1.274 -0.96,2.739 -1,4.397 -0.081,2.829 0.404,5.345 1.455,7.547 1.052,2.204 2.487,4.084 4.306,5.64 1.819,1.556 3.941,2.749 6.366,3.577 2.426,0.829 5.013,1.304 7.761,1.425 2.547,0.122 5.073,-0.01 7.579,-0.394 1.644,-0.251 3.22,-0.613 4.724,-1.082 2.735,-0.852 1.982,-2.113 1.317,-4.713 L 7.079,8.083 C 6.606,6.234 6.259,3.254 4.642,3.912 3.503,4.376 2.44,4.781 1.455,5.124 c -1.334,0.464 -2.89,0.818 -4.669,1.061 -0.525,0.081 -1.232,0.122 -2.121,0.122 -0.85,0 -1.688,-0.091 -2.517,-0.274 -0.829,-0.181 -1.546,-0.474 -2.152,-0.879 -0.606,-0.404 -0.93,-0.97 -0.971,-1.697 0,-0.324 0.152,-0.577 0.455,-0.759 0.304,-0.181 0.667,-0.323 1.092,-0.424 C -9.004,2.173 -8.569,2.092 -8.125,2.031 -7.68,1.971 -7.316,1.921 -7.033,1.88 -5.861,1.637 -4.941,1.435 -4.274,1.274 -3.607,1.112 -3.273,1.031 -3.273,1.031 -2.142,0.788 -1.051,0.445 0,0"
             style="fill:#5aacd8;fill-opacity:1;fill-rule:nonzero;stroke:none"
             id="path213"
             inkscape:connector-curvature="0" /></g><g
           id="g215"
           transform="translate(204.6541,31.7942)"><path
             d="m 0,0 c 0.322,0.687 0.777,1.263 1.363,1.728 0.586,0.465 1.253,0.798 2.002,1 C 4.113,2.93 4.931,2.991 5.82,2.911 6.711,2.83 7.6,2.567 8.488,2.122 10.307,1.273 11.529,0.091 12.156,-1.425 12.783,-2.941 12.773,-4.386 12.126,-5.76 11.48,-7.094 10.379,-7.994 8.821,-8.458 7.266,-8.924 5.578,-8.731 3.759,-7.883 1.9,-6.993 0.646,-5.791 0,-4.275 -0.647,-2.759 -0.647,-1.334 0,0 m 1.035,-27.062 c -0.094,3.109 -0.153,5.095 -0.247,8.204 1.131,-1.05 2.415,-1.758 3.85,-2.121 1.435,-0.364 2.78,-0.546 4.032,-0.546 2.507,0 4.78,0.525 6.82,1.577 2.043,1.05 3.802,2.434 5.278,4.153 1.474,1.718 2.615,3.698 3.423,5.942 0.809,2.243 1.213,4.577 1.213,7.003 0,2.264 -0.383,4.497 -1.15,6.7 -0.768,2.203 -1.851,4.174 -3.245,5.912 -1.395,1.739 -3.093,3.143 -5.093,4.214 -2.002,1.071 -4.213,1.607 -6.639,1.607 -1.941,0 -3.608,-0.334 -5.003,-1.001 -1.394,-0.666 -2.739,-1.707 -4.032,-3.123 0,4.092 -0.561,4.074 -4.224,3.758 -2.305,-0.199 -2.237,-0.194 -4.54,-0.393 -3.173,-0.275 -3.838,-0.902 -3.797,-3.851 0.198,-13.757 0.368,-25.684 0.565,-39.441 0.049,-3.37 0.525,-3.507 3.74,-3.234 2.632,0.224 3.512,0.298 6.145,0.522 2.978,0.253 2.998,1.016 2.904,4.118"
             style="fill:#5aacd8;fill-opacity:1;fill-rule:nonzero;stroke:none"
             id="path217"
             inkscape:connector-curvature="0" /></g><g
           id="g219"
           transform="translate(147.5164,52.1346)"><path
             d="m 0,0 c 0.687,1.389 0.263,1.597 -0.093,3.477 -0.541,2.866 2.284,6.226 5.985,7.593 3.295,1.218 6.3,0.946 9.636,-2.529 C 16.692,7.329 16.585,6.053 17.549,5.764 18.835,5.378 19.31,2.658 19.263,1.996 19.052,-0.894 15.069,-5.545 9.407,-5.797 8.687,-5.828 7.242,-5.944 6.981,-6.865 6.246,-9.442 6.026,-9.458 5.508,-9.295 4.72,-9.046 4.304,-6.221 3.155,-5.709 1.295,-4.88 -1.247,-2.518 0,0"
             style="fill:#ffa4bb;fill-opacity:1;fill-rule:evenodd;stroke:none"
             id="path221"
             inkscape:connector-curvature="0" /></g><g
           id="g223"
           transform="translate(147.8318,53.8621)"><path
             d="m 0,0 c -0.082,0.422 -0.252,0.924 -0.408,1.749 -0.541,2.867 2.284,6.227 5.984,7.594 3.295,1.218 6.301,0.945 9.637,-2.53 C 16.22,5.764 16.275,4.668 16.896,4.205 17.062,2.249 16.764,0.322 14.105,0.393 11.865,0.451 11.623,-0.615 10.127,-0.954 7.953,-1.445 9.792,0.766 5.104,-1.201 0.774,-3.018 1.324,0.708 0,0"
             style="fill:#ffcae7;fill-opacity:1;fill-rule:evenodd;stroke:none"
             id="path225"
             inkscape:connector-curvature="0" /></g><g
           id="g227"
           transform="translate(159.5466,58.8601)"><path
             d="M 0,0 C 0.931,-1.302 3.141,-0.897 1.492,1.475 0.257,3.251 -3.054,4.201 -4.678,3.632 -7.876,2.512 -2.656,3.725 0,0"
             style="fill:#ffffff;fill-opacity:1;fill-rule:evenodd;stroke:none"
             id="path229"
             inkscape:connector-curvature="0" /></g></g></g></g></svg>