<svg width="185" height="23" xmlns="http://www.w3.org/2000/svg"><path d="M.881.015.045 3.181h7.75L4.95 14.222l-2.09 8.145h5.073l2.091-8.145 2.843-11.041h7.723l.808-3.166H.881zm154.89.244c-.413 1.645-.792 2.929-1.17 4.032h-1.896l.613-.38c1.057-.665 1.578-1.007 1.589-1.055-.564-1.237-1.042-2.09-1.477-2.516-.013-.077-.818.4-2.37 1.38l-.53.325c.012.024.075.115.195.27.547.69 1.008 1.34 1.366 1.976h-1.56l-.503 2.273h3.513l-.25.46-.252.46h-3.791l-.474 2.273h2.62a13.143 13.143 0 0 1-3.986 3.194l2.453-11.366h-6.775L140.55 13.33c-.069.307-.145.6-.224.893-.59 2.272-1.467 4.31-2.648 6.116.716.613 1.3 1.271 1.784 1.975 1.42-1.966 2.535-4.482 3.374-7.577h1.477l-.836 3.843c-.066.526-.617.763-1.617.676.208.94.298 1.883.223 2.869 2.414-.016 3.633-.544 3.68-1.624l1.366-6.278.083-.433c.145.14.284.284.418.433.326.372.58.738.753 1.11.37-.178.81-.451 1.31-.867l-.892 2.814h8.113l-.14.731c-.32 1.52-.772 2.258-1.338 2.165l.446-2.165h-8.698l-.502 2.246h7.081c.405.848.578 1.716.502 2.625 2.26-.071 3.643-.41 4.182-1.028.168-.181.345-.495.53-1.029.369-1.072.801-2.64 1.338-4.708l.306-1.19h-3.01l.167-.705.223-1.082c.535.455 1.01.809 1.422 1.082.304.203.573.358.808.46.13-.156.262-.311.39-.46a24.341 24.341 0 0 1 2.203-2.3c-1.818-.502-3.149-1.223-3.987-2.164h3.987l.474-2.274h-7.165a4 4 0 0 0 .502-.92h5.91l.474-2.273H160.9c.926-.878 1.74-1.6 2.481-2.165l-2.48-1.488a33.665 33.665 0 0 1-2.593 2.868l1.505.893h-2.146l.306-.947.39-.947c.326-.798.594-1.404.781-1.786.018-.157-.088-.236-.418-.27-.625-.096-1.608-.159-2.955-.19zm14.998.189c-.756.244-1.931.688-3.568 1.353a26.136 26.136 0 0 1 1.143 4.276c.578-.214 1.834-.633 3.735-1.3-.793-2.77-1.246-4.22-1.31-4.33zm2.76 1.218-.585 2.625h2.23l-1.06 4.898h-2.787l-.586 2.624h2.816l-.53 2.409-1.7 7.82h3.122l1.673-7.82.53-2.409h2.23l-.447 1.976c-.032.146-.055.289-.083.433-.571 2.902-.278 5.171.864 6.792.696.96 1.536 1.366 2.537 1.218 1.037.052 2.075-1.573 3.095-4.871-.842-.37-1.687-.731-2.537-1.082-.507 1.51-.821 2.001-.948 1.461-.2-.77-.158-1.943.111-3.518.087-.509.199-1.055.335-1.65l2.37-10.907h-10.65zm-46.306.27-1.059 4.168h-4.07l-.78 3.085H136.2l-8.977-7.253zm17.954 1.976h1.478l-.697 3.22h-1.45l.67-3.22zm33.091.379h2.342l-1.06 4.898h-2.341l1.06-4.898zm-151.04.893c-3.093 0-5.776.784-8.057 2.354-2.268 1.592-3.74 3.678-4.404 6.251-.04.15-.08.286-.112.433-.51 2.39-.058 4.337 1.366 5.818 1.518 1.559 3.86 2.327 7.026 2.327 5.396 0 9.532-3.195 9.952-3.545l-2.342-.514c-.55.124-3.55.967-6.551.704-3.786-.33-4.644-3.021-4.432-4.357h15.194l.139-.433.111-.46c.69-2.682.325-4.792-1.087-6.305-1.423-1.526-3.678-2.273-6.802-2.273zm45.023 0c-3.255 0-6.199.82-8.865 2.49-2.67 1.67-4.309 3.741-4.935 6.17-.034.132-.084.247-.11.378-.468 2.254.15 4.16 1.84 5.71 1.79 1.626 4.325 2.435 7.61 2.435 1.99 0 4.079-.4 6.272-1.19l1.283-4.952c-1.459 1.09-2.682 1.814-3.652 2.192a8.905 8.905 0 0 1-3.262.595c-1.846 0-3.242-.48-4.182-1.461-.832-.883-1.13-2.005-.892-3.329.027-.146.072-.282.111-.433.385-1.491 1.31-2.745 2.788-3.734 1.475-.99 3.144-1.488 4.99-1.488 1.177 0 2.13.193 2.9.595.785.388 1.608 1.118 2.453 2.165l1.282-5.006c-1.662-.768-3.538-1.137-5.63-1.137zm18.372 0c-3.094 0-5.777.784-8.057 2.354-2.269 1.592-3.742 3.678-4.404 6.251-.04.15-.08.286-.112.433-.51 2.39-.06 4.337 1.366 5.818 1.516 1.559 3.861 2.327 7.026 2.327 5.393 0 9.533-3.195 9.952-3.545l-2.342-.514c-.55.124-3.55.967-6.551.704-3.785-.33-4.647-3.021-4.433-4.357h15.194l.14-.433.111-.46c.692-2.682.35-4.792-1.059-6.305-1.423-1.526-3.705-2.273-6.83-2.273zm-39.53.46c-2.15 0-4.253.645-6.301 1.948l-4.545-1.488-2.09 8.118-2.092 8.145H41l2.007-7.847c.026-.1.058-.207.084-.298.513-1.87 1.2-3.204 2.035-3.978.894-.822 2.136-1.218 3.763-1.218 1.497 0 2.466.296 2.872.92.422.611.413 1.726 0 3.329l-.223.947-2.12 8.145h4.935l2.091-8.145.474-1.84c.592-2.294.43-3.936-.502-4.952-1.073-1.191-2.853-1.786-5.324-1.786zm62.976 0c-2.15 0-4.25.645-6.3 1.948l-4.545-1.488-2.09 8.118-2.091 8.145h4.934l2.007-7.847c.027-.1.057-.207.084-.298.515-1.87 1.199-3.204 2.035-3.978.895-.822 2.134-1.218 3.763-1.218 1.496 0 2.465.296 2.872.92.421.611.414 1.726 0 3.329l-.251.947-2.091 8.145h4.934l2.091-8.145.474-1.84c.592-2.294.429-3.936-.501-4.952-1.073-1.191-2.856-1.786-5.325-1.786zm50.097 1.704-.585 2.653h2.76l-.92 4.221-.586 2.814c-.127.59-.612 1.203-1.45 1.868-.246.197-.397.323-.418.379.307.932.854 1.84 1.617 2.679.06.015.386-.264.948-.812.839-.863 2.966-2.765 6.412-5.71-.011-.038-.2-.433-.557-1.163l-.028-.055-.502-1.082-.557.46c-.268.228-.527.439-.753.622a36.7 36.7 0 0 1-1.366 1.11l.25-1.11 1.478-6.873h-5.743zM26.446 8.566c2.616 0 4.015.998 4.182 3.004h-9.841a5.42 5.42 0 0 1 1.003-1.245 6.262 6.262 0 0 1 1.339-.947 6.666 6.666 0 0 1 1.589-.595 6.85 6.85 0 0 1 1.728-.217zm63.395 0c2.616 0 4.017.998 4.182 3.004h-9.841a5.575 5.575 0 0 1 1.003-1.245 6.474 6.474 0 0 1 2.928-1.542 6.859 6.859 0 0 1 1.728-.217zm54.167.812h1.45l-.641 3.004h-1.45l.641-3.004zm10.678.379h.864c.12.332.28.65.474.947h-2.118l.39-.487.39-.46zm-29.495.135-1.115 4.33-2.119 8.145h4.907l2.119-8.145 1.115-4.33h-4.907zm26.484 2.95h3.485l-.279 1.38-.195.785h-2.397c.089-.29.17-.55.25-.785.093-.27.168-.501.252-.704-.118-.065-.189-.108-.251-.108h-1.45l.585-.568z" fill="#222" fill-rule="nonzero" opacity=".597"/></svg>