<?xml version="1.0" encoding="UTF-8"?>
<!DOCTYPE svg PUBLIC "-//W3C//DTD SVG 1.1//EN" "http://www.w3.org/Graphics/SVG/1.1/DTD/svg11.dtd">
<!-- Creator: CorelDRAW X7 -->
<svg xmlns="http://www.w3.org/2000/svg" xml:space="preserve" width="16.5354in" height="11.6929in" version="1.1" style="shape-rendering:geometricPrecision; text-rendering:geometricPrecision; image-rendering:optimizeQuality; fill-rule:evenodd; clip-rule:evenodd"
viewBox="0 0 16535 11693"
 xmlns:xlink="http://www.w3.org/1999/xlink">
 <defs>
  <style type="text/css">
   <![CDATA[
    .fil1 {fill:black}
    .fil2 {fill:#FF5A0D}
    .fil0 {fill:white}
    .fil3 {fill:black;fill-rule:nonzero}
   ]]>
  </style>
 </defs>
 <g id="Layer_x0020_1">
  <metadata id="CorelCorpID_0Corel-Layer"/>
  <rect class="fil0" width="16535" height="11693"/>
  <path class="fil1" d="M6873 3155c9,0 19,1 28,1 441,13 760,-224 992,-638l0 0c61,-117 184,-197 325,-197 142,0 265,80 326,198 232,414 550,650 990,637 10,0 20,-1 29,-1 203,0 367,164 367,367 0,203 -164,367 -367,367 -149,0 -277,-89 -334,-216l0 0c-186,-382 -594,-612 -1009,-619l0 0 -2 0 -2 0 0 0c-415,7 -823,237 -1009,619l0 0c-57,127 -185,216 -334,216 -203,0 -367,-164 -367,-367 0,-203 164,-367 367,-367zm1616 2530c8,9 16,19 23,28l0 0 0 0c42,59 66,131 66,208 0,199 -161,361 -360,361 -199,0 -360,-162 -360,-361 0,-77 24,-149 66,-208l0 0 0 0c7,-10 15,-19 22,-28 188,-257 203,-828 -142,-1271l0 0c-73,-91 -117,-207 -117,-333 0,-293 238,-531 531,-531 293,0 531,238 531,531 0,126 -44,242 -118,333l1 0c-345,443 -330,1014 -143,1271zm-271 -1946c198,0 358,160 358,358 0,198 -160,359 -358,359 -198,0 -358,-161 -358,-359 0,-198 160,-358 358,-358z"/>
  <circle class="fil2" cx="8218" cy="4097" r="311"/>
  <g id="_2476535771840">
   <path class="fil3" d="M4889 9204c-67,0 -128,-7 -183,-21 -56,-14 -104,-37 -145,-70 -41,-32 -73,-74 -95,-126 -22,-52 -33,-115 -33,-191l0 -553 -172 0 0 -266 172 0 0 -394 361 0 0 394 347 0 0 266 -347 0 0 421c0,93 22,162 66,206 44,45 115,67 214,67l67 0 0 267 -252 0z"/>
   <path class="fil3" d="M5765 9204c-99,0 -179,-12 -240,-34 -61,-22 -108,-58 -142,-106 -34,-49 -57,-113 -68,-191 -12,-79 -18,-175 -18,-287 0,-130 10,-236 29,-318 20,-81 53,-145 101,-189 48,-45 112,-76 192,-92 80,-16 181,-24 303,-24 102,0 192,6 269,17 77,12 142,35 195,70 54,34 94,84 121,149 27,65 40,150 40,257 0,35 -3,69 -9,99 -6,31 -17,58 -31,81 -15,24 -35,42 -59,55 -25,13 -56,20 -93,20l-692 0c0,37 3,70 10,99 7,29 20,54 39,74 18,20 43,35 75,45 31,10 72,15 121,15l598 0 0 260 -741 0zm347 -743c32,0 52,-9 58,-26 6,-17 9,-33 9,-48 0,-31 -8,-57 -24,-78 -16,-21 -37,-38 -61,-51 -25,-13 -53,-22 -83,-28 -30,-5 -59,-8 -89,-8 -88,0 -153,17 -195,51 -43,34 -64,97 -64,188l449 0z"/>
   <path class="fil3" d="M7334 9204c-66,0 -127,-7 -183,-21 -55,-14 -103,-37 -144,-70 -41,-32 -73,-74 -95,-126 -22,-52 -34,-115 -34,-191l0 -553 -171 0 0 -266 171 0 0 -394 361 0 0 394 348 0 0 266 -348 0 0 421c0,93 22,162 66,206 44,45 116,67 214,67l68 0 0 267 -253 0z"/>
   <path class="fil3" d="M7791 8463c0,-90 12,-166 35,-228 23,-63 58,-113 104,-151 47,-37 104,-65 171,-82 68,-17 148,-25 239,-25l243 0 0 266 -144 0c-106,0 -180,28 -223,83 -42,56 -64,137 -64,243l0 635 -361 0 0 -741z"/>
   <path class="fil3" d="M9519 7977c122,0 215,36 281,107 65,72 98,166 98,282l0 606c0,154 -77,232 -231,232l-688 0c-111,0 -189,-32 -235,-96 -45,-65 -68,-161 -68,-289 0,-115 23,-208 70,-277 46,-70 124,-105 233,-105l558 0 0 -53c0,-99 -51,-148 -155,-148l-620 0 0 -259 757 0zm-368 710c-73,0 -109,45 -109,135 0,40 8,72 25,96 17,24 44,36 81,36l308 0c54,0 81,-27 81,-81l0 -186 -386 0z"/>
   <path class="fil3" d="M10734 9204c-67,0 -128,-7 -183,-21 -56,-14 -104,-37 -145,-70 -41,-32 -72,-74 -95,-126 -22,-52 -33,-115 -33,-191l0 -553 -172 0 0 -266 172 0 0 -394 361 0 0 394 347 0 0 266 -347 0 0 421c0,93 22,162 66,206 44,45 115,67 214,67l67 0 0 267 -252 0z"/>
   <path class="fil3" d="M11596 9204c-98,0 -178,-12 -239,-34 -61,-22 -109,-58 -142,-106 -34,-49 -57,-113 -69,-191 -11,-79 -17,-175 -17,-287 0,-130 10,-236 29,-318 19,-81 53,-145 100,-189 48,-45 112,-76 193,-92 80,-16 181,-24 303,-24 102,0 191,6 268,17 77,12 143,35 196,70 53,34 93,84 120,149 27,65 41,150 41,257 0,35 -3,69 -9,99 -7,31 -17,58 -32,81 -14,24 -34,42 -59,55 -24,13 -55,20 -92,20l-692 0c0,37 3,70 10,99 7,29 20,54 38,74 19,20 44,35 75,45 32,10 73,15 122,15l597 0 0 260 -741 0zm348 -743c32,0 51,-9 57,-26 7,-17 10,-33 10,-48 0,-31 -8,-57 -25,-78 -16,-21 -36,-38 -61,-51 -25,-13 -52,-22 -82,-28 -30,-5 -60,-8 -89,-8 -88,0 -153,17 -196,51 -42,34 -63,97 -63,188l449 0z"/>
  </g>
 </g>
</svg>
