<?xml version="1.0" encoding="UTF-8" standalone="no"?>
<svg width="346px" height="53px" viewBox="0 0 346 53" version="1.1" xmlns="http://www.w3.org/2000/svg" xmlns:xlink="http://www.w3.org/1999/xlink">
    <!-- Generator: Sketch 49.1 (51147) - http://www.bohemiancoding.com/sketch -->
    <title>g166</title>
    <desc>Created with Sketch.</desc>
    <defs></defs>
    <g id="Page-1" stroke="none" stroke-width="1" fill="none" fill-rule="evenodd">
        <g id="vmware" transform="translate(-622.000000, -904.000000)" fill="#7C7C7C" fill-rule="nonzero">
            <g id="g12" transform="translate(598.645000, 774.030000) scale(-1, 1) rotate(-180.000000) translate(-598.645000, -774.030000) translate(0.645000, 0.030000)">
                <g id="g164">
                    <g id="g166-Clipped">
                        <g id="g166" transform="translate(618.750000, 589.750000)">
                            <g id="g172" transform="translate(134.356250, 0.128947)">
                                <path d="M16.7723684,5.06578947 L1.64177632,47.1993421 C1.44835526,47.7819079 1.16052632,48.5509868 1.16052632,49.2256579 C1.16052632,51.0516447 2.70328947,52.7855263 4.91381579,52.7855263 C6.84342105,52.7855263 8.10065789,51.5328947 8.67631579,49.7069079 L21.2141447,13.4013158 L33.8417763,49.8082237 C34.4174342,51.5351974 35.5756579,52.7878289 37.49375,52.7878289 L37.8851974,52.7878289 C39.9138158,52.7878289 41.1664474,51.5351974 41.7421053,49.8082237 L54.2661184,13.4013158 L67.0019737,49.8980263 C67.4832237,51.4476974 68.5355263,52.7878289 70.5664474,52.7878289 C72.6848684,52.7878289 74.2299342,51.1575658 74.2299342,49.3223684 C74.2299342,48.65 73.9375,47.8832237 73.7486842,47.2960526 L58.5213816,5.06578947 C57.7430921,2.85986842 56.2072368,1.70164474 54.46875,1.70164474 L54.1809211,1.70164474 C52.2513158,1.70164474 50.8029605,2.85986842 50.1236842,5.06578947 L37.6963816,40.8694079 L25.1608553,5.06578947 C24.4861842,2.85986842 23.0355263,1.70164474 21.1128289,1.70164474 L20.9101974,1.70164474 C19.0842105,1.70164474 17.5483553,2.85986842 16.7723684,5.06578947" id="path174"></path>
                            </g>
                            <g id="g176" transform="translate(260.770724, 0.425987)">
                                <path d="M0.651644737,48.8157895 C0.651644737,50.8490132 2.29111842,52.5851974 4.31513158,52.5851974 C6.44967105,52.5851974 8.08453947,50.9434211 8.08453947,48.8157895 L8.08453947,40.2661184 C11.7503289,48.5694079 19.8809211,52.4884868 25.2690789,52.4884868 C27.5003289,52.4884868 28.9486842,50.8490132 28.9486842,48.7259868 C28.9486842,46.6950658 27.6039474,45.2536184 25.6559211,44.9634868 C15.9963816,43.8052632 8.08684211,36.5588816 8.08684211,22.1674342 L8.08684211,5.23618421 C8.08684211,3.20756579 6.54407895,1.47368421 4.42105263,1.47368421 C2.29572368,1.47368421 0.653947368,3.12236842 0.653947368,5.23618421 L0.651644737,48.8157895 Z" id="path178"></path>
                            </g>
                            <g id="g180" transform="translate(287.594079, 0.969408)">
                                <path d="M25.9828947,0.460526316 C12.5424342,0.460526316 1.56809211,10.8845395 1.56809211,26.1717105 L1.56809211,26.3697368 C1.56809211,40.6069079 11.50625,52.0763158 25.0365132,52.0763158 C39.5039474,52.0763158 47.7427632,40.1394737 47.7427632,27.0398026 C47.7427632,25.0273026 46.1194079,23.5881579 44.3325658,23.5881579 L8.95953947,23.5881579 C9.99111842,12.8924342 17.4608553,6.87335526 26.1763158,6.87335526 C32.2345395,6.87335526 36.6671053,9.26348684 40.2684211,12.6092105 C40.8371711,13.08125 41.4980263,13.4634868 42.3546053,13.4634868 C44.1460526,13.4634868 45.5713816,12.0289474 45.5713816,10.3019737 C45.5713816,9.44539474 45.19375,8.58190789 44.4269737,7.92105263 C39.7963816,3.43322368 34.3023026,0.460526316 25.9828947,0.460526316 Z M40.4572368,29.0384868 C39.6973684,38.0302632 34.5855263,45.8592105 24.8384868,45.8592105 C16.3233553,45.8592105 9.88980263,38.6957237 8.95493421,29.0384868 L40.4572368,29.0384868 Z" id="path182"></path>
                            </g>
                            <g id="g184" transform="translate(208.065789, 0.324671)">
                                <path d="M0.651644737,16.5789474 L0.651644737,16.7723684 C0.651644737,27.2631579 9.31875,32.8539474 21.9256579,32.8539474 C28.2832237,32.8539474 32.8055921,31.9881579 37.2427632,30.7286184 L37.2427632,32.4694079 C37.2427632,41.4151316 31.7394737,46.0434211 22.4115132,46.0434211 C17.4032895,46.0434211 14.4881579,45.4055921 10.8223684,43.7730263 C10.3480263,43.5796053 9.86217105,43.4805921 9.48684211,43.4805921 C7.75296053,43.4805921 6.20559211,44.9289474 6.20559211,46.6582237 C6.20559211,48.1940789 6.87565789,49.1450658 8.23190789,49.7460526 C13.1342105,51.8736842 16.8299342,52.5805921 23.1805921,52.5805921 C30.2036184,52.5805921 35.5963816,50.7569079 39.2483553,47.0957237 C42.6240132,43.7269737 44.3578947,38.9144737 44.3578947,32.5569079 L44.3578947,5.09111842 C44.3578947,2.97960526 42.8174342,1.43453947 40.7842105,1.43453947 C38.675,1.43453947 37.2450658,2.97730263 37.2450658,4.9 L37.2450658,9.64802632 C33.7726974,5.11414474 27.9907895,1.07763158 19.2476974,1.07763158 C10.0003289,1.08453947 0.651644737,6.37368421 0.651644737,16.5789474 M37.3371711,20.43125 L37.3371711,25.2460526 C33.6713816,26.3029605 28.7552632,27.3644737 22.6947368,27.3644737 C13.3690789,27.3644737 8.16282895,23.3164474 8.16282895,17.0648026 L8.16282895,16.8736842 C8.16282895,10.6174342 13.9332237,6.95855263 20.6799342,6.95855263 C29.8213816,6.95855263 37.3371711,12.5447368 37.3371711,20.43125" id="path186"></path>
                            </g>
                            <g id="g188" transform="translate(1.793750, 0.974013)">
                                <path d="M14.4697368,48.8157895 C12.8394737,52.3894737 8.80986842,54.0082237 5.04736842,52.3365132 C1.28026316,50.6625 -0.105921053,46.4855263 1.59572368,42.9095395 L17.3940789,8.57039474 C19.8786184,3.18914474 22.4967105,0.368421053 27.4105263,0.368421053 C32.6605263,0.368421053 34.9493421,3.44013158 37.4315789,8.57039474 C37.4315789,8.57039474 51.2105263,38.5736842 51.3486842,38.8868421 C51.4891447,39.2046053 51.93125,40.1740132 53.3335526,40.1648026 C54.5194079,40.1578947 55.5164474,39.2115132 55.5164474,37.9404605 L55.5164474,8.60032895 C55.5164474,4.07796053 58.0240132,0.368421053 62.8503289,0.368421053 C67.6720395,0.368421053 70.2786184,4.07796053 70.2786184,8.60032895 L70.2786184,32.6098684 C70.2786184,37.2404605 73.5967105,40.2453947 78.1190789,40.2453947 C82.6414474,40.2453947 85.6509868,37.1322368 85.6509868,32.6098684 L85.6509868,8.60032895 C85.6509868,4.07796053 88.1677632,0.368421053 92.9848684,0.368421053 C97.8065789,0.368421053 100.426974,4.07796053 100.426974,8.60032895 L100.426974,32.6098684 C100.426974,37.2404605 103.73125,40.2453947 108.255921,40.2453947 C112.771382,40.2453947 115.792434,37.1322368 115.792434,32.6098684 L115.792434,8.60032895 C115.792434,4.07796053 118.306908,0.368421053 123.128618,0.368421053 C127.948026,0.368421053 130.563816,4.07796053 130.563816,8.60032895 L130.563816,35.9256579 C130.563816,45.9674342 122.488487,53.0019737 112.771382,53.0019737 C103.065789,53.0019737 96.9868421,46.2875 96.9868421,46.2875 C93.75625,50.4759868 89.3029605,52.9927632 81.7664474,52.9927632 C73.8131579,52.9927632 66.8523026,46.2875 66.8523026,46.2875 C63.6194079,50.4759868 58.1161184,52.9927632 53.5592105,52.9927632 C46.5108553,52.9927632 40.9131579,49.8934211 37.4983553,42.0851974 L27.4105263,18.3059211 L14.4697368,48.8157895 Z" id="path190"></path>
                            </g>
                            <g id="g192" transform="translate(335.283882, 39.446382)">
                                <path d="M0.653947368,7.36842105 L0.653947368,7.40986842 C0.653947368,10.7694079 3.38026316,13.5993421 6.80657895,13.5993421 C10.28125,13.5993421 12.9707237,10.7993421 12.9707237,7.43519737 L12.9707237,7.40986842 C12.9707237,4.03881579 10.2513158,1.20888158 6.80657895,1.20888158 C3.33190789,1.20888158 0.653947368,3.99967105 0.653947368,7.36842105 M11.7871711,7.40986842 L11.7871711,7.42598684 C11.7871711,10.1891447 9.65263158,12.4549342 6.80657895,12.4549342 C3.98585526,12.4549342 1.81907895,10.15 1.81907895,7.40986842 L1.81907895,7.37763158 C1.81907895,4.62138158 3.96052632,2.35559211 6.80657895,2.35559211 C9.61809211,2.35559211 11.7871711,4.65592105 11.7871711,7.40986842" id="path194"></path>
                            </g>
                            <g id="g196" transform="translate(339.078618, 41.924013)">
                                <path d="M0.65625,7.36842105 C0.65625,7.73453947 0.948684211,8.02697368 1.31940789,8.02697368 L3.37335526,8.02697368 C4.14703947,8.02697368 4.74342105,7.80822368 5.11414474,7.41677632 C5.45263158,7.0875 5.63684211,6.61085526 5.63684211,6.05822368 L5.63684211,6.03980263 C5.63684211,5.10032895 5.1625,4.52697368 4.44638158,4.22532895 L5.35361842,3.12006579 C5.48026316,2.95427632 5.56546053,2.81842105 5.56546053,2.61578947 C5.56546053,2.25197368 5.25690789,2.0125 4.94375,2.0125 C4.65131579,2.0125 4.45328947,2.16217105 4.29901316,2.35098684 L3.02105263,3.96743421 L1.97335526,3.96743421 L1.97335526,2.66875 C1.97335526,2.30263158 1.69013158,2.01480263 1.32171053,2.01480263 C0.950986842,2.01480263 0.658552632,2.30493421 0.658552632,2.66875 L0.658552632,7.36842105 L0.65625,7.36842105 Z M3.29967105,5.13026316 C3.93980263,5.13026316 4.29210526,5.46414474 4.29210526,5.97302632 L4.29210526,5.99375 C4.29210526,6.54868421 3.91447368,6.84802632 3.27664474,6.84802632 L1.96644737,6.84802632 L1.96644737,5.13256579 L3.29967105,5.13256579 L3.29967105,5.13026316 Z" id="path198"></path>
                            </g>
                        </g>
                    </g>
                </g>
            </g>
        </g>
    </g>
</svg>