<svg width="346" height="53" xmlns="http://www.w3.org/2000/svg"><g fill="#7C7C7C" fill-rule="nonzero"><path d="M148.522 49.085 133.391 6.951c-.193-.582-.481-1.351-.481-2.026 0-1.826 1.543-3.56 3.753-3.56 1.93 0 3.187 1.253 3.763 3.079l12.538 36.306 12.628-36.407c.575-1.727 1.733-2.98 3.652-2.98h.391c2.029 0 3.281 1.253 3.857 2.98l12.524 36.407 12.736-36.497c.481-1.55 1.533-2.89 3.564-2.89 2.119 0 3.664 1.63 3.664 3.465 0 .673-.293 1.44-.481 2.027l-15.227 42.23c-.779 2.206-2.314 3.364-4.053 3.364h-.288c-1.93 0-3.378-1.158-4.057-3.364L169.447 13.28l-12.536 35.804c-.675 2.206-2.125 3.364-4.048 3.364h-.203c-1.826 0-3.361-1.158-4.137-3.364M258.812 5.038c0-2.033 1.64-3.77 3.663-3.77 2.135 0 3.77 1.642 3.77 3.77v8.55C269.91 5.284 278.04 1.366 283.43 1.366c2.23 0 3.68 1.64 3.68 3.762 0 2.031-1.346 3.473-3.294 3.763-9.66 1.158-17.569 8.404-17.569 22.796v16.93c0 2.03-1.542 3.763-3.665 3.763-2.126 0-3.768-1.648-3.768-3.762l-.002-43.58zM310.963 52.85c-13.44 0-24.415-10.424-24.415-25.71v-.199c0-14.237 9.938-25.707 23.468-25.707 14.467 0 22.706 11.937 22.706 25.037a3.424 3.424 0 0 1-3.41 3.452h-35.373c1.031 10.696 8.501 16.715 17.217 16.715 6.058 0 10.49-2.39 14.092-5.736.569-.472 1.23-.855 2.086-.855 1.791 0 3.217 1.435 3.217 3.162 0 .857-.378 1.72-1.145 2.38-4.63 4.489-10.125 7.461-18.444 7.461zm14.474-28.578c-.76-8.992-5.872-16.82-15.619-16.82-8.515 0-14.949 7.163-15.884 16.82h31.502zM206.112 37.376v-.193c0-10.491 8.667-16.082 21.274-16.082 6.357 0 10.88.866 15.317 2.125v-1.74c0-8.946-5.504-13.575-14.831-13.575-5.009 0-7.924.638-11.59 2.27-.474.194-.96.293-1.335.293-1.734 0-3.281-1.448-3.281-3.177 0-1.536.67-2.487 2.026-3.088 4.903-2.128 8.598-2.835 14.95-2.835 7.022 0 12.415 1.824 16.067 5.485 3.376 3.369 5.11 8.181 5.11 14.54v27.465c0 2.112-1.54 3.657-3.574 3.657-2.11 0-3.54-1.543-3.54-3.466v-4.748c-3.471 4.534-9.253 8.57-17.996 8.57-9.247-.006-18.596-5.295-18.596-15.5m36.686-3.853V28.71c-3.666-1.057-8.582-2.119-14.642-2.119-9.326 0-14.532 4.048-14.532 10.3v.191c0 6.257 5.77 9.915 12.517 9.915 9.141 0 16.657-5.586 16.657-13.473M13.654 4.49C12.024.916 7.994-.702 4.23.97.464 2.642-.922 6.82.78 10.395l15.798 34.34c2.484 5.38 5.102 8.201 10.016 8.201 5.25 0 7.539-3.071 10.02-8.202 0 0 13.78-30.003 13.918-30.316.14-.317.582-1.287 1.985-1.278a2.194 2.194 0 0 1 2.183 2.225v29.34c0 4.522 2.507 8.231 7.333 8.231 4.822 0 7.429-3.709 7.429-8.231v-24.01c0-4.631 3.318-7.636 7.84-7.636 4.523 0 7.532 3.113 7.532 7.636v24.01c0 4.522 2.517 8.231 7.334 8.231 4.822 0 7.442-3.709 7.442-8.231v-24.01c0-4.631 3.304-7.636 7.83-7.636 4.515 0 7.536 3.113 7.536 7.636v24.01c0 4.522 2.514 8.231 7.336 8.231 4.82 0 7.435-3.709 7.435-8.231V17.38c0-10.042-8.075-17.076-17.792-17.076-9.706 0-15.785 6.714-15.785 6.714C92.94 2.831 88.486.314 80.95.314c-7.953 0-14.914 6.705-14.914 6.705C62.803 2.831 57.3.314 52.743.314c-7.048 0-12.646 3.1-16.061 10.908L26.594 35 13.653 4.49zM333.324 7.466v-.042c0-3.36 2.726-6.19 6.153-6.19 3.474 0 6.164 2.8 6.164 6.165v.025c0 3.371-2.72 6.201-6.164 6.201-3.475 0-6.153-2.79-6.153-6.16m11.133-.04v-.017c0-2.763-2.135-5.029-4.98-5.029-2.821 0-4.988 2.305-4.988 5.045v.032c0 2.757 2.141 5.022 4.987 5.022 2.812 0 4.98-2.3 4.98-5.054"/><path d="M337.126 4.988c0-.367.293-.659.663-.659h2.054c.774 0 1.37.219 1.741.61.339.33.523.806.523 1.359v.018c0 .94-.475 1.513-1.19 1.815l.907 1.105c.126.166.211.302.211.504 0 .364-.308.604-.621.604-.293 0-.49-.15-.645-.339L339.49 8.39h-1.048v1.298a.644.644 0 0 1-.651.654.654.654 0 0 1-.664-.654v-4.7h-.002zm2.644 2.238c.64 0 .992-.334.992-.843v-.02c0-.556-.378-.855-1.015-.855h-1.31v1.716h1.333v.002z"/></g></svg>