<svg width="500" height="139" viewBox="0 0 500 139" fill="none" xmlns="http://www.w3.org/2000/svg">
<path d="M276.592 17.593H305.421L290.918 121.141H262.088L276.592 17.593ZM240.245 17.593L220.789 77.2438L212.299 17.593H192.136L166.667 77.0668L163.483 17.593H135.538L145.266 121.141H168.436L197.089 55.6491L207.17 121.141H229.986L267.66 17.593H240.245V17.593ZM482.291 77.7748H413.842C414.196 91.2272 422.244 100.077 434.094 100.077C443.026 100.077 450.101 95.2983 455.584 86.1825L478.692 96.6966C470.75 112.353 454.018 122.557 433.387 122.557C405.264 122.557 386.605 103.618 386.605 73.1726C386.605 39.7187 408.536 16 439.489 16C466.727 16 483.883 34.4085 483.883 63.0834C483.883 67.8625 483.352 72.6416 482.291 77.7748V77.7748ZM456.645 57.9502C456.645 45.9139 449.924 38.3026 439.135 38.3026C428.346 38.3026 418.795 46.2679 416.319 57.9502H456.645ZM45.4316 48.799L16.0005 83.2177H68.5485L74.4559 66.9863H51.9404L65.7009 51.0647L65.7451 50.6399L56.7955 35.2316H97.0422L65.8424 121.141H87.1906L124.864 17.593H27.5324L45.4228 48.799H45.4316ZM352.292 38.3026C362.462 38.3026 371.376 43.7721 379.158 53.1534L383.244 23.9652C375.992 19.0533 366.176 16 353.176 16C327.353 16 312.85 31.1339 312.85 50.339C312.85 63.6586 320.278 71.8009 332.482 77.0668L338.319 79.7218C349.197 84.3682 352.115 86.6693 352.115 91.5812C352.115 96.4931 347.207 99.9004 339.734 99.9004C327.397 99.9447 317.404 93.6167 309.887 82.8194L305.722 112.565C314.282 119.097 325.257 122.557 339.734 122.557C364.275 122.557 379.353 108.397 379.353 88.7491C379.353 75.3852 373.428 66.8005 358.482 60.0743L352.115 57.0652C343.271 53.1268 340.265 50.9585 340.265 46.6219C340.265 41.9312 344.377 38.3026 352.292 38.3026V38.3026Z" fill="black"/>
</svg>
