<svg width="348" height="89" xmlns="http://www.w3.org/2000/svg"><g fill="#7C7C7C" fill-rule="nonzero"><path d="M223.48 57.619c-.952.238-4.048 1.19-5 1.667 0 2.857-.476 15.952-.476 15.952-.238 5.952-2.857 10-9.762 12.857l-2.62-.715c3.334-1.904 5-3.81 5.239-5.238.714-1.904.952-6.428.952-14.524 0 0 0-6.19-.238-8.333-.952-.238-5.238-1.19-6.667-1.429v-1.904c2.62 0 8.81.238 10.952.238 2.381 0 5.239 0 7.62-.238v1.666zm111.19 3.81c-.476.238-1.905.476-3.333.714 0 2.143.238 17.619.238 21.19 0 .476-.476.714-1.19.238-3.334-3.333-14.049-15.476-17.62-19.762 0 2.857.238 13.81.238 15.714 1.429.476 4.524 1.19 5 1.19l.238 2.143h-11.667v-2.143c1.191-.476 2.143-.952 3.334-1.19.238-1.19.238-16.43.238-17.62-.952 0-2.619-.237-3.81-.237v-2.62h8.572c3.095 3.572 10.476 11.668 14.286 15.953 0-3.572-.238-11.905-.238-13.333-.715 0-2.143-.238-3.572-.477l-.238-2.142c.715 0 4.762.238 5.476.238s4.048-.238 4.762-.238l-.714 2.38zm-63.333 6.428c0 2.857-2.619 4.048-5.714 4.524v2.143c6.19-.715 10.238-3.096 10.238-6.905v-.238c0-4.286-2.857-8.095-9.524-8.095H253.48l.476 2.38c1.19.239 2.857.239 4.048.239 0 2.857.476 15 .238 18.57-.714.239-3.095.715-4.048.953l-.238 2.143h14.762v-1.667c-.952-.238-4.286-.952-5-.952 0-.714-.238-17.857-.238-18.81 1.429 0 3.81 0 4.762.238 2.619.714 3.333 3.333 3.333 5.238l-.238.238zm-174.52-55c-1.667.238-8.81 1.667-11.19 2.143-2.619.714-26.905 19.762-28.571 24.286-.238 1.428 0 18.095 0 18.095l13.81.952-.476 4.524c-1.905-.238-14.762 0-22.857 0-4.048 0-16.43.476-20.714.238l.476-4.286c2.62.239 6.667-.238 9.048-.952s4.285-1.667 4.285-4.048V39.523C39.676 36.904 19.438 11.428 14.2 7.38 12.771 6.904 2.532 5.714.151 5.238L.627.952h46.43l-.715 4.047c-2.143.477-11.905.715-14.524 1.429 6.667 9.762 17.143 22.619 20.476 27.381 1.905-2.62 19.762-15.238 20.238-19.048-2.619-.476-10.952-1.667-12.38-1.667l-.715-4.285h40l-2.62 4.047zM195.865 50c-7.381-.476-20.238-.238-27.619 0l.476-3.81c1.19 0 7.143-.952 8.572-1.19V31.667c-3.572 0-24.048.476-27.143 1.19v11.906s8.81.952 10.714 1.19l-.477 4.048c-7.857-.477-23.81-.477-31.429 0l.477-4.286c2.38 0 8.81-.714 10.238-.952.238-2.858.238-7.62.238-12.381v-5.953c0-2.143 0-7.857-.238-10-1.667 0-9.048-.714-10.952-.714l.476-3.81c6.667.477 26.905.477 32.38 0l-.475 3.572c-1.667 0-8.81 1.19-10.952 1.19v10.476h27.143V11.667c-1.905-.238-6.905-1.19-9.048-1.428l.476-3.572c4.524.239 22.62.239 27.381 0l-.238 3.81c-1.428 0-6.667.952-8.571 1.19v33.81s7.619.953 9.285 1.19l-.714 3.334zm136.9 4.048-5 .238.952-8.572 5 .238 4.762-.238-.952 8.334h-4.762zm5.714-15.238h-7.38V.477h16.666l-1.428 5.714-7.857 32.619z"/><path d="M227.52 45.952h-3.81c-6.19-.238-18.094-3.571-18.094-14.286v-.952c0-10.476 11.905-14.048 18.095-14.286h3.809c6.19.238 18.095 3.571 18.095 14.286v.952c0 10.476-11.905 14.048-18.095 14.286zm28.571-15c0-12.143-11.667-19.524-29.524-20h-1.905c-18.81.476-29.286 7.857-29.286 20v.476c0 11.43 11.43 19.524 29.286 20h1.905c17.857-.476 29.286-8.095 29.524-20v-.476zm38.571 10.952h-5.238c-6.667-.476-18.81-4.524-19.048-15.952.238-11.429 12.38-15.238 19.048-15.714h5.238c6.667.476 18.81 4.286 19.048 15.714 0 11.429-12.381 15.714-19.048 15.952zm30.714-15.952c-.476-12.857-12.619-21.19-32.381-21.667h-1.429c-19.762.476-32.143 8.095-32.38 21.429v.476c.476 13.333 12.618 21.19 32.38 21.667h1.429c19.524-.476 31.905-8.333 32.381-21.905zM96.806 39.285c.714-1.667 6.429-14.048 6.429-14.048l5.476 14.048H96.806zm29.524 16.19c-2.143-3.333-9.762-22.619-13.333-31.19l6.429-.952.714-3.334h-9.762c-3.571 0-18.81 0-20.238-.238l-.238 3.334 7.619 1.904S86.33 47.38 83.95 50.475c-1.905.476-6.905 1.667-8.81 1.905l-.476 4.048c1.429-.239 21.19 0 23.095 0l.476-3.81-6.904-1.667s3.095-6.428 3.571-7.143c2.143-.476 15-.714 15-.714l4.524 12.381s-5.476.953-7.62.953l-.475 4.047h28.333l.476-3.571c-1.667.238-6.905-1.19-8.81-1.429zm174.52 25c-2.619-5.476-6.905-15.952-8.095-18.81l3.095-.476.238-2.143-12.619.476v1.667l3.333.476c-2.142 4.762-7.857 16.905-8.809 18.333-.952.238-1.905.714-2.857.952l-.238 1.905c2.857-.238 9.285 0 10.238 0v-1.667l-3.095-.952s1.904-4.762 2.619-6.19h8.81l2.38 6.19s-2.143.476-3.81.714l-.238 1.667h12.857l.239-1.905c-1.429.476-4.048-.238-4.048-.238zm-15.476-8.095c.476-1.19 3.81-9.048 3.81-9.048l3.57 9.048h-7.38zm-37.619 8.095c-1.667-3.333-5.952-13.81-8.095-18.81l3.333-.714v-1.905l-12.857.476v1.667l3.333.476c-2.142 4.762-7.857 16.905-8.81 18.333-.951.476-1.904.714-2.856.953l-.238 1.904h10.238V81.19l-3.096-.953s1.905-4.762 2.62-6.19h8.809l2.381 6.19s-2.143.476-3.81.714l-.238 1.667h12.857l.238-1.905c-1.19.477-3.809-.238-3.809-.238zm-15.476-8.095c.476-1.19 3.81-9.048 3.81-9.048l3.57 9.048h-7.38z"/></g></svg>