<?xml version="1.0" encoding="UTF-8" standalone="no"?>
<svg width="348px" height="89px" viewBox="0 0 348 89" version="1.1" xmlns="http://www.w3.org/2000/svg" xmlns:xlink="http://www.w3.org/1999/xlink">
    <!-- Generator: Sketch 49.1 (51147) - http://www.bohemiancoding.com/sketch -->
    <title>Yahoo_Japan_Logo</title>
    <desc>Created with Sketch.</desc>
    <defs></defs>
    <g id="Page-1" stroke="none" stroke-width="1" fill="none" fill-rule="evenodd">
        <g id="Yahoo_Japan_Logo" transform="translate(-2.000000, 0.000000)" fill="#7C7C7C" fill-rule="nonzero">
            <path d="M225.47619,57.6190714 C224.523833,57.8571905 221.428571,58.8095476 220.476167,59.2857619 C220.476167,62.1429286 219.999976,75.2381667 219.999976,75.2381667 C219.761857,81.1905476 217.142833,85.2381905 210.238048,88.0952857 L207.618976,87.3810238 C210.952286,85.4762857 212.619,83.5714762 212.857071,82.1429048 C213.571357,80.2381667 213.809429,75.7143095 213.809429,67.6190714 C213.809429,67.6190714 213.809429,61.4285714 213.57131,59.2857381 C212.618952,59.047619 208.333214,58.0952619 206.904643,57.8571429 L206.904643,55.9524048 C209.523714,55.9524048 215.714167,56.1905238 217.857048,56.1905238 C220.238,56.1905238 223.095143,56.1905238 225.47619,55.9524048 L225.476095,57.6190952 L225.47619,57.6190714 Z M336.666643,61.428619 C336.1905,61.6667381 334.761905,61.9048333 333.333333,62.142881 C333.333333,64.2857143 333.571452,79.7619048 333.571452,83.3333333 C333.571452,83.8095476 333.095238,84.0475952 332.380976,83.5714524 C329.047619,80.2381429 318.333333,68.0952619 314.761905,63.8095714 C314.761905,66.6667381 314.999976,77.6190714 314.999976,79.523881 C316.428571,80.0000952 319.52381,80.7143571 320,80.7143571 L320.238095,82.8571905 L308.571405,82.8571905 L308.571405,80.7143571 C309.761881,80.2381429 310.714286,79.762 311.904762,79.523881 C312.142833,78.3334048 312.142833,63.0953333 312.142833,61.9048571 C311.190429,61.9048571 309.52381,61.6667381 308.333333,61.6667381 L308.333333,59.0476667 L316.904738,59.0476667 C319.999976,62.6190952 327.380952,70.7143095 331.190452,75.0000714 C331.190452,71.4286429 330.952381,63.0953095 330.952381,61.6667143 C330.238048,61.6667143 328.8095,61.4285952 327.380952,61.1905 L327.142833,59.0476667 C327.857119,59.0476667 331.904738,59.2857857 332.619024,59.2857857 C333.33331,59.2857857 336.666643,59.0476667 337.380929,59.0476667 C337.380929,59.0476667 336.666643,61.428619 336.666643,61.428619 Z M273.333333,67.8571429 C273.333333,70.7143095 270.714286,71.9047857 267.619048,72.3809286 L267.619048,74.5237619 C273.809524,73.8095238 277.857143,71.4285714 277.857143,67.6190238 L277.857143,67.3809048 C277.857143,63.0952143 275,59.2856905 268.333333,59.2856905 L255.47619,59.2856905 L255.952381,61.6666429 C257.142857,61.9047619 258.809524,61.9047619 260,61.9047619 C260,64.7619286 260.47619,76.9047381 260.238095,80.4761667 C259.52381,80.7142857 257.142857,81.1904286 256.190476,81.4285238 L255.952381,83.5713571 L270.714286,83.5713571 L270.714286,81.9046667 C269.761905,81.6665476 266.428571,80.9523095 265.714286,80.9523095 C265.714286,80.2380476 265.47619,63.0951667 265.47619,62.1428095 C266.904762,62.1428095 269.285714,62.1428095 270.238095,62.3809286 C272.857143,63.0951905 273.571429,65.7142381 273.571429,67.6190476 L273.333333,67.8571429 Z M98.8095238,12.857119 C97.1428571,13.0952381 90,14.5238095 87.6190476,14.9999524 C85,15.7142381 60.7142857,34.7618571 59.047619,39.2857143 C58.8095,40.7143095 59.047619,57.3809762 59.047619,57.3809762 L72.8571429,58.3333333 L72.3809524,62.857119 C70.4761905,62.619 57.6190476,62.857119 49.5237857,62.857119 C45.4761667,62.857119 33.0952381,63.3333333 28.8095,63.0952381 L29.2856905,58.8095476 C31.9047619,59.0476667 35.9523571,58.5714286 38.3333095,57.8571905 C40.7142619,57.1429524 42.6190238,56.1905 42.6190238,53.8095476 L42.6190238,39.5238333 C41.6667143,36.9047619 21.428619,11.428619 16.1904762,7.38097619 C14.7619048,6.9047381 4.52383333,5.7142619 2.14288095,5.23811905 L2.61907143,0.952428571 L49.0476429,0.952428571 L48.3333571,5.00007143 C46.1905238,5.47628571 36.4285952,5.71433333 33.8095238,6.42866667 C40.4761905,16.1905952 50.952381,29.0477143 54.2857381,33.809619 C56.1905,31.1905476 74.0476429,18.5715476 74.5238333,14.762 C71.9047619,14.2857857 63.5714286,13.0953095 62.142881,13.0953095 L61.4285952,8.80961905 L101.428595,8.80961905 L98.8095238,12.8572619 L98.8095238,12.857119 Z M197.857167,50 C190.47619,49.5237857 177.619071,49.761881 170.238095,50 L170.714286,46.1904524 C171.904762,46.1904524 177.857143,45.2380952 179.285738,44.9999762 L179.285738,31.666619 C175.71431,31.666619 155.238095,32.1428333 152.142905,32.8570952 L152.142905,44.7618571 C152.142905,44.7618571 160.952429,45.7142143 162.85719,45.9523333 L162.380976,50 C154.523833,49.5237857 138.571452,49.5237857 130.952405,50 L131.428595,45.7143095 C133.809548,45.7143095 140.238119,45.0000476 141.66669,44.7619524 C141.90481,41.9047857 141.90481,37.142881 141.90481,32.3809762 L141.90481,26.4285952 C141.90481,24.2857619 141.90481,18.5714762 141.66669,16.4285714 C140.000024,16.4285714 132.619071,15.7143095 130.714286,15.7143095 L131.190476,11.9047619 C137.857143,12.3809762 158.095238,12.3809762 163.571452,11.9047619 L163.095262,15.4761905 C161.428595,15.4761905 154.285738,16.6666667 152.142857,16.6666667 L152.142857,27.1428333 L179.285714,27.1428333 L179.285714,11.6666429 C177.380952,11.4285238 172.380976,10.4761667 170.238095,10.2380476 L170.714286,6.66661905 C175.238071,6.9047381 193.333333,6.9047381 198.095238,6.66661905 L197.857119,10.4761667 C196.428524,10.4761667 191.190452,11.4285238 189.285667,11.6666429 L189.285667,45.4761905 C189.285667,45.4761905 196.904714,46.4285476 198.571357,46.6666667 L197.857095,50 L197.857167,50 Z M334.761929,54.0476429 L329.761905,54.2857619 L330.714262,45.7143095 L335.714286,45.9524286 L340.47619,45.7143095 L339.523833,54.0476429 L334.761929,54.0476429 Z M340.47619,38.8095714 L333.095214,38.8095714 L333.095214,0.476214286 L349.761881,0.476214286 L348.333333,6.1905 L340.47619,38.8095714 Z" id="Shape"></path>
            <path d="M229.523786,45.9524286 L225.714238,45.9524286 C219.523738,45.7143095 207.618976,42.381 207.618976,31.6667143 L207.618976,31.1905 L207.618976,30.7142857 C207.618976,20.238119 219.523738,16.6666905 225.714238,16.4285714 L229.523786,16.4285714 C235.714262,16.6666905 247.619024,20 247.619024,30.7142857 L247.619024,31.6666429 C247.619024,42.1428095 235.714262,45.7142381 229.523786,45.9523571 L229.523786,45.9524286 Z M258.095214,30.952381 C258.095214,18.8095 246.428548,11.4285476 228.571429,10.9524048 L226.666667,10.9524048 C207.857167,11.428619 197.380952,18.8095238 197.380952,30.952381 L197.380952,31.4285952 C197.380952,42.8571429 208.809524,50.9524286 226.666667,51.4285714 L228.571429,51.4285714 C246.428571,50.9523571 257.857143,43.3333571 258.095238,31.4285952 L258.095214,30.952381 Z M296.66669,41.9047857 L291.428595,41.9047857 C284.761929,41.4285714 272.619071,37.381 272.380976,25.952381 C272.619071,14.5238333 284.761929,10.7143095 291.428595,10.2380714 L296.66669,10.2380714 C303.333333,10.7142857 315.47619,14.5237619 315.71431,25.952381 C315.71431,37.3809048 303.33331,41.6666667 296.66669,41.9047857 Z M327.380952,25.9523571 C327.380952,25.9523571 327.380952,25.7142619 327.380952,25.9523571 C326.904762,13.0952381 314.761905,4.76190476 295,4.28569048 L293.571429,4.28569048 C273.809524,4.76190476 261.428571,12.3809048 261.190476,25.7142619 L261.190476,26.1904762 C261.666667,39.5238333 273.809524,47.3809286 293.571429,47.8571667 L295,47.8571667 C314.523833,47.3809286 326.904762,39.5238333 327.380952,25.9523571 C327.380952,26.1904762 327.380952,26.1904762 327.380952,25.9523571 Z M98.8095238,39.2857143 C99.5238095,37.6190238 105.238095,25.238119 105.238095,25.238119 L110.714286,39.2857143 L98.8095238,39.2857143 Z M128.33331,55.4761667 C126.190476,52.1428571 118.571381,32.857119 114.999952,24.2856667 L121.428524,23.3333095 L122.14281,20 L112.380881,20 C108.809452,20 93.571381,20 92.1427857,19.761881 L91.9046667,23.0951905 L99.5237143,24.9999286 C99.5237143,24.9999286 88.3332381,47.3808571 85.9522857,50.4761429 C84.0475238,50.9523571 79.0475476,52.1428333 77.1427619,52.380881 L76.6665714,56.4285238 C78.0951667,56.1904048 97.8570238,56.4285238 99.7618095,56.4285238 L100.238,52.6189762 L93.3332619,50.9522857 C93.3332619,50.9522857 96.4285,44.5236905 96.9046905,43.8094286 C99.0475238,43.3332143 111.90469,43.0951667 111.90469,43.0951667 L116.428476,55.4761429 C116.428476,55.4761429 110.952286,56.4285 108.809429,56.4285 L108.333238,60.4761429 L136.666548,60.4761429 L137.142738,56.9047143 C135.476071,57.1428333 130.238,55.7142381 128.333214,55.476119 L128.33331,55.4761667 Z M302.857143,80.4762381 C300.238119,75.0000714 295.952357,64.5238333 294.761905,61.6667381 L297.857167,61.1905238 L298.095238,59.0476667 L285.47619,59.523881 L285.47619,61.1905714 L288.809524,61.6667857 C286.666667,66.4286905 280.952381,78.5715714 280,80.0001429 C279.047619,80.2382619 278.095238,80.7144048 277.142857,80.9525 L276.904762,82.8572381 C279.761905,82.619119 286.190476,82.8572381 287.142857,82.8572381 L287.142857,81.1905476 L284.047619,80.2381905 C284.047619,80.2381905 285.952381,75.4762857 286.666667,74.0476905 L295.47619,74.0476905 L297.857143,80.2381905 C297.857143,80.2381905 295.714262,80.7144048 294.047595,80.9524524 L293.8095,82.6191429 L306.666643,82.6191429 L306.904714,80.7144048 C305.476167,81.190619 302.857143,80.4762857 302.857143,80.4762857 L302.857143,80.4762381 Z M287.380952,72.381 C287.857143,71.1905238 291.190476,63.3334048 291.190476,63.3334048 L294.761905,72.381 L287.380952,72.381 Z M249.761905,80.4762381 C248.095238,77.1429286 243.809524,66.6667381 241.666667,61.6667381 L245,60.9524762 L245,59.0477381 L232.142857,59.5239524 L232.142857,61.1906429 L235.47619,61.6668571 C233.333333,66.4287619 227.619048,78.5716429 226.666667,80.0002143 C225.71431,80.4764286 224.761905,80.7144762 223.809524,80.9525714 L223.571405,82.8573095 L233.8095,82.8573095 L233.8095,81.190619 L230.714262,80.2382619 C230.714262,80.2382619 232.619024,75.4763571 233.33331,74.0477619 L242.142833,74.0477619 L244.523786,80.2382619 C244.523786,80.2382619 242.380929,80.7144762 240.714262,80.9525238 L240.476167,82.6192143 L253.33331,82.6192143 L253.571405,80.7144762 C252.380929,81.1906905 249.761881,80.4763571 249.761881,80.4763571 L249.761905,80.4762381 Z M234.285714,72.381 C234.761905,71.1905238 238.095238,63.3334048 238.095238,63.3334048 L241.666667,72.381 L234.285714,72.381 Z" id="Shape"></path>
        </g>
    </g>
</svg>