<svg viewBox="0 0 325 165.05" xmlns="http://www.w3.org/2000/svg"><defs><style>.cls-1{fill:none}.cls-3,.cls-4{fill:#7d7d7d}.cls-3{fill-rule:evenodd}</style></defs><g id="BW_OL_" data-name="BW(OL)"><path class="cls-1" transform="translate(-19.67 -61.36)" d="m331.11 148.93-.57-.18.58-.17a17.49 17.49 0 0 0 11.22-23.78 57.55 57.55 0 0 0-14.85-20.42 17.44 17.44 0 0 0-11.55-4.38 17.47 17.47 0 0 0-14.51 7.71l-.34.5V79.72a17.5 17.5 0 0 0-17.47-17.49c-.46 0-.92 0-1.38.05a86.77 86.77 0 0 0-30.41 8.15A17.48 17.48 0 0 0 244.24 95l14.25 24.69-.54-.26a17.58 17.58 0 0 0-7.66-1.77 17.46 17.46 0 0 0-16.57 11.9q-.26.79-.5 1.57a31.37 31.37 0 0 0-8.37-5.74 34.62 34.62 0 0 0-14.76-3.39 33.23 33.23 0 0 0-11.24 2 18.82 18.82 0 0 0-20.57 2v-3.44a18.81 18.81 0 1 0-37.61 0V133a33.16 33.16 0 0 0-3.38-3.1 34.94 34.94 0 0 0-43.73.53A19 19 0 0 0 60 135.87l-.8 2.58-2.59-5.3a19 19 0 0 0-25.39-8.74 19 19 0 0 0-8.73 25.39l18 36.9a18.09 18.09 0 0 0-11 12.17 18.28 18.28 0 0 0 2.77 16c2.63 3.58 7.83 7.89 17.6 8.13H51c16.68 0 24-9.71 27.18-17.86.36-.92 5.47-17.31 5.47-17.31.34.77.7 1.53 1.09 2.26 5.92 11.28 16.63 17.49 30.16 17.49h.44c13.73-.14 22.29-4.91 27.54-10.07a18.78 18.78 0 0 0 28.36 5.73v3.44a18.81 18.81 0 0 0 37.61.5h.48c12.25 0 19.81-5.13 24-9.43 8.2-8.43 10.13-20.22 10.51-28.24a17.46 17.46 0 0 0 8.83.1l.58-.15-.4.44A17.49 17.49 0 0 0 256 196a58.7 58.7 0 0 0 23.35 9.45 17.6 17.6 0 0 0 2.91.24 17.42 17.42 0 0 0 17.47-16.88v-.6l.32.51a17.49 17.49 0 0 0 26 4.22 58.7 58.7 0 0 0 15.5-19.86 17.49 17.49 0 0 0-10.38-24.16Z"/><path class="cls-1" transform="translate(-19.67 -61.36)" d="M341.51 173.12a17.78 17.78 0 0 0 .28-14.43c-3.21-7.83-11.23-9.92-11.23-9.92a17.51 17.51 0 0 0 11.79-23.95 57.55 57.55 0 0 0-14.85-20.42A17.54 17.54 0 0 0 316 100h-.08a17.24 17.24 0 0 0-14.76 8.21V79.74a17.44 17.44 0 0 0-17.46-17.49h-.1c-4.15 0-11.79 1.38-16.86 2.74a86.68 86.68 0 0 0-14.83 5.47A17.48 17.48 0 0 0 244.26 95l14.25 24.69a17.5 17.5 0 0 0-24.77 9.87q-.26.79-.5 1.58a31.38 31.38 0 0 0-8.37-5.74 34.61 34.61 0 0 0-14.76-3.31 33.24 33.24 0 0 0-11.24 1.91 18.82 18.82 0 0 0-20.57 2v-3.44a18.81 18.81 0 1 0-37.61 0v10.38a34.54 34.54 0 0 0-25.06-10.47 35.46 35.46 0 0 0-22 8A19 19 0 0 0 60 135.9l-.8 2.58-2.58-5.3a18.85 18.85 0 0 0-25.39-8.74 19 19 0 0 0-8.74 25.39l18 36.89a18.09 18.09 0 0 0-11 12.19 18.28 18.28 0 0 0 2.77 16c2.63 3.58 7.83 7.89 17.59 8.13h1.41c4.95 0 21.45-1.29 27.15-18.62 1.59-4.85 3.36-10.58 5.2-16.49.34.75.69 1.49 1.07 2.21 5.93 11.25 16.77 17.44 30.52 17.44 13 0 22-4.37 27.67-10.06a18.78 18.78 0 0 0 28.35 5.72v3.44a18.81 18.81 0 0 0 37.61.49s.31 0 .83 0c3.25 0 15.3-.62 23.63-9.5 2.43-2.6 9.49-9.78 10.47-28.19a17.46 17.46 0 0 0 4.65.63 21 21 0 0 0 4.79-.69A17.55 17.55 0 0 0 256 196a58.71 58.71 0 0 0 23.35 9.45 17.48 17.48 0 0 0 20.37-16.63v-.6l.32.51A17.49 17.49 0 0 0 326 193a58.71 58.71 0 0 0 15.51-19.88Z"/><path transform="translate(-19.67 -61.36)" d="M333.24 148.83a18.22 18.22 0 0 0 9.7-9.18 18.69 18.69 0 0 0 .24-15.17 58.43 58.43 0 0 0-15.07-20.74A18.45 18.45 0 0 0 316 99.15h-.09a17.91 17.91 0 0 0-13.91 6.33V79.74a18.34 18.34 0 0 0-18.36-18.38h-.11c-4.23 0-12 1.41-17.09 2.77a87.59 87.59 0 0 0-15 5.52 18.38 18.38 0 0 0-8 25.78l12.89 22.33a18.85 18.85 0 0 0-6.07-1 18.36 18.36 0 0 0-17.42 12.51l-.08.25a32.73 32.73 0 0 0-7.56-4.94 35.52 35.52 0 0 0-15.14-3.4 34.06 34.06 0 0 0-11.12 1.82 19.71 19.71 0 0 0-19.74 1.22v-1.67a19.7 19.7 0 1 0-39.41 0v8.25a35.78 35.78 0 0 0-24.16-9.23 36.33 36.33 0 0 0-21.89 7.58 19.66 19.66 0 0 0-9.7-6.64 19.88 19.88 0 0 0-24.88 13.12l-.13.42-1.59-3.26a19.74 19.74 0 0 0-26.59-9.15 19.88 19.88 0 0 0-9.15 26.59l17.58 36a18.94 18.94 0 0 0-10.59 12.4 19.17 19.17 0 0 0 2.91 16.75c2.75 3.74 8.16 8.25 18.29 8.5h1.41c5.08 0 22.13-1.39 28-19.23 1.25-3.8 2.59-8.1 4-12.66l.52-1.67.1.19c6.1 11.56 17.22 17.92 31.31 17.92s22.64-5 27.47-9.51a19.67 19.67 0 0 0 27.65 6v1.67a19.7 19.7 0 0 0 39.36 1.4c3.57 0 15.76-.72 24.26-9.78l.14-.15c2.57-2.74 9.32-9.92 10.5-27.53a18.37 18.37 0 0 0 3.82.4 17.32 17.32 0 0 0 2.47-.2 18.18 18.18 0 0 0-3.31 12.95 18.38 18.38 0 0 0 7.84 13 59.61 59.61 0 0 0 23.71 9.59 18.5 18.5 0 0 0 3.05.26 18.3 18.3 0 0 0 18.19-15.76 18.39 18.39 0 0 0 26.15 2.81 59.61 59.61 0 0 0 15.74-20.17 18.74 18.74 0 0 0 .31-15.15 18.27 18.27 0 0 0-9.34-9.43ZM314.88 197a17.39 17.39 0 0 1-14.88-8.24l-.32-.51v.6a17.48 17.48 0 0 1-20.37 16.63A58.71 58.71 0 0 1 256 196a17.55 17.55 0 0 1-2.72-26.58 21 21 0 0 1-4.79.69 17.46 17.46 0 0 1-4.65-.63c-1 18.42-8 25.6-10.47 28.19-8.33 8.88-20.38 9.5-23.63 9.5h-.83a18.81 18.81 0 0 1-37.61-.49v-3.44a18.78 18.78 0 0 1-28.35-5.72c-5.62 5.69-14.71 10.06-27.67 10.06-13.75 0-24.58-6.2-30.52-17.44-.38-.72-.73-1.46-1.07-2.21-1.85 5.91-3.61 11.64-5.2 16.49-5.7 17.33-22.2 18.62-27.15 18.62h-1.41c-9.77-.24-15-4.55-17.59-8.13a18.28 18.28 0 0 1-2.77-16 18.09 18.09 0 0 1 11-12.19l-18-36.89a19 19 0 0 1 8.74-25.39 18.85 18.85 0 0 1 25.39 8.74l2.58 5.3.8-2.58a19 19 0 0 1 33.56-5.47 35.46 35.46 0 0 1 22-8 34.54 34.54 0 0 1 25.06 10.47v-10.34a18.81 18.81 0 1 1 37.61 0V126a18.82 18.82 0 0 1 20.57-2 33.24 33.24 0 0 1 11.24-1.93 34.61 34.61 0 0 1 14.76 3.31 31.38 31.38 0 0 1 8.37 5.74q.24-.79.5-1.58a17.5 17.5 0 0 1 24.77-9.87L244.26 95a17.48 17.48 0 0 1 7.6-24.52A86.68 86.68 0 0 1 266.7 65c5.07-1.36 12.71-2.74 16.86-2.74h.1a17.44 17.44 0 0 1 17.46 17.49v28.51a17.24 17.24 0 0 1 14.76-8.26h.12a17.54 17.54 0 0 1 11.55 4.37 57.55 57.55 0 0 1 14.85 20.42 17.51 17.51 0 0 1-11.79 23.95s8 2.09 11.23 9.92a17.78 17.78 0 0 1-.28 14.43A58.71 58.71 0 0 1 326 193a17.52 17.52 0 0 1-11.12 4Z" style="fill:#d8d9da"/><path class="cls-3" transform="translate(-19.67 -61.36)" d="M166.13 188.63a6.64 6.64 0 1 1-13.28 0v-66.07a6.64 6.64 0 1 1 13.28 0z"/><path class="cls-4" transform="translate(-19.67 -61.36)" d="M108.65 170.14h24.34a7.12 7.12 0 0 0 6.46-7.39v-.34c-1.18-24.24-16.75-27.75-23.81-27.75-7.34 0-24 4.33-24 31.29.13 10.14 2.3 29.51 23.62 29.51 18.41 0 22.54-10.64 22.54-13.35 0-4-3.33-7.4-7.1-6.12-3.06 1-7.24 7.12-14 7.12-9.66 0-10.91-8.83-10.91-10.71.01-1.58.82-2.18 2.86-2.26zm-2.89-11.87c.44-9.17 7.39-10.68 10.51-10.68s10.11 1.53 10.49 10.84c0 .49-.26.78-.55.78h-19.87c-.34 0-.61-.32-.58-.93zM54.18 187l-20.74-42.5a6.82 6.82 0 0 1 12.26-6l16.06 32.91 9.88-31.93a6.82 6.82 0 1 1 13 4s-11.11 36.33-17.78 57.2c-2.21 6.91-8 10.33-16.67 10.12s-9.91-5.27-9-8.6c1-3.67 4.11-4.78 7.11-4.76 7.81.09 8.8-4.61 5.88-10.44zM231.72 162.23c0-8.71-1.07-20.65-12.07-25.88a21.63 21.63 0 0 0-19.73.5 35.07 35.07 0 0 0-3.38 2.21 6.64 6.64 0 0 0-13.08 1.57v66.07a6.64 6.64 0 1 0 13.28 0v-17.34s4.46 5.47 11.56 5.65c25.21.66 23.56-26.76 23.42-32.78zm-13.15 5c0 5.25 0 14.67-9.54 14.67s-9.54-9.42-9.54-14.67v-4.79c0-5.25 0-14.67 9.54-14.67s9.54 9.42 9.54 14.67z"/><path class="cls-3" transform="translate(-19.67 -61.36)" d="m252.64 130.34 23.18 11.31a5.31 5.31 0 0 1-1 9.93l-25 6.24a5.33 5.33 0 0 1-6.57-4.57 45.76 45.76 0 0 1 2.09-19.84 5.31 5.31 0 0 1 7.3-3.07zM261.93 178.07l17.26-19.17a5.31 5.31 0 0 1 9.26 3.74l-.9 25.78a5.32 5.32 0 0 1-6.2 5.06 46.18 46.18 0 0 1-18.49-7.48 5.32 5.32 0 0 1-.93-7.93zM302.84 152.56l24.53 8a5.32 5.32 0 0 1 3.16 7.34 46.18 46.18 0 0 1-12.26 15.72 5.32 5.32 0 0 1-7.9-1.28l-13.67-21.88a5.31 5.31 0 0 1 6.14-7.9zM327.78 136.91 303 144a5.31 5.31 0 0 1-5.87-8.08l14.43-21.38a5.31 5.31 0 0 1 7.92-1 45.76 45.76 0 0 1 11.73 16.14 5.33 5.33 0 0 1-3.43 7.23zM269.85 76.75a74.22 74.22 0 0 0-12.75 4.7 5.31 5.31 0 0 0-2.3 7.45l24.23 42a5.31 5.31 0 0 0 9.92-2.66v-48.5a5.31 5.31 0 0 0-5.72-5.3 74.22 74.22 0 0 0-13.38 2.31z"/></g></svg>