<?xml version="1.0" encoding="UTF-8"?>
<svg width="300px" height="147px" viewBox="0 0 300 147" version="1.1" xmlns="http://www.w3.org/2000/svg" xmlns:xlink="http://www.w3.org/1999/xlink">
    <!-- Generator: Sketch 49.1 (51147) - http://www.bohemiancoding.com/sketch -->
    <title>Yelp_Logo</title>
    <desc>Created with Sketch.</desc>
    <defs>
        <polygon id="path-1" points="300.371882 146.786962 0.369422205 146.786962 0.369422205 0.41378148 300.371882 0.41378148"></polygon>
    </defs>
    <g id="Page-1" stroke="none" stroke-width="1" fill="none" fill-rule="evenodd">
        <g id="Yelp_Logo" transform="translate(-1.000000, -1.000000)">
            <g id="g1338" transform="translate(151.128112, 74.286958) scale(-1, 1) rotate(-180.000000) translate(-151.128112, -74.286958) translate(0.628112, 0.786958)">
                <g id="g1340-Clipped" transform="translate(-0.000000, 0.000000)">
                    <mask id="mask-2" fill="white">
                        <use xlink:href="#path-1"></use>
                    </mask>
                    <g id="path1344"></g>
                    <g id="g1340" mask="url(#mask-2)">
                        <g transform="translate(-1.000000, -4.926068)">
                            <g id="g1346" transform="translate(0.531991, 0.916240)">
                                <path d="M295.564073,68.9649503 C293.647832,70.4132142 293.332564,70.6348873 281.815417,74.4279595 C291.790705,76.8811413 292.219272,77.1422229 293.987731,78.3047749 C297.992624,81.0190383 300.130537,85.5214644 299.820195,90.3982716 L299.780787,90.9302869 C298.967985,98.7578088 288.884324,113.52616 282.096203,116.841404 C277.618407,118.979317 272.638153,118.678827 268.717003,116.043381 C266.869727,114.821716 266.623424,114.65423 259.042205,104.304561 C258.303295,116.398058 256.879661,137.723006 256.529911,139.718063 L256.45602,140.176187 L256.34272,140.619534 C255.047164,145.304224 251.372318,148.821437 246.505363,150.043101 C238.382277,152.067715 216.899695,146.013578 211.136195,140.07274 C207.751987,136.540749 206.451505,131.787094 207.618983,127.329002 L207.855434,126.44231 L208.254445,125.619657 C208.806165,124.481735 210.259355,122.072888 222.727233,102.511472 L227.323254,95.2701527 C216.160784,99.8366176 215.717438,99.8513958 213.407112,99.8711001 C209.008134,100.063217 204.599303,97.7085563 201.944153,93.550955 L201.894892,93.4721379 C200.525445,91.2652595 199.678161,88.2652842 199.151072,85.1224529 C195.555043,89.9697037 190.141294,93.8563712 181.934465,95.4671954 C176.116779,96.6346735 170.658695,95.9302458 165.515881,93.8514452 C160.80656,96.8563466 154.333707,97.2060974 148.919958,94.1174528 C147.250021,93.1667217 145.9988,92.0337261 145.018512,90.8268395 L145.018512,97.467179 L144.501275,101.412959 L144.343641,102.122313 C143.25498,106.403066 140.023479,110.013874 135.698392,111.787258 L135.658983,111.806963 C130.910254,113.723203 125.585174,113.265079 121.06797,110.560667 C116.255202,107.718326 113.787242,102.999153 113.787242,96.5460043 L113.787242,83.0042437 C112.07297,85.6741725 109.954761,87.9894244 107.447392,89.8908866 C100.688827,95.0139972 91.6248625,96.743047 81.2505635,94.8809933 C75.2358347,93.836667 70.2063194,91.2110728 66.2211304,87.3588877 C66.1570916,87.4820394 66.0930527,87.6347475 66.0290138,87.7578992 C64.0043999,91.3834851 60.7187126,93.8760755 56.5118507,94.9795147 C49.4872779,96.9056072 40.571095,94.5164643 36.8913223,81.9549912 C36.8913223,81.9549912 36.2952681,79.9254513 35.4775408,77.1520751 C33.8667166,80.1077158 29.6894111,88.181541 29.5169987,88.4229184 C25.7534829,94.127305 18.216599,96.600191 11.4777381,93.9204101 C4.96547642,91.4672283 1.19703449,85.7382114 1.19703449,79.0042766 C1.19703449,76.8811413 1.56648958,74.6693368 2.33988224,72.4230499 L2.53199889,71.8762564 C2.53199889,71.8762564 15.9111992,44.6252489 19.7830886,36.7386142 C13.5614649,35.0982336 9.12800377,30.4578777 8.40879786,24.093398 C8.33490684,23.4874916 8.2954983,22.8766592 8.2954983,22.2756789 C8.2954983,18.2264511 9.97528745,14.3594879 13.0590059,11.5220728 C17.7387704,7.20191123 25.0096466,5.77335155 33.5465222,7.52210565 C42.822308,9.34475076 48.1572395,14.9358378 51.8961251,26.7928832 L57.5857335,44.6695835 C59.437935,37.1425518 62.8073654,32.226336 66.0043835,29.0736526 C70.6004048,24.5268919 79.0190548,19.4973766 92.9549008,21.3791346 C103.309495,22.8273985 110.476924,27.4628284 114.348814,32.9110595 L114.600043,31.5957994 C115.703482,27.7091318 118.703458,24.2559582 122.732981,22.4185349 C126.944769,20.467812 131.821576,20.5022945 136.097403,22.5072041 C138.328912,23.4776395 140.220522,25.0096466 141.693416,26.925887 L141.693416,21.2904654 C141.693416,11.975271 147.082535,8.01471243 150.294331,6.47777926 C154.486415,4.36942221 159.506078,4.2019359 163.8755,6.09847203 C168.003545,7.88663467 171.067559,11.2905476 172.26952,15.4235185 L172.45671,16.0589813 L173.018282,19.9013142 C173.018282,19.9013142 173.018282,21.3840606 173.018282,21.551547 C178.619221,20.9801231 184.466464,21.8914456 189.614205,24.5613744 C191.890048,25.7436307 193.880179,27.1672643 195.65849,28.8027189 L199.44171,28.8027189 C201.500806,27.7189839 203.840689,27.0441126 206.357909,27.0441126 C208.884982,27.0441126 211.219938,27.7189839 213.274109,28.8027189 L224.244462,28.8027189 C231.510412,24.7140825 242.131014,21.6155858 247.815697,22.5909473 C252.712208,23.4579352 256.569319,26.6106187 258.199848,31.0293015 L258.283591,31.2509746 C258.97324,33.2608103 259.08654,33.6351915 259.135801,44.9897779 C265.36235,34.9307473 265.687471,34.6647396 267.436225,33.2854406 C271.194815,30.3544302 276.135661,29.7091154 280.6972,31.5465387 C288.022263,34.4874012 299.214289,48.7138852 300.337432,56.5217028 C300.431028,57.2015002 300.485214,57.8911497 300.485214,58.566021 C300.485214,62.6546573 298.721682,66.4428035 295.564073,68.9649503 Z M181.895056,95.4770476 C181.909834,95.4671954 181.919687,95.4671954 181.934465,95.4671954 C181.944317,95.4573433 181.954169,95.4573433 181.968947,95.4573433 L181.895056,95.4770476 Z M280.707052,31.5465387 L280.6972,31.5465387 C280.682421,31.5465387 280.677495,31.5317605 280.662717,31.5268344 L280.707052,31.5465387 Z" id="path1348" fill="#FFFFFF" fill-rule="nonzero"></path>
                            </g>
                            <g id="g1350" transform="translate(1.531991, 4.916240)" stroke-linecap="round" stroke-linejoin="round">
                                <path d="M294.564073,64.9649503 C292.647832,66.4132142 292.332564,66.6348873 280.815417,70.4279595 C290.790705,72.8811413 291.219272,73.1422229 292.987731,74.3047749 C296.992624,77.0190383 299.130537,81.5214644 298.820195,86.3982716 L298.780787,86.9302869 C297.967985,94.7578088 287.884324,109.52616 281.096203,112.841404 C276.618407,114.979317 271.638153,114.678827 267.717003,112.043381 C265.869727,110.821716 265.623424,110.65423 258.042205,100.304561 C257.303295,112.398058 255.879661,133.723006 255.529911,135.718063 L255.45602,136.176187 L255.34272,136.619534 C254.047164,141.304224 250.372318,144.821437 245.505363,146.043101 C237.382277,148.067715 215.899695,142.013578 210.136195,136.07274 C206.751987,132.540749 205.451505,127.787094 206.618983,123.329002 L206.855434,122.44231 L207.254445,121.619657 C207.806165,120.481735 209.259355,118.072888 221.727233,98.5114725 L226.323254,91.2701527 C215.160784,95.8366176 214.717438,95.8513958 212.407112,95.8711001 C208.008134,96.0632167 203.599303,93.7085563 200.944153,89.550955 L200.894892,89.4721379 C199.525445,87.2652595 198.678161,84.2652842 198.151072,81.1224529 C194.555043,85.9697037 189.141294,89.8563712 180.934465,91.4671954 C175.116779,92.6346735 169.658695,91.9302458 164.515881,89.8514452 C159.80656,92.8563466 153.333707,93.2060974 147.919958,90.1174528 C146.250021,89.1667217 144.9988,88.0337261 144.018512,86.8268395 L144.018512,93.467179 L143.501275,97.4129593 L143.343641,98.1223131 C142.25498,102.403066 139.023479,106.013874 134.698392,107.787258 L134.658983,107.806963 C129.910254,109.723203 124.585174,109.265079 120.06797,106.560667 C115.255202,103.718326 112.787242,98.9991532 112.787242,92.5460043 L112.787242,79.0042437 C111.07297,81.6741725 108.954761,83.9894244 106.447392,85.8908866 C99.6888274,91.0139972 90.6248625,92.743047 80.2505635,90.8809933 C74.2358347,89.836667 69.2063194,87.2110728 65.2211304,83.3588877 C65.1570916,83.4820394 65.0930527,83.6347475 65.0290138,83.7578992 C63.0043999,87.3834851 59.7187126,89.8760755 55.5118507,90.9795147 C48.4872779,92.9056072 39.571095,90.5164643 35.8913223,77.9549912 C35.8913223,77.9549912 35.2952681,75.9254513 34.4775408,73.1520751 C32.8667166,76.1077158 28.6894111,84.181541 28.5169987,84.4229184 C24.7534829,90.127305 17.216599,92.600191 10.4777381,89.9204101 C3.96547642,87.4672283 0.197034494,81.7382114 0.197034494,75.0042766 C0.197034494,72.8811413 0.566489584,70.6693368 1.33988224,68.4230499 L1.53199889,67.8762564 C1.53199889,67.8762564 14.9111992,40.6252489 18.7830886,32.7386142 C12.5614649,31.0982336 8.12800377,26.4578777 7.40879786,20.093398 C7.33490684,19.4874916 7.2954983,18.8766592 7.2954983,18.2756789 C7.2954983,14.2264511 8.97528745,10.3594879 12.0590059,7.52207276 C16.7387704,3.20191123 24.0096466,1.77335155 32.5465222,3.52210565 C41.822308,5.34475076 47.1572395,10.9358378 50.8961251,22.7928832 L56.5857335,40.6695835 C58.437935,33.1425518 61.8073654,28.226336 65.0043835,25.0736526 C69.6004048,20.5268919 78.0190548,15.4973766 91.9549008,17.3791346 C102.309495,18.8273985 109.476924,23.4628284 113.348814,28.9110595 L113.600043,27.5957994 C114.703482,23.7091318 117.703458,20.2559582 121.732981,18.4185349 C125.944769,16.467812 130.821576,16.5022945 135.097403,18.5072041 C137.328912,19.4776395 139.220522,21.0096466 140.693416,22.925887 L140.693416,17.2904654 C140.693416,7.975271 146.082535,4.01471243 149.294331,2.47777926 C153.486415,0.369422205 158.506078,0.201935897 162.8755,2.09847203 C167.003545,3.88663467 170.067559,7.29054757 171.26952,11.4235185 L171.45671,12.0589813 L172.018282,15.9013142 C172.018282,15.9013142 172.018282,17.3840606 172.018282,17.551547 C177.619221,16.9801231 183.466464,17.8914456 188.614205,20.5613744 C190.890048,21.7436307 192.880179,23.1672643 194.65849,24.8027189 L198.44171,24.8027189 C200.500806,23.7189839 202.840689,23.0441126 205.357909,23.0441126 C207.884982,23.0441126 210.219938,23.7189839 212.274109,24.8027189 L223.244462,24.8027189 C230.510412,20.7140825 241.131014,17.6155858 246.815697,18.5909473 C251.712208,19.4579352 255.569319,22.6106187 257.199848,27.0293015 L257.283591,27.2509746 C257.97324,29.2608103 258.08654,29.6351915 258.135801,40.9897779 C264.36235,30.9307473 264.687471,30.6647396 266.436225,29.2854406 C270.194815,26.3544302 275.135661,25.7091154 279.6972,27.5465387 C287.022263,30.4874012 298.214289,44.7138852 299.337432,52.5217028 C299.431028,53.2015002 299.485214,53.8911497 299.485214,54.566021 C299.485214,58.6546573 297.721682,62.4428035 294.564073,64.9649503 Z" id="path1352" stroke="#7C7C7C" stroke-width="1.97042715"></path>
                                <g id="g1354" transform="translate(180.895056, 22.512097)" stroke="#BDBCBC" stroke-width="1.97042715">
                                    <path d="M0,68.9649503 C0.0197042715,68.9550981 0.0246303394,68.9550981 0.039408543,68.9550981 C0.0541867466,68.945246 0.0591128145,68.945246 0.078817086,68.945246 L0,68.9649503 Z" id="path1356"></path>
                                    <g id="g1358" transform="translate(93.890854, 0.108373)">
                                        <path d="M4.92606787,4.92606788 L4.91128967,4.92606788 C4.90143754,4.92606788 4.89651147,4.91128967 4.88173326,4.9063636 L4.92606787,4.92606788 Z" id="path1360"></path>
                                    </g>
                                </g>
                            </g>
                        </g>
                    </g>
                </g>
            </g>
            <g id="g1362" transform="translate(223.370090, 76.910702) scale(-1, 1) rotate(-180.000000) translate(-223.370090, -76.910702) translate(203.665818, 62.132498)" fill="#E9E9E9" fill-rule="nonzero">
                <path d="M4.92606787,24.6303394 C3.14775737,21.7830721 2.40392112,12.8373329 3.01967961,6.89156896 C3.23150053,4.93099394 3.58125135,3.29553941 4.10834061,2.32510404 C4.81769438,0.970435371 6.00980281,0.16256024 7.36939754,0.118225629 C8.23145942,0.0738910181 8.77825295,0.216746986 25.1722068,5.50241782 C25.1722068,5.50241782 32.4578612,7.81766972 32.4972698,7.83244792 C34.3002106,8.30042437 35.5317276,9.96543531 35.6499532,12.0984227 C35.7681788,14.2905229 34.6302572,16.2166154 32.7780556,16.9161171 C32.7780556,16.9161171 27.6352408,19.014622 27.6352408,19.014622 C10.0097699,26.2854982 9.22652513,26.561358 8.32998078,26.5712101 C6.97531211,26.635249 5.76842548,25.9406734 4.92606787,24.6303394" id="path1364"></path>
            </g>
            <g id="g1366" transform="translate(235.680333, 106.427701) scale(-1, 1) rotate(-180.000000) translate(-235.680333, -106.427701) translate(218.439096, 86.723429)" fill="#E9E9E9" fill-rule="nonzero">
                <path d="M29.5564072,4.92606788 C29.8470453,5.75364728 29.8766017,6.32014508 29.9209363,23.5416784 C29.9209363,23.5416784 29.9652709,31.1524532 29.9800491,31.2361964 C30.0884226,33.0883979 28.886462,34.7928174 26.9061827,35.5563579 C24.8717167,36.3445288 22.6796165,35.8617741 21.4431735,34.324841 C21.4431735,34.324841 17.856996,30.0687183 17.8422178,30.0637922 C5.50241782,15.5565223 4.98518069,14.8964293 4.68961662,14.0294413 C4.50242604,13.5269824 4.42853502,12.9949671 4.48764783,12.4530996 C4.56646492,11.6895591 4.9063636,10.9161664 5.49256568,10.2265169 C8.34968505,6.81275187 22.0786362,1.7635323 26.4529845,2.51229462 C27.9751395,2.78815442 29.0884308,3.65514236 29.5564072,4.92606788" id="path1368"></path>
            </g>
            <g id="g1370" transform="translate(273.364753, 100.432676) scale(-1, 1) rotate(-180.000000) translate(-273.364753, -100.432676) translate(256.123515, 80.728405)" fill="#E9E9E9" fill-rule="nonzero">
                <path d="M19.7042715,4.92606788 C23.8520207,6.57630061 32.8864291,18.0638909 33.5169658,22.4776477 C33.7337128,24.019507 33.2558842,25.3396931 32.1918536,26.1919029 C31.5071301,26.7140661 30.9603366,26.9160349 14.591013,32.295301 C14.591013,32.295301 7.39402788,34.6696657 7.31521079,34.7090742 C5.5664567,35.3888716 3.58617741,34.763261 2.25121302,33.1130283 C0.862061878,31.423387 0.645314892,29.2017304 1.7635323,27.5120891 L4.65513414,22.8076943 C14.3841182,7.00486852 15.1181023,5.89157718 15.8176039,5.33985758 C16.9013389,4.49749997 18.285564,4.34479187 19.7042715,4.92606788" id="path1372"></path>
            </g>
            <g id="g1374" transform="translate(272.305648, 62.226094) scale(-1, 1) rotate(-180.000000) translate(-272.305648, -62.226094) translate(252.601377, 44.984856)" fill="#E9E9E9" fill-rule="nonzero">
                <path d="M14.7782036,4.92606788 C33.3987402,9.42849391 34.11302,9.66494517 34.8519302,10.1476998 C35.9799998,10.9161664 36.5366454,12.1772398 36.4430501,13.7388033 C36.4430501,13.7929901 36.4479762,13.8373247 36.4430501,13.8915114 C35.9602955,18.4579763 27.9554352,30.3544302 24.0096548,32.2854489 C22.6057255,32.950468 21.2067222,32.9061334 20.0540223,32.1376668 C19.3348164,31.6549122 18.797875,30.9652627 8.83736577,17.3200546 C8.83736577,17.3200546 4.33001366,11.1821741 4.27582692,11.1279873 C3.08864456,9.68957551 3.07386635,7.61570093 4.22656624,5.83739043 C5.42360073,3.99996711 7.46299283,3.10342276 9.32504649,3.62065989 C9.32504649,3.62065989 9.24130333,3.49258212 9.22652513,3.46302572 C10.1378477,3.81277654 11.7930065,4.2167141 14.7782036,4.92606788" id="path1376"></path>
            </g>
            <g id="g1378" transform="translate(233.902023, 39.462734) scale(-1, 1) rotate(-180.000000) translate(-233.902023, -39.462734) translate(214.197751, 9.906327)" fill="#E9E9E9" fill-rule="nonzero">
                <path d="M34.4824751,9.85213575 C34.1573546,17.2313854 31.9455502,50.0833321 31.6844686,51.600561 C31.3051613,52.9897121 30.2263525,53.9699996 28.6746411,54.359159 C23.9308377,55.5414153 5.75857335,50.442935 2.39406899,46.9700572 C1.32018619,45.8469137 0.916248625,44.4528365 1.23644304,43.2213195 C1.7635323,42.1375846 24.2707364,6.72408265 24.2707364,6.72408265 C27.6007583,1.32511226 30.3150217,2.16746987 31.2017139,2.44332967 C32.0884061,2.71918947 34.7878913,3.56154707 34.4824751,9.85213575" id="path1380"></path>
            </g>
            <g id="g1382" transform="translate(224.857762, 73.186595) scale(-1, 1) rotate(-180.000000) translate(-224.857762, -73.186595) translate(205.153491, 58.408391)" fill="#7C7C7C" fill-rule="nonzero">
                <path d="M4.92606788,24.6303394 C3.15268344,21.7879982 2.40392112,12.8373329 3.01967961,6.89649503 C3.23642659,4.93592001 3.59110348,3.30046548 4.10834061,2.32510404 C4.81769438,0.975361439 6.00980281,0.172412376 7.36939754,0.123151697 C8.24131155,0.078817086 8.78317902,0.226599122 25.1771329,5.49749175 C25.1771329,5.49749175 32.4627873,7.82259579 32.4923437,7.83737399 C34.3100627,8.30042437 35.5317276,9.97036138 35.6499532,12.1033488 C35.7681788,14.2905229 34.6401093,16.2215415 32.7780556,16.9210432 C32.7780556,16.9210432 27.6401668,19.014622 27.6303147,19.014622 C10.014696,26.2805721 9.22159906,26.566284 8.33490684,26.5761362 C6.97531211,26.6303229 5.76842548,25.9455995 4.92606788,24.6303394" id="path1384"></path>
            </g>
            <g id="g1386" transform="translate(236.931694, 103.398013) scale(-1, 1) rotate(-180.000000) translate(-236.931694, -103.398013) translate(223.931694, 86.398013)" fill="#7C7C7C" fill-rule="nonzero">
                <path d="M25.5564073,2.92606788 C25.8421192,3.75364728 25.8766017,4.32014508 25.9258623,21.5416784 C25.9258623,21.5416784 25.9652709,29.1524532 25.970197,29.2263443 C26.0884226,31.093324 24.881536,32.7928174 22.9061827,33.5514319 C20.8717167,34.3346766 18.6796165,33.851922 17.4480995,32.3199149 C17.4480995,32.3199149 13.85207,28.0539401 13.8422178,28.0539401 C1.50241782,13.5565223 0.98518069,12.8865771 0.684690549,12.0294413 C0.502426038,11.5269824 0.42853502,10.9851149 0.487647834,10.4481735 C0.561538852,9.67970693 0.911289671,8.92109248 1.48763961,8.2117387 C4.34968505,4.81275187 18.0737101,-0.236467701 22.4579106,0.512294616 C23.9800655,0.788154417 25.0884308,1.64529023 25.5564073,2.92606788" id="path1388"></path>
            </g>
            <g id="g1390" transform="translate(275.125966, 96.902988) scale(-1, 1) rotate(-180.000000) translate(-275.125966, -96.902988) translate(258.625966, 81.402988)" fill="#7C7C7C" fill-rule="nonzero">
                <path d="M18.7042715,0.926067875 C22.8421685,2.57630061 31.8667249,14.0589648 32.5021876,18.4776477 C32.7238607,20.0145809 32.241106,21.3396931 31.1820014,22.1869768 C30.4874259,22.70914 29.9603366,22.9111088 13.5762348,28.2903749 C13.5762348,28.2903749 6.38910181,30.6647396 6.29550652,30.7090742 C4.55660456,31.3839455 2.57139921,30.7583349 1.23643482,29.1130283 C-0.152716326,27.423387 -0.359611176,25.1918782 0.748754096,23.507163 L3.64035594,18.7978421 C13.3644139,3.00486852 14.1082502,1.88665111 14.8077518,1.33985758 C15.8914867,0.487647834 17.2707857,0.349717934 18.7042715,0.926067875" id="path1392"></path>
            </g>
            <g id="g1394" transform="translate(274.084123, 57.743224) scale(-1, 1) rotate(-180.000000) translate(-274.084123, -57.743224) translate(257.084123, 42.743224)" fill="#7C7C7C" fill-rule="nonzero">
                <path d="M11.7782036,1.92606788 C30.3987402,6.43834605 31.1179461,6.67479731 31.8519302,7.15755196 C32.9799998,7.91616641 33.5464976,9.18709192 33.4479762,10.7338772 C33.4479762,10.7831379 33.4578283,10.8373247 33.4479762,10.8915114 C32.9701476,15.4629024 24.9603613,27.3544302 21.0145809,29.2854489 C19.6155776,29.9553941 18.2165743,29.9110595 17.0540223,29.1327407 C16.3348164,28.6647643 15.8077271,27.9554105 5.83736577,14.3200546 C5.83736577,14.3200546 1.33493973,8.18710014 1.28075298,8.12798733 C0.0935706255,6.68464944 0.073866354,4.61570093 1.23641837,2.8423165 C2.43837893,1.00489318 4.4679189,0.108348829 6.32997256,0.625585956 C6.32997256,0.625585956 6.25608154,0.492582123 6.23637727,0.467951784 C7.15262589,0.812776535 8.79300649,1.2167141 11.7782036,1.92606788" id="path1396"></path>
            </g>
            <g id="g1398" transform="translate(233.690350, 36.795034) scale(-1, 1) rotate(-180.000000) translate(-233.690350, -36.795034) translate(216.690350, 10.295034)" fill="#7C7C7C" fill-rule="nonzero">
                <path d="M33.4824751,7.85213575 C33.1622807,15.2313854 30.9406241,48.0882582 30.6795425,49.6104131 C30.3051613,50.9897121 29.2263525,51.9749257 27.6795672,52.3640851 C22.9259117,53.5414153 4.75857335,48.4527872 1.39406899,44.9799093 C0.310334055,43.8518398 -0.0886774431,42.4626886 0.236443037,41.2311717 C0.768458367,40.1425107 23.2756625,4.72900872 23.2756625,4.72900872 C26.6007583,-0.665035606 29.3150217,0.172395933 30.20664,0.453181802 C31.0884061,0.724115535 33.7878913,1.56154707 33.4824751,7.85213575" id="path1400"></path>
            </g>
            <g id="g1402" transform="translate(34.770861, 100.750099) scale(-1, 1) rotate(-180.000000) translate(-34.770861, -100.750099) translate(10.770861, 65.250099)" fill="#7C7C7C" fill-rule="nonzero">
                <path d="M8.85213575,2.92606788 C11.1969441,0.753671942 15.6402573,0.137913458 21.0392277,1.23642659 C26.0982994,2.23641837 29.2362046,4.49748353 32.2558842,14.0983898 L47.2951694,61.3492329 C48.0734882,63.8566014 48.0143754,66.0339234 47.1227571,67.6496737 C46.3986251,68.9501556 45.1917385,69.8319218 43.487319,70.28512 C40.8075381,71.0191041 37.462738,70.9452131 35.3543809,63.7433019 L27.4628202,36.9405666 C27.4628202,36.9405666 11.3890607,67.3048489 11.3792086,67.309775 C10.3644386,69.339315 7.38909359,70.792505 4.35956185,69.5905444 C0.408855412,68.0880937 -0.90640471,64.5363988 0.66993701,59.9600817 C0.66993701,59.9600817 20.2215004,20.1722315 20.265835,20.063858 C20.265835,20.063858 20.7978503,18.6451505 20.7978503,18.4136253 C20.7978503,18.4136253 20.9751888,17.3348164 20.9751888,17.2954079 C20.9357802,15.7634008 20.4234692,14.472771 19.5072206,13.6107091 C18.6057501,12.7634254 17.3545289,12.3200793 15.8914867,12.3791921 C15.8914867,12.3791921 12.8422507,12.4481571 12.6107255,12.4481571 C9.47774637,12.0639238 7.50731922,10.265909 7.19205088,7.48760673 C6.97037782,5.69944409 7.54672776,4.12802844 8.85213575,2.92606788" id="path1404"></path>
            </g>
            <g id="g1406" transform="translate(87.679297, 93.503919) scale(-1, 1) rotate(-180.000000) translate(-87.679297, -93.503919) translate(65.179297, 65.003919)" fill="#7C7C7C" fill-rule="nonzero">
                <path d="M31.4824751,33.4824751 L10.5466867,33.4824751 C9.98018885,33.8962648 9.70432905,34.5908404 10.1279709,36.6794932 C10.3939786,37.7780063 10.6796905,38.7632199 11.517122,40.1425189 C11.7880558,40.5563086 12.0688416,40.9799504 12.3397754,41.4035923 C13.8717825,43.3395369 15.945657,44.580906 18.3052436,45.1326256 C25.664789,46.9306404 30.7977517,43.1917549 31.6302572,36.812497 C32.0292687,34.0292687 31.7681871,33.4824751 31.4824751,33.4824751 Z M44.3493644,37.1277654 C43.6744931,43.9552954 41.0390468,49.2853009 36.7188853,52.5512839 C32.1179379,56.043866 25.6056762,57.1571573 17.8963799,55.7778583 C8.23143476,54.1029952 2.4285268,47.1966481 1.09848847,35.7780228 C-0.536966062,22.1278887 1.70932089,11.842259 7.61567627,6.02457279 C12.0688416,1.62559418 18.6549944,-0.123159918 26.6647807,0.960575014 C38.0883321,2.56647314 43.2262209,8.83735755 43.2262209,12.8028422 C43.2262209,15.7190744 41.4626886,18.014622 38.8715769,18.3643728 C37.3888305,18.6599369 36.1376093,18.3643728 33.3691591,15.8865607 C29.3790441,12.4087568 24.7534664,11.0097535 20.6549779,12.0491538 C17.5318509,12.8422507 15.0934473,14.9949424 13.9900081,17.945657 C13.9900081,17.945657 13.4974013,19.8963799 13.5269577,19.6796329 C13.1919851,21.4382392 13.039277,23.1820672 14.1230119,23.891421 L14.4136499,24.0884637 L39.5070397,24.0884637 C41.8222916,24.0884637 42.9946957,24.3889538 43.669567,25.1180119 C45.0488661,26.650019 44.9404926,31.0243673 44.3493644,37.1277654 Z" id="path1408"></path>
            </g>
            <g id="g1410" transform="translate(129.425107, 84.659094) scale(-1, 1) rotate(-180.000000) translate(-129.425107, -84.659094) translate(122.425107, 47.659094)" fill="#7C7C7C" fill-rule="nonzero">
                <path d="M9.85213575,72.8910181 C7.8669304,73.6988933 5.62556951,73.4821463 3.66006843,72.3097421 C1.76845837,71.1915247 0.980287507,69.4871052 0.980287507,66.4083128 L0.980287507,6.57629239 C0.980287507,6.57629239 1.31033405,4.43837893 1.34481653,4.34478364 C1.76845837,2.85218508 2.87189757,1.58125957 4.40390468,0.886683996 C6.1033981,0.0985131361 8.06397311,0.11329134 9.81765327,0.935944675 C11.9999013,1.88174971 13.2856051,4.06399778 13.2856051,6.76840904 L13.2856051,66.713729 C13.2856051,66.713729 12.9062978,69.6102569 12.9062978,69.6644437 C12.556547,71.0535948 11.4087732,72.2555554 9.85213575,72.8910181" id="path1412"></path>
            </g>
            <g id="g1414" transform="translate(174.070200, 101.097383) scale(-1, 1) rotate(-180.000000) translate(-174.070200, -101.097383) translate(151.070200, 64.097383)" fill="#7C7C7C" fill-rule="nonzero">
                <path d="M28.5564072,28.5564073 C20.2707611,28.5564073 18.9505749,35.9110266 18.6894933,41.4627051 C18.6747151,41.4774833 18.5811198,44.7139099 18.5811198,44.7139099 C18.5811198,44.7139099 18.6747151,47.117831 18.6747151,47.2114263 C19.2116565,56.8172586 21.1968618,60.6054048 26.2657857,61.6595834 C29.6696986,62.4477542 32.2706624,62.0635209 34.2213853,60.4921053 C37.1523957,58.1325188 38.4430255,53.1374859 38.3247998,44.8025791 C38.2410567,35.0440386 36.5415633,28.5564073 28.5564072,28.5564073 Z M29.1721657,72.4870806 C23.6204872,73.6200762 18.8717578,72.6693451 14.3052929,69.5757744 C14.3052929,69.5757744 13.7929818,69.1619847 13.5959391,69.0437591 L13.1870755,68.8368643 L11.9358542,68.2752925 L11.5811774,69.6792219 L11.2806872,70.1866069 L11.1772398,70.5018752 L11.1427573,70.5954705 C11.1427573,70.5954705 10.8373411,71.0043341 10.7930065,71.068373 C9.48267244,73.1077651 5.92112536,74.043718 2.70932911,72.2112208 C1.13791346,71.3196025 0.236443037,70.0634552 0.236443037,66.3147175 L0.236443037,7.59106237 C0.236443037,4.37434005 1.24628695,2.37435649 3.45316536,1.32017797 C5.31521902,0.384225073 7.40879786,0.310334055 9.20681264,1.08372671 C10.7338937,1.75367194 11.8570372,2.93592823 12.2757529,4.37434005 L12.645208,6.89156074 L12.645208,17.0540388 L12.5368345,18.6894933 L12.5811691,19.1722479 L12.645208,19.4037731 L13.2511144,21.3397178 L15.0885377,20.118053 C15.0885377,20.118053 15.5515881,19.8126368 15.7486308,19.6057419 L16.3003504,19.2412129 C16.3052764,19.2362868 16.9407392,18.8668317 16.9407392,18.8668317 C16.9505913,18.8668317 17.5318673,18.5811198 17.5318673,18.5811198 C22.4579352,16.2560158 29.049014,16.5269495 34.3543891,19.2609172 C41.0341372,22.7485732 44.3346027,28.9357145 45.0981432,39.3247916 C46.6941892,60.0881677 41.9159033,70.0092684 29.1721657,72.4870806 Z" id="path1416"></path>
            </g>
            <g id="g1418" transform="translate(205.985996, 114.136997) scale(-1, 1) rotate(-180.000000) translate(-205.985996, -114.136997) translate(201.059928, 109.210929)" fill="#231F20" fill-rule="nonzero">
                <path d="M4.92606787,4.92606788 L5.61079131,4.92606788 C6.16743698,4.92606788 6.68960017,4.95562428 6.68960017,5.5812349 C6.68960017,6.14280664 6.21177159,6.20191945 5.78320369,6.20191945 L4.92606787,6.20191945 L4.92606787,4.92606788 Z M4.36449614,6.70437838 L5.83246436,6.70437838 C6.7930476,6.70437838 7.24131978,6.35462756 7.24131978,5.55660456 C7.24131978,4.83739865 6.78319546,4.53690851 6.18221518,4.47286963 L7.33984113,2.70441126 L6.73393479,2.70441126 L5.64034772,4.42360895 L4.92606788,4.42360895 L4.92606788,2.70441126 L4.36449614,2.70441126 L4.36449614,6.70437838 Z M5.66005199,1.7783105 C7.28072832,1.7783105 8.58613631,3.05416208 8.58613631,4.74380336 C8.58613631,6.40388824 7.28072832,7.68466589 5.66005199,7.68466589 C4.03444959,7.68466589 2.7290416,6.40388824 2.7290416,4.70932089 C2.7290416,3.05416208 4.03444959,1.7783105 5.66005199,1.7783105 Z M5.66005199,8.18219874 C7.55166205,8.18219874 9.14278198,6.69452624 9.14278198,4.74380336 C9.14278198,2.75859801 7.55166205,1.27585158 5.66005199,1.27585158 C3.76351586,1.27585158 2.177322,2.75859801 2.177322,4.70932089 C2.177322,6.69452624 3.76351586,8.18219874 5.66005199,8.18219874 Z" id="path1420"></path>
            </g>
        </g>
    </g>
</svg>