<svg fill="none" stroke-linecap="square" stroke-miterlimit="10" viewBox="0 0 805.25 119.54" xmlns="http://www.w3.org/2000/svg"><clipPath id="a"><path d="M0 0h805.25v119.54H0V0z"/></clipPath><g clip-path="url(#a)"><path d="M0 0h805.25v119.54H0z" fill="none"/><path d="M104.46 6.142h167.97v107.02H104.46z" fill="#fce5cd" fill-rule="evenodd"/><path d="M104.46 6.142h167.97v107.02H104.46z" stroke="#757575" stroke-linecap="butt" stroke-linejoin="round"/><path d="M150.51 66.574V53.215h5.922q1.781 0 2.703.36.938.359 1.484 1.28.563.907.563 2.016 0 1.406-.922 2.39-.922.97-2.844 1.235.703.344 1.078.672.766.703 1.453 1.766l2.329 3.64h-2.22l-1.765-2.78q-.781-1.204-1.281-1.829-.5-.64-.906-.89-.39-.266-.797-.36-.297-.078-.985-.078h-2.046v5.937h-1.766zm1.766-7.453h3.796q1.22 0 1.891-.25.688-.266 1.047-.813t.36-1.187q0-.953-.688-1.563t-2.188-.609h-4.218v4.422zm17.785 6.265q-.922.766-1.766 1.094-.828.313-1.797.313-1.594 0-2.453-.781t-.86-1.985q0-.719.329-1.297.328-.593.843-.937.532-.36 1.188-.547.469-.125 1.453-.25 1.984-.235 2.922-.563.016-.343.016-.422 0-1-.47-1.421-.624-.547-1.874-.547-1.156 0-1.703.406t-.813 1.422l-1.61-.219q.22-1.015.72-1.64.5-.641 1.453-.985t2.187-.344q1.25 0 2.016.297.781.282 1.14.735.375.437.516 1.109.078.422.078 1.516v2.187q0 2.281.11 2.89.109.594.406 1.157h-1.703q-.266-.516-.328-1.188zm-.141-3.671q-.89.375-2.672.625-1.016.14-1.437.328t-.657.531q-.218.344-.218.781 0 .656.5 1.094t1.453.438q.937 0 1.672-.407.75-.422 1.093-1.14.266-.563.266-1.64v-.61zm7.782 3.39.234 1.453q-.687.14-1.234.14-.89 0-1.39-.28-.485-.282-.688-.735-.203-.468-.203-1.937v-5.578h-1.203v-1.266h1.203v-2.39l1.625-.985v3.375h1.656v1.266h-1.656v5.672q0 .687.078.89.094.203.281.328.203.11.578.11.266 0 .719-.063zm8.23-1.64 1.688.203q-.407 1.484-1.485 2.312-1.078.813-2.765.813-2.125 0-3.375-1.297-1.235-1.313-1.235-3.672 0-2.453 1.25-3.797 1.266-1.344 3.266-1.344 1.937 0 3.156 1.328 1.234 1.313 1.234 3.703v.438h-7.218q.093 1.594.906 2.453.812.844 2.016.844.906 0 1.546-.469.641-.484 1.016-1.516zm-5.39-2.657h5.406q-.11-1.218-.625-1.828-.781-.953-2.031-.953-1.125 0-1.907.766-.765.75-.843 2.015zm9.266 5.766V53.215h1.781v11.781h6.563v1.578h-8.344zm10.25-11.469v-1.89h1.641v1.89h-1.64zm0 11.469v-9.672h1.641v9.672h-1.64zm4.146 0v-9.672h1.468v1.36q.454-.72 1.204-1.141.765-.438 1.718-.438 1.078 0 1.766.454.687.437.969 1.234 1.156-1.688 2.984-1.688 1.453 0 2.219.797.781.797.781 2.453v6.641h-1.64V60.48q0-.984-.157-1.406-.156-.438-.578-.703t-.984-.266q-1.016 0-1.688.688-.672.672-.672 2.156v5.625h-1.64v-6.281q0-1.094-.406-1.64t-1.313-.548q-.687 0-1.281.36t-.86 1.062q-.25.703-.25 2.031v5.016h-1.64zm15.54-11.469v-1.89h1.641v1.89h-1.64zm0 11.469v-9.672h1.641v9.672h-1.64zm7.724-1.469.234 1.453q-.688.14-1.234.14-.891 0-1.391-.28-.484-.282-.688-.735-.203-.468-.203-1.937v-5.578h-1.203v-1.266h1.203v-2.39l1.625-.985v3.375h1.657v1.266h-1.657v5.672q0 .687.078.89.094.203.282.328.203.11.578.11.265 0 .719-.063z" fill="#000"/><path d="M310.01 6.142h167.97v107.02H310.01z" fill="#fce5cd" fill-rule="evenodd"/><path d="M310.01 6.142h167.97v107.02H310.01z" stroke="#757575" stroke-linecap="butt" stroke-linejoin="round"/><path d="M369.55 66.574V53.215h5.922q1.781 0 2.703.36.938.359 1.484 1.28.563.907.563 2.016 0 1.406-.922 2.39-.922.97-2.844 1.235.703.344 1.078.672.766.703 1.453 1.766l2.329 3.64h-2.22l-1.765-2.78q-.781-1.204-1.281-1.829-.5-.64-.906-.89-.39-.266-.797-.36-.297-.078-.985-.078h-2.046v5.937h-1.766zm1.766-7.453h3.797q1.218 0 1.89-.25.688-.266 1.047-.813t.36-1.187q0-.953-.688-1.563t-2.188-.609h-4.218v4.422zm11.598 7.453V53.215h5.015q1.531 0 2.453.406t1.438 1.25q.531.844.531 1.766 0 .86-.469 1.625-.453.75-1.39 1.203 1.203.36 1.86 1.219t.655 2.015q0 .938-.406 1.75-.39.797-.984 1.235-.578.437-1.453.672-.875.218-2.157.218h-5.093zm1.78-7.75h2.876q1.187 0 1.687-.14.672-.204 1.016-.672t.344-1.172q0-.657-.328-1.157-.313-.515-.907-.703t-2.03-.187h-2.657v4.031zm0 6.172h3.313q.86 0 1.203-.063.61-.109 1.016-.359.422-.266.688-.75t.265-1.125q0-.75-.39-1.297-.375-.547-1.063-.766-.672-.234-1.953-.234h-3.078v4.594zm9.273 1.578 5.125-13.359h1.906l5.469 13.359h-2.016l-1.547-4.047h-5.594l-1.469 4.047h-1.875zm3.859-5.484h4.531l-1.406-3.704q-.625-1.687-.938-2.765-.265 1.281-.718 2.547l-1.47 3.922zm19.584.796 1.766.454q-.563 2.171-2 3.328-1.438 1.14-3.532 1.14-2.156 0-3.515-.875-1.344-.89-2.063-2.547-.703-1.672-.703-3.593 0-2.078.797-3.625.797-1.563 2.266-2.36 1.484-.812 3.25-.812 2 0 3.359 1.015 1.375 1.016 1.906 2.875l-1.734.407q-.469-1.454-1.36-2.11-.875-.672-2.203-.672-1.547 0-2.578.735t-1.453 1.984q-.422 1.234-.422 2.563 0 1.703.5 2.968t1.547 1.907q1.047.625 2.266.625 1.484 0 2.515-.86t1.39-2.547z" fill="#000"/><path d="M529.44 6.142h167.97v107.02H529.44z" fill="#fce5cd" fill-rule="evenodd"/><path d="M529.44 6.142h167.97v107.02H529.44z" stroke="#757575" stroke-linecap="butt" stroke-linejoin="round"/><path d="M543.03 55.574V42.215h1.766v5.484h6.937v-5.484h1.766v13.359h-1.766v-6.297h-6.937v6.297h-1.766zm16.817 0V43.793h-4.406v-1.578h10.578v1.578h-4.406v11.781h-1.766zm11.396 0V43.793h-4.406v-1.578h10.578v1.578h-4.406v11.781h-1.766zm7.99 0V42.215h5.047q1.328 0 2.03.125.97.172 1.641.64.672.454 1.078 1.282t.407 1.828q0 1.703-1.094 2.89-1.078 1.172-3.922 1.172h-3.422v5.422h-1.765zm1.765-7h3.453q1.72 0 2.438-.64t.719-1.798q0-.843-.422-1.437t-1.125-.781q-.438-.125-1.64-.125h-3.423v4.78zm21.633 3.453 1.61.219q-.266 1.656-1.36 2.61-1.078.937-2.672.937-1.984 0-3.187-1.297t-1.203-3.719q0-1.578.515-2.75t1.579-1.75q1.062-.594 2.312-.594 1.578 0 2.578.797t1.281 2.266l-1.593.234q-.235-.969-.813-1.453-.578-.5-1.39-.5-1.235 0-2.016.89t-.781 2.813q0 1.953.75 2.844.75.875 1.953.875.968 0 1.61-.594.655-.594.827-1.828zm2.406-1.297q0-2.687 1.485-3.969 1.25-1.078 3.047-1.078 2 0 3.265 1.313 1.266 1.297 1.266 3.61 0 1.859-.563 2.937-.562 1.062-1.64 1.656-1.063.594-2.328.594-2.031 0-3.281-1.297-1.25-1.313-1.25-3.766zm1.688 0q0 1.86.797 2.797.812.922 2.047.922 1.219 0 2.031-.922.812-.937.812-2.844 0-1.797-.812-2.719t-2.031-.921q-1.235 0-2.047.921-.797.907-.797 2.766zm9.298 4.844v-9.672h1.468v1.375q1.063-1.594 3.078-1.594.875 0 1.61.313t1.094.828q.375.5.515 1.203.094.453.094 1.594v5.953h-1.64v-5.89q0-1-.204-1.485-.187-.5-.672-.797t-1.14-.297q-1.047 0-1.813.672-.75.656-.75 2.516v5.28h-1.64zm10.376 0v-9.672h1.468v1.375q1.063-1.594 3.078-1.594.875 0 1.61.313t1.094.828q.375.5.515 1.203.094.453.094 1.594v5.953h-1.64v-5.89q0-1-.204-1.485-.187-.5-.672-.797t-1.14-.297q-1.047 0-1.813.672-.75.656-.75 2.516v5.28h-1.64zm17-3.11 1.688.204q-.406 1.484-1.484 2.312-1.078.813-2.766.813-2.125 0-3.375-1.297-1.234-1.313-1.234-3.672 0-2.453 1.25-3.797 1.265-1.344 3.265-1.344 1.938 0 3.156 1.328 1.235 1.313 1.235 3.703v.438h-7.219q.094 1.594.906 2.453.813.844 2.016.844.906 0 1.547-.469.64-.484 1.015-1.516zm-5.39-2.656h5.406q-.11-1.218-.625-1.828-.781-.953-2.031-.953-1.125 0-1.906.766-.766.75-.844 2.015zm15.454 2.22 1.61.218q-.266 1.656-1.36 2.61-1.078.937-2.672.937-1.984 0-3.187-1.297t-1.204-3.719q0-1.578.516-2.75t1.578-1.75q1.063-.594 2.313-.594 1.578 0 2.578.797t1.281 2.266l-1.594.234q-.234-.968-.812-1.453-.578-.5-1.39-.5-1.235 0-2.016.89t-.782 2.813q0 1.953.75 2.844.75.875 1.953.875.97 0 1.61-.594.656-.593.828-1.828zm6.594 2.077.234 1.453q-.687.141-1.234.141-.89 0-1.39-.281-.485-.281-.688-.735-.203-.468-.203-1.937v-5.578h-1.204v-1.266h1.204v-2.39l1.625-.985v3.375h1.656v1.266H658.4v5.672q0 .687.078.89.093.203.28.328.204.11.58.11.265 0 .718-.063zm1.605-10v-1.89h1.64v1.89h-1.64zm0 11.47v-9.673h1.64v9.672h-1.64zm3.535-4.845q0-2.687 1.485-3.968 1.25-1.078 3.047-1.078 2 0 3.265 1.312 1.266 1.297 1.266 3.61 0 1.859-.563 2.937-.562 1.063-1.64 1.656-1.063.594-2.328.594-2.031 0-3.281-1.297-1.25-1.312-1.25-3.766zm1.688 0q0 1.86.797 2.797.812.922 2.047.922 1.219 0 2.031-.922.812-.937.812-2.843 0-1.797-.812-2.72t-2.031-.921q-1.235 0-2.047.922-.797.906-.797 2.765zm9.298 4.844v-9.672h1.468v1.375q1.063-1.593 3.078-1.593.875 0 1.61.312t1.094.828q.375.5.515 1.203.094.453.094 1.594v5.953h-1.64v-5.89q0-1-.204-1.485-.187-.5-.672-.797t-1.14-.297q-1.047 0-1.813.672-.75.657-.75 2.516v5.281h-1.64zM547.8 77.574v-9.672h1.469v1.36q.453-.72 1.203-1.141.766-.438 1.719-.438 1.078 0 1.765.454.688.437.969 1.234 1.156-1.688 2.984-1.688 1.454 0 2.22.797.78.797.78 2.453v6.641h-1.64V71.48q0-.984-.156-1.406-.157-.438-.578-.703t-.985-.266q-1.015 0-1.687.688-.672.672-.672 2.156v5.625h-1.64v-6.281q0-1.094-.407-1.64t-1.313-.548q-.687 0-1.28.36t-.86 1.062q-.25.703-.25 2.031v5.016h-1.64zm21.853-1.188q-.922.766-1.766 1.094-.828.313-1.796.313-1.594 0-2.454-.781t-.859-1.985q0-.719.328-1.297.328-.593.844-.937.531-.36 1.187-.547.47-.125 1.453-.25 1.985-.235 2.922-.563.016-.343.016-.422 0-1-.469-1.421-.625-.547-1.875-.547-1.156 0-1.703.406t-.812 1.422l-1.61-.219q.219-1.015.719-1.64.5-.641 1.453-.985t2.188-.344q1.25 0 2.015.297.781.282 1.14.735.376.437.516 1.109.079.422.079 1.516v2.187q0 2.281.109 2.89.11.594.406 1.157h-1.703q-.266-.516-.328-1.188zm-.14-3.671q-.891.375-2.673.625-1.015.14-1.437.328t-.656.531q-.219.344-.219.781 0 .656.5 1.094t1.453.438q.938 0 1.672-.407.75-.422 1.094-1.14.265-.563.265-1.64v-.61zm4.203 4.859v-9.672h1.47v1.375q1.062-1.594 3.077-1.594.875 0 1.61.313t1.093.828q.375.5.516 1.203.094.453.094 1.594v5.953h-1.64v-5.89q0-1-.204-1.485-.187-.5-.672-.797t-1.14-.297q-1.047 0-1.813.672-.75.656-.75 2.516v5.28h-1.64zm16.688-1.188q-.922.766-1.765 1.094-.828.313-1.797.313-1.594 0-2.453-.781t-.86-1.985q0-.719.328-1.297.329-.593.844-.937.531-.36 1.188-.547.468-.125 1.453-.25 1.984-.235 2.922-.563.015-.343.015-.422 0-1-.468-1.421-.625-.547-1.875-.547-1.157 0-1.704.406t-.812 1.422l-1.61-.219q.22-1.015.72-1.64.5-.641 1.452-.985t2.188-.344q1.25 0 2.015.297.782.282 1.141.735.375.437.516 1.109.078.422.078 1.516v2.187q0 2.281.11 2.89.109.594.405 1.157h-1.703q-.265-.516-.328-1.188zm-.14-3.671q-.891.375-2.672.625-1.016.14-1.438.328t-.656.531q-.219.344-.219.781 0 .656.5 1.094t1.453.438q.938 0 1.672-.407.75-.422 1.094-1.14.266-.563.266-1.64v-.61zm3.891 5.656 1.594.234q.11.75.562 1.078.61.453 1.672.453 1.14 0 1.75-.453.625-.453.844-1.265.125-.5.11-2.11-1.063 1.266-2.673 1.266-2 0-3.093-1.438t-1.094-3.453q0-1.39.5-2.562.516-1.172 1.453-1.797.953-.64 2.25-.64 1.703 0 2.812 1.374v-1.156h1.516v8.36q0 2.265-.469 3.203-.453.937-1.453 1.484-.984.547-2.453.547-1.719 0-2.797-.781-1.062-.766-1.031-2.344zm1.36-5.813q0 1.906.75 2.781.765.876 1.906.876 1.125 0 1.89-.86.766-.875.766-2.734 0-1.781-.797-2.672-.781-.906-1.89-.906-1.094 0-1.86.89-.766.875-.766 2.625zm15.953 1.906 1.688.204q-.406 1.484-1.484 2.312-1.079.813-2.766.813-2.125 0-3.375-1.297-1.234-1.313-1.234-3.672 0-2.453 1.25-3.797 1.265-1.344 3.265-1.344 1.938 0 3.156 1.328 1.235 1.313 1.235 3.703v.438h-7.219q.094 1.594.906 2.453.813.844 2.016.844.906 0 1.547-.47.64-.483 1.015-1.515zm-5.39-2.656h5.406q-.11-1.219-.625-1.828-.781-.953-2.031-.953-1.125 0-1.906.766-.766.75-.844 2.015zm9.126 5.766v-9.672h1.468v1.469q.563-1.031 1.032-1.36.484-.328 1.062-.328.828 0 1.688.532l-.563 1.515q-.61-.36-1.203-.36-.547 0-.969.329t-.61.89q-.28.875-.28 1.922v5.063h-1.625zm14.537 3.922q-1.36-1.703-2.297-4t-.938-4.766q0-2.156.703-4.14.828-2.313 2.531-4.594h1.172q-1.093 1.89-1.453 2.703-.547 1.25-.875 2.625-.39 1.703-.39 3.422 0 4.375 2.718 8.75h-1.171zm3.353-3.922v-13.36h1.765V69.7h6.938v-5.484h1.766v13.359h-1.766v-6.297h-6.938v6.297h-1.765zm22.942-4.688 1.765.454q-.562 2.171-2 3.328-1.437 1.14-3.53 1.14-2.157 0-3.516-.875-1.344-.89-2.063-2.547-.703-1.672-.703-3.593 0-2.079.797-3.625.797-1.563 2.266-2.36 1.484-.812 3.25-.812 2 0 3.359 1.015 1.375 1.016 1.906 2.875l-1.734.406q-.469-1.453-1.36-2.109-.875-.672-2.203-.672-1.547 0-2.578.735t-1.453 1.984q-.422 1.234-.422 2.562 0 1.704.5 2.97t1.547 1.905q1.047.625 2.266.625 1.484 0 2.515-.859t1.39-2.547zm3.895 4.688v-13.36h2.656l3.156 9.454q.438 1.328.64 1.984.235-.734.704-2.14l3.203-9.297h2.375v13.359h-1.703V66.402l-3.875 11.172h-1.594l-3.86-11.375v11.375h-1.703zm16.463 3.922h-1.188q2.735-4.375 2.735-8.75 0-1.719-.391-3.39-.313-1.376-.875-2.626-.36-.828-1.469-2.734h1.188q1.703 2.281 2.53 4.594.688 1.984.688 4.14 0 2.469-.937 4.766t-2.281 4z" fill="#000"/><path d="m4.43 56.003 100.28-.913" fill="none"/><path d="m18.138 55.878 86.576-.789" stroke="red" stroke-linecap="butt" stroke-linejoin="round" stroke-width="4"/><path d="m18.138 55.878 4.457-4.54-12.318 4.612 12.4 4.385z" fill="red" fill-rule="evenodd" stroke="red" stroke-linecap="butt" stroke-width="4"/><path d="M272.43 59.654h37.575" fill="none"/><path d="M286.14 59.654h23.866" stroke="red" stroke-linecap="butt" stroke-linejoin="round" stroke-width="4"/><path d="m286.14 59.654 4.498-4.498-12.359 4.498 12.36 4.498z" fill="red" fill-rule="evenodd" stroke="red" stroke-linecap="butt" stroke-width="4"/><path d="M477.98 59.654h51.465" fill="none"/><path d="M491.69 59.654h37.756" stroke="red" stroke-linecap="butt" stroke-linejoin="round" stroke-width="4"/><path d="m491.69 59.654 4.498-4.498-12.359 4.498 12.36 4.498z" fill="red" fill-rule="evenodd" stroke="red" stroke-linecap="butt" stroke-width="4"/><path d="m697.41 60.11 100.28-.913" fill="none"/><path d="m711.12 59.985 86.576-.789" stroke="red" stroke-linecap="butt" stroke-linejoin="round" stroke-width="4"/><path d="m711.12 59.985 4.457-4.54-12.318 4.612 12.4 4.385z" fill="red" fill-rule="evenodd" stroke="red" stroke-linecap="butt" stroke-width="4"/></g></svg>