<svg fill="none" stroke-linecap="square" stroke-miterlimit="10" viewBox="0 0 546.72 463.32" xmlns="http://www.w3.org/2000/svg"><clipPath id="a"><path d="M0 0h546.72v463.32H0V0z"/></clipPath><g clip-path="url(#a)"><path d="M0 0h546.72v463.32H0z" fill="none"/><path d="M3.743 303.91h234.17v128.5H3.743z" fill="#c9daf8" fill-rule="evenodd"/><path d="M3.743 303.91h234.17v128.5H3.743z" stroke="#757575" stroke-linecap="butt" stroke-linejoin="round"/><path d="M25.965 375.08v-11.781h-4.406v-1.578h10.578v1.578H27.73v11.781h-1.766zm7.078 0v-9.672h1.47v1.469q.562-1.031 1.03-1.36.485-.328 1.063-.328.828 0 1.687.532l-.562 1.515q-.61-.36-1.203-.36-.547 0-.969.329t-.61.89q-.28.876-.28 1.922v5.063h-1.626zm12.541-1.188q-.922.766-1.765 1.094-.828.313-1.797.313-1.594 0-2.453-.781t-.86-1.985q0-.719.328-1.297.329-.594.844-.937.531-.36 1.188-.547.468-.125 1.453-.25 1.984-.235 2.922-.563.015-.343.015-.422 0-1-.468-1.421-.625-.547-1.875-.547-1.157 0-1.704.406t-.812 1.422l-1.61-.219q.22-1.015.72-1.64.5-.641 1.452-.985t2.188-.344q1.25 0 2.016.297.78.282 1.14.735.375.437.516 1.109.078.422.078 1.516v2.187q0 2.281.11 2.89.109.594.405 1.157h-1.703q-.265-.516-.328-1.188zm-.14-3.671q-.89.375-2.672.625-1.016.14-1.438.328t-.656.531q-.219.344-.219.781 0 .656.5 1.094t1.453.438q.938 0 1.672-.407.75-.422 1.094-1.14.266-.563.266-1.64v-.61zm4.203 4.859v-9.672h1.47v1.375q1.062-1.594 3.077-1.594.875 0 1.61.313t1.094.828q.375.5.515 1.203.094.453.094 1.594v5.953h-1.64v-5.89q0-1-.204-1.485-.187-.5-.672-.797t-1.14-.297q-1.047 0-1.813.672-.75.656-.75 2.516v5.28h-1.64zm9.72-2.89 1.625-.25q.125.968.75 1.5.625.515 1.75.515t1.672-.453q.547-.469.547-1.094 0-.547-.485-.875-.328-.219-1.672-.547-1.812-.469-2.515-.797-.688-.328-1.047-.906-.36-.594-.36-1.312 0-.641.297-1.188.297-.562.813-.922.375-.281 1.031-.469.672-.203 1.422-.203 1.14 0 2 .328t1.266.891q.422.563.578 1.5l-1.61.219q-.109-.75-.64-1.172-.516-.422-1.469-.422-1.14 0-1.625.375-.469.375-.469.875 0 .313.188.578.203.266.64.438.235.093 1.438.422 1.75.453 2.437.75t1.078.859.391 1.406q0 .828-.484 1.547-.47.719-1.375 1.125-.907.39-2.047.39-1.875 0-2.875-.78-.985-.782-1.25-2.329zm9.984 6.593v-13.375h1.485v1.25q.531-.734 1.187-1.094.672-.375 1.625-.375 1.235 0 2.172.641.953.625 1.438 1.797.484 1.156.484 2.547 0 1.484-.531 2.672t-1.547 1.828q-1.016.625-2.14.625-.813 0-1.47-.344t-1.062-.875v4.703h-1.64zm1.485-8.484q0 1.86.75 2.765.765.891 1.828.891 1.094 0 1.875-.922.781-.937.781-2.875 0-1.844-.765-2.765-.75-.922-1.813-.922-1.047 0-1.86.984-.796.969-.796 2.844zm8.282-.063q0-2.687 1.484-3.969 1.25-1.078 3.047-1.078 2 0 3.266 1.313 1.265 1.297 1.265 3.61 0 1.859-.562 2.937-.563 1.062-1.64 1.656-1.063.594-2.329.594-2.031 0-3.281-1.297-1.25-1.313-1.25-3.766zm1.687 0q0 1.86.797 2.797.813.922 2.047.922 1.219 0 2.031-.922.813-.937.813-2.844 0-1.797-.813-2.718t-2.03-.922q-1.235 0-2.048.922-.797.906-.797 2.765zm9.282 4.844v-9.672h1.47v1.469q.562-1.031 1.03-1.36.485-.328 1.063-.328.828 0 1.687.532l-.562 1.515q-.61-.36-1.203-.36-.547 0-.97.33t-.608.89q-.282.875-.282 1.922v5.062h-1.625zm9.807-1.469.234 1.453q-.687.141-1.234.141-.891 0-1.39-.281-.485-.281-.688-.735-.204-.468-.204-1.937v-5.578H95.41v-1.266h1.203v-2.39l1.625-.985v3.375h1.657v1.266h-1.657v5.672q0 .687.079.89.093.203.28.328.204.11.579.11.266 0 .719-.063zm6.132-1.422 1.625-.25q.125.97.75 1.5.625.516 1.75.516t1.672-.453q.547-.469.547-1.094 0-.547-.485-.875-.328-.219-1.672-.547-1.812-.469-2.515-.797-.688-.328-1.047-.906-.36-.594-.36-1.312 0-.641.297-1.188.297-.562.813-.922.375-.281 1.031-.469.672-.203 1.422-.203 1.14 0 2 .328t1.266.891q.421.563.578 1.5l-1.61.219q-.11-.75-.64-1.172-.516-.422-1.47-.422-1.14 0-1.624.375-.469.375-.469.875 0 .313.188.578.203.266.64.438.235.093 1.438.422 1.75.453 2.437.75t1.078.859.391 1.406q0 .828-.484 1.547-.47.719-1.375 1.125-.907.39-2.047.39-1.875 0-2.875-.78-.985-.782-1.25-2.329zm9.375-1.953q0-2.687 1.484-3.969 1.25-1.078 3.047-1.078 2 0 3.266 1.313 1.265 1.297 1.265 3.61 0 1.859-.562 2.937-.563 1.062-1.64 1.656-1.063.594-2.329.594-2.031 0-3.281-1.297-1.25-1.313-1.25-3.766zm1.687 0q0 1.86.797 2.797.813.922 2.047.922 1.219 0 2.031-.922.813-.937.813-2.844 0-1.797-.813-2.718t-2.03-.922q-1.235 0-2.048.922-.797.906-.797 2.765zm15.61 1.297 1.61.219q-.266 1.656-1.36 2.61-1.078.937-2.672.937-1.984 0-3.187-1.297-1.203-1.297-1.203-3.719 0-1.578.515-2.75t1.579-1.75q1.062-.594 2.312-.594 1.578 0 2.578.797t1.281 2.266l-1.593.234q-.235-.968-.813-1.453-.578-.5-1.39-.5-1.235 0-2.016.89-.781.891-.781 2.813 0 1.953.75 2.844.75.875 1.953.875.969 0 1.61-.594.655-.593.827-1.828zm3.016 3.547v-13.359h1.64v7.625l3.891-3.937h2.11l-3.688 3.593 4.063 6.078h-2.016l-3.203-4.953-1.156 1.125v3.828h-1.64zm15.953-3.11 1.687.204q-.406 1.484-1.484 2.312-1.078.813-2.766.813-2.125 0-3.375-1.297-1.234-1.313-1.234-3.672 0-2.453 1.25-3.797 1.266-1.344 3.266-1.344 1.937 0 3.156 1.328 1.234 1.313 1.234 3.704v.437h-7.219q.094 1.594.907 2.453.812.844 2.015.844.907 0 1.547-.469.64-.484 1.016-1.515zm-5.39-2.656h5.406q-.11-1.218-.625-1.828-.782-.953-2.032-.953-1.125 0-1.906.766-.765.75-.844 2.015zm12.718 4.297.235 1.453q-.688.141-1.235.141-.89 0-1.39-.281-.485-.281-.688-.735-.203-.468-.203-1.937v-5.578h-1.203v-1.266h1.203v-2.39l1.625-.985v3.375h1.656v1.266h-1.656v5.672q0 .687.078.89.094.204.282.329.203.109.578.109.265 0 .718-.063zm7.18 1.47v-8.407h-1.454v-1.266h1.453v-1.03q0-.97.172-1.454.235-.64.828-1.031t1.672-.39q.688 0 1.532.156l-.25 1.437q-.5-.094-.954-.094-.75 0-1.062.328-.313.313-.313 1.188v.89h1.891v1.266h-1.89v8.406h-1.626zm11.104-1.188q-.921.765-1.765 1.093-.828.313-1.797.313-1.594 0-2.453-.781t-.86-1.985q0-.718.329-1.297.328-.593.843-.937.532-.36 1.188-.547.469-.125 1.453-.25 1.984-.234 2.922-.562.015-.344.015-.422 0-1-.468-1.422-.625-.547-1.875-.547-1.156 0-1.703.406t-.813 1.422l-1.61-.219q.22-1.015.72-1.64.5-.64 1.453-.985t2.187-.343q1.25 0 2.016.296.78.282 1.14.735.375.437.516 1.11.078.421.078 1.515v2.187q0 2.282.11 2.89.109.595.406 1.157h-1.703q-.266-.515-.329-1.187zm-.14-3.672q-.89.375-2.672.625-1.016.14-1.438.328t-.656.531q-.219.344-.219.781 0 .657.5 1.094t1.454.438q.937 0 1.671-.407.75-.421 1.094-1.14.266-.563.266-1.64v-.61zm10.516 1.312 1.61.219q-.266 1.656-1.36 2.61-1.078.937-2.672.937-1.984 0-3.188-1.297t-1.203-3.719q0-1.578.516-2.75t1.578-1.75q1.063-.594 2.313-.594 1.578 0 2.578.797t1.28 2.266l-1.593.234q-.234-.968-.812-1.453-.579-.5-1.391-.5-1.234 0-2.016.89t-.78 2.813q0 1.953.75 2.844.75.875 1.952.875.969 0 1.61-.594.656-.593.828-1.828zm6.594 2.078.234 1.453q-.687.141-1.234.141-.891 0-1.391-.281-.484-.281-.687-.735-.204-.468-.204-1.937v-5.578h-1.203v-1.266h1.203v-2.39l1.625-.985v3.375h1.657v1.266h-1.657v5.672q0 .687.079.89.093.204.28.329.204.109.579.109.266 0 .719-.063zm.995-3.375q0-2.687 1.485-3.968 1.25-1.079 3.047-1.079 2 0 3.265 1.313 1.266 1.297 1.266 3.61 0 1.859-.563 2.937-.562 1.062-1.64 1.656-1.063.594-2.328.594-2.031 0-3.281-1.297-1.25-1.313-1.25-3.766zm1.688 0q0 1.86.797 2.797.812.922 2.047.922 1.219 0 2.03-.922.813-.937.813-2.844 0-1.796-.812-2.718t-2.031-.922q-1.235 0-2.047.922-.797.906-.797 2.765zm9.282 4.844v-9.672h1.469v1.47q.562-1.032 1.03-1.36.485-.328 1.063-.328.829 0 1.688.53l-.563 1.516q-.609-.359-1.203-.359-.547 0-.968.328t-.61.89q-.281.876-.281 1.923v5.062h-1.625zm6.15 3.719-.187-1.531q.547.14.937.14.547 0 .875-.187.328-.172.547-.5.156-.25.5-1.219.047-.14.14-.406l-3.671-9.688h1.765l2.016 5.594q.39 1.078.703 2.25.281-1.125.672-2.203l2.078-5.64h1.64l-3.687 9.828q-.594 1.609-.922 2.203-.437.812-1 1.187t-1.344.375q-.484 0-1.062-.203z" fill="#000"/><path d="M307.37 294.36h234.17v128.5H307.37z" fill="#c9daf8" fill-rule="evenodd"/><path d="M307.37 294.36h234.17v128.5H307.37z" stroke="#757575" stroke-linecap="butt" stroke-linejoin="round"/><path d="M329.6 365.53v-11.781h-4.406v-1.578h10.578v1.578h-4.406v11.781H329.6zm7.078 0v-9.672h1.47v1.469q.562-1.031 1.03-1.36.485-.328 1.063-.328.828 0 1.687.532l-.562 1.515q-.61-.36-1.203-.36-.547 0-.969.329t-.61.89q-.28.876-.28 1.922v5.063h-1.626zm12.541-1.188q-.922.766-1.765 1.094-.828.313-1.797.313-1.594 0-2.453-.781t-.86-1.985q0-.719.328-1.297.329-.594.844-.937.531-.36 1.188-.547.468-.125 1.453-.25 1.984-.235 2.922-.563.015-.343.015-.422 0-1-.468-1.421-.625-.547-1.875-.547-1.157 0-1.704.406t-.812 1.422l-1.61-.219q.22-1.015.72-1.64.5-.641 1.452-.985t2.188-.344q1.25 0 2.016.297.78.282 1.14.735.375.437.516 1.109.078.422.078 1.516v2.187q0 2.281.11 2.89.109.594.405 1.157h-1.703q-.265-.516-.328-1.188zm-.14-3.671q-.89.375-2.672.625-1.016.14-1.438.328t-.656.531q-.219.344-.219.781 0 .656.5 1.094t1.453.438q.938 0 1.672-.407.75-.422 1.094-1.14.266-.563.266-1.64v-.61zm4.204 4.859v-9.672h1.468v1.375q1.063-1.594 3.078-1.594.875 0 1.61.313t1.094.828q.375.5.515 1.203.094.453.094 1.594v5.953h-1.64v-5.89q0-1-.204-1.485-.187-.5-.672-.797t-1.14-.297q-1.047 0-1.813.672-.75.656-.75 2.516v5.28h-1.64zm9.72-2.89 1.624-.25q.125.968.75 1.5.625.515 1.75.515t1.672-.453q.547-.469.547-1.094 0-.547-.485-.875-.328-.219-1.671-.547-1.813-.469-2.516-.797-.688-.328-1.047-.906-.36-.594-.36-1.312 0-.641.298-1.188.296-.562.812-.922.375-.281 1.031-.469.672-.203 1.422-.203 1.14 0 2 .328t1.266.891q.422.563.578 1.5l-1.61.219q-.109-.75-.64-1.172-.516-.422-1.469-.422-1.14 0-1.625.375-.469.375-.469.875 0 .313.188.578.203.266.64.438.235.093 1.438.422 1.75.453 2.437.75t1.079.859.39 1.406q0 .828-.484 1.547-.469.719-1.375 1.125-.906.39-2.047.39-1.875 0-2.875-.78-.984-.782-1.25-2.329zm9.983 6.593v-13.375h1.485v1.25q.531-.734 1.187-1.094.672-.375 1.625-.375 1.235 0 2.172.641.953.625 1.438 1.797.484 1.156.484 2.547 0 1.484-.531 2.672t-1.547 1.828q-1.016.625-2.14.625-.813 0-1.47-.344t-1.062-.875v4.703h-1.64zm1.485-8.484q0 1.86.75 2.765.765.891 1.828.891 1.094 0 1.875-.922.781-.937.781-2.875 0-1.844-.765-2.765-.75-.922-1.813-.922-1.047 0-1.86.984-.796.969-.796 2.844zm8.282-.063q0-2.687 1.484-3.969 1.25-1.078 3.047-1.078 2 0 3.266 1.313 1.265 1.297 1.265 3.61 0 1.859-.562 2.937-.563 1.062-1.64 1.656-1.063.594-2.329.594-2.031 0-3.281-1.297-1.25-1.313-1.25-3.766zm1.687 0q0 1.86.797 2.797.813.922 2.047.922 1.219 0 2.031-.922.813-.937.813-2.844 0-1.797-.813-2.718t-2.03-.922q-1.235 0-2.048.922-.797.906-.797 2.765zm9.282 4.844v-9.672h1.47v1.469q.562-1.031 1.03-1.36.485-.328 1.063-.328.828 0 1.687.532l-.562 1.515q-.61-.36-1.203-.36-.547 0-.969.33t-.61.89q-.28.875-.28 1.922v5.062h-1.626zm9.807-1.469.234 1.453q-.687.141-1.234.141-.89 0-1.39-.281-.485-.281-.688-.735-.203-.468-.203-1.937v-5.578h-1.204v-1.266h1.204v-2.39l1.625-.985v3.375h1.656v1.266h-1.656v5.672q0 .687.078.89.093.203.28.328.204.11.579.11.266 0 .719-.063zm6.132-1.422 1.625-.25q.125.97.75 1.5.625.516 1.75.516t1.672-.453q.547-.469.547-1.094 0-.547-.485-.875-.328-.219-1.672-.547-1.812-.469-2.515-.797-.688-.328-1.047-.906-.36-.594-.36-1.312 0-.641.297-1.188.297-.562.813-.922.375-.281 1.031-.469.672-.203 1.422-.203 1.14 0 2 .328t1.266.891q.422.563.578 1.5l-1.61.219q-.109-.75-.64-1.172-.516-.422-1.469-.422-1.14 0-1.625.375-.469.375-.469.875 0 .313.188.578.203.266.64.438.235.093 1.438.422 1.75.453 2.437.75t1.078.859.391 1.406q0 .828-.484 1.547-.47.719-1.375 1.125-.907.39-2.047.39-1.875 0-2.875-.78-.985-.782-1.25-2.329zm9.375-1.953q0-2.687 1.484-3.969 1.25-1.078 3.047-1.078 2 0 3.266 1.313 1.265 1.297 1.265 3.61 0 1.859-.562 2.937-.563 1.062-1.64 1.656-1.063.594-2.329.594-2.03 0-3.28-1.297-1.25-1.313-1.25-3.766zm1.687 0q0 1.86.797 2.797.813.922 2.047.922 1.22 0 2.031-.922.813-.937.813-2.844 0-1.797-.813-2.718t-2.03-.922q-1.235 0-2.048.922-.797.906-.797 2.765zm15.61 1.297 1.61.219q-.266 1.656-1.36 2.61-1.078.937-2.671.937-1.985 0-3.188-1.297t-1.203-3.719q0-1.578.516-2.75t1.578-1.75q1.062-.594 2.312-.594 1.578 0 2.578.797t1.281 2.266l-1.593.234q-.235-.968-.813-1.453-.578-.5-1.39-.5-1.235 0-2.016.89t-.781 2.813q0 1.953.75 2.844.75.875 1.953.875.969 0 1.61-.594.656-.593.827-1.828zm3.016 3.547v-13.359h1.64v7.625l3.891-3.937h2.11l-3.688 3.593 4.063 6.078h-2.016l-3.203-4.953-1.156 1.125v3.828h-1.64zm15.953-3.11 1.688.204q-.407 1.484-1.485 2.312-1.078.813-2.765.813-2.125 0-3.375-1.297-1.235-1.313-1.235-3.672 0-2.453 1.25-3.797 1.266-1.344 3.266-1.344 1.937 0 3.156 1.328 1.234 1.313 1.234 3.704v.437h-7.218q.093 1.594.906 2.453.812.844 2.015.844.907 0 1.547-.469.64-.484 1.016-1.515zm-5.39-2.656h5.406q-.11-1.218-.625-1.828-.782-.953-2.032-.953-1.125 0-1.906.766-.765.75-.843 2.015zm12.718 4.297.235 1.453q-.688.141-1.235.141-.89 0-1.39-.281-.485-.281-.688-.735-.203-.468-.203-1.937v-5.578h-1.203v-1.266h1.203v-2.39l1.625-.985v3.375h1.656v1.266h-1.656v5.672q0 .687.078.89.094.204.282.329.203.109.578.109.265 0 .718-.063zm7.18 1.47v-8.407h-1.454v-1.266h1.454v-1.03q0-.97.171-1.454.235-.64.829-1.031t1.671-.39q.688 0 1.532.156l-.25 1.437q-.5-.094-.953-.094-.75 0-1.063.328-.312.313-.312 1.188v.89h1.89v1.266h-1.89v8.406h-1.625zm11.105-1.188q-.922.765-1.766 1.093-.828.313-1.797.313-1.594 0-2.453-.781t-.86-1.985q0-.718.329-1.297.328-.593.843-.937.532-.36 1.188-.547.469-.125 1.453-.25 1.984-.234 2.922-.562.016-.344.016-.422 0-1-.47-1.422-.624-.547-1.874-.547-1.156 0-1.703.406t-.813 1.422l-1.61-.219q.22-1.015.72-1.64.5-.64 1.453-.985t2.187-.343q1.25 0 2.016.296.781.282 1.14.735.375.437.516 1.11.078.421.078 1.515v2.187q0 2.282.11 2.89.109.595.406 1.157h-1.703q-.266-.515-.328-1.187zm-.141-3.672q-.89.375-2.672.625-1.016.14-1.437.328t-.657.531q-.218.344-.218.781 0 .657.5 1.094t1.453.438q.937 0 1.672-.407.75-.421 1.093-1.14.266-.563.266-1.64v-.61zm10.516 1.312 1.61.219q-.266 1.656-1.36 2.61-1.078.937-2.672.937-1.984 0-3.187-1.297t-1.204-3.719q0-1.578.516-2.75t1.578-1.75q1.063-.594 2.313-.594 1.578 0 2.578.797t1.281 2.266l-1.594.234q-.234-.968-.812-1.453-.578-.5-1.39-.5-1.235 0-2.017.89t-.78 2.813q0 1.953.75 2.844.75.875 1.952.875.97 0 1.61-.594.656-.593.828-1.828zm6.594 2.078.234 1.453q-.687.141-1.234.141-.89 0-1.39-.281-.485-.281-.688-.735-.203-.468-.203-1.937v-5.578h-1.204v-1.266h1.204v-2.39l1.625-.985v3.375h1.656v1.266h-1.656v5.672q0 .687.078.89.093.204.28.329.204.109.579.109.266 0 .719-.063zm.996-3.375q0-2.687 1.484-3.968 1.25-1.079 3.047-1.079 2 0 3.265 1.313 1.266 1.297 1.266 3.61 0 1.859-.562 2.937-.563 1.062-1.641 1.656-1.063.594-2.328.594-2.031 0-3.281-1.297-1.25-1.313-1.25-3.766zm1.687 0q0 1.86.797 2.797.812.922 2.047.922 1.219 0 2.031-.922.813-.937.813-2.844 0-1.796-.813-2.718t-2.031-.922q-1.235 0-2.047.922-.797.906-.797 2.765zm9.282 4.844v-9.672h1.469v1.47q.562-1.032 1.031-1.36.484-.328 1.063-.328.828 0 1.687.53l-.562 1.516q-.61-.359-1.204-.359-.546 0-.968.328t-.61.89q-.28.876-.28 1.923v5.062h-1.626zm6.15 3.719-.187-1.531q.547.14.937.14.547 0 .875-.187.328-.172.547-.5.156-.25.5-1.219.047-.14.14-.406l-3.671-9.688h1.765l2.016 5.594q.39 1.078.703 2.25.281-1.125.672-2.203l2.078-5.64h1.64l-3.687 9.828q-.594 1.609-.922 2.203-.437.812-1 1.187t-1.344.375q-.484 0-1.062-.203z" fill="#000"/><path d="M297.57 303.91h234.17v128.5H297.57z" fill="#c9daf8" fill-rule="evenodd"/><path d="M297.57 303.91h234.17v128.5H297.57z" stroke="#757575" stroke-linecap="butt" stroke-linejoin="round"/><path d="M331.07 375.08v-13.359h1.813l7.015 10.484v-10.484h1.688v13.359h-1.813l-7.016-10.5v10.5h-1.687zm19.91-3.11 1.688.204q-.407 1.484-1.485 2.312-1.078.813-2.765.813-2.125 0-3.375-1.297-1.235-1.313-1.235-3.672 0-2.453 1.25-3.797 1.266-1.344 3.266-1.344 1.937 0 3.156 1.328 1.234 1.313 1.234 3.703v.438h-7.218q.093 1.594.906 2.453.812.844 2.015.844.907 0 1.547-.469.64-.484 1.016-1.516zm-5.39-2.656h5.406q-.11-1.218-.625-1.828-.782-.953-2.032-.953-1.125 0-1.906.766-.765.75-.844 2.015zm12.718 4.297.235 1.453q-.688.141-1.235.141-.89 0-1.39-.281-.485-.281-.688-.735-.203-.468-.203-1.937v-5.578h-1.203v-1.266h1.203v-2.39l1.625-.985v3.375h1.656v1.266h-1.656v5.672q0 .687.078.89.094.203.282.328.203.11.578.11.265 0 .718-.063zm3.387 1.47-2.969-9.673h1.703l1.531 5.578.578 2.078q.047-.156.5-2l1.547-5.656h1.688l1.437 5.61.485 1.843.562-1.859 1.656-5.594h1.594l-3.031 9.672h-1.703l-1.531-5.797-.375-1.64-1.953 7.437h-1.72zm11.082-4.845q0-2.687 1.484-3.969 1.25-1.078 3.047-1.078 2 0 3.266 1.313 1.265 1.297 1.265 3.61 0 1.859-.562 2.937-.563 1.062-1.64 1.656-1.063.594-2.329.594-2.031 0-3.281-1.297-1.25-1.313-1.25-3.766zm1.687 0q0 1.86.797 2.797.813.922 2.047.922 1.219 0 2.031-.922.813-.937.813-2.844 0-1.797-.813-2.718t-2.03-.922q-1.235 0-2.048.922-.797.906-.797 2.765zm9.282 4.844v-9.672h1.47v1.469q.562-1.031 1.03-1.36.485-.328 1.063-.328.828 0 1.687.532l-.562 1.515q-.61-.36-1.203-.36-.547 0-.97.33t-.608.89q-.282.875-.282 1.922v5.062h-1.625zm6.229 0v-13.359h1.64v7.625l3.89-3.937h2.11l-3.687 3.593 4.062 6.078h-2.015l-3.204-4.953-1.156 1.125v3.828h-1.64zm14.902 0v-8.406h-1.454v-1.266h1.454v-1.03q0-.97.171-1.454.235-.64.829-1.031t1.671-.39q.688 0 1.532.155l-.25 1.438q-.5-.094-.953-.094-.75 0-1.063.328-.312.313-.312 1.188v.89h1.89v1.266h-1.89v8.406h-1.625zm4.792-11.469v-1.89h1.64v1.89h-1.64zm0 11.47v-9.673h1.64v9.672h-1.64zm4.098 0v-13.36h1.64v13.36h-1.64zm7.77-1.47.234 1.453q-.687.141-1.234.141-.89 0-1.39-.281-.485-.281-.688-.735-.203-.468-.203-1.937v-5.578h-1.203v-1.266h1.203v-2.39l1.625-.985v3.375h1.656v1.266h-1.656v5.672q0 .687.078.89.094.203.281.328.203.11.578.11.266 0 .719-.063zm8.23-1.64 1.688.203q-.407 1.484-1.485 2.312-1.078.813-2.765.813-2.125 0-3.375-1.297-1.235-1.313-1.235-3.672 0-2.453 1.25-3.797 1.266-1.344 3.266-1.344 1.937 0 3.156 1.328 1.234 1.313 1.234 3.704v.437h-7.218q.093 1.594.906 2.453.812.844 2.016.844.906 0 1.546-.469.641-.484 1.016-1.515zm-5.39-2.657h5.406q-.11-1.218-.625-1.828-.781-.953-2.031-.953-1.125 0-1.907.766-.765.75-.843 2.015zm9.125 5.766v-9.672h1.47v1.469q.562-1.031 1.03-1.36.485-.328 1.063-.328.828 0 1.687.532l-.562 1.515q-.61-.36-1.203-.36-.547 0-.97.33t-.608.89q-.282.875-.282 1.922v5.062h-1.625zm11.802 0v-8.406h-1.453v-1.266h1.453v-1.03q0-.97.172-1.454.235-.64.828-1.031t1.672-.39q.688 0 1.531.155l-.25 1.438q-.5-.094-.953-.094-.75 0-1.062.328-.313.313-.313 1.188v.89h1.89v1.266h-1.89v8.406h-1.625zm11.105-1.187q-.922.765-1.765 1.093-.828.313-1.797.313-1.594 0-2.453-.781t-.86-1.985q0-.719.328-1.297.329-.593.844-.937.531-.36 1.188-.547.468-.125 1.453-.25 1.984-.234 2.922-.563.015-.343.015-.421 0-1-.468-1.422-.625-.547-1.875-.547-1.157 0-1.704.406t-.812 1.422l-1.61-.219q.22-1.015.72-1.64.5-.641 1.452-.985t2.188-.344q1.25 0 2.016.297.78.282 1.14.735.375.437.516 1.11.078.421.078 1.515v2.187q0 2.281.11 2.89.109.595.405 1.157h-1.703q-.265-.516-.328-1.187zm-.14-3.672q-.89.375-2.672.625-1.016.14-1.438.328t-.656.531q-.219.344-.219.781 0 .657.5 1.094t1.453.438q.938 0 1.672-.407.75-.422 1.094-1.14.266-.563.266-1.64v-.61zm10.516 1.312 1.61.219q-.267 1.656-1.36 2.61-1.078.937-2.672.937-1.985 0-3.188-1.297t-1.203-3.719q0-1.578.516-2.75t1.578-1.75q1.062-.594 2.312-.594 1.579 0 2.579.797t1.28 2.266l-1.593.234q-.234-.968-.813-1.453-.578-.5-1.39-.5-1.235 0-2.016.89t-.781 2.813q0 1.953.75 2.844.75.875 1.953.875.969 0 1.61-.594.656-.593.828-1.828zm6.593 2.078.235 1.453q-.688.141-1.235.141-.89 0-1.39-.281-.485-.281-.688-.735-.203-.468-.203-1.937v-5.578h-1.203v-1.266h1.203v-2.39l1.625-.985v3.375h1.656v1.266h-1.656v5.672q0 .687.078.89.094.203.282.328.203.11.578.11.265 0 .718-.063zm.996-3.375q0-2.687 1.485-3.969 1.25-1.078 3.047-1.078 2 0 3.265 1.313 1.266 1.297 1.266 3.61 0 1.859-.563 2.937-.562 1.062-1.64 1.656-1.063.594-2.328.594-2.032 0-3.282-1.297-1.25-1.313-1.25-3.766zm1.688 0q0 1.86.797 2.797.812.922 2.047.922 1.218 0 2.03-.922.813-.937.813-2.844 0-1.797-.812-2.718t-2.031-.922q-1.235 0-2.047.922-.797.906-.797 2.765zm9.282 4.844v-9.672h1.469v1.469q.562-1.031 1.03-1.36.485-.328 1.063-.328.828 0 1.688.532l-.563 1.515q-.61-.36-1.203-.36-.547 0-.969.33t-.609.89q-.281.875-.281 1.922v5.062h-1.625zm6.15 3.719-.188-1.531q.547.14.938.14.547 0 .875-.187.328-.172.547-.5.156-.25.5-1.219.047-.14.14-.406l-3.671-9.688h1.765l2.016 5.594q.39 1.078.703 2.25.281-1.125.672-2.203l2.078-5.64h1.64l-3.687 9.827q-.594 1.61-.922 2.204-.437.812-1 1.187t-1.344.375q-.484 0-1.062-.203z" fill="#000"/><path d="M54.362 432.41h152.54v33.354H54.362z" fill="none"/><path d="M64.409 454.21v-9.547h6.906v1.125h-5.64v2.922h5.28v1.125h-5.28v3.25h5.859v1.125h-7.125zm9.046 0v-1.328h1.344v1.328h-1.344zm3.156.578 1.14.156q.079.532.407.782.437.312 1.187.312.813 0 1.25-.328.454-.313.61-.906.094-.36.078-1.5-.766.906-1.906.906-1.438 0-2.219-1.031t-.781-2.469q0-.984.36-1.813.358-.843 1.03-1.296.688-.454 1.61-.454 1.218 0 2.015.985v-.828h1.078v5.969q0 1.609-.328 2.28-.328.688-1.047 1.079-.703.39-1.75.39-1.234 0-2-.562-.75-.563-.734-1.672zm.984-4.156q0 1.36.532 1.984.547.625 1.36.625.796 0 1.343-.625t.547-1.953q0-1.265-.563-1.906t-1.36-.64q-.765 0-1.312.64-.546.625-.546 1.875zm6.975 3.578v-1.328h1.344v1.328H84.57zm9.416 0v-8.422h-3.141v-1.125h7.562v1.125h-3.156v8.422h-1.265zm5.657 0v-9.547h1.265v8.422h4.703v1.125h-5.969zm7.037-3.062 1.203-.11q.078.719.39 1.188.313.453.954.734.656.281 1.469.281.718 0 1.265-.218.563-.22.828-.579.266-.375.266-.828t-.266-.781q-.25-.328-.843-.562-.39-.157-1.703-.47t-1.844-.593q-.672-.36-1.016-.89-.328-.532-.328-1.188 0-.719.406-1.344t1.188-.953q.797-.328 1.765-.328 1.047 0 1.86.344t1.25 1.015q.437.656.469 1.485l-1.204.093q-.109-.906-.671-1.359-.563-.469-1.657-.469-1.14 0-1.672.422-.515.422-.515 1.016 0 .515.36.843.374.329 1.905.688 1.547.344 2.11.594.844.39 1.234.984.39.578.39 1.36 0 .75-.437 1.437-.422.672-1.25 1.047-.812.36-1.828.36-1.297 0-2.172-.376t-1.375-1.125q-.5-.765-.53-1.719zm9.484 3.062v-1.328h1.328v1.328q0 .734-.266 1.188-.25.453-.812.703l-.329-.5q.375-.172.547-.485t.188-.906h-.656zm5.467 0 3.656-9.547h1.36l3.906 9.547h-1.438l-1.11-2.89h-3.984l-1.047 2.89h-1.343zm2.75-3.922h3.234l-1-2.64q-.453-1.204-.672-1.97-.187.907-.515 1.813l-1.047 2.797zm7.124 3.922v-9.547h1.265v8.422h4.704v1.125h-5.97zm8.907 0v-8.422h-3.14v-1.125h7.562v1.125h-3.156v8.422h-1.266zm5.282-3.062 1.203-.11q.078.719.39 1.188.313.453.954.734.656.281 1.469.281.719 0 1.265-.218.563-.22.829-.579.265-.375.265-.828t-.265-.781q-.25-.328-.844-.562-.39-.157-1.703-.47t-1.844-.593q-.672-.36-1.016-.89-.328-.532-.328-1.188 0-.719.406-1.344t1.188-.953q.797-.328 1.766-.328 1.046 0 1.859.344t1.25 1.015q.437.656.469 1.485l-1.203.093q-.11-.906-.672-1.359-.563-.469-1.657-.469-1.14 0-1.671.422-.516.422-.516 1.016 0 .515.36.843.374.329 1.906.688 1.546.344 2.109.594.844.39 1.234.984.391.578.391 1.36 0 .75-.438 1.437-.421.672-1.25 1.047-.812.36-1.828.36-1.297 0-2.172-.376t-1.375-1.125q-.5-.765-.53-1.719z" fill="#000"/><path d="M313.57 433.96h285.76v33.354H313.57z" fill="none"/><path d="M323.62 455.76v-9.547h6.906v1.125h-5.64v2.922h5.28v1.125h-5.28v3.25h5.859v1.125h-7.125zm9.046 0v-1.328h1.344v1.328h-1.344zm3.156.578 1.14.156q.079.532.407.782.437.312 1.187.312.813 0 1.25-.328.454-.313.61-.906.094-.36.078-1.5-.766.906-1.906.906-1.438 0-2.219-1.031t-.781-2.469q0-.984.36-1.813.358-.843 1.03-1.296.688-.454 1.61-.454 1.218 0 2.015.985v-.828h1.078v5.969q0 1.609-.328 2.28-.328.688-1.047 1.079-.703.39-1.75.39-1.234 0-2-.562-.75-.563-.734-1.672zm.984-4.156q0 1.36.532 1.984.547.625 1.36.625.796 0 1.343-.625t.547-1.953q0-1.265-.563-1.906t-1.36-.64q-.765 0-1.312.64-.546.625-.546 1.875zm6.975 3.578v-1.328h1.344v1.328h-1.344zm7.25 0v-9.547h4.235q1.265 0 1.921.266.672.25 1.063.906.406.656.406 1.437 0 1.016-.656 1.72-.656.687-2.031.874.5.25.765.485.547.5 1.047 1.265l1.656 2.594h-1.578l-1.265-1.984q-.563-.86-.922-1.313-.344-.453-.64-.64-.282-.188-.563-.25-.219-.047-.703-.047h-1.47v4.234h-1.265zm1.266-5.328h2.719q.859 0 1.343-.172.485-.187.735-.578.265-.39.265-.86 0-.671-.5-1.109-.484-.437-1.547-.437h-3.015v3.156zm12.922 3.11 1.203.14q-.281 1.062-1.063 1.656-.765.578-1.968.578-1.516 0-2.407-.937t-.89-2.61q0-1.75.89-2.703.907-.968 2.344-.968 1.39 0 2.266.937t.875 2.656v.313h-5.156q.062 1.14.64 1.75.578.593 1.438.593.656 0 1.11-.328.452-.343.718-1.078zm-3.844-1.907h3.86q-.079-.86-.438-1.297-.563-.687-1.453-.687-.813 0-1.36.547-.546.53-.609 1.437zm11.006 4.125v-.875q-.656 1.031-1.938 1.031-.812 0-1.515-.453-.688-.453-1.078-1.265-.375-.829-.375-1.891 0-1.031.344-1.875t1.03-1.281q.704-.453 1.548-.453.625 0 1.109.265.5.25.797.672v-3.422h1.172v9.547h-1.094zm-3.703-3.453q0 1.328.562 1.984t1.328.657 1.297-.625.532-1.907q0-1.421-.547-2.078-.547-.672-1.344-.672-.781 0-1.313.641-.515.625-.515 2zm6.647-4.734v-1.36h1.172v1.36h-1.172zm0 8.187v-6.906h1.172v6.906h-1.172zm2.476-2.062 1.157-.188q.11.703.547 1.078.453.36 1.25.36.812 0 1.203-.329t.39-.765q0-.39-.36-.625-.233-.156-1.187-.39-1.296-.329-1.796-.563-.485-.25-.75-.657-.25-.421-.25-.937 0-.453.203-.844.218-.406.578-.672.281-.187.75-.328t1.015-.14q.813 0 1.422.234t.906.64q.297.391.407 1.063l-1.14.156q-.079-.53-.454-.828-.375-.312-1.062-.312-.813 0-1.157.265t-.343.625q0 .235.14.422.156.188.453.313.172.062 1.032.297 1.25.328 1.734.547.5.203.781.609t.281 1-.343 1.11-1 .796q-.641.281-1.453.281-1.344 0-2.047-.562t-.907-1.656zm7.446 2.062v-1.328h1.328v1.328q0 .734-.266 1.188-.25.453-.812.703l-.328-.5q.375-.172.547-.485t.187-.906h-.656zm7.078 0v-6.906h1.062v1.047q.406-.735.735-.969.343-.234.765-.234.594 0 1.203.375l-.406 1.078q-.437-.25-.86-.25-.39 0-.702.234-.297.235-.422.64-.203.626-.203 1.36v3.625h-1.172zm8.97-.86q-.657.563-1.266.798-.594.218-1.282.218-1.14 0-1.75-.547-.609-.562-.609-1.437 0-.5.219-.922.234-.422.61-.672t.843-.39q.344-.079 1.047-.172 1.422-.172 2.094-.407v-.296q0-.72-.328-1.016-.454-.39-1.344-.39-.813 0-1.219.296-.39.282-.578 1.016l-1.14-.156q.155-.735.515-1.188t1.031-.687q.672-.25 1.563-.25t1.437.203q.563.203.813.531.265.312.375.797.046.297.046 1.078v1.562q0 1.625.079 2.063t.296.828h-1.218q-.188-.36-.235-.86zm-.094-2.609q-.641.266-1.922.438-.72.11-1.016.25-.297.125-.469.375-.156.25-.156.547 0 .468.344.781.36.312 1.047.312.672 0 1.203-.296t.781-.813q.188-.39.188-1.172v-.422zm5.553 2.422.172 1.031q-.5.11-.891.11-.64 0-1-.203-.344-.203-.484-.532t-.141-1.39v-3.969h-.86v-.906h.86v-1.719l1.172-.703v2.422h1.172v.906h-1.172v4.047q0 .5.047.64.062.141.203.235.14.078.406.078.203 0 .516-.047zm5.874-1.172 1.204.141q-.282 1.062-1.063 1.656-.766.578-1.969.578-1.515 0-2.406-.937t-.89-2.61q0-1.75.89-2.703.906-.968 2.344-.968 1.39 0 2.265.937t.875 2.656v.313h-5.156q.063 1.14.64 1.75.579.593 1.438.593.657 0 1.11-.328.453-.343.718-1.078zm-3.843-1.906h3.859q-.078-.86-.437-1.297-.563-.687-1.454-.687-.812 0-1.359.547-.547.53-.61 1.437zm10.209 4.125v-9.547h1.172v9.547h-1.172zm2.992-8.187v-1.36h1.172v1.36h-1.172zm0 8.187v-6.906h1.172v6.906h-1.172zm2.945 0v-6.906h1.047v.969q.328-.516.86-.813.547-.312 1.234-.312.781 0 1.266.312t.687.89q.828-1.202 2.14-1.202 1.032 0 1.579.578.562.562.562 1.734v4.75h-1.171v-4.36q0-.702-.125-1-.11-.312-.407-.5t-.703-.187q-.719 0-1.203.485t-.484 1.547v4.015h-1.172v-4.484q0-.781-.297-1.172-.281-.39-.922-.39-.5 0-.922.265-.422.25-.61.75t-.187 1.453v3.578h-1.172zm11.118-8.187v-1.36h1.172v1.36h-1.172zm0 8.187v-6.906h1.172v6.906h-1.172zm5.508-1.047.172 1.031q-.5.11-.89.11-.64 0-1-.203-.344-.203-.485-.532t-.14-1.39v-3.969h-.86v-.906h.86v-1.719l1.172-.703v2.422h1.171v.906h-1.171v4.047q0 .5.046.64.063.141.204.235.14.078.406.078.203 0 .515-.047zm1.453 1.047v-1.328h1.329v1.328q0 .735-.266 1.188-.25.453-.813.703l-.328-.5q.375-.172.547-.485t.188-.906h-.657zm11.61-.86q-.657.563-1.266.798-.594.218-1.281.218-1.141 0-1.75-.546-.61-.563-.61-1.438 0-.5.219-.922.234-.422.61-.672t.843-.39q.344-.078 1.047-.172 1.422-.172 2.094-.406v-.297q0-.72-.328-1.016-.453-.39-1.344-.39-.813 0-1.219.296-.39.282-.578 1.016l-1.14-.156q.156-.735.515-1.188t1.031-.687q.672-.25 1.563-.25t1.437.203q.563.203.813.531.265.313.375.797.047.297.047 1.078v1.562q0 1.625.078 2.063t.297.828h-1.22q-.187-.36-.234-.86zm-.094-2.609q-.64.266-1.922.438-.719.11-1.016.25-.297.125-.469.375-.156.25-.156.547 0 .468.344.781.36.312 1.047.312.672 0 1.203-.296t.781-.813q.188-.39.188-1.172v-.422zm7.522 3.47v-1.016q-.813 1.171-2.188 1.171-.61 0-1.14-.234t-.797-.578q-.25-.36-.36-.875-.062-.344-.062-1.094v-4.281h1.172v3.828q0 .922.062 1.234.11.47.469.735.36.25.89.25.516 0 .985-.266t.656-.734.188-1.344v-3.703h1.172v6.906h-1.047zm5.443-1.048.172 1.031q-.5.11-.89.11-.641 0-1-.203-.344-.203-.485-.532t-.14-1.39v-3.969h-.86v-.906h.86v-1.719l1.171-.703v2.422h1.172v.906h-1.172v4.047q0 .5.047.64.063.141.203.235.141.078.407.078.203 0 .515-.047zm1.14 1.047v-9.547h1.173v3.422q.828-.937 2.078-.937.765 0 1.328.297t.812.843q.25.532.25 1.547v4.375H473.1v-4.375q0-.89-.39-1.281-.375-.406-1.078-.406-.516 0-.985.281-.453.266-.656.734-.187.453-.187 1.266v3.781h-1.172zm7.726 0v-1.328h1.328v1.328q0 .735-.266 1.188-.25.453-.812.703l-.328-.5q.375-.172.547-.485t.187-.906h-.656zm7.28 0v-9.547h1.266v3.922h4.953v-3.922h1.266v9.547h-1.266v-4.5h-4.953v4.5h-1.265zm16.392-3.344 1.265.313q-.39 1.562-1.422 2.375t-2.53.812q-1.532 0-2.5-.625t-1.485-1.812q-.5-1.188-.5-2.563 0-1.484.562-2.593.578-1.11 1.625-1.688 1.063-.578 2.328-.578 1.422 0 2.391.734.984.72 1.375 2.047l-1.25.297q-.328-1.047-.969-1.516-.625-.484-1.578-.484-1.094 0-1.844.531-.734.532-1.03 1.422-.298.875-.298 1.828 0 1.22.344 2.125.36.907 1.11 1.36.75.437 1.624.437 1.063 0 1.797-.61t.985-1.812zm2.781 3.344v-9.547h1.906l2.25 6.766.47 1.406q.155-.516.5-1.531l2.28-6.64h1.703v9.546h-1.218v-7.984l-2.766 7.984h-1.14l-2.766-8.125v8.125h-1.219z" fill="#000"/><path d="M182.45 102c0-15.968 15.8-28.913 35.291-28.913S253.032 86.032 253.032 102s-15.8 28.913-35.291 28.913S182.45 117.968 182.45 102z" fill="#fff2cc" fill-rule="evenodd"/><path d="M182.45 102c0-15.968 15.8-28.913 35.291-28.913S253.032 86.032 253.032 102s-15.8 28.913-35.291 28.913S182.45 117.968 182.45 102z" stroke="#757575" stroke-linecap="butt" stroke-linejoin="round"/><path d="M305.18 109.97c0-15.968 15.8-28.913 35.291-28.913 19.491 0 35.291 12.945 35.291 28.913s-15.8 28.913-35.291 28.913c-19.491 0-35.291-12.945-35.291-28.913z" fill="#fff2cc" fill-rule="evenodd"/><path d="M305.18 109.97c0-15.968 15.8-28.913 35.291-28.913 19.491 0 35.291 12.945 35.291 28.913s-15.8 28.913-35.291 28.913c-19.491 0-35.291-12.945-35.291-28.913z" stroke="#757575" stroke-linecap="butt" stroke-linejoin="round"/><path d="M234.6 186.78c0-15.968 15.8-28.913 35.291-28.913s35.291 12.945 35.291 28.913-15.8 28.913-35.291 28.913c-19.491 0-35.291-12.945-35.291-28.913z" fill="#fff2cc" fill-rule="evenodd"/><path d="M234.6 186.78c0-15.968 15.8-28.913 35.291-28.913s35.291 12.945 35.291 28.913-15.8 28.913-35.291 28.913c-19.491 0-35.291-12.945-35.291-28.913z" stroke="#757575" stroke-linecap="butt" stroke-linejoin="round"/><path d="m263.36 53.683-20.661 27.874" fill="none"/><path d="m263.36 53.683-20.661 27.874" stroke="#757575" stroke-linecap="butt" stroke-linejoin="round"/><path d="m315.52 130.41-20.693 35.937" fill="none"/><path d="m315.52 130.41-20.693 35.937" stroke="#757575" stroke-linecap="butt" stroke-linejoin="round"/><path d="m206.34 130.43-85.512 173.48" fill="none"/><path d="m206.34 130.43-83.997 170.41" stroke="#757575" stroke-dasharray="1.0,3.0" stroke-linecap="butt" stroke-linejoin="round"/><path d="m122.34 300.84-.511-1.506-.358 3.269 2.375-2.275z" fill="#757575" fill-rule="evenodd" stroke="#757575" stroke-linecap="butt"/><path d="M284.5 16.496h285.76V49.85H284.5z" fill="none"/><path d="M375.89 38.296v-9.547h6.438v1.125h-5.172v2.969h4.468v1.125h-4.468v4.328h-1.266zm7.938-8.188V28.75H385v1.36h-1.172zm0 8.188V31.39H385v6.906h-1.172zm2.93 0v-9.547h1.172v9.547h-1.172zm5.54-1.047.171 1.031q-.5.11-.89.11-.641 0-1-.203-.344-.204-.485-.532t-.14-1.39v-3.97h-.86v-.905h.86v-1.72l1.171-.702v2.422h1.172v.906h-1.172v4.047q0 .5.047.64.063.141.203.235.141.078.407.078.203 0 .515-.047zm5.874-1.172 1.203.14q-.281 1.063-1.062 1.657-.766.578-1.97.578-1.515 0-2.405-.937t-.89-2.61q0-1.75.89-2.703.906-.969 2.344-.969 1.39 0 2.265.938t.875 2.656v.313h-5.156q.062 1.14.64 1.75.579.593 1.438.593.656 0 1.11-.328.453-.344.718-1.078zm-3.844-1.906h3.86q-.078-.86-.438-1.297-.562-.687-1.453-.687-.812 0-1.36.546-.546.532-.609 1.438zm6.507 4.125V31.39h1.062v1.047q.406-.735.734-.969.344-.234.766-.234.594 0 1.203.375l-.406 1.078q-.438-.25-.86-.25-.39 0-.703.234-.297.234-.422.64-.203.626-.203 1.36v3.625h-1.172zm12.673-2.531 1.156.156q-.188 1.188-.969 1.86t-1.922.671q-1.406 0-2.281-.922-.86-.937-.86-2.656 0-1.125.375-1.969t1.125-1.25q.766-.421 1.657-.421 1.125 0 1.843.578.72.562.922 1.61l-1.14.171q-.172-.703-.594-1.047-.406-.36-.984-.36-.891 0-1.453.641-.547.64-.547 2 0 1.407.53 2.032.548.625 1.407.625.688 0 1.14-.422.47-.422.594-1.297zm2.148 2.531v-9.547h1.172v3.422q.828-.938 2.078-.938.766 0 1.328.297t.813.844q.25.531.25 1.547v4.375h-1.172v-4.375q0-.89-.391-1.281-.375-.406-1.078-.406-.516 0-.985.28-.453.266-.656.735-.187.453-.187 1.266v3.781h-1.172zm11.928-.86q-.656.563-1.266.797-.593.22-1.28.22-1.142 0-1.75-.548-.61-.562-.61-1.437 0-.5.218-.922.235-.422.61-.672t.844-.39q.343-.079 1.046-.172 1.422-.172 2.094-.407v-.297q0-.718-.328-1.015-.453-.39-1.344-.39-.812 0-1.218.296-.391.281-.579 1.016l-1.14-.157q.156-.734.515-1.187t1.032-.688q.672-.25 1.562-.25t1.438.204q.562.203.812.53.266.313.375.798.047.297.047 1.078v1.562q0 1.625.078 2.063t.297.828h-1.219q-.187-.36-.234-.86zm-.094-2.609q-.64.266-1.922.438-.719.11-1.015.25-.297.125-.47.375-.155.25-.155.547 0 .468.343.78.36.313 1.047.313.672 0 1.203-.297t.782-.812q.187-.39.187-1.172v-.422zm3.006-4.719V28.75h1.172v1.36h-1.172zm0 8.188V31.39h1.172v6.906h-1.172zm2.946 0V31.39h1.062v.984q.75-1.14 2.188-1.14.625 0 1.156.218t.781.594q.266.36.375.86.063.328.063 1.14v4.25h-1.172v-4.203q0-.719-.14-1.063-.141-.359-.485-.562-.344-.219-.813-.219-.75 0-1.297.469t-.546 1.797v3.781h-1.172zm11.115 0V31.39h1.047v.968q.328-.515.86-.812.546-.313 1.234-.313.78 0 1.265.313t.688.89q.828-1.203 2.14-1.203 1.031 0 1.578.579.563.562.563 1.734v4.75h-1.172v-4.36q0-.703-.125-1-.11-.312-.406-.5t-.703-.187q-.72 0-1.204.484t-.484 1.547v4.016h-1.172v-4.484q0-.782-.297-1.172-.281-.39-.922-.39-.5 0-.921.265-.422.25-.61.75t-.187 1.453v3.578h-1.172zm15.618-.86q-.656.563-1.266.797-.594.22-1.281.22-1.14 0-1.75-.548-.61-.562-.61-1.437 0-.5.22-.922.234-.422.609-.672t.844-.39q.343-.079 1.046-.172 1.422-.172 2.094-.407v-.297q0-.718-.328-1.015-.453-.39-1.344-.39-.812 0-1.218.296-.391.281-.579 1.016l-1.14-.157q.156-.734.515-1.187t1.032-.688q.672-.25 1.562-.25t1.438.204q.562.203.812.53.266.313.375.798.047.297.047 1.078v1.562q0 1.625.078 2.063t.297.828h-1.219q-.187-.36-.234-.86zm-.094-2.609q-.64.266-1.922.438-.719.109-1.015.25-.297.125-.47.375-.155.25-.155.547 0 .468.343.78.36.313 1.047.313.672 0 1.203-.297t.782-.812q.187-.39.187-1.172v-.422zm5.553 2.422.172 1.031q-.5.11-.89.11-.641 0-1-.204-.344-.203-.485-.53t-.14-1.391v-3.97h-.86v-.905h.86v-1.72l1.171-.702v2.422h1.172v.906h-1.172v4.047q0 .5.047.64.063.141.203.235.141.078.407.078.203 0 .515-.047zm5.656-1.484 1.156.156q-.187 1.187-.968 1.86t-1.922.671q-1.406 0-2.281-.922-.86-.937-.86-2.656 0-1.125.375-1.969t1.125-1.25q.766-.422 1.656-.422 1.125 0 1.844.579.719.562.922 1.609l-1.14.172q-.172-.703-.594-1.047-.406-.36-.985-.36-.89 0-1.453.641-.547.64-.547 2 0 1.406.532 2.031.547.625 1.406.625.687 0 1.14-.422.47-.421.594-1.296zm2.149 2.53V28.75h1.172v3.422q.828-.938 2.078-.938.765 0 1.328.297t.812.844q.25.531.25 1.547v4.375h-1.172V33.92q0-.89-.39-1.281-.375-.407-1.078-.407-.516 0-.985.282-.453.265-.656.734-.187.453-.187 1.266v3.78h-1.172zM340.41 54.296v-9.547h6.906v1.125h-5.64v2.922h5.28v1.125h-5.28v3.25h5.859v1.125h-7.125zm9.046 0v-1.328h1.344v1.328h-1.344zm3.156.578 1.14.156q.079.532.407.782.437.312 1.187.312.813 0 1.25-.328.454-.313.61-.906.094-.36.078-1.5-.766.906-1.906.906-1.438 0-2.219-1.031t-.781-2.469q0-.984.36-1.813.358-.843 1.03-1.296.688-.454 1.61-.454 1.218 0 2.015.985v-.828h1.078v5.969q0 1.609-.328 2.28-.328.688-1.047 1.079-.703.39-1.75.39-1.234 0-2-.562-.75-.563-.734-1.672zm.984-4.156q0 1.36.532 1.984.547.625 1.36.625.796 0 1.343-.625t.547-1.953q0-1.265-.563-1.906t-1.36-.64q-.765 0-1.312.64-.546.625-.546 1.875zm6.975 3.578v-1.328h1.344v1.328h-1.344zm7.453 0v-9.547h1.25v9.547h-1.25zm3.485 0v-9.547h3.593q.954 0 1.453.094.704.125 1.172.453.485.328.766.922.297.594.297 1.297 0 1.219-.781 2.062-.766.844-2.797.844h-2.438v3.875h-1.265zm1.265-5h2.453q1.235 0 1.75-.453.516-.469.516-1.281 0-.61-.313-1.031-.296-.422-.796-.563-.313-.094-1.172-.094h-2.438v3.422zm17.883 1.656 1.266.313q-.39 1.562-1.422 2.375t-2.531.812q-1.532 0-2.5-.625t-1.485-1.812q-.5-1.188-.5-2.563 0-1.484.563-2.594.578-1.109 1.625-1.687 1.062-.578 2.328-.578 1.422 0 2.39.734.985.719 1.375 2.047l-1.25.297q-.328-1.047-.968-1.516-.625-.484-1.578-.484-1.094 0-1.844.531-.735.531-1.031 1.422-.297.875-.297 1.828 0 1.219.344 2.125.359.906 1.109 1.36.75.437 1.625.437 1.062 0 1.797-.61t.984-1.812zm3.047 3.344v-9.547h1.25v9.547h-1.25zm3.484 0v-9.547h3.282q1.109 0 1.703.14.812.188 1.39.688.766.64 1.14 1.64.376.985.376 2.25 0 1.095-.266 1.938-.25.828-.656 1.39-.39.548-.86.86t-1.14.485q-.656.156-1.531.156h-3.438zm1.266-1.125h2.031q.938 0 1.469-.172.547-.187.875-.5.437-.453.687-1.203.25-.766.25-1.844 0-1.5-.5-2.297-.484-.812-1.187-1.078-.5-.203-1.625-.203h-2v7.297zm8.375 1.125v-9.547h4.235q1.265 0 1.921.266.672.25 1.063.906.406.656.406 1.437 0 1.016-.656 1.72-.656.687-2.031.874.5.25.765.485.547.5 1.047 1.265l1.656 2.594h-1.578l-1.265-1.984q-.563-.86-.922-1.313-.344-.453-.64-.64-.282-.188-.563-.25-.219-.047-.703-.047h-1.47v4.234h-1.265zm1.266-5.328h2.719q.859 0 1.343-.172.485-.187.735-.578.265-.39.265-.86 0-.671-.5-1.109-.484-.437-1.547-.437h-3.015v3.156zm8.5 5.328v-1.328h1.328v1.328q0 .734-.266 1.188-.25.453-.812.703l-.328-.5q.375-.172.547-.485t.187-.906h-.656zm7.093 2.656V47.39h1.079v.89q.375-.53.843-.78.485-.267 1.157-.267.875 0 1.546.454.688.453 1.032 1.28t.343 1.829q0 1.047-.375 1.906-.375.844-1.109 1.297-.719.453-1.531.453-.578 0-1.047-.25t-.766-.625v3.375h-1.172zm1.063-6.078q0 1.344.531 1.985.547.625 1.313.625.781 0 1.344-.657t.562-2.047q0-1.312-.547-1.968-.547-.672-1.297-.672t-1.328.703-.578 2.031zm5.912-.031q0-1.922 1.079-2.844.89-.766 2.171-.766 1.422 0 2.329.938.906.922.906 2.578 0 1.328-.406 2.094-.391.765-1.157 1.187t-1.672.422q-1.453 0-2.359-.922-.89-.937-.89-2.687zm1.204 0q0 1.328.578 1.984.593.657 1.469.657t1.453-.657q.578-.672.578-2.03 0-1.282-.594-1.938-.578-.657-1.438-.657-.875 0-1.468.657-.578.656-.578 1.984zm6.63 3.453V47.39h1.063v1.047q.407-.735.735-.97.343-.233.765-.233.594 0 1.203.375l-.406 1.078q-.437-.25-.86-.25-.39 0-.702.234-.297.234-.422.64-.203.626-.203 1.36v3.625h-1.172zm7.017-1.047.172 1.031q-.5.11-.89.11-.641 0-1-.203-.344-.204-.485-.532t-.14-1.39v-3.97h-.86v-.905h.86v-1.72l1.171-.702v2.422h1.172v.906h-1.172v4.047q0 .5.047.64.063.141.203.235.141.078.407.078.203 0 .515-.047zm1.453 1.047v-1.328h1.328v1.328q0 .734-.265 1.187-.25.454-.813.704l-.328-.5q.375-.172.547-.485t.188-.906h-.657zm6.812-3.063 1.204-.109q.078.719.39 1.188.313.453.953.734.657.281 1.47.281.718 0 1.265-.219.562-.218.828-.578.265-.375.265-.828t-.265-.781q-.25-.328-.844-.563-.39-.156-1.703-.468t-1.844-.594q-.672-.36-1.015-.89-.329-.532-.329-1.188 0-.719.407-1.344t1.187-.953q.797-.328 1.766-.328 1.047 0 1.86.344t1.25 1.015q.437.656.468 1.485l-1.203.093q-.11-.906-.672-1.36-.563-.468-1.656-.468-1.14 0-1.672.422-.516.422-.516 1.016 0 .515.36.843.375.329 1.906.688 1.547.344 2.11.594.843.39 1.234.984.39.578.39 1.36 0 .75-.437 1.437-.422.672-1.25 1.047-.813.36-1.828.36-1.297 0-2.172-.376t-1.375-1.125q-.5-.765-.531-1.719zm9.312 3.063v-9.547h1.297l5.016 7.5v-7.5h1.203v9.547h-1.297l-5.016-7.5v7.5h-1.203zm9.86 0v-9.547h1.25v9.547h-1.25zm7.03 0V47.39h1.047v.969q.329-.516.86-.813.547-.312 1.234-.312.782 0 1.266.312t.687.89q.828-1.202 2.141-1.202 1.031 0 1.578.578.563.562.563 1.734v4.75h-1.172v-4.36q0-.702-.125-1-.11-.312-.407-.5t-.703-.187q-.718 0-1.203.485t-.484 1.546v4.016h-1.172v-4.484q0-.782-.297-1.172-.281-.39-.922-.39-.5 0-.922.265-.422.25-.61.75t-.187 1.453v3.578h-1.172zm15.619-.86q-.657.563-1.266.797-.594.22-1.281.22-1.14 0-1.75-.548-.61-.562-.61-1.437 0-.5.22-.922.234-.422.609-.672t.843-.39q.344-.079 1.047-.172 1.422-.172 2.094-.407v-.297q0-.718-.328-1.015-.453-.39-1.344-.39-.812 0-1.219.296-.39.281-.578 1.016l-1.14-.157q.156-.734.515-1.187t1.031-.688q.672-.25 1.563-.25t1.437.204q.563.203.813.53.265.313.375.798.047.297.047 1.078v1.562q0 1.625.078 2.063t.297.828h-1.22q-.187-.36-.233-.86zm-.094-2.609q-.64.266-1.922.438-.719.11-1.016.25-.297.125-.468.375-.157.25-.157.547 0 .468.344.78.36.313 1.047.313.672 0 1.203-.297t.781-.812q.188-.39.188-1.172v-.422zm5.553 2.422.172 1.031q-.5.11-.89.11-.641 0-1-.203-.345-.204-.485-.532t-.14-1.39v-3.97h-.86v-.905h.86v-1.72l1.171-.702v2.422h1.172v.906h-1.172v4.047q0 .5.047.64.062.141.203.235.14.078.406.078.203 0 .516-.047zm5.656-1.484 1.156.156q-.187 1.187-.969 1.86t-1.921.671q-1.407 0-2.282-.922-.859-.937-.859-2.656 0-1.125.375-1.969t1.125-1.25q.766-.422 1.656-.422 1.125 0 1.844.579.719.562.922 1.609l-1.14.172q-.173-.703-.594-1.047-.407-.36-.985-.36-.89 0-1.453.641-.547.64-.547 2 0 1.406.531 2.031.547.625 1.407.625.687 0 1.14-.421.469-.422.594-1.297zm2.148 2.53V44.75h1.172v3.422q.828-.938 2.078-.938.766 0 1.329.297t.812.844q.25.531.25 1.547v4.375h-1.172V49.92q0-.89-.39-1.281-.375-.407-1.079-.407-.515 0-.984.282-.453.265-.656.734-.188.453-.188 1.266v3.78h-1.172z" fill="#000"/><path d="M253.04 33.173c0-15.968 15.8-28.913 35.291-28.913s35.291 12.945 35.291 28.913-15.8 28.913-35.291 28.913c-19.491 0-35.291-12.945-35.291-28.913z" fill="#fff2cc" fill-rule="evenodd"/><path d="M253.04 33.173c0-15.968 15.8-28.913 35.291-28.913s35.291 12.945 35.291 28.913-15.8 28.913-35.291 28.913c-19.491 0-35.291-12.945-35.291-28.913z" stroke="#757575" stroke-linecap="butt" stroke-linejoin="round"/><path d="M182.45 102c0-15.968 15.8-28.913 35.291-28.913S253.032 86.032 253.032 102s-15.8 28.913-35.291 28.913S182.45 117.968 182.45 102z" fill="#fff2cc" fill-rule="evenodd"/><path d="M182.45 102c0-15.968 15.8-28.913 35.291-28.913S253.032 86.032 253.032 102s-15.8 28.913-35.291 28.913S182.45 117.968 182.45 102z" stroke="#757575" stroke-linecap="butt" stroke-linejoin="round"/><path d="M305.18 109.97c0-15.968 15.8-28.913 35.291-28.913 19.491 0 35.291 12.945 35.291 28.913s-15.8 28.913-35.291 28.913c-19.491 0-35.291-12.945-35.291-28.913z" fill="#fff2cc" fill-rule="evenodd"/><path d="M305.18 109.97c0-15.968 15.8-28.913 35.291-28.913 19.491 0 35.291 12.945 35.291 28.913s-15.8 28.913-35.291 28.913c-19.491 0-35.291-12.945-35.291-28.913z" stroke="#757575" stroke-linecap="butt" stroke-linejoin="round"/><path d="M234.6 186.78c0-15.968 15.8-28.913 35.291-28.913s35.291 12.945 35.291 28.913-15.8 28.913-35.291 28.913c-19.491 0-35.291-12.945-35.291-28.913z" fill="#fff2cc" fill-rule="evenodd"/><path d="M234.6 186.78c0-15.968 15.8-28.913 35.291-28.913s35.291 12.945 35.291 28.913-15.8 28.913-35.291 28.913c-19.491 0-35.291-12.945-35.291-28.913z" stroke="#757575" stroke-linecap="butt" stroke-linejoin="round"/><path d="m313.29 53.627 27.213 27.433" fill="none"/><path d="m313.29 53.627 27.213 27.433" stroke="#757575" stroke-linecap="butt" stroke-linejoin="round"/><path d="M209.09 131.83c4.261 20.794 10.739 84.537 25.567 124.76 14.828 40.224 52.835 97.152 63.402 116.58" fill="none"/><path d="M209.09 131.83c4.261 20.794 10.739 84.537 25.567 124.76 7.414 20.112 20.623 44.4 33.299 66.089 6.338 10.844 12.543 21.039 17.824 29.737 2.64 4.349 5.05 8.324 7.13 11.818a431.172 431.172 0 0 1 2.859 4.869l.618 1.078" stroke="#757575" stroke-dasharray="1.0,3.0" stroke-linecap="butt" stroke-linejoin="round"/><path d="m296.39 370.19-1.53-.433 2.489 2.148-.526-3.245z" fill="#757575" fill-rule="evenodd" stroke="#757575" stroke-linecap="butt"/></g></svg>