<svg fill="none" stroke-linecap="square" stroke-miterlimit="10" viewBox="0 0 839.54 376.22" xmlns="http://www.w3.org/2000/svg"><clipPath id="a"><path d="M0 0h839.54v376.22H0V0z"/></clipPath><g clip-path="url(#a)"><path d="M0 0h839.54v376.22H0z" fill="none"/><path d="M0 155.75h199.34v110.61H0z" fill="none"/><path d="M26.74 180.11v-11.453h7.734v1.344h-6.218v3.547h5.375v1.36h-5.375v5.202H26.74zm9.508 0v-8.297h1.265v1.25q.485-.875.891-1.156t.906-.281q.703 0 1.438.453l-.485 1.297q-.515-.297-1.03-.297-.454 0-.829.281-.36.266-.516.766-.234.75-.234 1.64v4.344h-1.406zm4.812-4.156q0-2.297 1.281-3.406 1.079-.922 2.61-.922 1.719 0 2.797 1.125 1.094 1.11 1.094 3.094 0 1.593-.485 2.515t-1.406 1.438q-.906.5-2 .5-1.734 0-2.812-1.11-1.079-1.125-1.079-3.234zm1.453 0q0 1.594.688 2.39.703.797 1.75.797t1.734-.797q.703-.796.703-2.437 0-1.531-.703-2.328-.687-.797-1.734-.797t-1.75.797q-.688.781-.688 2.375zm7.977 4.156v-8.297h1.25v1.156q.39-.61 1.031-.968.656-.375 1.485-.375.921 0 1.515.39.594.375.828 1.063.985-1.453 2.563-1.453 1.234 0 1.89.687.672.672.672 2.094v5.703h-1.39v-5.234q0-.844-.14-1.204-.142-.375-.5-.593-.36-.235-.845-.235-.875 0-1.453.578t-.578 1.86v4.828h-1.406v-5.39q0-.938-.344-1.407t-1.125-.469q-.594 0-1.094.313t-.734.922q-.219.594-.219 1.719v4.312H50.49zm17.758 0v-8.297h1.266v1.25q.484-.875.89-1.156t.906-.281q.704 0 1.438.453l-.484 1.297q-.516-.297-1.032-.297-.453 0-.828.281-.36.266-.515.766-.235.75-.235 1.64v4.344h-1.406zm4.812-4.156q0-2.297 1.282-3.406 1.078-.922 2.61-.922 1.718 0 2.796 1.125 1.094 1.11 1.094 3.094 0 1.593-.485 2.515t-1.406 1.438q-.906.5-2 .5-1.734 0-2.812-1.11-1.078-1.125-1.078-3.234zm1.454 0q0 1.594.687 2.39.703.797 1.75.797t1.735-.797q.703-.796.703-2.437 0-1.531-.704-2.328-.687-.797-1.734-.797t-1.75.797q-.687.781-.687 2.375zm13.414 4.156v-1.219q-.97 1.406-2.641 1.406-.734 0-1.375-.28-.625-.282-.938-.704-.312-.437-.437-1.047-.078-.422-.078-1.312v-5.141h1.406v4.594q0 1.11.078 1.484.14.563.563.875.437.313 1.062.313.64 0 1.188-.313.562-.328.78-.89.235-.563.235-1.625v-4.438h1.407v8.297h-1.25zm6.523-1.266.203 1.25q-.594.125-1.062.125-.766 0-1.188-.234-.422-.25-.594-.64-.172-.407-.172-1.672v-4.766h-1.03v-1.094h1.03v-2.062l1.407-.844v2.906h1.406v1.094h-1.406v4.844q0 .609.062.78.078.173.25.282.172.094.485.094.234 0 .609-.063zm7.055-1.406 1.453.172q-.344 1.281-1.281 1.984-.922.704-2.36.704-1.828 0-2.89-1.125t-1.063-3.141q0-2.094 1.078-3.25t2.797-1.156q1.656 0 2.703 1.14 1.063 1.125 1.063 3.172v.375h-6.188q.078 1.375.766 2.11.703.718 1.734.718.781 0 1.328-.406t.86-1.297zm-4.61-2.281h4.625q-.093-1.047-.531-1.563-.672-.812-1.734-.812-.97 0-1.64.656-.657.64-.72 1.719zm7.82 4.953v-8.297h1.266v1.25q.485-.875.89-1.156t.907-.281q.703 0 1.438.453l-.485 1.297q-.515-.297-1.031-.297-.453 0-.828.281-.36.266-.516.766-.234.75-.234 1.64v4.344h-1.406zm10.118 0v-7.203h-1.235v-1.094h1.235v-.89q0-.829.156-1.235.203-.547.703-.89.516-.344 1.437-.344.594 0 1.313.14l-.203 1.235q-.438-.078-.828-.078-.64 0-.907.281-.265.266-.265 1.016v.765h1.61v1.094h-1.61v7.203h-1.406zm4.117-9.844v-1.61h1.406v1.61h-1.406zm0 9.844v-8.297h1.406v8.297h-1.406zm3.523 0v-11.453h1.406v11.453h-1.406zm6.649-1.266.203 1.25q-.594.125-1.063.125-.765 0-1.187-.234-.422-.25-.594-.64-.172-.407-.172-1.672v-4.766h-1.031v-1.094h1.031v-2.062l1.406-.844v2.906h1.406v1.094h-1.406v4.844q0 .61.063.781.078.172.25.281.172.094.484.094.235 0 .61-.063zm7.054-1.406 1.453.172q-.343 1.281-1.28 1.985-.923.703-2.36.703-1.828 0-2.89-1.125t-1.063-3.14q0-2.095 1.078-3.25t2.797-1.157q1.656 0 2.703 1.14 1.062 1.125 1.062 3.172v.375h-6.187q.078 1.375.765 2.11.704.719 1.735.719.781 0 1.328-.407t.86-1.297zm-4.61-2.28h4.626q-.094-1.048-.531-1.563-.672-.813-1.735-.813-.968 0-1.64.656-.657.641-.72 1.72zm7.821 4.952v-8.297h1.266v1.25q.484-.875.89-1.156t.907-.281q.703 0 1.437.453l-.484 1.297q-.516-.297-1.031-.297-.454 0-.829.281-.359.266-.515.766-.235.75-.235 1.64v4.344h-1.406zm4.781-2.484 1.391-.219q.11.844.64 1.297.548.437 1.5.437.97 0 1.438-.39.469-.406.469-.938 0-.468-.406-.75-.297-.187-1.438-.468-1.547-.391-2.156-.672-.594-.297-.906-.797-.297-.5-.297-1.11 0-.562.25-1.03t.687-.782q.328-.25.89-.406.579-.172 1.22-.172.984 0 1.719.281t1.078.766q.359.468.5 1.28l-1.375.188q-.094-.64-.547-1t-1.266-.359q-.969 0-1.39.328-.407.313-.407.735 0 .28.172.5t.531.375q.22.078 1.25.359 1.485.39 2.079.656.593.25.921.735.344.484.344 1.203 0 .703-.422 1.328-.406.61-1.187.953-.766.344-1.735.344-1.625 0-2.468-.672t-1.079-2zm12.477-1.672q0-2.297 1.282-3.406 1.078-.922 2.609-.922 1.719 0 2.797 1.125 1.094 1.11 1.094 3.094 0 1.593-.485 2.515t-1.406 1.438q-.906.5-2 .5-1.734 0-2.812-1.11-1.078-1.125-1.078-3.234zm1.454 0q0 1.594.687 2.39.703.797 1.75.797t1.734-.797q.704-.796.704-2.437 0-1.531-.704-2.328-.687-.797-1.734-.797t-1.75.797q-.687.781-.687 2.375zm7.976 4.156v-8.297h1.266v1.172q.906-1.36 2.64-1.36.75 0 1.375.266t.938.703.437 1.047q.078.391.078 1.36v5.11h-1.406v-5.048q0-.86-.172-1.281-.156-.437-.578-.687-.406-.25-.969-.25-.906 0-1.562.578-.64.562-.64 2.156v4.531h-1.407zM71.587 199.11l-2.547-8.297h1.453l1.328 4.781.485 1.782q.03-.125.437-1.704l1.313-4.859h1.453l1.234 4.813.422 1.578.469-1.594 1.422-4.797h1.375l-2.594 8.297h-1.469l-1.312-4.969-.329-1.422-1.671 6.39h-1.47zm9.492-4.156q0-2.297 1.281-3.406 1.078-.922 2.61-.922 1.719 0 2.797 1.125 1.093 1.11 1.093 3.094 0 1.593-.484 2.515t-1.406 1.438q-.906.5-2 .5-1.734 0-2.813-1.11-1.078-1.125-1.078-3.234zm1.453 0q0 1.594.688 2.39.703.797 1.75.797t1.734-.797q.703-.796.703-2.437 0-1.531-.703-2.328-.687-.797-1.734-.797t-1.75.797q-.688.781-.688 2.375zm7.961 4.156v-8.297h1.266v1.25q.484-.875.89-1.156t.907-.281q.703 0 1.437.453l-.484 1.297q-.516-.297-1.031-.297-.454 0-.829.281-.359.266-.515.766-.235.75-.235 1.64v4.344h-1.406zm5.344 0v-11.453h1.406v6.531l3.328-3.375h1.828l-3.171 3.078 3.484 5.22h-1.734l-2.735-4.25-1 .952v3.297h-1.406zm13.672-2.672 1.453.172q-.344 1.281-1.281 1.984-.922.704-2.36.704-1.828 0-2.89-1.125t-1.063-3.141q0-2.094 1.079-3.25t2.796-1.156q1.657 0 2.704 1.14 1.062 1.125 1.062 3.172v.375h-6.187q.078 1.375.765 2.11.703.718 1.735.718.78 0 1.328-.406t.859-1.297zm-4.61-2.281h4.626q-.094-1.047-.532-1.563-.672-.812-1.734-.812-.969 0-1.64.656-.657.64-.72 1.719zm7.82 4.953v-8.297h1.267v1.25q.484-.875.89-1.156t.906-.281q.703 0 1.438.453l-.485 1.297q-.515-.297-1.03-.297-.454 0-.829.281-.36.266-.515.766-.235.75-.235 1.64v4.344h-1.406zm14.696 0h-1.406v-8.969q-.516.485-1.344.969-.813.484-1.469.734v-1.36q1.172-.562 2.047-1.343.89-.797 1.266-1.531h.906v11.5z" fill="#000"/><path d="M109.47 68.096c0-33.515 27.169-60.684 60.684-60.684h466.16a60.685 60.685 0 0 1 60.684 60.684v242.73c0 33.515-27.169 60.684-60.684 60.684h-466.16c-33.515 0-60.684-27.169-60.684-60.684z" fill="none"/><path d="M109.47 68.096c0-33.515 27.169-60.684 60.684-60.684h466.16a60.685 60.685 0 0 1 60.684 60.684v242.73c0 33.515-27.169 60.684-60.684 60.684h-466.16c-33.515 0-60.684-27.169-60.684-60.684z" stroke="#757575" stroke-dasharray="8.0,3.0,1.0,3.0" stroke-linecap="butt" stroke-linejoin="round"/><path d="M223.43 41.59h-3.516v10.516h-1.64V41.59h-3.531V40.2h8.687v1.39zm9.601 10.516h-1.594v-5.844q0-1.047-.39-1.562-.391-.532-1.141-.532-.313 0-.594.094-.281.078-.578.297-.297.203-.656.578-.36.36-.813.906v6.063h-1.593V39.231h1.593v3.734l-.062 1.438q.375-.453.734-.75.36-.313.719-.5t.734-.266q.375-.094.782-.094 1.359 0 2.109.844.75.828.75 2.5v5.969zm3.273-9.14h1.453l.047 1.687q.812-.984 1.594-1.422.797-.438 1.593-.438 1.422 0 2.157.922t.672 2.735h-1.594q.015-1.203-.36-1.735-.375-.547-1.109-.547-.313 0-.64.11t-.673.36q-.328.25-.718.64-.375.39-.813.953v5.875h-1.61v-9.14zm17.617 4.078q0 .343-.016.578 0 .218-.031.422h-6.422q0 1.406.781 2.156.797.75 2.266.75.406 0 .797-.032.406-.03.781-.078.375-.062.719-.125.344-.078.625-.156v1.297q-.64.187-1.469.297-.812.11-1.687.11-1.172 0-2.016-.313t-1.39-.922-.813-1.485q-.25-.875-.25-2 0-.953.281-1.812t.813-1.516 1.297-1.03q.78-.391 1.765-.391.953 0 1.688.312.75.297 1.25.844t.765 1.344q.266.78.266 1.75zm-1.656-.22q.03-.609-.125-1.109-.14-.515-.453-.875-.297-.375-.75-.578t-1.063-.203q-.516 0-.953.203-.422.203-.734.563-.297.36-.5.875-.188.515-.235 1.125h4.813zm10.054 5.282-.032-1.234q-.75.75-1.515 1.078-.766.312-1.625.312-.781 0-1.344-.187-.547-.203-.906-.547-.36-.36-.531-.828-.157-.485-.157-1.032 0-1.375 1.016-2.156 1.031-.781 3.031-.781h1.89v-.797q0-.812-.515-1.297-.516-.5-1.578-.5-.781 0-1.531.188-.75.172-1.547.484v-1.437q.297-.11.656-.204.375-.109.781-.187t.86-.125q.453-.063.906-.063.828 0 1.484.188.672.172 1.125.547.47.375.704.953.25.562.25 1.328v6.297h-1.422zm-.172-4.156h-2.016q-.578 0-1.015.125-.422.11-.704.328-.265.219-.406.531-.125.297-.125.672 0 .266.078.516.078.234.266.422t.469.296q.297.11.718.11.547 0 1.25-.328.704-.344 1.485-1.063v-1.61zm4.1-.219q0-1.172.313-2.078t.907-1.531 1.406-.938q.828-.328 1.844-.328.437 0 .859.063.422.046.828.156V39.23h1.594v12.875h-1.422l-.047-1.734q-.672.968-1.453 1.437-.766.453-1.672.453-.781 0-1.375-.312-.594-.328-1-.922-.39-.61-.594-1.438-.187-.843-.187-1.859zm1.61-.11q0 1.657.485 2.485.5.813 1.39.813.594 0 1.266-.532.672-.547 1.406-1.61v-4.234q-.39-.187-.86-.28t-.937-.095q-1.297 0-2.031.844-.719.828-.719 2.61zm16.617 4.485h-6.844V40.2h1.641v10.516h5.203v1.39zm10.71-4.64q0 1.062-.312 1.953-.297.89-.86 1.53-.562.626-1.375.97t-1.843.343q-.985 0-1.766-.297-.766-.312-1.313-.89-.546-.594-.828-1.47t-.28-2.015q0-1.062.296-1.937.297-.89.86-1.516.562-.64 1.374-.984.813-.36 1.844-.36.985 0 1.766.313.781.297 1.312.89.547.579.828 1.454.297.875.297 2.015zm-1.625.062q0-.844-.187-1.469-.188-.64-.532-1.062t-.843-.641-1.11-.219q-.703 0-1.218.282-.5.28-.829.75-.312.453-.468 1.078-.157.609-.157 1.28 0 .86.188 1.5.187.626.531 1.048.36.422.844.64.5.22 1.11.22.718 0 1.218-.282t.828-.735q.328-.468.469-1.078.156-.625.156-1.312zm11.023 4.234q-.625.25-1.281.36-.64.11-1.328.11-2.172 0-3.344-1.173t-1.172-3.437q0-1.078.328-1.953.344-.891.953-1.516.61-.64 1.454-.984.859-.344 1.875-.344.718 0 1.328.11.625.093 1.187.327v1.516q-.594-.313-1.219-.453-.609-.14-1.265-.14-.61 0-1.156.234-.532.234-.938.671-.406.422-.656 1.063-.235.625-.235 1.422 0 1.656.797 2.484.813.813 2.25.813.64 0 1.25-.14t1.172-.438v1.468zm9.023.344-.031-1.234q-.75.75-1.516 1.078-.765.312-1.625.312-.781 0-1.344-.187-.546-.203-.906-.547-.36-.36-.531-.828-.156-.485-.156-1.031 0-1.375 1.015-2.157 1.032-.78 3.032-.78h1.89v-.798q0-.812-.515-1.297-.516-.5-1.579-.5-.78 0-1.53.188-.75.172-1.548.484v-1.437q.297-.11.657-.203.375-.11.78-.188t.86-.125q.453-.062.906-.062.829 0 1.485.187.672.172 1.125.547.469.375.703.953.25.563.25 1.328v6.297h-1.422zm-.172-4.156h-2.015q-.578 0-1.016.125-.422.11-.703.328-.266.219-.406.531-.125.297-.125.672 0 .266.078.516.078.234.265.422t.47.297q.296.109.718.109.547 0 1.25-.328.703-.344 1.484-1.063v-1.61zm7.68-7.406h-2.704V39.23h4.297v11.547h2.735v1.328h-7.344v-1.328h3.015V40.544zm14.741 11.109q-1.421.593-3 .593-2.515 0-3.875-1.5-1.343-1.515-1.343-4.468 0-1.422.359-2.578.375-1.157 1.063-1.954.703-.812 1.687-1.25t2.203-.437q.828 0 1.531.14.72.141 1.375.422v1.594q-.64-.344-1.343-.531-.688-.188-1.5-.188-.844 0-1.532.313-.672.312-1.156.906-.469.594-.719 1.469-.25.86-.25 1.953 0 2.313.938 3.5.937 1.172 2.75 1.172.765 0 1.469-.172.703-.187 1.343-.515v1.53zm5.773-11.11h-2.703v-1.312h4.297v11.547h2.735v1.328h-7.344v-1.328h3.015V40.544zm14.492 11.563h-1.422l-.062-1.47q-.406.47-.781.782-.36.313-.735.516-.36.187-.734.25-.36.078-.766.078-1.422 0-2.14-.828t-.719-2.5v-5.97h1.594v5.845q0 2.11 1.578 2.11.297 0 .562-.079.282-.094.578-.312.313-.22.657-.579.36-.359.797-.921v-6.063h1.593v9.14zm10.148-2.5q0 .484-.172.875-.156.375-.437.672t-.656.515q-.375.203-.797.344-.422.125-.875.187t-.875.063q-.922 0-1.703-.078t-1.531-.266v-1.453q.796.234 1.593.36.797.109 1.578.109 1.141 0 1.688-.313t.547-.89q0-.235-.094-.422-.078-.203-.312-.375-.22-.188-.704-.375-.484-.203-1.312-.438-.61-.187-1.14-.422-.516-.234-.907-.546-.375-.329-.594-.75t-.218-1.016q0-.375.171-.828t.594-.844q.438-.406 1.172-.656.734-.266 1.813-.266.546 0 1.203.063t1.36.203v1.406q-.75-.172-1.423-.25-.656-.094-1.156-.094-.594 0-1 .094-.39.078-.656.25-.25.156-.36.375-.109.203-.109.453t.094.453q.11.188.36.375.265.188.718.375.469.188 1.219.407.812.234 1.36.5.562.25.905.578.36.312.5.718.157.407.157.907zm10.382 2.375q-.53.14-1.11.187-.577.063-1.171.063-1.719 0-2.562-.782t-.844-2.39v-4.766h-2.563v-1.328h2.563V40.45l1.578-.407v2.922h4.11v1.328h-4.11v4.64q0 .985.516 1.47.53.484 1.546.484.438 0 .954-.062.53-.063 1.093-.22v1.376zm10.617-4.938q0 .344-.015.578 0 .219-.032.422h-6.421q0 1.406.78 2.156.798.75 2.266.75.407 0 .797-.03.407-.032.782-.079.375-.063.718-.125.344-.078.625-.156v1.297q-.64.187-1.469.297-.812.109-1.687.109-1.172 0-2.016-.313t-1.39-.921-.813-1.485q-.25-.875-.25-2 0-.953.282-1.812t.812-1.516 1.297-1.031q.781-.39 1.766-.39.953 0 1.687.312.75.297 1.25.843t.766 1.344q.265.782.265 1.75zm-1.656-.219q.031-.609-.125-1.109-.14-.516-.453-.875-.297-.375-.75-.578t-1.062-.203q-.516 0-.954.203-.421.203-.734.562-.297.36-.5.875-.187.516-.234 1.125h4.812zm4.554-3.859h1.453l.047 1.688q.813-.985 1.594-1.422.797-.438 1.594-.438 1.422 0 2.156.922t.672 2.734h-1.594q.016-1.203-.36-1.734-.374-.547-1.109-.547-.312 0-.64.11t-.672.359q-.328.25-.719.64-.375.391-.812.954v5.875h-1.61v-9.141zm18.242 9.14h-1.593l-.235-7.421-.094-2.86-.562 1.657-1.75 4.75h-1.125l-1.672-4.563-.562-1.844-.032 2.985-.203 7.297h-1.531l.578-11.906h1.922l1.61 4.484.515 1.516.5-1.516 1.687-4.484h1.97l.577 11.906zm7.773 0-.031-1.234q-.75.75-1.516 1.078-.765.313-1.625.313-.78 0-1.343-.188-.547-.203-.907-.547-.359-.359-.53-.828-.157-.484-.157-1.03 0-1.376 1.015-2.157 1.032-.781 3.032-.781h1.89v-.797q0-.813-.515-1.297-.516-.5-1.578-.5-.782 0-1.532.187-.75.172-1.547.485V43.37q.297-.11.657-.203.375-.11.78-.187t.86-.125q.453-.063.907-.063.828 0 1.484.188.672.172 1.125.547.469.375.703.953.25.562.25 1.328v6.297h-1.422zm-.172-4.156h-2.015q-.578 0-1.016.125-.422.11-.703.329-.266.218-.406.53-.125.298-.125.673 0 .265.078.515.078.235.266.422t.468.297q.297.11.719.11.547 0 1.25-.329.703-.343 1.484-1.062v-1.61zm4.555-4.984h1.421l.063 1.469q.39-.469.766-.781t.734-.5q.36-.204.734-.282t.782-.078q1.406 0 2.125.844.734.828.734 2.5v5.969h-1.594v-5.844q0-1.078-.406-1.578-.39-.516-1.188-.516-.28 0-.562.094-.281.078-.578.297-.297.203-.656.578-.344.36-.782.906v6.063h-1.593v-9.14zm16.132 9.14-.032-1.234q-.75.75-1.515 1.078-.766.313-1.625.313-.782 0-1.344-.188-.547-.203-.906-.547-.36-.359-.532-.828-.156-.484-.156-1.03 0-1.376 1.016-2.157 1.031-.781 3.031-.781h1.89v-.797q0-.813-.515-1.297-.516-.5-1.578-.5-.781 0-1.531.187-.75.172-1.547.485V43.37q.297-.11.656-.203.375-.11.781-.187t.86-.125q.453-.063.906-.063.828 0 1.484.188.672.172 1.125.547.469.375.703.953.25.562.25 1.328v6.297h-1.422zm-.172-4.156h-2.016q-.578 0-1.016.125-.421.11-.703.329-.265.218-.406.53-.125.298-.125.673 0 .265.078.515.078.235.266.422t.469.297q.296.11.718.11.547 0 1.25-.329.703-.343 1.485-1.062v-1.61zm11.148-3.703q.25.328.39.75t.14.922q0 .703-.265 1.297-.25.578-.734 1-.469.422-1.125.656t-1.453.235q-.578 0-1.078-.125t-.782-.313q-.187.266-.312.5-.11.219-.11.5 0 .344.329.578.343.22.89.235l2.407.093q.671.016 1.25.172.593.157 1 .453.421.282.64.72.235.421.235.984 0 .609-.266 1.156-.25.547-.813.953-.546.422-1.39.672t-2.016.25q-1.11 0-1.89-.188-.782-.172-1.282-.484t-.734-.75q-.219-.422-.219-.953 0-.656.297-1.156.313-.5.969-.97-.234-.109-.406-.265-.172-.172-.282-.36-.109-.202-.171-.421-.047-.219-.047-.438 0-.578.265-1.062.282-.5.672-.938-.172-.218-.312-.406-.125-.203-.235-.437-.093-.235-.14-.5-.047-.282-.047-.625 0-.703.25-1.281.265-.594.734-1.016t1.125-.656q.672-.235 1.469-.235.344 0 .64.047.313.047.547.125h3.329v1.281h-1.47zm-5.5 9.188q0 .64.672.937t1.875.297q.75 0 1.265-.14t.828-.36.453-.515q.141-.282.141-.579 0-.562-.453-.828t-1.39-.297l-2.391-.093q-.297.203-.5.39-.203.203-.313.391-.11.203-.156.39-.031.204-.031.407zm.484-7.485q0 .438.14.813.141.36.407.61t.625.39.797.14q.469 0 .844-.156t.625-.422q.25-.28.375-.64.14-.36.14-.735 0-.437-.156-.796-.14-.375-.406-.625t-.625-.391-.797-.14q-.469 0-.844.171-.36.156-.625.422-.25.266-.375.625-.125.344-.125.734zm16.414 1.094q0 .344-.016.578 0 .22-.03.422h-6.423q0 1.406.782 2.156.796.75 2.265.75.406 0 .797-.03.406-.032.781-.079.375-.062.719-.125.344-.078.625-.156v1.297q-.64.187-1.469.297-.812.109-1.687.109-1.172 0-2.016-.313t-1.39-.921-.813-1.485q-.25-.875-.25-2 0-.953.281-1.812t.813-1.516 1.297-1.031q.78-.39 1.765-.39.953 0 1.688.312.75.297 1.25.844t.765 1.343q.266.782.266 1.75zm-1.656-.219q.031-.609-.125-1.109-.14-.516-.453-.875-.297-.375-.75-.578t-1.063-.203q-.515 0-.953.203-.422.203-.734.562-.297.36-.5.875-.188.516-.235 1.125h4.813zm4.554-3.859h1.453l.047 1.688q.813-.985 1.594-1.422.797-.438 1.594-.438 1.422 0 2.156.922t.672 2.734h-1.594q.016-1.203-.36-1.734-.374-.547-1.109-.547-.312 0-.64.11t-.672.359q-.328.25-.72.64-.374.391-.812.954v5.875h-1.609v-9.14zM485.94 56.028q-1.36-1.703-2.297-4t-.937-4.766q0-2.156.703-4.14.828-2.313 2.53-4.594h1.173q-1.094 1.89-1.453 2.703-.547 1.25-.875 2.625-.39 1.703-.39 3.422 0 4.375 2.718 8.75h-1.172zm3.478-3.922V43.7h-1.453v-1.266h1.453v-1.03q0-.97.172-1.454.235-.64.828-1.031t1.672-.39q.688 0 1.531.155l-.25 1.438q-.5-.094-.953-.094-.75 0-1.062.328-.313.313-.313 1.188v.89h1.89V43.7h-1.89v8.406h-1.625zm4.184-4.844q0-2.687 1.484-3.969 1.25-1.078 3.047-1.078 2 0 3.265 1.313 1.266 1.297 1.266 3.61 0 1.859-.562 2.937-.563 1.062-1.641 1.656-1.063.594-2.328.594-2.031 0-3.281-1.297-1.25-1.313-1.25-3.766zm1.687 0q0 1.86.797 2.797.812.922 2.047.922 1.219 0 2.031-.922.813-.937.813-2.844 0-1.797-.813-2.718t-2.031-.922q-1.235 0-2.047.922-.797.906-.797 2.765zm9.282 4.844v-9.672h1.469v1.469q.562-1.031 1.031-1.36.484-.328 1.063-.328.828 0 1.687.532l-.562 1.515q-.61-.36-1.204-.36-.546 0-.968.33t-.61.89q-.28.875-.28 1.922v5.062h-1.626zm13.193 0-2.969-9.672h1.703l1.532 5.578.578 2.078q.047-.156.5-2l1.547-5.656h1.687l1.438 5.61.484 1.843.563-1.859 1.656-5.594h1.594l-3.032 9.672h-1.703l-1.531-5.797-.375-1.64-1.953 7.437h-1.719zm11.082-4.844q0-2.687 1.484-3.969 1.25-1.078 3.047-1.078 2 0 3.266 1.313 1.266 1.297 1.266 3.61 0 1.859-.563 2.937-.562 1.062-1.64 1.656-1.063.594-2.329.594-2.03 0-3.28-1.297-1.25-1.313-1.25-3.766zm1.688 0q0 1.86.796 2.797.813.922 2.047.922 1.22 0 2.032-.922.812-.937.812-2.844 0-1.797-.812-2.718t-2.032-.922q-1.234 0-2.047.922-.796.906-.796 2.765zm9.282 4.844v-9.672h1.468v1.469q.563-1.031 1.032-1.36.484-.328 1.062-.328.828 0 1.688.532l-.563 1.515q-.61-.36-1.203-.36-.547 0-.969.33t-.61.89q-.28.875-.28 1.922v5.062h-1.625zm6.228 0V38.747h1.64v7.625l3.891-3.937h2.11l-3.688 3.593 4.063 6.078h-2.016l-3.203-4.953-1.156 1.125v3.828h-1.641zm15.953-3.11 1.687.204q-.406 1.484-1.484 2.312-1.078.813-2.766.813-2.125 0-3.375-1.297-1.234-1.313-1.234-3.672 0-2.453 1.25-3.797 1.266-1.344 3.266-1.344 1.937 0 3.156 1.328 1.234 1.313 1.234 3.704v.437h-7.219q.094 1.594.907 2.453.812.844 2.015.844.906 0 1.547-.469.64-.484 1.016-1.515zm-5.39-2.656h5.406q-.11-1.218-.625-1.828-.782-.953-2.032-.953-1.125 0-1.906.766-.766.75-.844 2.015zm9.125 5.766v-9.672h1.469v1.469q.562-1.031 1.031-1.36.484-.328 1.063-.328.828 0 1.687.532l-.562 1.515q-.61-.36-1.204-.36-.546 0-.968.33t-.61.89q-.281.875-.281 1.922v5.062h-1.625zm17.13 0h-1.64V41.653q-.594.563-1.563 1.14-.953.563-1.719.844v-1.593q1.375-.641 2.406-1.563T581.8 38.7h1.063v13.406zm5.735 3.922h-1.187q2.734-4.375 2.734-8.75 0-1.719-.39-3.39-.313-1.376-.876-2.626-.359-.828-1.468-2.734h1.187q1.703 2.281 2.531 4.594.688 1.984.688 4.14 0 2.47-.938 4.766t-2.28 4z" fill="#000"/><path d="M199.34 120.05c0-22.411 18.167-40.578 40.578-40.578h324.48a40.578 40.578 0 0 1 40.578 40.578v162.31c0 22.411-18.167 40.578-40.578 40.578h-324.48c-22.411 0-40.578-18.168-40.578-40.578z" fill="#fff2cc" fill-rule="evenodd"/><path d="M199.34 120.05c0-22.411 18.167-40.578 40.578-40.578h324.48a40.578 40.578 0 0 1 40.578 40.578v162.31c0 22.411-18.167 40.578-40.578 40.578h-324.48c-22.411 0-40.578-18.168-40.578-40.578z" stroke="#757575" stroke-linecap="butt" stroke-linejoin="round"/><path d="M194.44 129.38c0-22.411 18.167-40.578 40.578-40.578h319.19a40.578 40.578 0 0 1 40.578 40.578v162.31c0 22.411-18.167 40.578-40.578 40.578h-319.19c-22.411 0-40.578-18.168-40.578-40.578z" fill="#fff2cc" fill-rule="evenodd"/><path d="M194.44 129.38c0-22.411 18.167-40.578 40.578-40.578h319.19a40.578 40.578 0 0 1 40.578 40.578v162.31c0 22.411-18.167 40.578-40.578 40.578h-319.19c-22.411 0-40.578-18.168-40.578-40.578z" stroke="#757575" stroke-linecap="butt" stroke-linejoin="round"/><path d="M303.98 217.46v-13.359h1.766v5.484h6.937v-5.484h1.766v13.359h-1.766v-6.297h-6.937v6.297h-1.766zm16.817 0v-11.781h-4.406v-1.578h10.578v1.578h-4.406v11.781h-1.766zm11.396 0v-11.781h-4.406v-1.578h10.578v1.578h-4.406v11.781h-1.766zm7.99 0v-13.359h5.047q1.328 0 2.03.125.97.172 1.641.64.672.454 1.079 1.282t.406 1.828q0 1.703-1.094 2.89-1.078 1.172-3.922 1.172h-3.422v5.422h-1.765zm1.765-7h3.453q1.72 0 2.438-.64t.719-1.798q0-.843-.422-1.437t-1.125-.781q-.438-.125-1.64-.125h-3.423v4.78zm21.633 3.453 1.61.219q-.266 1.656-1.36 2.61-1.078.937-2.672.937-1.984 0-3.187-1.297t-1.203-3.719q0-1.578.515-2.75t1.579-1.75q1.062-.594 2.312-.594 1.578 0 2.578.797t1.281 2.266l-1.593.234q-.235-.969-.813-1.453-.578-.5-1.39-.5-1.235 0-2.016.89t-.781 2.813q0 1.953.75 2.844.75.875 1.953.875.968 0 1.61-.594.655-.594.827-1.828zm2.407-1.297q0-2.687 1.484-3.969 1.25-1.078 3.047-1.078 2 0 3.265 1.313 1.266 1.297 1.266 3.61 0 1.859-.562 2.937-.563 1.062-1.641 1.656-1.063.594-2.328.594-2.031 0-3.281-1.297-1.25-1.313-1.25-3.766zm1.687 0q0 1.86.797 2.797.812.922 2.047.922 1.219 0 2.031-.922.812-.937.812-2.844 0-1.797-.812-2.718t-2.031-.922q-1.235 0-2.047.922-.797.906-.797 2.765zm9.298 4.844v-9.672h1.468v1.375q1.063-1.594 3.079-1.594.875 0 1.609.313t1.094.828q.375.5.515 1.203.094.453.094 1.594v5.953h-1.64v-5.89q0-1-.204-1.485-.187-.5-.672-.797t-1.14-.297q-1.047 0-1.813.672-.75.656-.75 2.516v5.28h-1.64zm10.376 0v-9.672h1.468v1.375q1.063-1.594 3.079-1.594.875 0 1.609.313t1.094.828q.375.5.515 1.203.094.453.094 1.594v5.953h-1.64v-5.89q0-1-.204-1.485-.187-.5-.672-.797t-1.14-.297q-1.047 0-1.813.672-.75.656-.75 2.516v5.28h-1.64zm17-3.11 1.688.204q-.406 1.484-1.484 2.312-1.078.813-2.766.813-2.125 0-3.375-1.297-1.234-1.313-1.234-3.672 0-2.453 1.25-3.797 1.265-1.344 3.265-1.344 1.938 0 3.157 1.328 1.234 1.313 1.234 3.703v.438h-7.219q.094 1.594.906 2.453.813.844 2.016.844.906 0 1.547-.469.64-.484 1.015-1.516zm-5.39-2.656h5.406q-.11-1.218-.625-1.828-.781-.953-2.031-.953-1.125 0-1.906.766-.766.75-.844 2.015zm15.454 2.22 1.61.218q-.266 1.656-1.36 2.61-1.078.937-2.672.937-1.984 0-3.187-1.297t-1.203-3.719q0-1.578.515-2.75t1.578-1.75q1.063-.594 2.313-.594 1.578 0 2.578.797t1.281 2.266l-1.594.234q-.234-.968-.812-1.453-.578-.5-1.39-.5-1.235 0-2.016.89t-.782 2.813q0 1.953.75 2.844.75.875 1.953.875.97 0 1.61-.594.656-.593.828-1.828zm6.594 2.077.234 1.453q-.687.141-1.234.141-.89 0-1.39-.281-.485-.281-.688-.735-.203-.468-.203-1.937v-5.578h-1.204v-1.266h1.204v-2.39l1.625-.985v3.375h1.656v1.266h-1.656v5.672q0 .687.078.89.093.203.28.328.204.11.58.11.265 0 .718-.063zm1.605-10v-1.89h1.64v1.89h-1.64zm0 11.47v-9.673h1.64v9.672h-1.64zm3.535-4.845q0-2.687 1.485-3.968 1.25-1.078 3.047-1.078 2 0 3.265 1.312 1.266 1.297 1.266 3.61 0 1.859-.563 2.937-.562 1.063-1.64 1.656-1.063.594-2.328.594-2.031 0-3.281-1.297-1.25-1.312-1.25-3.766zm1.688 0q0 1.86.797 2.797.812.922 2.047.922 1.218 0 2.03-.922.813-.937.813-2.843 0-1.797-.812-2.72t-2.031-.921q-1.235 0-2.047.922-.797.906-.797 2.765zm9.298 4.844v-9.672h1.468v1.375q1.063-1.593 3.078-1.593.875 0 1.61.312t1.094.828q.375.5.515 1.203.094.453.094 1.594v5.953h-1.64v-5.89q0-1-.204-1.485-.187-.5-.672-.797t-1.14-.297q-1.047 0-1.813.672-.75.657-.75 2.516v5.281h-1.64zm15.559 3.703v-13.375h1.484v1.25q.531-.734 1.187-1.093.672-.375 1.625-.375 1.235 0 2.172.64.953.625 1.438 1.797.484 1.156.484 2.547 0 1.484-.531 2.672t-1.547 1.828q-1.016.625-2.14.625-.813 0-1.47-.344t-1.062-.875v4.703h-1.64zm1.484-8.484q0 1.86.75 2.766.766.89 1.828.89 1.094 0 1.875-.922.781-.937.781-2.875 0-1.843-.765-2.765-.75-.922-1.813-.922-1.047 0-1.86.984-.796.969-.796 2.844zm8.282-.063q0-2.687 1.484-3.968 1.25-1.078 3.047-1.078 2 0 3.266 1.312 1.265 1.297 1.265 3.61 0 1.859-.562 2.937-.563 1.063-1.64 1.656-1.063.594-2.329.594-2.031 0-3.281-1.297-1.25-1.312-1.25-3.766zm1.687 0q0 1.86.797 2.797.813.922 2.047.922 1.219 0 2.031-.922.813-.937.813-2.843 0-1.797-.813-2.72t-2.03-.921q-1.235 0-2.048.922-.797.906-.797 2.765zm8.689 0q0-2.687 1.484-3.968 1.25-1.078 3.047-1.078 2 0 3.265 1.312 1.266 1.297 1.266 3.61 0 1.859-.562 2.937-.563 1.063-1.641 1.656-1.063.594-2.328.594-2.031 0-3.281-1.297-1.25-1.312-1.25-3.766zm1.687 0q0 1.86.797 2.797.812.922 2.047.922 1.219 0 2.031-.922.813-.937.813-2.843 0-1.797-.813-2.72t-2.031-.921q-1.235 0-2.047.922-.797.906-.797 2.765zm9.25 4.844v-13.359h1.641v13.36h-1.64z" fill="#000"/><path d="m17.963 211.57 176.47-1.04" fill="none"/><path d="m17.963 211.57 162.76-.959" stroke="red" stroke-linecap="butt" stroke-linejoin="round" stroke-width="4"/><path d="m180.73 210.62-4.472 4.525 12.332-4.571-12.385-4.426z" fill="red" fill-rule="evenodd" stroke="red" stroke-linecap="butt" stroke-width="4"/><path d="m594.78 210.54 159.5-.41" fill="none"/><path d="m594.78 210.54 145.79-.374" stroke="red" stroke-linecap="butt" stroke-linejoin="round" stroke-width="4"/><path d="m740.57 210.16-4.487 4.51 12.347-4.53-12.37-4.467z" fill="red" fill-rule="evenodd" stroke="red" stroke-linecap="butt" stroke-width="4"/><path d="M740.98 179.87h113.57v79.339H740.98z" fill="none"/><path d="M777.18 204.23v-10.109h-3.781v-1.344h9.078v1.344h-3.781v10.109h-1.516zm15.023-4.016 1.516.375q-.47 1.875-1.72 2.86-1.234.984-3.015.984-1.86 0-3.015-.75-1.157-.765-1.766-2.187-.61-1.438-.61-3.078 0-1.797.688-3.125t1.938-2.016q1.265-.703 2.78-.703 1.72 0 2.891.875t1.641 2.469l-1.5.343q-.39-1.25-1.156-1.812-.75-.578-1.906-.578-1.313 0-2.203.64-.891.625-1.25 1.704-.36 1.062-.36 2.187 0 1.469.422 2.563.438 1.078 1.328 1.625.906.53 1.953.53 1.266 0 2.14-.734.891-.734 1.204-2.172zm3.383 4.016v-11.453h4.328q1.14 0 1.734.11.844.14 1.406.53.579.391.922 1.11.36.703.36 1.563 0 1.453-.938 2.468-.922 1.016-3.36 1.016h-2.937v4.656h-1.515zm1.515-6.016h2.97q1.468 0 2.077-.546.625-.547.625-1.532 0-.718-.375-1.234-.36-.516-.953-.672-.375-.11-1.406-.11h-2.938v4.094zm16.203 4.75.204 1.25q-.594.125-1.063.125-.766 0-1.187-.234-.422-.25-.594-.64-.172-.407-.172-1.673v-4.765h-1.031v-1.094h1.03v-2.062l1.407-.844v2.906h1.406v1.094h-1.406v4.844q0 .609.063.78.078.173.25.282.171.094.484.094.234 0 .61-.063zm.852-2.89q0-2.297 1.281-3.406 1.078-.922 2.61-.922 1.718 0 2.796 1.125 1.094 1.11 1.094 3.094 0 1.593-.484 2.515t-1.406 1.438q-.907.5-2 .5-1.735 0-2.813-1.11-1.078-1.125-1.078-3.234zm1.453 0q0 1.594.688 2.39.703.797 1.75.797t1.734-.797q.703-.796.703-2.437 0-1.531-.703-2.328-.688-.797-1.734-.797t-1.75.797q-.688.781-.688 2.375zM770.92 223.23v-1.219q-.969 1.406-2.64 1.406-.735 0-1.376-.28-.625-.282-.937-.704-.313-.437-.438-1.047-.078-.422-.078-1.312v-5.141h1.406v4.594q0 1.11.079 1.484.14.563.562.875.438.313 1.063.313.64 0 1.187-.313.563-.328.781-.89.235-.563.235-1.625v-4.438h1.406v8.297h-1.25zm3.46 3.188v-11.485h1.282v1.079q.453-.641 1.016-.954.578-.312 1.39-.312 1.063 0 1.875.547t1.22 1.547q.421.984.421 2.172 0 1.28-.469 2.297-.453 1.015-1.328 1.562-.86.547-1.828.547-.703 0-1.266-.297-.546-.297-.906-.75v4.047h-1.406zm1.267-7.297q0 1.609.64 2.375.656.765 1.578.765.938 0 1.61-.797t.671-2.453q0-1.594-.656-2.375-.656-.797-1.562-.797-.89 0-1.594.844-.688.844-.688 2.438zm7.07 1.625 1.39-.22q.11.845.641 1.298.547.437 1.5.437.969 0 1.438-.39.468-.407.468-.938 0-.469-.406-.75-.297-.187-1.437-.469-1.547-.39-2.157-.672-.593-.296-.906-.796-.297-.5-.297-1.11 0-.562.25-1.031t.688-.781q.328-.25.89-.406.578-.172 1.22-.172.983 0 1.718.28t1.078.767q.36.468.5 1.28l-1.375.188q-.094-.64-.547-1t-1.265-.36q-.97 0-1.391.329-.406.312-.406.734 0 .282.172.5t.53.375q.22.078 1.25.36 1.485.39 2.079.656.594.25.922.734.344.485.344 1.203 0 .704-.422 1.329-.407.609-1.188.953-.765.343-1.734.343-1.625 0-2.469-.671t-1.078-2zm11.625 1.218.203 1.25q-.594.125-1.063.125-.765 0-1.187-.234-.422-.25-.594-.64-.172-.407-.172-1.673v-4.765h-1.03v-1.094h1.03v-2.062l1.406-.844v2.906h1.407v1.094h-1.407v4.844q0 .609.063.78.078.173.25.282.172.094.484.094.235 0 .61-.063zm1.367 1.266v-8.297h1.266v1.25q.484-.875.89-1.156t.906-.281q.704 0 1.438.453l-.484 1.297q-.516-.297-1.032-.297-.453 0-.828.281-.36.266-.515.766-.235.75-.235 1.64v4.344h-1.406zm11.016-2.672 1.453.172q-.344 1.281-1.281 1.984-.922.703-2.36.703-1.828 0-2.89-1.125t-1.063-3.14q0-2.094 1.078-3.25t2.797-1.156q1.657 0 2.703 1.14 1.063 1.125 1.063 3.172v.375h-6.188q.079 1.375.766 2.11.703.718 1.735.718.78 0 1.328-.406t.859-1.297zm-4.61-2.281h4.626q-.094-1.047-.532-1.563-.672-.812-1.734-.812-.969 0-1.64.656-.657.64-.72 1.719zm13.243 3.922q-.782.672-1.5.953-.72.266-1.547.266-1.375 0-2.11-.672t-.734-1.703q0-.61.281-1.11.281-.515.719-.812.453-.313 1.016-.47.421-.108 1.25-.202 1.703-.203 2.515-.485v-.375q0-.859-.39-1.203-.547-.484-1.61-.484-.984 0-1.469.36-.468.343-.687 1.218l-1.375-.187q.187-.875.61-1.422.437-.547 1.25-.828.812-.297 1.874-.297t1.719.25q.672.25.984.625t.438.953q.078.36.078 1.297v1.875q0 1.969.078 2.484.094.516.36 1h-1.47q-.218-.437-.28-1.031zm-.11-3.14q-.765.312-2.297.53-.875.125-1.234.282t-.563.468q-.187.297-.187.657 0 .562.422.937.437.375 1.25.375t1.437-.344q.64-.359.938-.984.234-.469.234-1.406v-.516zm3.602 4.171v-8.297h1.25v1.156q.39-.609 1.031-.968.656-.375 1.484-.375.922 0 1.516.39.594.375.828 1.063.985-1.453 2.563-1.453 1.234 0 1.89.687.672.672.672 2.094v5.703h-1.39v-5.234q0-.844-.141-1.203-.14-.375-.5-.594-.36-.235-.844-.235-.875 0-1.453.579t-.578 1.859v4.828h-1.406v-5.39q0-.938-.344-1.407t-1.125-.468q-.594 0-1.094.312t-.734.922q-.219.594-.219 1.719v4.312h-1.406z" fill="#000"/><path d="m20.016 304.65 169.54-87.748" fill="none"/><path d="m20.016 304.65 157.37-81.447" stroke="red" stroke-linecap="butt" stroke-linejoin="round" stroke-width="4"/><path d="m177.38 223.2-1.927 6.063 8.908-9.676-13.044 1.686z" fill="red" fill-rule="evenodd" stroke="red" stroke-linecap="butt" stroke-width="4"/></g></svg>