<svg fill="none" stroke-linecap="square" stroke-miterlimit="10" viewBox="0 0 767.26 467.03" xmlns="http://www.w3.org/2000/svg"><clipPath id="a"><path d="M0 0h767.26v467.03H0V0z"/></clipPath><g clip-path="url(#a)"><path d="M0 0h767.26v467.03H0z" fill="none"/><path d="M161.1 79.322c0-41.229 33.423-74.652 74.652-74.652h298.6a74.652 74.652 0 0 1 74.652 74.652v304.74c0 41.229-33.423 74.652-74.652 74.652h-298.6c-41.229 0-74.652-33.423-74.652-74.652z" fill="#f3f3f3" fill-rule="evenodd"/><path d="M161.1 79.322c0-41.229 33.423-74.652 74.652-74.652h298.6a74.652 74.652 0 0 1 74.652 74.652v304.74c0 41.229-33.423 74.652-74.652 74.652h-298.6c-41.229 0-74.652-33.423-74.652-74.652z" stroke="#000" stroke-linecap="butt" stroke-linejoin="round"/><path d="M332.57 53.001q-1.422.594-3 .594-2.516 0-3.875-1.5-1.344-1.516-1.344-4.47 0-1.421.36-2.577.375-1.156 1.062-1.953.703-.813 1.688-1.25t2.203-.438q.828 0 1.53.14.72.141 1.376.423v1.594q-.64-.344-1.344-.532-.687-.187-1.5-.187-.844 0-1.531.312-.672.313-1.156.907-.47.593-.72 1.468-.25.86-.25 1.953 0 2.313.938 3.5.938 1.172 2.75 1.172.766 0 1.47-.172.702-.187 1.343-.515V53zm10.617-4.188q0 1.063-.313 1.954-.296.89-.859 1.53-.562.626-1.375.97t-1.844.343q-.984 0-1.765-.297-.766-.312-1.313-.89-.547-.594-.828-1.469t-.281-2.016q0-1.062.297-1.937.297-.89.86-1.516.562-.64 1.374-.984.813-.36 1.844-.36.984 0 1.766.313.78.297 1.312.89.547.579.828 1.454.297.875.297 2.015zm-1.625.063q0-.844-.188-1.469-.187-.64-.53-1.062t-.844-.64-1.11-.22q-.703 0-1.219.282-.5.28-.828.75-.312.453-.469 1.078-.156.61-.156 1.28 0 .86.188 1.5.187.626.53 1.048.36.422.845.64.5.22 1.11.22.718 0 1.218-.282t.828-.734q.328-.47.469-1.079.156-.625.156-1.312zm3.913-4.563h1.422l.063 1.47q.39-.47.766-.782t.734-.5q.36-.203.734-.281t.782-.078q1.406 0 2.125.843.734.829.734 2.5v5.97h-1.594V47.61q0-1.078-.406-1.578-.39-.515-1.188-.515-.28 0-.562.093-.281.079-.578.297-.297.203-.657.578-.343.36-.78.907v6.062h-1.595v-9.14zm10.257 0h1.422l.063 1.47q.39-.47.766-.782t.734-.5q.36-.203.734-.281t.782-.078q1.406 0 2.125.843.734.829.734 2.5v5.97h-1.594V47.61q0-1.078-.406-1.578-.39-.515-1.188-.515-.28 0-.562.093-.281.079-.578.297-.297.203-.657.578-.343.36-.78.907v6.062h-1.595v-9.14zm18.054.875q0 .735-.28 1.454-.266.703-.844 1.28-.563.563-1.454.923-.89.343-2.14.343h-1.469v4.266h-1.625V41.548h3.36q.874 0 1.687.203.812.188 1.422.625.625.438.984 1.14.36.688.36 1.673zm-1.687.079q0-1.157-.75-1.766t-2.094-.61H367.6v4.907h1.516q1.437 0 2.203-.625.781-.64.781-1.906zm12.117 3.547q0 1.062-.313 1.953-.296.89-.859 1.53-.562.626-1.375.97t-1.844.343q-.984 0-1.765-.297-.766-.312-1.313-.89-.547-.594-.828-1.469t-.281-2.016q0-1.062.297-1.937.297-.89.86-1.516.562-.64 1.374-.984.813-.36 1.844-.36.984 0 1.766.313.78.297 1.312.89.547.579.828 1.454.297.875.297 2.015zm-1.625.062q0-.844-.188-1.469-.187-.64-.53-1.062t-.844-.64-1.11-.22q-.703 0-1.219.282-.5.28-.828.75-.312.453-.469 1.078-.156.61-.156 1.28 0 .86.188 1.5.187.626.53 1.048.36.422.845.64.5.22 1.11.22.718 0 1.218-.282t.828-.734q.328-.47.469-1.079.156-.625.156-1.312zm11.882-.062q0 1.062-.313 1.953-.296.89-.859 1.53-.562.626-1.375.97t-1.844.343q-.984 0-1.765-.297-.766-.312-1.313-.89-.547-.594-.828-1.469t-.281-2.016q0-1.062.297-1.937.297-.89.86-1.516.562-.64 1.374-.984.813-.36 1.844-.36.984 0 1.766.313.78.297 1.312.89.547.579.828 1.454.297.875.297 2.015zm-1.625.062q0-.844-.188-1.469-.187-.64-.53-1.062t-.844-.64-1.11-.22q-.703 0-1.219.282-.5.28-.828.75-.312.453-.469 1.078-.156.61-.156 1.28 0 .86.188 1.5.187.626.53 1.048.36.422.845.64.5.22 1.11.22.718 0 1.218-.282t.828-.734q.328-.47.469-1.079.156-.625.156-1.312zm7.038-6.984h-2.703v-1.313h4.297v11.547h2.735v1.328h-7.344v-1.328h3.016V41.892zm9.992 1.015h-2.75v-1.36h7.125v1.36h-2.734v9.156h2.734v1.391h-7.125v-1.39h2.75v-9.157zm13.93 10.547v-6.562q0-.438-.032-.703-.031-.282-.11-.438-.062-.156-.171-.219t-.25-.062q-.188 0-.344.11t-.344.359q-.172.234-.39.64l-.5 1v5.875h-1.438v-6.39q0-.5-.031-.813t-.11-.484q-.062-.172-.171-.235t-.266-.062q-.172 0-.313.094-.14.078-.328.328-.172.234-.39.64t-.516 1.047v5.875h-1.469v-9.14h1.22l.077 1.734q.235-.516.453-.875.22-.375.453-.594.25-.218.516-.328t.594-.11q.734 0 1.11.485.39.485.39 1.5.219-.484.422-.844.218-.375.453-.625.25-.25.531-.375.297-.14.688-.14 1.718 0 1.718 2.656v6.656h-1.453zm11.553-4.734q0 1.219-.344 2.14-.343.907-.953 1.516-.593.594-1.422.89-.812.298-1.765.298-.438 0-.875-.047t-.875-.157v3.828h-1.594V44.313h1.422l.094 1.532q.687-.938 1.453-1.313.781-.39 1.687-.39.782 0 1.375.328t.985.937q.406.594.609 1.438.203.828.203 1.875zm-1.625.062q0-.718-.11-1.312-.109-.61-.343-1.031-.219-.422-.578-.657-.344-.25-.844-.25-.297 0-.61.094t-.64.328q-.328.219-.703.594-.36.36-.781.906v4.438q.437.172.922.281t.937.11q1.281 0 2.016-.876t.734-2.625zm7.18-6.89h-2.704v-1.313h4.297v11.547h2.735v1.328H437.9v-1.328h3.015V41.892z" fill="#000"/><path d="M198.74 134.8c0-31.813 25.789-57.602 57.602-57.602h271.25a57.604 57.604 0 0 1 57.602 57.602v230.4c0 31.813-25.789 57.602-57.602 57.602h-271.25c-31.813 0-57.602-25.789-57.602-57.602z" fill="#c9daf8" fill-rule="evenodd"/><path d="M198.74 134.8c0-31.813 25.789-57.602 57.602-57.602h271.25a57.604 57.604 0 0 1 57.602 57.602v230.4c0 31.813-25.789 57.602-57.602 57.602h-271.25c-31.813 0-57.602-25.789-57.602-57.602z" stroke="#757575" stroke-linecap="butt" stroke-linejoin="round"/><path d="M308.97 121.2q-1.14 0-2.11-.422-.968-.437-1.687-1.234-.719-.813-1.125-2t-.406-2.688q0-1.469.406-2.64t1.125-1.985q.734-.828 1.735-1.265 1.015-.453 2.218-.453 1.094 0 1.938.453.86.453 1.39 1.047l-.875.984q-.484-.5-1.078-.797-.593-.312-1.375-.312-.875 0-1.593.343t-1.235.985q-.5.64-.781 1.562-.281.906-.281 2.047 0 1.156.28 2.078t.782 1.578q.516.657 1.235 1.016.718.344 1.593.344.828 0 1.485-.344.672-.36 1.265-1.016l.875.953q-.718.844-1.64 1.313-.907.453-2.14.453zm12.241 0q-1.453 0-2.219-.813-.765-.828-.765-2.453v-8.984h-3.235v-1.25h4.766v10.359q0 1 .484 1.437t1.297.438 1.703-.406l.39 1.14q-.624.25-1.155.391-.516.14-1.266.14zm9.49-.219v-7.812h-4.218v-1.25h5.75v9.062h-1.531zm.704-10.969q-.516 0-.875-.328t-.36-.86q0-.546.36-.874t.875-.328q.531 0 .875.328.36.328.36.875 0 .531-.36.86-.344.327-.875.327zM342.16 121.2q-1.031 0-1.922-.312-.875-.313-1.547-.922-.656-.625-1.047-1.516-.375-.89-.375-2.015 0-1.11.375-1.985.39-.875 1.031-1.484.656-.625 1.485-.953t1.734-.328q.969 0 1.734.312.782.313 1.313.875.547.547.812 1.344.282.781.282 1.734 0 .25-.016.5-.016.235-.047.422h-7.156q.156 1.547 1.125 2.328.984.782 2.406.782.813 0 1.469-.235.672-.234 1.297-.625l.547 1q-.657.453-1.531.766t-1.97.312zm-.219-8.297q-.563 0-1.078.188t-.922.531-.688.875q-.28.516-.39 1.188h5.781q-.094-1.407-.812-2.094t-1.891-.688zm6.99 8.078v-9.062h1.266l.14 1.547h.063q.719-.766 1.531-1.266.829-.515 1.891-.515 1.625 0 2.375.937.75.922.75 2.719v5.64h-1.516v-5.421q0-1.297-.5-1.922-.484-.625-1.593-.625-.407 0-.766.11-.344.093-.687.312-.329.203-.688.515-.344.297-.734.703v6.328h-1.532zm16.804.22q-.985 0-1.657-.266t-1.078-.766-.593-1.188q-.172-.687-.172-1.53v-4.282h-2.563v-1.156l2.625-.094.203-2.922h1.266v2.922h4.453v1.25h-4.453v4.313q0 .609.11 1.062t.374.781q.266.313.703.47.453.155 1.11.155t1.172-.109 1-.297l.343 1.125q-.609.219-1.296.375t-1.547.156zm10.397 0q-1.141 0-2.11-.423-.969-.437-1.687-1.234-.72-.813-1.125-2t-.407-2.688q0-1.468.407-2.64t1.125-1.985q.734-.828 1.734-1.265 1.016-.453 2.219-.453 1.094 0 1.937.453.86.453 1.391 1.047l-.875.984q-.484-.5-1.078-.797-.594-.312-1.375-.312-.875 0-1.594.343t-1.234.985q-.5.64-.782 1.562-.28.907-.28 2.047 0 1.156.28 2.078t.782 1.578q.515.657 1.234 1.016.719.344 1.594.344.828 0 1.484-.344.672-.36 1.266-1.016l.875.954q-.719.843-1.64 1.312-.907.453-2.141.453zm10.24 0q-.89 0-1.703-.313t-1.437-.922q-.61-.61-.969-1.485-.36-.89-.36-2.015 0-1.14.36-2.016.36-.89.969-1.5.625-.625 1.437-.937.813-.328 1.704-.328.906 0 1.703.328.812.312 1.422.937.625.61.984 1.5.375.875.375 2.016 0 1.125-.375 2.015-.36.875-.984 1.485-.61.61-1.422.922-.797.312-1.703.312zm0-1.266q.657 0 1.188-.25t.906-.704q.39-.468.594-1.093.203-.64.203-1.422t-.203-1.422-.594-1.11q-.375-.468-.906-.718t-1.187-.25-1.188.25-.922.718q-.375.47-.578 1.11t-.203 1.422.203 1.422q.203.625.578 1.093.39.454.922.704t1.188.25zm7.335 1.047v-9.063h1.266l.14 1.547h.063q.718-.766 1.53-1.266.829-.515 1.891-.515 1.625 0 2.375.937.75.922.75 2.719v5.64h-1.515v-5.421q0-1.297-.5-1.922-.484-.625-1.594-.625-.406 0-.766.11-.343.093-.687.312-.328.203-.688.515-.343.297-.734.703v6.329h-1.531zm11.194 0v-9.063h1.266l.14 1.547h.063q.718-.766 1.53-1.266.829-.515 1.891-.515 1.625 0 2.375.937.75.922.75 2.719v5.64h-1.515v-5.421q0-1.297-.5-1.922-.484-.625-1.594-.625-.406 0-.766.11-.343.093-.687.312-.328.203-.688.515-.343.297-.734.703v6.329h-1.531zm15.616.218q-1.031 0-1.922-.312-.875-.313-1.547-.922-.656-.625-1.047-1.516-.375-.89-.375-2.015 0-1.11.375-1.985.39-.875 1.031-1.484.657-.625 1.485-.953t1.734-.328q.969 0 1.735.312.78.313 1.312.875.547.547.813 1.344.28.781.28 1.734 0 .25-.015.5-.015.235-.047.422h-7.156q.156 1.547 1.125 2.328.985.782 2.406.782.813 0 1.47-.235.671-.234 1.296-.625l.547 1q-.656.453-1.531.766t-1.969.312zm-.219-8.297q-.562 0-1.078.188t-.922.531-.687.875q-.282.516-.39 1.188h5.78q-.093-1.407-.812-2.094t-1.89-.688zm11.71 8.297q-1.063 0-1.97-.312t-1.578-.922-1.047-1.485q-.359-.89-.359-2.015 0-1.14.39-2.016.407-.89 1.094-1.5.688-.625 1.61-.937.922-.328 1.953-.328 1.125 0 1.937.406.813.39 1.36.922l-.766.984q-.547-.484-1.156-.75-.61-.281-1.312-.281-.782 0-1.438.25t-1.125.719q-.453.468-.719 1.11-.25.64-.25 1.421t.25 1.422q.25.625.703 1.094.47.453 1.11.703t1.422.25q.843 0 1.547-.328t1.25-.813l.703 1q-.766.672-1.688 1.047-.906.36-1.922.36zm12.083 0q-.984 0-1.656-.265t-1.078-.766-.594-1.187q-.172-.688-.172-1.532v-4.28h-2.562v-1.157l2.625-.094.203-2.922h1.266v2.922h4.453v1.25h-4.453v4.313q0 .609.109 1.062t.375.781q.266.313.703.47.453.155 1.11.155t1.171-.109 1-.297l.344 1.125q-.61.219-1.297.375t-1.547.156zm9.74-.218v-7.813h-4.218v-1.25h5.75v9.063h-1.531zm.704-10.97q-.516 0-.875-.328t-.36-.859q0-.547.36-.875t.875-.328q.531 0 .875.328.36.328.36.875 0 .531-.36.86-.344.328-.875.328zm10.194 11.189q-.89 0-1.703-.313t-1.438-.922q-.609-.61-.968-1.484-.36-.89-.36-2.016 0-1.14.36-2.015.359-.891.968-1.5.625-.625 1.438-.938.812-.328 1.703-.328.906 0 1.703.328.813.313 1.422.938.625.609.984 1.5.375.875.375 2.015 0 1.125-.375 2.016-.36.875-.984 1.484-.61.61-1.422.922-.797.313-1.703.313zm0-1.266q.656 0 1.187-.25t.907-.703q.39-.469.593-1.094.204-.64.204-1.422t-.204-1.422-.593-1.11q-.375-.468-.907-.718t-1.187-.25-1.188.25-.921.719q-.375.469-.579 1.11t-.203 1.421.203 1.422q.204.625.579 1.094.39.453.921.703t1.188.25zm7.334 1.047v-9.063h1.266l.14 1.547h.063q.719-.765 1.531-1.265.828-.516 1.89-.516 1.626 0 2.376.937.75.922.75 2.72v5.64h-1.516v-5.422q0-1.297-.5-1.922-.484-.625-1.594-.625-.406 0-.765.11-.344.093-.688.312-.328.203-.687.516-.344.296-.735.703v6.328h-1.53zM305.6 146.91q-1.36-1.703-2.297-4t-.937-4.766q0-2.156.703-4.14.828-2.313 2.53-4.594h1.173q-1.094 1.89-1.453 2.703-.547 1.25-.875 2.625-.39 1.703-.39 3.422 0 4.375 2.718 8.75H305.6zm3.088-.219v-13.375h1.484v1.25q.531-.734 1.188-1.094.671-.375 1.625-.375 1.234 0 2.171.641.954.625 1.438 1.797.484 1.156.484 2.547 0 1.484-.53 2.672T315 142.582q-1.015.625-2.14.625-.813 0-1.47-.344t-1.062-.875v4.703h-1.64zm1.484-8.484q0 1.86.75 2.765.766.891 1.828.891 1.094 0 1.875-.922.781-.937.781-2.875 0-1.844-.765-2.765-.75-.922-1.813-.922-1.047 0-1.86.984-.796.969-.796 2.844zm15.516 1.672 1.688.203q-.407 1.484-1.485 2.312-1.078.813-2.765.813-2.125 0-3.375-1.297-1.235-1.313-1.235-3.672 0-2.453 1.25-3.797 1.266-1.344 3.266-1.344 1.937 0 3.156 1.328 1.234 1.313 1.234 3.704v.437h-7.218q.093 1.594.906 2.453.812.844 2.015.844.907 0 1.547-.469.641-.484 1.016-1.515zm-5.39-2.656h5.406q-.11-1.22-.625-1.829-.782-.953-2.031-.953-1.125 0-1.907.766-.765.75-.843 2.016zm9.125 5.765v-9.672h1.469v1.469q.563-1.031 1.031-1.36.485-.327 1.063-.327.828 0 1.687.53l-.562 1.516q-.61-.359-1.203-.359-.547 0-.97.328t-.609.89q-.28.876-.28 1.923v5.062h-1.626zm5.588-4.015v-1.641h5.031v1.64h-5.031zm13.166.468 1.61.219q-.266 1.656-1.36 2.61-1.078.937-2.672.937-1.984 0-3.188-1.297t-1.203-3.719q0-1.578.516-2.75t1.578-1.75q1.063-.594 2.313-.594 1.578 0 2.578.797t1.28 2.266l-1.593.234q-.234-.968-.812-1.453-.578-.5-1.391-.5-1.234 0-2.016.89t-.78 2.813q0 1.953.75 2.844.75.875 1.952.875.969 0 1.61-.594.656-.593.828-1.828zm2.406-1.297q0-2.687 1.484-3.968 1.25-1.078 3.047-1.078 2 0 3.266 1.312 1.266 1.297 1.266 3.61 0 1.859-.563 2.937-.562 1.062-1.64 1.656-1.063.594-2.329.594-2.03 0-3.28-1.297-1.25-1.313-1.25-3.766zm1.688 0q0 1.86.796 2.797.813.922 2.047.922 1.22 0 2.032-.922.812-.937.812-2.844 0-1.796-.812-2.718t-2.032-.922q-1.234 0-2.047.922-.796.906-.796 2.765zm9.297 4.844v-9.672h1.469v1.375q1.063-1.594 3.078-1.594.875 0 1.61.313t1.093.828q.375.5.516 1.203.094.453.094 1.594v5.953h-1.64v-5.89q0-1-.204-1.485-.188-.5-.672-.797t-1.14-.297q-1.047 0-1.813.672-.75.656-.75 2.516v5.281h-1.64zm10.376 0v-9.672h1.469v1.375q1.062-1.594 3.078-1.594.875 0 1.61.313t1.093.828q.375.5.516 1.203.094.453.094 1.594v5.953h-1.64v-5.89q0-1-.204-1.485-.188-.5-.672-.797t-1.14-.297q-1.047 0-1.813.672-.75.656-.75 2.516v5.281h-1.64zm17.001-3.11 1.688.204q-.407 1.484-1.485 2.312-1.078.813-2.765.813-2.125 0-3.375-1.297-1.235-1.312-1.235-3.672 0-2.453 1.25-3.797 1.266-1.344 3.266-1.344 1.937 0 3.156 1.329 1.234 1.312 1.234 3.703v.437h-7.218q.093 1.594.906 2.453.812.844 2.016.844.906 0 1.546-.469.641-.484 1.016-1.515zm-5.39-2.655h5.406q-.11-1.22-.625-1.829-.781-.953-2.031-.953-1.125 0-1.907.766-.765.75-.843 2.016zm15.454 2.218 1.609.22q-.266 1.655-1.36 2.609-1.078.937-2.671.937-1.985 0-3.188-1.297t-1.203-3.719q0-1.578.516-2.75t1.578-1.75q1.062-.593 2.312-.593 1.578 0 2.578.796t1.282 2.266l-1.594.234q-.235-.968-.813-1.453-.578-.5-1.39-.5-1.235 0-2.016.891t-.781 2.812q0 1.954.75 2.844.75.875 1.953.875.969 0 1.61-.593.656-.594.827-1.829zm6.593 2.078.235 1.454q-.688.14-1.235.14-.89 0-1.39-.281-.485-.281-.688-.734-.203-.47-.203-1.938v-5.578h-1.203v-1.266h1.203v-2.39l1.625-.985v3.375h1.656v1.266h-1.656v5.672q0 .687.078.89.094.204.282.329.203.109.578.109.265 0 .718-.062zm1.606-10v-1.89h1.64v1.89h-1.64zm0 11.47v-9.672h1.64v9.671h-1.64zm3.535-4.844q0-2.688 1.484-3.97 1.25-1.077 3.047-1.077 2 0 3.266 1.312 1.266 1.297 1.266 3.61 0 1.86-.563 2.937-.562 1.063-1.64 1.656-1.063.594-2.329.594-2.03 0-3.28-1.297-1.25-1.312-1.25-3.765zm1.688 0q0 1.86.796 2.797.813.921 2.047.921 1.22 0 2.032-.921.812-.938.812-2.844 0-1.797-.812-2.719t-2.032-.922q-1.234 0-2.047.922-.796.906-.796 2.766zm9.297 4.843v-9.671h1.469v1.375q1.062-1.594 3.078-1.594.875 0 1.61.312t1.093.828q.375.5.516 1.204.094.453.094 1.593v5.953h-1.64v-5.89q0-1-.204-1.485-.188-.5-.672-.796t-1.14-.297q-1.047 0-1.813.672-.75.656-.75 2.515v5.281h-1.64zm14.903-2.89 1.625-.25q.125.969.75 1.5.625.516 1.75.516t1.672-.454q.547-.468.547-1.093 0-.547-.484-.875-.329-.22-1.672-.547-1.813-.469-2.516-.797-.687-.328-1.047-.906-.36-.594-.36-1.313 0-.64.298-1.187.297-.563.812-.922.375-.282 1.031-.469.672-.203 1.422-.203 1.14 0 2 .328t1.266.89q.422.563.578 1.5l-1.61.22q-.109-.75-.64-1.173-.516-.421-1.469-.421-1.14 0-1.625.375-.469.375-.469.875 0 .312.188.578.203.265.64.437.235.094 1.438.422 1.75.453 2.438.75t1.078.86.39 1.406q0 .828-.484 1.547-.469.718-1.375 1.125-.906.39-2.047.39-1.875 0-2.875-.781-.984-.781-1.25-2.328zm13.562 1.422.235 1.453q-.688.14-1.235.14-.89 0-1.39-.28-.485-.282-.688-.735-.203-.469-.203-1.938v-5.578h-1.203v-1.265h1.203v-2.39l1.625-.985v3.375h1.656v1.265h-1.656v5.672q0 .688.078.89.094.204.281.329.203.11.578.11.266 0 .72-.063zm7.918.281q-.922.766-1.766 1.094-.828.312-1.797.312-1.593 0-2.453-.78t-.86-1.985q0-.72.329-1.297.328-.594.844-.938.531-.36 1.187-.547.469-.125 1.453-.25 1.985-.234 2.922-.562.016-.344.016-.422 0-1-.469-1.422-.625-.547-1.875-.547-1.156 0-1.703.407t-.812 1.421l-1.61-.218q.219-1.016.719-1.64.5-.642 1.453-.985t2.188-.344q1.25 0 2.015.297.781.281 1.14.734.376.438.516 1.11.078.421.078 1.515v2.188q0 2.28.11 2.89.11.594.406 1.156h-1.703q-.266-.515-.328-1.187zm-.14-3.672q-.891.375-2.673.625-1.015.14-1.437.328t-.656.532q-.22.343-.22.78 0 .657.5 1.095t1.454.437q.937 0 1.672-.406.75-.422 1.094-1.14.265-.563.265-1.641v-.61zm7.781 3.39.235 1.454q-.688.14-1.235.14-.89 0-1.39-.28-.485-.282-.688-.735-.203-.469-.203-1.938v-5.578h-1.203v-1.265h1.203v-2.391l1.625-.984v3.375h1.656v1.265h-1.656v5.672q0 .688.078.89.094.204.281.329.204.11.579.11.265 0 .718-.063zm8.23-1.64 1.688.203q-.406 1.485-1.484 2.313-1.079.812-2.766.812-2.125 0-3.375-1.297-1.234-1.312-1.234-3.672 0-2.453 1.25-3.796 1.265-1.344 3.265-1.344 1.938 0 3.156 1.328 1.235 1.312 1.235 3.703v.437h-7.219q.094 1.594.906 2.454.813.843 2.016.843.906 0 1.547-.468.64-.485 1.015-1.516zm-5.39-2.656h5.406q-.11-1.219-.625-1.828-.781-.953-2.031-.953-1.125 0-1.906.765-.766.75-.844 2.016zm10.219 9.687h-1.188q2.735-4.375 2.735-8.75 0-1.718-.39-3.39-.313-1.375-.876-2.625-.36-.828-1.469-2.735h1.188q1.703 2.282 2.531 4.594.688 1.985.688 4.14 0 2.47-.938 4.766t-2.281 4z" fill="#000"/><path d="M184.38 149.03c0-31.813 25.789-57.602 57.602-57.602h271.25a57.604 57.604 0 0 1 57.602 57.602v230.4c0 31.813-25.789 57.602-57.602 57.602h-271.25c-31.813 0-57.602-25.789-57.602-57.602z" fill="#c9daf8" fill-rule="evenodd"/><path d="M184.38 149.03c0-31.813 25.789-57.602 57.602-57.602h271.25a57.604 57.604 0 0 1 57.602 57.602v230.4c0 31.813-25.789 57.602-57.602 57.602h-271.25c-31.813 0-57.602-25.789-57.602-57.602z" stroke="#757575" stroke-linecap="butt" stroke-linejoin="round"/><path d="M304.61 134.76q-1.422.594-3 .594-2.516 0-3.875-1.5-1.344-1.516-1.344-4.47 0-1.42.36-2.577.375-1.156 1.062-1.953.703-.813 1.688-1.25t2.203-.438q.828 0 1.53.14.72.141 1.376.423v1.594q-.64-.344-1.344-.532-.687-.187-1.5-.187-.844 0-1.531.312-.672.313-1.156.907-.47.593-.72 1.468-.25.86-.25 1.953 0 2.313.938 3.5.938 1.172 2.75 1.172.766 0 1.47-.172.702-.187 1.343-.515v1.531zm5.773-11.109h-2.703v-1.313h4.297v11.548h2.734v1.328h-7.344v-1.328h3.016v-10.234zm10.257 3.734h-2.703v-1.312h4.297v7.812h2.734v1.329h-7.344v-1.329h3.016v-6.5zm.547-5.156q.265 0 .484.094.235.094.406.281.172.172.266.39t.094.485q0 .25-.094.485t-.266.406-.406.265q-.219.094-.484.094t-.5-.094q-.219-.093-.39-.265-.157-.172-.266-.406-.094-.235-.094-.485 0-.265.094-.484.109-.219.265-.39.172-.188.39-.282.235-.094.5-.094zm14.32 7.922q0 .344-.016.578 0 .219-.031.422h-6.422q0 1.406.781 2.156.797.75 2.266.75.406 0 .797-.03.406-.032.781-.08.375-.062.719-.124.343-.078.625-.156v1.297q-.64.187-1.47.296-.812.11-1.687.11-1.171 0-2.015-.313t-1.39-.922-.813-1.484q-.25-.875-.25-2 0-.953.281-1.812.281-.86.812-1.516t1.297-1.031q.782-.39 1.766-.39.953 0 1.687.312.75.297 1.25.843t.766 1.344q.266.781.266 1.75zm-1.656-.219q.03-.609-.125-1.11-.141-.515-.454-.874-.296-.375-.75-.578t-1.062-.203q-.516 0-.953.203-.422.203-.735.562-.296.36-.5.875-.187.516-.234 1.125h4.813zm4.179-3.86h1.422l.062 1.47q.39-.469.766-.782t.734-.5q.36-.203.735-.28t.78-.079q1.407 0 2.126.844.734.828.734 2.5v5.969h-1.594v-5.844q0-1.078-.406-1.578-.39-.516-1.187-.516-.282 0-.563.094-.281.078-.578.297-.297.203-.656.578-.344.36-.781.906v6.063h-1.594v-9.14zm17.632 9.017q-.531.14-1.11.187-.578.063-1.172.063-1.718 0-2.562-.782t-.844-2.39V127.4h-2.562v-1.328h2.562v-2.516l1.578-.406v2.922h4.11v1.328h-4.11v4.64q0 .985.516 1.47.531.484 1.547.484.437 0 .953-.063.531-.062 1.094-.218v1.375zm10.492-.329q-1.422.594-3 .594-2.516 0-3.875-1.5-1.344-1.515-1.344-4.469 0-1.422.36-2.578.374-1.156 1.062-1.953.703-.812 1.687-1.25t2.203-.437q.829 0 1.532.14.718.14 1.375.422v1.594q-.641-.344-1.344-.531-.688-.188-1.5-.188-.844 0-1.531.313-.672.312-1.157.906-.468.594-.718 1.469-.25.86-.25 1.953 0 2.312.937 3.5.938 1.172 2.75 1.172.766 0 1.469-.172.703-.188 1.344-.516v1.531zm10.617-4.187q0 1.062-.313 1.953-.297.89-.86 1.531-.562.625-1.374.969t-1.844.344q-.984 0-1.765-.297-.766-.313-1.313-.89-.547-.595-.828-1.47t-.281-2.015q0-1.063.297-1.938.296-.89.859-1.515.562-.64 1.375-.985.812-.359 1.844-.359.984 0 1.765.312.782.297 1.313.891.547.578.828 1.453.297.875.297 2.016zm-1.625.062q0-.843-.188-1.468-.187-.641-.531-1.063-.344-.422-.844-.64-.5-.22-1.11-.22-.702 0-1.218.282-.5.281-.828.75-.313.453-.469 1.078-.156.61-.156 1.281 0 .86.187 1.5.188.625.532 1.047.36.422.843.64.5.22 1.11.22.719 0 1.219-.282t.828-.734q.328-.469.469-1.078.156-.625.156-1.313zm3.913-4.562h1.422l.063 1.469q.39-.469.765-.782t.735-.5q.36-.203.734-.28t.781-.079q1.407 0 2.125.844.735.828.735 2.5v5.969h-1.594v-5.844q0-1.078-.406-1.578-.391-.516-1.188-.516-.281 0-.562.094-.282.078-.578.297-.297.203-.657.578-.343.36-.781.906v6.063h-1.594v-9.141zm10.257 0h1.422l.063 1.469q.39-.469.765-.782t.735-.5q.36-.203.734-.28t.781-.079q1.407 0 2.125.844.735.828.735 2.5v5.969h-1.594v-5.844q0-1.078-.406-1.578-.391-.516-1.188-.516-.281 0-.562.094-.282.078-.578.297-.297.203-.657.578-.343.36-.781.906v6.063h-1.594v-9.141zm17.992 4.078q0 .344-.015.578 0 .219-.032.422h-6.421q0 1.406.78 2.156.798.75 2.266.75.407 0 .797-.031.406-.031.781-.078.375-.063.72-.125.343-.078.624-.156v1.297q-.64.187-1.469.296-.812.11-1.687.11-1.172 0-2.016-.313t-1.39-.922-.813-1.484q-.25-.875-.25-2 0-.953.281-1.813.282-.859.813-1.515t1.297-1.031q.781-.39 1.765-.39.954 0 1.688.312.75.296 1.25.843t.766 1.344q.265.781.265 1.75zm-1.656-.219q.031-.61-.125-1.11-.14-.515-.453-.874-.297-.375-.75-.578t-1.063-.203q-.515 0-.953.203-.422.203-.734.562-.297.36-.5.875-.188.516-.234 1.125h4.812zm11.29 4.938q-.626.25-1.282.36-.64.109-1.328.109-2.172 0-3.344-1.172t-1.172-3.438q0-1.078.328-1.953.344-.89.953-1.516.61-.64 1.453-.984.86-.344 1.875-.344.72 0 1.329.11.625.093 1.187.328v1.515q-.594-.312-1.219-.453-.61-.14-1.265-.14-.61 0-1.157.234-.53.234-.937.672-.406.422-.656 1.062-.235.625-.235 1.422 0 1.657.797 2.485.813.812 2.25.812.64 0 1.25-.14t1.172-.438v1.469zm10.522.219q-.531.14-1.11.187-.577.063-1.171.063-1.719 0-2.563-.782t-.843-2.39V127.4h-2.563v-1.328h2.563v-2.516l1.578-.406v2.922h4.109v1.328h-4.11v4.64q0 .985.516 1.47.532.484 1.547.484.438 0 .953-.063.532-.062 1.094-.218v1.375zm6.007-7.704h-2.703v-1.312h4.297v7.812h2.735v1.329h-7.344v-1.329h3.015v-6.5zm.547-5.156q.266 0 .485.094.234.094.406.281.172.172.266.39t.093.485q0 .25-.093.485t-.266.406-.406.265q-.22.094-.485.094t-.5-.094q-.218-.093-.39-.265-.157-.172-.266-.406-.094-.235-.094-.485 0-.265.094-.484.11-.219.266-.39.172-.188.39-.282.235-.094.5-.094zm14.554 8.344q0 1.063-.312 1.953-.297.89-.86 1.531-.562.625-1.375.97t-1.843.343q-.985 0-1.766-.297-.766-.313-1.313-.89-.546-.594-.828-1.47t-.28-2.015q0-1.063.296-1.938.297-.89.86-1.515.562-.64 1.374-.985.813-.359 1.844-.359.985 0 1.766.313.781.296 1.312.89.547.578.828 1.453.297.875.297 2.016zm-1.625.063q0-.844-.187-1.47-.188-.64-.531-1.062-.344-.422-.844-.64-.5-.22-1.11-.22-.703 0-1.218.282-.5.281-.829.75-.312.453-.468 1.078-.157.61-.157 1.281 0 .86.188 1.5.187.625.531 1.047.36.422.844.64.5.22 1.11.22.718 0 1.218-.282t.828-.734q.328-.469.469-1.078.156-.625.156-1.313zm3.914-4.563h1.422l.062 1.469q.39-.469.766-.781t.734-.5q.36-.204.735-.282t.78-.078q1.407 0 2.126.844.734.828.734 2.5v5.969h-1.594v-5.844q0-1.078-.406-1.578-.39-.516-1.187-.516-.282 0-.563.094-.281.078-.578.297-.297.203-.656.578-.344.36-.782.906v6.063h-1.593v-9.14zM290.71 161.14q-1.36-1.703-2.297-4t-.937-4.766q0-2.156.703-4.14.828-2.313 2.53-4.594h1.173q-1.094 1.89-1.453 2.703-.547 1.25-.875 2.625-.39 1.703-.39 3.422 0 4.375 2.718 8.75h-1.172zm3.29-3.922V143.86h5.048q1.328 0 2.03.125.97.172 1.642.64.671.454 1.078 1.282t.406 1.828q0 1.703-1.094 2.89-1.078 1.173-3.922 1.173h-3.422v5.421h-1.765zm1.766-7h3.453q1.72 0 2.438-.64t.719-1.797q0-.844-.422-1.438t-1.125-.781q-.438-.125-1.64-.125h-3.423v4.781zm17.1 3.89 1.688.204q-.406 1.484-1.484 2.312-1.079.813-2.766.813-2.125 0-3.375-1.297-1.234-1.313-1.234-3.672 0-2.453 1.25-3.797 1.265-1.344 3.265-1.344 1.938 0 3.156 1.328 1.235 1.313 1.235 3.704v.437h-7.22q.095 1.594.907 2.453.813.844 2.016.844.906 0 1.547-.469.64-.484 1.015-1.515zm-5.39-2.656h5.406q-.11-1.218-.625-1.828-.781-.953-2.031-.953-1.125 0-1.906.766-.766.75-.844 2.015zm9.125 5.766v-9.672h1.47v1.469q.562-1.031 1.03-1.36.485-.328 1.063-.328.828 0 1.688.532l-.563 1.515q-.61-.36-1.203-.36-.547 0-.969.33t-.61.89q-.28.875-.28 1.922v5.062h-1.625zm17.724-3.547 1.61.219q-.266 1.656-1.36 2.61-1.078.937-2.671.937-1.985 0-3.188-1.297t-1.203-3.719q0-1.578.516-2.75t1.578-1.75q1.062-.594 2.312-.594 1.578 0 2.578.797t1.282 2.266l-1.594.234q-.235-.968-.813-1.453-.578-.5-1.39-.5-1.235 0-2.016.89-.781.891-.781 2.813 0 1.953.75 2.844.75.875 1.953.875.969 0 1.61-.594.656-.593.827-1.828zm2.407-1.297q0-2.687 1.484-3.968 1.25-1.079 3.047-1.079 2 0 3.266 1.313 1.265 1.297 1.265 3.61 0 1.859-.562 2.937-.563 1.062-1.64 1.656-1.063.594-2.329.594-2.031 0-3.281-1.297-1.25-1.313-1.25-3.766zm1.687 0q0 1.86.797 2.797.813.922 2.047.922 1.219 0 2.031-.922.813-.937.813-2.844 0-1.796-.813-2.718t-2.031-.922q-1.234 0-2.047.922-.797.906-.797 2.765zm9.298 4.844v-9.672h1.469v1.375q1.062-1.594 3.078-1.594.875 0 1.61.313t1.093.828q.375.5.516 1.203.093.453.093 1.594v5.953h-1.64v-5.89q0-1-.203-1.485-.188-.5-.672-.797t-1.14-.297q-1.048 0-1.813.672-.75.656-.75 2.516v5.28h-1.641zm10.376 0v-9.672h1.469v1.375q1.062-1.594 3.078-1.594.875 0 1.61.313t1.093.828q.375.5.516 1.203.093.453.093 1.594v5.953h-1.64v-5.89q0-1-.203-1.485-.188-.5-.672-.797t-1.14-.297q-1.048 0-1.813.672-.75.656-.75 2.516v5.28h-1.641zm17-3.11 1.688.204q-.406 1.484-1.484 2.312-1.078.813-2.766.813-2.125 0-3.375-1.297-1.234-1.313-1.234-3.672 0-2.453 1.25-3.797 1.265-1.344 3.265-1.344 1.938 0 3.157 1.328 1.234 1.313 1.234 3.704v.437h-7.219q.094 1.594.907 2.453.812.844 2.015.844.906 0 1.547-.469.64-.484 1.016-1.515zm-5.39-2.656h5.406q-.109-1.218-.625-1.828-.78-.953-2.03-.953-1.126 0-1.907.766-.766.75-.844 2.015zm15.454 2.22 1.61.218q-.266 1.656-1.36 2.61-1.078.937-2.672.937-1.984 0-3.187-1.297t-1.203-3.719q0-1.578.515-2.75t1.578-1.75q1.063-.594 2.313-.594 1.578 0 2.578.797t1.281 2.266l-1.594.234q-.234-.968-.812-1.453-.578-.5-1.39-.5-1.235 0-2.016.89t-.782 2.813q0 1.953.75 2.844.75.875 1.954.875.968 0 1.609-.594.656-.593.828-1.828zm6.594 2.077.234 1.453q-.687.141-1.234.141-.89 0-1.39-.281-.485-.281-.688-.735-.203-.468-.203-1.937v-5.578h-1.203v-1.266h1.203v-2.39l1.625-.985v3.375h1.656v1.266h-1.656v5.672q0 .687.078.89.094.204.281.329.203.109.578.109.266 0 .719-.063zm1.605-10v-1.89h1.64v1.89h-1.64zm0 11.47v-9.673h1.64v9.672h-1.64zm3.536-4.844q0-2.688 1.484-3.97 1.25-1.077 3.047-1.077 2 0 3.265 1.312 1.266 1.297 1.266 3.61 0 1.859-.562 2.937-.563 1.063-1.641 1.656-1.063.594-2.328.594-2.031 0-3.281-1.297-1.25-1.312-1.25-3.765zm1.687 0q0 1.859.797 2.796.812.922 2.047.922 1.219 0 2.031-.922.813-.937.813-2.843 0-1.797-.813-2.72t-2.031-.921q-1.235 0-2.047.922-.797.906-.797 2.765zm9.298 4.843v-9.672h1.468v1.375q1.063-1.593 3.079-1.593.875 0 1.609.312t1.094.828q.375.5.515 1.203.094.454.094 1.594v5.953h-1.64v-5.89q0-1-.204-1.485-.187-.5-.671-.797t-1.141-.296q-1.047 0-1.813.671-.75.657-.75 2.516v5.281h-1.64zm14.903-2.89 1.625-.25q.125.969.75 1.5.625.515 1.75.515t1.672-.453q.546-.468.546-1.094 0-.546-.484-.875-.328-.218-1.672-.546-1.812-.47-2.515-.797-.688-.328-1.047-.907-.36-.593-.36-1.312 0-.64.297-1.188.297-.562.813-.921.375-.282 1.03-.47.673-.202 1.423-.202 1.14 0 2 .328t1.265.89q.422.563.579 1.5l-1.61.22q-.11-.75-.64-1.173-.516-.422-1.47-.422-1.14 0-1.624.375-.47.375-.47.875 0 .313.188.579.204.265.641.437.234.094 1.438.422 1.75.453 2.437.75t1.078.86.39 1.406q0 .828-.484 1.546-.468.72-1.375 1.125-.906.391-2.046.391-1.875 0-2.875-.781-.985-.781-1.25-2.328zm13.562 1.422.234 1.453q-.687.14-1.234.14-.89 0-1.39-.28-.485-.282-.688-.735-.204-.469-.204-1.938v-5.578h-1.203v-1.265h1.203v-2.391l1.625-.984v3.375h1.657v1.265h-1.657v5.672q0 .688.079.89.093.204.28.329.204.11.579.11.266 0 .719-.063zm7.917.28q-.921.767-1.765 1.095-.828.312-1.797.312-1.594 0-2.453-.781t-.86-1.984q0-.72.329-1.297.328-.594.843-.938.532-.36 1.188-.547.469-.125 1.453-.25 1.984-.234 2.922-.562.015-.344.015-.422 0-1-.468-1.422-.625-.547-1.875-.547-1.157 0-1.703.406t-.813 1.422l-1.61-.218q.22-1.016.72-1.641.5-.64 1.453-.984t2.187-.344q1.25 0 2.016.297.78.281 1.14.734.375.438.516 1.11.078.421.078 1.515v2.188q0 2.28.11 2.89.109.594.406 1.156h-1.704q-.265-.515-.328-1.187zm-.14-3.671q-.89.375-2.672.625-1.016.14-1.438.328t-.656.531q-.219.344-.219.782 0 .656.5 1.093t1.453.438q.938 0 1.672-.406.75-.422 1.094-1.14.266-.563.266-1.641v-.61zm7.782 3.39.234 1.454q-.687.14-1.234.14-.89 0-1.39-.28-.485-.282-.688-.735-.203-.469-.203-1.938v-5.578h-1.204v-1.265h1.204v-2.391l1.625-.984v3.375h1.656v1.265h-1.656v5.672q0 .688.078.89.093.204.28.329.204.11.579.11.266 0 .719-.063zm8.23-1.64 1.687.203q-.406 1.485-1.484 2.313-1.078.812-2.766.812-2.125 0-3.375-1.297-1.234-1.312-1.234-3.672 0-2.453 1.25-3.797 1.266-1.343 3.266-1.343 1.937 0 3.156 1.328 1.234 1.312 1.234 3.703v.437h-7.219q.094 1.594.907 2.453.812.844 2.015.844.907 0 1.547-.469.64-.484 1.016-1.515zm-5.39-2.656h5.406q-.11-1.219-.625-1.828-.782-.953-2.032-.953-1.125 0-1.906.765-.765.75-.844 2.016zm10.218 9.687h-1.187q2.734-4.375 2.734-8.75 0-1.718-.39-3.39-.313-1.375-.875-2.625-.36-.828-1.47-2.735h1.188q1.703 2.282 2.532 4.594.687 1.985.687 4.14 0 2.47-.937 4.766t-2.282 4z" fill="#000"/><path d="M230.48 196.77h121.86v126.65H230.48z" fill="#d9d2e9" fill-rule="evenodd"/><path d="M230.48 196.77h121.86v126.65H230.48z" stroke="#757575" stroke-linecap="butt" stroke-linejoin="round"/><path d="M260.77 256.01v-13.359h1.766v5.484h6.937v-5.484h1.766v13.359h-1.766v-6.297h-6.937v6.297h-1.766zm16.817 0v-11.781h-4.406v-1.578h10.578v1.578h-4.406v11.781h-1.766zm11.396 0v-11.781h-4.406v-1.578h10.578v1.578h-4.406v11.781h-1.766zm7.99 0v-13.359h5.047q1.328 0 2.03.125.97.172 1.641.64.672.454 1.079 1.282t.406 1.828q0 1.703-1.094 2.89-1.078 1.172-3.922 1.172h-3.422v5.422h-1.765zm1.765-7h3.453q1.72 0 2.438-.64t.719-1.798q0-.843-.422-1.437t-1.125-.781q-.438-.125-1.64-.125h-3.423v4.78zm9.24 7.234 3.876-13.813h1.312l-3.86 13.813h-1.327zm14.575-1.812v1.578h-8.828q-.016-.594.187-1.14.344-.907 1.078-1.782.75-.875 2.156-2.015 2.172-1.782 2.938-2.829t.766-1.968q0-.985-.704-1.64-.687-.673-1.812-.673-1.188 0-1.906.719-.703.703-.703 1.953l-1.688-.172q.172-1.89 1.297-2.875 1.14-.984 3.031-.984 1.922 0 3.047 1.062t1.125 2.64q0 .798-.328 1.579t-1.094 1.64q-.75.844-2.531 2.344-1.469 1.235-1.89 1.688-.423.437-.688.875h6.547zM274.06 274.47l1.61.219q-.266 1.656-1.36 2.61-1.078.937-2.672.937-1.984 0-3.187-1.297t-1.204-3.719q0-1.578.516-2.75t1.578-1.75q1.063-.594 2.313-.594 1.578 0 2.578.797t1.281 2.266l-1.594.234q-.234-.969-.812-1.453-.578-.5-1.39-.5-1.235 0-2.016.89t-.782 2.813q0 1.953.75 2.844.75.875 1.953.875.97 0 1.61-.594.656-.594.828-1.828zm2.406-1.297q0-2.687 1.485-3.969 1.25-1.078 3.046-1.078 2 0 3.266 1.313 1.266 1.297 1.266 3.61 0 1.859-.563 2.937-.562 1.062-1.64 1.656-1.063.594-2.329.594-2.03 0-3.28-1.297-1.25-1.313-1.25-3.766zm1.688 0q0 1.86.797 2.797.812.922 2.046.922 1.22 0 2.032-.922.812-.938.812-2.844 0-1.797-.812-2.719t-2.032-.921q-1.234 0-2.046.921-.797.907-.797 2.766zm15.563 4.844v-1.219q-.907 1.438-2.703 1.438-1.157 0-2.125-.641t-1.5-1.781-.532-2.625q0-1.453.485-2.625.484-1.188 1.437-1.813.969-.625 2.172-.625.875 0 1.547.375.688.36 1.11.953v-4.796h1.64v13.359h-1.531zm-5.172-4.828q0 1.86.781 2.781t1.844.922q1.078 0 1.828-.875.75-.89.75-2.688 0-1.984-.766-2.906-.765-.937-1.89-.937-1.078 0-1.813.89t-.734 2.813zm15.907 1.719 1.687.203q-.406 1.484-1.484 2.312-1.078.813-2.766.813-2.125 0-3.375-1.297-1.234-1.313-1.234-3.672 0-2.453 1.25-3.797 1.266-1.344 3.266-1.344 1.937 0 3.156 1.328 1.234 1.313 1.234 3.703v.438h-7.219q.094 1.594.907 2.453.812.844 2.015.844.906 0 1.547-.469.64-.484 1.016-1.516zm-5.39-2.657h5.405q-.109-1.218-.625-1.828-.78-.953-2.03-.953-1.126 0-1.907.766-.766.75-.844 2.015zm15.453 2.22 1.61.218q-.266 1.656-1.36 2.61-1.078.937-2.672.937-1.984 0-3.187-1.297t-1.203-3.719q0-1.578.515-2.75t1.578-1.75q1.063-.594 2.313-.594 1.578 0 2.578.797t1.281 2.266l-1.594.234q-.234-.968-.812-1.453-.578-.5-1.39-.5-1.235 0-2.016.89t-.782 2.813q0 1.953.75 2.844.75.875 1.954.875.968 0 1.609-.594.656-.593.828-1.828z" fill="#000"/><path d="M4.633 232.65h173.2v54.898H4.632z" fill="none"/><path d="M14.945 257.01v-11.453h7.734v1.344h-6.218v3.547h5.375v1.36H16.46v5.202h-1.516zm9.508 0v-8.297h1.265v1.25q.485-.875.891-1.156t.906-.281q.703 0 1.438.453l-.485 1.297q-.515-.297-1.03-.297-.454 0-.829.281-.36.266-.516.766-.234.75-.234 1.64v4.344h-1.406zm4.812-4.156q0-2.297 1.281-3.406 1.079-.922 2.61-.922 1.719 0 2.797 1.125 1.094 1.11 1.094 3.094 0 1.593-.485 2.515t-1.406 1.438q-.906.5-2 .5-1.734 0-2.812-1.11-1.079-1.125-1.079-3.234zm1.453 0q0 1.594.688 2.39.703.797 1.75.797t1.734-.797q.703-.796.703-2.437 0-1.531-.703-2.328-.687-.797-1.734-.797t-1.75.797q-.688.781-.688 2.375zm7.977 4.156v-8.297h1.25v1.156q.39-.61 1.031-.968.656-.375 1.485-.375.921 0 1.515.39.594.375.828 1.063.985-1.453 2.563-1.453 1.234 0 1.89.687.672.672.672 2.094v5.703h-1.39v-5.234q0-.844-.14-1.204-.142-.375-.5-.593-.36-.235-.845-.235-.875 0-1.453.578t-.578 1.86v4.828h-1.406v-5.39q0-.938-.344-1.407t-1.125-.469q-.594 0-1.094.313t-.734.922q-.219.594-.219 1.719v4.312h-1.406zm17.758 0v-8.297h1.266v1.25q.484-.875.89-1.156t.906-.281q.704 0 1.438.453l-.484 1.297q-.516-.297-1.032-.297-.453 0-.828.281-.36.266-.515.766-.235.75-.235 1.64v4.344h-1.406zm4.813-4.156q0-2.297 1.28-3.406 1.079-.922 2.61-.922 1.719 0 2.797 1.125 1.094 1.11 1.094 3.094 0 1.593-.485 2.515t-1.406 1.438q-.906.5-2 .5-1.734 0-2.812-1.11-1.078-1.125-1.078-3.234zm1.453 0q0 1.594.687 2.39.703.797 1.75.797t1.735-.797q.703-.796.703-2.437 0-1.531-.703-2.328-.688-.797-1.735-.797t-1.75.797q-.687.781-.687 2.375zm13.414 4.156v-1.219q-.97 1.406-2.641 1.406-.734 0-1.375-.28-.625-.282-.938-.704-.312-.437-.437-1.047-.078-.422-.078-1.312v-5.141h1.406v4.594q0 1.11.078 1.484.14.563.563.875.437.313 1.062.313.64 0 1.188-.313.562-.328.78-.89.235-.563.235-1.625v-4.438h1.407v8.297h-1.25zm6.523-1.266.203 1.25q-.594.125-1.062.125-.766 0-1.188-.234-.422-.25-.594-.64-.172-.407-.172-1.673v-4.765h-1.03v-1.094h1.03v-2.062l1.407-.844v2.906h1.406v1.094H81.25v4.844q0 .609.062.78.078.173.25.282.172.094.485.094.234 0 .609-.063zm7.055-1.406 1.453.172q-.344 1.281-1.281 1.984-.922.704-2.36.704-1.828 0-2.89-1.125t-1.063-3.141q0-2.094 1.078-3.25t2.797-1.156q1.656 0 2.703 1.14 1.063 1.125 1.063 3.172v.375h-6.188q.078 1.375.766 2.11.703.718 1.734.718.781 0 1.328-.406t.86-1.297zm-4.61-2.281h4.625q-.093-1.047-.531-1.563-.672-.812-1.734-.812-.97 0-1.64.656-.657.64-.72 1.719zm7.82 4.953v-8.297h1.266v1.25q.485-.875.89-1.156t.907-.281q.703 0 1.438.453l-.485 1.297q-.515-.297-1.031-.297-.453 0-.828.281-.36.266-.516.766-.234.75-.234 1.64v4.344h-1.406zm10.118 0v-7.203h-1.235v-1.094h1.235v-.89q0-.829.156-1.235.203-.547.703-.89.516-.344 1.437-.344.594 0 1.313.14l-.203 1.235q-.438-.078-.828-.078-.64 0-.907.281-.265.266-.265 1.016v.765h1.61v1.094h-1.61v7.203h-1.406zm4.117-9.844v-1.61h1.406v1.61h-1.406zm0 9.844v-8.297h1.406v8.297h-1.406zm3.523 0v-11.453h1.406v11.453h-1.406zm6.649-1.266.203 1.25q-.594.125-1.063.125-.765 0-1.187-.234-.422-.25-.594-.64-.172-.407-.172-1.672v-4.766h-1.031v-1.094h1.031v-2.062l1.406-.844v2.906h1.406v1.094h-1.406v4.844q0 .61.063.781.078.172.25.281.172.094.484.094.235 0 .61-.063zm7.054-1.406 1.453.172q-.343 1.281-1.28 1.985-.923.703-2.36.703-1.828 0-2.89-1.125t-1.063-3.14q0-2.095 1.078-3.25t2.797-1.157q1.656 0 2.703 1.14 1.062 1.125 1.062 3.172v.375h-6.187q.078 1.375.765 2.11.704.719 1.735.719.781 0 1.328-.407t.86-1.297zm-4.61-2.28h4.626q-.094-1.048-.531-1.563-.672-.813-1.735-.813-.969 0-1.64.656-.657.641-.72 1.72zm7.821 4.952v-8.297h1.266v1.25q.484-.875.89-1.156t.907-.281q.703 0 1.437.453l-.484 1.297q-.516-.297-1.031-.297-.454 0-.829.281-.359.266-.515.766-.235.75-.235 1.64v4.344h-1.406zm4.781-2.484 1.391-.219q.11.844.64 1.297.548.437 1.5.437.97 0 1.438-.39.469-.406.469-.938 0-.468-.406-.75-.297-.187-1.438-.468-1.547-.391-2.156-.672-.594-.297-.906-.797-.297-.5-.297-1.11 0-.562.25-1.03t.687-.782q.329-.25.891-.406.578-.172 1.219-.172.984 0 1.719.281t1.078.766q.36.468.5 1.28l-1.375.188q-.094-.64-.547-1t-1.266-.359q-.969 0-1.39.328-.407.313-.407.735 0 .28.172.5t.532.375q.218.078 1.25.359 1.484.39 2.078.656.593.25.921.735.344.484.344 1.203 0 .703-.422 1.328-.406.61-1.187.953-.766.344-1.735.344-1.625 0-2.468-.672t-1.078-2z" fill="#000"/><path d="m537.28 260.09 150.49-.787" fill="none"/><path d="m537.28 260.09 136.78-.716" stroke="red" stroke-linecap="butt" stroke-linejoin="round" stroke-width="4"/><path d="m674.06 259.38-4.475 4.522 12.335-4.563-12.382-4.434z" fill="red" fill-rule="evenodd" stroke="red" stroke-linecap="butt" stroke-width="4"/><path d="M415.42 217.08c0-11.217 9.093-20.31 20.31-20.31h81.238a20.308 20.308 0 0 1 20.31 20.31v86.025c0 11.217-9.093 20.31-20.31 20.31H435.73c-11.217 0-20.31-9.093-20.31-20.31z" fill="#fce5cd" fill-rule="evenodd"/><path d="M415.42 217.08c0-11.217 9.093-20.31 20.31-20.31h81.238a20.308 20.308 0 0 1 20.31 20.31v86.025c0 11.217-9.093 20.31-20.31 20.31H435.73c-11.217 0-20.31-9.093-20.31-20.31z" stroke="#757575" stroke-linecap="butt" stroke-linejoin="round"/><path d="M464.09 245.01v-11.781h-4.406v-1.578h10.578v1.578h-4.406v11.781h-1.766zm7.912 0v-13.359h1.78v11.781h6.563v1.578h-8.344zm9.86-4.297 1.656-.14q.125 1 .547 1.64.437.64 1.344 1.047.921.39 2.062.39 1 0 1.781-.296t1.156-.813q.375-.531.375-1.156t-.375-1.094q-.359-.469-1.187-.797-.547-.203-2.39-.64-1.829-.453-2.563-.844-.969-.5-1.438-1.234-.468-.75-.468-1.672 0-1 .578-1.875.578-.89 1.672-1.344 1.109-.453 2.453-.453 1.484 0 2.61.484 1.14.469 1.75 1.406.609.922.655 2.094l-1.687.125q-.14-1.265-.938-1.906-.78-.656-2.312-.656-1.61 0-2.344.593t-.734 1.422q0 .72.531 1.172.5.469 2.656.969 2.156.484 2.953.844 1.172.531 1.72 1.36.562.827.562 1.905 0 1.063-.61 2.016-.61.937-1.75 1.469-1.14.515-2.578.515-1.812 0-3.047-.53-1.219-.532-1.922-1.595-.687-1.062-.718-2.406zM444.35 265.55l.234 1.453q-.687.14-1.234.14-.89 0-1.39-.28-.485-.282-.688-.735-.203-.469-.203-1.937v-5.579h-1.203v-1.265h1.203v-2.39l1.625-.985v3.375h1.656v1.266h-1.656v5.671q0 .688.078.891.094.203.281.328.203.11.578.11.266 0 .719-.063zm1.59 1.469v-9.672h1.468v1.469q.563-1.031 1.032-1.36.484-.328 1.062-.328.828 0 1.688.531l-.563 1.516q-.61-.36-1.203-.36-.547 0-.969.329t-.61.89q-.28.875-.28 1.922v5.063h-1.625zm12.54-1.188q-.921.766-1.765 1.094-.828.313-1.797.313-1.594 0-2.453-.782t-.86-1.984q0-.719.329-1.297.328-.594.843-.937.532-.36 1.188-.547.469-.125 1.453-.25 1.984-.235 2.922-.563.016-.344.016-.422 0-1-.47-1.422-.624-.546-1.874-.546-1.156 0-1.703.406t-.813 1.422l-1.61-.22q.22-1.015.72-1.64.5-.64 1.453-.984t2.187-.344q1.25 0 2.016.297.781.281 1.14.734.375.438.516 1.11.078.422.078 1.515v2.188q0 2.281.11 2.89.109.594.406 1.157h-1.703q-.266-.516-.328-1.188zm-.14-3.672q-.89.375-2.672.625-1.016.141-1.437.329t-.657.53q-.218.345-.218.782 0 .656.5 1.094t1.453.437q.937 0 1.672-.406.75-.422 1.093-1.14.266-.563.266-1.641v-.61zm4.204 4.86v-9.672h1.469v1.375q1.062-1.594 3.078-1.594.875 0 1.61.313t1.093.828q.375.5.516 1.203.093.453.093 1.594v5.953h-1.64v-5.89q0-1-.203-1.485-.188-.5-.672-.797t-1.14-.297q-1.048 0-1.813.672-.75.656-.75 2.515v5.282h-1.641zm9.72-2.89 1.624-.25q.125.968.75 1.5.625.515 1.75.515t1.672-.453q.547-.469.547-1.094 0-.547-.484-.875-.328-.219-1.672-.547-1.813-.469-2.516-.797-.687-.328-1.047-.906-.36-.594-.36-1.313 0-.64.298-1.187.297-.563.812-.922.375-.281 1.031-.469.672-.203 1.422-.203 1.141 0 2 .328t1.266.89q.422.563.578 1.5l-1.61.22q-.109-.75-.64-1.172-.516-.422-1.469-.422-1.14 0-1.625.375-.468.375-.468.875 0 .312.187.578.203.266.64.437.235.094 1.438.422 1.75.453 2.438.75t1.078.86.39 1.406q0 .828-.484 1.547-.469.719-1.375 1.125-.906.39-2.047.39-1.875 0-2.875-.78-.984-.782-1.25-2.329zm9.984 6.593v-13.375h1.484v1.25q.531-.734 1.188-1.094.671-.375 1.625-.375 1.234 0 2.171.64.954.626 1.438 1.798.484 1.156.484 2.547 0 1.484-.53 2.672t-1.548 1.828q-1.015.625-2.14.625-.813 0-1.47-.344t-1.062-.875v4.703h-1.64zm1.484-8.484q0 1.859.75 2.765.766.89 1.828.89 1.094 0 1.875-.921.781-.938.781-2.875 0-1.844-.765-2.766-.75-.922-1.813-.922-1.047 0-1.86.985-.796.969-.796 2.844zm8.282-.063q0-2.687 1.484-3.969 1.25-1.078 3.047-1.078 2 0 3.266 1.313 1.266 1.297 1.266 3.61 0 1.858-.563 2.937-.562 1.062-1.64 1.656-1.063.594-2.329.594-2.03 0-3.28-1.297-1.25-1.313-1.25-3.766zm1.688 0q0 1.86.796 2.797.813.922 2.047.922 1.22 0 2.032-.922.812-.938.812-2.844 0-1.797-.812-2.719t-2.032-.921q-1.234 0-2.047.921-.796.907-.796 2.766zm9.282 4.844v-9.672h1.468v1.469q.563-1.031 1.032-1.36.484-.328 1.062-.328.828 0 1.688.532l-.563 1.515q-.61-.36-1.203-.36-.547 0-.969.329t-.61.89q-.28.875-.28 1.922v5.063h-1.625zm9.806-1.469.234 1.453q-.687.14-1.234.14-.89 0-1.39-.28-.485-.282-.688-.735-.203-.469-.203-1.937v-5.578h-1.203v-1.266h1.203v-2.39l1.625-.985v3.375h1.656v1.266h-1.656v5.672q0 .687.078.89.094.203.281.328.203.11.578.11.266 0 .72-.063zM449.97 286.12l1.625-.25q.125.969.75 1.5.625.516 1.75.516t1.672-.454q.547-.468.547-1.093 0-.547-.485-.875-.328-.219-1.671-.547-1.813-.469-2.516-.797-.688-.328-1.047-.906-.36-.594-.36-1.313 0-.64.298-1.187.296-.563.812-.922.375-.281 1.031-.469.672-.203 1.422-.203 1.14 0 2 .328t1.266.89q.422.563.578 1.5l-1.61.22q-.109-.75-.64-1.172-.516-.422-1.469-.422-1.14 0-1.625.375-.469.375-.469.875 0 .312.188.578.203.265.64.437.235.094 1.438.422 1.75.453 2.437.75t1.078.86.391 1.406q0 .828-.484 1.547-.469.718-1.375 1.125-.907.39-2.047.39-1.875 0-2.875-.781-.985-.781-1.25-2.328zm9.375-1.953q0-2.688 1.484-3.969 1.25-1.078 3.047-1.078 2 0 3.266 1.313 1.266 1.296 1.266 3.609 0 1.86-.563 2.937-.563 1.063-1.64 1.657-1.063.593-2.329.593-2.03 0-3.28-1.297-1.25-1.312-1.25-3.765zm1.688 0q0 1.86.796 2.797.813.922 2.047.922 1.22 0 2.031-.922.813-.938.813-2.844 0-1.797-.813-2.719t-2.03-.922q-1.235 0-2.048.922-.796.906-.796 2.766zm15.61 1.297 1.609.219q-.266 1.656-1.36 2.609-1.078.937-2.671.937-1.985 0-3.188-1.296t-1.203-3.72q0-1.577.516-2.75t1.578-1.75q1.062-.593 2.312-.593 1.578 0 2.578.797t1.282 2.265l-1.594.235q-.235-.969-.813-1.453-.578-.5-1.39-.5-1.235 0-2.016.89t-.781 2.813q0 1.953.75 2.844.75.875 1.953.875.969 0 1.61-.594.656-.594.827-1.828zm3.015 3.547v-13.36h1.64v7.626l3.891-3.938h2.11l-3.688 3.594 4.063 6.078h-2.016l-3.203-4.953-1.156 1.125v3.828h-1.64zm15.953-3.11 1.688.203q-.407 1.485-1.485 2.313-1.078.812-2.765.812-2.125 0-3.375-1.296-1.235-1.313-1.235-3.672 0-2.453 1.25-3.797 1.266-1.344 3.266-1.344 1.937 0 3.156 1.328 1.234 1.313 1.234 3.703v.438h-7.218q.093 1.593.906 2.453.812.843 2.015.843.907 0 1.547-.468.641-.485 1.016-1.516zm-5.39-2.656h5.406q-.11-1.219-.625-1.828-.782-.953-2.031-.953-1.125 0-1.907.765-.765.75-.843 2.016zm12.719 4.297.234 1.453q-.688.14-1.235.14-.89 0-1.39-.28-.484-.282-.688-.735-.203-.469-.203-1.937v-5.579h-1.203v-1.265h1.203v-2.39l1.625-.985v3.375h1.656v1.266h-1.656v5.671q0 .688.078.891.094.203.282.328.203.11.578.11.265 0 .719-.063z" fill="#000"/><path d="M671.77 208.56h113.57v79.339H671.77z" fill="none"/><path d="M718.04 232.92v-10.109h-3.781v-1.344h9.078v1.344h-3.781v10.109h-1.516zm6.79 0v-11.453h1.515v10.094h5.64v1.36h-7.156zm8.444-3.688 1.438-.125q.094.86.469 1.422.375.547 1.156.891.781.328 1.75.328.875 0 1.531-.25.672-.265.984-.703.329-.453.329-.984 0-.547-.313-.938-.312-.406-1.031-.687-.453-.172-2.031-.547-1.578-.39-2.22-.719-.812-.437-1.218-1.062-.406-.641-.406-1.438 0-.86.484-1.61.5-.765 1.438-1.156.953-.39 2.11-.39 1.28 0 2.25.422.968.406 1.483 1.203.532.797.579 1.797l-1.454.109q-.124-1.078-.796-1.625-.672-.562-2-.562-1.375 0-2 .5t-.625 1.218q0 .61.437 1.016.438.39 2.281.812 1.86.422 2.547.735 1 .453 1.469 1.172.484.703.484 1.625 0 .906-.53 1.719-.516.812-1.5 1.265t-2.204.453q-1.562 0-2.61-.453-1.046-.469-1.656-1.375-.593-.906-.625-2.062zM700.16 249.25l1.453.172q-.344 1.281-1.281 1.984-.922.703-2.36.703-1.828 0-2.89-1.125t-1.063-3.14q0-2.094 1.078-3.25t2.797-1.156q1.657 0 2.703 1.14 1.063 1.125 1.063 3.172v.375h-6.188q.079 1.375.766 2.11.703.718 1.735.718.78 0 1.328-.406t.859-1.297zm-4.61-2.281h4.626q-.094-1.047-.532-1.563-.672-.812-1.734-.812-.969 0-1.64.656-.657.64-.72 1.719zm7.836 4.953v-8.297h1.266v1.172q.906-1.36 2.64-1.36.75 0 1.376.266t.937.703.438 1.047q.078.39.078 1.36v5.109h-1.406v-5.047q0-.86-.172-1.281-.157-.438-.578-.688-.407-.25-.97-.25-.905 0-1.562.578-.64.563-.64 2.157v4.53h-1.406zm14.305-3.047 1.391.188q-.234 1.421-1.172 2.234-.922.812-2.281.812-1.703 0-2.75-1.109-1.031-1.125-1.031-3.203 0-1.344.437-2.344.453-1.015 1.36-1.515.922-.5 1.984-.5 1.36 0 2.219.687.86.672 1.094 1.938l-1.36.203q-.203-.828-.703-1.25-.484-.422-1.187-.422-1.063 0-1.735.765-.656.75-.656 2.407 0 1.671.64 2.437.641.75 1.673.75.828 0 1.375-.5.562-.516.703-1.578zm2.579 3.047v-8.297h1.265v1.25q.485-.875.89-1.156t.907-.281q.703 0 1.438.453l-.485 1.297q-.515-.297-1.031-.297-.453 0-.828.28-.36.267-.516.767-.234.75-.234 1.64v4.344h-1.406zm5.28 3.203-.155-1.328q.453.125.796.125.47 0 .75-.156t.47-.438q.124-.203.421-1.047.047-.11.125-.344l-3.14-8.312h1.515l1.719 4.797q.344.922.61 1.922.234-.969.577-1.89l1.766-4.829h1.406l-3.156 8.438q-.5 1.375-.781 1.89-.375.688-.86 1.016t-1.156.328q-.406 0-.906-.172zm8.063-.016v-11.484h1.281v1.078q.454-.64 1.016-.953.578-.312 1.39-.312 1.063 0 1.876.547t1.218 1.547q.422.984.422 2.172 0 1.28-.468 2.296-.453 1.016-1.328 1.563-.86.547-1.829.547-.703 0-1.265-.297-.547-.297-.906-.75v4.047h-1.407zm1.266-7.297q0 1.61.64 2.375.657.766 1.579.766.937 0 1.609-.797t.672-2.453q0-1.594-.656-2.375-.657-.797-1.563-.797-.89 0-1.594.844-.687.844-.687 2.437zm10.695 2.844.203 1.25q-.594.125-1.062.125-.766 0-1.188-.234-.422-.25-.594-.64-.172-.407-.172-1.673v-4.765h-1.03v-1.094h1.03v-2.063l1.407-.843v2.906h1.406v1.094h-1.406v4.844q0 .609.062.78.078.173.25.282.172.094.484.094.235 0 .61-.063zm7.055-1.406 1.453.172q-.344 1.281-1.282 1.984-.921.703-2.359.703-1.828 0-2.89-1.125t-1.063-3.14q0-2.094 1.078-3.25t2.797-1.156q1.656 0 2.703 1.14 1.063 1.125 1.063 3.172v.375h-6.188q.078 1.375.766 2.11.703.718 1.734.718.781 0 1.328-.406t.86-1.297zm-4.61-2.281h4.625q-.094-1.047-.531-1.563-.672-.812-1.734-.812-.97 0-1.641.656-.656.64-.719 1.719zm13.211 4.953v-1.047q-.781 1.234-2.312 1.234-1 0-1.828-.546t-1.297-1.532q-.453-.984-.453-2.25 0-1.25.406-2.25.422-1.015 1.25-1.547.828-.546 1.86-.546.75 0 1.327.312.594.313.953.828v-4.11h1.407v11.454h-1.313zm-4.437-4.14q0 1.593.672 2.39.671.781 1.578.781.922 0 1.562-.75.656-.765.656-2.312 0-1.703-.656-2.5t-1.625-.797q-.937 0-1.562.765t-.625 2.422zM707.96 270.92v-10.109h-3.781v-1.344h9.078v1.344h-3.781v10.109h-1.516zm15.023-4.016 1.516.375q-.47 1.875-1.72 2.86-1.234.984-3.015.984-1.86 0-3.015-.75-1.157-.765-1.766-2.187-.61-1.438-.61-3.078 0-1.797.688-3.125t1.938-2.016q1.265-.703 2.78-.703 1.72 0 2.891.875t1.641 2.469l-1.5.343q-.39-1.25-1.156-1.812-.75-.578-1.906-.578-1.313 0-2.203.64-.891.625-1.25 1.704-.36 1.062-.36 2.187 0 1.469.422 2.563.438 1.078 1.328 1.625.906.53 1.953.53 1.266 0 2.14-.734.891-.734 1.204-2.172zm3.383 4.016v-11.453h4.328q1.14 0 1.734.11.844.14 1.407.53.578.391.921 1.11.36.703.36 1.563 0 1.453-.938 2.468-.922 1.016-3.36 1.016h-2.937v4.656h-1.515zm1.515-6.016h2.97q1.468 0 2.077-.546.625-.547.625-1.532 0-.718-.375-1.234-.36-.516-.953-.672-.375-.11-1.406-.11h-2.938v4.094zm16.203 4.75.204 1.25q-.594.125-1.063.125-.766 0-1.187-.234-.422-.25-.594-.64-.172-.407-.172-1.672v-4.766h-1.031v-1.094h1.03v-2.062l1.407-.844v2.906h1.406v1.094h-1.406v4.844q0 .609.063.78.078.173.25.282.171.094.484.094.234 0 .61-.063zm.852-2.89q0-2.297 1.281-3.406 1.078-.922 2.61-.922 1.718 0 2.796 1.125 1.094 1.11 1.094 3.094 0 1.593-.484 2.515t-1.406 1.438q-.907.5-2 .5-1.735 0-2.813-1.11-1.078-1.125-1.078-3.234zm1.453 0q0 1.594.688 2.39.703.797 1.75.797t1.734-.797q.703-.796.703-2.437 0-1.531-.703-2.328-.688-.797-1.734-.797t-1.75.797q-.688.781-.688 2.375zM701.71 289.92v-1.219q-.969 1.406-2.64 1.406-.735 0-1.376-.28-.625-.282-.937-.704-.313-.437-.438-1.047-.078-.422-.078-1.312v-5.141h1.406v4.594q0 1.11.079 1.484.14.563.562.875.438.313 1.063.313.64 0 1.187-.313.563-.328.781-.89.235-.563.235-1.625v-4.438h1.406v8.297h-1.25zm3.46 3.188v-11.484h1.282v1.078q.453-.641 1.016-.954.578-.312 1.39-.312 1.063 0 1.875.547t1.22 1.547q.421.984.421 2.172 0 1.28-.469 2.297-.453 1.015-1.328 1.562-.86.547-1.828.547-.703 0-1.266-.297-.546-.297-.906-.75v4.047h-1.406zm1.267-7.297q0 1.609.64 2.375.656.765 1.578.765.938 0 1.61-.797t.672-2.453q0-1.594-.657-2.375-.656-.797-1.562-.797-.89 0-1.594.844-.688.844-.688 2.438zm7.07 1.625 1.39-.22q.11.845.641 1.298.547.437 1.5.437.969 0 1.438-.39.468-.407.468-.938 0-.469-.406-.75-.297-.187-1.437-.469-1.547-.39-2.157-.671-.593-.297-.906-.797-.297-.5-.297-1.11 0-.562.25-1.031t.688-.781q.328-.25.89-.406.578-.172 1.22-.172.983 0 1.718.28t1.078.767q.36.468.5 1.28l-1.375.188q-.094-.64-.547-1t-1.265-.36q-.97 0-1.391.329-.406.312-.406.734 0 .282.172.5t.53.375q.22.078 1.25.36 1.485.39 2.079.656.594.25.922.734.344.485.344 1.203 0 .704-.422 1.329-.407.609-1.188.953-.765.343-1.734.343-1.625 0-2.469-.671t-1.078-2zm11.625 1.218.203 1.25q-.594.125-1.063.125-.765 0-1.187-.234-.422-.25-.594-.64-.172-.407-.172-1.672v-4.766h-1.03v-1.094h1.03v-2.062l1.406-.844v2.906h1.407v1.094h-1.407v4.844q0 .609.063.78.078.173.25.282.172.094.484.094.235 0 .61-.063zm1.367 1.266v-8.297h1.266v1.25q.484-.875.89-1.156t.906-.281q.704 0 1.438.453l-.484 1.297q-.516-.297-1.032-.297-.453 0-.828.281-.36.266-.515.766-.235.75-.235 1.64v4.344H726.5zm11.016-2.672 1.453.172q-.344 1.281-1.281 1.984-.922.704-2.36.704-1.828 0-2.89-1.125t-1.063-3.141q0-2.094 1.078-3.25t2.797-1.156q1.657 0 2.703 1.14 1.063 1.125 1.063 3.172v.375h-6.188q.079 1.375.766 2.11.703.718 1.735.718.78 0 1.328-.406t.859-1.297zm-4.61-2.281h4.626q-.094-1.047-.532-1.563-.672-.812-1.734-.812-.969 0-1.64.656-.657.64-.72 1.719zm13.243 3.922q-.782.672-1.5.953-.72.266-1.547.266-1.375 0-2.11-.672t-.734-1.703q0-.61.281-1.11.281-.515.719-.812.453-.313 1.016-.47.421-.108 1.25-.202 1.703-.203 2.515-.485v-.375q0-.859-.39-1.203-.547-.484-1.61-.484-.984 0-1.469.36-.468.343-.687 1.218l-1.375-.187q.187-.875.61-1.422.437-.547 1.25-.828.812-.297 1.874-.297t1.719.25q.672.25.984.625t.438.953q.078.36.078 1.297v1.875q0 1.969.078 2.484.094.516.36 1h-1.47q-.218-.437-.28-1.031zm-.11-3.14q-.765.312-2.297.53-.875.125-1.234.282t-.563.468q-.187.297-.187.657 0 .562.422.937.437.375 1.25.375t1.437-.344q.64-.359.938-.984.234-.469.234-1.406v-.516zm3.602 4.171v-8.297h1.25v1.156q.39-.609 1.031-.968.656-.375 1.484-.375.922 0 1.516.39.594.375.828 1.063.985-1.453 2.563-1.453 1.234 0 1.89.687.672.672.672 2.094v5.703h-1.39v-5.234q0-.844-.141-1.203-.14-.375-.5-.594-.36-.235-.844-.235-.875 0-1.453.579t-.578 1.859v4.828h-1.406v-5.39q0-.938-.344-1.407t-1.125-.468q-.594 0-1.094.312t-.734.922q-.219.594-.219 1.719v4.312h-1.406z" fill="#000"/><path d="M352.34 260.09h63.087" fill="none"/><path d="M352.34 260.09h49.378" stroke="red" stroke-linecap="butt" stroke-linejoin="round" stroke-width="4"/><path d="m401.71 260.09-4.498 4.498 12.359-4.498-12.36-4.498z" fill="red" fill-rule="evenodd" stroke="red" stroke-linecap="butt" stroke-width="4"/><path d="m40.425 270.56 190.52-1.228" fill="none"/><path d="m40.425 270.56 176.81-1.14" stroke="red" stroke-linecap="butt" stroke-linejoin="round" stroke-width="4"/><path d="m217.24 269.42-4.47 4.527 12.33-4.578-12.387-4.418z" fill="red" fill-rule="evenodd" stroke="red" stroke-linecap="butt" stroke-width="4"/><path d="m39.402 360.55 187.46-92.63" fill="none"/><path d="m39.402 360.55 175.17-86.557" stroke="red" stroke-linecap="butt" stroke-linejoin="round" stroke-width="4"/><path d="m214.58 273.99-2.04 6.026 9.087-9.508-13.073 1.442z" fill="red" fill-rule="evenodd" stroke="red" stroke-linecap="butt" stroke-width="4"/></g></svg>