<svg width="346" height="120" viewBox="0 0 346 120" fill="none" xmlns="http://www.w3.org/2000/svg">
<g opacity="0.8">
<path d="M216.959 19.3713H213.065L205.903 26.3873V19.3713H203.157V35.6565H205.903V28.6642L213.065 35.6565H216.959L208.673 27.5159L216.959 19.3713Z" fill="#1D1D1B"/>
<path d="M188.445 21.7665C187.661 22.5107 187.041 23.4048 186.623 24.3936C186.204 25.3825 185.997 26.445 186.012 27.5159C185.994 28.5864 186.201 29.6492 186.619 30.6377C187.038 31.6263 187.659 32.5194 188.445 33.2612C189.611 34.4087 191.097 35.1889 192.716 35.5023C194.335 35.8157 196.012 35.6482 197.533 35.0212C198.518 34.6042 199.413 34.007 200.171 33.2612L198.212 31.3593C197.438 32.117 196.454 32.6325 195.382 32.8408C194.311 33.0491 193.201 32.9409 192.193 32.5297C191.184 32.1186 190.322 31.423 189.715 30.5306C189.108 29.6383 188.783 28.5893 188.782 27.5159C188.782 26.4421 189.107 25.3926 189.715 24.5003C190.322 23.6079 191.185 22.9128 192.195 22.503C193.205 22.0932 194.315 21.987 195.386 22.198C196.457 22.409 197.441 22.9276 198.212 23.6882L200.171 21.7665C199.414 21.0184 198.519 20.4197 197.533 20.0027C196.011 19.3782 194.335 19.2125 192.716 19.5265C191.098 19.8406 189.611 20.6203 188.445 21.7665Z" fill="#1D1D1B"/>
<path d="M154.339 35.6565H165.37V32.9337H157.084V19.3713H154.339V35.6565Z" fill="#1D1D1B"/>
<path d="M144.997 27.5159L139.457 27.4922V22.0941H144.997C145.722 22.1002 146.416 22.3855 146.929 22.8886C147.442 23.3917 147.735 24.0727 147.743 24.7852C147.742 25.5029 147.453 26.1913 146.939 26.7011C146.425 27.2108 145.727 27.5007 144.997 27.508V27.5159ZM149.533 27.8592C150.177 26.9596 150.52 25.8851 150.513 24.7852C150.525 24.0733 150.389 23.3665 150.113 22.7083C149.836 22.05 149.426 21.4542 148.907 20.9576C148.402 20.4483 147.797 20.0456 147.128 19.7742C146.459 19.5028 145.741 19.3684 145.017 19.3792H136.712V35.6565H139.457V30.2347H144.134L147.346 35.6565H150.525L147.097 29.8124C148.089 29.4184 148.938 28.7407 149.533 27.8671" fill="#1D1D1B"/>
<path d="M132.332 19.3713H129.586V35.6565H132.332V19.3713Z" fill="#1D1D1B"/>
<path d="M118.286 25.4482L120.722 30.2347H115.849L118.286 25.4482ZM110 35.6565H113.083L114.488 32.9337H122.115L123.5 35.6565H126.579L118.286 19.3713L110 35.6565Z" fill="#1D1D1B"/>
<path d="M180.99 21.7508C180.57 21.334 180.107 20.9611 179.609 20.638L178.537 23.2423C178.709 23.3784 178.874 23.5233 179.031 23.6764C179.55 24.173 179.96 24.7688 180.237 25.427C180.513 26.0853 180.649 26.7921 180.637 27.504C180.637 28.2158 180.495 28.9207 180.218 29.5783C179.941 30.2359 179.534 30.8333 179.022 31.3362C178.51 31.8391 177.901 32.2377 177.232 32.5092C176.563 32.7806 175.845 32.9195 175.121 32.9179C174.924 32.9179 174.72 32.9179 174.547 32.8943L173.479 35.4947C174.021 35.5941 174.57 35.643 175.121 35.6407C176.214 35.6612 177.3 35.4593 178.31 35.0478C179.32 34.6363 180.232 34.024 180.99 33.2494C181.784 32.5129 182.414 31.6214 182.837 30.6321C183.261 29.6427 183.47 28.5773 183.451 27.504C183.464 26.4303 183.253 25.3654 182.83 24.3755C182.407 23.3857 181.78 22.4922 180.99 21.7508ZM169.609 27.504C169.606 26.7913 169.747 26.0851 170.024 25.4261C170.3 24.7671 170.706 24.1684 171.219 23.6644C171.732 23.1604 172.341 22.7612 173.011 22.4896C173.681 22.2181 174.4 22.0796 175.125 22.0822C175.323 22.0815 175.522 22.0907 175.719 22.1098L176.787 19.5094C176.239 19.4086 175.683 19.3585 175.125 19.3595C174.034 19.3385 172.951 19.5402 171.944 19.9519C170.936 20.3634 170.026 20.976 169.272 21.7508C168.488 22.4957 167.869 23.3905 167.45 24.3799C167.032 25.3694 166.824 26.4326 166.839 27.504C166.822 28.5745 167.029 29.637 167.448 30.6255C167.866 31.6139 168.487 32.5071 169.272 33.2494C169.698 33.6726 170.169 34.0496 170.677 34.374L171.757 31.7933C171.573 31.6536 171.396 31.5048 171.227 31.3474C170.712 30.8448 170.304 30.2457 170.028 29.5856C169.753 28.9254 169.614 28.2176 169.621 27.504" fill="#1D1D1B"/>
<path d="M169.655 36.8228L167.986 40.8837L170.796 41.9997L172.465 37.9388L169.655 36.8228Z" fill="#808A8E"/>
<path d="M179.449 13L177.78 17.0608L180.59 18.1768L182.259 14.116L179.449 13Z" fill="#808A8E"/>
<path d="M221.535 21.6283H220.544V20.6616H221.535C221.665 20.6616 221.79 20.7122 221.883 20.8024C221.975 20.8925 222.028 21.015 222.029 21.143C222.03 21.2075 222.018 21.2715 221.993 21.3311C221.968 21.3908 221.931 21.4449 221.884 21.4902C221.838 21.5353 221.784 21.5708 221.724 21.5945C221.664 21.6183 221.6 21.6298 221.535 21.6283ZM222.338 21.6915C222.454 21.53 222.516 21.3368 222.514 21.1391C222.511 20.8843 222.407 20.6408 222.224 20.4602C222.042 20.2797 221.794 20.1765 221.535 20.1724H220.05V23.0922H220.544V22.1216H221.382L221.957 23.0922H222.527L221.936 22.0426C222.115 21.9737 222.268 21.8525 222.374 21.6954" fill="#1D1D1B"/>
<path d="M221.238 24.3906C220.692 24.3906 220.157 24.2313 219.703 23.9328C219.249 23.6344 218.895 23.2101 218.686 22.7138C218.477 22.2175 218.423 21.6715 218.53 21.1447C218.636 20.618 218.9 20.1343 219.287 19.7547C219.673 19.3752 220.166 19.1169 220.702 19.0126C221.238 18.9083 221.793 18.9626 222.298 19.1687C222.803 19.3748 223.234 19.7234 223.536 20.1704C223.839 20.6174 224.001 21.1426 224 21.6797C223.999 22.3991 223.707 23.0886 223.19 23.5969C222.672 24.1052 221.97 24.3906 221.238 24.3906ZM221.238 19.3674C220.773 19.3674 220.318 19.503 219.931 19.7571C219.544 20.0112 219.243 20.3723 219.065 20.7948C218.887 21.2173 218.84 21.6823 218.931 22.1308C219.022 22.5794 219.246 22.9914 219.575 23.3148C219.904 23.6382 220.323 23.8584 220.779 23.9477C221.235 24.0369 221.709 23.9911 222.139 23.8161C222.568 23.6411 222.936 23.3447 223.194 22.9644C223.452 22.5842 223.591 22.1371 223.591 21.6797C223.585 21.0695 223.335 20.486 222.895 20.056C222.454 19.626 221.859 19.3842 221.238 19.3832V19.3674Z" fill="#1D1D1B"/>
</g>
<circle cx="55" cy="46" r="35" fill="#ADCC14"/>
<path d="M55 11C50.4037 11 45.8525 11.9053 41.6061 13.6642C37.3597 15.4231 33.5013 18.0012 30.2513 21.2513C27.0012 24.5013 24.4231 28.3597 22.6642 32.6061C20.9053 36.8525 20 41.4037 20 46L55 46L55 11Z" fill="url(#paint0_radial_1418_472)"/>
<path d="M55 81C59.5963 81 64.1475 80.0947 68.3939 78.3358C72.6403 76.5769 76.4987 73.9988 79.7487 70.7487C82.9988 67.4987 85.5769 63.6403 87.3358 59.3939C89.0947 55.1475 90 50.5963 90 46L55 46L55 81Z" fill="url(#paint1_radial_1418_472)"/>
<path d="M110.922 73V47.2305H118.709L123.385 64.8086L128.008 47.2305H135.812V73H130.979V52.7148L125.863 73H120.854L115.756 52.7148V73H110.922ZM140.945 51.8008V47.2305H145.885V51.8008H140.945ZM140.945 73V54.332H145.885V73H140.945ZM167.242 59.8516L162.373 60.7305C162.209 59.7578 161.834 59.0254 161.248 58.5332C160.674 58.041 159.924 57.7949 158.998 57.7949C157.768 57.7949 156.783 58.2227 156.045 59.0781C155.318 59.9219 154.955 61.3398 154.955 63.332C154.955 65.5469 155.324 67.1113 156.062 68.0254C156.812 68.9395 157.814 69.3965 159.068 69.3965C160.006 69.3965 160.773 69.1328 161.371 68.6055C161.969 68.0664 162.391 67.1465 162.637 65.8457L167.488 66.6719C166.984 68.8984 166.018 70.5801 164.588 71.7168C163.158 72.8535 161.242 73.4219 158.84 73.4219C156.109 73.4219 153.93 72.5605 152.301 70.8379C150.684 69.1152 149.875 66.7305 149.875 63.6836C149.875 60.6016 150.689 58.2051 152.318 56.4941C153.947 54.7715 156.15 53.9102 158.928 53.9102C161.201 53.9102 163.006 54.4023 164.342 55.3867C165.689 56.3594 166.656 57.8477 167.242 59.8516ZM175.732 73H170.793V54.332H175.381V56.9863C176.166 55.7324 176.869 54.9062 177.49 54.5078C178.123 54.1094 178.838 53.9102 179.635 53.9102C180.76 53.9102 181.844 54.2207 182.887 54.8418L181.357 59.1484C180.525 58.6094 179.752 58.3398 179.037 58.3398C178.346 58.3398 177.76 58.5332 177.279 58.9199C176.799 59.2949 176.418 59.9805 176.137 60.9766C175.867 61.9727 175.732 64.0586 175.732 67.2344V73ZM183.889 63.4023C183.889 61.7617 184.293 60.1738 185.102 58.6387C185.91 57.1035 187.053 55.9316 188.529 55.123C190.018 54.3145 191.676 53.9102 193.504 53.9102C196.328 53.9102 198.643 54.8301 200.447 56.6699C202.252 58.498 203.154 60.8125 203.154 63.6133C203.154 66.4375 202.24 68.7812 200.412 70.6445C198.596 72.4961 196.305 73.4219 193.539 73.4219C191.828 73.4219 190.193 73.0352 188.635 72.2617C187.088 71.4883 185.91 70.3574 185.102 68.8691C184.293 67.3691 183.889 65.5469 183.889 63.4023ZM188.951 63.666C188.951 65.5176 189.391 66.9355 190.27 67.9199C191.148 68.9043 192.232 69.3965 193.521 69.3965C194.811 69.3965 195.889 68.9043 196.756 67.9199C197.635 66.9355 198.074 65.5059 198.074 63.6309C198.074 61.8027 197.635 60.3965 196.756 59.4121C195.889 58.4277 194.811 57.9355 193.521 57.9355C192.232 57.9355 191.148 58.4277 190.27 59.4121C189.391 60.3965 188.951 61.8145 188.951 63.666ZM206.582 74.2305L212.225 74.916C212.318 75.5723 212.535 76.0234 212.875 76.2695C213.344 76.6211 214.082 76.7969 215.09 76.7969C216.379 76.7969 217.346 76.6035 217.99 76.2168C218.424 75.959 218.752 75.543 218.975 74.9688C219.127 74.5586 219.203 73.8027 219.203 72.7012V69.9766C217.727 71.9922 215.863 73 213.613 73C211.105 73 209.119 71.9395 207.654 69.8184C206.506 68.1426 205.932 66.0566 205.932 63.5605C205.932 60.4316 206.682 58.041 208.182 56.3887C209.693 54.7363 211.568 53.9102 213.807 53.9102C216.115 53.9102 218.02 54.9238 219.52 56.9512V54.332H224.143V71.084C224.143 73.2871 223.961 74.9336 223.598 76.0234C223.234 77.1133 222.725 77.9688 222.068 78.5898C221.412 79.2109 220.533 79.6973 219.432 80.0488C218.342 80.4004 216.959 80.5762 215.283 80.5762C212.119 80.5762 209.875 80.0312 208.551 78.9414C207.227 77.8633 206.564 76.4922 206.564 74.8281C206.564 74.6641 206.57 74.4648 206.582 74.2305ZM210.994 63.2793C210.994 65.2598 211.375 66.7129 212.137 67.6387C212.91 68.5527 213.859 69.0098 214.984 69.0098C216.191 69.0098 217.211 68.541 218.043 67.6035C218.875 66.6543 219.291 65.2539 219.291 63.4023C219.291 61.4688 218.893 60.0332 218.096 59.0957C217.299 58.1582 216.291 57.6895 215.072 57.6895C213.889 57.6895 212.91 58.1523 212.137 59.0781C211.375 59.9922 210.994 61.3926 210.994 63.2793ZM232.738 60.0273L228.256 59.2188C228.76 57.4141 229.627 56.0781 230.857 55.2109C232.088 54.3438 233.916 53.9102 236.342 53.9102C238.545 53.9102 240.186 54.1738 241.264 54.7012C242.342 55.2168 243.098 55.8789 243.531 56.6875C243.977 57.4844 244.199 58.9551 244.199 61.0996L244.146 66.8652C244.146 68.5059 244.223 69.7188 244.375 70.5039C244.539 71.2773 244.838 72.1094 245.271 73H240.385C240.256 72.6719 240.098 72.1855 239.91 71.541C239.828 71.248 239.77 71.0547 239.734 70.9609C238.891 71.7812 237.988 72.3965 237.027 72.8066C236.066 73.2168 235.041 73.4219 233.951 73.4219C232.029 73.4219 230.512 72.9004 229.398 71.8574C228.297 70.8145 227.746 69.4961 227.746 67.9023C227.746 66.8477 227.998 65.9102 228.502 65.0898C229.006 64.2578 229.709 63.625 230.611 63.1914C231.525 62.7461 232.838 62.3594 234.549 62.0312C236.857 61.5977 238.457 61.1934 239.348 60.8184V60.3262C239.348 59.377 239.113 58.7031 238.645 58.3047C238.176 57.8945 237.291 57.6895 235.99 57.6895C235.111 57.6895 234.426 57.8652 233.934 58.2168C233.441 58.5566 233.043 59.1602 232.738 60.0273ZM239.348 64.0352C238.715 64.2461 237.713 64.498 236.342 64.791C234.971 65.084 234.074 65.3711 233.652 65.6523C233.008 66.1094 232.686 66.6895 232.686 67.3926C232.686 68.084 232.943 68.6816 233.459 69.1855C233.975 69.6895 234.631 69.9414 235.428 69.9414C236.318 69.9414 237.168 69.6484 237.977 69.0625C238.574 68.6172 238.967 68.0723 239.154 67.4277C239.283 67.0059 239.348 66.2031 239.348 65.0195V64.0352ZM257.646 54.332V58.2695H254.271V65.793C254.271 67.3164 254.301 68.207 254.359 68.4648C254.43 68.7109 254.576 68.916 254.799 69.0801C255.033 69.2441 255.314 69.3262 255.643 69.3262C256.1 69.3262 256.762 69.168 257.629 68.8516L258.051 72.6836C256.902 73.1758 255.602 73.4219 254.148 73.4219C253.258 73.4219 252.455 73.2754 251.74 72.9824C251.025 72.6777 250.498 72.291 250.158 71.8223C249.83 71.3418 249.602 70.6973 249.473 69.8887C249.367 69.3145 249.314 68.1543 249.314 66.4082V58.2695H247.047V54.332H249.314V50.623L254.271 47.7402V54.332H257.646ZM271.885 67.0586L276.807 67.8848C276.174 69.6895 275.172 71.0664 273.801 72.0156C272.441 72.9531 270.736 73.4219 268.686 73.4219C265.439 73.4219 263.037 72.3613 261.479 70.2402C260.248 68.541 259.633 66.3965 259.633 63.8066C259.633 60.7129 260.441 58.293 262.059 56.5469C263.676 54.7891 265.721 53.9102 268.193 53.9102C270.971 53.9102 273.162 54.8301 274.768 56.6699C276.373 58.498 277.141 61.3047 277.07 65.0898H264.695C264.73 66.5547 265.129 67.6973 265.891 68.5176C266.652 69.3262 267.602 69.7305 268.738 69.7305C269.512 69.7305 270.162 69.5195 270.689 69.0977C271.217 68.6758 271.615 67.9961 271.885 67.0586ZM272.166 62.0664C272.131 60.6367 271.762 59.5527 271.059 58.8145C270.355 58.0645 269.5 57.6895 268.492 57.6895C267.414 57.6895 266.523 58.082 265.82 58.8672C265.117 59.6523 264.771 60.7188 264.783 62.0664H272.166ZM284.594 73L278.688 54.332H283.486L286.984 66.5664L290.201 54.332H294.965L298.076 66.5664L301.645 54.332H306.514L300.52 73H295.773L292.557 60.9941L289.393 73H284.594ZM312.824 60.0273L308.342 59.2188C308.846 57.4141 309.713 56.0781 310.943 55.2109C312.174 54.3438 314.002 53.9102 316.428 53.9102C318.631 53.9102 320.271 54.1738 321.35 54.7012C322.428 55.2168 323.184 55.8789 323.617 56.6875C324.062 57.4844 324.285 58.9551 324.285 61.0996L324.232 66.8652C324.232 68.5059 324.309 69.7188 324.461 70.5039C324.625 71.2773 324.924 72.1094 325.357 73H320.471C320.342 72.6719 320.184 72.1855 319.996 71.541C319.914 71.248 319.855 71.0547 319.82 70.9609C318.977 71.7812 318.074 72.3965 317.113 72.8066C316.152 73.2168 315.127 73.4219 314.037 73.4219C312.115 73.4219 310.598 72.9004 309.484 71.8574C308.383 70.8145 307.832 69.4961 307.832 67.9023C307.832 66.8477 308.084 65.9102 308.588 65.0898C309.092 64.2578 309.795 63.625 310.697 63.1914C311.611 62.7461 312.924 62.3594 314.635 62.0312C316.943 61.5977 318.543 61.1934 319.434 60.8184V60.3262C319.434 59.377 319.199 58.7031 318.73 58.3047C318.262 57.8945 317.377 57.6895 316.076 57.6895C315.197 57.6895 314.512 57.8652 314.02 58.2168C313.527 58.5566 313.129 59.1602 312.824 60.0273ZM319.434 64.0352C318.801 64.2461 317.799 64.498 316.428 64.791C315.057 65.084 314.16 65.3711 313.738 65.6523C313.094 66.1094 312.771 66.6895 312.771 67.3926C312.771 68.084 313.029 68.6816 313.545 69.1855C314.061 69.6895 314.717 69.9414 315.514 69.9414C316.404 69.9414 317.254 69.6484 318.062 69.0625C318.66 68.6172 319.053 68.0723 319.24 67.4277C319.369 67.0059 319.434 66.2031 319.434 65.0195V64.0352ZM326.834 54.332H332.09L336.555 67.5859L340.914 54.332H346.029L339.438 72.2969L338.26 75.5488C337.826 76.6387 337.41 77.4707 337.012 78.0449C336.625 78.6191 336.174 79.082 335.658 79.4336C335.154 79.7969 334.527 80.0781 333.777 80.2773C333.039 80.4766 332.201 80.5762 331.264 80.5762C330.314 80.5762 329.383 80.4766 328.469 80.2773L328.029 76.4102C328.803 76.5625 329.5 76.6387 330.121 76.6387C331.27 76.6387 332.119 76.2988 332.67 75.6191C333.221 74.9512 333.643 74.0957 333.936 73.0527L326.834 54.332Z" fill="#3C3C3B"/>
<defs>
<radialGradient id="paint0_radial_1418_472" cx="0" cy="0" r="1" gradientUnits="userSpaceOnUse" gradientTransform="translate(55 46) rotate(90) scale(35)">
<stop stop-color="#70991F"/>
<stop offset="1" stop-color="#384D0F"/>
</radialGradient>
<radialGradient id="paint1_radial_1418_472" cx="0" cy="0" r="1" gradientUnits="userSpaceOnUse" gradientTransform="translate(55 46) rotate(90) scale(35)">
<stop stop-color="#70991F"/>
<stop offset="1" stop-color="#384D0F"/>
</radialGradient>
</defs>
</svg>