<svg viewBox="5 50 160 70" preserveAspectRatio="xMidYMid meet" fill="none" xmlns="http://www.w3.org/2000/svg">
<path d="M146.967 108.818V105.966H148.932C149.406 105.917 149.882 106.045 150.269 106.325C150.404 106.464 150.508 106.629 150.575 106.812C150.641 106.994 150.668 107.188 150.654 107.381C150.656 107.582 150.626 107.782 150.564 107.973C150.508 108.149 150.406 108.308 150.269 108.432C150.101 108.569 149.907 108.668 149.698 108.723C149.402 108.794 149.099 108.828 148.795 108.823L146.967 108.818ZM146.967 104.714V102.215H148.552C149.045 102.175 149.539 102.274 149.978 102.501C150.12 102.608 150.231 102.75 150.303 102.913C150.375 103.075 150.405 103.253 150.39 103.43C150.402 103.605 150.376 103.78 150.315 103.944C150.254 104.108 150.159 104.257 150.036 104.381C149.671 104.636 149.227 104.752 148.784 104.709L146.967 104.714ZM145.488 110.043H148.842C149.37 110.056 149.895 109.986 150.401 109.837C150.778 109.721 151.127 109.526 151.425 109.267C151.681 109.033 151.875 108.739 151.99 108.411C152.105 108.071 152.162 107.714 152.16 107.355C152.16 107.153 152.138 106.951 152.096 106.753C152.052 106.551 151.976 106.359 151.869 106.182C151.748 105.985 151.599 105.807 151.425 105.654C151.211 105.478 150.973 105.334 150.717 105.226C151.106 105.067 151.431 104.785 151.642 104.423C151.81 104.097 151.898 103.734 151.895 103.367C151.898 103.05 151.849 102.734 151.753 102.432C151.654 102.134 151.47 101.872 151.225 101.677C150.933 101.429 150.59 101.248 150.221 101.148C149.691 101.013 149.146 100.951 148.599 100.964H145.472L145.488 110.043ZM135.981 101.006V106.383C135.981 107.73 136.276 108.718 136.878 109.336C137.23 109.665 137.647 109.918 138.101 110.078C138.556 110.238 139.039 110.302 139.52 110.265C140.01 110.272 140.498 110.202 140.967 110.059C141.386 109.926 141.768 109.697 142.081 109.388C142.409 109.053 142.654 108.646 142.8 108.2C142.982 107.625 143.067 107.023 143.053 106.42V101.001H141.521V106.42C141.569 107.086 141.412 107.752 141.072 108.327C140.887 108.549 140.65 108.722 140.382 108.83C140.114 108.939 139.823 108.98 139.535 108.95C139.241 108.984 138.942 108.945 138.665 108.836C138.389 108.727 138.144 108.553 137.951 108.327C137.602 107.755 137.44 107.088 137.486 106.42V101.001L135.981 101.006ZM126.436 110.043H127.968V106.082H132.03V110.043H133.561V101.001H132.03V104.661H127.968V101.001H126.436V110.043ZM113.648 107.286C113.647 107.721 113.744 108.15 113.933 108.541C114.121 108.933 114.396 109.277 114.736 109.547C115.542 110.073 116.496 110.327 117.456 110.271C117.961 110.279 118.463 110.21 118.946 110.065C119.332 109.946 119.691 109.752 120.002 109.494C120.283 109.268 120.502 108.976 120.641 108.644C120.785 108.31 120.857 107.95 120.853 107.587C120.876 107.251 120.828 106.914 120.712 106.597C120.597 106.28 120.416 105.992 120.182 105.749C119.579 105.251 118.846 104.936 118.069 104.841L116.865 104.592C116.453 104.538 116.063 104.379 115.729 104.133C115.614 104.018 115.526 103.88 115.471 103.727C115.415 103.575 115.393 103.412 115.407 103.251C115.406 103.091 115.439 102.933 115.502 102.786C115.571 102.63 115.681 102.495 115.819 102.395C115.992 102.267 116.19 102.175 116.4 102.126C116.698 102.058 117.003 102.028 117.308 102.036C117.798 101.996 118.286 102.124 118.692 102.4C119.013 102.702 119.224 103.101 119.295 103.536L120.742 103.309C120.688 102.982 120.594 102.662 120.462 102.358C120.322 102.051 120.119 101.777 119.865 101.555C119.565 101.301 119.216 101.111 118.84 100.995C118.328 100.835 117.792 100.762 117.256 100.779C116.797 100.775 116.339 100.828 115.893 100.937C115.505 101.029 115.138 101.192 114.81 101.418C114.514 101.627 114.27 101.902 114.097 102.221C113.918 102.568 113.829 102.955 113.838 103.346C113.828 103.72 113.888 104.093 114.018 104.444C114.134 104.735 114.315 104.995 114.546 105.205C114.808 105.424 115.11 105.593 115.433 105.702C115.831 105.839 116.239 105.945 116.653 106.019L117.805 106.235C118.049 106.273 118.287 106.342 118.513 106.441C118.678 106.518 118.828 106.623 118.956 106.753C119.06 106.863 119.138 106.994 119.184 107.138C119.226 107.277 119.247 107.421 119.247 107.566C119.244 107.746 119.214 107.924 119.157 108.094C119.099 108.268 118.995 108.423 118.856 108.543C118.689 108.682 118.494 108.784 118.286 108.844C118.001 108.929 117.705 108.969 117.409 108.961C116.851 108.996 116.296 108.854 115.824 108.554C115.634 108.396 115.478 108.199 115.368 107.977C115.258 107.755 115.196 107.513 115.185 107.265L113.648 107.286ZM104.732 107.286C104.731 107.721 104.83 108.151 105.019 108.542C105.208 108.934 105.484 109.277 105.825 109.547C106.631 110.074 107.585 110.328 108.546 110.271C109.048 110.28 109.549 110.21 110.03 110.065C110.416 109.945 110.775 109.752 111.086 109.494C111.365 109.267 111.584 108.975 111.725 108.644C111.867 108.31 111.939 107.95 111.937 107.587C111.958 107.251 111.91 106.914 111.795 106.598C111.679 106.281 111.499 105.992 111.266 105.749C110.662 105.252 109.929 104.937 109.153 104.841L107.949 104.592C107.539 104.537 107.151 104.379 106.818 104.133C106.704 104.018 106.615 103.88 106.56 103.727C106.504 103.575 106.482 103.412 106.496 103.251C106.496 103.091 106.528 102.933 106.591 102.786C106.66 102.63 106.77 102.495 106.908 102.395C107.081 102.267 107.279 102.175 107.489 102.126C107.785 102.058 108.089 102.028 108.392 102.036C108.884 101.995 109.374 102.124 109.782 102.4C110.106 102.701 110.321 103.1 110.394 103.536L111.836 103.309C111.787 102.981 111.695 102.662 111.562 102.358C111.421 102.052 111.217 101.779 110.965 101.555C110.664 101.302 110.316 101.112 109.94 100.995C109.428 100.835 108.892 100.762 108.355 100.779C107.896 100.775 107.438 100.828 106.993 100.937C106.605 101.028 106.237 101.191 105.91 101.418C105.611 101.626 105.365 101.901 105.191 102.221C105.014 102.569 104.926 102.955 104.933 103.346C104.924 103.72 104.986 104.093 105.117 104.444C105.233 104.735 105.414 104.995 105.646 105.205C105.911 105.423 106.213 105.591 106.538 105.702C106.934 105.839 107.341 105.945 107.753 106.019L108.905 106.235C109.15 106.273 109.39 106.342 109.618 106.441C109.782 106.516 109.931 106.622 110.056 106.753C110.161 106.862 110.241 106.994 110.289 107.138C110.331 107.277 110.352 107.421 110.352 107.566C110.349 107.746 110.319 107.924 110.262 108.094C110.201 108.268 110.095 108.423 109.956 108.543C109.789 108.683 109.595 108.786 109.385 108.844C109.103 108.93 108.809 108.969 108.514 108.961C107.956 108.996 107.401 108.854 106.929 108.554C106.739 108.396 106.583 108.199 106.473 107.977C106.363 107.755 106.301 107.513 106.29 107.265L104.732 107.286ZM97.1099 110.038H103.184L103.364 108.723H98.6417V106.05H102.867V104.724H98.6417V102.316H103.121V101.001H97.1099V110.038ZM93.4124 106.99C93.377 107.27 93.3062 107.543 93.2011 107.804C93.1135 108.035 92.9788 108.246 92.805 108.422C92.6243 108.593 92.4104 108.726 92.1764 108.813C91.8854 108.911 91.5801 108.957 91.2732 108.95C90.9077 108.956 90.5458 108.877 90.2168 108.718C89.902 108.555 89.6305 108.32 89.4245 108.031C89.191 107.705 89.0209 107.337 88.9227 106.948C88.7008 106.012 88.7008 105.037 88.9227 104.101C89.022 103.723 89.1862 103.366 89.4086 103.045C89.6146 102.756 89.8861 102.521 90.2009 102.358C90.5284 102.193 90.8908 102.11 91.2573 102.115C91.5463 102.108 91.8347 102.153 92.1077 102.247C92.3312 102.331 92.5345 102.46 92.7046 102.627C92.8779 102.799 93.0147 103.004 93.1061 103.23C93.2138 103.491 93.2989 103.761 93.3596 104.038L94.865 103.826C94.7905 103.398 94.6611 102.981 94.4794 102.585C94.3141 102.213 94.0721 101.88 93.7705 101.607C93.4684 101.334 93.1124 101.128 92.7257 101.001C92.2525 100.845 91.7554 100.772 91.2573 100.784C90.6848 100.776 90.1164 100.886 89.5882 101.106C89.0885 101.316 88.6427 101.636 88.2835 102.041C87.9043 102.479 87.6164 102.99 87.4384 103.541C87.2335 104.188 87.1336 104.864 87.1426 105.543C87.1336 106.21 87.2261 106.874 87.4173 107.513C87.5763 108.062 87.8478 108.571 88.2149 109.008C88.5651 109.418 89.0061 109.74 89.5037 109.948C90.0562 110.176 90.6494 110.287 91.2468 110.276C91.7745 110.286 92.3005 110.205 92.7997 110.033C93.2233 109.885 93.6115 109.651 93.9406 109.346C94.2549 109.048 94.5047 108.688 94.6748 108.29C94.8565 107.875 94.9722 107.435 95.0182 106.985L93.4124 106.99ZM83.7674 106.99C83.7299 107.269 83.6586 107.542 83.5561 107.804C83.4684 108.035 83.3337 108.246 83.1599 108.422C82.9793 108.593 82.7654 108.726 82.5314 108.813C82.2403 108.911 81.935 108.957 81.6281 108.95C81.2626 108.955 80.9013 108.876 80.5717 108.718C80.2585 108.555 79.9886 108.319 79.7847 108.031C79.5417 107.707 79.3627 107.339 79.2565 106.948C79.1366 106.482 79.0795 106.003 79.0875 105.522C79.0811 105.043 79.1361 104.566 79.2512 104.101C79.3479 103.723 79.5127 103.365 79.7372 103.045C79.9432 102.756 80.2147 102.521 80.5295 102.358C80.857 102.193 81.2193 102.11 81.5859 102.115C81.8732 102.108 82.1595 102.153 82.431 102.247C82.6566 102.329 82.862 102.459 83.0332 102.627C83.2032 102.802 83.339 103.006 83.4346 103.23C83.5429 103.49 83.6263 103.761 83.6829 104.038L85.1935 103.826C85.1164 103.398 84.987 102.981 84.8079 102.585C84.6426 102.213 84.4007 101.88 84.0991 101.607C83.7969 101.334 83.4409 101.128 83.0543 101.001C82.5805 100.846 82.084 100.772 81.5859 100.784C81.0117 100.777 80.4418 100.886 79.9115 101.106C79.4197 101.316 78.9797 101.632 78.6226 102.031C78.246 102.471 77.9624 102.983 77.7881 103.536C77.5805 104.183 77.4807 104.859 77.4923 105.538C77.4838 106.204 77.5747 106.868 77.7617 107.508C77.9228 108.056 78.1943 108.564 78.5593 109.003C78.911 109.413 79.3542 109.735 79.8534 109.943C80.4038 110.171 80.9954 110.283 81.5912 110.271C82.121 110.281 82.6481 110.199 83.1494 110.028C83.5645 109.882 83.9448 109.653 84.2676 109.354C84.5903 109.055 84.8481 108.693 85.0245 108.29C85.2041 107.875 85.3182 107.435 85.3626 106.985L83.7674 106.99ZM71.0165 106.462L72.3476 102.765L73.6892 106.462H71.0165ZM68.18 110.043H69.7646L70.5781 107.762H74.0854L74.9305 110.065H76.5679L73.124 101.001H71.6028L68.18 110.043ZM57.3307 110.043H63.3892L63.5635 108.728H58.8413V106.05H63.067V104.724H58.8413V102.316H63.3047V101.001H57.3095L57.3307 110.043ZM48.5149 101.001V110.038H50.0203V106.467H51.906H52.149L53.7705 110.059H55.4397L53.5857 106.087C54.051 105.888 54.4438 105.551 54.7108 105.121C54.9531 104.666 55.0715 104.156 55.0541 103.642C55.0536 103.328 55.0037 103.016 54.9062 102.717C54.8016 102.394 54.6204 102.1 54.378 101.862C54.0767 101.578 53.7158 101.365 53.3216 101.238C52.7765 101.06 52.2046 100.978 51.6313 100.995L48.5149 101.001ZM50.0203 105.179V102.268H51.5679C51.8739 102.261 52.1794 102.295 52.4764 102.369C52.6914 102.421 52.8929 102.519 53.068 102.654C53.2122 102.77 53.3218 102.923 53.385 103.098C53.4507 103.282 53.4828 103.477 53.48 103.673C53.4808 103.882 53.4524 104.09 53.3955 104.291C53.3448 104.471 53.2484 104.635 53.1156 104.767C52.9674 104.911 52.7859 105.016 52.5874 105.073C52.307 105.15 52.017 105.185 51.7264 105.179H50.0203ZM39.0547 101.001V106.383C39.0547 107.73 39.3558 108.718 39.9527 109.336C40.3047 109.665 40.7212 109.917 41.1758 110.077C41.6303 110.237 42.1131 110.301 42.5937 110.265C43.0821 110.271 43.5685 110.201 44.0357 110.059C44.4548 109.926 44.8367 109.697 45.1502 109.388C45.4794 109.053 45.727 108.646 45.8739 108.2C46.0559 107.625 46.1416 107.023 46.1274 106.42V101.001H44.5956V106.42C44.643 107.086 44.4864 107.752 44.1466 108.327C43.9611 108.549 43.724 108.722 43.4559 108.83C43.1879 108.939 42.8972 108.98 42.6095 108.95C42.3145 108.984 42.0158 108.945 41.7394 108.836C41.4631 108.727 41.2178 108.553 41.0249 108.327C40.6878 107.751 40.5366 107.085 40.5918 106.42V101.001H39.0547ZM35.4946 106.99C35.4654 107.268 35.4033 107.541 35.3097 107.804C35.2184 108.035 35.0819 108.245 34.9083 108.422C34.7206 108.599 34.4973 108.734 34.2533 108.818C33.9606 108.915 33.6533 108.962 33.3448 108.955C32.9793 108.961 32.6176 108.882 32.2884 108.723C31.9745 108.559 31.7032 108.324 31.4961 108.036C31.2643 107.71 31.0959 107.342 30.9996 106.953C30.8776 106.488 30.819 106.008 30.8253 105.527C30.8207 105.048 30.8775 104.571 30.9943 104.106C31.089 103.727 31.2538 103.369 31.4802 103.05C31.6849 102.76 31.9568 102.525 32.2726 102.363C32.6 102.198 32.9624 102.115 33.329 102.12C33.6181 102.113 33.9062 102.157 34.1794 102.252C34.405 102.335 34.6104 102.464 34.7815 102.633C34.9515 102.806 35.086 103.01 35.1777 103.235C35.2855 103.496 35.3704 103.767 35.4312 104.043L36.9366 103.832C36.8623 103.403 36.7327 102.986 36.551 102.59C36.3891 102.227 36.1535 101.902 35.8591 101.634C35.5532 101.359 35.1935 101.151 34.8027 101.022C34.3291 100.866 33.8325 100.793 33.3342 100.805C32.7618 100.798 32.1939 100.908 31.6651 101.127C31.1664 101.339 30.7208 101.658 30.3604 102.062C29.9913 102.493 29.7129 102.995 29.5417 103.536C29.3324 104.182 29.2307 104.859 29.2407 105.538C29.2269 106.202 29.3141 106.865 29.4995 107.503C29.6605 108.05 29.9319 108.559 30.2971 108.998C30.6556 109.41 31.1062 109.732 31.6123 109.938C32.1646 110.165 32.758 110.277 33.3554 110.265C33.885 110.276 34.4124 110.194 34.9136 110.022C35.3303 109.875 35.713 109.645 36.0387 109.346C36.3543 109.049 36.6044 108.689 36.7729 108.29C36.9565 107.876 37.0724 107.436 37.1162 106.985L35.4946 106.99ZM21.3281 110.038H27.3866L27.561 108.723H22.8599V106.05H27.0856V104.724H22.8599V102.316H27.3444V101.001H21.3281V110.038ZM12 107.281C11.999 107.715 12.0964 108.145 12.2848 108.536C12.4733 108.928 12.7479 109.271 13.0881 109.542C13.894 110.068 14.8475 110.321 15.8084 110.265C16.3125 110.274 16.815 110.205 17.2979 110.059C17.6842 109.941 18.0433 109.747 18.3543 109.489C18.6346 109.262 18.8558 108.97 18.9987 108.638C19.1383 108.304 19.2084 107.944 19.2047 107.582C19.2278 107.246 19.18 106.908 19.0644 106.592C18.9488 106.275 18.7681 105.986 18.5339 105.744C17.9308 105.246 17.1977 104.93 16.4211 104.835L15.1904 104.592C14.7794 104.536 14.3889 104.378 14.0547 104.133C13.9412 104.017 13.8537 103.879 13.7982 103.727C13.7426 103.575 13.7202 103.412 13.7325 103.251C13.7319 103.091 13.7643 102.933 13.8276 102.786C13.8969 102.63 14.0062 102.495 14.1445 102.395C14.3136 102.27 14.5057 102.181 14.7097 102.131C15.0077 102.064 15.3128 102.033 15.6182 102.041C16.1079 101.998 16.5973 102.127 17.0021 102.406C17.3312 102.702 17.5524 103.1 17.6307 103.536L19.078 103.309C19.0268 102.981 18.9327 102.661 18.798 102.358C18.6586 102.051 18.4551 101.777 18.2011 101.555C17.901 101.301 17.5523 101.111 17.1764 100.995C16.664 100.835 16.1284 100.762 15.5918 100.779C15.1327 100.775 14.675 100.828 14.229 100.937C13.8507 101.032 13.4927 101.195 13.1726 101.418C12.8732 101.624 12.6255 101.897 12.449 102.215C12.2697 102.563 12.1807 102.95 12.1902 103.341C12.1784 103.715 12.2413 104.089 12.375 104.439C12.4891 104.731 12.67 104.991 12.9032 105.2C13.1669 105.42 13.4698 105.588 13.7959 105.696C14.1917 105.835 14.5979 105.941 15.0108 106.013L16.1623 106.23C16.4061 106.267 16.6441 106.337 16.8701 106.436C17.0353 106.513 17.1855 106.618 17.3138 106.747C17.4176 106.857 17.4951 106.989 17.5409 107.133C17.5829 107.272 17.6043 107.416 17.6043 107.561C17.6018 107.741 17.5715 107.919 17.5145 108.089C17.4561 108.263 17.3522 108.418 17.2134 108.538C17.0467 108.678 16.8523 108.78 16.6429 108.839C16.3599 108.932 16.0639 108.978 15.7661 108.976C15.2082 109.012 14.6533 108.87 14.1815 108.57C13.9909 108.411 13.8356 108.215 13.7255 107.993C13.6154 107.771 13.553 107.528 13.5424 107.281H12Z" fill="#808A8E"/>
<path d="M152.745 65.5292H147.621L138.197 74.9213V65.5292H134.584V87.3297H138.197V77.9693L147.621 87.3297H152.745L141.842 76.4321L152.745 65.5292Z" fill="#6B7280"/>
<path d="M115.224 68.7356C114.193 69.7318 113.377 70.9287 112.827 72.2524C112.276 73.5761 112.003 74.9986 112.023 76.4321C111.999 77.8652 112.271 79.2879 112.822 80.6112C113.373 81.9345 114.19 83.1301 115.224 84.1233C116.758 85.6593 118.715 86.7037 120.845 87.1233C122.975 87.5429 125.181 87.3187 127.183 86.4792C128.479 85.9211 129.657 85.1215 130.654 84.1233L128.076 81.5771C127.058 82.5915 125.763 83.2816 124.353 83.5604C122.944 83.8393 121.483 83.6944 120.156 83.144C118.828 82.5936 117.694 81.6624 116.895 80.4679C116.096 79.2734 115.669 77.869 115.668 76.4321C115.668 74.9947 116.095 73.5897 116.895 72.3952C117.694 71.2006 118.83 70.2701 120.159 69.7215C121.487 69.1728 122.949 69.0307 124.358 69.3132C125.768 69.5956 127.061 70.2899 128.076 71.3081L130.654 68.7356C129.659 67.7341 128.48 66.9326 127.183 66.3743C125.18 65.5384 122.974 65.3165 120.845 65.7369C118.715 66.1574 116.759 67.2011 115.224 68.7356Z" fill="#6B7280"/>
<path d="M70.3445 87.3297H84.8606V83.6849H73.9577V65.5292H70.3445V87.3297Z" fill="#6B7280"/>
<path d="M58.0522 76.4321L50.7625 76.4004V69.1741H58.0522C59.0061 69.1823 59.9188 69.5642 60.5943 70.2377C61.2699 70.9112 61.6544 71.8228 61.6654 72.7767C61.6641 73.7374 61.284 74.659 60.6076 75.3413C59.9311 76.0237 59.013 76.4118 58.0522 76.4215V76.4321ZM64.0214 76.8917C64.8687 75.6874 65.3193 74.249 65.3103 72.7767C65.3261 71.8237 65.1471 70.8774 64.7835 69.9963C64.4201 69.1151 63.8803 68.3176 63.1973 67.6527C62.5327 66.9709 61.7359 66.4318 60.8558 66.0685C59.9757 65.7052 59.0307 65.5253 58.0786 65.5397H47.1493V87.3297H50.7625V80.0717H56.9165L61.1425 87.3297H65.3261L60.8149 79.5065C62.1204 78.979 63.2374 78.0718 64.0214 76.9022" fill="#6B7280"/>
<path d="M41.3862 65.5292H37.773V87.3297H41.3862V65.5292Z" fill="#6B7280"/>
<path d="M22.9029 73.6641L26.1094 80.0717H19.6965L22.9029 73.6641ZM12 87.3297H16.0569L17.9058 83.6849H27.9424L29.7648 87.3297H33.8164L22.9029 65.5292L12 87.3297Z" fill="#6B7280"/>
<path d="M105.415 68.7145C104.862 68.1566 104.253 67.6574 103.597 67.2248L102.187 70.7112C102.414 70.8934 102.631 71.0873 102.837 71.2923C103.52 71.9571 104.06 72.7547 104.423 73.6359C104.786 74.517 104.966 75.4633 104.95 76.4163C104.95 77.3691 104.763 78.3127 104.398 79.193C104.034 80.0733 103.499 80.873 102.825 81.5463C102.151 82.2196 101.35 82.7532 100.469 83.1165C99.5886 83.4799 98.6446 83.6658 97.6916 83.6637C97.4328 83.6637 97.1634 83.6637 96.9362 83.632L95.5311 87.1132C96.2437 87.2463 96.9669 87.3117 97.6916 87.3086C99.13 87.336 100.558 87.0658 101.887 86.515C103.217 85.9641 104.417 85.1445 105.415 84.1075C106.46 83.1215 107.288 81.9281 107.846 80.6037C108.403 79.2793 108.678 77.853 108.653 76.4163C108.671 74.9789 108.393 73.5533 107.835 72.2282C107.279 70.9031 106.454 69.707 105.415 68.7145ZM90.4389 76.4163C90.4352 75.4621 90.6206 74.5167 90.984 73.6346C91.348 72.7524 91.882 71.9509 92.5571 71.2762C93.2317 70.6016 94.033 70.0671 94.9152 69.7036C95.7974 69.3401 96.7429 69.1547 97.6969 69.1582C97.9579 69.1572 98.2188 69.1696 98.4787 69.1952L99.8838 65.7141C99.1628 65.5792 98.4306 65.512 97.6969 65.5133C96.2617 65.4853 94.8359 65.7553 93.5106 66.3063C92.1847 66.8573 90.9877 67.6773 89.9951 68.7145C88.964 69.7118 88.1484 70.9095 87.5974 72.2341C87.047 73.5587 86.7734 74.982 86.794 76.4163C86.7713 77.8493 87.0438 79.2717 87.5943 80.5949C88.1452 81.9181 88.9624 83.1137 89.9951 84.1075C90.5556 84.6739 91.1758 85.1786 91.844 85.613L93.265 82.1582C93.0225 81.9711 92.7901 81.7719 92.5677 81.5613C91.8894 80.8885 91.3532 80.0865 90.9903 79.2028C90.6274 78.319 90.4452 77.3715 90.4547 76.4163" fill="#6B7280"/>
<path d="M90.4994 88.891L88.3032 94.3272L92.0006 95.8211L94.1969 90.3849L90.4994 88.891Z" fill="#808A8E"/>
<path d="M103.387 57L101.191 62.4361L104.888 63.93L107.084 58.4939L103.387 57Z" fill="#808A8E"/>
<path d="M158.767 68.5505H157.462V67.2564H158.767C158.938 67.2564 159.103 67.3241 159.224 67.4448C159.346 67.5655 159.415 67.7294 159.417 67.9008C159.418 67.9871 159.402 68.0728 159.369 68.1527C159.336 68.2326 159.288 68.305 159.227 68.3656C159.166 68.426 159.094 68.4735 159.016 68.5053C158.937 68.5371 158.852 68.5524 158.767 68.5505ZM159.823 68.635C159.976 68.4188 160.057 68.1603 160.056 67.8955C160.052 67.5545 159.915 67.2285 159.674 66.9868C159.434 66.7452 159.108 66.6069 158.767 66.6014H156.813V70.5102H157.462V69.2108H158.566L159.322 70.5102H160.072L159.295 69.1051C159.53 69.0129 159.731 68.8506 159.871 68.6403" fill="#6B7280"/>
<path d="M158.376 72.2484C157.657 72.2484 156.954 72.0351 156.357 71.6355C155.759 71.2359 155.293 70.668 155.018 70.0036C154.743 69.3392 154.672 68.6082 154.812 67.9031C154.953 67.1979 155.299 66.5504 155.808 66.0424C156.317 65.5343 156.965 65.1886 157.67 65.0489C158.376 64.9093 159.107 64.982 159.771 65.2579C160.435 65.5338 161.002 66.0004 161.4 66.5988C161.799 67.1972 162.012 67.9003 162.011 68.6193C162.009 69.5823 161.625 70.5053 160.944 71.1857C160.263 71.8662 159.339 72.2484 158.376 72.2484ZM158.376 65.5238C157.764 65.5238 157.165 65.7054 156.656 66.0455C156.148 66.3857 155.751 66.8691 155.516 67.4348C155.282 68.0003 155.22 68.6228 155.34 69.2232C155.46 69.8237 155.755 70.3753 156.187 70.8082C156.62 71.2411 157.172 71.5359 157.772 71.6554C158.372 71.7748 158.995 71.7135 159.561 71.4792C160.126 71.2449 160.61 70.8481 160.95 70.3391C161.29 69.8301 161.472 69.2316 161.472 68.6193C161.465 67.8025 161.136 67.0213 160.556 66.4457C159.976 65.87 159.193 65.5463 158.376 65.545V65.5238Z" fill="#6B7280"/>
</svg>
