<?xml version="1.0" encoding="utf-8"?>
<!-- Generator: Adobe Illustrator 26.0.3, SVG Export Plug-In . SVG Version: 6.00 Build 0)  -->
<svg version="1.0" id="katman_1" xmlns="http://www.w3.org/2000/svg" xmlns:xlink="http://www.w3.org/1999/xlink" x="0px" y="0px"
	 viewBox="0 0 600 450" style="enable-background:new 0 0 600 450;" xml:space="preserve">
<style type="text/css">
	.st0{fill:#FFFFFF;}
	.st1{fill:#ED6B28;}
</style>
<g>
	<path class="st0" d="M139.4,198.3c1.5,1.9,2.6,3.8,3.8,5.7c0.4,0.8,1.1,1.1,1.9,1.5c4.1,1.1,7.9,2.3,12.1,3.8
		c3.4,1.1,4.9,3,4.9,6.4c0,6.4,0,13.2,0,19.6c0,3.4-1.5,5.3-4.9,6.4c-4.1,1.1-8.3,2.6-12.1,3.8c-0.8,0.4-1.1,0.4-1.5,1.1
		c-1.1,1.5-2.3,3-3.4,4.5c-0.4,0.4-0.8,0.4-0.4,1.1c0.4,0,1.1,0,1.5,0c5.7,0,11.3,0,17,0c8.3,0,14.7-6.4,14.7-14.7
		c0-8.3,0-16.6,0-24.5c0-8.7-7.2-14.7-14.7-14.7c-6,0-11.7,0-17.3,0C140.5,198.3,140.1,198.3,139.4,198.3z M119.8,198.3
		c-0.4,0-0.4,0-0.8,0c-6.4,0-12.4,0-18.8,0c-0.4,0-1.1,0-1.9,0c-7.2,1.5-12.1,7.2-12.1,14.3c0,8.3,0,16.6,0,24.5
		c0,1.1,0,2.3,0.4,3.4c1.5,6.8,7.2,11.3,14.3,11.3c5.7,0,11.7,0,17.3,0c0.4,0,0.8,0,1.5,0c-1.5-2.3-3-4.1-4.5-6.4
		c-0.4-0.4-0.8-0.4-1.1-0.8c-4.1-1.1-8.3-2.6-12.4-3.8c-3-0.8-4.5-3-4.5-6c0-6.8,0-13.6,0-20.4c0-3,1.5-4.9,4.5-6
		c4.1-1.1,8.3-2.6,12.4-3.8c0.4,0,1.1-0.4,1.5-0.8C116.7,202.4,118.2,200.2,119.8,198.3z M220,249.9c0-0.8-0.4-1.1-0.4-1.5
		c-1.9-7.2-3.8-14.7-5.7-21.9c-2.3-8.3-4.5-16.6-6.8-24.9c-0.4-1.1-0.4-1.1-1.9-1.1c-1.9,0-3.8,0-5.7,0c-1.1,0-1.5,0.4-1.5,1.1
		c-3.8,14.3-7.5,29-11.7,43.3c-0.4,1.5-1.1,3-1.1,4.9c1.9,0,3.8,0,5.3,0c0.8,0,1.1-0.4,1.5-1.1c0.8-3.8,1.9-7.2,3-10.9
		c0.4-1.1,0.4-1.5,1.9-1.1c3.4,0.4,6.8,0,10.6,0c2.6,0,2.6,0,3,2.6c0.8,3,1.9,6.4,2.6,9.4c0.4,0.8,0.4,1.1,1.5,1.1
		C216.3,249.9,218.1,249.9,220,249.9z M316.5,216.4c0-0.8,0-1.9,0-2.6c0-4.1,0-8.3,0-12.8c0-0.8-0.4-1.1-1.1-1.1c-1.5,0-3,0-4.9,0
		c-0.4,0-0.8,0-0.8,0.8c0,0.4,0,0.8,0,0.8c0,15.5,0,30.9,0,46.4c0,0.4,0,0.4,0,0.8c0,0.8,0,1.1,0.8,1.1c1.1,0,2.6,0,3.8,0
		c1.9,0,1.9,0,1.9-1.9c0,0,0-0.4,0.4-0.4s0.8,0.4,1.1,0.8c3.8,2.6,7.5,3,11.7,1.1c4.1-1.9,6.4-5.7,6.4-10.2c0-4.9,0-9.8,0-14.7
		c0-0.8,0-1.1,0-1.9c-1.5-8.7-11.7-12.4-18.5-6.8C317.3,216.4,316.9,216.4,316.5,216.4z M506.9,247.6c0.4,0.4,0.4,1.1,0.4,1.5
		c0,0.8,0.4,1.1,1.1,0.8c1.5,0,3,0,4.5,0c1.1,0,1.1,0,1.1-1.1v-0.4c0-15.5,0-30.9,0-46.4c0-0.4,0-0.8,0-0.8c0-0.8-0.4-0.8-0.8-0.8
		c-1.5,0-3,0-4.5,0c-1.1,0-1.1,0-1.1,1.1c0,4.5,0,9.4,0,13.9c0,0.4,0,0.8,0,1.1c-0.4,0-0.8-0.4-1.1-0.8c-1.9-1.5-4.5-2.3-6.8-2.3
		c-7.2,0-11.3,6-11.3,11.3c0,4.9,0,9.8,0,14.7c0,7.9,8.3,13.2,15.5,10.2C504.6,249.2,505.7,248.4,506.9,247.6z M256.2,216.7
		c-0.4-0.4,0-0.8,0-1.1c0-4.5,0-9.4,0-13.9c0-0.8,0-1.1-1.1-1.1c-1.5,0-3,0-4.5,0c-0.8,0-1.1,0.4-1.1,1.1c0,0.4,0,0.4,0,0.8
		c0,15.5,0,30.9,0,46.4c0,0.4,0,0.4,0,0.8c0,0.8,0,1.1,1.1,1.1c1.1,0,2.3,0,3.4,0c1.9,0,1.9,0,2.3-1.9c0,0,0-0.4,0.4,0
		c0.4,0.4,0.8,0.4,1.1,0.8c3.8,2.6,7.5,3,11.7,1.1s6-5.3,6.4-9.8c0-4.9,0-10.2,0-15.1c0-4.5-2.3-7.9-6-9.8
		c-4.1-1.9-7.9-1.5-11.7,0.8C257,216,256.6,216.4,256.2,216.7z M388.9,225.4c0-3.4,0-6.8,0-10.2c0-5.7,5.3-9.8,10.9-8.3
		c3.4,0.8,5.7,3.8,6,7.2c0,0.8,0.4,1.1,1.1,1.1c1.5,0,3.4,0,4.9,0c0.4,0,0.8,0,0.8-0.8c0-4.1-1.5-7.5-4.5-10.2
		c-4.5-4.1-10.9-5.7-16.6-3c-5.7,2.3-9.4,7.9-9.4,13.9c0,6.8,0,13.9,0,20.7c0,1.9,0.4,3.8,1.1,5.7c3.4,7.9,12.4,11.7,20.4,7.9
		c5.3-2.6,8.3-6.8,8.7-12.8c0-0.8,0-1.1-1.1-1.1c-1.5,0-3,0-4.1,0s-1.1,0-1.5,1.1c-0.8,4.9-5.7,8.7-10.6,7.2c-3.8-1.1-6-4.1-6.4-8.3
		C388.9,232.2,388.9,228.8,388.9,225.4z M340.3,224.3c1.9,0,3.4,0,5.3,0c0.8,0,1.1-0.4,1.5-1.1c1.1-2.6,3.4-4.1,6-4.1s5.3,1.9,6,4.9
		c0.4,1.1,0,2.3,0,3.4c0,0.8-0.4,1.1-1.1,1.1c-3,0-5.7,0-8.7,0c-6,0-12.4,6-10.6,13.6c2.3,9.4,12.8,10.6,18.5,6.8
		c0.4-0.4,0.8-0.8,1.5-1.1c0,0.4,0,1.1,0,1.5s0,0.8,0.8,0.8c1.9,0,3.4,0,5.3,0c0.4,0,0.8-0.4,0.8-0.8s0-0.8,0-0.8
		c0-7.2,0-14.3,0-21.1c0-1.1,0-2.3-0.4-3.4c-1.1-6-6.8-10.6-13.6-10.2C346.3,214.1,341.4,218.2,340.3,224.3z M298.4,247.3
		c0,0.8,0,0.8,0,1.1c0,1.1,0,1.1,1.5,1.1s2.6,0,4.1,0c1.1,0,1.1,0,1.1-1.1c0-7.5,0-14.7,0-22.2c0-9-9-15.1-17.3-12.1
		c-4.1,1.5-6.8,4.5-7.9,8.7c-0.4,1.1-0.4,1.1,0.8,1.1s2.6,0,3.8,0s1.5,0,1.9-1.1c1.1-2.6,4.1-4.5,6.8-4.1c3,0.8,5.3,3,5.3,6.4
		c0,0.8,0,1.1,0,1.9s-0.4,1.1-1.1,1.1c-2.6,0-5.7,0-8.3,0c-6.8,0-12.8,6.8-10.6,14.7c1.9,5.7,7.2,8.7,13.9,7.5
		C295,249.9,296.5,248.8,298.4,247.3z M476.7,247.6c0.4,0.4,0,0.8,0,1.1c0,0.8,0.4,0.8,1.1,0.8c1.5,0,3,0,4.9,0
		c0.8,0,1.1-0.4,1.1-1.1c0-0.4,0-0.8,0-0.8c0-10.6,0-21.1,0-31.7c0-0.8,0-1.1,0-1.9c0-1.1,0-1.1-1.1-1.1c-1.5,0-2.6,0-4.1,0
		c-1.5,0-1.5,0-1.5,1.5c0,0.4,0,0.8,0,1.1c0,7.5,0,15.1,0,22.2c0,4.5-4.5,7.5-8.7,6c-2.6-0.8-4.1-3.4-4.1-6c0-6.4,0-13.2,0-19.6
		c0-1.1,0-2.6,0-3.8c0-1.1,0-1.1-1.1-1.1c-1.5,0-2.6,0-4.1,0c-1.5,0-1.5,0-1.5,1.5c0,7.9,0,15.8,0,23.7c0,0.4,0,0.8,0,1.1
		c0.4,4.5,2.6,7.9,6.8,9.8s8.3,1.5,11.7-1.5C476,248,476.3,247.6,476.7,247.6z M427,231.8c0,2.3,0,4.1,0,6.4c0,0.8,0,1.1,0,1.9
		c1.1,6.4,6.8,11.3,14.3,10.6c6.4-0.8,11.7-6.4,11.3-12.8c0-3.8,0-7.5,0-11.3c0-1.1,0-2.3-0.4-3.4c-1.5-4.9-6.4-9.8-13.9-9.4
		c-6.4,0.4-11.7,6-11.7,12.4C427,228,427,229.9,427,231.8z M223,225c0,6.4,0,13.2,0,19.6c0,1.5,0,2.6,0,4.1c0,1.1,0,1.1,1.1,1.1
		c1.5,0,3,0,4.5,0c0.8,0,1.1-0.4,1.1-1.1c0-0.4,0-0.4,0-0.8c0-15.5,0-30.9,0-46c0-0.4,0-0.8,0-1.1s0-0.8-0.8-0.8c-1.9,0-3.8,0-5.7,0
		c-0.4,0-0.8,0-0.8,0.8c0,0.4,0,0.8,0,1.1C223,209.6,223,217.1,223,225z M422.1,225c0-7.5,0-15.5,0-23c0-0.4,0-0.8,0-1.1
		c0-0.8-0.4-0.8-0.8-0.8c-1.5,0-3.4,0-4.9,0c-0.8,0-1.1,0.4-0.8,0.8c0,0.4,0,0.4,0,0.8c0,15.5,0,30.9,0,46.4c0,0.4,0,0.8,0,0.8
		c0,0.8,0.4,0.8,0.8,0.8c1.5,0,3.4,0,4.9,0c0.8,0,0.8-0.4,0.8-0.8c0-0.4,0-0.8,0-1.1C422.1,240.5,422.1,232.6,422.1,225z
		 M242.6,231.8c0-5.7,0-11.3,0-17c0-1.5,0-1.5-1.1-1.5c-1.5,0-2.6,0-4.1,0c-1.5,0-1.5,0-1.5,1.5c0,7.5,0,15.5,0,23
		c0,3.4,0,7.2,0,10.6c0,0.8,0,1.1,1.1,1.1c1.5,0,2.6,0,4.1,0c1.5,0,1.5,0,1.5-1.5C242.6,242.7,242.6,237.1,242.6,231.8z
		 M129.6,221.6c-3,0-6,0-9,0c-1.5,0-3,0-4.5,0c-0.4,0-0.8,0-0.8,0.8c0,1.9,0,3.4,0,5.3c0,0.4,0,0.8,0.8,0.8c0.4,0,0.8,0,1.1,0
		c6.8,0,13.2,0,20,0c2.3,0,4.1,0,6.4,0c0.8,0,1.1-0.4,1.1-1.1c0-1.5,0-2.6,0-4.1c0-1.5,0-1.5-1.5-1.5
		C138.2,221.6,134.1,221.6,129.6,221.6z M239.6,200.2c-0.8,0-1.5,0-2.6,0c-0.8,0-0.8,0-0.8,0.8c0,1.5,0,3.4,0,4.9
		c0,0.8,0,0.8,0.8,0.8c1.5,0,3.4,0,4.9,0c0.8,0,0.8,0,0.8-0.8c0-1.5,0-3.4,0-4.9c0-0.8,0-0.8-0.8-0.8
		C241.1,200.2,240.4,200.2,239.6,200.2z"/>
	<path class="st1" d="M139.4,198.3c0.8,0,1.1,0,1.5,0c5.7,0,11.7,0,17.3,0c7.5,0,14.7,6,14.7,14.7c0,8.3,0,16.6,0,24.5
		c0,8.3-6.4,14.7-14.7,14.7c-5.7,0-11.3,0-17,0c-0.4,0-1.1,0-1.5,0c-0.4-0.4,0-0.8,0.4-1.1c1.1-1.5,2.3-3,3.4-4.5
		c0.4-0.8,0.8-1.1,1.5-1.1c4.1-1.1,8.3-2.6,12.1-3.8c3.4-1.1,4.9-3,4.9-6.4c0-6.4,0-13.2,0-19.6c0-3.4-1.5-5.3-4.9-6.4
		c-4.1-1.1-7.9-2.6-12.1-3.8c-0.8-0.4-1.5-0.8-1.9-1.5C142,202,140.5,200.2,139.4,198.3z"/>
	<path class="st1" d="M119.8,198.3c-1.5,2.3-3,4.1-4.1,6c-0.4,0.4-1.1,0.8-1.5,0.8c-4.1,1.1-8.3,2.6-12.4,3.8c-3,0.8-4.5,3-4.5,6
		c0,6.8,0,13.6,0,20.4c0,3,1.5,5.3,4.5,6c4.1,1.1,8.3,2.6,12.4,3.8c0.4,0,0.8,0.4,1.1,0.8c1.5,1.9,3,4.1,4.5,6.4c-0.8,0-1.1,0-1.5,0
		c-5.7,0-11.7,0-17.3,0c-7.2,0-12.8-4.5-14.3-11.3c-0.4-1.1-0.4-2.3-0.4-3.4c0-8.3,0-16.6,0-24.5c0-7.2,4.9-12.8,12.1-14.3
		c0.8,0,1.5,0,2.3,0c6.4,0,12.4,0,18.8,0C119.4,198.3,119.4,198.3,119.8,198.3z"/>
	<path class="st1" d="M220,249.9c-1.9,0-3.8,0-5.7,0c-0.8,0-1.1-0.4-1.5-1.1c-0.8-3.4-1.9-6.4-2.6-9.4c-0.8-2.6-0.8-2.6-3-2.6
		c-3.4,0-6.8,0-10.6,0c-1.5,0-1.5,0-1.9,1.1c-1.1,3.8-1.9,7.2-3,10.9c-0.4,0.8-0.4,1.1-1.5,1.1c-1.9,0-3.4,0-5.3,0
		c0.4-1.9,0.8-3.4,1.1-4.9c3.8-14.3,7.5-29,11.7-43.3c0.4-0.8,0.8-1.1,1.5-1.1c1.9,0,3.8,0,5.7,0c1.5,0,1.5,0,1.9,1.1
		c2.3,8.3,4.5,16.6,6.8,24.9c1.9,7.2,3.8,14.7,5.7,21.9C219.6,248.8,220,249.2,220,249.9z M208.3,229.9c-1.9-6.8-3.4-13.2-5.7-19.6
		c-1.9,6.8-3.4,13.2-5.3,19.6C201.2,229.9,204.6,229.9,208.3,229.9z"/>
	<path class="st1" d="M316.5,216.4c0.4,0,0.8-0.4,0.8-0.4c6.8-5.7,17-1.9,18.5,6.8c0,0.8,0,1.1,0,1.9c0,4.9,0,9.8,0,14.7
		c0,4.5-2.3,8.3-6.4,10.2c-4.1,1.9-7.9,1.5-11.7-1.1c-0.4-0.4-0.8-0.8-1.1-0.8c-0.4,0-0.4,0.4-0.4,0.4c0,1.9,0,1.9-1.9,1.9
		c-1.1,0-2.6,0-3.8,0c-0.8,0-1.1-0.4-0.8-1.1c0-0.4,0-0.4,0-0.8c0-15.5,0-30.9,0-46.4c0-0.4,0-0.8,0-0.8c0-0.8,0.4-0.8,0.8-0.8
		c1.5,0,3,0,4.9,0c0.8,0,1.1,0.4,1.1,1.1c0,4.1,0,8.3,0,12.8C316.5,214.9,316.5,215.6,316.5,216.4z M329.3,232.2c0-1.9,0-4.1,0-6
		c0-0.8,0-1.1,0-1.9c-0.8-3-3.8-4.9-6.8-4.9c-3,0.4-5.7,3-5.7,6.4c0,4.1,0,8.3,0,12.4c0,3.8,3,6.4,6.4,6.4c3.8,0,6.4-3,6.4-6.8
		C329.3,236,329.3,234.1,329.3,232.2z"/>
	<path class="st1" d="M506.9,247.6c-1.1,0.8-2.3,1.9-3.4,2.3c-7.5,3-15.5-2.3-15.5-10.2c0-4.9,0-9.8,0-14.7
		c0-5.3,4.1-10.9,11.3-11.3c2.6,0,4.9,0.8,6.8,2.3c0.4,0.4,0.4,0.8,1.1,0.8c0.4-0.4,0-0.8,0-1.1c0-4.5,0-9.4,0-13.9
		c0-1.1,0-1.1,1.1-1.1c1.5,0,3,0,4.5,0c0.4,0,0.8,0,0.8,0.8c0,0.4,0,0.8,0,0.8c0,15.5,0,30.9,0,46.4v0.4c0,1.1,0,1.1-1.1,1.1
		c-1.5,0-3,0-4.5,0c-0.8,0-1.1-0.4-1.1-0.8C507.3,248.4,507.6,248,506.9,247.6z M507.3,231.8c0-1.9,0-3.8,0-5.7c0-0.8,0-1.5-0.4-2.3
		c-0.8-3-3.8-4.9-6.8-4.5s-5.3,3-5.7,5.7c0,4.5,0,9,0,13.6c0,3.8,4.1,6.4,7.5,5.7c3-0.8,4.9-3,4.9-6.4
		C507.3,236,507.3,234.1,507.3,231.8z"/>
	<path class="st1" d="M256.2,216.7c0.4-0.4,0.8-0.8,1.5-1.1c3.8-2.3,7.5-2.6,11.7-0.8c4.1,1.9,6,5.3,6,9.8c0,4.9,0,10.2,0,15.1
		c0,4.5-2.3,7.9-6.4,9.8c-4.1,1.9-7.9,1.5-11.7-1.1c-0.4-0.4-0.8-0.8-1.1-0.8c-0.4,0-0.4,0-0.4,0c0,1.9,0,1.9-2.3,1.9
		c-1.1,0-2.3,0-3.4,0c-0.8,0-1.1-0.4-1.1-1.1c0-0.4,0-0.4,0-0.8c0-15.5,0-30.9,0-46.4c0-0.4,0-0.4,0-0.8c0-0.8,0.4-1.1,1.1-1.1
		c1.5,0,3,0,4.5,0c0.8,0,1.1,0.4,1.1,1.1c0,4.5,0,9.4,0,13.9C255.8,215.6,255.8,216,256.2,216.7z M255.8,232.2c0,1.9,0,4.1,0,6
		c0,3.8,2.6,6.4,6.4,6.4c3.4,0,6.4-2.6,6.4-6.4c0-4.1,0-8.3,0-12.1c0-1.9-0.8-3.8-2.3-4.9c-1.9-1.5-4.5-1.9-6.8-0.8
		c-2.3,1.1-3.8,3-3.8,5.7C255.8,228,255.8,229.9,255.8,232.2z"/>
	<path class="st1" d="M388.9,225.4c0,3.4,0,6.8,0,9.8c0,4.1,2.3,7.2,6.4,8.3c4.9,1.5,10.2-1.9,10.6-7.2c0-1.1,0-1.1,1.5-1.1
		s3,0,4.1,0c0.8,0,1.1,0.4,1.1,1.1c-0.4,6-3.4,10.2-8.7,12.8c-7.9,3.8-17,0-20.4-7.9c-1.1-1.9-1.5-3.4-1.5-5.3c0-6.8,0-13.9,0-20.7
		c0-6,3.8-11.3,9-13.6c5.7-2.3,12.1-1.1,16.6,3c3,2.6,4.5,6,4.5,10.2c0,0.8,0,0.8-0.8,0.8c-1.5,0-3.4,0-4.9,0
		c-0.8,0-1.1-0.4-1.1-1.1c-0.4-3.4-2.6-6.4-6-7.2c-5.7-1.5-10.9,2.3-10.9,8.3C388.9,218.6,388.9,222,388.9,225.4z"/>
	<path class="st1" d="M340.3,224.3c1.1-6,5.7-10.2,11.7-10.6c6.8-0.4,12.4,4.1,13.6,10.2c0.4,1.1,0.4,2.3,0.4,3.4
		c0,7.2,0,14.3,0,21.1c0,0.4,0,0.8,0,0.8c0,0.4-0.4,0.8-0.8,0.8c-1.9,0-3.4,0-5.3,0c-0.8,0-0.8-0.4-0.8-0.8c0-0.4,0-0.8,0-1.5
		c-0.8,0-1.1,0.8-1.5,1.1c-5.7,4.1-16.6,2.6-18.5-6.8c-1.9-7.9,4.5-13.6,10.6-13.6c3,0,5.7,0,8.7,0c0.8,0,1.1-0.4,1.1-1.1
		c0-1.1,0-2.3,0-3.4c-0.8-2.6-3-4.5-6-4.9c-2.6,0-5.3,1.5-6,4.1c-0.4,0.8-0.8,1.1-1.5,1.1C344,224.3,342.2,224.3,340.3,224.3z
		 M354.6,233.3L354.6,233.3c-1.5,0-2.6,0-4.1,0c-2.3,0.4-3.8,1.5-4.5,3.8c-0.8,2.3-0.4,4.1,1.1,5.7c3.8,4.1,10.2,2.3,11.7-2.6
		c0.8-1.9,0.4-4.1,0.4-6c0-0.4-0.4-0.4-0.8-0.4C357.2,233.3,356.1,233.3,354.6,233.3z"/>
	<path class="st1" d="M298.4,247.3c-1.9,1.5-3.8,2.6-5.7,3c-6.8,1.1-12.1-1.9-13.9-7.5c-2.6-7.9,3.8-14.7,10.6-14.7
		c2.6,0,5.7,0,8.3,0c0.8,0,1.1-0.4,1.1-1.1s0-1.1,0-1.9c0-3-2.3-5.7-5.3-6.4c-2.6-0.4-6,1.1-6.8,4.1c-0.4,1.1-0.8,1.1-1.9,1.1
		c-1.1,0-2.6,0-3.8,0c-1.1,0-1.1,0-0.8-1.1c1.1-4.1,3.8-7.2,7.9-8.7c8.3-3,17.3,3,17.3,12.1c0,7.5,0,14.7,0,22.2
		c0,1.1,0,1.1-1.1,1.1c-1.5,0-2.6,0-4.1,0c-1.1,0-1.1,0-1.5-1.1C298.8,248,298.4,248,298.4,247.3z M298.4,236.3c0-0.8,0-1.5,0-2.3
		s-0.4-0.8-1.1-0.8c-2.3,0-4.9,0-7.2,0c-2.6,0-4.5,1.9-5.3,4.1c-0.8,2.3,0.4,4.9,2.3,6.4c4.1,3,9.4,0.4,10.6-3.8
		C298.8,238.6,298.4,237.5,298.4,236.3z"/>
	<path class="st1" d="M476.7,247.6c-0.4,0-0.8,0.4-0.8,0.4c-3.8,2.6-7.5,3.4-11.7,1.5c-4.1-1.9-6.4-5.3-6.8-9.8c0-0.4,0-0.8,0-1.1
		c0-7.9,0-15.8,0-23.7c0-1.5,0-1.5,1.5-1.5c1.5,0,2.6,0,4.1,0c1.1,0,1.1,0,1.1,1.1s0,2.6,0,3.8c0,6.4,0,13.2,0,19.6
		c0,3,1.5,5.3,4.1,6c4.1,1.5,8.7-1.5,8.7-6c0-7.5,0-15.1,0-22.2c0-0.4,0-0.8,0-1.1c0-1.5,0-1.5,1.5-1.5c1.5,0,2.6,0,4.1,0
		c1.1,0,1.1,0,1.1,1.1c0,0.8,0,1.1,0,1.9c0,10.6,0,21.1,0,31.7c0,0.4,0,0.8,0,0.8c0,0.8,0,1.1-1.1,1.1c-1.5,0-3,0-4.9,0
		c-0.8,0-1.1,0-1.1-0.8C476.7,248.4,476.7,248,476.7,247.6z"/>
	<path class="st1" d="M427,231.8c0-1.9,0-4.1,0-6c0-6.4,5.3-11.7,11.7-12.4c7.2-0.8,12.4,4.1,13.9,9.4c0.4,1.1,0.4,2.3,0.4,3.4
		c0,3.8,0,7.5,0,11.3c0,6.4-4.9,12.1-11.3,12.8c-7.5,0.8-13.2-4.1-14.3-10.6c0-0.8,0-1.1,0-1.9C427,236,427,234.1,427,231.8z
		 M446.2,232.2c0-1.9,0-3.8,0-5.7c0-3.4-2.6-6-6.4-6.4c-3.4,0-6.4,2.6-6.4,6.4s0,7.5,0,11.3c0,3.4,2.6,6.4,6.4,6.4s6.4-3.4,6.4-6.4
		C446.2,236,446.2,234.1,446.2,232.2z"/>
	<path class="st1" d="M223,225c0-7.5,0-15.5,0-23c0-0.4,0-0.8,0-1.1c0-0.4,0.4-0.8,0.8-0.8c1.9,0,3.8,0,5.7,0c0.4,0,0.8,0.4,0.8,0.8
		c0,0.4,0,0.8,0,1.1c0,15.5,0,30.9,0,46c0,0.4,0,0.4,0,0.8c0,0.8-0.4,1.1-1.1,1.1c-1.5,0-3,0-4.5,0c-1.1,0-1.1,0-1.1-1.1
		c0-1.5,0-2.6,0-4.1C223,238.2,223,231.4,223,225z"/>
	<path class="st1" d="M422.1,225c0,7.5,0,15.1,0,23c0,0.4,0,0.8,0,1.1c0,0.4,0,0.8-0.8,0.8c-1.5,0-3.4,0-4.9,0
		c-0.8,0-0.8-0.4-0.8-0.8c0-0.4,0-0.8,0-0.8c0-15.5,0-30.9,0-46.4c0-0.4,0-0.4,0-0.8c0-0.8,0-1.1,0.8-0.8c1.5,0,3.4,0,4.9,0
		c0.4,0,0.8,0,0.8,0.8c0,0.4,0,0.8,0,1.1C422.1,209.6,422.1,217.5,422.1,225z"/>
	<path class="st1" d="M242.6,231.8c0,5.7,0,11.3,0,17c0,1.5,0,1.5-1.5,1.5s-2.6,0-4.1,0c-0.8,0-1.1-0.4-1.1-1.1c0-3.4,0-7.2,0-10.6
		c0-7.5,0-15.5,0-23c0-1.5,0-1.5,1.5-1.5s2.6,0,4.1,0c1.1-0.8,1.1-0.8,1.1,0.8C242.6,220.5,242.6,226.2,242.6,231.8z"/>
	<path class="st1" d="M129.6,221.6c4.1,0,8.7,0,12.8,0c1.5,0,1.5,0,1.5,1.5c0,1.5,0,2.6,0,4.1c0,0.8-0.4,1.1-1.1,1.1
		c-2.3,0-4.1,0-6.4,0c-6.8,0-13.2,0-20,0c-0.4,0-0.8,0-1.1,0s-0.8-0.4-0.8-0.8c0-1.9,0-3.4,0-5.3c0-0.8,0.4-0.8,0.8-0.8
		c1.5,0,3,0,4.5,0C123.5,221.6,126.5,221.6,129.6,221.6z"/>
	<path class="st1" d="M239.6,200.2c0.8,0,1.5,0,2.3,0s0.8,0.4,0.8,0.8c0,1.5,0,3.4,0,4.9c0,0.8-0.4,0.8-0.8,0.8c-1.5,0-3.4,0-4.9,0
		c-0.8,0-0.8-0.4-0.8-0.8c0-1.5,0-3.4,0-4.9c0-0.8,0.4-0.8,0.8-0.8C238.1,200.2,238.9,200.2,239.6,200.2z"/>
	<path class="st0" d="M208.3,229.9c-3.8,0-7.2,0-10.9,0c1.9-6.4,3.4-13.2,5.3-19.6C204.9,216.7,206.5,223.5,208.3,229.9z"/>
	<path class="st0" d="M329.3,232.2c0,1.9,0,3.8,0,5.7c0,3.4-2.6,6.8-6.4,6.8c-3.4,0-6.4-2.6-6.4-6.4c0-4.1,0-8.3,0-12.4
		c0-3.4,2.6-6,5.7-6.4c3.4-0.4,6,1.5,6.8,4.9c0,0.8,0,1.1,0,1.9C329.3,228,329.3,229.9,329.3,232.2z"/>
	<path class="st0" d="M507.3,231.8c0,1.9,0,4.1,0,6c0,3-1.9,5.7-4.9,6.4c-3.8,0.8-7.5-1.9-7.5-5.7c0-4.5,0-9,0-13.6
		c0-3,2.6-5.3,5.7-5.7c3.4-0.4,6,1.5,6.8,4.5c0.4,0.8,0.4,1.5,0.4,2.3C507.3,228,507.3,229.9,507.3,231.8z"/>
	<path class="st0" d="M255.8,232.2c0-2.3,0-4.1,0-6.4c0-2.6,1.5-4.5,3.8-5.7c2.3-1.1,4.5-0.8,6.8,0.8c1.5,1.1,2.3,3,2.3,4.9
		c0,4.1,0,8.3,0,12.1s-3,6.4-6.4,6.4s-6.4-3-6.4-6.4C255.8,236,255.8,234.1,255.8,232.2z"/>
	<path class="st0" d="M354.6,233.3c1.1,0,2.6,0,3.8,0c0.4,0,0.8,0,0.8,0.4c0,1.9,0.4,4.1-0.4,6c-1.5,4.9-7.9,6.8-11.7,2.6
		c-1.5-1.5-1.9-3.8-1.1-5.7c0.8-2.3,2.3-3.4,4.5-3.8C352,232.9,353.5,233.3,354.6,233.3L354.6,233.3z"/>
	<path class="st0" d="M298.4,236.3c0,1.1,0,2.6-0.4,3.8c-1.5,3.8-6.4,6.4-10.6,3.8c-1.9-1.5-3-4.1-2.3-6.4c0.8-2.3,3-4.1,5.3-4.1
		s4.9,0,7.2,0c0.8,0,1.1,0.4,1.1,0.8C298.4,234.8,298.4,235.6,298.4,236.3z"/>
	<path class="st0" d="M446.2,232.2c0,1.9,0,3.8,0,5.7c0,3-2.6,6.4-6.4,6.4c-3.4,0-6.4-3-6.4-6.4c0-3.8,0-7.5,0-11.3
		c0-3.4,3-6.4,6.4-6.4c3.4,0,6,2.6,6.4,6.4C446.2,228.4,446.2,230.3,446.2,232.2z"/>
</g>
</svg>
