<svg width="267" height="101" xmlns="http://www.w3.org/2000/svg"><g fill="#7D7D7D" fill-rule="nonzero"><path d="M86.361 37.46c-5.206 0-11.017 2.005-12.234 8.606-.13.701.335 1.036.783 1.138l5.335.64c.494-.025.829-.562.925-1.067.455-2.272 2.324-3.344 4.41-3.344 1.127 0 2.393.387 3.06 1.422.765 1.154.71 2.723.71 4.054v.783c-3.17.364-7.345.585-10.313 1.921-3.425 1.523-5.831 4.621-5.831 9.176 0 5.836 3.575 8.75 8.18 8.75 3.888 0 6.037-.913 9.034-4.055.995 1.48 1.314 2.151 3.13 3.7.412.234.928.177 1.28-.142v.07c1.092-.996 3.079-2.808 4.196-3.769.447-.373.349-.988 0-1.493-.999-1.416-2.062-2.558-2.062-5.192v-8.75c0-3.705.314-7.122-2.346-9.673-2.101-2.065-5.598-2.775-8.256-2.775zm71.7 0c-5.208 0-11.014 2.005-12.234 8.606-.13.701.332 1.036.783 1.138l5.335.64c.494-.025.831-.562.925-1.067.457-2.272 2.324-3.344 4.41-3.344 1.13 0 2.393.387 3.06 1.422.762 1.154.64 2.723.64 4.054v.783c-3.171.364-7.273.585-10.243 1.921-3.428 1.523-5.832 4.621-5.832 9.176 0 5.836 3.578 8.75 8.18 8.75 3.884 0 6.032-.913 9.035-4.055.992 1.48 1.313 2.151 3.13 3.7.41.218.917.195 1.279-.142v.07c1.092-.996 3.08-2.808 4.197-3.769.444-.373.341-.988 0-1.493-1-1.416-2.062-2.558-2.062-5.192v-8.75c0-3.705.239-7.122-2.418-9.673-2.103-2.065-5.526-2.775-8.185-2.775zm-40.332.285c-3.364 0-5.859 1.698-7.184 5.335h-.07v-3.77a1.074 1.074 0 0 0-.997-.996h-5.121a1.083 1.083 0 0 0-1.068 1.067v28.807c.05.529.469.947.997.997h5.476a1.079 1.079 0 0 0 1.068-1.067V52.824c0-3.335-.162-7.896 3.77-7.896 3.88 0 3.343 4.686 3.343 7.896v15.294c0 .544.444 1.03.997 1.067h5.476a1.079 1.079 0 0 0 1.068-1.067V52.824c0-1.637-.066-4.02.498-5.477.563-1.457 1.944-2.417 3.274-2.417 1.584 0 2.792.553 3.2 2.49.255 1.152.14 4.195.14 5.406V68.12c0 .544.445 1.031.998 1.067h5.476a1.079 1.079 0 0 0 1.068-1.067V49.91c0-3.092.312-6.605-1.423-9.033-1.532-2.18-4.035-3.13-6.33-3.13-3.218 0-6.211 1.698-7.538 5.336-1.534-3.638-3.697-5.338-7.118-5.338zm93.112 0c-7.914 0-12.305 6.958-12.305 15.933 0 8.913 4.343 16.074 12.305 16.074 7.66 0 12.52-6.997 12.52-15.792 0-9.09-4.403-16.215-12.52-16.215zm31.225 0c-3.78 0-5.94 1.891-7.468 5.831h-.07v-4.411c-.098-.446-.52-.756-.998-.783h-5.05a1.052 1.052 0 0 0-1.068.924v28.807c.01.558.44 1.019.997 1.068h5.406a1.083 1.083 0 0 0 1.067-1.068V52.608c0-1.944.164-3.717.925-5.476.614-1.396 1.8-2.277 3.13-2.277 3.773 0 3.414 4.6 3.414 7.753v15.65c.072.504.488.89.997.923h5.476c.537 0 1.004-.41 1.068-.924V50.118c0-2.788.006-6.662-1.423-8.963-1.532-2.484-3.956-3.41-6.403-3.41zm-65.725.498c-.555 0-.995.442-.997 1.068v4.124c.002.617.428 1.063.997 1.067h9.39l-10.742 15.864c-.655 1.022-.71 2.18-.71 2.845v4.197c0 .605.658 1.263 1.28.924 6.12-3.341 13.456-3.045 18.991-.07.672.366 1.352-.321 1.352-.925v-4.41a1.871 1.871 0 0 0-.997-1.567c-3.14-1.807-6.787-2.36-10.243-2.276l9.319-13.657c.863-1.227 1.345-1.967 1.352-2.56V39.31c0-.612-.419-1.068-.997-1.068h-17.995zm34.5 5.406c1.734 0 3.014.774 3.628 2.775.71 2.306.783 5.185.783 7.611 0 3.697-.173 9.815-4.411 9.815-4.286 0-4.268-7.575-4.268-11.096 0-3.512.235-9.105 4.268-9.105zM89.281 54.176v1.209c0 2.187.08 4.028-.997 5.975-.87 1.582-2.235 2.56-3.77 2.56-2.093 0-3.343-1.698-3.343-4.124.002-4.785 4.159-5.62 8.11-5.62zm71.7 0v1.209c0 2.187.08 4.028-.997 5.975-.87 1.582-2.228 2.56-3.77 2.56-2.096 0-3.343-1.698-3.343-4.124.002-4.785 4.154-5.62 8.11-5.62zM196.466 70.11v4.123h2.775V70.11h-2.775zm-80.449.71v29.375h2.56v-2.631c.547 1.042 1.168 1.823 1.922 2.347.751.523 1.614.783 2.56.783 1.88 0 3.504-.96 4.908-2.916 1.404-1.955 2.135-4.79 2.135-8.395 0-2.36-.303-4.315-.924-5.975-.621-1.654-1.452-2.886-2.49-3.698-1.038-.813-2.217-1.28-3.485-1.28a4.552 4.552 0 0 0-2.49.71c-.74.474-1.338 1.246-1.921 2.206V70.82h-2.775zm26.32 6.9c-1.931 0-3.463.572-4.553 1.708-1.09 1.133-1.637 2.597-1.637 4.411 0 1.054.237 1.944.64 2.775.403.83.983 1.497 1.707 1.991.728.494 2.18 1.143 4.338 1.849 1.493.48 2.386.89 2.775 1.208.564.467.853 1.08.853 1.921 0 .975-.336 1.787-.997 2.418-.657.635-1.572.924-2.774.924s-2.192-.337-2.916-1.068c-.724-.73-1.115-1.841-1.28-3.343l-2.774.569c.626 4.563 2.902 6.83 6.829 6.828 2.094 0 3.696-.594 4.907-1.848s1.848-2.948 1.848-4.98c0-1.098-.193-2.05-.569-2.846a4.49 4.49 0 0 0-1.566-1.848c-.676-.46-2.183-1.074-4.482-1.848-1.67-.585-2.65-1.013-2.986-1.28-.567-.45-.853-1.065-.853-1.848 0-.801.264-1.48.853-1.991.59-.513 1.498-.783 2.704-.783 2.122 0 3.308 1.165 3.556 3.484l2.704-.428c-.187-1.468-.508-2.626-.997-3.414-.49-.787-1.213-1.452-2.135-1.921-.92-.467-1.978-.64-3.196-.64zm17 0c-2.224 0-4.1.916-5.55 2.846s-2.134 4.725-2.134 8.394c0 3.535.698 6.305 2.135 8.181 1.436 1.873 3.298 2.775 5.62 2.775 1.846 0 3.375-.553 4.623-1.707 1.25-1.154 2.155-2.852 2.63-5.122l-2.844-.498c-.817 2.906-2.324 4.333-4.412 4.338-1.329 0-2.415-.564-3.343-1.778-.929-1.215-1.455-3.018-1.566-5.406h12.234v-.996c0-3.59-.715-6.285-2.135-8.181-1.416-1.896-3.14-2.845-5.258-2.845zm16.857 0c-.665 0-1.245.226-1.778.71-.532.486-1.138 1.492-1.777 2.987v-3.273h-2.49v21.269h2.774V88.319c0-1.548.146-3.036.499-4.411.2-.788.578-1.41 1.067-1.848.49-.44 1.047-.64 1.637-.64.653 0 1.302.262 1.992.783l.924-3.344c-.97-.774-1.92-1.138-2.848-1.138zm34 0c-2.197 0-4.007.925-5.407 2.775-1.395 1.849-2.135 4.626-2.135 8.322 0 3.667.747 6.446 2.135 8.322 1.386 1.873 3.12 2.774 5.263 2.774 1.768 0 3.289-.657 4.552-1.991 1.263-1.334 2.033-3.296 2.347-5.832l-2.704-.428c-.2 1.814-.674 3.119-1.423 3.984-.749.86-1.65 1.279-2.704 1.279-1.343 0-2.486-.626-3.344-1.921-.858-1.295-1.279-3.367-1.279-6.26 0-2.804.453-4.828 1.352-6.118.9-1.29 2.044-1.992 3.414-1.992.915 0 1.696.355 2.347 1.068.656.71 1.09 1.839 1.352 3.273l2.704-.57c-.325-2.24-1.045-3.93-2.205-5.05-1.161-1.122-2.57-1.634-4.266-1.634zm15.862 0c-2.224 0-4.1.916-5.55 2.846-1.45 1.93-2.134 4.725-2.134 8.394 0 3.535.698 6.305 2.135 8.181 1.438 1.873 3.298 2.775 5.62 2.775 1.841 0 3.373-.553 4.623-1.707 1.247-1.154 2.153-2.852 2.63-5.122l-2.844-.498c-.817 2.906-2.258 4.333-4.339 4.338-1.33 0-2.485-.564-3.414-1.778-.929-1.215-1.452-3.018-1.566-5.406h12.234v-.996c0-3.59-.715-6.285-2.135-8.181-1.411-1.896-3.139-2.845-5.26-2.845zm16.432 0c-1.935 0-3.462.572-4.552 1.708-1.093 1.133-1.637 2.597-1.637 4.411 0 1.054.166 1.944.57 2.775.4.828.978 1.497 1.706 1.991.724.494 2.183 1.143 4.339 1.849 1.488.48 2.456.89 2.845 1.208.564.467.853 1.08.853 1.921 0 .975-.337 1.787-.997 2.418-.655.635-1.572.924-2.774.924-1.204 0-2.192-.337-2.916-1.068-.724-.73-1.19-1.841-1.352-3.343l-2.775.569c.626 4.563 2.898 6.83 6.829 6.828 2.096 0 3.767-.594 4.98-1.848 1.213-1.254 1.848-2.948 1.848-4.98 0-1.098-.193-2.05-.569-2.846s-.96-1.386-1.636-1.848c-.674-.46-2.113-1.074-4.412-1.848-1.67-.585-2.72-1.013-3.059-1.28-.567-.45-.853-1.065-.853-1.848 0-.801.334-1.48.924-1.991.59-.513 1.502-.783 2.704-.783 2.121 0 3.307 1.165 3.555 3.484l2.704-.428c-.188-1.468-.505-2.626-.997-3.414a5.322 5.322 0 0 0-2.135-1.921c-.912-.467-1.978-.64-3.193-.64zm-63.448.426 6.189 21.27h2.631l6.19-21.27h-2.846l-3.628 13.017c-.44 1.573-.827 2.932-1.068 4.054-.302-1.413-.592-2.897-.997-4.338l-3.555-12.733h-2.916zm17.426 0v21.27h2.775v-21.27h-2.775zm-91.188.285c-2.201 0-3.972.988-5.406 2.916-1.436 1.93-2.205 4.725-2.205 8.394 0 3.535.71 6.235 2.135 8.108s3.32 2.845 5.62 2.845c1.825 0 3.316-.624 4.552-1.778 1.234-1.154 2.087-2.852 2.56-5.121l-2.774-.428c-.808 2.907-2.276 4.334-4.338 4.338-1.318 0-2.425-.564-3.344-1.777-.92-1.216-1.455-3.018-1.566-5.406h12.09l.071-.997c0-3.59-.728-6.355-2.135-8.251s-3.164-2.843-5.26-2.843zm-31.227.498 4.98 21.27h2.916l3.273-16.362.57 3.629 2.63 12.733h2.846l5.05-21.27h-2.63L90.91 91.236l-.925 4.124-.853-4.124-2.417-12.305H83.87l-2.56 12.448-.854 4.41-.997-4.552-2.56-12.305H74.05v-.002zm177.04.214v.997h2.704v7.113h1.068V80.14h2.704v-.997h-6.476zm7.541 0v8.108h.997v-6.9l2.347 6.9h.997l2.346-6.758v6.758h1.068v-8.108h-1.493l-1.921 5.69c-.194.57-.333.982-.428 1.28l-.428-1.209-1.921-5.76h-1.564zm-99.371 1.493c1.382 0 2.52.67 3.414 1.992.615.906 1.013 2.285 1.138 4.125h-9.175c.087-1.867.615-3.308 1.493-4.412s1.89-1.705 3.13-1.705zm66.722 0c1.377 0 2.52.67 3.414 1.992.615.906 1.013 2.285 1.138 4.125h-9.175c.087-1.867.615-3.308 1.493-4.412.877-1.099 1.887-1.705 3.13-1.705zm-120.71.783c1.366 0 2.463.67 3.344 1.992.607.906 1.013 2.285 1.138 4.125h-9.034c.086-1.867.548-3.378 1.422-4.482.868-1.102 1.899-1.635 3.13-1.635zm17.64 0c1.234 0 2.283.686 3.13 1.992.846 1.309 1.208 3.326 1.208 6.119 0 2.72-.4 4.748-1.279 6.118s-1.925 2.062-3.06 2.062c-.832 0-1.59-.28-2.275-.853-.688-.574-1.19-1.396-1.566-2.49s-.57-2.78-.57-4.98c0-2.593.463-4.535 1.353-5.905.89-1.37 1.925-2.062 3.059-2.062zM34.186 58.87 23.588 63.42l9.815 4.198 11.381-4.198-10.598-4.552zm-15.933 5.69-.355 20.485 15.505 6.829V70.605l-15.15-6.045zm31.866 0-14.012 5.335v20.058l14.012-5.69V64.559zM66.835.827l-10.67 4.552 9.887 4.197 11.38-4.197L66.836.827zM52.04 6.874V27.36l13.229 3.843.428-18.637-13.657-5.69zm29.59 1.138-12.519 5.336v20.13l12.519-5.69V8.011zM16.723 29.658 6.125 34.211l9.815 4.197 11.38-4.197-10.597-4.553zM.79 35.348.435 55.836l15.505 6.828V41.394L.79 35.35zm31.866 0-14.012 5.336v20.058l14.012-5.69V35.349zm18.21-6.445-10.599 4.552 9.815 4.197 11.38-4.197-10.597-4.552zm-15.934 5.69-.355 20.486 15.505 6.829V40.642l-15.15-6.048zm31.866 0L52.786 39.93v20.058l14.012-5.69V34.592zM100.183.826 89.585 5.38 99.4 9.576l11.38-4.197L100.184.826zM84.25 6.516l-.355 20.487L99.4 33.83V12.565L84.25 6.517zm31.866 0-14.012 5.336V31.91l14.012-5.69V6.517z"/></g></svg>