<svg id="Logo" version="1.1" viewBox="0 0 320 88" xml:space="preserve" xmlns="http://www.w3.org/2000/svg"><style>.st0{fill:#7c7c7c}</style><path class="st0" d="M272.9 28.3c-3.4 0-6.8.6-10.1 1.7-.7.2-2 .8-2 .8l1.7 6 .3-.1s1.1-.4 1.8-.5c2.4-.8 4.9-1.3 7.4-1.4 2.3 0 4.1.5 5.2 1.4s1.5 2.3 1.6 4.4h-6c-4.4 0-7.9.9-10.3 2.8-2.3 1.7-3.6 4.4-3.5 7.2-.1 2.6 1 5.1 3 6.8 2 1.6 4.4 2.5 7 2.5h.4c2.3 0 4.6-.4 6.7-1.2.9-.4 1.8-.8 2.6-1.3v2.4h6.8V40.2c.1-3-1-5.9-3-8.2-2.3-2.5-5.5-3.7-9.6-3.7zm5.8 21.3c-1 1.1-2.1 2-3.4 2.6-1.3.7-2.8 1.1-4.2 1.2-3.7.2-5.8-1-5.8-3.2 0-1.2 1.2-2.2 2.4-2.6 1.9-.5 3.8-.7 5.8-.6h5.3v2.6zM240.9 28.2c-2.6-.1-5.2.5-7.5 1.7v-1.7h-7.2v40.6h7.2V58.1c2.3 1.2 4.9 1.7 7.5 1.7 4.1.2 8.2-1.4 11.1-4.4 2.8-3.1 4.3-7.2 4.2-11.4.2-4.2-1.4-8.3-4.2-11.4-2.9-2.9-6.9-4.5-11.1-4.4zm8.3 15.7c0 3.2-.9 5.6-2.7 7.2-.8.7-1.7 1.2-2.7 1.5-1.9.7-4 .7-5.9 0-1-.3-1.9-.8-2.6-1.5-.8-.8-1.5-1.8-1.9-2.8-.5-1.4-.8-2.9-.8-4.4s.2-3 .8-4.4c1.2-3.1 4.2-5.1 7.5-4.9 2-.1 4 .7 5.6 2 1.9 2 2.9 4.6 2.7 7.3zM311.8 19.1v10.8c-2.3-1.2-4.9-1.7-7.5-1.7-4.1-.2-8.2 1.4-11.1 4.4-2.8 3.1-4.3 7.2-4.2 11.4-.2 4.2 1.3 8.3 4.2 11.4 2.9 3 6.9 4.5 11.1 4.4 2.6 0 5.2-.5 7.5-1.7v1.7h7.2V19.1h-7.2zm0 29.3c-1.2 3.1-4.2 5.1-7.5 4.9-2.1.1-4-.7-5.6-2-1.9-1.9-2.9-4.5-2.7-7.2 0-3.2.9-5.6 2.7-7.2.8-.7 1.7-1.2 2.7-1.5 1.9-.7 4-.7 5.9 0 1 .3 1.9.9 2.6 1.6.8.8 1.5 1.8 1.9 2.8.5 1.4.8 2.9.8 4.3s-.2 2.9-.8 4.3zM222.9 33.8l-4.5-5.7-15.8 12.4V19.1h-7.2v40.7h7.2V49.7l3.8-3 11.3 13.2 5.5-4.7-11.1-13zM141.7 28.2c-4.8 0-8.8 1.5-11.6 4.4-2.9 3.1-4.4 7.2-4.3 11.4-.2 4.2 1.4 8.3 4.3 11.4 2.8 2.9 6.8 4.4 11.6 4.4s8.8-1.5 11.6-4.4c2.9-3.1 4.4-7.2 4.3-11.4.2-4.2-1.4-8.3-4.3-11.4-2.8-2.8-6.8-4.4-11.6-4.4zm8.6 15.7c0 3.2-1 5.6-2.8 7.2-.8.7-1.7 1.2-2.8 1.6-1.9.7-4.1.7-6 0-1-.3-1.9-.9-2.8-1.5-1.9-1.6-2.8-4.1-2.8-7.2-.2-2.7.9-5.3 2.8-7.1 3.4-2.7 8.2-2.7 11.5 0 2.1 1.7 3.1 4.4 2.9 7zM175.8 28.2c-4.8 0-8.8 1.5-11.6 4.4-2.9 3.1-4.4 7.2-4.3 11.4-.2 4.2 1.4 8.3 4.3 11.4 2.8 2.9 6.8 4.4 11.6 4.4s8.8-1.5 11.6-4.4c2.9-3.1 4.4-7.2 4.3-11.4.2-4.2-1.4-8.3-4.3-11.4-2.8-2.8-6.8-4.4-11.6-4.4zm8.6 15.7c0 3.2-1 5.6-2.8 7.2-.8.7-1.8 1.2-2.8 1.6-1.9.7-4.1.7-6 0-1-.3-1.9-.9-2.8-1.5-1.8-1.6-2.8-4.1-2.8-7.2-.2-2.7.9-5.3 2.8-7.1 3.4-2.7 8.2-2.7 11.5 0 2.1 1.7 3.1 4.4 2.9 7zM119.7 49c-1.6 1.9-3.8 3.2-6.2 3.8-.9.2-1.7.3-2.6.3-1.7 0-3.5-.4-4.9-1.4-1.1-.8-2.1-1.8-2.8-3-.7-1.5-1.1-3.1-1.1-4.8s.4-3.3 1.1-4.8c.7-1.2 1.6-2.2 2.8-3 1.5-1 3.2-1.4 4.9-1.4.9 0 1.8.1 2.6.3 2.4.6 4.5 2 6.2 3.8l.2.2 4.6-4.6c-.9-1-1.8-1.8-2.8-2.6-3.2-2.4-7.1-3.7-11.1-3.7-5-.1-9.8 2.1-12.8 6.1-2 2.8-3 6.2-2.9 9.7 0 3.4 1 6.8 2.9 9.6 3.1 4 7.8 6.2 12.8 6.1 4 0 7.9-1.3 11.1-3.7 1-.8 2-1.7 2.8-2.6l-4.7-4.6-.1.3zM44.4.6C20.4.6 1 20 1 44s19.4 43.4 43.4 43.4S87.7 68 87.7 44 68.3.6 44.4.6zm0 82.4c-21.5 0-39-17.5-39-39s17.5-39 39-39 39 17.5 39 39-17.5 39-39 39z"/><path class="st0" d="M64.5 22.6c-3 0-5.8 1-8.2 2.8-2.8-6.7-10.5-9.9-17.2-7.1-2.5 1-4.6 2.8-6 5-6.6-3-14.5-.1-17.5 6.5-.8 1.7-1.2 3.6-1.2 5.6 0 5.6 3.5 10.6 8.8 12.5L20.7 68c-.1.6.1 1.2.5 1.7s1 .7 1.6.7h36c1.1 0 2-.8 2.1-1.9l2.4-19.6c.4 0 .8.1 1.3.1 7.3 0 13.3-6 13.3-13.3s-6.1-13.1-13.4-13.1zm2.8 4.7c4.7 1.5 7.3 6.6 5.8 11.4-1.2 3.7-4.7 6.2-8.6 6.2h-.8l.3-2.4c.2-1.2-.7-2.3-1.8-2.4-1.2-.1-2.2.7-2.3 1.9 0 0-.8 7-1.7 13.6H30.7c-1.2 0-2.2 1-2.2 2.2s1 2.2 2.2 2.2h26.9c-.4 3-.7 5.4-.8 6.4H25.1l2.7-21.8h-.2c-4.9 0-8.9-4-8.9-9 0-4.9 4-8.9 9-8.9 2.7 0 5.3 1.2 6.9 3.3.2.3.5.3.6-.1.4-5 4.8-8.6 9.8-8.2 4.2.4 7.5 3.5 8.1 7.7l-.9 1.8 3.8 2c1.5-4.9 6.5-7.5 11.3-5.9z"/></svg>