<svg id="Layer_1" version="1.1" viewBox="-4.4 -0.64 228.8 33.28" xml:space="preserve" xmlns="http://www.w3.org/2000/svg"><style>.st0{fill:#7c868d}.st1{fill:#ef513e}</style><path class="st0" d="M78.6 21.2h-7.8c-.1 0-.2.1-.3.2l-1.8 5.2c0 .1-.1.2-.3.2H66c-.2 0-.3-.2-.3-.4l7.7-21.2c0-.1.1-.2.3-.2h2.1c.1 0 .2.1.3.2l7.5 21.2c.1.2-.1.4-.3.4h-2.4c-.1 0-.2-.1-.3-.2l-1.8-5.2c0-.1-.1-.2-.2-.2zm-6.8-2.4h5.8c.2 0 .3-.2.3-.4l-3-9h-.1l-3.1 9c-.2.2-.1.4.1.4zM105.3 7.4h-6.6c-.1 0-.3.1-.3.3v18.9c0 .1-.1.3-.3.3h-2.4c-.1 0-.3-.1-.3-.3V7.7c0-.1-.1-.3-.3-.3h-6.5c-.1 0-.3-.1-.3-.3V5.4c0-.1.1-.3.3-.3h16.7c.1 0 .3.1.3.3v1.8c-.1.1-.2.2-.3.2zM123.9 21.2h-7.8c-.1 0-.2.1-.3.2l-1.8 5.2c0 .1-.1.2-.3.2h-2.4c-.2 0-.3-.2-.3-.4l7.7-21.2c0-.1.1-.2.3-.2h2.1c.1 0 .2.1.3.2l7.5 21.2c.1.2-.1.4-.3.4h-2.4c-.1 0-.2-.1-.3-.2l-1.8-5.2c0-.1-.1-.2-.2-.2zm-6.8-2.4h5.8c.2 0 .3-.2.3-.4l-3-9h-.2l-3.1 9c-.1.2 0 .4.2.4zM159.7 5.4l-5.1 21.2c0 .1-.1.2-.3.2h-2.2c-.1 0-.2-.1-.3-.2l-4.6-13h-.1l-4.6 13c0 .1-.1.2-.3.2H140c-.1 0-.2-.1-.3-.2l-5.1-21.2c0-.2.1-.3.3-.3h2.6c.1 0 .2.1.3.2l3.5 16.7h.1l4.3-12.4c0-.1.1-.2.3-.2h2.3c.1 0 .2.1.3.2L153 22h.1l3.5-16.8c0-.1.1-.2.3-.2h2.7c0 .1.1.3.1.4zM171.2 26.8h-2.4c-.1 0-.3-.1-.3-.3V5.4c0-.1.1-.3.3-.3h2.4c.1 0 .3.1.3.3v21.2c0 .1-.1.2-.3.2zM193.5 17.7c-.2.1-.2.2-.2.4l4 7.9v.9h-3c-.1 0-.2-.1-.2-.2l-4-8.4c0-.1-.1-.2-.2-.2h-4.4c-.1 0-.3.1-.3.3v8.2c0 .1-.1.3-.3.3h-2.4c-.1 0-.3-.1-.3-.3V5.4c0-.1.1-.3.3-.3h8.1c4.2-.1 7.4 2.3 7.4 6.5-.1 2.9-1.6 5.2-4.5 6.1zm-8.3-2.1c0 .1.1.3.3.3h5.1c2.7.1 4.4-1.6 4.4-4.2 0-2.5-1.7-4.3-4.4-4.2h-5.1c-.1 0-.3.1-.3.3v7.8zM218.7 16.8h-8.4c-.1 0-.3.1-.3.3v7.3c0 .1.1.3.3.3h9.5c.1 0 .3.1.3.3v1.8c0 .1-.1.3-.3.3h-12.4c-.1 0-.3-.1-.3-.3V5.4c0-.1.1-.3.3-.3h12.2c.1 0 .3.1.3.3v1.8c0 .1-.1.3-.3.3h-9.3c-.1 0-.3.1-.3.3v6.5c0 .1.1.3.3.3h8.4c.1 0 .3.1.3.3v1.8c-.1-.1-.2.1-.3.1z"/><path class="st1" d="m13.8 15.2 5.7-3.3c.2-.1.2-.4 0-.5l-5.7-3.3c-.1-.1-.2-.1-.3 0l-5.7 3.3c-.2.1-.2.4 0 .5l5.6 3.3c.2.1.3.1.4 0zM22.3 11.9l4.7 2.7c.2.1.5 0 .5-.3V9c0-.2-.3-.4-.5-.3l-4.7 2.7c-.2.1-.2.4 0 .5zM.9 7.9l5.5 3.2c.1.1.2.1.3 0l5.7-3.3c.2-.1.2-.4 0-.5L6.9 4.1c-.1-.1-.2-.1-.3 0L.9 7.4c-.2.1-.2.4 0 .5zM6.5 19.4l5.7-3.3c.2-.1.2-.4 0-.5l-5.6-3.3c-.1-.1-.2-.1-.3 0L.6 15.6c-.2.1-.2.4 0 .5l5.6 3.2c.1.1.2.1.3.1zM21 19.4l5.7-3.3c.2-.1.2-.4 0-.5L21 12.3c-.1-.1-.2-.1-.3 0L15 15.5c-.2.1-.2.4 0 .5l5.7 3.3c.1.1.2.1.3.1zM5.1 11.4.5 8.7c-.2-.1-.5 0-.5.3v5.4c0 .2.3.4.5.3L5.2 12c.1-.2.1-.5-.1-.6zM15.1 7.8l5.7 3.3c.1.1.2.1.3 0L26.6 8c.2-.1.2-.4 0-.5l-5.7-3.3c-.1-.1-.2-.1-.3 0l-5.5 3.2c-.3-.1-.3.2 0 .4zM22.2 20.2l4.7 2.7c.2.1.5 0 .5-.3v-5.4c0-.2-.3-.4-.5-.3l-4.7 2.7c-.2.2-.2.5 0 .6zM13.8 6.9l5.5-3.2c.2-.1.2-.4 0-.5L13.9 0h-.4L8.1 3.2c-.2.1-.2.4 0 .5l5.5 3.2h.2zM13.4 24.8l-5.4 3c-.2.1-.2.4 0 .5l5.5 3.2c.1.1.2.1.3 0l5.3-3.1c.2-.1.2-.4 0-.5l-5.5-3.2s-.1 0-.2.1zM26.4 23.7 21 20.6c-.1-.1-.2-.1-.3 0l-5.8 3.3c-.2.1-.2.4 0 .5l5.5 3.2c.1.1.2.1.3 0l5.7-3.3c.2-.2.2-.4 0-.6zM12.2 23.9l-5.6-3.3c-.1-.1-.2-.1-.3 0L.9 23.7c-.2.1-.2.4 0 .5l5.6 3.3c.1.1.2.1.3 0l5.4-3.1c.2-.1.2-.4 0-.5zM13.5 16.4l-5.7 3.3c-.2.1-.2.4 0 .5l5.6 3.3c.1.1.2.1.3 0l5.8-3.3c.2-.1.2-.4 0-.5l-5.7-3.3h-.3zM0 17.3v5.3c0 .2.3.4.5.3L5 20.3c.2-.1.2-.4 0-.5L.4 17.2c-.1-.2-.4-.1-.4.1zM44.7 17.8V7.7c0-.1.1-.3.3-.3h3.6c2 0 3.6.5 4.8 1.6.7.7 1.2 1.7 1.5 3l2.7-1.5c-.4-1.4-1.1-2.5-2.1-3.3-1.7-1.4-4-2.1-6.8-2.1H42c-.1 0-.3.1-.3.3v14.1l3-1.7z"/><path class="st0" d="M55.1 13.9v3.6c0 2.9-.6 4.8-1.7 5.7-1.2.9-2.7 1.3-4.8 1.3H45c-.1 0-.3-.1-.3-.3v-4.5l-2.9 1.7v5.1c0 .1.1.3.3.3h6.6c2.8 0 5.1-.7 6.8-2 1.7-1.4 2.6-3.8 2.6-7.3v-3c0-.8-.1-1.6-.1-2.2l-2.9 1.6z"/></svg>