<svg width="200" height="149" xmlns="http://www.w3.org/2000/svg"><g fill="#7B7B7B" fill-rule="evenodd"><path d="M100 99.718V80.396c20.452 0 36.328-20.282 28.475-41.808-2.881-7.91-9.265-14.294-17.232-17.175-21.525-7.797-41.808 8.023-41.808 28.475H50.169c0-32.599 31.525-58.023 65.706-47.345 14.915 4.69 26.836 16.554 31.469 31.469 10.678 34.181-14.746 65.706-47.345 65.706z" fill-rule="nonzero"/><path d="M100.057 80.508H80.791V61.243h19.266zM66.046 95.254V80.508h14.745v14.746zM66.046 80.508H53.673V68.135h12.373v12.373z"/><g fill-rule="nonzero"><path d="M17.627 119.266c-2.486-1.751-5.65-2.599-9.265-2.599H.451v25.141h7.966c3.616 0 6.78-.904 9.265-2.768 1.356-.96 2.43-2.316 3.22-4.011.735-1.695 1.13-3.73 1.13-5.933s-.395-4.18-1.13-5.875c-.79-1.695-1.864-3.051-3.276-3.955zm-12.542 1.639h2.486c2.768 0 5.028.565 6.78 1.638 1.92 1.186 2.881 3.39 2.881 6.554 0 3.277-.96 5.593-2.881 6.836-1.639 1.073-3.899 1.638-6.724 1.638H5.085v-16.667zM27.514 116.328c-.791 0-1.412.283-1.977.791a2.597 2.597 0 0 0-.791 1.921c0 .791.282 1.413.79 1.978.51.508 1.187.79 1.978.79.734 0 1.412-.282 1.977-.79.509-.509.791-1.187.791-1.978 0-.79-.282-1.412-.79-1.92-.566-.509-1.244-.792-1.978-.792zM25.254 124.069h4.463v17.74h-4.463zM45.932 125.537c-1.356-1.186-2.825-1.92-4.463-1.92-2.486 0-4.52.847-6.102 2.542-1.582 1.638-2.43 3.785-2.43 6.384 0 2.486.792 4.633 2.373 6.328 1.582 1.638 3.673 2.486 6.102 2.486 1.695 0 3.22-.452 4.407-1.413v.396c0 1.469-.395 2.599-1.186 3.39-.791.79-1.865 1.186-3.22 1.186-2.035 0-3.334-.79-4.916-2.938l-3.05 2.938.056.113c.678.904 1.638 1.808 2.994 2.655 1.3.848 2.994 1.3 4.972 1.3 2.655 0 4.802-.791 6.384-2.43s2.373-3.785 2.373-6.44v-16.102h-4.407v1.525h.113zm-1.186 10.508c-.791.904-1.808 1.3-3.051 1.3-1.3 0-2.26-.452-3.051-1.3-.791-.903-1.13-2.033-1.13-3.446 0-1.469.396-2.599 1.13-3.503s1.808-1.299 3.05-1.299c1.3 0 2.26.452 3.052 1.3.79.903 1.186 2.09 1.186 3.502s-.395 2.543-1.186 3.447zM54.124 124.069h4.463v17.74h-4.463zM56.384 116.328c-.791 0-1.412.283-1.977.791a2.597 2.597 0 0 0-.791 1.921c0 .791.282 1.413.79 1.978.51.508 1.187.79 1.978.79.734 0 1.412-.282 1.977-.79.509-.509.791-1.187.791-1.978 0-.79-.282-1.412-.79-1.92-.566-.509-1.187-.792-1.978-.792zM68.362 119.266h-4.407v4.803h-2.542v4.067h2.542v7.345c0 2.316.452 3.955 1.356 4.915s2.542 1.413 4.802 1.413c.735 0 1.47 0 2.147-.057h.226v-4.068l-1.525.057c-1.074 0-1.752-.17-2.09-.565-.34-.396-.509-1.186-.509-2.373v-6.723h4.18v-4.068h-4.18v-4.746zM93.446 116.611h4.463v25.198h-4.463zM142.99 135.481c-.791.904-1.638 1.695-2.26 2.09-.621.396-1.412.622-2.316.622-1.3 0-2.373-.452-3.22-1.469-.848-.96-1.3-2.26-1.3-3.729 0-1.525.452-2.768 1.3-3.729s1.92-1.469 3.22-1.469c1.412 0 2.938.904 4.237 2.43l2.938-2.825c-1.921-2.486-4.35-3.672-7.288-3.672-2.43 0-4.576.904-6.328 2.655-1.751 1.751-2.599 3.955-2.599 6.61 0 2.656.904 4.86 2.6 6.61 1.75 1.752 3.84 2.656 6.327 2.656 3.22 0 5.819-1.413 7.627-3.955l-2.938-2.825zM161.36 126.554c-.621-.904-1.469-1.582-2.542-2.09-1.074-.509-2.317-.791-3.673-.791-2.486 0-4.52.904-6.045 2.712-1.469 1.807-2.26 4.01-2.26 6.666 0 2.712.848 4.916 2.43 6.61 1.638 1.695 3.785 2.543 6.44 2.543 2.995 0 5.48-1.243 7.345-3.616l.113-.113-2.938-2.825c-.282.34-.678.678-1.017 1.017-.452.396-.847.735-1.3.96-.677.34-1.412.509-2.26.509-1.242 0-2.26-.339-3.05-1.073-.734-.678-1.186-1.582-1.3-2.712h11.809l.056-1.639c0-1.13-.17-2.26-.452-3.277a9.594 9.594 0 0 0-1.356-2.88zm-9.774 4.18c.226-.847.621-1.581 1.186-2.09.622-.621 1.413-.904 2.317-.904 1.073 0 1.92.283 2.486.904.508.565.847 1.243.904 2.09h-6.893zM178.47 125.424c-1.356-1.13-3.22-1.75-5.537-1.75a9.226 9.226 0 0 0-4.124.96c-1.186.565-2.316 1.581-3.05 2.824l.056.057 2.881 2.712c1.186-1.865 2.486-2.543 4.237-2.543.96 0 1.695.226 2.317.735.565.508.904 1.13.904 1.92v.848c-1.13-.339-2.204-.508-3.277-.508-2.203 0-4.011.508-5.367 1.525-1.356 1.017-2.034 2.543-2.034 4.463 0 1.695.565 2.995 1.751 4.012 1.187.96 2.6 1.469 4.294 1.469 1.695 0 3.277-.678 4.746-1.865v1.47h4.407V130.34c-.17-2.09-.848-3.785-2.204-4.915zm-7.91 9.605c.509-.339 1.243-.508 2.147-.508 1.074 0 2.204.226 3.39.621v1.751c-.96.904-2.26 1.356-3.842 1.356-.79 0-1.356-.17-1.808-.508-.395-.34-.621-.735-.621-1.3 0-.621.226-1.073.734-1.412zM197.68 125.763c-1.243-1.412-2.994-2.09-5.198-2.09-1.751 0-3.22.509-4.293 1.525v-1.073h-4.35v17.684h4.463v-9.774c0-1.356.338-2.43.96-3.164.621-.734 1.469-1.13 2.655-1.13 1.017 0 1.752.34 2.317 1.017s.847 1.639.847 2.769v10.282h4.464v-10.282c0-2.43-.622-4.407-1.865-5.763zM87.853 125.424c-1.356-1.13-3.22-1.75-5.537-1.75a9.226 9.226 0 0 0-4.124.96c-1.186.565-2.316 1.581-3.05 2.824l.056.057 2.881 2.712c1.186-1.865 2.486-2.543 4.237-2.543.96 0 1.695.226 2.317.735.565.508.904 1.13.904 1.92v.848c-1.13-.339-2.204-.508-3.277-.508-2.203 0-4.011.508-5.367 1.525-1.356 1.017-2.034 2.543-2.034 4.463 0 1.695.565 2.995 1.751 4.012 1.187.96 2.6 1.469 4.294 1.469s3.277-.678 4.746-1.865v1.47h4.407V130.34c-.17-2.09-.848-3.785-2.204-4.915zm-7.91 9.605c.509-.339 1.243-.508 2.147-.508 1.074 0 2.204.226 3.39.621v1.751c-.96.904-2.26 1.356-3.842 1.356-.79 0-1.356-.17-1.808-.508-.395-.34-.621-.735-.621-1.3 0-.621.226-1.073.734-1.412zM114.12 142.204c-7.175 0-12.994-5.82-12.994-12.994 0-7.175 5.82-12.994 12.994-12.994s12.994 5.82 12.994 12.994c0 7.175-5.82 12.994-12.994 12.994zm0-21.412c-4.633 0-8.418 3.785-8.418 8.418 0 4.633 3.785 8.418 8.418 8.418 4.633 0 8.418-3.785 8.418-8.418 0-4.633-3.785-8.418-8.418-8.418z"/></g></g></svg>