<svg xmlns="http://www.w3.org/2000/svg" xmlns:xlink="http://www.w3.org/1999/xlink" width="1200" zoomAndPan="magnify" viewBox="0 0 900 506.249968" height="675" preserveAspectRatio="xMidYMid meet" version="1.0"><defs><g/><clipPath id="3d25380af1"><path d="M 448 194 L 877.539062 194 L 877.539062 320 L 448 320 Z M 448 194 " clip-rule="nonzero"/></clipPath></defs><path fill="#b31aab" d="M 121.097656 254.242188 L 121.628906 276.644531 L 145.1875 291.195312 L 144.65625 268.796875 Z M 178.625 347.199219 L 178.09375 325.328125 L 157.449219 312.539062 C 157.183594 312.363281 156.832031 312.097656 156.566406 311.921875 L 157.097656 333.882812 Z M 105.042969 376.742188 L 51.132812 343.316406 L 49.8125 287.316406 L 76.191406 275.9375 L 75.660156 253.539062 L 33.488281 271.707031 C 30.222656 273.117188 28.285156 276.117188 28.371094 279.554688 L 29.960938 346.757812 C 30.046875 350.195312 32.164062 353.636719 35.519531 355.664062 L 100.1875 395.703125 C 103.1875 397.554688 106.804688 398.085938 109.894531 397.117188 C 110.246094 397.027344 110.511719 396.9375 110.777344 396.761719 L 150.480469 379.652344 L 128.953125 366.335938 Z M 279.203125 252.921875 C 279.117188 248.863281 276.644531 244.894531 272.765625 242.515625 L 194.328125 193.917969 L 191.945312 194.976562 L 192.476562 218.527344 L 254.589844 256.976562 L 256.089844 319.945312 L 279.820312 334.675781 L 281.144531 334.144531 Z M 279.203125 252.921875 " fill-opacity="1" fill-rule="nonzero"/><path fill="#d163ce" d="M 185.242188 363.425781 L 112.363281 318.269531 L 110.601562 242.425781 L 143.773438 228.136719 L 143.15625 202.035156 L 91.632812 224.257812 C 87.835938 225.933594 85.542969 229.375 85.632812 233.429688 L 87.75 322.328125 C 87.835938 326.386719 90.308594 330.355469 94.191406 332.734375 L 179.59375 385.652344 C 183.125 387.855469 187.359375 388.382812 190.886719 387.324219 C 191.242188 387.238281 191.59375 387.0625 191.945312 386.886719 L 242.414062 365.101562 L 217.355469 349.578125 Z M 185.242188 363.425781 " fill-opacity="1" fill-rule="nonzero"/><path fill="#e13eaf" d="M 390.285156 190.746094 L 280.703125 122.835938 C 276.644531 120.367188 271.882812 119.660156 267.734375 120.984375 C 267.292969 121.074219 266.941406 121.25 266.5 121.425781 L 159.65625 167.460938 C 155.332031 169.3125 152.683594 173.28125 152.863281 177.957031 L 155.507812 291.902344 C 155.597656 296.488281 158.417969 301.074219 162.832031 303.808594 L 272.410156 371.628906 C 276.46875 374.097656 281.234375 374.804688 285.378906 373.480469 C 285.820312 373.390625 286.175781 373.214844 286.617188 373.039062 L 393.460938 327.003906 C 397.78125 325.152344 400.339844 321.183594 400.253906 316.507812 L 397.605469 202.5625 C 397.519531 197.976562 394.695312 193.480469 390.285156 190.746094 Z M 278.941406 346.226562 L 183.742188 287.226562 L 181.359375 188.277344 L 274.261719 148.234375 L 369.460938 207.238281 L 371.84375 306.1875 Z M 278.941406 346.226562 " fill-opacity="1" fill-rule="nonzero"/><g clip-path="url(#3d25380af1)"><path fill="#4a2365" d="M 514.5 230.726562 C 514.386719 227.28125 513.835938 224.125 512.855469 221.253906 C 511.875 218.382812 510.398438 215.890625 508.4375 213.765625 C 506.46875 211.640625 504.015625 209.972656 501.070312 208.769531 C 498.125 207.566406 494.683594 206.960938 490.757812 206.960938 C 486.945312 206.960938 483.449219 207.679688 480.273438 209.113281 C 477.09375 210.550781 474.40625 212.414062 472.210938 214.710938 C 470.042969 216.960938 468.339844 219.515625 467.101562 222.375 C 465.886719 225.1875 465.28125 227.972656 465.28125 230.726562 Z M 465.28125 243.125 C 465.28125 246.683594 466.0625 249.929688 467.621094 252.855469 C 469.160156 255.765625 471.210938 258.265625 473.773438 260.347656 C 476.3125 262.414062 479.257812 264.019531 482.613281 265.167969 C 485.980469 266.324219 489.445312 266.898438 493.011719 266.890625 C 497.863281 266.890625 502.078125 265.773438 505.664062 263.53125 C 509.242188 261.292969 512.535156 258.339844 515.542969 254.664062 L 527.324219 263.617188 C 518.660156 274.753906 506.527344 280.324219 490.929688 280.324219 C 484.460938 280.324219 478.59375 279.230469 473.339844 277.050781 C 468.082031 274.871094 463.632812 271.855469 459.996094 268.007812 C 456.355469 264.164062 453.550781 259.628906 451.589844 254.40625 C 449.625 249.179688 448.644531 243.527344 448.644531 237.441406 C 448.644531 231.355469 449.710938 225.703125 451.851562 220.480469 C 453.984375 215.257812 456.933594 210.722656 460.6875 206.875 C 464.441406 203.03125 468.921875 200.015625 474.121094 197.832031 C 479.316406 195.652344 484.980469 194.5625 491.105469 194.5625 C 498.382812 194.5625 504.535156 195.824219 509.5625 198.351562 C 514.589844 200.878906 518.71875 204.175781 521.953125 208.253906 C 525.1875 212.328125 527.527344 216.921875 528.972656 222.027344 C 530.417969 227.125 531.140625 232.320312 531.140625 237.613281 L 531.140625 243.125 Z M 544.652344 196.628906 L 560.25 196.628906 L 560.25 209.199219 L 560.597656 209.199219 C 562.558594 204.835938 565.972656 201.308594 570.820312 198.609375 C 575.675781 195.910156 581.277344 194.5625 587.632812 194.5625 C 591.5625 194.5625 595.347656 195.164062 598.984375 196.371094 C 602.625 197.578125 605.800781 199.441406 608.515625 201.964844 C 611.230469 204.492188 613.398438 207.734375 615.015625 211.699219 C 616.632812 215.65625 617.445312 220.335938 617.445312 225.730469 L 617.445312 278.257812 L 601.84375 278.257812 L 601.84375 230.039062 C 601.84375 226.246094 601.324219 223.003906 600.285156 220.308594 C 599.246094 217.613281 597.859375 215.429688 596.125 213.765625 C 594.410156 212.101562 592.417969 210.898438 590.144531 210.148438 C 587.867188 209.394531 585.53125 209.019531 583.128906 209.027344 C 579.890625 209.027344 576.886719 209.542969 574.113281 210.578125 C 571.339844 211.609375 568.917969 213.246094 566.835938 215.484375 C 564.753906 217.722656 563.136719 220.566406 561.984375 224.007812 C 560.828125 227.457031 560.25 231.53125 560.25 236.238281 L 560.25 278.257812 L 544.652344 278.257812 L 544.652344 196.628906 M 622.457031 196.628906 L 640.496094 196.628906 L 665.105469 259.144531 L 688.675781 196.628906 L 705.304688 196.628906 L 673.070312 278.246094 L 655.910156 278.246094 L 622.457031 196.628906 M 722.992188 237.441406 C 722.992188 241.578125 723.625 245.390625 724.898438 248.894531 C 726.167969 252.398438 727.960938 255.378906 730.273438 257.851562 C 732.582031 260.316406 735.410156 262.269531 738.761719 263.703125 C 742.113281 265.140625 745.867188 265.855469 750.027344 265.855469 C 754.1875 265.855469 757.941406 265.140625 761.292969 263.703125 C 764.644531 262.269531 767.472656 260.316406 769.785156 257.851562 C 772.09375 255.378906 773.882812 252.398438 775.160156 248.894531 C 776.429688 245.390625 777.066406 241.578125 777.066406 237.441406 C 777.066406 233.308594 776.429688 229.492188 775.160156 225.992188 C 773.882812 222.488281 772.09375 219.503906 769.785156 217.035156 C 767.472656 214.566406 764.644531 212.617188 761.292969 211.179688 C 757.941406 209.746094 754.1875 209.027344 750.027344 209.027344 C 745.867188 209.027344 742.113281 209.746094 738.761719 211.179688 C 735.410156 212.617188 732.582031 214.566406 730.273438 217.035156 C 727.960938 219.503906 726.167969 222.488281 724.898438 225.992188 C 723.625 229.492188 722.992188 233.308594 722.992188 237.441406 Z M 706.355469 237.441406 C 706.355469 231.472656 707.480469 225.90625 709.734375 220.738281 C 711.984375 215.570312 715.078125 211.039062 719.003906 207.132812 C 722.933594 203.230469 727.554688 200.160156 732.871094 197.917969 C 738.183594 195.679688 743.902344 194.5625 750.027344 194.5625 C 756.148438 194.5625 761.871094 195.679688 767.1875 197.917969 C 772.5 200.160156 777.121094 203.230469 781.054688 207.132812 C 785.019531 211.078125 788.109375 215.613281 790.324219 220.738281 C 792.574219 225.90625 793.703125 231.472656 793.703125 237.441406 C 793.703125 243.410156 792.574219 249.007812 790.324219 254.234375 C 788.070312 259.460938 784.976562 263.992188 781.054688 267.839844 C 777.121094 271.683594 772.5 274.726562 767.1875 276.964844 C 761.871094 279.203125 756.148438 280.324219 750.027344 280.324219 C 743.902344 280.324219 738.183594 279.203125 732.871094 276.964844 C 727.554688 274.726562 722.933594 271.683594 719.003906 267.839844 C 715.078125 263.992188 711.984375 259.460938 709.734375 254.234375 C 707.480469 249.007812 706.355469 243.410156 706.355469 237.441406 Z M 794.914062 196.628906 L 812.941406 196.628906 L 837.265625 260.347656 L 837.613281 260.347656 L 860.949219 196.628906 L 877.585938 196.628906 L 838.589844 295.820312 C 837.316406 299.136719 835.878906 302.378906 834.273438 305.550781 C 832.78125 308.476562 830.996094 310.976562 828.925781 313.042969 C 826.851562 315.109375 824.351562 316.714844 821.414062 317.863281 C 818.480469 319.007812 814.886719 319.585938 810.628906 319.585938 C 808.328125 319.585938 805.996094 319.441406 803.640625 319.152344 C 801.28125 318.871094 799.007812 318.269531 796.820312 317.347656 L 798.71875 303.226562 C 801.816406 304.488281 804.914062 305.121094 808.015625 305.121094 C 810.425781 305.121094 812.464844 304.800781 814.128906 304.171875 C 815.765625 303.5625 817.199219 302.644531 818.433594 301.417969 C 819.667969 300.171875 820.675781 298.765625 821.449219 297.199219 C 822.25 295.589844 823.054688 293.753906 823.859375 291.6875 L 828.910156 278.773438 L 794.914062 196.628906 " fill-opacity="1" fill-rule="evenodd"/></g><path fill="#a53995" d="M 553.039062 351.578125 C 553.039062 357.296875 551.574219 361.636719 548.652344 364.609375 C 545.726562 367.578125 541.5 369.0625 535.957031 369.0625 C 532.875 369.0625 530.097656 368.613281 527.617188 367.722656 C 525.140625 366.832031 522.785156 365.285156 520.554688 363.097656 L 524.304688 358.808594 C 525.957031 360.59375 527.707031 361.949219 529.558594 362.859375 C 531.410156 363.773438 533.542969 364.238281 535.957031 364.238281 C 538.375 364.238281 540.210938 363.890625 541.75 363.203125 C 543.289062 362.507812 544.507812 361.566406 545.398438 360.390625 C 546.292969 359.207031 546.917969 357.855469 547.273438 356.339844 C 547.625 354.820312 547.808594 353.234375 547.808594 351.578125 L 547.808594 347.5625 L 547.671875 347.5625 C 546.421875 349.570312 544.792969 351.050781 542.785156 351.980469 C 540.777344 352.921875 538.722656 353.390625 536.625 353.390625 C 534.167969 353.390625 531.914062 352.988281 529.859375 352.1875 C 527.800781 351.382812 526.039062 350.265625 524.570312 348.835938 C 523.097656 347.40625 521.953125 345.710938 521.152344 343.742188 C 520.347656 341.777344 519.945312 339.636719 519.945312 337.308594 C 519.945312 334.761719 520.347656 332.460938 521.152344 330.414062 C 521.953125 328.355469 523.085938 326.628906 524.535156 325.226562 C 525.984375 323.816406 527.742188 322.734375 529.789062 321.976562 C 531.847656 321.222656 534.121094 320.839844 536.625 320.839844 C 537.695312 320.839844 538.769531 320.964844 539.835938 321.207031 C 540.90625 321.453125 541.949219 321.835938 542.957031 322.34375 C 543.964844 322.855469 544.863281 323.507812 545.664062 324.285156 C 546.46875 325.070312 547.140625 325.972656 547.671875 326.996094 L 547.808594 326.996094 L 547.808594 321.636719 L 553.03125 321.636719 L 553.03125 351.578125 Z M 525.578125 337.316406 C 525.578125 338.921875 525.871094 340.40625 526.449219 341.769531 C 527.027344 343.132812 527.824219 344.316406 528.824219 345.316406 C 529.832031 346.324219 531.003906 347.113281 532.34375 347.691406 C 533.683594 348.269531 535.113281 348.5625 536.632812 348.5625 C 538.414062 348.5625 540 348.25 541.390625 347.625 C 542.773438 346.996094 543.941406 346.160156 544.910156 345.113281 C 545.871094 344.0625 546.597656 342.859375 547.085938 341.496094 C 547.578125 340.136719 547.824219 338.691406 547.824219 337.171875 C 547.824219 335.476562 547.558594 333.925781 547.019531 332.515625 C 546.480469 331.109375 545.726562 329.894531 544.746094 328.867188 C 543.765625 327.839844 542.582031 327.050781 541.199219 326.492188 C 539.816406 325.933594 538.300781 325.652344 536.644531 325.652344 C 534.992188 325.652344 533.488281 325.953125 532.125 326.558594 C 530.765625 327.160156 529.601562 327.988281 528.640625 329.039062 C 527.679688 330.085938 526.929688 331.320312 526.394531 332.722656 C 525.855469 334.128906 525.589844 335.65625 525.589844 337.308594 Z M 525.578125 337.316406 " fill-opacity="1" fill-rule="nonzero"/><path fill="#a53995" d="M 562.28125 325.660156 C 563.886719 324.007812 565.800781 322.792969 568.007812 322.011719 C 570.21875 321.230469 572.457031 320.839844 574.738281 320.839844 C 579.382812 320.839844 582.730469 321.9375 584.785156 324.121094 C 586.84375 326.308594 587.871094 329.636719 587.871094 334.101562 L 587.871094 347.570312 C 587.871094 348.460938 587.910156 349.386719 588.007812 350.347656 C 588.09375 351.308594 588.210938 352.191406 588.339844 352.996094 L 583.316406 352.996094 C 583.140625 352.28125 583.039062 351.492188 583.015625 350.621094 C 582.996094 349.75 582.984375 348.980469 582.984375 348.3125 L 582.847656 348.3125 C 581.820312 349.917969 580.445312 351.238281 578.726562 352.265625 C 577.007812 353.296875 574.945312 353.804688 572.535156 353.804688 C 570.925781 353.804688 569.414062 353.609375 568.015625 353.199219 C 566.605469 352.796875 565.378906 352.207031 564.332031 351.421875 C 563.28125 350.640625 562.445312 349.671875 561.820312 348.507812 C 561.191406 347.34375 560.878906 346.011719 560.878906 344.492188 C 560.878906 341.90625 561.546875 339.871094 562.886719 338.398438 C 564.230469 336.929688 565.890625 335.832031 567.878906 335.117188 C 569.867188 334.402344 572.007812 333.960938 574.308594 333.777344 C 576.613281 333.597656 578.722656 333.511719 580.640625 333.511719 L 582.648438 333.511719 L 582.648438 332.570312 C 582.648438 330.289062 581.96875 328.574219 580.605469 327.410156 C 579.246094 326.246094 577.332031 325.667969 574.882812 325.667969 C 573.1875 325.667969 571.519531 325.945312 569.890625 326.503906 C 568.257812 327.0625 566.824219 327.921875 565.570312 329.085938 L 562.289062 325.667969 Z M 577.414062 337.914062 C 574.066406 337.914062 571.410156 338.386719 569.441406 339.324219 C 567.476562 340.265625 566.496094 341.804688 566.496094 343.949219 C 566.496094 345.914062 567.15625 347.3125 568.46875 348.136719 C 569.785156 348.957031 571.425781 349.375 573.390625 349.375 C 574.910156 349.375 576.238281 349.117188 577.375 348.605469 C 578.511719 348.09375 579.464844 347.414062 580.21875 346.5625 C 580.980469 345.710938 581.558594 344.71875 581.960938 343.582031 C 582.363281 342.441406 582.589844 341.226562 582.628906 339.929688 L 582.628906 337.921875 L 577.40625 337.921875 Z M 577.414062 337.914062 " fill-opacity="1" fill-rule="nonzero"/><path fill="#a53995" d="M 614.589844 326.0625 L 605.34375 326.0625 L 605.34375 341.734375 C 605.34375 342.761719 605.367188 343.710938 605.414062 344.582031 C 605.453125 345.453125 605.636719 346.207031 605.949219 346.855469 C 606.265625 347.5 606.734375 348.019531 607.359375 348.394531 C 607.988281 348.773438 608.878906 348.964844 610.042969 348.964844 C 610.796875 348.964844 611.582031 348.878906 612.382812 348.699219 C 613.1875 348.523438 613.949219 348.25 614.664062 347.898438 L 614.863281 352.65625 C 613.96875 353.058594 612.976562 353.351562 611.878906 353.527344 C 610.785156 353.703125 609.75 353.792969 608.761719 353.792969 C 606.890625 353.792969 605.394531 353.546875 604.277344 353.058594 C 603.160156 352.566406 602.289062 351.871094 601.664062 350.980469 C 601.035156 350.089844 600.628906 348.984375 600.421875 347.664062 C 600.226562 346.351562 600.125 344.886719 600.125 343.28125 L 600.125 326.0625 L 593.289062 326.0625 L 593.289062 321.644531 L 600.125 321.644531 L 600.125 312.730469 L 605.34375 312.730469 L 605.34375 321.644531 L 614.589844 321.644531 Z M 614.589844 326.0625 " fill-opacity="1" fill-rule="nonzero"/><path fill="#a53995" d="M 649.015625 347.296875 C 647.140625 349.707031 645.085938 351.394531 642.855469 352.355469 C 640.621094 353.316406 638.035156 353.800781 635.085938 353.800781 C 632.628906 353.800781 630.421875 353.363281 628.457031 352.492188 C 626.488281 351.621094 624.828125 350.449219 623.464844 348.972656 C 622.105469 347.496094 621.054688 345.757812 620.320312 343.75 C 619.585938 341.742188 619.21875 339.597656 619.21875 337.316406 C 619.21875 334.90625 619.621094 332.6875 620.421875 330.652344 C 621.226562 328.621094 622.34375 326.878906 623.773438 325.429688 C 625.203125 323.980469 626.898438 322.847656 628.863281 322.046875 C 630.832031 321.242188 632.96875 320.839844 635.296875 320.839844 C 637.484375 320.839844 639.496094 321.207031 641.328125 321.945312 C 643.160156 322.679688 644.734375 323.753906 646.054688 325.15625 C 647.367188 326.566406 648.386719 328.28125 649.101562 330.316406 C 649.816406 332.351562 650.171875 334.660156 650.171875 337.25 L 650.171875 338.921875 L 624.855469 338.921875 C 624.945312 340.265625 625.269531 341.542969 625.828125 342.777344 C 626.386719 344.007812 627.109375 345.078125 628.007812 345.992188 C 628.898438 346.910156 629.945312 347.632812 631.152344 348.167969 C 632.355469 348.707031 633.675781 348.972656 635.101562 348.972656 C 637.378906 348.972656 639.300781 348.570312 640.859375 347.765625 C 642.417969 346.964844 643.828125 345.777344 645.078125 344.21875 L 649.027344 347.304688 Z M 644.527344 334.5 C 644.441406 331.816406 643.570312 329.679688 641.914062 328.0625 C 640.261719 326.457031 637.988281 325.652344 635.078125 325.652344 C 632.171875 325.652344 629.832031 326.457031 628.046875 328.0625 C 626.265625 329.671875 625.1875 331.816406 624.835938 334.5 Z M 644.527344 334.5 " fill-opacity="1" fill-rule="nonzero"/><path fill="#a53995" d="M 691.878906 352.988281 L 686.71875 352.988281 L 677.808594 328.875 L 677.671875 328.875 L 669.769531 352.988281 L 664.414062 352.988281 L 654.230469 321.636719 L 659.988281 321.636719 L 667.15625 345.753906 L 667.292969 345.753906 L 675.398438 321.636719 L 680.894531 321.636719 L 689.128906 345.753906 L 689.265625 345.753906 L 696.367188 321.636719 L 701.988281 321.636719 L 691.875 352.988281 Z M 691.878906 352.988281 " fill-opacity="1" fill-rule="nonzero"/><path fill="#a53995" d="M 707.484375 325.660156 C 709.089844 324.007812 711.003906 322.792969 713.207031 322.011719 C 715.421875 321.230469 717.660156 320.839844 719.941406 320.839844 C 724.582031 320.839844 727.933594 321.9375 729.988281 324.121094 C 732.042969 326.308594 733.070312 329.636719 733.070312 334.101562 L 733.070312 347.570312 C 733.070312 348.460938 733.113281 349.386719 733.207031 350.347656 C 733.296875 351.308594 733.40625 352.191406 733.542969 352.996094 L 728.515625 352.996094 C 728.339844 352.28125 728.238281 351.492188 728.21875 350.621094 C 728.191406 349.75 728.183594 348.980469 728.183594 348.3125 L 728.046875 348.3125 C 727.019531 349.917969 725.644531 351.238281 723.929688 352.265625 C 722.207031 353.296875 720.144531 353.804688 717.734375 353.804688 C 716.128906 353.804688 714.617188 353.609375 713.214844 353.199219 C 711.804688 352.796875 710.582031 352.207031 709.53125 351.421875 C 708.484375 350.640625 707.644531 349.671875 707.019531 348.507812 C 706.394531 347.34375 706.082031 346.011719 706.082031 344.492188 C 706.082031 341.90625 706.746094 339.871094 708.089844 338.398438 C 709.429688 336.929688 711.089844 335.832031 713.078125 335.117188 C 715.066406 334.402344 717.210938 333.960938 719.511719 333.777344 C 721.8125 333.597656 723.921875 333.511719 725.84375 333.511719 L 727.851562 333.511719 L 727.851562 332.570312 C 727.851562 330.289062 727.167969 328.574219 725.808594 327.410156 C 724.445312 326.246094 722.539062 325.667969 720.082031 325.667969 C 718.386719 325.667969 716.71875 325.945312 715.09375 326.503906 C 713.460938 327.0625 712.023438 327.921875 710.769531 329.085938 L 707.488281 325.667969 Z M 722.621094 337.914062 C 719.273438 337.914062 716.617188 338.386719 714.652344 339.324219 C 712.683594 340.265625 711.703125 341.804688 711.703125 343.949219 C 711.703125 345.914062 712.363281 347.3125 713.675781 348.136719 C 714.992188 348.957031 716.632812 349.375 718.597656 349.375 C 720.117188 349.375 721.445312 349.117188 722.582031 348.605469 C 723.71875 348.09375 724.671875 347.414062 725.425781 346.5625 C 726.1875 345.710938 726.769531 344.71875 727.167969 343.582031 C 727.570312 342.441406 727.796875 341.226562 727.835938 339.929688 L 727.835938 337.921875 L 722.609375 337.921875 Z M 722.621094 337.914062 " fill-opacity="1" fill-rule="nonzero"/><path fill="#a53995" d="M 754.167969 360.160156 C 753.628906 361.5 753.085938 362.710938 752.527344 363.808594 C 751.96875 364.902344 751.300781 365.835938 750.519531 366.621094 C 749.734375 367.402344 748.796875 368 747.707031 368.429688 C 746.613281 368.851562 745.285156 369.0625 743.726562 369.0625 C 742.960938 369.0625 742.171875 369.015625 741.347656 368.925781 C 740.527344 368.839844 739.75 368.613281 739.042969 368.261719 L 739.707031 363.707031 C 740.246094 363.929688 740.804688 364.074219 741.382812 364.140625 C 741.960938 364.210938 742.636719 364.242188 743.390625 364.242188 C 745.085938 364.242188 746.339844 363.773438 747.140625 362.832031 C 747.945312 361.894531 748.640625 360.648438 749.21875 359.082031 L 751.363281 353.1875 L 738.367188 321.636719 L 744.460938 321.636719 L 754.175781 346.222656 L 754.3125 346.222656 L 763.621094 321.636719 L 769.3125 321.636719 L 754.175781 360.152344 Z M 754.167969 360.160156 " fill-opacity="1" fill-rule="nonzero"/><g fill="#a53995" fill-opacity="1"><g transform="translate(447.952383, 353.635588)"><g><path d="M 29.5625 -9.390625 L 9.609375 -9.390625 L 5.46875 0 L -0.046875 0 L 16.953125 -37.546875 L 22.265625 -37.546875 L 39.3125 0 L 33.6875 0 Z M 27.671875 -13.671875 L 19.578125 -32.078125 L 11.484375 -13.671875 Z M 27.671875 -13.671875 "/></g></g></g><g fill="#a53995" fill-opacity="1"><g transform="translate(487.216563, 353.635588)"><g><path d="M 5.625 -37.546875 L 11 -37.546875 L 11 0 L 5.625 0 Z M 5.625 -37.546875 "/></g></g></g></svg>