<?xml version="1.0" encoding="UTF-8"?>
<svg width="847px" height="509px" viewBox="0 0 847 509" version="1.1" xmlns="http://www.w3.org/2000/svg" xmlns:xlink="http://www.w3.org/1999/xlink">
    <title>envoy-fundamentals-logo</title>
    <g id="Page-1" stroke="none" stroke-width="1" fill="none" fill-rule="evenodd">
        <g id="envoy-fundamentals-logo" fill-rule="nonzero">
            <rect id="Rectangle" fill="#FFFFFF" x="0" y="0" width="847" height="509"></rect>
            <g id="tetrate" transform="translate(530.000000, 387.000000)">
                <g id="Group" transform="translate(56.000000, 16.000000)" fill="#000717">
                    <path d="M27.4072967,6.30235784 C20.4922249,6.30235784 16.0648923,12.2940361 16.0648923,19.1289875 C16.0648923,26.851595 21.3355263,31.9112344 28.2927632,31.9112344 C30.1058612,31.9556172 31.8767943,31.556172 33.5212321,30.8016644 C35.1656699,30.0471567 36.6414474,28.9375867 37.8642344,27.517337 L34.3223684,23.7891817 C33.5633971,24.6324549 32.6779306,25.3425798 31.6659689,25.8307906 C30.6540072,26.3190014 29.5577153,26.5852982 28.4614234,26.629681 C26.9013158,26.6740638 25.3833732,26.0970874 24.2027512,25.0319001 C23.0221292,23.9667129 22.305323,22.4133148 22.1366627,20.7711512 L38.3280502,20.7711512 C38.4123804,20.149792 38.4545455,19.5284327 38.4545455,18.9070735 C38.4545455,12.0277393 33.8585526,6.30235784 27.4072967,6.30235784 Z M22.3896531,15.9778086 C22.6004785,14.779473 23.2329545,13.6699029 24.1605861,12.8710125 C25.0882177,12.0721221 26.2266746,11.6726768 27.4072967,11.6726768 C28.5457536,11.6726768 29.6420455,12.1165049 30.4853469,12.9153953 C31.3286483,13.7142857 31.8767943,14.8238558 32.0032895,15.9778086 L22.3896531,15.9778086 Z" id="Shape"></path>
                    <path d="M48.1103469,0 L41.8699163,0 L41.8699163,21.0818308 C41.8699163,24.5880721 42.4180622,26.7628294 43.5986842,28.4493759 C45.2009569,30.668516 47.9416866,32 51.694378,32 C53.0014952,32 54.3086124,31.8224688 55.6157297,31.5117892 L54.645933,25.9195562 C53.8026316,26.0970874 52.9593301,26.185853 52.1160287,26.185853 C50.5559211,26.185853 49.4596292,25.6088766 48.9536483,24.9431345 C48.4055024,24.2773925 48.194677,23.3897365 48.194677,21.8363384 L48.194677,12.3828017 L55.9108852,12.3828017 L55.9108852,6.79056865 L48.194677,6.79056865 L48.194677,0 L48.1103469,0 Z" id="Path"></path>
                    <path d="M6.28259569,0 L0,0 L0,21.0818308 C0,24.5880721 0.548145933,26.7628294 1.72876794,28.4493759 C3.33104067,30.668516 6.07177033,32 9.82446172,32 C11.1315789,32 12.4386962,31.8224688 13.7036483,31.5117892 L12.7338517,25.9195562 C11.8905502,26.0970874 11.0472488,26.185853 10.1617823,26.185853 C8.60167464,26.185853 7.50538278,25.6088766 6.99940191,24.9431345 C6.45125598,24.2773925 6.24043062,23.3897365 6.24043062,21.8363384 L6.24043062,12.3828017 L13.9566388,12.3828017 L13.9566388,6.79056865 L6.24043062,6.79056865 L6.24043062,0 L6.28259569,0 Z" id="Path"></path>
                    <path d="M66.0305024,9.32038835 L66.0305024,6.83495146 L60.0008971,6.83495146 L60.0008971,31.4230236 L66.2413278,31.4230236 L66.2413278,15.9334258 C66.8316388,14.9126214 67.6749402,14.0249653 68.6447368,13.4036061 C69.6566986,12.7822469 70.7529904,12.4271845 71.8914474,12.3828017 C72.6504187,12.3828017 73.40939,12.4271845 74.1683612,12.6490985 L74.8851675,6.52427184 C74.2105263,6.39112344 73.4937201,6.34674064 72.8190789,6.34674064 C69.9940191,6.30235784 67.4219498,7.50069348 66.0305024,9.32038835 Z" id="Path"></path>
                    <path d="M93.7751196,8.78779473 C91.8355263,7.14563107 89.4321172,6.25797503 86.944378,6.30235784 C80.5774522,6.30235784 75.4754785,11.8945908 75.4754785,19.1289875 C75.4754785,22.2801664 76.5296053,25.3425798 78.4691986,27.739251 C79.5654904,29.0263523 80.9147727,30.0915395 82.4327153,30.8016644 C83.9506579,31.5117892 85.5950957,31.8668516 87.2816986,31.8668516 C89.6851077,31.9112344 91.9620215,31.0235784 93.7751196,29.3814147 L93.7751196,31.3786408 L99.8047249,31.3786408 L99.8047249,6.79056865 L93.7751196,6.79056865 L93.7751196,8.78779473 Z M93.5221292,22.8127601 C92.8896531,23.7447989 92.0463517,24.5436893 91.076555,25.0762829 C90.1067584,25.6088766 89.0104665,25.8751734 87.9141746,25.8751734 C87.0708732,25.8751734 86.2697368,25.6976422 85.5107656,25.3869626 C84.7517943,25.0319001 84.034988,24.5436893 83.4868421,23.9223301 C82.8965311,23.3009709 82.4748804,22.5464632 82.1797249,21.7475728 C81.8845694,20.9486824 81.7580742,20.0610264 81.8002392,19.1733703 C81.8002392,15.6227462 84.1614833,12.4271845 87.8298445,12.4271845 C88.9683014,12.4271845 90.0645933,12.6934813 91.076555,13.2260749 C92.0885167,13.7586685 92.9318182,14.5131761 93.6064593,15.4895978 L93.6064593,22.8127601 L93.5221292,22.8127601 Z" id="Shape"></path>
                    <path d="M110.093002,0 L103.852572,0 L103.852572,21.0818308 C103.852572,24.5880721 104.400718,26.7628294 105.58134,28.4493759 C107.183612,30.668516 109.924342,32 113.677033,32 C114.984151,32 116.291268,31.8224688 117.55622,31.5117892 L116.586423,25.9195562 C115.743122,26.0970874 114.899821,26.185853 114.014354,26.185853 C112.454246,26.185853 111.357955,25.6088766 110.851974,24.9431345 C110.303828,24.2773925 110.093002,23.3897365 110.093002,21.8363384 L110.093002,12.3828017 L117.809211,12.3828017 L117.809211,6.79056865 L110.093002,6.79056865 L110.093002,0 L110.093002,0 Z" id="Path"></path>
                    <path d="M141,18.8626907 C141,12.0277393 136.404007,6.30235784 129.952751,6.30235784 C123.037679,6.30235784 118.610347,12.2940361 118.610347,19.1289875 C118.610347,26.851595 123.880981,31.9112344 130.838218,31.9112344 C132.651316,31.9556172 134.422249,31.556172 136.066687,30.8016644 C137.711124,30.0471567 139.186902,28.9375867 140.409689,27.517337 L136.867823,23.7891817 C136.108852,24.6324549 135.223385,25.3425798 134.211423,25.8307906 C133.199462,26.3190014 132.10317,26.5852982 131.006878,26.629681 C129.44677,26.6740638 127.928828,26.0970874 126.748206,25.0319001 C125.567584,23.9667129 124.850778,22.4133148 124.682117,20.7711512 L140.83134,20.7711512 C140.91567,20.1054092 141,19.4840499 141,18.8626907 Z M124.935108,15.9778086 C125.145933,14.779473 125.778409,13.6699029 126.706041,12.8710125 C127.633672,12.0721221 128.772129,11.6726768 129.952751,11.6726768 C131.091208,11.6726768 132.1875,12.1165049 133.030801,12.9153953 C133.874103,13.7142857 134.422249,14.8238558 134.548744,15.9778086 L124.935108,15.9778086 Z" id="Shape"></path>
                </g>
                <g id="Group" fill="#FF5500">
                    <path d="M27.527168,24.8603796 C30.3822865,20.9520037 27.6550091,15.311248 23.0101148,15.311248 C18.3652205,15.2670933 15.5953293,20.9520037 18.4930616,24.8603796 C20.0271551,26.7701541 20.8794293,29.1684757 20.8794293,31.655624 L20.8794293,31.655624 C20.8794293,34.1871857 20.0271551,36.5855072 18.4930616,38.4508684 C15.6379431,42.3592443 18.3652205,48 23.0101148,48 C27.6550091,48.0441547 30.4249003,42.3592443 27.527168,38.4508684 C25.9930745,36.5410939 25.1408003,34.1427723 25.1408003,31.655624 L25.1408003,31.655624 C25.1408003,29.1240624 25.9930745,26.7257408 27.527168,24.8603796 Z" id="Path"></path>
                    <path d="M39.5868478,10.4260368 C37.2430938,10.8701704 34.8141123,10.4704502 32.7260406,9.18246266 L32.7260406,9.18246266 C30.6379688,7.93888852 29.0612615,5.94028721 28.2516011,3.63079237 C26.3765979,-1.21026412 19.601018,-1.21026412 17.7260148,3.63079237 C16.9163543,5.98470057 15.3822608,7.93888852 13.2515753,9.18246266 L13.2515753,9.18246266 C11.1635036,10.4260368 8.73452212,10.8701704 6.3907681,10.4260368 C1.78848747,9.80424974 -1.57799558,15.0894399 0.765758443,19.3087093 C3.06689876,23.5723921 9.20327292,23.1282584 10.950435,18.6425088 C15.211806,7.27268808 30.8084236,7.27268808 35.0271809,18.6425088 C36.8169567,23.1282584 42.9107171,23.5723921 45.2118574,19.3087093 C47.5982252,15.0894399 44.2317421,9.80424974 39.5868478,10.4260368 Z" id="Path"></path>
                </g>
            </g>
            <polygon id="Path" fill="#000717" points="361.47 174.293 361.817 189.355 377.712 199.211 377.365 184.149"></polygon>
            <polygon id="Path" fill="#000717" points="400.272 236.693 399.925 221.978 386.043 213.302 385.418 212.885 385.766 227.739"></polygon>
            <path d="M350.643,256.892 L314.272,234.403 L313.439,196.643 L331.208,188.938 L331.208,173.876 L302.472,186.093 C301.426,186.515 300.534,187.247 299.914,188.189 C299.294,189.131 298.976,190.24 299.001,191.368 L300.043,236.693 C300.131,237.928 300.518,239.124 301.171,240.176 C301.824,241.228 302.723,242.105 303.791,242.732 L347.589,269.733 C348.548,270.343 349.625,270.744 350.749,270.911 C351.872,271.079 353.019,271.008 354.114,270.705 L354.739,270.705 L381.462,259.113 L366.747,249.951 L350.643,256.892 Z" id="Path" fill="#000717"></path>
            <path d="M468.017,173.46 C467.905,172.035 467.449,170.659 466.687,169.45 C465.925,168.24 464.881,167.235 463.644,166.519 L410.753,133.618 L409.156,134.312 L409.503,150.207 L451.15,176.167 L452.122,218.577 L468.156,228.503 L468.989,228.156 L468.017,173.46 Z" id="Path" fill="#000717"></path>
            <path d="M404.644,247.938 L355.501,217.467 L354.53,166.38 L376.88,156.732 L376.463,139.101 L341.758,154.094 C340.536,154.59 339.496,155.447 338.776,156.551 C338.056,157.656 337.692,158.954 337.732,160.272 L339.12,220.174 C339.214,221.603 339.663,222.987 340.426,224.199 C341.19,225.411 342.244,226.413 343.493,227.115 L401.035,262.862 C402.158,263.574 403.418,264.041 404.734,264.233 C406.05,264.424 407.391,264.335 408.67,263.972 L409.434,263.972 L443.445,249.257 L426.509,238.776 L404.644,247.938 Z" id="Path" fill="#000717"></path>
            <path d="M542.913,131.466 L469.059,85.6545 C467.768,84.8512 466.323,84.3253 464.817,84.1102 C463.312,83.8951 461.778,83.9956 460.313,84.4051 L459.48,84.7522 L387.431,115.779 C386.057,116.339 384.884,117.301 384.066,118.54 C383.248,119.779 382.825,121.236 382.848953,122.72 L384.655,199.558 C384.78,201.194 385.3,202.775 386.17,204.165 C387.041,205.556 388.236,206.714 389.653,207.541 L463.506,253.422 C464.816,254.302 466.306,254.878 467.868,255.106 C469.43,255.335 471.023,255.209 472.53,254.74 L473.363,254.393 L545.411,223.367 C546.786,222.807 547.959,221.844 548.777,220.605 C549.594,219.367 550.018,217.909 549.994045,216.425 L547.841,139.518 C547.746,137.873 547.247,136.278 546.387,134.873 C545.527,133.469 544.334,132.298 542.913,131.466 Z M467.81,236.693 L403.674,196.921 L402.077,129.8 L464.547,102.799 L528.753,142.572 L530.28,209.345 L467.81,236.693 Z" id="Shape" fill="#000717"></path>
            <path d="M150.6,365 L122.184,365 L122.184,319.624 L150.6,319.624 L150.6,327.944 L131.016,327.944 L131.016,338.312 L148.744,338.312 L148.744,346.184 L131.016,346.184 L131.016,356.68 L150.6,356.68 L150.6,365 Z M166.931,346.888 L166.931,365 L158.419,365 L158.419,333.512 L166.675,333.512 L166.675,337.416 C167.571,335.88 168.851,334.707 170.515,333.896 C172.179,333.085 173.928,332.68 175.763,332.68 C179.475,332.68 182.291,333.853 184.211,336.2 C186.174,338.504 187.155,341.491 187.155,345.16 L187.155,365 L178.643,365 L178.643,346.632 C178.643,344.755 178.152,343.24 177.171,342.088 C176.232,340.936 174.782,340.36 172.819,340.36 C171.027,340.36 169.598,340.979 168.531,342.216 C167.464,343.453 166.931,345.011 166.931,346.888 Z M224.928,333.512 L212.704,365 L204.192,365 L191.328,333.512 L200.672,333.512 L208.48,354.632 L215.968,333.512 L224.928,333.512 Z M237.617,355.848 C239.196,357.427 241.094,358.216 243.313,358.216 C245.532,358.216 247.409,357.427 248.945,355.848 C250.524,354.269 251.313,352.072 251.313,349.256 C251.313,346.44 250.524,344.243 248.945,342.664 C247.409,341.085 245.532,340.296 243.313,340.296 C241.094,340.296 239.196,341.085 237.617,342.664 C236.081,344.243 235.313,346.44 235.313,349.256 C235.313,352.072 236.081,354.269 237.617,355.848 Z M231.473,337.288 C234.63,334.131 238.577,332.552 243.313,332.552 C248.049,332.552 251.974,334.131 255.089,337.288 C258.246,340.445 259.825,344.435 259.825,349.256 C259.825,354.077 258.246,358.067 255.089,361.224 C251.974,364.381 248.049,365.96 243.313,365.96 C238.577,365.96 234.63,364.381 231.473,361.224 C228.358,358.067 226.801,354.077 226.801,349.256 C226.801,344.435 228.358,340.445 231.473,337.288 Z M275.924,377.416 L266.9,377.416 L274.324,361.032 L260.948,333.512 L270.484,333.512 L278.868,351.944 L286.612,333.512 L295.7,333.512 L275.924,377.416 Z M326.205,365 L317.309,365 L317.309,319.624 L345.981,319.624 L345.981,328.008 L326.141,328.008 L326.141,339.208 L343.805,339.208 L343.805,347.336 L326.205,347.336 L326.205,365 Z M370.715,365 C370.544,364.147 370.459,363.016 370.459,361.608 C369.648,363.016 368.432,364.083 366.811,364.808 C365.232,365.491 363.547,365.832 361.755,365.832 C358.043,365.832 355.12,364.659 352.987,362.312 C350.853,359.923 349.786,356.957 349.786,353.416 L349.786,333.512 L358.299,333.512 L358.299,351.688 C358.299,353.565 358.789,355.101 359.771,356.296 C360.752,357.448 362.181,358.024 364.059,358.024 C365.893,358.024 367.344,357.469 368.411,356.36 C369.477,355.208 370.011,353.693 370.011,351.816 L370.011,333.512 L378.523,333.512 L378.523,359.304 C378.523,361.309 378.629,363.208 378.843,365 L370.715,365 Z M396.119,346.888 L396.119,365 L387.607,365 L387.607,333.512 L395.863,333.512 L395.863,337.416 C396.759,335.88 398.039,334.707 399.703,333.896 C401.367,333.085 403.116,332.68 404.951,332.68 C408.663,332.68 411.479,333.853 413.399,336.2 C415.361,338.504 416.343,341.491 416.343,345.16 L416.343,365 L407.831,365 L407.831,346.632 C407.831,344.755 407.34,343.24 406.359,342.088 C405.42,340.936 403.969,340.36 402.007,340.36 C400.215,340.36 398.785,340.979 397.719,342.216 C396.652,343.453 396.119,345.011 396.119,346.888 Z M454.998,318.664 L454.998,359.304 C454.998,361.395 455.083,363.293 455.254,365 L447.126,365 C446.912,363.933 446.806,362.717 446.806,361.352 C446.08,362.675 444.928,363.741 443.35,364.552 C441.814,365.363 440.022,365.768 437.974,365.768 C433.494,365.768 429.803,364.211 426.902,361.096 C424.043,357.939 422.614,353.971 422.614,349.192 C422.614,344.541 424.022,340.637 426.838,337.48 C429.696,334.323 433.323,332.744 437.718,332.744 C442.24,332.744 445.206,334.045 446.614,336.648 L446.614,318.664 L454.998,318.664 Z M431.19,349.192 C431.19,351.965 431.915,354.163 433.366,355.784 C434.816,357.363 436.694,358.152 438.998,358.152 C441.259,358.152 443.115,357.341 444.566,355.72 C446.016,354.099 446.742,351.901 446.742,349.128 C446.742,346.397 446.016,344.264 444.566,342.728 C443.115,341.149 441.259,340.36 438.998,340.36 C436.736,340.36 434.859,341.149 433.366,342.728 C431.915,344.307 431.19,346.461 431.19,349.192 Z M462.124,356.424 C462.124,353.736 462.999,351.581 464.748,349.96 C466.497,348.339 468.759,347.315 471.532,346.888 L479.276,345.736 C480.855,345.523 481.644,344.776 481.644,343.496 C481.644,342.301 481.175,341.32 480.236,340.552 C479.34,339.784 478.039,339.4 476.332,339.4 C474.54,339.4 473.111,339.891 472.044,340.872 C471.02,341.853 470.444,343.069 470.316,344.52 L462.764,342.92 C463.063,340.189 464.407,337.779 466.796,335.688 C469.185,333.597 472.343,332.552 476.268,332.552 C480.961,332.552 484.417,333.683 486.636,335.944 C488.855,338.163 489.964,341.021 489.964,344.52 L489.964,360.008 C489.964,361.885 490.092,363.549 490.348,365 L482.54,365 C482.327,364.061 482.22,362.803 482.22,361.224 C480.215,364.339 477.121,365.896 472.94,365.896 C469.697,365.896 467.073,364.957 465.068,363.08 C463.105,361.203 462.124,358.984 462.124,356.424 Z M474.732,359.56 C476.737,359.56 478.38,359.005 479.66,357.896 C480.983,356.744 481.644,354.867 481.644,352.264 L481.644,350.856 L474.54,351.944 C471.937,352.328 470.636,353.651 470.636,355.912 C470.636,356.936 470.999,357.811 471.724,358.536 C472.449,359.219 473.452,359.56 474.732,359.56 Z M507.056,365 L498.544,365 L498.544,333.512 L506.672,333.512 L506.672,337.352 C507.483,335.901 508.763,334.749 510.512,333.896 C512.261,333.043 514.053,332.616 515.888,332.616 C520.453,332.616 523.568,334.365 525.232,337.864 C527.493,334.365 530.821,332.616 535.216,332.616 C538.416,332.616 541.104,333.619 543.28,335.624 C545.499,337.629 546.608,340.616 546.608,344.584 L546.608,365 L538.352,365 L538.352,346.312 C538.352,344.52 537.883,343.091 536.944,342.024 C536.048,340.915 534.661,340.36 532.784,340.36 C531.035,340.36 529.627,340.957 528.56,342.152 C527.493,343.347 526.96,344.819 526.96,346.568 L526.96,365 L518.512,365 L518.512,346.312 C518.512,344.52 518.043,343.091 517.104,342.024 C516.165,340.915 514.779,340.36 512.944,340.36 C511.152,340.36 509.723,340.957 508.656,342.152 C507.589,343.304 507.056,344.776 507.056,346.568 L507.056,365 Z M561.44,345.672 L575.52,345.672 C575.434,343.923 574.794,342.451 573.6,341.256 C572.448,340.061 570.741,339.464 568.48,339.464 C566.432,339.464 564.768,340.104 563.488,341.384 C562.208,342.664 561.525,344.093 561.44,345.672 Z M576.352,353.864 L583.456,355.976 C582.602,358.877 580.917,361.267 578.4,363.144 C575.925,365.021 572.832,365.96 569.12,365.96 C564.597,365.96 560.757,364.445 557.6,361.416 C554.442,358.344 552.864,354.248 552.864,349.128 C552.864,344.264 554.4,340.296 557.472,337.224 C560.544,334.109 564.17,332.552 568.352,332.552 C573.216,332.552 577.013,334.003 579.744,336.904 C582.517,339.805 583.904,343.795 583.904,348.872 C583.904,349.213 583.882,349.597 583.84,350.024 C583.84,350.451 583.84,350.792 583.84,351.048 L583.776,351.496 L561.248,351.496 C561.333,353.544 562.144,355.251 563.68,356.616 C565.216,357.981 567.05,358.664 569.184,358.664 C572.81,358.664 575.2,357.064 576.352,353.864 Z M599.119,346.888 L599.119,365 L590.607,365 L590.607,333.512 L598.863,333.512 L598.863,337.416 C599.759,335.88 601.039,334.707 602.703,333.896 C604.367,333.085 606.116,332.68 607.951,332.68 C611.663,332.68 614.479,333.853 616.399,336.2 C618.361,338.504 619.343,341.491 619.343,345.16 L619.343,365 L610.831,365 L610.831,346.632 C610.831,344.755 610.34,343.24 609.359,342.088 C608.42,340.936 606.969,340.36 605.007,340.36 C603.215,340.36 601.785,340.979 600.719,342.216 C599.652,343.453 599.119,345.011 599.119,346.888 Z M638.478,324.104 L638.478,333.512 L644.814,333.512 L644.814,341.064 L638.478,341.064 L638.478,354.248 C638.478,355.571 638.776,356.509 639.374,357.064 C639.971,357.619 640.91,357.896 642.19,357.896 C643.342,357.896 644.216,357.811 644.814,357.64 L644.814,364.68 C643.576,365.192 641.976,365.448 640.014,365.448 C636.942,365.448 634.51,364.595 632.718,362.888 C630.926,361.139 630.03,358.749 630.03,355.72 L630.03,341.064 L624.334,341.064 L624.334,333.512 L625.934,333.512 C627.512,333.512 628.707,333.064 629.518,332.168 C630.371,331.229 630.798,330.013 630.798,328.52 L630.798,324.104 L638.478,324.104 Z M650.312,356.424 C650.312,353.736 651.186,351.581 652.936,349.96 C654.685,348.339 656.946,347.315 659.72,346.888 L667.464,345.736 C669.042,345.523 669.832,344.776 669.832,343.496 C669.832,342.301 669.362,341.32 668.424,340.552 C667.528,339.784 666.226,339.4 664.52,339.4 C662.728,339.4 661.298,339.891 660.232,340.872 C659.208,341.853 658.632,343.069 658.504,344.52 L650.952,342.92 C651.25,340.189 652.594,337.779 654.984,335.688 C657.373,333.597 660.53,332.552 664.456,332.552 C669.149,332.552 672.605,333.683 674.824,335.944 C677.042,338.163 678.152,341.021 678.152,344.52 L678.152,360.008 C678.152,361.885 678.28,363.549 678.536,365 L670.728,365 C670.514,364.061 670.408,362.803 670.408,361.224 C668.402,364.339 665.309,365.896 661.128,365.896 C657.885,365.896 655.261,364.957 653.256,363.08 C651.293,361.203 650.312,358.984 650.312,356.424 Z M662.92,359.56 C664.925,359.56 666.568,359.005 667.848,357.896 C669.17,356.744 669.832,354.867 669.832,352.264 L669.832,350.856 L662.728,351.944 C660.125,352.328 658.824,353.651 658.824,355.912 C658.824,356.936 659.186,357.811 659.912,358.536 C660.637,359.219 661.64,359.56 662.92,359.56 Z M695.244,365 L686.732,365 L686.732,318.664 L695.244,318.664 L695.244,365 Z M701.669,356.232 L708.965,354.632 C709.05,355.997 709.583,357.149 710.565,358.088 C711.589,358.984 712.975,359.432 714.725,359.432 C716.047,359.432 717.071,359.133 717.797,358.536 C718.522,357.939 718.885,357.192 718.885,356.296 C718.885,354.717 717.754,353.693 715.493,353.224 L711.333,352.264 C708.389,351.624 706.17,350.472 704.677,348.808 C703.226,347.144 702.501,345.16 702.501,342.856 C702.501,339.997 703.61,337.565 705.829,335.56 C708.09,333.555 710.906,332.552 714.277,332.552 C716.41,332.552 718.287,332.872 719.909,333.512 C721.53,334.109 722.789,334.899 723.685,335.88 C724.581,336.819 725.263,337.779 725.733,338.76 C726.202,339.741 726.501,340.701 726.629,341.64 L719.525,343.24 C719.354,342.131 718.842,341.149 717.989,340.296 C717.178,339.443 715.962,339.016 714.341,339.016 C713.231,339.016 712.271,339.315 711.461,339.912 C710.693,340.509 710.309,341.256 710.309,342.152 C710.309,343.688 711.269,344.627 713.189,344.968 L717.669,345.928 C720.698,346.568 723.002,347.741 724.581,349.448 C726.202,351.155 727.013,353.203 727.013,355.592 C727.013,358.408 725.946,360.84 723.813,362.888 C721.679,364.936 718.671,365.96 714.789,365.96 C712.57,365.96 710.586,365.64 708.837,365 C707.087,364.317 705.722,363.464 704.741,362.44 C703.802,361.373 703.077,360.328 702.565,359.304 C702.095,358.237 701.797,357.213 701.669,356.232 Z" id="Shape" fill="#000717"></path>
            <path d="M492.228,434 L488.88,434 L488.88,407.936 L492.228,407.936 L492.228,419.132 C492.684,418.292 493.404,417.596 494.388,417.044 C495.396,416.468 496.584,416.18 497.952,416.18 C500.472,416.18 502.428,417.032 503.82,418.736 C505.212,420.44 505.908,422.612 505.908,425.252 C505.908,427.916 505.188,430.124 503.748,431.876 C502.308,433.604 500.34,434.468 497.844,434.468 C495.252,434.468 493.38,433.472 492.228,431.48 L492.228,434 Z M501.048,429.752 C501.984,428.624 502.452,427.124 502.452,425.252 C502.452,423.38 501.984,421.904 501.048,420.824 C500.136,419.72 498.9,419.168 497.34,419.168 C495.828,419.168 494.592,419.72 493.632,420.824 C492.672,421.928 492.192,423.404 492.192,425.252 C492.192,427.1 492.672,428.6 493.632,429.752 C494.592,430.88 495.828,431.444 497.34,431.444 C498.876,431.444 500.112,430.88 501.048,429.752 Z M513.837,441.236 L510.129,441.236 L514.449,432.092 L506.997,416.684 L510.885,416.684 L516.285,428.636 L521.469,416.684 L525.105,416.684 L513.837,441.236 Z" id="Shape" fill="#000717"></path>
        </g>
    </g>
</svg>