<svg width="100" height="99" xmlns="http://www.w3.org/2000/svg"><g fill-rule="nonzero" fill="none"><circle cx="50" cy="49.556" r="49.333" fill="#7C7C7C"/><path d="M48.867 54.422c24.222 2 33.556 8.667 33.111 17.778-.444 4.889-5.111 9.556-11.111 10-7.111.444-10.444-2.444-12.444-5.556-1.778-2.889-3.778-5.777-5.778-8.889-.444-.888-1.333-.222-2 .223-1.555 1.333-2.889 2.889-4.222 4.222-.889.889-.667 1.556-.444 2.222 1.333 3.111 2.666 6.222 4 9.111 2.222 1.334 12.222 3.111 19.556 2.445 5.11-.445 11.333-2.445 16.667-6.223 5.11-4 8.888-9.333 9.555-18 .222-5.333-.667-10.889-5.333-16-4.667-5.11-12.667-9.333-28.89-10.444.89-2.666 1.556-5.11 2.445-7.555 9.778.444 18.444 1.11 25.778 2 .667-2.89.89-5.556 1.556-8.222l-2-2.445c-3.778-.444-7.333-1.333-11.333-1.778-5.111-.666-10.444-1.11-16.222-1.333-3.778 10.667-8.222 24.222-12.89 38.444m-6.444-41.556c-1.777 0-4.222.445-8.222 1.333-8.666 2.445-19.333 8.445-20.444 18.444-.222 1.556-.222 3.334-.444 4.89-2.445.222-4.667.444-6.89.666-.221 2-.221 3.778-.444 5.778 2.223-.222 4.445-.222 6.89-.445-.445 10.444 0 20.89.888 30.667.222 1.556.222 2.89.222 3.778-.222.889-1.777 1.333-4 1.333l2.89 3.556c8.444 1.556 19.11 2.667 30.443 2.889v-3.333c-6.666-.445-9.777-1.334-10.222-2.667-.444-1.111-.444-2.667-.666-4.222-.445-10.222-.667-21.333-.445-32.667 3.778 0 7.556 0 11.333-.222 2-.89 3.778-1.778 5.556-2.667v-3.778c-5.778 0-11.333.222-16.89.222.223-4.666.445-9.11.668-13.333.222-2.889 2.222-4.889 4-4.889 3.11-.222 6 1.111 8.888 2.445 1.556.666 3.112 1.555 4.667 2.222.667.222 1.556.444 2.222-.222.89-1.111 1.778-2.222 2.667-3.111.444-.667.222-1.111 0-1.334-2-1.555-3.778-2.889-5.778-4.444-1.11-.889-3.11-.889-4.889-.889-.666-.222-1.333 0-2 0" fill="#fff"/></g></svg>