<svg width="370" height="79" xmlns="http://www.w3.org/2000/svg"><g fill="#7D7D7D" fill-rule="evenodd"><path d="M257.33 1.23h-12.81a1.28 1.28 0 0 0-1.28 1.28v28.33h-13V2.51a1.28 1.28 0 0 0-1.28-1.28h-12.8a1.28 1.28 0 0 0-1.28 1.28v73c0 .707.573 1.28 1.28 1.28h12.81a1.28 1.28 0 0 0 1.28-1.28V46.18h13v29.34c0 .707.573 1.28 1.28 1.28h12.81a1.28 1.28 0 0 0 1.28-1.28v-73a1.28 1.28 0 0 0-1.29-1.29zM148.47 1.23h-13.11a1.21 1.21 0 0 0-1.28 1.12v52.11a9.15 9.15 0 0 1-1.72 5.86 5.73 5.73 0 0 1-8.61 0 9.15 9.15 0 0 1-1.71-5.86V2.39a1.21 1.21 0 0 0-1.28-1.12h-13.11a1.21 1.21 0 0 0-1.28 1.12v52.25c0 6.88 1.66 13 5.58 17.11s9.61 6.3 16.11 6.3c6.49 0 12.13-2.11 16.1-6.3s5.6-10.27 5.6-17.15V2.39a1.21 1.21 0 0 0-1.29-1.16zM21.7 0C15.2 0 9.57 2.11 5.59 6.3S0 16.53 0 23.41V54.6c0 6.88 1.67 13 5.59 17.11s9.61 6.3 16.11 6.3 12.12-2.11 16.1-6.3 5.59-10.23 5.59-17.11V37.44a1.32 1.32 0 0 0-1.32-1.31h-19a1.36 1.36 0 0 0-1.37 1.31v12.73a1.36 1.36 0 0 0 1.37 1.32h5v2.9a9.66 9.66 0 0 1-1.8 6.19 6 6 0 0 1-9 0 9.67 9.67 0 0 1-1.85-6.19V23.56a9.65 9.65 0 0 1 1.85-6.19 6 6 0 0 1 9 0 9.64 9.64 0 0 1 1.8 6.19v2.89a1.22 1.22 0 0 0 1.28 1.13h12.82a1.22 1.22 0 0 0 1.28-1.13v-3c0-6.88-1.67-13-5.59-17.11S28.19 0 21.7 0z"/><path d="M197.88 37.76a20.27 20.27 0 0 0 6.19-14.15c0-7.71-2.92-12.65-5.37-15.45a20.73 20.73 0 0 0-15.86-6.93h-20.5a1.28 1.28 0 0 0-1.28 1.28v73c0 .707.573 1.28 1.28 1.28h21.42a21.35 21.35 0 0 0 16.88-7.7c2.32-2.87 4.8-7.89 4.8-15.52a20.43 20.43 0 0 0-7.56-15.81zm-21.53-21.15h6.49a5.35 5.35 0 0 1 4.31 1.7 7.85 7.85 0 0 1 1.55 5.3 8.4 8.4 0 0 1-1.6 5.54 5.27 5.27 0 0 1-4.26 1.8h-6.49V16.61zm12 42.86a5.57 5.57 0 0 1-4.64 2h-7.38V45.84h7.43a5.55 5.55 0 0 1 4.56 2 8.67 8.67 0 0 1 1.74 5.71 9.28 9.28 0 0 1-1.69 5.92h-.02zM87.9 44.25a21.178 21.178 0 0 0 3.63-3.27 24 24 0 0 0 5.78-16.33 23.751 23.751 0 0 0-5.79-16.11 21.76 21.76 0 0 0-15.39-7.26v-.06H54.5a1.28 1.28 0 0 0-1.28 1.29v73c0 .707.573 1.28 1.28 1.28h12.81a1.28 1.28 0 0 0 1.28-1.28v-27.2h4.58l8.11 27.57a1.29 1.29 0 0 0 1.23.92h13.61a1.28 1.28 0 0 0 1.22-1.66L87.9 44.25zm-7.92-13.44a6.51 6.51 0 0 1-5.18 2.12h-6.21V16.6h6.17a6.48 6.48 0 0 1 5.18 2.12 8.59 8.59 0 0 1 1.94 5.93 9.08 9.08 0 0 1-1.9 6.16zM361.52 37.76a20.23 20.23 0 0 0 6.2-14.15c0-7.71-2.92-12.65-5.37-15.45a20.74 20.74 0 0 0-15.87-6.93h-20.49a1.28 1.28 0 0 0-1.28 1.28v73c0 .707.573 1.28 1.28 1.28h21.39a21.37 21.37 0 0 0 16.88-7.7c2.31-2.87 4.8-7.89 4.8-15.52a20.4 20.4 0 0 0-7.54-15.81zm-21.53-21.15h6.49a5.37 5.37 0 0 1 4.32 1.7 7.85 7.85 0 0 1 1.55 5.3 8.34 8.34 0 0 1-1.61 5.54 5.25 5.25 0 0 1-4.26 1.8h-6.49V16.61zm12 42.86a5.59 5.59 0 0 1-4.65 2h-7.38V45.84h7.38a5.52 5.52 0 0 1 4.56 2 8.62 8.62 0 0 1 1.75 5.71 9.28 9.28 0 0 1-1.63 5.92h-.03z" fill-rule="nonzero"/><path d="M312.03 1.23h-13.11a1.21 1.21 0 0 0-1.28 1.12v52.11a9.15 9.15 0 0 1-1.71 5.86 5.73 5.73 0 0 1-8.61 0 9.15 9.15 0 0 1-1.71-5.86V2.39a1.21 1.21 0 0 0-1.28-1.12H271.2a1.21 1.21 0 0 0-1.28 1.12v52.25c0 6.88 1.67 13 5.59 17.11s9.61 6.3 16.1 6.3c6.5 0 12.13-2.11 16.11-6.3s5.59-10.23 5.59-17.11V2.39a1.21 1.21 0 0 0-1.28-1.16z"/><path d="M366.58 1a3 3 0 1 1 .12 5.998A3 3 0 0 1 366.58 1zm0 5.49a2.46 2.46 0 1 0-2.33-2.46 2.38 2.38 0 0 0 2.33 2.46zm-1-4h1.18a.92.92 0 0 1 1 1 .82.82 0 0 1-.57.82.79.79 0 0 1 .1.17l.6 1.16h-.65l-.58-1.25h-.5V5.6h-.59l.01-3.11zm1.09 1.49a.48.48 0 0 0 .5-.53.47.47 0 0 0-.5-.51h-.5v1l.5.04z" fill-rule="nonzero"/></g></svg>