<svg width="99" height="41" xmlns="http://www.w3.org/2000/svg"><path d="M0 0v2.805h19.27V0H0zm22 0v2.805h27.461S46.656 0 42.941 0H22zm32.848 0v2.805h16.613L70.475 0H54.848zm28.524 0-.986 2.805h16.463V0H83.373zM-.001 5.455V8.26h19.27V5.455H-.001zm22 .004V8.26h30.647s-.358-2.159-.982-2.8H21.999zm32.848 0V8.26h18.435l-.913-2.8H54.847zm26.552 0-.913 2.801h18.361v-2.8H81.398zM5.536 10.911v2.809h8.345v-2.81H5.536zm22 0v2.809h8.345v-2.81h-8.345zm16.463 0v2.809h8.345s.53-1.484.53-2.81H44zm16.385 0v2.809H75.18l-.986-2.81h-13.81zm19.197 0-.99 2.809H93.46v-2.81H79.581zM5.536 16.37v2.805h8.345V16.37H5.536zm22 0v2.805h21.316s1.783-1.44 2.351-2.805H27.536zm32.848 0v2.805h8.345v-1.561l.53 1.561h15.287l.569-1.561v1.561h8.345V16.37H77.794l-.831 2.376-.836-2.376H60.384zM5.536 21.825v2.805h8.345v-2.805H5.536zm22 0v2.805h23.667c-.568-1.36-2.351-2.805-2.351-2.805H27.536zm32.848 0v2.805h8.345v-2.805h-8.345zm9.861 0 1.01 2.805h11.462l.959-2.805H70.245zm14.87 0v2.805h8.345v-2.805h-8.346zm-79.58 5.456v2.805h8.346V27.28H5.535zm22 0v2.805h8.346V27.28h-8.346zm16.463 0v2.805h8.876c0-1.324-.53-2.805-.53-2.805h-8.346zm16.385 0v2.805h8.346V27.28h-8.346zm11.756 0 .979 2.805h7.684l.986-2.805h-9.649zm12.974 0v2.805h8.346V27.28h-8.346zM.147 32.736v2.809h19.27v-2.81H.147zm21.85 0v2.809h29.665c.625-.643.983-2.81.983-2.81H21.998zm33 0v2.809h13.731v-2.81H54.996zm19.041 0 1.006 2.809h3.91l.943-2.81h-5.859zm11.076 0v2.809h13.883v-2.81H85.114zM.148 38.196V41h19.27v-2.805H.148zm21.85 0v2.8H42.94c3.715 0 6.52-2.8 6.52-2.8H22zm33 0V41h13.731v-2.805H54.997zm20.947 0 .967 2.796.166.004.983-2.8h-2.116zm9.17 0V41h13.882v-2.805H85.114z" fill="#222" fill-rule="nonzero" opacity=".597"/></svg>