<svg width="72" height="52" xmlns="http://www.w3.org/2000/svg"><path d="M26.732 25.306c0 1.799-.19 2.697-1.503 2.697-1.37 0-1.587-.817-1.587-2.45V11.197H13V28.06c0 2.933.711 5.35 2.377 7.248 1.666 1.897 3.724 2.846 6.296 2.846 1.74 0 3.486-.53 5.299-1.595-.999 3.76-3.244 5.64-6.613 5.64-1.054 0-2.061-.294-3.724-.883 0 0-1.574-.496-3.635-1.687v8.761s2.05 1.276 3.635 1.87c1.941.732 3.852 1.1 5.777 1.1 4.386 0 8.055-1.67 11.146-5.008 2.59-2.806 3.816-6.493 3.816-11.058V11.196H26.732v14.111zM50.86.385c-12.629 1.13-11.77 14.55-11.77 14.55v23.467c6.866 0 10.298-3.275 10.298-7.81v-3.066h5.064V17.32h-5.064v-1.366c0-1.595.425-2.823 1.138-3.686.697-.842 1.716-1.27 2.986-1.29.847.01 2.404.29 2.718 1.503l.023.096v10.64c0 3.907.741 7.043 2.333 9.41 1.258 1.851 2.9 3.318 4.982 4.401a14.115 14.115 0 0 0 6.622 1.62c.26 0 .731-.007 1.167-.026V27.81c-2.176 0-3.11-.4-3.803-1.227-.695-.825-1.03-2.459-1.03-4.5h3.706V11.195h-3.51C66.06 7.114 63.592.963 54.44.278c0 0-1.083-.04-1.932-.01-.662.023-1.648.118-1.648.118zM14.882 37.553l.008.016c-1.185.72-2.576 1.22-3.605 1.485v.055l-.035-.05a8.742 8.742 0 0 1-1.857.213c-2.594 0-4.672-.957-6.351-2.871C1.362 34.485.644 32.049.644 29.09V.964h10.642V29.09c0 2.959.71 5.396 2.39 7.31.367.42.77.805 1.206 1.153z" fill="#222" fill-rule="nonzero" opacity=".597"/></svg>