<svg width="250" height="49" xmlns="http://www.w3.org/2000/svg"><path d="M126.27 43.503c0 .862 0 1.058.586 1.587l3.279 3.212v.137h-14.542v-6.17a10.112 10.112 0 0 1-9.643 6.699c-7.475 0-12.902-5.876-12.902-16.688 0-10.127 5.856-16.884 14.073-16.884a8.586 8.586 0 0 1 8.452 5.25V7.031a1.687 1.687 0 0 0-.664-1.645l-3.123-3.016v-.138L126.27.53v42.974zm-10.677-1.959V21.232a5.438 5.438 0 0 0-4.333-2.037c-3.533 0-6.949 3.212-6.949 12.751 0 8.932 2.947 12.085 6.617 12.085a5.85 5.85 0 0 0 4.665-2.487zm20.319 6.895V21.017a1.845 1.845 0 0 0-.586-1.645l-3.22-3.33v-.137h14.542v27.814c0 .862 0 1.057.585 1.586l3.201 3.017v.137l-14.522-.02zm-.527-42.563c0-3.245 2.622-5.876 5.856-5.876s5.855 2.63 5.855 5.876-2.621 5.876-5.855 5.876-5.856-2.63-5.856-5.876zm50.496 37.568c0 .862 0 1.116.586 1.645l3.279 3.213v.137h-14.62v-7.032a10.584 10.584 0 0 1-10.013 7.56c-6.48 0-9.955-4.74-9.955-13.71 0-4.33 0-9.07.137-14.397a1.668 1.668 0 0 0-.586-1.587l-3.22-3.232v-.137h14.425v17.883c0 5.876.858 9.794 4.528 9.794a5.853 5.853 0 0 0 4.724-2.958V21.036a1.845 1.845 0 0 0-.586-1.645l-3.24-3.35v-.137h14.542v27.54zm49.5 4.995c0-1.058.195-14.534.195-17.63 0-5.875-.917-9.93-5.036-9.93a6.533 6.533 0 0 0-5.172 2.82c.413 1.832.61 3.706.585 5.583 0 4.074-.136 9.265-.195 14.455a1.668 1.668 0 0 0 .586 1.587l3.279 3.016v.137h-14.678c0-.98.195-14.534.195-17.629 0-5.974-.917-9.93-4.977-9.93a5.853 5.853 0 0 0-4.841 2.898v19.98c0 .861 0 1.057.586 1.586l3.2 3.016v.138h-14.521V21.114a1.845 1.845 0 0 0-.586-1.646l-3.22-3.428v-.137h14.542v6.973c1.348-4.603 5.645-7.696 10.423-7.501 4.84 0 8.12 2.703 9.505 7.834a11.324 11.324 0 0 1 10.931-7.834c6.48 0 10.15 4.798 10.15 13.868 0 4.328-.136 9.264-.195 14.455a1.57 1.57 0 0 0 .664 1.586l3.2 3.017v.137h-14.62zm-182.68-4.27 4.314 4.133v.137H35.134v-.137l4.391-4.133c.469-.383.693-.99.586-1.587V16.16c0-1.116 0-2.625.195-3.917L25.55 48.968h-.175L10.092 15.18c-.332-.843-.43-.901-.645-1.47v22.154a7.722 7.722 0 0 0 .723 4.328l6.148 8.11v.137H0v-.137l6.149-8.13c.65-1.336.9-2.832.722-4.308V11.38a4.751 4.751 0 0 0-1.015-3.35L1.503 2.37v-.138h15.615L30.196 30.85 41.712 2.232h15.283v.138l-4.294 4.798a1.687 1.687 0 0 0-.664 1.646v33.768a1.57 1.57 0 0 0 .664 1.586zm17.118-13.241v.137c0 8.383 4.314 11.752 9.37 11.752a10.633 10.633 0 0 0 9.954-6.053h.136c-1.756 8.286-6.87 12.203-14.522 12.203-8.256 0-16.045-4.994-16.045-16.57 0-12.165 7.808-17.022 16.435-17.022 6.95 0 14.347 3.291 14.347 13.868v1.685H69.82zm0-1.685h9.623V27.54c0-8.618-1.776-10.91-4.45-10.91-3.24 0-5.212 3.428-5.212 12.614h.039z" fill="#7C7C7C" fill-rule="nonzero"/></svg>