<svg width="250" height="64" xmlns="http://www.w3.org/2000/svg" xmlns:xlink="http://www.w3.org/1999/xlink"><defs><path id="a" d="M0 63.11V0h249.43v63.11z"/></defs><g transform="matrix(1 0 0 -1 0 63.491)" fill="none" fill-rule="evenodd"><mask id="b" fill="#fff"><use xlink:href="#a"/></mask><g fill="#7C7C7C" fill-rule="nonzero" mask="url(#b)"><path d="M130.56 33.103c2.644 0 3.562-1.604 3.562-3.518 0-3.242-2.513-5.218-6.444-5.218-1.408 0-3.368.335-4.534.721.488 2.98 2.4 8.015 7.416 8.015m56.814 0c2.418 0 3.564-1.604 3.564-3.518 0-3.242-2.51-5.218-6.437-5.218-1.415 0-3.376.335-4.534.721.485 2.98 2.643 8.015 7.407 8.015m53.86-.27h6.058c.832 0 1.32.336 1.501 1.108.272 1.118.757 3.066.897 3.595.178.696-.227 1.228-.995 1.228h-5.984c.43 1.71 2.11 7.28 2.11 10.907 0 7.24-6.151 13.4-14.883 13.4-9.851 0-16.267-6.612-16.267-15.92 0-2.716 1.013-5.876 2.273-7.845a22.98 22.98 0 0 1-1.623.054c-7.49 0-12.207-4.066-12.207-9.98 0-5.548 4.376-7.702 8.491-9.138 3.658-1.274 7.025-1.87 7.025-4.725 0-1.926-1.852-3.057-5.476-3.057-4.305 0-6.674 2.026-7.271 2.794.405.32 1.008 1.086 1.008 2.357 0 1.777-1.243 3.227-3.563 3.227-1.965 0-3.624-1.601-4.042-3.706-3.148-2.578-6.587-4.251-11.46-4.251-4.812 0-7.304 2.502-7.304 7.816 1.128-.342 4.062-.755 6-.755 8.133 0 13.674 3.695 13.674 11.099 0 3.978-3.493 8.155-10.404 8.155h-.02c-9.09 0-14.175-5.757-16.402-12.09a94.89 94.89 0 0 1-1.874.438 14.34 14.34 0 0 1 .86 4.83c0 3.134-1.937 6.823-7.12 6.823-3.612 0-7.037-2.361-9.41-5.906.588 2.312.98 3.848 1.01 3.947.15.606-.104 1.283-1.044 1.283h-5.322c-.753 0-1.293-.265-1.512-1.135a7669.79 7669.79 0 0 0-3.752-14.726c-1.115-4.355-6.911-9.779-14.205-9.779-4.806 0-7.291 2.665-7.291 7.983 1.256-.496 4.057-.922 5.987-.922 8.465 0 13.68 3.695 13.68 11.099 0 3.978-3.493 8.156-10.4 8.156h-.021c-10.232 0-16.502-7.951-17.569-16.965-.442-3.747-3.603-8.89-7.032-8.89-1.67 0-2.603 1.046-2.603 2.83 0 1.537 1.082 5.295 2.271 10.016.398 1.573 1 3.978 1.669 6.647h5.572c.823 0 1.309.336 1.496 1.108.268 1.118.754 3.066.893 3.595.184.696-.223 1.228-.998 1.228h-5.482s2.52 10.052 2.58 10.31c.246 1.023-.612 1.612-1.504 1.422 0 0-4.23-.826-5.018-.992-.785-.155-1.397-.59-1.687-1.73l-2.241-9.01h-4.387c-.833 0-1.315-.342-1.5-1.115a393.889 393.889 0 0 0-.899-3.592c-.181-.696.227-1.225 1-1.225h4.308c-.03-.128-1.554-5.929-2.788-11.126-.579-2.503-2.525-8.349-5.713-8.349-1.901 0-2.704.962-2.704 3.021 0 3.243 3.189 11.362 3.189 15.043 0 4.92-2.638 7.774-8.047 7.774-3.413 0-6.943-2.203-8.444-4.135 0 0 .453 1.577.615 2.19.161.643-.186 1.27-1.026 1.27H70.62c-1.13 0-1.437-.6-1.6-1.26-.07-.268-1.972-7.75-3.799-14.932-1.255-4.92-4.292-9.029-7.54-9.029-1.677 0-2.417 1.05-2.417 2.836 0 1.537.989 5.33 2.18 10.05 1.443 5.735 2.713 10.459 2.852 11.016.177.708-.14 1.318-1.049 1.318h-5.319c-.962 0-1.313-.5-1.512-1.205 0 0-1.5-5.662-3.085-11.976-1.147-4.58-2.419-9.247-2.419-11.434 0-3.915 1.753-6.86 6.585-6.86 3.722 0 6.673 1.89 8.922 4.3a189.31 189.31 0 0 0-.564-2.213c-.193-.748.04-1.401.921-1.401h5.443c.946 0 1.31.377 1.507 1.204.188.786 4.255 16.78 4.255 16.78 1.078 4.298 3.731 7.143 7.476 7.143 1.77 0 3.308-1.177 3.126-3.453-.198-2.515-3.219-11.535-3.219-15.491 0-2.994 1.108-6.87 6.744-6.87 3.847 0 6.68 1.844 8.733 4.22.75-2.525 2.75-4.22 6.41-4.22 6.083 0 9.752 3.611 11.901 7.233 1.794-4.21 5.98-7.232 12.123-7.232 6.259 0 11.103 2.638 14.536 6.225-.617-2.417-1.035-4.061-1.072-4.198-.197-.754.135-1.353 1.023-1.353h5.389c.733 0 1.261.378 1.45 1.159.095.376.876 3.386 1.978 7.66 2.102 8.177 5.48 16.663 10.554 16.663 1.792 0 2.53-.998 2.53-2.579 0-.74-.216-1.38-.407-1.732-2.46.492-4.439-.72-4.439-3.35 0-1.713 1.803-3.27 4.233-3.27 1.86 0 3.398.454 4.622 1.281 1.142-.237 2.37-.502 3.607-.786a23.881 23.881 0 0 1-.283-3.58c0-6.568 4.931-12.14 13.33-12.14 6.589 0 10.806 2.21 14.764 5.497 1.876-3.068 6.615-5.545 12.826-5.545 8.508 0 13.34 4.43 13.34 10.276 0 5.298-4.349 7.246-8.833 8.867-3.644 1.315-6.685 2.032-6.685 4.607 0 2.116 1.666 3.078 4.513 3.078 1.848 0 3.229-.394 3.977-.602.735-1.842 2.254-3.877 4.848-3.877 2.196 0 3.182 1.733 3.182 3.335 0 4.556-7.583 5.03-7.583 14.803 0 6.07 3.433 11.078 10.556 11.078 4.945 0 8.178-3.135 8.178-8.193 0-4.174-2.535-11.602-2.535-11.602h-4.302c-.825 0-1.313-.342-1.501-1.115a272.852 272.852 0 0 0-.9-3.592c-.177-.696.224-1.225 1.005-1.225h4.198s-4.341-16.018-4.341-18.93c0-3.915 2.204-6.855 7.03-6.855 6.834 0 11.102 4.433 12.96 10.89.14.502-.14.904-.648.904h-2.603c-.52 0-.826-.293-.954-.8-.59-2.291-2.047-4.7-4.92-4.7-1.67 0-2.603 1.045-2.603 2.829 0 1.537 1.02 5.141 2.273 10.016a917.508 917.508 0 0 1 1.659 6.647M57.961 41.81c-2.712 0-4.76 2.284-4.567 5.098.197 2.81 2.55 5.09 5.257 5.09 2.72 0 4.76-2.28 4.571-5.09-.191-2.814-2.547-5.098-5.261-5.098zM0 39.995c0-5.616 2.99-12.613 7.776-14.84.729-.34 1.114-.19 1.279.51.128.534.777 3.132 1.066 4.346.095.387.048.72-.268 1.102-1.576 1.913-2.845 5.45-2.845 8.74 0 8.45 6.399 16.625 17.297 16.625 9.418 0 16.004-6.411 16.004-15.585 0-10.367-5.227-17.546-12.041-17.546-3.763 0-6.579 3.105-5.677 6.927 1.085 4.551 3.176 9.471 3.176 12.752 0 2.947-1.58 5.4-4.85 5.4-3.843 0-6.934-3.978-6.934-9.308 0-3.393 1.149-5.686 1.149-5.686s-3.796-16.06-4.49-19.049c-1.183-5.072.155-13.292.273-14.01.06-.385.488-.515.73-.191.373.498 4.95 7.363 6.246 12.327.459 1.791 2.38 9.109 2.38 9.109 1.256-2.384 4.9-4.399 8.783-4.399 11.555 0 19.886 10.632 19.886 23.833 0 12.661-10.33 22.133-23.623 22.133C8.779 63.185 0 52.089 0 39.994z"/></g></g></svg>