<svg width="744.09" height="744.09" xml:space="preserve" xmlns="http://www.w3.org/2000/svg"><defs><clipPath id="a"><path d="M0 595.28h595.28V0H0v595.28z"/></clipPath><clipPath id="b"><path d="M259.25 280.42h74.249v-5.398H259.25v5.398z"/></clipPath></defs><g clip-path="url(#a)" transform="matrix(1.25 0 0 -1.25 0 744.09)"><path d="M232.69 298.62c5.796 2.307 13.397 6.839 13.282 12.02 5.222-5.6 10.446-15.406 9.037-14.281-5.078 4.055-15.392-1.815-21.681-4.358-3.177-1.284-3.258-2.065-3.196-5.428a13.995 13.995 0 0 0-1.225-5.993c.561-2.66 1.672-3.974 4.272-5.791a316.847 316.847 0 0 1 22.652-14.434 306.26 306.26 0 0 1 21.307-11.238c3.66-1.749 8.595-3.425 12.152-1.069a15.08 15.08 0 0 0 8.349 2.507c3.273 0 6.302-1.038 8.778-2.803 3.39-2.415 7.169-.731 10.644.91a314.793 314.793 0 0 1 22.673 11.854 305.009 305.009 0 0 1 23.508 15.01c5.208 3.671 3.852 3.78 3.852 8.728 0 6.334 3.888 11.758 9.408 14.02 3.581 1.468 3.607 5.183 3.907 8.731a315.123 315.123 0 0 1 1.132 26.251c.006 8.898-.37 17.78-1.135 26.646-.4 4.629.016 6.336-4.13 8.114-5.399 2.315-9.182 7.68-9.182 13.927 0 4.689-3.285 8.291-7.041 10.871a314.81 314.81 0 0 1-20.609 13.021c-7.254 4.197-14.586 8.256-22.227 11.677-5.539 2.48-7.346-.654-11.314-2.404-4.559-2.01-3.608-3.183-3.847-7.363-.357-6.239.437-13.225 2.579-14.641-7.292-2.781-16.097-.011-14.291.039 4.396.123 5.082 9.674 5.434 16.458.179 3.429-.497 3.79-3.576 4.978-2.006.773-4.134 2.162-5.744 4.362-1.023 1.522-3.964.571-5.46-.113-8.993-4.117-16.983-8.271-25.457-13.154a304.567 304.567 0 0 1-23.135-14.748c-4.828-3.392-4.222-4.211-4.222-8.983 0-6.071-3.572-11.306-8.727-13.722-4.387-2.054-4.029-2.599-4.505-8.037a314.796 314.796 0 0 1-1.217-27.25 307.49 307.49 0 0 1 .725-21.384c.318-4.62 1.243-8.172 5.698-9.719 1.64-.57 3.133-1.508 4.425-2.753 3.511-3.384 4.224-2.003 8.107-.458m-16.744-26.659c-6.274-.195-12.039 3.986-14.367 9.784-2.113 5.262-1.025 10.809 2.68 14.946 1.985 2.124 4.152 6.562 3.638 13.846a313.325 313.325 0 0 0-.78 22.397c.009 9.283.422 18.566 1.231 27.85.305 3.503-2.308 6.25-4.527 8.727a1.52 1.52 0 0 0-.36.698 15.118 15.118 0 0 0-5.569 11.734c0 8.365 6.782 15.146 15.147 15.146 1.753 0 3.436-.3 5.003-.847.297.072.624.072.987-.019 4.098-1.019 8.891-.332 11.735 1.628a313.331 313.331 0 0 0 21.481 13.559c8.571 4.939 15.774 8.738 24.812 12.893 5.091 2.339 7.275 7.715 8.127 9.407 2.623 5.589 8.664 9.164 14.718 9.182 5.981.017 10.745-3.39 12.771-8.85 1.35-4.139 1.228-7.602 8.335-10.999a312.49 312.49 0 0 0 21.757-11.472c7.501-4.198 15.208-9.091 23.226-14.746 6.432-4.538 9.729.264 16.249.264 8.364 0 15.145-6.781 15.145-15.146a15.11 15.11 0 0 0-5.297-11.506c-1.687-1.536-5.636-2.202-5.101-9.816.641-9.116 1.179-18.227 1.171-27.365.043-7.678-.297-15.846-1.019-24.639-.771-9.414 3.633-11.704 4.852-12.774a15.11 15.11 0 0 0 5.394-11.589c0-8.365-6.781-15.145-15.145-15.145-2.356 0-4.586.537-6.574 1.497a1.105 1.105 0 0 0-.609.068c-2.686 1.107-5.022 1.535-8.076-.615a313.204 313.204 0 0 0-23.95-15.278 323.181 323.181 0 0 0-23.543-12.298c-6.828-3.22-6.304-6.863-6.874-9.357-1.102-7.281-7.386-12.863-14.975-12.863-7.637 0-13.954 5.654-14.994 13.005-.827 2.13-.06 5.954-6.871 9.163a312.813 312.813 0 0 0-23.265 12.189 322.645 322.645 0 0 0-23.868 15.254c-6.027 4.233-8.585 2.44-12.695 2.087" fill="#e951b5" fill-rule="evenodd"/><path d="M237.91 190.71c-1.211 1.354-2.702 2.456-4.471 3.303a14.214 14.214 0 0 1-5.524 1.404c-1.912.088-3.824-.284-5.734-1.118-1.91-.835-3.627-2.275-5.15-4.321a16.868 16.868 0 0 1-1.315-1.945l-1.316-3.504c-.296-1.721-.216-3.295.24-4.716a9.44 9.44 0 0 1 2.279-3.77c3.692-3.76 9.511-5.196 11.118-4.144-.818.742-2.983 2.781-4.403 4.323-1.855 2.012-.997 2.926 1.597 5.599 3.126 3.221 4.97 4.626 7.296 2.873l4.007-3.497c4.48-3.913 6.069 4.258 1.376 9.513m-39.709-2.677c.166 1.136.398 2.285.695 3.45 1.042 4.14 2.551 7.74 4.527 10.799 1.978 3.06 4.242 5.619 6.795 7.681 2.553 2.06 5.334 3.601 8.343 4.621a28.228 28.228 0 0 0 9.224 1.514c3.141-.013 6.277-.533 9.409-1.562 3.134-1.029 6.095-2.572 8.882-4.63.066-.072.454-.418 1.164-1.036.71-.617 1.641-1.642 2.795-3.074s2.304-3.232 3.451-5.398c1.146-2.167 2.179-4.811 3.1-7.926 2.272-7.696.547-15.932-3.568-22.866 1.116-.779 3.723-3.208 4.592-3.709 2.58-1.487.882-4.297-.602-6.377-.702-.983-2.969-3.79-4.755-5.595-2.257-2.279-2.381-1.711-4.062-.381-1.854 1.465-4.13 3.182-5.527 4.874-2.941-2.046-6.162-3.589-9.516-4.457-2.08-.537-3.725-.873-4.932-1.006-1.21-.134-1.875-.202-1.998-.206-2.213-.072-4.55.314-7.012 1.157-2.462.844-4.859 2.076-7.192 3.697-2.333 1.619-4.51 3.612-6.529 5.976a32.09 32.09 0 0 0-4.944 7.865c-1.277 2.879-2.106 6.017-2.486 9.414a26.764 26.764 0 0 0-.157 3.671l.303 3.504zM266.47 215.96l3.826.304c6.935.552 7.944.03 7.864-7.048l-.449-36.726 14.218 2.094c6.19.905 6.885 2.328 7.736-4.572l.465-3.771c.843-6.833.448-7.897-5.622-8.643-13.974-1.72-9.386-.824-23.359-2.542-9.314-1.147-9.916 1.314-9.897 9.603.212 15.325-.276 28.906-.396 42.625-.063 7.226-1.388 8.117 5.614 8.676" fill="#e951b5"/><path d="M386.78 182.88c.492-3.396.332-6.559-.479-9.488-.813-2.929-2.118-5.513-3.915-7.753-1.796-2.239-4.037-4.086-6.718-5.538-2.684-1.452-5.674-2.4-8.972-2.843-3.299-.442-6.448-.345-9.451.296-3.003.639-5.687 1.784-8.049 3.433-2.363 1.649-4.332 3.766-5.907 6.35-1.128 1.852-1.966 3.91-2.514 6.178l-.033-.123c-.813-2.929-2.117-5.513-3.914-7.753-1.797-2.239-4.037-4.086-6.719-5.538-2.683-1.452-5.674-2.4-8.972-2.843-3.298-.442-6.449-.345-9.451.296-3.003.639-5.686 1.784-8.049 3.433s-4.332 3.766-5.906 6.35c-1.576 2.585-2.585 5.574-3.028 8.972-.492 3.396-.332 6.559.48 9.488s2.117 5.525 3.913 7.79c1.797 2.264 4.037 4.122 6.719 5.574 2.684 1.452 5.674 2.401 8.972 2.844 3.299.442 6.436.344 9.415-.296 2.977-.64 5.648-1.784 8.011-3.433 2.363-1.65 4.332-3.779 5.907-6.387 1.14-1.889 1.996-3.984 2.569-6.284l.053.192c.811 2.929 2.116 5.525 3.913 7.79 1.797 2.264 4.036 4.122 6.719 5.574s5.674 2.401 8.971 2.844c3.299.442 6.437.344 9.414-.296 2.979-.64 5.65-1.784 8.013-3.433 2.362-1.65 4.331-3.779 5.906-6.387 1.576-2.61 2.61-5.613 3.102-9.009m-31.013-6.276c.837-1.919 2.166-3.175 3.988-3.766 1.821-.591 3.889-.394 6.202.591 2.265.984 3.828 2.326 4.689 4.024.862 1.698.899 3.507.111 5.427-.837 1.871-2.165 3.113-3.987 3.729s-3.865.431-6.13-.554c-2.313-.984-3.9-2.338-4.761-4.061-.862-1.722-.899-3.519-.112-5.39m-45.558 0c.838-1.919 2.166-3.175 3.987-3.766 1.822-.591 3.89-.394 6.203.591 2.265.984 3.827 2.326 4.689 4.024.861 1.698.898 3.507.11 5.427-.837 1.871-2.165 3.113-3.987 3.729-1.821.616-3.865.431-6.128-.554-2.315-.984-3.902-2.338-4.763-4.061-.862-1.722-.898-3.519-.111-5.39" fill="#e951b5"/><path d="M375.54 204.57c-2.906-1.208-4.799-2.682-7.146-5.126l3.23-2.454c.858.894 7.066.565 6.146 1.283-1.836 1.434-.683 2.687.978 3.377 3.134 1.831 4.106-6.491 12.066-4.095 5.324 1.604 7.695 6.573 6.068 11.241-1.628 4.668-7.239 7.074-12.532 5.375-3.176-1.02-4.72-3.548-4.953-6.349-.238-2.868-.523-1.865-3.857-3.252" fill="#e951b5" fill-rule="evenodd"/><path d="M391.26 211.39a3.32 3.32 0 0 1-3.321-3.32c0-3.341 6.621-3.511 6.621.481 0 1.834-1.466 2.839-3.3 2.839" fill="#fff" fill-rule="evenodd"/><g clip-path="url(#b)" opacity=".24"><path d="M296.37 280.42c20.504 0 37.124-1.208 37.124-2.699 0-1.49-16.62-2.698-37.124-2.698-20.503 0-37.124 1.208-37.124 2.698 0 1.491 16.621 2.699 37.124 2.699" fill-rule="evenodd"/></g><path d="M260.51 365.62c2.516-3.788-10.595-16.839-18.201-26.699-7.606-9.861-13.659-8.21-16.847-5.485-3.189 2.725-3.405 10.592 3.999 17.894 7.404 7.303 28.534 18.078 31.049 14.29M344.7 347.94c-3.801-2.495 3.13-19.647 6.251-31.703 3.121-12.055 9.336-12.915 13.338-11.662 4.003 1.254 7.292 8.404 3.351 18.028s-19.139 27.833-22.94 25.337" fill="#e951b5" fill-rule="evenodd"/><path d="M289.17 295.69c10.149-2.266 16.641-15.048 27.638-17.595 17.778-4.116 30.624 36.428 35.462 57.321 6.198 26.77-12.327 50.043-40.327 56.526-28.001 6.483-54.751-6.306-61.069-33.047-6.088-25.765-8.609-51.728.086-59.734 10.404-9.58 28.062-1.206 38.21-3.471" fill="#e951b5" fill-rule="evenodd"/><path d="M313.12 389.35c24.97-5.782 40.524-30.71 34.742-55.68-10.531-45.483-101.2-26.915-88.619 27.435 5.782 24.97 28.908 34.027 53.877 28.245" fill="#ed7ac7" fill-rule="evenodd"/><path d="M355.92 332.78c-1.358-1.314 1.806-4.608 3.797-10.249s4.553-7.392 5.91-6.078.836 4.955-1.759 9.076c-2.594 4.122-6.591 8.565-7.948 7.251M244.62 356.46c1.669-.963-4.051-1.47-10.327-10.538-2.24-3.237-2.862-5.072-4.553-4.503-.726.245-2.34 1.405.867 5.879s12.167 10.228 14.013 9.162m-14.796-16.368c.88-.607 1.135-2.007.569-3.126s-1.739-1.534-2.619-.927c-.881.608-1.135 2.007-.569 3.127.566 1.119 1.738 1.534 2.619.926" fill="#fff" fill-rule="evenodd"/><path d="M299.92 339.86c7.668-1.775 11.112.266 13.752-3.478 2.64-3.743-5.943-12.093-16.843-9.569-10.901 2.524-14.773 13.651-10.923 15.999 3.849 2.348 6.347-1.177 14.014-2.952" fill="#223853" fill-rule="evenodd"/><path d="M304.94 328.45c-2.253-.76-4.945-1.017-7.836-.348-2.993.693-5.343 2.171-7.031 3.907.705 2.287 5.157 2.575 7.915.314 3.627.783 7.432-1.48 6.952-3.873" fill="#e435aa" fill-rule="evenodd"/><path d="M299.71 338.97c5.021-1.162 8.035-.718 10.306-1.248l-.025-.117c-.405-1.752-2.049-2.867-3.67-2.492a2.828 2.828 0 0 0-1.348.744 3.368 3.368 0 0 0-3.336-1.079 3.383 3.383 0 0 0-2.394 2.037 3.385 3.385 0 0 0-3.045-.779c-1.306.303-2.262 1.307-2.537 2.501a2.838 2.838 0 0 0-1.643-.112c-1.621.376-2.607 2.1-2.201 3.851.012.051.025.102.039.152 2.259-.573 4.834-2.295 9.854-3.458" fill="#fff" fill-rule="evenodd"/><path d="M307.18 376.63c-9.251.235-10.024 9.392 1.77 9.501 14.774.138 32.526-13.582 35.576-27.52.812-3.712-1.959-4.391-3.892-.413-5.351 11.017-17.932 18.037-33.454 18.432m36.828-23.149c1.027-.061 1.93-1.124 2.016-2.374.087-1.25-.677-2.214-1.704-2.153s-1.93 1.124-2.016 2.374.677 2.214 1.704 2.153" fill="#f4fafb" fill-rule="evenodd"/><path d="M329.58 346.53a8.254 8.254 0 1 0-3.724-16.083 8.254 8.254 0 0 0 3.724 16.083" fill="#223853" fill-rule="evenodd"/><path d="M332.63 343.11a2.304 2.304 0 1 0-1.04-4.484 2.304 2.304 0 0 0 1.04 4.484" fill="#f4fafb" fill-rule="evenodd"/><path d="M276.14 358.9a8.253 8.253 0 0 0 6.179-9.903 8.254 8.254 0 1 0-16.082 3.723 8.254 8.254 0 0 0 9.903 6.18" fill="#223853" fill-rule="evenodd"/><path d="M279.19 355.48a2.302 2.302 0 1 0-1.037-4.485 2.302 2.302 0 0 0 1.037 4.485" fill="#f4fafb" fill-rule="evenodd"/><path d="M305.01 435.8c2.354-1.735 2.909-5.078 1.238-7.466-3.042-4.351-11.696 1.692-8.06 6.891 1.67 2.388 4.467 2.31 6.822.575M220.01 391.48c2.355-1.735 2.91-5.078 1.239-7.466-3.042-4.351-11.696 1.692-8.061 6.891 1.67 2.388 4.468 2.31 6.822.575M389.72 390.86c2.354-1.735 2.91-5.078 1.239-7.467-3.042-4.35-11.696 1.692-8.06 6.891 1.67 2.389 4.467 2.31 6.821.576M389.72 293.45c2.354-1.735 2.91-5.078 1.239-7.467-3.042-4.35-11.696 1.692-8.06 6.892 1.67 2.388 4.467 2.309 6.821.575M304.18 245.23c2.354-1.735 2.909-5.078 1.239-7.467-3.042-4.35-11.697 1.693-8.061 6.891 1.671 2.389 4.468 2.31 6.822.576M220.65 297.74c2.699-1.125 4.033-4.24 2.979-6.958-1.921-4.949-11.764-1.138-9.469 4.777 1.055 2.717 3.79 3.306 6.49 2.181" fill="#fff" fill-rule="evenodd"/></g></svg>