<?xml version="1.0" encoding="UTF-8"?>
<svg xmlns="http://www.w3.org/2000/svg" xmlns:xlink="http://www.w3.org/1999/xlink" width="189px"
     height="65px" viewBox="0 0 189 65" version="1.1">
    <defs>
        <clipPath id="clip1">
            <path d="M 1.96875 2.464844 L 61.855469 2.464844 L 61.855469 62.539062 L 1.96875 62.539062 Z M 1.96875 2.464844 "/>
        </clipPath>
    </defs>
    <g id="surface1">
        <path style=" stroke:none;fill-rule:nonzero;fill:#7d7d7d;fill-opacity:1;"
              d="M 172.5 21.546875 C 172.5 23.886719 170.609375 25.785156 168.273438 25.785156 C 165.9375 25.785156 164.046875 23.886719 164.046875 21.546875 C 164.046875 19.203125 165.9375 17.304688 168.273438 17.304688 C 170.609375 17.304688 172.5 19.203125 172.5 21.546875 Z M 172.5 21.546875 "/>
        <path style=" stroke:none;fill-rule:nonzero;fill:#7d7d7d;fill-opacity:1;"
              d="M 108.160156 39.570312 C 110.214844 39.570312 111.414062 38.023438 111.324219 36.507812 C 111.304688 35.933594 111.230469 35.359375 111.113281 34.796875 C 109.851562 29.3125 105.402344 25.257812 100.109375 25.257812 C 93.835938 25.257812 88.75 30.953125 88.75 37.980469 C 88.75 45.003906 93.835938 50.699219 100.109375 50.699219 C 104.039062 50.699219 106.847656 49.265625 108.890625 47.011719 C 109.367188 46.492188 109.597656 45.792969 109.519531 45.089844 C 109.441406 44.386719 109.066406 43.75 108.488281 43.347656 C 107.503906 42.660156 106.253906 42.890625 105.335938 43.667969 C 104.460938 44.410156 102.785156 45.929688 100.109375 45.929688 C 96.914062 45.929688 94.25 43.199219 93.636719 39.570312 Z M 100.109375 30.027344 C 102.988281 30.027344 105.429688 32.242188 106.339844 35.328125 L 93.882812 35.328125 C 94.789062 32.238281 97.234375 30.027344 100.109375 30.027344 Z M 100.109375 30.027344 "/>
        <path style=" stroke:none;fill-rule:nonzero;fill:#7d7d7d;fill-opacity:1;"
              d="M 89.015625 27.722656 C 89.015625 26.558594 88.175781 25.5625 87.027344 25.371094 C 83.566406 24.847656 80.328125 26.144531 78.445312 28.492188 L 78.445312 28.171875 C 78.433594 26.863281 77.371094 25.8125 76.070312 25.8125 C 74.765625 25.8125 73.707031 26.863281 73.691406 28.171875 L 73.691406 47.6875 C 73.671875 48.972656 74.648438 50.054688 75.921875 50.164062 C 76.578125 50.203125 77.21875 49.972656 77.699219 49.519531 C 78.175781 49.070312 78.445312 48.441406 78.445312 47.78125 L 78.445312 37.714844 C 78.445312 33.257812 81.789062 29.601562 86.371094 30.097656 C 86.527344 30.113281 86.683594 30.113281 86.839844 30.097656 C 88.070312 29.992188 89.015625 28.960938 89.015625 27.722656 Z M 89.015625 27.722656 "/>
        <path style=" stroke:none;fill-rule:nonzero;fill:#7d7d7d;fill-opacity:1;"
              d="M 170.652344 30.292969 C 170.652344 28.972656 169.585938 27.90625 168.273438 27.90625 C 166.960938 27.90625 165.894531 28.972656 165.894531 30.292969 L 165.894531 47.78125 C 165.894531 49.101562 166.960938 50.167969 168.273438 50.167969 C 169.585938 50.167969 170.652344 49.101562 170.652344 47.78125 Z M 170.652344 30.292969 "/>
        <path style=" stroke:none;fill-rule:nonzero;fill:#7d7d7d;fill-opacity:1;"
              d="M 135.25 17.042969 C 135.25 15.722656 134.183594 14.65625 132.871094 14.65625 C 131.558594 14.65625 130.492188 15.722656 130.492188 17.042969 L 130.492188 27.691406 C 128.882812 26.078125 126.828125 25.257812 124.417969 25.257812 C 118.144531 25.257812 113.054688 30.953125 113.054688 37.976562 C 113.054688 45.003906 118.144531 50.699219 124.417969 50.699219 C 126.707031 50.746094 128.917969 49.855469 130.535156 48.230469 C 130.761719 49.445312 131.871094 50.285156 133.097656 50.167969 C 134.324219 50.050781 135.257812 49.015625 135.25 47.78125 Z M 124.414062 45.925781 C 120.769531 45.925781 117.8125 42.367188 117.8125 37.976562 C 117.8125 33.585938 120.769531 30.027344 124.414062 30.027344 C 128.0625 30.027344 131.019531 33.585938 131.019531 37.976562 C 131.019531 42.367188 128.066406 45.925781 124.414062 45.925781 Z M 124.414062 45.925781 "/>
        <path style=" stroke:none;fill-rule:nonzero;fill:#7d7d7d;fill-opacity:1;"
              d="M 160.082031 17.042969 C 160.082031 15.722656 159.019531 14.65625 157.707031 14.65625 C 156.390625 14.65625 155.328125 15.722656 155.328125 17.042969 L 155.328125 27.691406 C 153.71875 26.078125 151.664062 25.257812 149.253906 25.257812 C 142.976562 25.257812 137.890625 30.953125 137.890625 37.976562 C 137.890625 45.003906 142.976562 50.699219 149.253906 50.699219 C 151.542969 50.746094 153.753906 49.855469 155.371094 48.230469 C 155.597656 49.445312 156.707031 50.285156 157.933594 50.167969 C 159.15625 50.050781 160.089844 49.015625 160.085938 47.78125 Z M 149.25 45.925781 C 145.601562 45.925781 142.644531 42.367188 142.644531 37.976562 C 142.644531 33.585938 145.601562 30.027344 149.25 30.027344 C 152.898438 30.027344 155.855469 33.585938 155.855469 37.976562 C 155.855469 42.367188 152.898438 45.925781 149.25 45.925781 Z M 149.25 45.925781 "/>
        <path style=" stroke:none;fill-rule:nonzero;fill:#7d7d7d;fill-opacity:1;"
              d="M 182.730469 47.78125 L 182.730469 30.027344 L 184.84375 30.027344 C 185.976562 30.042969 186.929688 29.179688 187.027344 28.046875 C 187.066406 27.460938 186.859375 26.886719 186.460938 26.457031 C 186.0625 26.03125 185.503906 25.785156 184.917969 25.785156 L 182.730469 25.785156 L 182.730469 22.421875 C 182.746094 21.148438 181.78125 20.074219 180.511719 19.960938 C 179.855469 19.917969 179.210938 20.148438 178.730469 20.601562 C 178.246094 21.050781 177.976562 21.679688 177.976562 22.339844 L 177.976562 25.785156 L 176.007812 25.785156 C 174.875 25.773438 173.925781 26.636719 173.828125 27.765625 C 173.789062 28.351562 173.992188 28.925781 174.390625 29.355469 C 174.792969 29.785156 175.351562 30.027344 175.933594 30.027344 L 177.976562 30.027344 L 177.976562 47.78125 C 177.976562 49.101562 179.039062 50.167969 180.355469 50.167969 C 181.667969 50.167969 182.730469 49.101562 182.730469 47.78125 Z M 182.730469 47.78125 "/>
        <g clip-path="url(#clip1)" clip-rule="nonzero">
            <path style=" stroke:none;fill-rule:nonzero;fill:#7d7d7d;fill-opacity:1;"
                  d="M 61.855469 32.5 C 61.855469 49.089844 48.449219 62.539062 31.914062 62.539062 C 15.375 62.539062 1.96875 49.089844 1.96875 32.5 C 1.96875 15.914062 15.375 2.464844 31.914062 2.464844 C 48.449219 2.464844 61.855469 15.914062 61.855469 32.5 Z M 61.855469 32.5 "/>
        </g>
        <path style=" stroke:none;fill-rule:nonzero;fill:rgb(100%,100%,100%);fill-opacity:1;"
              d="M 51.875 32.5 C 51.875 30.746094 50.828125 29.160156 49.214844 28.476562 C 47.605469 27.789062 45.742188 28.132812 44.480469 29.351562 C 41.03125 26.996094 36.972656 25.703125 32.800781 25.636719 L 34.792969 16.25 L 41.289062 17.636719 C 41.363281 19.207031 42.589844 20.484375 44.15625 20.609375 C 45.722656 20.734375 47.136719 19.671875 47.460938 18.128906 C 47.78125 16.585938 46.910156 15.046875 45.425781 14.53125 C 43.941406 14.019531 42.304688 14.691406 41.609375 16.101562 L 34.347656 14.554688 C 33.925781 14.464844 33.511719 14.734375 33.421875 15.15625 L 31.203125 25.632812 C 26.972656 25.667969 22.847656 26.960938 19.347656 29.34375 C 18.09375 28.125 16.238281 27.773438 14.628906 28.449219 C 13.019531 29.121094 11.964844 30.695312 11.945312 32.441406 C 11.925781 34.191406 12.949219 35.785156 14.542969 36.496094 C 14.476562 36.933594 14.445312 37.378906 14.445312 37.820312 C 14.445312 44.558594 22.261719 50.023438 31.914062 50.023438 C 41.566406 50.023438 49.378906 44.558594 49.378906 37.820312 C 49.378906 37.378906 49.34375 36.941406 49.277344 36.503906 C 50.855469 35.800781 51.875 34.234375 51.875 32.5 Z M 21.929688 35.628906 C 21.929688 33.902344 23.328125 32.5 25.050781 32.5 C 26.773438 32.5 28.167969 33.902344 28.167969 35.628906 C 28.167969 37.359375 26.773438 38.757812 25.050781 38.757812 C 23.328125 38.757812 21.929688 37.359375 21.929688 35.628906 Z M 39.324219 43.898438 C 37.195312 46.027344 33.117188 46.199219 31.917969 46.199219 C 30.71875 46.199219 26.636719 46.03125 24.511719 43.898438 C 24.195312 43.582031 24.195312 43.066406 24.511719 42.75 C 24.828125 42.433594 25.339844 42.433594 25.65625 42.75 C 26.996094 44.097656 29.867188 44.574219 31.917969 44.574219 C 33.964844 44.574219 36.835938 44.097656 38.183594 42.75 C 38.382812 42.535156 38.6875 42.449219 38.972656 42.523438 C 39.257812 42.597656 39.480469 42.820312 39.554688 43.105469 C 39.625 43.390625 39.539062 43.695312 39.324219 43.898438 Z M 38.773438 38.757812 C 37.050781 38.757812 35.65625 37.359375 35.65625 35.628906 C 35.65625 33.902344 37.050781 32.5 38.773438 32.5 C 40.496094 32.5 41.894531 33.902344 41.894531 35.628906 C 41.894531 37.359375 40.496094 38.757812 38.773438 38.757812 Z M 38.773438 38.757812 "/>
    </g>
</svg>
