<svg width="815" height="450" xmlns="http://www.w3.org/2000/svg"><g fill="none" fill-rule="evenodd"><path d="M294.86 75 75 167.134v118.02l218.38-91.515 1.48-.62V75zM88.41 176.06l193.03-80.891v88.927L88.41 264.989v-88.93z" fill="#953984"/><path d="m180.03 290.64 136.78 84.242v-118.43l-136.78-84.243v118.43zm13.415-7.493v-86.919l109.95 67.718v86.918l-109.95-67.717z" fill="#C04589"/><g fill="#051925"><path d="M363.355 275.359v.177c3.304.236 8.437 2.478 8.437 8.496 0 5.487-4.248 8.968-10.62 8.968H348.31v-33.04h11.564c5.723 0 9.499 3.54 9.499 7.847 0 4.956-2.832 6.844-6.018 7.552zm-13.452-.472h9.676c3.776 0 8.201-2.065 8.201-6.903 0-3.658-3.186-6.49-8.142-6.49h-9.735v13.393zm0 16.579h11.328c5.015 0 8.968-2.655 8.968-7.316 0-4.897-4.307-7.729-9.322-7.729h-10.974v15.045zM387.899 293v-15.104l13.039-17.936h-1.829l-6.431 8.909c-3.245 4.425-5.487 7.434-5.546 7.493h-.059l-5.428-7.434-6.49-8.968h-1.888l13.039 17.936V293h1.593zM438.631 259.817v4.957h-10.722v28.41h-5.195v-28.41h-10.675v-4.957zM471.025 259.817v19.21c0 9.63-5.243 14.825-13.934 14.825s-13.887-5.196-13.887-14.825v-19.21h5.243v19.162c0 6.721 2.928 9.963 8.644 9.963 5.762 0 8.738-3.242 8.738-9.963v-19.162h5.196zM488.88 276.596c4.488 0 6.66-2.67 6.66-5.958 0-3.433-2.362-5.863-6.66-5.863h-6.188v11.82h6.188zm7.416 16.588-6.99-11.965c-.331.048-.662.048-1.04.048h-5.573v11.917h-5.243v-33.367h10.817c7.935 0 12.706 4.242 12.706 10.82 0 4.672-2.409 8.056-6.612 9.63l7.84 12.918h-5.904zM520.81 288.703c3.637 0 6.235-2.193 6.235-5.577 0-3.337-2.834-5.625-6.376-5.625h-7.7v11.202h7.841zm-1.087-15.301c3.307 0 5.527-2.05 5.527-4.576 0-2.717-2.22-4.528-5.527-4.528h-6.754v9.104h6.754zm1.04-13.585c5.81 0 9.73 3.575 9.73 8.39 0 3.336-2.598 6.148-5.007 6.768v.048c3.165.524 6.99 3.909 6.99 8.246 0 5.72-3.872 9.915-11.194 9.915h-13.556v-33.367h13.037zM538 293.185h5.25v-33.368H538zM579.05 259.817v33.367h-4.912l-12.045-16.398c-2.929-4.052-5.763-8.199-5.81-8.199h-.047c-.048 0 .094 4.48.094 10.44v14.157h-5.243v-33.367H556l12.139 16.446c2.361 3.241 5.668 7.913 5.715 7.913h.047c.047 0-.094-4.91-.094-10.153v-14.205h5.243zM609.89 288.227v4.957h-23v-33.367h22.72v4.957h-17.48v8.676h13.94v4.671h-13.94v10.106zM648.79 291.42v1.764H628.2v-33.367h1.79v31.603zM675.92 281.029l-6.802-15.397c-.708-1.62-1.464-3.623-1.511-3.623h-.048c-.047 0-.802 2.002-1.511 3.623l-6.802 15.397h16.674zm.756 1.668H658.49l-4.629 10.487h-1.937l14.88-33.367h1.558l14.88 33.367h-1.937l-4.63-10.487zM700.96 291.516c4.77 0 8.55-3.003 8.55-7.913 0-4.528-4.11-7.865-8.928-7.865h-10.486v15.778h10.864zm-1.559-17.399c4.724 0 7.794-2.956 7.794-6.34 0-3.86-3.07-6.292-7.794-6.292h-9.305v12.632h9.305zm.33-14.3c5.574 0 9.306 3.146 9.306 7.912 0 3.48-3.212 6.483-6.14 6.96v.048c3.212.19 8.502 3.289 8.502 8.723 0 5.959-4.157 9.724-10.486 9.724h-12.611v-33.367h11.43zM736.34 268.445c-.708-4.672-4.535-7.58-9.542-7.58-5.337 0-9.257 2.527-9.257 6.912 0 4.338 5.243 5.673 9.824 6.912 4.44 1.192 11.29 2.908 11.29 9.772 0 5.386-4.63 9.39-11.668 9.39-7.18 0-11.43-4.385-11.903-9.723l1.748-.477c.283 4.576 3.873 8.484 10.155 8.484 6 0 9.825-3.241 9.825-7.674 0-6.006-6.66-7.15-11.29-8.437-3.73-1.049-9.824-2.526-9.824-8.247 0-5.195 4.724-8.627 11.1-8.627 5.858 0 10.392 3.384 11.29 8.818l-1.748.477z"/></g><path d="m396.52 232.12-19.322-34.083h-14.762v34.083h-13.441v-84.009h26.043c20.282 0 31.443 11.401 31.443 24.963 0 9.841-5.64 18.242-16.082 22.322l21.362 36.724h-15.242zm-21.482-72.727h-12.601v27.363h12.601c12.241 0 18.002-5.52 18.002-13.681 0-8.04-5.76-13.681-18.002-13.681zm45.349 30.723c0-24.603 18.722-43.204 42.484-43.204 23.042 0 42.604 18.602 42.604 43.204 0 24.603-18.722 43.204-42.604 43.204-23.762 0-42.484-18.602-42.484-43.204zm13.441 0c0 18.362 12.121 31.923 29.043 31.923 16.562 0 29.163-13.561 29.163-31.923 0-17.282-12.121-31.923-29.163-31.923-16.922 0-29.043 14.641-29.043 31.923zm136.95-30.723v-11.281h-60.486v11.281h23.882v72.727h13.441v-72.727h23.162zm6.08 30.723c0-24.603 18.723-43.204 42.485-43.204 23.042 0 42.604 18.602 42.604 43.204 0 24.603-18.722 43.204-42.604 43.204-23.762 0-42.484-18.602-42.484-43.204zm13.442 0c0 18.362 12.12 31.923 29.043 31.923 16.562 0 29.163-13.561 29.163-31.923 0-17.282-12.121-31.923-29.163-31.923-16.922 0-29.043 14.641-29.043 31.923zm134.45 42.004-19.322-34.083h-14.762v34.083h-13.441v-84.009h26.043c20.282 0 31.443 11.401 31.443 24.963 0 9.841-5.64 18.242-16.082 22.322l21.362 36.724h-15.242zm-21.482-72.727h-12.601v27.363h12.6c12.242 0 18.003-5.52 18.003-13.681 0-8.04-5.76-13.681-18.002-13.681z" fill="#051925"/></g></svg>