<svg width="125" height="88" xmlns="http://www.w3.org/2000/svg"><g fill="none" fill-rule="evenodd"><path d="M51.877 9.707c4.03-4.167 9.615-6.777 15.797-6.777 8.242 0 15.385 4.58 19.231 11.401a26.95 26.95 0 0 1 10.852-2.289c14.835 0 26.877 12.134 26.877 27.106 0 14.973-12.042 27.106-26.877 27.106-1.831 0-3.571-.183-5.311-.55-3.343 5.999-9.799 10.074-17.125 10.074-3.068 0-5.999-.733-8.608-1.97-3.435 8.013-11.355 13.646-20.604 13.646-9.662 0-17.857-6.09-21.016-14.652-1.374.274-2.793.458-4.259.458C9.341 73.26.046 63.827.046 52.244c0-7.784 4.167-14.56 10.394-18.223-1.282-2.93-1.969-6.182-1.969-9.616C8.471 11.035 19.323.23 32.693.23c7.784 0 14.744 3.709 19.185 9.478z" fill="#7B7B7B" fill-rule="nonzero"/><g fill="#fff"><path d="M18.04 45.467c-.091.183.046.229.046.275.229.183.458.274.733.412 1.282.687 2.472.87 3.708.87 2.564 0 4.167-1.374 4.167-3.526v-.046c0-2.014-1.786-2.747-3.48-3.296l-.229-.092c-1.282-.412-2.38-.778-2.38-1.602v-.046c0-.733.64-1.237 1.648-1.237 1.098 0 2.426.367 3.25.825 0 0 .23.137.321-.092.046-.137.458-1.282.504-1.42.045-.137-.046-.228-.138-.274-.961-.595-2.29-.962-3.663-.962h-.274c-2.336 0-3.984 1.42-3.984 3.434v.046c0 2.152 1.786 2.84 3.48 3.297l.275.092c1.236.366 2.29.686 2.29 1.556v.046c0 .779-.688 1.374-1.787 1.374-.412 0-1.785 0-3.296-.962-.183-.091-.275-.183-.412-.275-.092-.045-.275-.137-.32.138l-.459 1.465zM55.494 45.467c-.092.183.046.229.046.275.229.183.458.274.732.412 1.282.687 2.473.87 3.71.87 2.563 0 4.166-1.374 4.166-3.526v-.046c0-2.014-1.786-2.747-3.48-3.296l-.229-.092c-1.282-.412-2.381-.778-2.381-1.602v-.046c0-.733.641-1.237 1.648-1.237 1.1 0 2.427.367 3.251.825 0 0 .23.137.32-.092.047-.137.459-1.282.505-1.42.045-.137-.046-.228-.138-.274-.961-.595-2.29-.962-3.663-.962h-.275c-2.335 0-3.983 1.42-3.983 3.434v.046c0 2.152 1.786 2.84 3.48 3.297l.275.092c1.236.366 2.289.686 2.289 1.556v.046c0 .779-.687 1.374-1.786 1.374-.412 0-1.785 0-3.296-.962-.184-.091-.275-.183-.413-.275-.045-.045-.274-.091-.32.138l-.458 1.465zM83.15 38.874c-.229-.687-.55-1.328-.962-1.832-.457-.503-1.007-.961-1.648-1.236-.641-.32-1.42-.458-2.29-.458s-1.648.137-2.289.458-1.19.733-1.648 1.236c-.412.504-.779 1.145-.962 1.832-.229.687-.32 1.465-.32 2.29 0 .823.091 1.602.32 2.289s.55 1.327.962 1.831c.458.504 1.007.962 1.648 1.236s1.42.458 2.29.458 1.648-.137 2.29-.458c.64-.274 1.19-.732 1.647-1.236.413-.504.779-1.145.962-1.831.229-.687.32-1.466.32-2.29 0-.824-.091-1.602-.32-2.29m-2.106 2.29c0 1.237-.23 2.198-.687 2.885s-1.145 1.007-2.06 1.007c-.962 0-1.603-.32-2.06-1.007-.459-.687-.688-1.649-.688-2.885 0-1.236.23-2.198.687-2.884.458-.687 1.1-1.008 2.06-1.008.962 0 1.649.32 2.061 1.008.458.686.687 1.648.687 2.884" fill-rule="nonzero"/><path d="M100.687 44.735c-.092-.229-.275-.137-.275-.137-.32.137-.64.229-1.007.274a9.004 9.004 0 0 1-1.19.092c-1.054 0-1.832-.32-2.427-.916s-.916-1.602-.916-2.93c0-1.19.275-2.106.824-2.793.504-.687 1.328-1.053 2.381-1.053.87 0 1.557.091 2.244.32 0 0 .183.092.229-.137.183-.504.32-.87.503-1.465.046-.184-.091-.23-.137-.23a12.37 12.37 0 0 0-1.42-.366c-.457-.091-1.007-.091-1.602-.091-.916 0-1.694.137-2.381.458-.687.32-1.282.732-1.74 1.236a5.187 5.187 0 0 0-1.053 1.832 7.27 7.27 0 0 0-.366 2.289c0 1.786.458 3.205 1.42 4.258.96 1.053 2.38 1.603 4.212 1.603a8.674 8.674 0 0 0 3.022-.55s.137-.091.091-.274l-.412-1.42zM111.584 38.462c-.183-.687-.641-1.374-.916-1.694-.458-.504-.916-.87-1.373-1.053-.596-.275-1.282-.412-2.06-.412-.916 0-1.74.137-2.382.457-.687.32-1.236.733-1.648 1.282a4.582 4.582 0 0 0-.962 1.878c-.229.732-.32 1.465-.32 2.29s.091 1.602.32 2.289.55 1.327 1.053 1.831c.458.504 1.1.916 1.832 1.19.733.275 1.603.413 2.61.413 2.106 0 3.205-.458 3.617-.733.092-.046.137-.137.046-.366l-.458-1.328c-.092-.183-.275-.137-.275-.137-.503.183-1.236.55-2.976.55-1.099 0-1.969-.321-2.473-.87-.549-.55-.778-1.329-.824-2.382h7.235s.183 0 .229-.183c-.046 0 .183-1.374-.275-3.022zm-7.189 1.51c.092-.686.275-1.236.596-1.693.458-.687 1.099-1.053 2.06-1.053s1.557.366 2.015 1.053c.32.458.412 1.053.458 1.694h-5.129zM53.754 38.462c-.183-.687-.641-1.374-.916-1.694-.458-.504-.916-.87-1.373-1.053-.596-.275-1.282-.412-2.06-.412-.917 0-1.74.137-2.382.457-.687.32-1.236.733-1.648 1.282a4.582 4.582 0 0 0-.962 1.878c-.229.732-.32 1.465-.32 2.29s.091 1.602.32 2.289c.23.686.55 1.327 1.053 1.831.458.504 1.1.916 1.832 1.19.733.275 1.603.413 2.61.413 2.106 0 3.205-.458 3.617-.733.092-.046.137-.137.046-.366l-.458-1.328c-.092-.183-.275-.137-.275-.137-.503.183-1.236.55-2.976.55-1.099 0-1.969-.321-2.473-.87-.549-.55-.778-1.329-.824-2.382H53.8s.183 0 .229-.183c-.046 0 .183-1.374-.275-3.022zm-7.189 1.51c.092-.686.275-1.236.596-1.693.458-.687 1.099-1.053 2.06-1.053.962 0 1.557.366 2.015 1.053.274.458.412 1.053.458 1.694h-5.129z"/><path d="M33.837 39.606c-.275 0-.687-.045-1.145-.045-.64 0-1.236.091-1.785.229a4.526 4.526 0 0 0-1.511.686c-.458.32-.779.733-1.053 1.19-.275.459-.367 1.054-.367 1.65 0 .64.092 1.19.32 1.648.23.458.55.824.962 1.144.412.275.916.504 1.465.641.55.138 1.191.184 1.924.184s1.465-.046 2.197-.184c.687-.137 1.557-.274 1.832-.366.229-.046.504-.137.504-.137.183-.046.183-.23.183-.23v-6.593c0-1.465-.367-2.518-1.145-3.205-.778-.64-1.877-1.007-3.297-1.007-.55 0-1.42.092-1.923.183 0 0-1.557.32-2.243.824 0 0-.138.092-.046.275l.503 1.374c.046.183.23.137.23.137s.045 0 .137-.046c1.373-.732 3.159-.732 3.159-.732.778 0 1.374.137 1.786.458s.595.778.595 1.74v.32c-.733-.046-1.282-.137-1.282-.137zm-2.885 5.083c-.274-.23-.32-.275-.412-.412-.137-.23-.229-.55-.229-.962 0-.64.23-1.099.641-1.42 0 0 .641-.549 2.107-.503 1.053 0 1.969.183 1.969.183v3.297s-.916.183-1.97.275c-1.465.045-2.106-.458-2.106-.458z" fill-rule="nonzero"/><path d="M92.079 35.898c.046-.183-.046-.23-.092-.275a4.973 4.973 0 0 0-1.19-.183c-.916-.046-1.42.091-1.877.32-.458.183-.962.55-1.237.916v-.87c0-.137-.091-.229-.229-.229h-1.831c-.137 0-.23.092-.23.23v10.76c0 .136.093.228.23.228H87.5c.138 0 .23-.092.23-.229v-5.403c0-.732.09-1.465.228-1.877.137-.458.366-.824.641-1.053.275-.275.55-.458.87-.55s.687-.137.962-.137c.366 0 .778.092.778.092a.31.31 0 0 0 .275-.184c.183-.366.55-1.373.595-1.556zM74.267 30.907a3.43 3.43 0 0 0-.733-.183 5.715 5.715 0 0 0-.961-.092c-1.328 0-2.335.366-3.068 1.099-.733.733-1.19 1.831-1.465 3.297l-.092.503H66.3s-.183 0-.23.23l-.274 1.51c0 .138.046.23.23.23h1.602l-1.603 9.02a17.918 17.918 0 0 1-.412 1.785c-.137.458-.32.778-.504 1.007-.183.23-.366.412-.64.504-.23.092-.55.137-.87.137-.184 0-.413-.045-.596-.045-.183-.046-.275-.092-.412-.138 0 0-.183-.091-.275.138-.045.137-.503 1.327-.55 1.465-.045.137 0 .274.092.274.23.092.367.138.642.184.412.091.732.091 1.053.091.686 0 1.282-.091 1.785-.275s.962-.503 1.328-.915c.412-.458.687-.962.916-1.603.229-.64.458-1.465.64-2.427l1.65-9.203h2.38s.183 0 .23-.229l.274-1.51c0-.138-.046-.23-.229-.23h-2.29c0-.046.138-.87.367-1.648.091-.32.32-.595.504-.779.183-.183.366-.32.595-.366.229-.091.503-.091.778-.091.23 0 .412.045.595.045.23.046.321.092.367.092.229.092.274 0 .32-.092l.55-1.51c.137-.184 0-.23-.046-.275zM41.987 46.52c0 .137-.092.229-.229.229h-1.923c-.137 0-.229-.092-.229-.229V31.135c0-.137.092-.229.229-.229h1.923c.137 0 .229.092.229.229V46.52z"/></g></g></svg>