<svg width="101" height="101" xmlns="http://www.w3.org/2000/svg"><g fill="none" fill-rule="evenodd"><path d="M.115 75.06v.005c.06 2.221.078 4.454.453 6.662.397 2.335.964 4.611 2.047 6.73a21.53 21.53 0 0 0 6.01 7.27c1.822 1.42 3.812 2.548 6.015 3.26 3.212 1.036 6.526 1.433 9.888 1.453 2.097.013 4.194.065 6.292.057 15.24-.065 30.478.11 45.718-.094 2.022-.028 4.012-.275 5.996-.637 3.804-.697 7.166-2.32 10.042-4.886 3.352-2.99 5.614-6.649 6.635-11.065.668-2.887.835-5.815.864-8.754v-.586c0-.228-.087-49.937-.095-50.594-.022-1.805-.155-3.597-.493-5.373-.412-2.164-.993-4.272-2.03-6.23-1.094-2.069-2.464-3.929-4.16-5.554-2.596-2.49-5.593-4.25-9.082-5.182C81.065.7 77.85.514 74.611.517c-.005 0-.017-.033-.018-.05H25.581c0 .017-.001.034-.003.05-1.837.034-3.678.02-5.506.247-2.003.249-3.987.624-5.883 1.324-2.986 1.104-5.58 2.825-7.797 5.121-2.51 2.602-4.28 5.612-5.22 9.116C.336 19.451.153 22.64.149 25.851" fill="#7D7D7D"/><path d="M49.993 84.856c-.12.01-.243.015-.367.015-4.361 0-7.278-2.062-9.851-3.883-1.845-1.303-3.584-2.533-5.622-2.872-1.001-.166-1.997-.25-2.959-.25-1.733 0-3.103.269-4.103.464-.616.12-1.146.223-1.556.223-.43 0-.952-.095-1.17-.838-.172-.586-.296-1.153-.415-1.7-.298-1.366-.515-2.2-1.026-2.279-5.47-.844-8.703-2.087-9.347-3.593a1.397 1.397 0 0 1-.113-.475.878.878 0 0 1 .734-.915c4.344-.716 8.207-3.012 11.481-6.827 2.537-2.954 3.782-5.776 3.916-6.087a.554.554 0 0 1 .02-.043c.63-1.28.756-2.387.374-3.288-.705-1.662-3.04-2.403-4.584-2.893a16.507 16.507 0 0 1-1.037-.351c-1.369-.541-3.62-1.684-3.32-3.26.218-1.15 1.74-1.952 2.969-1.952.341 0 .643.06.898.18 1.39.65 2.639.98 3.714.98 1.336 0 1.982-.508 2.138-.653-.04-.73-.084-1.46-.132-2.19-.314-4.99-.705-11.201.884-14.763 4.755-10.662 14.839-11.491 17.816-11.491l1.473-.014c2.985 0 13.09.83 17.848 11.498 1.59 3.564 1.197 9.78.883 14.777l-.015.239c-.043.678-.083 1.32-.117 1.943.147.135.738.602 1.94.649 1.025-.04 2.202-.368 3.499-.975.4-.188.844-.227 1.145-.227.456 0 .92.089 1.306.25l.02.008c1.1.39 1.821 1.17 1.837 1.99.013.765-.555 1.907-3.348 3.01-.286.114-.652.23-1.037.352-1.546.49-3.878 1.231-4.583 2.892-.383.901-.257 2.008.374 3.288l.02.043c.194.456 4.9 11.184 15.397 12.914a.88.88 0 0 1 .734.916 1.41 1.41 0 0 1-.116.479c-.64 1.497-3.871 2.739-9.343 3.584-.513.08-.73.91-1.026 2.268a23.929 23.929 0 0 1-.417 1.69c-.16.543-.513.809-1.082.809h-.086c-.37 0-.895-.067-1.557-.197-1.156-.225-2.453-.435-4.103-.435-.962 0-1.957.085-2.96.25-2.035.34-3.774 1.568-5.616 2.87-2.578 1.823-5.495 3.885-9.856 3.885-.208 0-.406-.008-.557-.015z" fill="#fff"/><path d="M50.808 16.98c2.81 0 12.486.756 17.045 10.978 1.501 3.366 1.116 9.464.808 14.362-.049.777-.097 1.53-.135 2.25l-.017.31.207.23c.083.092.864.908 2.6.975l.027.001h.03c1.147-.044 2.44-.4 3.844-1.058.207-.097.482-.144.773-.144.332 0 .684.062.975.185l.044.017c.736.258 1.257.745 1.265 1.185.004.248-.182 1.145-2.791 2.176-.256.1-.591.207-.98.33-1.699.54-4.264 1.353-5.128 3.388-.486 1.146-.353 2.498.396 4.02.308.718 5.155 11.636 16.062 13.433a.483.483 0 0 1-.045.175c-.185.436-1.36 1.94-8.672 3.068-1.144.176-1.424 1.458-1.75 2.95a23.543 23.543 0 0 1-.4 1.628c-.05.168-.06.178-.24.178h-.086c-.324 0-.816-.067-1.387-.18-1.039-.202-2.458-.45-4.273-.45-1.012 0-2.056.088-3.102.263-2.238.372-4.058 1.659-5.985 3.021-2.588 1.83-5.263 3.722-9.344 3.722-.179 0-.352-.006-.527-.015l-.046-.002-.046.003c-.1.01-.2.014-.304.014-4.08 0-6.757-1.892-9.344-3.722-1.927-1.362-3.748-2.649-5.985-3.021a18.956 18.956 0 0 0-3.102-.263c-1.814 0-3.236.278-4.272.48-.571.112-1.065.208-1.388.208-.265 0-.27-.016-.326-.207-.164-.557-.284-1.109-.4-1.642-.327-1.492-.607-2.782-1.75-2.957-7.312-1.13-8.487-2.636-8.673-3.07a.532.532 0 0 1-.045-.18c10.907-1.795 15.753-12.713 16.062-13.435.75-1.52.883-2.872.395-4.02-.863-2.033-3.428-2.848-5.125-3.386-.39-.124-.726-.23-.982-.332-2.203-.87-2.881-1.747-2.78-2.279.117-.613 1.179-1.236 2.106-1.236.209 0 .391.034.526.097 1.506.706 2.881 1.064 4.087 1.064 1.895 0 2.739-.882 2.83-.983l.205-.23-.016-.308a210.33 210.33 0 0 0-.136-2.248c-.307-4.9-.692-10.993.809-14.36 4.542-10.185 14.17-10.97 17.014-10.97l1.305-.012.166-.001m0-1.757h-.187l-1.29.013c-1.664 0-4.996.235-8.575 1.815a19.104 19.104 0 0 0-5.47 3.627c-1.888 1.793-3.426 4.003-4.57 6.57-1.676 3.759-1.279 10.09-.959 15.177l.001.008c.034.545.07 1.114.103 1.668-.246.113-.644.232-1.232.232-.946 0-2.07-.302-3.34-.898a2.988 2.988 0 0 0-1.273-.262 4.51 4.51 0 0 0-2.246.63c-.871.51-1.434 1.233-1.586 2.034-.101.53-.096 1.578 1.067 2.64.64.585 1.58 1.124 2.794 1.603.318.126.696.245 1.096.372 1.389.442 3.491 1.109 4.04 2.399.277.654.158 1.515-.355 2.555l-.04.085c-.127.3-1.322 3.007-3.774 5.862-1.393 1.623-2.927 2.98-4.558 4.034-1.99 1.286-4.143 2.127-6.4 2.498a1.757 1.757 0 0 0-1.469 1.832c.015.259.076.517.181.766l.003.004c.358.838 1.189 1.55 2.54 2.178 1.65.767 4.117 1.411 7.334 1.916.162.309.33 1.086.448 1.617.122.566.25 1.147.431 1.764.196.67.705 1.469 2.012 1.469.495 0 1.065-.112 1.724-.24.966-.19 2.287-.448 3.936-.448.914 0 1.861.08 2.814.239 1.838.306 3.423 1.425 5.256 2.721 2.683 1.897 5.72 4.044 10.361 4.044.127 0 .254-.004.379-.013.153.008.343.013.544.013 4.642 0 7.679-2.148 10.359-4.043l.004-.004c1.834-1.294 3.417-2.412 5.254-2.718.953-.158 1.9-.239 2.814-.239 1.575 0 2.822.2 3.936.418.726.143 1.291.212 1.724.212h.087c.956 0 1.658-.524 1.926-1.442.178-.605.305-1.172.43-1.747.11-.498.284-1.297.447-1.61 3.219-.505 5.685-1.148 7.336-1.915 1.347-.625 2.177-1.336 2.537-2.17.108-.25.171-.51.186-.774a1.756 1.756 0 0 0-1.47-1.832C76.09 66.231 71.572 55.927 71.385 55.49a1.255 1.255 0 0 0-.04-.085c-.512-1.04-.63-1.9-.353-2.556.547-1.289 2.648-1.955 4.038-2.397.402-.127.781-.247 1.097-.372 1.369-.54 2.347-1.127 2.992-1.792.77-.794.92-1.554.91-2.052-.023-1.204-.943-2.274-2.407-2.798a4.306 4.306 0 0 0-1.633-.312c-.39 0-.97.053-1.518.31-1.173.548-2.224.848-3.126.891-.48-.024-.816-.128-1.034-.228.028-.47.058-.952.09-1.455l.012-.215c.322-5.091.72-11.427-.956-15.188-1.15-2.576-2.693-4.792-4.588-6.588a19.156 19.156 0 0 0-5.49-3.628 21.838 21.838 0 0 0-8.573-1.802" fill="#020202" fill-rule="nonzero"/><path d="M.115.498h99.96v99.964H.115z"/></g></svg>