<svg width="219" height="55" xmlns="http://www.w3.org/2000/svg"><g fill="#7C7C7C" fill-rule="nonzero"><path d="M109.096 19.062c-2.159.062-4.217.936-5.906 2.25-.604.431-1.34 1.144-1.738 1.79-.865 1.187-1.6 2.454-2.014 3.87-1.198 3.957-.985 8.438.932 12.132.746 1.313 1.546 2.453 2.726 3.427.957.596 2.07 1.38 3.256 1.69 3.243 1.029 7.002.5 9.713-1.597.678-.42 1.296-1.232 1.844-1.906-.04-.177.519-.903.562-.337-.002 4.022.002 8.081 0 12.119h3.656V19.625h-3.656V24c-.655-.96-1.233-2.011-2.156-2.625-2.018-1.62-4.622-2.516-7.219-2.313zm1.281 3.312c1.679-.004 3.583.47 4.781 1.532.956.774 1.67 1.591 2.187 2.729 1.367 2.938 1.488 6.433.42 9.485-.478 1.476-1.4 2.723-2.607 3.692-1.776 1.52-4.35 1.774-6.597 1.382-1.487-.255-2.75-1.106-3.705-2.238-1.78-1.954-2.287-4.78-2.254-7.369.09-2.246.52-4.603 1.9-6.431.929-1.149 2.143-2.141 3.631-2.493.723-.233 1.487-.31 2.244-.289zM82.238 9.656c-2.782.112-5.614.841-7.844 2.563-.457.304-.963.852-1.28 1.329-1.36 1.718-2.056 3.951-1.839 6.146.078 1.596.667 3.148 1.744 4.337.316.475.924 1.015 1.42 1.326 2.878 2.238 6.622 2.654 10.02 3.671 2.122.646 4.578 1.084 5.967 2.972 1.176 1.436 1.143 3.594.5 5.281-.55 1.382-1.75 2.37-3.031 3.063-2.682 1.16-5.788 1.084-8.562.308a10.72 10.72 0 0 1-5.301-3.604c-.347-.566-.656-.93-1.199-.277l-2.47 1.729c.662 1.038 1.442 2.035 2.375 2.75 1.597 1.22 3.328 2.3 5.291 2.807 3.673 1.094 7.751.98 11.303-.495 1.434-.748 2.803-1.505 3.817-2.761 1.312-1.55 2.155-3.725 2.195-5.845.108-2.034-.549-4.098-1.887-5.644-.255-.402-.716-.813-1.158-1.07-.669-.594-1.425-.966-2.245-1.41-3.656-1.828-7.824-2.223-11.558-3.821-1.144-.568-2.289-1.356-2.883-2.511-.889-1.973-.196-4.47 1.545-5.721 1.52-1.219 3.608-1.578 5.536-1.592 3.348-.034 6.742 1.426 8.763 4.125l3-2.25c-.877-1.22-1.974-2.167-3.174-2.976-2.65-1.742-5.876-2.593-9.045-2.43zM128.298 35.562c.004 2.147.44 4.378 1.75 6.125.573.931 1.703 1.672 2.707 2.22 2.625 1.214 5.775 1.029 8.374-.162 1.183-.64 2.32-1.437 3.075-2.464.347-.32.737-1.227.938-1.275v4.15h3.656V19.625h-3.656c-.026 5.01.059 10.023-.063 15.03-.295 2.017-1.212 3.965-2.875 5.188-2.016 1.536-4.937 1.91-7.312.969-1.664-.748-2.612-2.573-2.73-4.366-.287-3.137-.084-6.295-.145-9.44v-7.381h-3.72v15.938zM163.812 19.062c-3.174.103-6.318 1.135-8.906 2.969l1.594 2.687c2.154-1.653 4.927-2.33 7.606-2.437 1.951-.027 4.25.346 5.371 2.078.641 1.174.495 2.86-.603 3.703-.919.883-2.48 1.246-3.812 1.5-2.528.464-5.178.564-7.55 1.634-1.066.5-2.056 1.233-2.669 2.178-1.31 1.625-1.402 3.881-1.014 5.85.223 1.112.792 2.082 1.483 2.963.362.54 1.082.9 1.687 1.344 2.286 1.305 5.091 1.411 7.632.92 1.497-.341 2.879-1.109 3.955-2.084.565-.366.674-.977 1.163-1.336.469.127.104.88.219 1.25v1.875h3.531c-.026-6.365.06-12.731-.062-19.094-.286-1.746-1.214-3.55-2.739-4.4-1.996-1.309-4.527-1.734-6.886-1.6zm6.031 11.562c-.101 2.56.415 5.327-.865 7.679-1.053 1.91-3.143 3.037-5.297 3.204-1.91.16-4.137-.08-5.432-1.633-.92-1.126-1.097-2.836-.65-4.218.343-1.199 1.417-1.94 2.557-2.316 2.692-.925 5.625-.93 8.28-1.966.527-.292 1.01-.568 1.407-.969v.22zM185.15 21.475c-.593.653-1.148 1.472-1.662 2.275v-4.125h-3.656v24.53h3.656c.034-4.782-.076-9.57.077-14.348.283-2.315 1.25-4.67 3.22-6.026 1.756-1.322 4.272-1.423 6.297-.625.434-.222.26-.972.49-1.396l.478-1.823c-1.105-.64-2.425-.857-3.687-.781-1.951.152-3.86 1.042-5.213 2.319zM206.34 19.062c-2.138.037-4.199.798-5.969 1.969-.356.27-.78.582-1.164.914-.915.886-1.606 1.976-2.273 3.117-1.808 3.568-2.013 7.85-.875 11.658.497 1.745 1.552 3.365 2.68 4.663.46.473.965.864 1.413 1.179 1.864 1.344 4.128 2.07 6.425 2.14 3.056.17 6.255-.552 8.64-2.543.75-.508 1.367-1.11 1.967-1.847l-2.47-2.25a8.412 8.412 0 0 1-5.16 3.114c-2.83.549-6.116-.053-8.074-2.287-1.646-1.583-2.182-4.006-2.234-6.234.347-.564 1.217-.09 1.788-.25h17.119c.412-3.323-.349-6.85-2.457-9.494-.506-.782-1.323-1.35-2.106-1.912-2.065-1.47-4.734-2.092-7.25-1.938zm1.313 3.125c2.44.146 4.8 1.515 5.932 3.686a9.367 9.367 0 0 1 .88 3.72h-15.188c.237-1.797.666-3.73 2-5.03.239-.412.903-.815 1.291-1.206 1.488-.969 3.328-1.293 5.084-1.17zM44.333.901H8.867c-4.876 0-8.868 3.99-8.868 8.868v35.466c0 4.875 3.992 8.864 8.868 8.864h35.466c4.876 0 8.868-3.99 8.868-8.864V9.769C53.2 4.89 49.209.9 44.333.9zm-.806 40.709c0 1.55-1.27 2.815-2.82 2.815H12.49a2.825 2.825 0 0 1-2.82-2.815V13.395c0-1.55 1.27-2.82 2.82-2.82h28.216c1.55 0 2.82 1.27 2.82 2.82V41.61zm-9.67-8.468c0 .89-.726 1.613-1.61 1.613H20.961c-.887 0-1.61-.723-1.61-1.613V21.86c0-.886.723-1.611 1.61-1.611h11.284c.885 0 1.61.725 1.61 1.611v11.283z"/></g></svg>