<svg width="116" height="48" xmlns="http://www.w3.org/2000/svg"><path d="M105.61 17.633c-2.333 0-2.09 2.891-2.186 5.978h3.887c0-3.48 0-5.978-1.701-5.978zm-2.186 11.025c0 2.792 1.36 3.331 3.644 3.331 2.625 0 6.172-.784 7.533-1.029v6.762c-1.069.393-4.325 1.323-7.533 1.323-5.783 0-12.83-.931-12.83-13.376 0-10.976 5.54-13.572 11.371-13.572 5.978 0 10.303 3.087 10.303 13.474v3.087h-12.489zm-22.797-9.702c-.534 0-1.604.441-2.187.785v12.543c.437.147 1.215.245 1.555.245 1.604 0 2.576-1.372 2.576-7.104 0-5.831-.438-6.468-1.944-6.468zm1.069 20.09c-1.167 0-2.382-.344-3.256-.54v9.359h-9.234V12.587h7.484l1.36 1.617a8.313 8.313 0 0 1 5.493-2.107c3.79 0 8.261 1.077 8.261 13.327 0 13.426-6.706 13.622-10.109 13.622zM60.699 9.401c-2.576 0-4.568-2.107-4.568-4.655S58.123.092 60.699.092c2.576 0 4.568 2.107 4.568 4.655S63.275 9.402 60.7 9.402zm-4.617 29.154V12.587h9.234v25.97h-9.234zm-5.591-18.668c-1.458 0-2.576.588-3.062.882v17.786h-9.234V12.587h7.339l1.36 2.499c.535-1.617 1.993-2.99 4.131-2.99 1.458 0 2.43.295 2.867.54v7.741c-.923-.244-2.138-.489-3.401-.489zM32.944 31.99c.583 0 2.624-.293 3.304-.392v6.615c-1.409.342-4.52.833-6.56.833-2.625 0-7.533-.294-7.533-7.497V18.516h-3.402v-5.928h3.402l1.167-5.88 8.067-1.96v7.84h4.86l-1.215 5.929H31.39v11.368c0 1.763.534 2.106 1.555 2.106zM9.079 20.084c0 1.03.68 1.372 2.284 2.107l.972.441c2.284 1.03 5.443 2.695 5.443 7.595 0 7.84-5.784 8.82-9.914 8.82-2.673 0-5.492-.638-7.388-1.225v-6.713c1.652.442 4.52 1.127 5.784 1.127 1.409 0 2.478-.196 2.478-1.47 0-.98-.68-1.42-2.187-2.106l-1.166-.54C3.198 27.091.087 25.328.087 20.575c0-6.958 5.395-8.476 9.915-8.476 3.402 0 5.637.783 6.804 1.224v6.517c-1.361-.44-4.13-1.029-5.783-1.029-1.118 0-1.944.293-1.944 1.273z" fill="#222" fill-rule="nonzero" opacity=".597"/></svg>