<svg width="138" height="41" xmlns="http://www.w3.org/2000/svg"><g fill="#222" fill-rule="nonzero" opacity=".597"><path d="M96.765 8.036h-7.272c-.165 0-.33.164-.33.328v4.182c0 .164.165.328.33.328h7.272c.165 0 .33-.164.33-.328V8.364c.083-.164-.082-.328-.33-.328zm-.083 6.232H82.634c-.165 0-.413.164-.495.328l-1.818 6.806-.083.328-2.149-7.298c-.082-.164-.247-.328-.495-.328H72.14c-.166 0-.413.164-.496.328l-2.066 6.806-.083.328-.082-.164-.827-3.362-.909-3.362c-.082-.164-.248-.328-.495-.328h-10.99V8.446c0-.164-.248-.41-.496-.328l-6.942 2.132c-.247.082-.33.164-.33.328v3.69h-1.818c-.165 0-.33.164-.33.328v5.248c0 .164.165.328.33.328h1.818v6.396c0 4.51 2.479 6.642 7.024 6.642 1.9 0 3.719-.41 4.958-1.066v-5.412c0-.246-.248-.328-.413-.328a4.534 4.534 0 0 1-1.983.41c-1.24 0-1.9-.492-1.9-1.886v-4.674h3.966c.165 0 .33-.164.33-.328v-4.428l5.206 17.138c.083.164.248.328.496.328h5.784c.166 0 .413-.164.496-.328l2.48-7.626 1.239 3.936 1.157 3.608c.082.164.247.328.495.328h5.785c.165 0 .413-.164.496-.328l5.288-17.22v17.22c0 .164.165.328.33.328h7.025c.165 0 .33-.164.33-.328V14.678c0-.246-.165-.41-.33-.41zm9.255-6.232h-7.024c-.165 0-.33.164-.33.328v24.19c0 .164.165.328.33.328h7.024c.166 0 .331-.164.331-.328V8.364c0-.164-.165-.328-.33-.328zm9.338 0h-7.272c-.165 0-.33.164-.33.328v4.182c0 .164.165.328.33.328h7.272c.165 0 .33-.164.33-.328V8.364c.083-.164-.082-.328-.33-.328zm-.082 6.232h-7.024c-.166 0-.331.164-.331.328v17.958c0 .164.165.328.33.328h7.025c.165 0 .33-.164.33-.328V14.678c0-.246-.165-.41-.33-.41zm11.65-.41c-6.197 0-10.576 4.51-10.576 9.758v.082c0 5.248 4.38 9.676 10.495 9.676 6.197 0 10.577-4.51 10.577-9.758v-.082c0-5.248-4.38-9.676-10.495-9.676zm2.975 9.758c0 1.804-1.24 3.198-2.974 3.198-1.736 0-3.058-1.476-3.058-3.28v-.082c0-1.804 1.24-3.198 2.975-3.198s3.057 1.476 3.057 3.362zM20.658 0C9.254 0 0 9.184 0 20.5S9.255 41 20.66 41c11.403 0 20.658-9.184 20.658-20.5S32.062 0 20.658 0zm0 35.588c-8.428 0-15.205-6.724-15.205-15.088S12.23 5.412 20.658 5.412 35.863 12.136 35.863 20.5s-6.776 15.088-15.205 15.088z"/><ellipse cx="25.782" cy="15.416" rx="4.297" ry="4.264"/><ellipse cx="25.782" cy="25.584" rx="4.297" ry="4.264"/><ellipse cx="15.535" cy="25.584" rx="4.297" ry="4.264"/><ellipse cx="15.535" cy="15.416" rx="4.297" ry="4.264"/></g></svg>