<svg width="399" height="166" viewBox="0 0 399 166" fill="none" xmlns="http://www.w3.org/2000/svg">
<path d="M37.6374 80.2678C43.5628 80.2678 48.3663 75.4658 48.3663 69.5423C48.3663 63.6188 43.5628 58.8169 37.6374 58.8169C31.7119 58.8169 26.9084 63.6188 26.9084 69.5423C26.9084 75.4658 31.7119 80.2678 37.6374 80.2678Z" fill="#BF0D0D"/>
<path d="M59.8981 102.393C65.8235 102.393 70.627 97.5914 70.627 91.6679C70.627 85.7444 65.8235 80.9425 59.8981 80.9425C53.9727 80.9425 49.1692 85.7444 49.1692 91.6679C49.1692 97.5914 53.9727 102.393 59.8981 102.393Z" fill="#BF0D0D"/>
<path d="M48.7247 52.4511C54.6501 52.4511 59.4536 47.6492 59.4536 41.7257C59.4536 35.8022 54.6501 31.0002 48.7247 31.0002C42.7993 31.0002 37.9957 35.8022 37.9957 41.7257C37.9957 47.6492 42.7993 52.4511 48.7247 52.4511Z" fill="#BF0D0D"/>
<path d="M69.3938 72.0229C75.3193 72.0229 80.1228 67.221 80.1228 61.2975C80.1228 55.374 75.3193 50.5721 69.3938 50.5721C63.4684 50.5721 58.6649 55.374 58.6649 61.2975C58.6649 67.221 63.4684 72.0229 69.3938 72.0229Z" fill="#BF0D0D"/>
<path d="M88.4705 91.1088C94.396 91.1088 99.1995 86.3068 99.1995 80.3833C99.1995 74.4598 94.396 69.6579 88.4705 69.6579C82.5451 69.6579 77.7416 74.4598 77.7416 80.3833C77.7416 86.3068 82.5451 91.1088 88.4705 91.1088Z" fill="#BF0D0D"/>
<path d="M118.979 82.7487C124.905 82.7487 129.708 77.9467 129.708 72.0232C129.708 66.0997 124.905 61.2978 118.979 61.2978C113.054 61.2978 108.25 66.0997 108.25 72.0232C108.25 77.9467 113.054 82.7487 118.979 82.7487Z" fill="#BF0D0D"/>
<path d="M27.3675 33.5231C33.2929 33.5231 38.0964 28.7212 38.0964 22.7977C38.0964 16.8742 33.2929 12.0723 27.3675 12.0723C21.4421 12.0723 16.6385 16.8742 16.6385 22.7977C16.6385 28.7212 21.4421 33.5231 27.3675 33.5231Z" fill="#BF0D0D"/>
<path d="M11.0732 59.1909C16.9986 59.1909 21.8021 54.3889 21.8021 48.4654C21.8021 42.5419 16.9986 37.74 11.0732 37.74C5.14774 37.74 0.344238 42.5419 0.344238 48.4654C0.344238 54.3889 5.14774 59.1909 11.0732 59.1909Z" fill="#BF0D0D"/>
<path d="M10.7289 90.8219C16.6544 90.8219 21.4579 86.02 21.4579 80.0965C21.4579 74.173 16.6544 69.371 10.7289 69.371C4.80352 69.371 0 74.173 0 80.0965C0 86.02 4.80352 90.8219 10.7289 90.8219Z" fill="#BF0D0D"/>
<path d="M26.4782 116.832C32.4036 116.832 37.2071 112.03 37.2071 106.106C37.2071 100.183 32.4036 95.381 26.4782 95.381C20.5528 95.381 15.7493 100.183 15.7493 106.106C15.7493 112.03 20.5528 116.832 26.4782 116.832Z" fill="#BF0D0D"/>
<path d="M53.4871 131C59.4125 131 64.216 126.198 64.216 120.274C64.216 114.351 59.4125 109.549 53.4871 109.549C47.5617 109.549 42.7582 114.351 42.7582 120.274C42.7582 126.198 47.5617 131 53.4871 131Z" fill="#BF0D0D"/>
<path d="M85.057 128.705C90.9824 128.705 95.7859 123.903 95.7859 117.98C95.7859 112.056 90.9824 107.254 85.057 107.254C79.1315 107.254 74.328 112.056 74.328 117.98C74.328 123.903 79.1315 128.705 85.057 128.705Z" fill="#BF0D0D"/>
<path d="M109.656 110.868C115.582 110.868 120.385 106.066 120.385 100.143C120.385 94.219 115.582 89.4171 109.656 89.4171C103.731 89.4171 98.9274 94.219 98.9274 100.143C98.9274 106.066 103.731 110.868 109.656 110.868Z" fill="#BF0D0D"/>
<path d="M56.1117 14.4535C60.1042 14.4535 63.3408 11.218 63.3408 7.22676C63.3408 3.23553 60.1042 0 56.1117 0C52.1192 0 48.8826 3.23553 48.8826 7.22676C48.8826 11.218 52.1192 14.4535 56.1117 14.4535Z" fill="#BF0D0D"/>
<path d="M74.3709 37.0228C78.3635 37.0228 81.6001 33.7873 81.6001 29.796C81.6001 25.8048 78.3635 22.5693 74.3709 22.5693C70.3784 22.5693 67.1418 25.8048 67.1418 29.796C67.1418 33.7873 70.3784 37.0228 74.3709 37.0228Z" fill="#BF0D0D"/>
<path d="M85.8743 16.7048C89.4232 16.7048 92.3001 13.8288 92.3001 10.281C92.3001 6.73327 89.4232 3.85724 85.8743 3.85724C82.3253 3.85724 79.4484 6.73327 79.4484 10.281C79.4484 13.8288 82.3253 16.7048 85.8743 16.7048Z" fill="#BF0D0D"/>
<path d="M106.084 27.1997C108.738 27.1997 110.889 25.0491 110.889 22.3962C110.889 19.7433 108.738 17.5927 106.084 17.5927C103.431 17.5927 101.279 19.7433 101.279 22.3962C101.279 25.0491 103.431 27.1997 106.084 27.1997Z" fill="#BF0D0D"/>
<path d="M119.438 46.8881C121.712 46.8881 123.555 45.0457 123.555 42.7729C123.555 40.5001 121.712 38.6577 119.438 38.6577C117.165 38.6577 115.322 40.5001 115.322 42.7729C115.322 45.0457 117.165 46.8881 119.438 46.8881Z" fill="#BF0D0D"/>
<path d="M96.6465 54.8163C100.132 54.8163 102.958 51.9917 102.958 48.5073C102.958 45.0229 100.132 42.1982 96.6465 42.1982C93.1609 42.1982 90.3353 45.0229 90.3353 48.5073C90.3353 51.9917 93.1609 54.8163 96.6465 54.8163Z" fill="#BF0D0D"/>
<path d="M174.874 36.7427C171.125 36.7427 168.181 35.6891 166.062 33.5817C163.943 31.4744 162.878 28.422 162.878 24.4355V8.99988H167.963V24.24C167.963 27.0534 168.572 29.0955 169.778 30.3773C170.995 31.6591 172.701 32.2891 174.918 32.2891C177.134 32.2891 178.84 31.6482 180.035 30.3773C181.231 29.1064 181.839 27.0534 181.839 24.24V8.99988H186.838V24.4355C186.838 28.422 185.773 31.4635 183.654 33.5817C181.524 35.6891 178.601 36.7427 174.885 36.7427H174.874Z" fill="#1D1D1B"/>
<path d="M193.944 36.351V9.01007H198.127L215.285 30.0616H213.209V9.01007H218.251V36.351H214.068L196.91 15.2995H198.986V36.351H193.944Z" fill="#1D1D1B"/>
<path d="M225.597 36.351V9.01007H230.671V36.351H225.597Z" fill="#1D1D1B"/>
<path d="M243.612 36.3517V13.3014H234.55V8.99988H257.76V13.3014H248.698V36.3517H243.612Z" fill="#1D1D1B"/>
<path d="M266.67 32.0929H282.1V36.351H261.585V9.01007H281.557V13.2682H266.67V32.1038V32.0929ZM266.279 20.3723H279.873V24.5543H266.279V20.3723Z" fill="#1D1D1B"/>
<path d="M287.772 36.351V9.01007H299.725C302.691 9.01007 305.299 9.58579 307.538 10.7263C309.776 11.8778 311.526 13.4637 312.775 15.495C314.025 17.5263 314.655 19.9269 314.655 22.686C314.655 25.4451 314.025 27.8131 312.775 29.8552C311.526 31.8974 309.776 33.4942 307.538 34.6456C305.299 35.7862 302.691 36.3619 299.725 36.3619H287.772V36.351ZM292.847 32.0603H299.486C301.54 32.0603 303.322 31.6693 304.821 30.8872C306.321 30.1051 307.483 29.008 308.298 27.6067C309.124 26.2054 309.526 24.5543 309.526 22.686C309.526 20.8176 309.113 19.1339 308.298 17.7435C307.472 16.3531 306.321 15.2669 304.821 14.4848C303.322 13.7027 301.55 13.3116 299.486 13.3116H292.847V32.0603Z" fill="#1D1D1B"/>
<path d="M173.668 80.542C171.527 80.542 169.484 80.2378 167.529 79.6295C165.573 79.0212 164.019 78.2283 162.878 77.2724L164.638 73.3293C165.736 74.1874 167.083 74.9043 168.702 75.48C170.321 76.0558 171.973 76.3382 173.668 76.3382C175.102 76.3382 176.254 76.1861 177.145 75.8711C178.036 75.5561 178.677 75.1324 179.101 74.6002C179.514 74.0679 179.72 73.4596 179.72 72.7861C179.72 71.9497 179.416 71.2871 178.818 70.7766C178.221 70.266 177.438 69.8641 176.493 69.5708C175.537 69.2667 174.483 68.9951 173.331 68.7344C172.168 68.4737 171.017 68.1696 169.854 67.822C168.691 67.4744 167.637 67.0182 166.692 66.4533C165.736 65.8993 164.964 65.1389 164.367 64.2048C163.769 63.2706 163.465 62.0648 163.465 60.6093C163.465 59.1537 163.867 57.7633 164.66 56.525C165.453 55.2867 166.67 54.2982 168.289 53.5595C169.919 52.8209 171.984 52.4515 174.483 52.4515C176.124 52.4515 177.754 52.6579 179.373 53.0815C180.992 53.4943 182.393 54.0918 183.589 54.8739L181.991 58.817C180.763 58.0892 179.503 57.546 178.199 57.1984C176.895 56.8508 175.646 56.6662 174.45 56.6662C173.049 56.6662 171.908 56.84 171.027 57.1767C170.158 57.5135 169.517 57.9588 169.115 58.5019C168.713 59.0451 168.507 59.6751 168.507 60.3812C168.507 61.2176 168.8 61.891 169.387 62.3907C169.973 62.9013 170.745 63.2923 171.69 63.5856C172.636 63.868 173.701 64.1504 174.874 64.422C176.048 64.6936 177.21 64.9977 178.373 65.3345C179.536 65.6712 180.59 66.1166 181.535 66.6597C182.48 67.2028 183.252 67.9523 183.839 68.8865C184.425 69.8207 184.719 71.0047 184.719 72.4385C184.719 73.8724 184.317 75.2411 183.523 76.4794C182.73 77.7177 181.513 78.7062 179.872 79.4449C178.232 80.1835 176.156 80.5528 173.657 80.5528L173.668 80.542Z" fill="#1D1D1B"/>
<path d="M194.857 75.8928H210.287V80.1509H189.772V52.81H209.743V57.0681H194.857V75.9037V75.8928ZM194.455 64.1722H208.048V68.3543H194.455V64.1722Z" fill="#1D1D1B"/>
<path d="M228.618 80.5421C226.531 80.5421 224.597 80.1945 222.815 79.5101C221.033 78.8149 219.479 77.8482 218.165 76.5773C216.85 75.3172 215.828 73.8182 215.1 72.1019C214.372 70.3857 214.003 68.5064 214.003 66.4751C214.003 64.4439 214.372 62.5646 215.1 60.8484C215.828 59.1321 216.861 57.6439 218.186 56.373C219.512 55.113 221.066 54.1353 222.837 53.4401C224.608 52.7449 226.553 52.4082 228.661 52.4082C230.9 52.4082 232.942 52.7884 234.8 53.5596C236.648 54.3309 238.212 55.4714 239.495 56.9813L236.213 60.0663C235.224 59.0017 234.116 58.1979 232.888 57.6657C231.66 57.1334 230.334 56.8618 228.9 56.8618C227.466 56.8618 226.162 57.0899 224.978 57.5679C223.793 58.035 222.761 58.6976 221.892 59.5557C221.022 60.4139 220.338 61.4349 219.86 62.6081C219.382 63.7812 219.142 65.0739 219.142 66.4751C219.142 67.8764 219.382 69.1691 219.86 70.3422C220.338 71.5154 221.022 72.5256 221.892 73.3946C222.761 74.2527 223.793 74.9153 224.978 75.3933C226.162 75.8604 227.477 76.0993 228.9 76.0993C230.324 76.0993 231.66 75.8278 232.888 75.2955C234.116 74.7632 235.224 73.9486 236.213 72.8514L239.495 75.9798C238.223 77.468 236.659 78.5977 234.8 79.3798C232.953 80.1619 230.889 80.553 228.629 80.553L228.618 80.5421Z" fill="#1D1D1B"/>
<path d="M256.087 80.5427C252.338 80.5427 249.393 79.489 247.274 77.3817C245.156 75.2743 244.091 72.222 244.091 68.2354V52.7998H249.165V68.0399C249.165 70.8533 249.774 72.8954 250.98 74.1772C252.186 75.459 253.903 76.089 256.119 76.089C258.336 76.089 260.042 75.4481 261.237 74.1772C262.433 72.9063 263.03 70.8533 263.03 68.0399V52.7998H268.029V68.2354C268.029 72.222 266.964 75.2635 264.845 77.3817C262.726 79.489 259.792 80.5427 256.076 80.5427H256.087Z" fill="#1D1D1B"/>
<path d="M275.157 80.1509V52.81H286.414C288.837 52.81 290.913 53.201 292.651 53.9832C294.379 54.7653 295.715 55.8841 296.661 57.3397C297.595 58.7953 298.062 60.5333 298.062 62.532C298.062 64.5307 297.595 66.2686 296.661 67.7134C295.726 69.1581 294.39 70.2661 292.651 71.0373C290.923 71.8085 288.837 72.1887 286.414 72.1887H277.971L280.242 69.8859V80.1618H275.157V80.1509ZM280.231 70.429L277.96 68.0066H286.164C288.402 68.0066 290.087 67.5287 291.228 66.5619C292.358 65.5952 292.934 64.2591 292.934 62.5428C292.934 60.8265 292.369 59.4579 291.228 58.5237C290.098 57.5895 288.402 57.1224 286.164 57.1224H277.96L280.231 54.6241V70.4507V70.429ZM293.053 80.1509L286.131 70.2335H291.564L298.519 80.1509H293.042H293.053Z" fill="#1D1D1B"/>
<path d="M303.724 80.1509V52.81H308.798V80.1509H303.724Z" fill="#1D1D1B"/>
<path d="M321.74 80.1516V57.1014H312.677V52.7998H335.887V57.1014H326.825V80.1516H321.75H321.74Z" fill="#1D1D1B"/>
<path d="M349.654 80.1509V69.3319L350.785 72.4603L338.908 52.81H344.341L353.881 68.6258H350.828L360.444 52.81H365.443L353.566 72.4603L354.74 69.3319V80.1509H349.654Z" fill="#1D1D1B"/>
<path d="M162.878 123.961V96.6202H174.135C176.558 96.6202 178.634 97.0112 180.372 97.7933C182.1 98.5754 183.437 99.6943 184.382 101.15C185.316 102.605 185.784 104.343 185.784 106.342C185.784 108.341 185.316 110.079 184.382 111.534C183.447 112.99 182.111 114.109 180.372 114.891C178.645 115.673 176.558 116.064 174.135 116.064H165.692L167.963 113.685V123.961H162.889H162.878ZM167.952 114.239L165.681 111.773H173.885C176.124 111.773 177.808 111.295 178.949 110.35C180.079 109.394 180.644 108.058 180.644 106.342C180.644 104.626 180.079 103.257 178.949 102.323C177.819 101.389 176.124 100.922 173.885 100.922H165.681L167.952 98.4234V114.25V114.239Z" fill="#1D1D1B"/>
<path d="M190.858 123.961V96.6202H202.115C204.538 96.6202 206.614 97.0112 208.352 97.7933C210.08 98.5754 211.416 99.6943 212.362 101.15C213.296 102.605 213.763 104.343 213.763 106.342C213.763 108.341 213.296 110.079 212.362 111.524C211.427 112.968 210.091 114.076 208.352 114.847C206.624 115.619 204.538 115.999 202.115 115.999H193.672L195.943 113.696V123.972H190.858V123.961ZM195.932 114.239L193.661 111.817H201.865C204.104 111.817 205.788 111.339 206.929 110.372C208.059 109.405 208.635 108.069 208.635 106.353C208.635 104.637 208.07 103.268 206.929 102.334C205.799 101.4 204.104 100.933 201.865 100.933H193.661L195.932 98.4342V114.261V114.239ZM208.754 123.961L201.833 114.044H207.266L214.22 123.961H208.743H208.754Z" fill="#1D1D1B"/>
<path d="M232.236 124.352C230.095 124.352 228.129 124.005 226.336 123.299C224.532 122.592 222.978 121.615 221.642 120.344C220.316 119.084 219.284 117.596 218.556 115.89C217.828 114.185 217.458 112.317 217.458 110.285C217.458 108.254 217.828 106.386 218.556 104.68C219.284 102.975 220.316 101.487 221.642 100.227C222.967 98.9665 224.532 97.978 226.336 97.272C228.129 96.5659 230.085 96.2183 232.193 96.2183C234.301 96.2183 236.289 96.5659 238.071 97.272C239.853 97.978 241.407 98.9557 242.744 100.227C244.069 101.487 245.101 102.975 245.829 104.68C246.558 106.386 246.927 108.254 246.927 110.285C246.927 112.317 246.558 114.196 245.829 115.912C245.101 117.628 244.069 119.116 242.744 120.366C241.418 121.615 239.853 122.592 238.071 123.299C236.289 124.005 234.344 124.352 232.225 124.352H232.236ZM232.203 119.899C233.583 119.899 234.866 119.66 236.028 119.193C237.202 118.725 238.212 118.052 239.082 117.183C239.94 116.314 240.614 115.293 241.092 114.131C241.57 112.968 241.82 111.687 241.82 110.285C241.82 108.884 241.581 107.591 241.092 106.44C240.614 105.278 239.94 104.267 239.082 103.388C238.223 102.519 237.202 101.845 236.028 101.378C234.855 100.911 233.583 100.672 232.203 100.672C230.824 100.672 229.552 100.9 228.389 101.378C227.227 101.856 226.216 102.519 225.336 103.388C224.467 104.257 223.782 105.278 223.304 106.44C222.815 107.602 222.576 108.884 222.576 110.285C222.576 111.687 222.815 112.947 223.304 114.109C223.782 115.282 224.456 116.303 225.314 117.172C226.173 118.041 227.194 118.715 228.368 119.182C229.541 119.649 230.813 119.888 232.193 119.888L232.203 119.899Z" fill="#1D1D1B"/>
<path d="M259.553 123.961L247.601 96.6202H253.11L263.78 121.354H260.618L271.408 96.6202H276.494L264.573 123.961H259.575H259.553Z" fill="#1D1D1B"/>
<path d="M279.373 123.961V96.6202H284.458V123.961H279.373Z" fill="#1D1D1B"/>
<path d="M291.836 123.961V96.6202H303.789C306.755 96.6202 309.363 97.1959 311.602 98.3365C313.84 99.4879 315.589 101.074 316.839 103.105C318.089 105.136 318.719 107.537 318.719 110.296C318.719 113.055 318.099 115.423 316.839 117.465C315.589 119.507 313.84 121.104 311.602 122.256C309.363 123.396 306.755 123.972 303.789 123.972H291.836V123.961ZM296.911 119.67H303.55C305.603 119.67 307.386 119.279 308.885 118.497C310.385 117.715 311.547 116.618 312.362 115.217C313.188 113.816 313.59 112.164 313.59 110.296C313.59 108.428 313.177 106.744 312.362 105.354C311.536 103.963 310.385 102.877 308.885 102.095C307.386 101.313 305.614 100.922 303.55 100.922H296.911V119.67Z" fill="#1D1D1B"/>
<path d="M329.194 119.703H344.634V123.961H324.119V96.6202H344.091V100.878H329.205V119.714L329.194 119.703ZM328.803 107.982H342.407V112.164H328.803V107.982Z" fill="#1D1D1B"/>
<path d="M350.296 123.961V96.6202H361.553C363.976 96.6202 366.051 97.0112 367.79 97.7933C369.518 98.5754 370.854 99.6943 371.8 101.15C372.734 102.605 373.201 104.343 373.201 106.342C373.201 108.341 372.734 110.079 371.8 111.524C370.865 112.968 369.529 114.076 367.79 114.847C366.062 115.619 363.976 115.999 361.553 115.999H353.11L355.381 113.696V123.972H350.296V123.961ZM355.37 114.239L353.099 111.817H361.303C363.541 111.817 365.237 111.339 366.367 110.372C367.497 109.405 368.062 108.069 368.062 106.353C368.062 104.637 367.497 103.268 366.367 102.334C365.237 101.4 363.541 100.933 361.303 100.933H353.099L355.37 98.4342V114.261V114.239ZM368.192 123.961L361.27 114.044H366.703L373.658 123.961H368.181H368.192Z" fill="#1D1D1B"/>
<path d="M387.338 124.352C385.198 124.352 383.155 124.048 381.199 123.44C379.243 122.831 377.689 122.038 376.548 121.082L378.309 117.139C379.406 117.998 380.753 118.714 382.372 119.29C383.991 119.866 385.643 120.148 387.338 120.148C388.773 120.148 389.935 119.996 390.815 119.681C391.695 119.366 392.347 118.943 392.771 118.41C393.184 117.878 393.391 117.27 393.391 116.596C393.391 115.76 393.086 115.097 392.489 114.587C391.891 114.076 391.109 113.674 390.163 113.381C389.207 113.077 388.153 112.805 387.001 112.545C385.839 112.284 384.687 111.98 383.524 111.632C382.362 111.284 381.308 110.828 380.362 110.263C379.406 109.709 378.634 108.949 378.037 108.015C377.439 107.081 377.135 105.875 377.135 104.419C377.135 102.964 377.537 101.573 378.33 100.335C379.123 99.0968 380.34 98.1083 381.97 97.3696C383.6 96.631 385.665 96.2617 388.164 96.2617C389.805 96.2617 391.435 96.468 393.054 96.8917C394.673 97.3044 396.075 97.9019 397.27 98.684L395.672 102.627C394.445 101.899 393.184 101.356 391.88 101.009C390.576 100.661 389.327 100.476 388.131 100.476C386.73 100.476 385.589 100.65 384.709 100.987C383.839 101.324 383.198 101.769 382.796 102.312C382.394 102.855 382.188 103.485 382.188 104.191C382.188 105.028 382.481 105.701 383.068 106.201C383.655 106.711 384.426 107.102 385.371 107.396C386.328 107.678 387.382 107.961 388.555 108.232C389.729 108.504 390.891 108.808 392.054 109.145C393.217 109.481 394.271 109.927 395.216 110.47C396.161 111.013 396.933 111.762 397.52 112.697C398.106 113.631 398.4 114.815 398.4 116.249C398.4 117.683 397.998 119.051 397.205 120.29C396.411 121.528 395.194 122.516 393.554 123.255C391.913 123.994 389.837 124.363 387.338 124.363V124.352Z" fill="#1D1D1B"/>
<path d="M397.443 157.565V159.398H392.017V163.117H398L397.731 164.914H389.897V152.588H397.677V154.403H392.017V157.565H397.443Z" fill="#BF0D0D"/>
<path d="M376.199 161.338H378.355C378.553 162.614 379.397 163.369 380.763 163.369C382.2 163.369 382.847 162.704 382.847 161.662C382.847 160.458 382.182 159.955 380.278 159.38C377.511 158.589 376.523 157.637 376.523 155.858C376.523 153.666 378.248 152.426 380.565 152.426C383.422 152.426 384.644 153.972 384.77 155.876H382.632C382.47 154.834 381.931 154.115 380.547 154.115C379.326 154.115 378.715 154.69 378.715 155.643C378.715 156.649 379.344 156.972 381.176 157.511C384.285 158.428 385.075 159.649 385.075 161.41C385.075 163.423 383.71 165.076 380.673 165.076C378.014 165.076 376.343 163.71 376.199 161.338Z" fill="#BF0D0D"/>
<path d="M367.229 159.65H365.378V164.914H363.24V152.588H368.037C370.319 152.588 371.936 153.702 371.936 155.859C371.936 157.583 370.984 158.392 369.978 158.751C371.217 159.2 371.703 160.189 371.703 161.77V162.057C371.703 163.171 371.756 164.213 371.864 164.914H369.762C369.582 164.411 369.528 163.477 369.528 162.039V161.734C369.528 160.207 368.971 159.65 367.229 159.65ZM365.378 154.331V157.907H367.39C368.738 157.907 369.762 157.529 369.762 156.038C369.762 154.834 368.918 154.331 367.75 154.331H365.378Z" fill="#BF0D0D"/>
<path d="M358.107 157.565V159.398H352.681V163.117H358.664L358.395 164.914H350.561V152.588H358.341V154.403H352.681V157.565H358.107Z" fill="#BF0D0D"/>
<path d="M342.233 164.914H339.628L335.621 152.588H337.957L339.7 158.356C340.203 160.009 340.706 161.716 340.957 162.866H340.993C341.245 161.788 341.802 160.009 342.305 158.392L344.138 152.588H346.384L342.233 164.914Z" fill="#BF0D0D"/>
<path d="M329.185 152.588H331.359V164.914H329.185V152.588Z" fill="#BF0D0D"/>
<path d="M315.956 164.914H313.962V152.588H316.765C320.862 160.53 321.472 161.734 321.67 162.309H321.706C321.58 160.782 321.562 158.769 321.562 156.757V152.588H323.575V164.914H320.897C316.513 156.236 316.1 155.319 315.884 154.834H315.866C315.956 156.415 315.956 158.518 315.956 160.728V164.914Z" fill="#BF0D0D"/>
<path d="M299.156 152.588H301.348V160.44C301.348 162.021 301.833 163.333 303.845 163.333C305.822 163.333 306.289 162.075 306.289 160.422V152.588H308.499V160.494C308.499 163.082 307.403 165.094 303.791 165.094C300.306 165.094 299.156 163.243 299.156 160.53V152.588Z" fill="#BF0D0D"/>
<path d="M281.909 164.914V154.403H278.477V152.588H287.551V154.403H284.101V164.914H281.909Z" fill="#BF0D0D"/>
<path d="M266.122 161.338H268.278C268.476 162.614 269.32 163.369 270.686 163.369C272.123 163.369 272.77 162.704 272.77 161.662C272.77 160.458 272.105 159.955 270.201 159.38C267.434 158.589 266.446 157.637 266.446 155.858C266.446 153.666 268.171 152.426 270.488 152.426C273.345 152.426 274.567 153.972 274.693 155.876H272.555C272.393 154.834 271.854 154.115 270.47 154.115C269.249 154.115 268.638 154.69 268.638 155.643C268.638 156.649 269.267 156.972 271.099 157.511C274.208 158.428 274.998 159.649 274.998 161.41C274.998 163.423 273.633 165.076 270.596 165.076C267.937 165.076 266.266 163.71 266.122 161.338Z" fill="#BF0D0D"/>
<path d="M252.299 152.588H254.491V160.44C254.491 162.021 254.977 163.333 256.989 163.333C258.965 163.333 259.433 162.075 259.433 160.422V152.588H261.643V160.494C261.643 163.082 260.547 165.094 256.935 165.094C253.449 165.094 252.299 163.243 252.299 160.53V152.588Z" fill="#BF0D0D"/>
<path d="M242.736 159.65H240.885V164.914H238.747V152.588H243.544C245.826 152.588 247.443 153.702 247.443 155.859C247.443 157.583 246.491 158.392 245.485 158.751C246.725 159.2 247.21 160.189 247.21 161.77V162.057C247.21 163.171 247.264 164.213 247.371 164.914H245.269C245.09 164.411 245.036 163.477 245.036 162.039V161.734C245.036 160.207 244.479 159.65 242.736 159.65ZM240.885 154.331V157.907H242.897C244.245 157.907 245.269 157.529 245.269 156.038C245.269 154.834 244.425 154.331 243.257 154.331H240.885Z" fill="#BF0D0D"/>
<path d="M228.771 164.914V154.403H225.339V152.588H234.413V154.403H230.963V164.914H228.771Z" fill="#BF0D0D"/>
<path d="M209.089 152.408C212.7 152.408 214.407 155.283 214.407 158.679C214.407 162.237 212.718 165.094 208.927 165.094C205.244 165.094 203.591 162.237 203.591 158.679C203.591 155.571 205.262 152.408 209.089 152.408ZM208.999 154.169C206.789 154.169 205.855 156.164 205.855 158.661C205.855 161.284 206.897 163.351 209.017 163.351C211.299 163.351 212.179 161.374 212.179 158.697C212.179 156.236 211.299 154.169 208.999 154.169Z" fill="#BF0D0D"/>
<path d="M194.493 159.65H192.642V164.914H190.504V152.588H195.302C197.583 152.588 199.201 153.702 199.201 155.859C199.201 157.583 198.248 158.392 197.242 158.751C198.482 159.2 198.967 160.189 198.967 161.77V162.057C198.967 163.171 199.021 164.213 199.129 164.914H197.026C196.847 164.411 196.793 163.477 196.793 162.039V161.734C196.793 160.207 196.236 159.65 194.493 159.65ZM192.642 154.331V157.907H194.655C196.002 157.907 197.026 157.529 197.026 156.038C197.026 154.834 196.182 154.331 195.014 154.331H192.642Z" fill="#BF0D0D"/>
<path d="M185.371 157.565V159.398H179.945V163.117H185.928L185.659 164.914H177.825V152.588H185.605V154.403H179.945V157.565H185.371Z" fill="#BF0D0D"/>
<path d="M164 164.914V163.333L170.361 154.403H164.323V152.588H172.912V154.367L166.677 163.099H173.217L172.93 164.914H164Z" fill="#BF0D0D"/>
</svg>
