<?xml version="1.0" encoding="UTF-8" standalone="no"?>
<svg
   id="Ebene_1"
   data-name="Ebene 1"
   viewBox="0 0 566.92999 154.96999"
   version="1.1"
   sodipodi:docname="usp.svg"
   inkscape:version="1.3.2 (091e20e, 2023-11-25, custom)"
   width="566.92999"
   height="154.97"
   xmlns:inkscape="http://www.inkscape.org/namespaces/inkscape"
   xmlns:sodipodi="http://sodipodi.sourceforge.net/DTD/sodipodi-0.dtd"
   xmlns="http://www.w3.org/2000/svg"
   xmlns:svg="http://www.w3.org/2000/svg">
  <sodipodi:namedview
     id="namedview41"
     pagecolor="#ffffff"
     bordercolor="#000000"
     borderopacity="0.25"
     inkscape:showpageshadow="2"
     inkscape:pageopacity="0.0"
     inkscape:pagecheckerboard="0"
     inkscape:deskcolor="#d1d1d1"
     inkscape:zoom="1.6809836"
     inkscape:cx="317.07627"
     inkscape:cy="99.049154"
     inkscape:window-width="2560"
     inkscape:window-height="1387"
     inkscape:window-x="3832"
     inkscape:window-y="-8"
     inkscape:window-maximized="1"
     inkscape:current-layer="Ebene_1" />
  <defs
     id="defs1">
    <style
       id="style1">
      .cls-1 {
        fill: #1d1d1b;
      }

      .cls-1, .cls-2 {
        stroke-width: 0px;
      }

      .cls-2 {
        fill: #c00d0d;
      }
    </style>
  </defs>
  <g
     id="g19"
     style="fill:#7c7c7c;fill-opacity:1">
    <circle
       class="cls-2"
       cx="261.47"
       cy="48.5"
       r="7.48"
       id="circle1"
       style="fill:#7c7c7c;fill-opacity:1" />
    <circle
       class="cls-2"
       cx="276.98999"
       cy="63.93"
       r="7.48"
       id="circle2"
       style="fill:#7c7c7c;fill-opacity:1" />
    <circle
       class="cls-2"
       cx="269.20001"
       cy="29.1"
       r="7.48"
       id="circle3"
       style="fill:#7c7c7c;fill-opacity:1" />
    <circle
       class="cls-2"
       cx="283.60999"
       cy="42.75"
       r="7.48"
       id="circle4"
       style="fill:#7c7c7c;fill-opacity:1" />
    <circle
       class="cls-2"
       cx="296.91"
       cy="56.060001"
       r="7.48"
       id="circle5"
       style="fill:#7c7c7c;fill-opacity:1" />
    <circle
       class="cls-2"
       cx="318.17999"
       cy="50.23"
       r="7.48"
       id="circle6"
       style="fill:#7c7c7c;fill-opacity:1" />
    <g
       id="g13"
       style="fill:#7c7c7c;fill-opacity:1">
      <circle
         class="cls-2"
         cx="254.31"
         cy="15.9"
         r="7.48"
         id="circle7"
         style="fill:#7c7c7c;fill-opacity:1" />
      <circle
         class="cls-2"
         cx="242.95"
         cy="33.799999"
         r="7.48"
         id="circle8"
         style="fill:#7c7c7c;fill-opacity:1" />
      <circle
         class="cls-2"
         cx="242.71001"
         cy="55.860001"
         r="7.48"
         id="circle9"
         style="fill:#7c7c7c;fill-opacity:1" />
      <circle
         class="cls-2"
         cx="253.69"
         cy="74"
         r="7.48"
         id="circle10"
         style="fill:#7c7c7c;fill-opacity:1" />
      <circle
         class="cls-2"
         cx="272.51999"
         cy="83.879997"
         r="7.48"
         id="circle11"
         style="fill:#7c7c7c;fill-opacity:1" />
      <circle
         class="cls-2"
         cx="294.53"
         cy="82.279999"
         r="7.48"
         id="circle12"
         style="fill:#7c7c7c;fill-opacity:1" />
      <circle
         class="cls-2"
         cx="311.67999"
         cy="69.839996"
         r="7.48"
         id="circle13"
         style="fill:#7c7c7c;fill-opacity:1" />
    </g>
    <circle
       class="cls-2"
       cx="274.35001"
       cy="5.04"
       r="5.04"
       id="circle14"
       style="fill:#7c7c7c;fill-opacity:1" />
    <circle
       class="cls-2"
       cx="287.07999"
       cy="20.780001"
       r="5.04"
       id="circle15"
       style="fill:#7c7c7c;fill-opacity:1" />
    <circle
       class="cls-2"
       cx="295.10001"
       cy="7.1700001"
       r="4.48"
       id="circle16"
       style="fill:#7c7c7c;fill-opacity:1" />
    <circle
       class="cls-2"
       cx="309.19"
       cy="15.62"
       r="3.3499999"
       id="circle17"
       style="fill:#7c7c7c;fill-opacity:1" />
    <circle
       class="cls-2"
       cx="318.5"
       cy="29.83"
       r="2.8699999"
       id="circle18"
       style="fill:#7c7c7c;fill-opacity:1" />
    <circle
       class="cls-2"
       cx="302.60999"
       cy="33.830002"
       r="4.4000001"
       id="circle19"
       style="fill:#7c7c7c;fill-opacity:1" />
  </g>
  <g
     id="g41"
     style="fill:#7c7c7c;fill-opacity:1">
    <path
       class="cls-1"
       d="m 11.04,154.96 c -3.45,0 -6.16,-0.97 -8.11,-2.91 C 0.98,150.11 0,147.3 0,143.63 v -14.21 h 4.68 v 14.03 c 0,2.59 0.56,4.47 1.67,5.65 1.12,1.18 2.69,1.76 4.73,1.76 2.04,0 3.61,-0.59 4.71,-1.76 1.1,-1.17 1.66,-3.06 1.66,-5.65 v -14.03 h 4.6 v 14.21 c 0,3.67 -0.98,6.47 -2.93,8.42 -1.96,1.94 -4.65,2.91 -8.07,2.91 z"
       id="path19"
       style="fill:#7c7c7c;fill-opacity:1" />
    <path
       class="cls-1"
       d="m 28.59,154.6 v -25.17 h 3.85 l 15.79,19.38 h -1.91 v -19.38 h 4.64 V 154.6 H 47.11 L 31.32,135.22 h 1.91 v 19.38 z"
       id="path20"
       style="fill:#7c7c7c;fill-opacity:1" />
    <path
       class="cls-1"
       d="m 57.72,154.6 v -25.17 h 4.67 v 25.17 z"
       id="path21"
       style="fill:#7c7c7c;fill-opacity:1" />
    <path
       class="cls-1"
       d="m 74.3,154.6 v -21.22 h -8.34 v -3.96 h 21.36 v 3.96 h -8.34 v 21.22 z"
       id="path22"
       style="fill:#7c7c7c;fill-opacity:1" />
    <path
       class="cls-1"
       d="m 95.52,150.68 h 14.2 v 3.92 H 90.84 v -25.17 h 18.38 v 3.92 h -13.7 v 17.34 z m -0.36,-10.79 h 12.51 v 3.85 H 95.16 Z"
       id="path23"
       style="fill:#7c7c7c;fill-opacity:1" />
    <path
       class="cls-1"
       d="m 114.94,154.6 v -25.17 h 11 c 2.73,0 5.13,0.53 7.19,1.58 2.06,1.06 3.67,2.52 4.82,4.39 1.15,1.87 1.73,4.08 1.73,6.62 0,2.54 -0.58,4.72 -1.73,6.6 -1.15,1.88 -2.76,3.35 -4.82,4.41 -2.06,1.05 -4.46,1.58 -7.19,1.58 h -11 z m 4.68,-3.96 h 6.11 c 1.89,0 3.53,-0.36 4.91,-1.08 1.38,-0.72 2.45,-1.73 3.2,-3.02 0.76,-1.29 1.13,-2.81 1.13,-4.53 0,-1.72 -0.38,-3.27 -1.13,-4.55 -0.76,-1.28 -1.82,-2.28 -3.2,-3 -1.38,-0.72 -3.01,-1.08 -4.91,-1.08 h -6.11 z"
       id="path24"
       style="fill:#7c7c7c;fill-opacity:1" />
    <path
       class="cls-1"
       d="m 162.37,154.96 c -1.97,0 -3.85,-0.28 -5.65,-0.84 -1.8,-0.56 -3.23,-1.29 -4.28,-2.17 l 1.62,-3.63 c 1.01,0.79 2.25,1.45 3.74,1.98 1.49,0.53 3.01,0.79 4.57,0.79 1.32,0 2.38,-0.14 3.2,-0.43 0.82,-0.29 1.41,-0.68 1.8,-1.17 0.38,-0.49 0.57,-1.05 0.57,-1.67 0,-0.77 -0.28,-1.38 -0.83,-1.85 -0.55,-0.47 -1.27,-0.84 -2.14,-1.11 -0.88,-0.28 -1.85,-0.53 -2.91,-0.77 -1.07,-0.24 -2.13,-0.52 -3.2,-0.84 -1.07,-0.32 -2.04,-0.74 -2.91,-1.26 -0.88,-0.51 -1.59,-1.21 -2.14,-2.07 -0.55,-0.86 -0.83,-1.97 -0.83,-3.31 0,-1.34 0.37,-2.62 1.1,-3.76 0.73,-1.14 1.85,-2.05 3.34,-2.73 1.5,-0.68 3.4,-1.02 5.7,-1.02 1.51,0 3.01,0.19 4.5,0.58 1.49,0.38 2.78,0.93 3.88,1.65 l -1.47,3.63 c -1.13,-0.67 -2.29,-1.17 -3.49,-1.49 -1.2,-0.32 -2.35,-0.49 -3.45,-0.49 -1.29,0 -2.34,0.16 -3.15,0.47 -0.8,0.31 -1.39,0.72 -1.76,1.22 -0.37,0.5 -0.56,1.08 -0.56,1.73 0,0.77 0.27,1.39 0.81,1.85 0.54,0.47 1.25,0.83 2.12,1.1 0.87,0.26 1.85,0.52 2.93,0.77 1.08,0.25 2.15,0.53 3.22,0.84 1.07,0.31 2.04,0.72 2.91,1.22 0.87,0.5 1.58,1.19 2.12,2.05 0.54,0.86 0.81,1.95 0.81,3.27 0,1.32 -0.37,2.58 -1.1,3.72 -0.73,1.14 -1.85,2.05 -3.36,2.73 -1.51,0.68 -3.42,1.02 -5.72,1.02 z"
       id="path25"
       style="fill:#7c7c7c;fill-opacity:1" />
    <path
       class="cls-1"
       d="m 181.87,150.68 h 14.2 v 3.92 h -18.88 v -25.17 h 18.38 v 3.92 h -13.7 v 17.34 z m -0.36,-10.79 h 12.51 v 3.85 h -12.51 z"
       id="path26"
       style="fill:#7c7c7c;fill-opacity:1" />
    <path
       class="cls-1"
       d="m 212.94,154.96 c -1.92,0 -3.7,-0.32 -5.34,-0.95 -1.64,-0.64 -3.07,-1.53 -4.28,-2.7 -1.21,-1.16 -2.15,-2.54 -2.82,-4.12 -0.67,-1.58 -1.01,-3.31 -1.01,-5.18 0,-1.87 0.34,-3.6 1.01,-5.18 0.67,-1.58 1.62,-2.95 2.84,-4.12 1.22,-1.16 2.65,-2.06 4.28,-2.7 1.63,-0.64 3.42,-0.95 5.36,-0.95 2.06,0 3.94,0.35 5.65,1.06 1.7,0.71 3.14,1.76 4.32,3.15 l -3.02,2.84 c -0.91,-0.98 -1.93,-1.72 -3.06,-2.21 -1.13,-0.49 -2.35,-0.74 -3.67,-0.74 -1.32,0 -2.52,0.21 -3.61,0.65 -1.09,0.43 -2.04,1.04 -2.84,1.83 -0.8,0.79 -1.43,1.73 -1.87,2.81 -0.44,1.08 -0.66,2.27 -0.66,3.56 0,1.29 0.22,2.48 0.66,3.56 0.44,1.08 1.07,2.01 1.87,2.81 0.8,0.79 1.75,1.4 2.84,1.84 1.09,0.43 2.3,0.65 3.61,0.65 1.31,0 2.54,-0.25 3.67,-0.74 1.13,-0.49 2.15,-1.24 3.06,-2.25 l 3.02,2.88 c -1.17,1.37 -2.61,2.41 -4.32,3.13 -1.7,0.72 -3.6,1.08 -5.68,1.08 z"
       id="path27"
       style="fill:#7c7c7c;fill-opacity:1" />
    <path
       class="cls-1"
       d="m 238.22,154.96 c -3.45,0 -6.16,-0.97 -8.11,-2.91 -1.95,-1.94 -2.93,-4.75 -2.93,-8.42 v -14.21 h 4.67 v 14.03 c 0,2.59 0.56,4.47 1.67,5.65 1.11,1.18 2.69,1.76 4.73,1.76 2.04,0 3.61,-0.59 4.71,-1.76 1.1,-1.17 1.65,-3.06 1.65,-5.65 v -14.03 h 4.6 v 14.21 c 0,3.67 -0.98,6.47 -2.93,8.42 -1.95,1.94 -4.65,2.91 -8.07,2.91 z"
       id="path28"
       style="fill:#7c7c7c;fill-opacity:1" />
    <path
       class="cls-1"
       d="m 255.77,154.6 v -25.17 h 10.36 c 2.23,0 4.14,0.36 5.74,1.08 1.59,0.72 2.82,1.75 3.69,3.09 0.86,1.34 1.29,2.94 1.29,4.78 0,1.84 -0.43,3.44 -1.29,4.77 -0.86,1.33 -2.09,2.35 -3.69,3.06 -1.59,0.71 -3.51,1.06 -5.74,1.06 h -7.77 l 2.09,-2.12 v 9.46 h -4.68 z m 4.68,-8.95 -2.09,-2.23 h 7.55 c 2.06,0 3.61,-0.44 4.66,-1.33 1.04,-0.89 1.57,-2.12 1.57,-3.7 0,-1.58 -0.52,-2.84 -1.57,-3.7 -1.04,-0.86 -2.6,-1.29 -4.66,-1.29 h -7.55 l 2.09,-2.3 v 14.57 z m 11.8,8.95 -6.37,-9.13 h 5 l 6.4,9.13 h -5.04 z"
       id="path29"
       style="fill:#7c7c7c;fill-opacity:1" />
    <path
       class="cls-1"
       d="m 282.06,154.6 v -25.17 h 4.67 v 25.17 z"
       id="path30"
       style="fill:#7c7c7c;fill-opacity:1" />
    <path
       class="cls-1"
       d="m 298.64,154.6 v -21.22 h -8.34 v -3.96 h 21.36 v 3.96 h -8.34 v 21.22 h -4.67 z"
       id="path31"
       style="fill:#7c7c7c;fill-opacity:1" />
    <path
       class="cls-1"
       d="m 324.33,154.6 v -9.96 l 1.04,2.88 -10.93,-18.09 h 5 l 8.78,14.56 h -2.81 l 8.85,-14.56 h 4.6 l -10.93,18.09 1.08,-2.88 v 9.96 z"
       id="path32"
       style="fill:#7c7c7c;fill-opacity:1" />
    <path
       class="cls-1"
       d="m 350.18,154.6 v -25.17 h 10.36 c 2.23,0 4.14,0.36 5.74,1.08 1.59,0.72 2.82,1.75 3.69,3.09 0.86,1.34 1.29,2.94 1.29,4.78 0,1.84 -0.43,3.44 -1.29,4.78 -0.86,1.34 -2.09,2.37 -3.69,3.09 -1.59,0.72 -3.51,1.08 -5.74,1.08 h -7.77 l 2.09,-2.19 v 9.46 h -4.67 z m 4.67,-8.95 -2.09,-2.27 h 7.55 c 2.06,0 3.61,-0.44 4.66,-1.31 1.04,-0.88 1.56,-2.11 1.56,-3.69 0,-1.58 -0.52,-2.84 -1.56,-3.7 -1.04,-0.86 -2.6,-1.29 -4.66,-1.29 h -7.55 l 2.09,-2.3 v 14.57 z"
       id="path33"
       style="fill:#7c7c7c;fill-opacity:1" />
    <path
       class="cls-1"
       d="m 375.93,154.6 v -25.17 h 10.36 c 2.23,0 4.14,0.36 5.74,1.08 1.59,0.72 2.82,1.75 3.69,3.09 0.86,1.34 1.29,2.94 1.29,4.78 0,1.84 -0.43,3.44 -1.29,4.77 -0.86,1.33 -2.09,2.35 -3.69,3.06 -1.59,0.71 -3.51,1.06 -5.74,1.06 h -7.77 l 2.09,-2.12 v 9.46 h -4.68 z m 4.68,-8.95 -2.09,-2.23 h 7.55 c 2.06,0 3.61,-0.44 4.66,-1.33 1.04,-0.89 1.57,-2.12 1.57,-3.7 0,-1.58 -0.52,-2.84 -1.57,-3.7 -1.04,-0.86 -2.6,-1.29 -4.66,-1.29 h -7.55 l 2.09,-2.3 v 14.57 z m 11.8,8.95 -6.37,-9.13 h 5 l 6.4,9.13 h -5.04 z"
       id="path34"
       style="fill:#7c7c7c;fill-opacity:1" />
    <path
       class="cls-1"
       d="m 414.01,154.96 c -1.97,0 -3.78,-0.32 -5.43,-0.97 -1.66,-0.65 -3.09,-1.55 -4.32,-2.72 -1.22,-1.16 -2.17,-2.53 -2.84,-4.1 -0.67,-1.57 -1.01,-3.29 -1.01,-5.16 0,-1.87 0.34,-3.59 1.01,-5.16 0.67,-1.57 1.62,-2.94 2.84,-4.1 1.22,-1.16 2.66,-2.07 4.32,-2.72 1.65,-0.65 3.45,-0.97 5.39,-0.97 1.94,0 3.77,0.32 5.41,0.97 1.64,0.65 3.07,1.55 4.3,2.72 1.22,1.16 2.17,2.53 2.84,4.1 0.67,1.57 1.01,3.29 1.01,5.16 0,1.87 -0.34,3.6 -1.01,5.18 -0.67,1.58 -1.62,2.95 -2.84,4.1 -1.22,1.15 -2.66,2.05 -4.3,2.7 -1.64,0.65 -3.43,0.97 -5.38,0.97 z m -0.04,-4.1 c 1.27,0 2.45,-0.22 3.52,-0.65 1.08,-0.43 2.01,-1.05 2.81,-1.85 0.79,-0.8 1.41,-1.74 1.85,-2.81 0.44,-1.07 0.67,-2.25 0.67,-3.54 0,-1.29 -0.22,-2.48 -0.67,-3.54 -0.44,-1.07 -1.06,-2 -1.85,-2.81 -0.79,-0.8 -1.73,-1.42 -2.81,-1.85 -1.08,-0.43 -2.25,-0.65 -3.52,-0.65 -1.27,0 -2.44,0.21 -3.51,0.65 -1.07,0.44 -2,1.05 -2.81,1.85 -0.8,0.8 -1.43,1.74 -1.87,2.81 -0.45,1.07 -0.67,2.25 -0.67,3.54 0,1.29 0.22,2.45 0.67,3.52 0.44,1.08 1.06,2.02 1.85,2.82 0.79,0.8 1.73,1.42 2.81,1.85 1.08,0.43 2.25,0.65 3.52,0.65 z"
       id="path35"
       style="fill:#7c7c7c;fill-opacity:1" />
    <path
       class="cls-1"
       d="m 439.15,154.6 -11,-25.17 h 5.07 l 9.82,22.77 h -2.91 l 9.93,-22.77 h 4.68 l -10.97,25.17 h -4.6 z"
       id="path36"
       style="fill:#7c7c7c;fill-opacity:1" />
    <path
       class="cls-1"
       d="m 457.39,154.6 v -25.17 h 4.68 v 25.17 z"
       id="path37"
       style="fill:#7c7c7c;fill-opacity:1" />
    <path
       class="cls-1"
       d="m 468.86,154.6 v -25.17 h 11 c 2.73,0 5.13,0.53 7.19,1.58 2.06,1.06 3.67,2.52 4.82,4.39 1.15,1.87 1.73,4.08 1.73,6.62 0,2.54 -0.57,4.72 -1.73,6.6 -1.15,1.88 -2.76,3.35 -4.82,4.41 -2.06,1.05 -4.46,1.58 -7.19,1.58 h -11 z m 4.68,-3.96 h 6.11 c 1.89,0 3.53,-0.36 4.91,-1.08 1.38,-0.72 2.45,-1.73 3.2,-3.02 0.76,-1.29 1.13,-2.81 1.13,-4.53 0,-1.72 -0.38,-3.27 -1.13,-4.55 -0.76,-1.28 -1.82,-2.28 -3.2,-3 -1.38,-0.72 -3.01,-1.08 -4.91,-1.08 h -6.11 z"
       id="path38"
       style="fill:#7c7c7c;fill-opacity:1" />
    <path
       class="cls-1"
       d="m 503.24,150.68 h 14.21 v 3.92 h -18.88 v -25.17 h 18.38 v 3.92 h -13.7 v 17.34 z m -0.36,-10.79 h 12.52 v 3.85 h -12.52 z"
       id="path39"
       style="fill:#7c7c7c;fill-opacity:1" />
    <path
       class="cls-1"
       d="m 522.66,154.6 v -25.17 h 10.36 c 2.23,0 4.14,0.36 5.74,1.08 1.59,0.72 2.82,1.75 3.69,3.09 0.86,1.34 1.29,2.94 1.29,4.78 0,1.84 -0.43,3.44 -1.29,4.77 -0.86,1.33 -2.09,2.35 -3.69,3.06 -1.59,0.71 -3.51,1.06 -5.74,1.06 h -7.77 l 2.09,-2.12 v 9.46 h -4.68 z m 4.68,-8.95 -2.09,-2.23 h 7.55 c 2.06,0 3.62,-0.44 4.66,-1.33 1.04,-0.89 1.56,-2.12 1.56,-3.7 0,-1.58 -0.52,-2.84 -1.56,-3.7 -1.04,-0.86 -2.6,-1.29 -4.66,-1.29 h -7.55 l 2.09,-2.3 v 14.57 z m 11.8,8.95 -6.37,-9.13 h 5 l 6.4,9.13 h -5.04 z"
       id="path40"
       style="fill:#7c7c7c;fill-opacity:1" />
    <path
       class="cls-1"
       d="m 556.75,154.96 c -1.97,0 -3.85,-0.28 -5.65,-0.84 -1.8,-0.56 -3.23,-1.29 -4.28,-2.17 l 1.62,-3.63 c 1.01,0.79 2.25,1.45 3.74,1.98 1.49,0.53 3.01,0.79 4.57,0.79 1.32,0 2.39,-0.14 3.2,-0.43 0.81,-0.29 1.41,-0.68 1.8,-1.17 0.38,-0.49 0.57,-1.05 0.57,-1.67 0,-0.77 -0.28,-1.38 -0.83,-1.85 -0.55,-0.47 -1.27,-0.84 -2.14,-1.11 -0.88,-0.28 -1.85,-0.53 -2.91,-0.77 -1.07,-0.24 -2.13,-0.52 -3.2,-0.84 -1.07,-0.32 -2.04,-0.74 -2.91,-1.26 -0.88,-0.51 -1.59,-1.21 -2.14,-2.07 -0.55,-0.86 -0.83,-1.97 -0.83,-3.31 0,-1.34 0.37,-2.62 1.1,-3.76 0.73,-1.14 1.85,-2.05 3.35,-2.73 1.5,-0.68 3.4,-1.02 5.7,-1.02 1.51,0 3.01,0.19 4.5,0.58 1.49,0.38 2.78,0.93 3.88,1.65 l -1.47,3.63 c -1.13,-0.67 -2.29,-1.17 -3.49,-1.49 -1.2,-0.32 -2.35,-0.49 -3.45,-0.49 -1.29,0 -2.34,0.16 -3.15,0.47 -0.8,0.31 -1.39,0.72 -1.76,1.22 -0.37,0.5 -0.56,1.08 -0.56,1.73 0,0.77 0.27,1.39 0.81,1.85 0.54,0.47 1.25,0.83 2.12,1.1 0.88,0.26 1.85,0.52 2.93,0.77 1.08,0.25 2.15,0.53 3.22,0.84 1.07,0.31 2.04,0.72 2.91,1.22 0.87,0.5 1.58,1.19 2.12,2.05 0.54,0.86 0.81,1.95 0.81,3.27 0,1.32 -0.37,2.58 -1.1,3.72 -0.73,1.14 -1.85,2.05 -3.36,2.73 -1.51,0.68 -3.42,1.02 -5.72,1.02 z"
       id="path41"
       style="display:inline;fill:#7c7c7c;fill-opacity:1" />
  </g>
</svg>
