<?xml version="1.0" encoding="UTF-8"?>
<svg id="Ebene_1" xmlns="http://www.w3.org/2000/svg" version="1.1" viewBox="0 0 399 166">
  <!-- Generator: Adobe Illustrator 30.1.0, SVG Export Plug-In . SVG Version: 2.1.1 Build 136)  -->
  <defs>
    <style>
      .st0 {
        fill: #676766;
      }
    </style>
  </defs>
  <path class="st0" d="M37.64,80.27c5.93,0,10.73-4.8,10.73-10.73s-4.8-10.73-10.73-10.73-10.73,4.8-10.73,10.73,4.8,10.73,10.73,10.73Z"/>
  <path class="st0" d="M59.9,102.39c5.93,0,10.73-4.8,10.73-10.73s-4.8-10.73-10.73-10.73-10.73,4.8-10.73,10.73,4.8,10.73,10.73,10.73Z"/>
  <path class="st0" d="M48.72,52.45c5.93,0,10.73-4.8,10.73-10.73s-4.8-10.73-10.73-10.73-10.73,4.8-10.73,10.73,4.8,10.73,10.73,10.73Z"/>
  <path class="st0" d="M69.39,72.02c5.93,0,10.73-4.8,10.73-10.73s-4.8-10.73-10.73-10.73-10.73,4.8-10.73,10.73,4.8,10.73,10.73,10.73Z"/>
  <path class="st0" d="M88.47,91.11c5.93,0,10.73-4.8,10.73-10.73s-4.8-10.73-10.73-10.73-10.73,4.8-10.73,10.73,4.8,10.73,10.73,10.73Z"/>
  <path class="st0" d="M118.98,82.75c5.93,0,10.73-4.8,10.73-10.73s-4.8-10.73-10.73-10.73-10.73,4.8-10.73,10.73,4.8,10.73,10.73,10.73Z"/>
  <path class="st0" d="M27.37,33.52c5.93,0,10.73-4.8,10.73-10.73s-4.8-10.73-10.73-10.73-10.73,4.8-10.73,10.73,4.8,10.73,10.73,10.73Z"/>
  <path class="st0" d="M11.07,59.19c5.93,0,10.73-4.8,10.73-10.73s-4.8-10.73-10.73-10.73S.34,42.54.34,48.47s4.8,10.73,10.73,10.73Z"/>
  <path class="st0" d="M10.73,90.82c5.93,0,10.73-4.8,10.73-10.73s-4.8-10.73-10.73-10.73S0,74.17,0,80.1s4.8,10.73,10.73,10.73Z"/>
  <path class="st0" d="M26.48,116.83c5.93,0,10.73-4.8,10.73-10.73s-4.8-10.73-10.73-10.73-10.73,4.8-10.73,10.73,4.8,10.73,10.73,10.73Z"/>
  <path class="st0" d="M53.49,131c5.93,0,10.73-4.8,10.73-10.73s-4.8-10.72-10.73-10.72-10.73,4.8-10.73,10.72,4.8,10.73,10.73,10.73Z"/>
  <path class="st0" d="M85.06,128.71c5.93,0,10.73-4.8,10.73-10.72s-4.8-10.73-10.73-10.73-10.73,4.8-10.73,10.73,4.8,10.72,10.73,10.72Z"/>
  <path class="st0" d="M109.66,110.87c5.93,0,10.73-4.8,10.73-10.72s-4.8-10.73-10.73-10.73-10.73,4.8-10.73,10.73,4.8,10.72,10.73,10.72Z"/>
  <path class="st0" d="M56.11,14.45c3.99,0,7.23-3.24,7.23-7.23s-3.24-7.23-7.23-7.23-7.23,3.24-7.23,7.23,3.24,7.23,7.23,7.23Z"/>
  <path class="st0" d="M74.37,37.02c3.99,0,7.23-3.24,7.23-7.23s-3.24-7.23-7.23-7.23-7.23,3.24-7.23,7.23,3.24,7.23,7.23,7.23Z"/>
  <path class="st0" d="M85.87,16.7c3.55,0,6.43-2.88,6.43-6.42s-2.88-6.42-6.43-6.42-6.43,2.88-6.43,6.42,2.88,6.42,6.43,6.42Z"/>
  <path class="st0" d="M106.08,27.2c2.65,0,4.81-2.15,4.81-4.8s-2.15-4.8-4.81-4.8-4.81,2.15-4.81,4.8,2.15,4.8,4.81,4.8Z"/>
  <path class="st0" d="M119.44,46.89c2.27,0,4.12-1.84,4.12-4.12s-1.84-4.12-4.12-4.12-4.12,1.84-4.12,4.12,1.84,4.12,4.12,4.12Z"/>
  <path class="st0" d="M96.65,54.82c3.49,0,6.31-2.82,6.31-6.31s-2.83-6.31-6.31-6.31-6.31,2.82-6.31,6.31,2.83,6.31,6.31,6.31Z"/>
  <path class="st0" d="M174.87,36.74c-3.75,0-6.69-1.05-8.81-3.16-2.12-2.11-3.18-5.16-3.18-9.15v-15.44h5.08v15.24c0,2.81.61,4.86,1.82,6.14,1.22,1.28,2.92,1.91,5.14,1.91s3.92-.64,5.12-1.91c1.2-1.27,1.8-3.32,1.8-6.14v-15.24h5v15.44c0,3.99-1.07,7.03-3.18,9.15-2.13,2.11-5.05,3.16-8.77,3.16h-.01Z"/>
  <path class="st0" d="M193.94,36.35V9.01h4.18l17.16,21.05h-2.08V9.01h5.04v27.34h-4.18l-17.16-21.05h2.08v21.05h-5.04Z"/>
  <path class="st0" d="M225.6,36.35V9.01h5.07v27.34h-5.07Z"/>
  <path class="st0" d="M243.61,36.35V13.3h-9.06v-4.3h23.21v4.3h-9.06v23.05h-5.09Z"/>
  <path class="st0" d="M266.67,32.09h15.43v4.26h-20.52V9.01h19.97v4.26h-14.89v18.84h0ZM266.28,20.37h13.59v4.18h-13.59v-4.18Z"/>
  <path class="st0" d="M287.77,36.35V9.01h11.95c2.97,0,5.57.58,7.81,1.72,2.24,1.15,3.99,2.74,5.24,4.77,1.25,2.03,1.88,4.43,1.88,7.19s-.63,5.13-1.88,7.17c-1.25,2.04-3,3.64-5.24,4.79-2.24,1.14-4.85,1.72-7.81,1.72h-11.95ZM292.85,32.06h6.64c2.05,0,3.84-.39,5.34-1.17,1.5-.78,2.66-1.88,3.48-3.28.83-1.4,1.23-3.05,1.23-4.92s-.41-3.55-1.23-4.94c-.83-1.39-1.98-2.48-3.48-3.26-1.5-.78-3.27-1.17-5.34-1.17h-6.64v18.75Z"/>
  <path class="st0" d="M173.67,80.54c-2.14,0-4.18-.3-6.14-.91-1.96-.61-3.51-1.4-4.65-2.36l1.76-3.94c1.1.86,2.44,1.57,4.06,2.15,1.62.58,3.27.86,4.97.86,1.43,0,2.59-.15,3.48-.47.89-.32,1.53-.74,1.96-1.27.41-.53.62-1.14.62-1.81,0-.84-.3-1.5-.9-2.01-.6-.51-1.38-.91-2.32-1.21-.96-.3-2.01-.58-3.16-.84-1.16-.26-2.31-.56-3.48-.91-1.16-.35-2.22-.8-3.16-1.37-.96-.55-1.73-1.31-2.32-2.25-.6-.93-.9-2.14-.9-3.6s.4-2.85,1.2-4.08,2.01-2.23,3.63-2.97c1.63-.74,3.69-1.11,6.19-1.11,1.64,0,3.27.21,4.89.63,1.62.41,3.02,1.01,4.22,1.79l-1.6,3.94c-1.23-.73-2.49-1.27-3.79-1.62-1.3-.35-2.55-.53-3.75-.53-1.4,0-2.54.17-3.42.51-.87.34-1.51.78-1.91,1.33-.4.54-.61,1.17-.61,1.88,0,.84.29,1.51.88,2.01.59.51,1.36.9,2.3,1.19.95.28,2.01.56,3.18.84,1.17.27,2.34.58,3.5.91,1.16.34,2.22.78,3.16,1.33.94.54,1.72,1.29,2.3,2.23.59.93.88,2.12.88,3.55s-.4,2.8-1.2,4.04c-.79,1.24-2.01,2.23-3.65,2.97-1.64.74-3.72,1.11-6.21,1.11h.01Z"/>
  <path class="st0" d="M194.86,75.89h15.43v4.26h-20.51v-27.34h19.97v4.26h-14.89v18.84h0ZM194.46,64.17h13.59v4.18h-13.59v-4.18Z"/>
  <path class="st0" d="M228.62,80.54c-2.09,0-4.02-.35-5.8-1.03-1.78-.7-3.34-1.66-4.65-2.93-1.31-1.26-2.34-2.76-3.06-4.48-.73-1.72-1.1-3.6-1.1-5.63s.37-3.91,1.1-5.63c.73-1.72,1.76-3.2,3.09-4.48,1.33-1.26,2.88-2.24,4.65-2.93,1.77-.7,3.72-1.03,5.82-1.03,2.24,0,4.28.38,6.14,1.15,1.85.77,3.41,1.91,4.69,3.42l-3.28,3.08c-.99-1.06-2.1-1.87-3.32-2.4-1.23-.53-2.55-.8-3.99-.8s-2.74.23-3.92.71c-1.18.47-2.22,1.13-3.09,1.99-.87.86-1.55,1.88-2.03,3.05-.48,1.17-.72,2.47-.72,3.87s.24,2.69.72,3.87c.48,1.17,1.16,2.18,2.03,3.05.87.86,1.9,1.52,3.09,2,1.18.47,2.5.71,3.92.71s2.76-.27,3.99-.8c1.23-.53,2.34-1.35,3.32-2.44l3.28,3.13c-1.27,1.49-2.84,2.62-4.69,3.4-1.85.78-3.91,1.17-6.17,1.17h-.01Z"/>
  <path class="st0" d="M256.09,80.54c-3.75,0-6.69-1.05-8.81-3.16-2.12-2.11-3.18-5.16-3.18-9.15v-15.44h5.07v15.24c0,2.81.61,4.86,1.82,6.14,1.21,1.28,2.92,1.91,5.14,1.91s3.92-.64,5.12-1.91c1.2-1.27,1.79-3.32,1.79-6.14v-15.24h5v15.44c0,3.99-1.07,7.03-3.18,9.15-2.12,2.11-5.05,3.16-8.77,3.16h.01Z"/>
  <path class="st0" d="M275.16,80.15v-27.34h11.26c2.42,0,4.5.39,6.24,1.17,1.73.78,3.06,1.9,4.01,3.36.93,1.46,1.4,3.19,1.4,5.19s-.47,3.74-1.4,5.18c-.93,1.44-2.27,2.55-4.01,3.32-1.73.77-3.81,1.15-6.24,1.15h-8.44l2.27-2.3v10.28h-5.08ZM280.23,70.43l-2.27-2.42h8.2c2.24,0,3.92-.48,5.06-1.44,1.13-.97,1.71-2.3,1.71-4.02s-.57-3.08-1.71-4.02c-1.13-.93-2.83-1.4-5.06-1.4h-8.2l2.27-2.5v15.83-.02ZM293.05,80.15l-6.92-9.92h5.43l6.96,9.92h-5.48.01Z"/>
  <path class="st0" d="M303.72,80.15v-27.34h5.07v27.34h-5.07Z"/>
  <path class="st0" d="M321.74,80.15v-23.05h-9.06v-4.3h23.21v4.3h-9.06v23.05h-5.09Z"/>
  <path class="st0" d="M349.65,80.15v-10.82l1.13,3.13-11.88-19.65h5.43l9.54,15.82h-3.05l9.62-15.82h5l-11.88,19.65,1.17-3.13v10.82h-5.09Z"/>
  <path class="st0" d="M162.88,123.96v-27.34h11.26c2.42,0,4.5.39,6.24,1.17,1.73.78,3.07,1.9,4.01,3.36.93,1.46,1.4,3.19,1.4,5.19s-.47,3.74-1.4,5.19c-.93,1.46-2.27,2.58-4.01,3.36-1.73.78-3.81,1.17-6.24,1.17h-8.44l2.27-2.38v10.28h-5.08ZM167.95,114.24l-2.27-2.47h8.2c2.24,0,3.92-.48,5.06-1.42,1.13-.96,1.69-2.29,1.69-4.01s-.57-3.08-1.69-4.02c-1.13-.93-2.83-1.4-5.06-1.4h-8.2l2.27-2.5v15.83h0Z"/>
  <path class="st0" d="M190.86,123.96v-27.34h11.26c2.42,0,4.5.39,6.24,1.17,1.73.78,3.06,1.9,4.01,3.36.93,1.46,1.4,3.19,1.4,5.19s-.47,3.74-1.4,5.18c-.93,1.44-2.27,2.55-4.01,3.32-1.73.77-3.81,1.15-6.24,1.15h-8.44l2.27-2.3v10.28h-5.08ZM195.93,114.24l-2.27-2.42h8.2c2.24,0,3.92-.48,5.06-1.44,1.13-.97,1.71-2.3,1.71-4.02s-.56-3.08-1.71-4.02c-1.13-.93-2.82-1.4-5.06-1.4h-8.2l2.27-2.5v15.83-.02ZM208.75,123.96l-6.92-9.92h5.43l6.95,9.92h-5.48.01Z"/>
  <path class="st0" d="M232.24,124.35c-2.14,0-4.11-.35-5.9-1.05-1.8-.71-3.36-1.68-4.69-2.96-1.33-1.26-2.36-2.75-3.09-4.45-.73-1.71-1.1-3.57-1.1-5.6s.37-3.9,1.1-5.61c.73-1.71,1.76-3.19,3.09-4.45,1.32-1.26,2.89-2.25,4.69-2.95,1.79-.71,3.75-1.05,5.86-1.05s4.1.35,5.88,1.05c1.78.71,3.34,1.68,4.67,2.95,1.32,1.26,2.36,2.75,3.08,4.45.73,1.71,1.1,3.57,1.1,5.61s-.37,3.91-1.1,5.63c-.73,1.72-1.76,3.2-3.08,4.45-1.33,1.25-2.89,2.23-4.67,2.93-1.78.71-3.73,1.05-5.85,1.05h.01ZM232.2,119.9c1.38,0,2.66-.24,3.82-.71,1.17-.47,2.18-1.14,3.05-2.01.86-.87,1.53-1.89,2.01-3.05.48-1.16.73-2.44.73-3.85s-.24-2.69-.73-3.85c-.48-1.16-1.15-2.17-2.01-3.05-.86-.87-1.88-1.54-3.05-2.01-1.17-.47-2.45-.71-3.82-.71s-2.65.23-3.81.71c-1.16.48-2.17,1.14-3.05,2.01-.87.87-1.55,1.89-2.03,3.05-.49,1.16-.73,2.44-.73,3.85s.24,2.66.73,3.82c.48,1.17,1.15,2.19,2.01,3.06.86.87,1.88,1.54,3.05,2.01,1.17.47,2.45.71,3.82.71h.01Z"/>
  <path class="st0" d="M259.55,123.96l-11.95-27.34h5.51l10.67,24.73h-3.16l10.79-24.73h5.09l-11.92,27.34h-5.02Z"/>
  <path class="st0" d="M279.37,123.96v-27.34h5.09v27.34h-5.09Z"/>
  <path class="st0" d="M291.84,123.96v-27.34h11.95c2.97,0,5.57.58,7.81,1.72,2.24,1.15,3.99,2.74,5.24,4.77,1.25,2.03,1.88,4.43,1.88,7.19s-.62,5.13-1.88,7.17c-1.25,2.04-3,3.64-5.24,4.79-2.24,1.14-4.85,1.72-7.81,1.72h-11.95ZM296.91,119.67h6.64c2.05,0,3.84-.39,5.34-1.17,1.5-.78,2.66-1.88,3.48-3.28.83-1.4,1.23-3.05,1.23-4.92s-.41-3.55-1.23-4.94c-.83-1.39-1.98-2.48-3.48-3.26-1.5-.78-3.27-1.17-5.34-1.17h-6.64v18.75Z"/>
  <path class="st0" d="M329.19,119.7h15.44v4.26h-20.52v-27.34h19.97v4.26h-14.89v18.84h-.01ZM328.8,107.98h13.6v4.18h-13.6v-4.18Z"/>
  <path class="st0" d="M350.3,123.96v-27.34h11.26c2.42,0,4.5.39,6.24,1.17,1.73.78,3.06,1.9,4.01,3.36.93,1.46,1.4,3.19,1.4,5.19s-.47,3.74-1.4,5.18c-.93,1.44-2.27,2.55-4.01,3.32-1.73.77-3.81,1.15-6.24,1.15h-8.44l2.27-2.3v10.28h-5.09ZM355.37,114.24l-2.27-2.42h8.2c2.24,0,3.93-.48,5.06-1.44,1.13-.97,1.7-2.3,1.7-4.02s-.57-3.08-1.7-4.02-2.83-1.4-5.06-1.4h-8.2l2.27-2.5v15.83-.02ZM368.19,123.96l-6.92-9.92h5.43l6.95,9.92h-5.48.01Z"/>
  <path class="st0" d="M387.34,124.35c-2.14,0-4.18-.3-6.14-.91-1.96-.61-3.51-1.4-4.65-2.36l1.76-3.94c1.1.86,2.44,1.57,4.06,2.15,1.62.58,3.27.86,4.97.86,1.43,0,2.6-.15,3.48-.47s1.53-.74,1.96-1.27c.41-.53.62-1.14.62-1.81,0-.84-.3-1.5-.9-2.01-.6-.51-1.38-.91-2.33-1.21-.96-.3-2.01-.58-3.16-.84-1.16-.26-2.31-.56-3.48-.91-1.16-.35-2.22-.8-3.16-1.37-.96-.55-1.73-1.31-2.33-2.25-.6-.93-.9-2.14-.9-3.6s.4-2.85,1.19-4.08c.79-1.24,2.01-2.23,3.64-2.97,1.63-.74,3.7-1.11,6.19-1.11,1.64,0,3.27.21,4.89.63,1.62.41,3.02,1.01,4.22,1.79l-1.6,3.94c-1.23-.73-2.49-1.27-3.79-1.62-1.3-.35-2.55-.53-3.75-.53-1.4,0-2.54.17-3.42.51-.87.34-1.51.78-1.91,1.32-.4.54-.61,1.17-.61,1.88,0,.84.29,1.51.88,2.01.59.51,1.36.9,2.3,1.2.96.28,2.01.56,3.18.84,1.17.27,2.34.58,3.5.91,1.16.34,2.22.78,3.16,1.33s1.72,1.29,2.3,2.23c.59.93.88,2.12.88,3.55s-.4,2.8-1.2,4.04c-.79,1.24-2.01,2.23-3.65,2.96-1.64.74-3.72,1.11-6.22,1.11h0Z"/>
  <path class="st0" d="M397.44,157.57v1.83h-5.43v3.72h5.98l-.27,1.8h-7.83v-12.33h7.78v1.82h-5.66v3.16h5.43Z"/>
  <path class="st0" d="M376.2,161.34h2.16c.2,1.28,1.04,2.03,2.41,2.03,1.44,0,2.08-.67,2.08-1.71,0-1.2-.66-1.71-2.57-2.28-2.77-.79-3.76-1.74-3.76-3.52,0-2.19,1.72-3.43,4.04-3.43,2.86,0,4.08,1.55,4.2,3.45h-2.14c-.16-1.04-.7-1.76-2.08-1.76-1.22,0-1.83.57-1.83,1.53,0,1.01.63,1.33,2.46,1.87,3.11.92,3.9,2.14,3.9,3.9,0,2.01-1.37,3.67-4.4,3.67-2.66,0-4.33-1.37-4.47-3.74Z"/>
  <path class="st0" d="M367.23,159.65h-1.85v5.26h-2.14v-12.33h4.8c2.28,0,3.9,1.11,3.9,3.27,0,1.72-.95,2.53-1.96,2.89,1.24.45,1.73,1.44,1.73,3.02v.29c0,1.11.05,2.16.16,2.86h-2.1c-.18-.5-.23-1.44-.23-2.88v-.31c0-1.53-.56-2.08-2.3-2.08ZM365.38,154.33v3.58h2.01c1.35,0,2.37-.38,2.37-1.87,0-1.2-.84-1.71-2.01-1.71h-2.37Z"/>
  <path class="st0" d="M358.11,157.57v1.83h-5.43v3.72h5.98l-.27,1.8h-7.83v-12.33h7.78v1.82h-5.66v3.16h5.43Z"/>
  <path class="st0" d="M342.23,164.91h-2.61l-4.01-12.33h2.34l1.74,5.77c.5,1.65,1.01,3.36,1.26,4.51h.04c.25-1.08.81-2.86,1.31-4.47l1.83-5.8h2.25l-4.15,12.33Z"/>
  <path class="st0" d="M329.18,152.59h2.17v12.33h-2.17v-12.33Z"/>
  <path class="st0" d="M315.96,164.91h-1.99v-12.33h2.8c4.1,7.94,4.71,9.15,4.9,9.72h.04c-.13-1.53-.14-3.54-.14-5.55v-4.17h2.01v12.33h-2.68c-4.38-8.68-4.8-9.6-5.01-10.08h-.02c.09,1.58.09,3.68.09,5.89v4.19Z"/>
  <path class="st0" d="M299.16,152.59h2.19v7.85c0,1.58.49,2.89,2.5,2.89s2.44-1.26,2.44-2.91v-7.83h2.21v7.91c0,2.59-1.1,4.6-4.71,4.6s-4.63-1.85-4.63-4.56v-7.94Z"/>
  <path class="st0" d="M281.91,164.91v-10.51h-3.43v-1.82h9.07v1.82h-3.45v10.51h-2.19Z"/>
  <path class="st0" d="M266.12,161.34h2.16c.2,1.28,1.04,2.03,2.41,2.03,1.44,0,2.08-.67,2.08-1.71,0-1.2-.66-1.71-2.57-2.28-2.77-.79-3.75-1.74-3.75-3.52,0-2.19,1.72-3.43,4.04-3.43,2.86,0,4.08,1.55,4.2,3.45h-2.14c-.16-1.04-.7-1.76-2.08-1.76-1.22,0-1.83.57-1.83,1.53,0,1.01.63,1.33,2.46,1.87,3.11.92,3.9,2.14,3.9,3.9,0,2.01-1.36,3.67-4.4,3.67-2.66,0-4.33-1.37-4.47-3.74Z"/>
  <path class="st0" d="M252.3,152.59h2.19v7.85c0,1.58.49,2.89,2.5,2.89s2.44-1.26,2.44-2.91v-7.83h2.21v7.91c0,2.59-1.1,4.6-4.71,4.6s-4.64-1.85-4.64-4.56v-7.94Z"/>
  <path class="st0" d="M242.74,159.65h-1.85v5.26h-2.14v-12.33h4.8c2.28,0,3.9,1.11,3.9,3.27,0,1.72-.95,2.53-1.96,2.89,1.24.45,1.73,1.44,1.73,3.02v.29c0,1.11.05,2.16.16,2.86h-2.1c-.18-.5-.23-1.44-.23-2.88v-.31c0-1.53-.56-2.08-2.3-2.08ZM240.88,154.33v3.58h2.01c1.35,0,2.37-.38,2.37-1.87,0-1.2-.84-1.71-2.01-1.71h-2.37Z"/>
  <path class="st0" d="M228.77,164.91v-10.51h-3.43v-1.82h9.07v1.82h-3.45v10.51h-2.19Z"/>
  <path class="st0" d="M209.09,152.41c3.61,0,5.32,2.88,5.32,6.27s-1.69,6.41-5.48,6.41-5.34-2.86-5.34-6.41c0-3.11,1.67-6.27,5.5-6.27ZM209,154.17c-2.21,0-3.14,1.99-3.14,4.49,0,2.62,1.04,4.69,3.16,4.69,2.28,0,3.16-1.98,3.16-4.65,0-2.46-.88-4.53-3.18-4.53Z"/>
  <path class="st0" d="M194.49,159.65h-1.85v5.26h-2.14v-12.33h4.8c2.28,0,3.9,1.11,3.9,3.27,0,1.72-.95,2.53-1.96,2.89,1.24.45,1.72,1.44,1.72,3.02v.29c0,1.11.05,2.16.16,2.86h-2.1c-.18-.5-.23-1.44-.23-2.88v-.31c0-1.53-.56-2.08-2.3-2.08ZM192.64,154.33v3.58h2.01c1.35,0,2.37-.38,2.37-1.87,0-1.2-.84-1.71-2.01-1.71h-2.37Z"/>
  <path class="st0" d="M185.37,157.57v1.83h-5.43v3.72h5.98l-.27,1.8h-7.83v-12.33h7.78v1.82h-5.66v3.16h5.43Z"/>
  <path class="st0" d="M164,164.91v-1.58l6.36-8.93h-6.04v-1.82h8.59v1.78l-6.24,8.73h6.54l-.29,1.82h-8.93Z"/>
</svg>