<svg width="161" height="36" xmlns="http://www.w3.org/2000/svg"><g fill="#222" fill-rule="nonzero" opacity=".597"><path d="M157.01.065a46.512 46.512 0 0 1 3.7-.032c-3.7 7.789-7.27 15.644-10.874 23.465h-3.018c-1.656-3.928-3.603-7.757-5.324-11.684a66.123 66.123 0 0 1 3.603 0c1.039 2.422 2.272 4.745 3.214 7.167 2.889-6.316 5.875-12.6 8.699-18.916zM64.075 3.404c2.37.032 4.772.032 7.141 0a211.276 211.276 0 0 0 0 6.414c-2.37-.033-4.771 0-7.173-.033.064-2.127 0-4.254.032-6.381zm-35.933 9.163c4.869-2.782 11.945-1.833 15.224 2.978 2.013 2.848 2.597 6.448 2.564 9.851-5.583.033-11.166 0-16.749.033.26 1.735 1.007 3.567 2.597 4.484 2.272 1.341 5.843.949 6.979-1.702 2.305-.066 4.577-.066 6.881 0-.714 2.65-2.629 4.909-5.03 6.153-2.598 1.44-5.714 1.701-8.603 1.21-3.05-.49-5.875-2.225-7.595-4.81-1.883-2.75-2.37-6.251-1.948-9.491.422-3.568 2.532-6.939 5.68-8.706zm3.798 4.091c-1.59.753-2.37 2.487-2.727 4.156h9.543c-.194-1.276-.649-2.618-1.623-3.501-1.363-1.342-3.538-1.375-5.193-.655zm71.054-5.334c3.83-.688 8.082.13 11.036 2.814 5.031 4.517 5.258 13.255.584 18.098-3.7 3.895-9.9 4.615-14.639 2.422-3.668-1.67-6.167-5.433-6.59-9.426-.162-2.323-.064-4.712.877-6.872 1.428-3.699 4.902-6.382 8.732-7.037zm.811 5.334c-2.012.72-2.954 2.913-3.246 4.91-.227 2.486-.194 5.301 1.396 7.363 1.72 2.258 5.518 2.192 7.239-.033 1.428-1.8 1.655-4.254 1.493-6.48-.098-1.964-.78-4.058-2.402-5.269-1.299-.884-3.02-1.015-4.48-.49zm24.67-3.993c2.369-1.865 5.745-2.061 8.471-.949 1.948.851 3.409 2.586 4.09 4.582.78 2.062.552 4.287.552 6.447 0 4.124-.032 8.248.032 12.338-2.37.033-4.739 0-7.14.033V20.978c0-1.21-.455-2.52-1.461-3.273-1.526-1.047-3.733-.85-5.032.459-1.038 1.047-1.493 2.552-1.46 3.992v12.96c-2.337-.032-4.707 0-7.044-.032 0-7.79.032-15.578 0-23.367 2.305.032 4.577-.033 6.881.032-.032 1.08-.032 2.16-.064 3.24.714-.785 1.298-1.669 2.174-2.323zm-128.48-.883h7.4c1.493 5.007 3.084 10.015 4.48 15.055 1.72-4.942 3.018-10.047 4.641-15.055 2.37-.033 4.772 0 7.141-.033-2.726 7.79-5.388 15.578-8.082 23.367-2.467 0-4.934-.033-7.401.033-2.824-7.757-5.323-15.644-8.18-23.367zm47.552-.033h6.817c-.033 1.31 0 2.618-.065 3.927.584-.654 1.006-1.472 1.623-2.094 1.525-1.702 4.025-2.39 6.232-1.8a194.38 194.38 0 0 0 0 6.153c-1.753-.197-3.7-.131-5.193.949-1.59 1.112-2.305 3.174-2.273 5.072-.032 3.731 0 7.43 0 11.16-2.37 0-4.771-.032-7.14.033.032-7.822.032-15.61 0-23.4zm16.522.033c2.402-.033 4.772 0 7.174-.033-.033 7.79 0 15.578 0 23.367-2.37-.033-4.772 0-7.174 0V11.781zm9.089-.033c6.46.033 12.919 0 19.346.033-.065 1.8 0 3.567-.032 5.367-.228.458-.617.786-.91 1.178-3.31 3.698-6.556 7.495-9.932 11.16 3.798.066 7.596 0 11.393.033v5.63c-6.622-.034-13.244-.034-19.865 0v-5.434c3.473-3.927 6.914-7.821 10.42-11.716.097-.196.52-.392.292-.654-3.57.098-7.141 0-10.712.065V11.75z"/></g></svg>