<svg width="500" height="116" viewBox="0 0 500 116" fill="none" xmlns="http://www.w3.org/2000/svg">
<path d="M278.479 2.6386H309.288L293.789 113.21H262.98L278.479 2.6386ZM239.637 2.6386L218.846 66.3353L209.774 2.6386H188.227L161.009 66.1463L157.607 2.6386H127.743L138.139 113.21H162.899L193.519 43.2759L204.292 113.21H228.675L268.934 2.6386H239.637V2.6386ZM498.299 66.9023H425.152C425.53 81.2671 434.13 90.7177 446.793 90.7177C456.338 90.7177 463.899 85.6144 469.758 75.8803L494.453 87.1076C485.966 103.826 468.085 114.722 446.037 114.722C415.985 114.722 396.044 94.4979 396.044 61.988C396.044 26.265 419.481 0.9375 452.558 0.9375C481.666 0.9375 500 20.5946 500 51.2144C500 56.3177 499.433 61.421 498.299 66.9023V66.9023ZM470.892 45.7331C470.892 32.8803 463.71 24.7529 452.18 24.7529C440.651 24.7529 430.444 33.2584 427.798 45.7331H470.892ZM31.4514 35.9612L0 72.7144H56.1551L62.4681 55.3821H38.407L53.1121 38.3806L53.1593 37.9269L43.5954 21.4735H86.6048L53.2633 113.21H76.0769L116.336 2.6386H12.3235L31.442 35.9612H31.4514ZM359.376 24.7529C370.244 24.7529 379.77 30.5933 388.087 40.6109L392.453 9.44299C384.703 4.19794 374.213 0.9375 360.321 0.9375C332.725 0.9375 317.226 17.0979 317.226 37.6056C317.226 51.8287 325.165 60.5232 338.207 66.1463L344.444 68.9814C356.068 73.943 359.187 76.4001 359.187 81.6452C359.187 86.8902 353.942 90.5287 345.956 90.5287C332.773 90.5759 322.093 83.8188 314.061 72.2891L309.609 104.052C318.757 111.027 330.486 114.722 345.956 114.722C372.181 114.722 388.295 99.6012 388.295 78.621C388.295 64.3507 381.963 55.1836 365.991 48.0012L359.187 44.788C349.736 40.5825 346.523 38.2672 346.523 33.6364C346.523 28.6276 350.918 24.7529 359.376 24.7529V24.7529Z" fill="#7B7B7B"/>
</svg>
