<svg fill="none" stroke-linecap="square" stroke-miterlimit="10" viewBox="0 0 632.9 344.71" xmlns="http://www.w3.org/2000/svg"><clipPath id="a"><path d="M0 0h632.9v344.71H0V0z"/></clipPath><g clip-path="url(#a)"><path d="M0 0h632.9v344.71H0z" fill="none"/><path d="M130.3 5.486h494.96v269.81c-247.48 0-247.48 102.8-494.96 44.392z" fill="#fff2cc" fill-rule="evenodd"/><path d="M130.3 5.486h494.96v269.81c-247.48 0-247.48 102.8-494.96 44.392z" stroke="#000" stroke-linecap="butt" stroke-linejoin="round"/><path d="M298.87 32.406V19.047h5.922q1.781 0 2.703.36.938.359 1.484 1.28.563.907.563 2.016 0 1.406-.922 2.39-.922.97-2.844 1.235.703.344 1.078.672.766.703 1.453 1.766l2.329 3.64h-2.22l-1.765-2.78q-.781-1.204-1.281-1.829-.5-.64-.906-.89-.39-.266-.797-.36-.297-.078-.985-.078h-2.046v5.937h-1.766zm1.766-7.453h3.796q1.22 0 1.891-.25.688-.266 1.047-.813t.36-1.187q0-.953-.688-1.563t-2.188-.609h-4.218v4.422zm10.864 2.61q0-2.688 1.484-3.97 1.25-1.078 3.047-1.078 2 0 3.265 1.313 1.266 1.297 1.266 3.61 0 1.859-.562 2.937-.563 1.062-1.641 1.656-1.063.594-2.328.594-2.031 0-3.281-1.297-1.25-1.313-1.25-3.766zm1.687 0q0 1.859.797 2.796.812.922 2.047.922 1.219 0 2.031-.922.813-.937.813-2.844 0-1.797-.813-2.718t-2.031-.922q-1.235 0-2.047.922-.797.906-.797 2.765zm15.626 4.843v-1.422q-1.125 1.64-3.062 1.64-.86 0-1.61-.327-.734-.329-1.094-.829t-.5-1.218q-.109-.47-.109-1.532v-5.984h1.64v5.36q0 1.28.11 1.734.156.64.656 1.015t1.235.375 1.375-.375q.656-.39.922-1.03.265-.657.265-1.891v-5.188h1.64v9.672h-1.468zm7.626-1.469.234 1.453q-.687.141-1.234.141-.89 0-1.39-.281-.485-.281-.688-.735-.203-.468-.203-1.937V24h-1.204v-1.266h1.204v-2.39l1.625-.985v3.375h1.656V24h-1.656v5.672q0 .687.078.89.093.203.28.328.204.11.58.11.265 0 .718-.063zm8.23-1.64 1.688.203q-.407 1.484-1.485 2.312-1.078.813-2.766.813-2.125 0-3.375-1.297-1.234-1.313-1.234-3.672 0-2.453 1.25-3.797 1.266-1.344 3.266-1.344 1.937 0 3.156 1.328 1.234 1.313 1.234 3.704v.437h-7.219q.094 1.594.907 2.453.812.844 2.015.844.907 0 1.547-.469.64-.484 1.016-1.515zm-5.39-2.656h5.406q-.11-1.22-.625-1.829-.782-.953-2.032-.953-1.125 0-1.906.766-.765.75-.844 2.016zm18.875 1.078 1.766.453q-.563 2.172-2 3.328-1.438 1.14-3.531 1.14-2.156 0-3.516-.875-1.344-.89-2.062-2.546-.703-1.672-.703-3.594 0-2.078.796-3.625.797-1.563 2.266-2.36 1.484-.812 3.25-.812 2 0 3.36 1.015 1.374 1.016 1.906 2.875l-1.735.407q-.468-1.453-1.36-2.11-.874-.672-2.202-.672-1.547 0-2.578.735t-1.453 1.984q-.422 1.235-.422 2.563 0 1.703.5 2.968t1.547 1.907q1.046.625 2.265.625 1.485 0 2.516-.86t1.39-2.547zm3.13-.157q0-2.687 1.484-3.968 1.25-1.079 3.047-1.079 2 0 3.265 1.313 1.266 1.297 1.266 3.61 0 1.859-.562 2.937-.563 1.062-1.641 1.656-1.063.594-2.328.594-2.031 0-3.281-1.297-1.25-1.313-1.25-3.766zm1.687 0q0 1.86.797 2.797.812.922 2.047.922 1.219 0 2.031-.922.813-.937.813-2.844 0-1.796-.813-2.718t-2.031-.922q-1.235 0-2.047.922-.797.906-.797 2.765zm9.298 4.844v-9.672h1.468v1.375q1.063-1.594 3.079-1.594.875 0 1.609.313t1.094.828q.375.5.515 1.203.094.453.094 1.594v5.953h-1.64v-5.89q0-1-.204-1.485-.187-.5-.671-.797t-1.141-.297q-1.047 0-1.813.672-.75.656-.75 2.516v5.28h-1.64zm10.766 0V24h-1.453v-1.266h1.453v-1.03q0-.97.172-1.454.234-.64.828-1.031t1.672-.39q.687 0 1.53.155l-.25 1.438q-.5-.094-.952-.094-.75 0-1.063.328-.312.313-.312 1.188v.89h1.89V24h-1.89v8.406h-1.625zm4.792-11.469v-1.89h1.641v1.89h-1.64zm0 11.469v-9.672h1.641v9.672h-1.64zm3.833.797 1.593.234q.11.75.563 1.078.61.454 1.672.454 1.14 0 1.75-.454.625-.453.844-1.265.125-.5.109-2.11-1.062 1.266-2.672 1.266-2 0-3.094-1.437-1.093-1.438-1.093-3.454 0-1.39.5-2.562.515-1.172 1.453-1.797.953-.64 2.25-.64 1.703 0 2.812 1.374v-1.156h1.516v8.36q0 2.265-.469 3.203-.453.937-1.453 1.484-.984.547-2.453.547-1.719 0-2.797-.781-1.063-.766-1.031-2.344zm1.36-5.813q0 1.907.75 2.782.765.875 1.905.875 1.125 0 1.89-.86.767-.875.767-2.734 0-1.781-.797-2.672-.782-.906-1.891-.906-1.094 0-1.86.89-.765.875-.765 2.625zm15.656 5.016v-1.422q-1.125 1.64-3.062 1.64-.86 0-1.61-.327-.734-.329-1.094-.829t-.5-1.218q-.109-.47-.109-1.532v-5.984h1.64v5.36q0 1.28.11 1.734.156.64.656 1.015t1.235.375 1.375-.375q.656-.39.922-1.03.265-.657.265-1.891v-5.188h1.64v9.672h-1.468zm4.032 0v-9.672h1.469v1.469q.562-1.031 1.031-1.36.484-.328 1.063-.328.828 0 1.687.532l-.562 1.515q-.61-.36-1.204-.36-.546 0-.968.329t-.61.89q-.28.876-.28 1.923v5.062h-1.626zm12.541-1.187q-.922.765-1.766 1.093-.828.313-1.796.313-1.594 0-2.454-.782-.859-.78-.859-1.984 0-.719.328-1.297.328-.594.844-.937.531-.36 1.187-.547.47-.125 1.454-.25 1.984-.235 2.921-.563.016-.343.016-.422 0-1-.469-1.421-.625-.547-1.875-.547-1.156 0-1.703.406t-.812 1.422l-1.61-.219q.22-1.016.72-1.64.5-.641 1.452-.985t2.188-.344q1.25 0 2.015.297.782.281 1.14.735.376.437.517 1.109.078.422.078 1.516v2.187q0 2.281.109 2.89.11.594.406 1.157h-1.703q-.265-.516-.328-1.188zm-.14-3.672q-.891.375-2.672.625-1.016.14-1.438.328t-.656.531q-.219.344-.219.781 0 .656.5 1.094t1.453.438q.938 0 1.672-.407.75-.422 1.094-1.14.265-.563.265-1.64v-.61zm7.781 3.39.235 1.453q-.688.14-1.235.14-.89 0-1.39-.28-.485-.282-.688-.735-.203-.468-.203-1.937V24h-1.203v-1.266h1.203v-2.39l1.625-.985v3.375h1.656V24h-1.656v5.672q0 .687.078.89.094.203.282.328.203.11.578.11.265 0 .718-.063zm1.606-10v-1.89h1.64v1.89h-1.64zm0 11.47v-9.673h1.64v9.672h-1.64zm3.535-4.844q0-2.688 1.485-3.97 1.25-1.077 3.046-1.077 2 0 3.266 1.312 1.266 1.297 1.266 3.61 0 1.859-.563 2.937-.562 1.063-1.64 1.656-1.063.594-2.329.594-2.03 0-3.28-1.297-1.25-1.312-1.25-3.766zm1.688 0q0 1.859.797 2.796.812.922 2.046.922 1.22 0 2.032-.922.812-.937.812-2.843 0-1.797-.812-2.72t-2.032-.921q-1.234 0-2.046.922-.797.906-.797 2.765zm9.297 4.843v-9.672h1.47v1.375q1.062-1.593 3.077-1.593.875 0 1.61.312t1.093.828q.375.5.516 1.203.094.453.094 1.594v5.953h-1.64v-5.89q0-1-.204-1.485-.187-.5-.672-.797t-1.14-.297q-1.047 0-1.813.672-.75.657-.75 2.516v5.281h-1.64z" fill="#000"/><path d="M173.93 90.365h589.04v68.724H173.93z" fill="none"/><path d="M184.16 117.28v-11.453h4.328q1.14 0 1.735.11.843.14 1.406.53.578.391.922 1.11.359.703.359 1.563 0 1.453-.938 2.468-.921 1.016-3.359 1.016h-2.937v4.656h-1.516zm1.516-6.016h2.968q1.47 0 2.078-.546.625-.547.625-1.532 0-.718-.375-1.234-.359-.516-.953-.672-.375-.11-1.406-.11h-2.937v4.094zm14.39 4.985q-.78.672-1.5.953-.718.266-1.546.266-1.375 0-2.11-.672t-.734-1.703q0-.61.281-1.11.281-.515.719-.812.453-.313 1.016-.47.421-.108 1.25-.202 1.703-.203 2.515-.485v-.375q0-.859-.39-1.203-.547-.484-1.61-.484-.984 0-1.469.36-.468.343-.687 1.218l-1.375-.187q.187-.875.61-1.422.437-.547 1.25-.828.812-.297 1.874-.297t1.719.25q.672.25.984.625t.438.953q.078.36.078 1.297v1.875q0 1.969.078 2.484.094.516.36 1h-1.47q-.218-.437-.28-1.031zm-.109-3.14q-.765.312-2.297.53-.875.125-1.234.282t-.563.468q-.187.297-.187.657 0 .562.422.937.437.375 1.25.375t1.437-.344q.64-.359.938-.984.234-.469.234-1.406v-.516zm6.664 2.905.203 1.25q-.593.125-1.062.125-.766 0-1.188-.234-.421-.25-.593-.64-.172-.407-.172-1.673v-4.765h-1.031v-1.094h1.03v-2.062l1.407-.844v2.906h1.406v1.094h-1.406v4.844q0 .609.063.78.078.173.25.282.171.094.484.094.234 0 .61-.063zm1.383 1.266v-11.453h1.406v4.11q.985-1.141 2.485-1.141.922 0 1.594.36.687.359.968 1 .297.64.297 1.859v5.265h-1.406v-5.265q0-1.047-.453-1.532t-1.297-.484q-.625 0-1.172.328t-.781.89q-.235.548-.235 1.516v4.547h-1.406zm13.344 0v-8.297h1.25v1.156q.39-.61 1.031-.968.657-.375 1.485-.375.922 0 1.515.39.594.375.828 1.063.985-1.453 2.563-1.453 1.234 0 1.89.687.672.672.672 2.094v5.703h-1.39v-5.234q0-.844-.14-1.204-.141-.375-.5-.593-.36-.235-.845-.235-.875 0-1.453.578t-.578 1.86v4.828h-1.406v-5.39q0-.938-.344-1.407t-1.125-.469q-.593 0-1.094.313t-.734.922q-.219.594-.219 1.719v4.312h-1.406zm18.734-1.031q-.781.672-1.5.953-.719.266-1.547.266-1.375 0-2.11-.672t-.734-1.703q0-.61.282-1.11.28-.515.718-.812.454-.313 1.016-.47.422-.108 1.25-.202 1.703-.203 2.516-.485v-.375q0-.859-.391-1.203-.547-.484-1.61-.484-.984 0-1.468.36-.469.343-.688 1.218l-1.375-.187q.188-.875.61-1.422.437-.547 1.25-.828.812-.297 1.875-.297t1.719.25q.671.25.984.625t.437.953q.079.36.079 1.297v1.875q0 1.969.078 2.484.093.516.359 1h-1.469q-.219-.437-.281-1.031zm-.11-3.14q-.765.312-2.296.53-.875.125-1.235.282t-.562.468q-.188.297-.188.657 0 .562.422.937.438.375 1.25.375t1.438-.344q.64-.359.937-.984.235-.469.235-1.406v-.516zm6.665 2.905.203 1.25q-.594.125-1.063.125-.765 0-1.187-.234-.422-.25-.594-.64-.172-.407-.172-1.673v-4.765h-1.03v-1.094h1.03v-2.062l1.407-.844v2.906h1.406v1.094h-1.406v4.844q0 .609.062.78.078.173.25.282.172.094.484.094.235 0 .61-.063zm6.789-1.78 1.39.187q-.234 1.422-1.171 2.234-.922.813-2.282.813-1.703 0-2.75-1.11-1.03-1.125-1.03-3.203 0-1.344.437-2.344.453-1.015 1.36-1.515.921-.5 1.984-.5 1.359 0 2.218.687.86.672 1.094 1.938l-1.36.203q-.202-.828-.702-1.25-.485-.422-1.188-.422-1.062 0-1.734.766-.657.75-.657 2.406 0 1.672.641 2.437.64.75 1.672.75.828 0 1.375-.5.562-.515.703-1.578zm2.594 3.046v-11.453h1.406v4.11q.984-1.141 2.484-1.141.922 0 1.594.36.688.359.969 1 .297.64.297 1.859v5.265h-1.406v-5.265q0-1.047-.454-1.532t-1.296-.484q-.625 0-1.172.328t-.782.89q-.234.548-.234 1.516v4.547h-1.406zm9.289-6.703v-1.594h1.594v1.594h-1.594zm0 6.703v-1.61h1.594v1.61h-1.594z" fill="#000"/><path d="m281.56 104.41-6.25 14.828h-1.516l6.25-14.828h1.516zm11.023 1.484q-1.25-.265-2.156-.265-2.14 0-2.14 2.234v1.61h4.015v1.312h-4.016v6.5h-1.61v-6.5h-2.937v-1.312h2.938v-1.516q0-3.656 3.812-3.656.938 0 2.094.219v1.375zm-9.578 2.25zm19.679 4.5q0 1.063-.313 1.953-.296.891-.859 1.532-.562.625-1.375.968t-1.844.344q-.984 0-1.765-.297-.766-.312-1.313-.89-.547-.594-.828-1.47t-.281-2.015q0-1.062.297-1.937.297-.89.859-1.516.563-.64 1.375-.984.813-.36 1.844-.36.984 0 1.765.313.782.297 1.313.89.547.579.828 1.454.297.875.297 2.015zm-1.625.063q0-.844-.188-1.469-.187-.64-.53-1.062t-.845-.641-1.109-.219q-.703 0-1.219.281-.5.282-.828.75-.312.454-.469 1.079-.156.609-.156 1.28 0 .86.188 1.5.187.626.53 1.048.36.422.845.64.5.219 1.109.219.719 0 1.219-.281t.828-.735q.328-.468.469-1.078.156-.625.156-1.312zm11.882-.063q0 1.063-.313 1.953-.296.891-.859 1.532-.562.625-1.375.968t-1.844.344q-.984 0-1.765-.297-.766-.312-1.313-.89-.547-.594-.828-1.47t-.281-2.015q0-1.062.297-1.937.297-.89.859-1.516.563-.64 1.375-.984.813-.36 1.844-.36.984 0 1.765.313.782.297 1.313.89.547.579.828 1.454.297.875.297 2.015zm-1.625.063q0-.844-.188-1.469-.187-.64-.53-1.062t-.845-.641-1.109-.219q-.703 0-1.219.281-.5.282-.828.75-.312.454-.469 1.079-.156.609-.156 1.28 0 .86.188 1.5.187.626.53 1.048.36.422.845.64.5.219 1.109.219.719 0 1.219-.281t.828-.735q.328-.468.469-1.078.156-.625.156-1.312z" fill="#274e13"/><path d="M184.16 161.28v-11.453h4.328q1.14 0 1.735.11.843.14 1.406.53.578.391.922 1.11.359.703.359 1.563 0 1.453-.938 2.468-.921 1.016-3.359 1.016h-2.937v4.656h-1.516zm1.516-6.016h2.968q1.47 0 2.078-.546.625-.547.625-1.532 0-.718-.375-1.234-.359-.516-.953-.672-.375-.11-1.406-.11h-2.937v4.094zm14.39 4.985q-.78.672-1.5.953-.718.266-1.546.266-1.375 0-2.11-.672t-.734-1.703q0-.61.281-1.11.281-.515.719-.812.453-.313 1.016-.47.421-.108 1.25-.202 1.703-.203 2.515-.485v-.375q0-.859-.39-1.203-.547-.484-1.61-.484-.984 0-1.469.36-.468.343-.687 1.218l-1.375-.187q.187-.875.61-1.422.437-.547 1.25-.828.812-.297 1.874-.297t1.719.25q.672.25.984.625t.438.953q.078.36.078 1.297v1.875q0 1.969.078 2.484.094.516.36 1h-1.47q-.218-.437-.28-1.031zm-.109-3.14q-.765.312-2.297.53-.875.125-1.234.282t-.563.468q-.187.297-.187.657 0 .562.422.937.437.375 1.25.375t1.437-.344q.64-.359.938-.984.234-.469.234-1.406v-.516zm6.664 2.905.203 1.25q-.593.125-1.062.125-.766 0-1.188-.234-.421-.25-.593-.64-.172-.407-.172-1.672v-4.766h-1.031v-1.094h1.03v-2.062l1.407-.844v2.906h1.406v1.094h-1.406v4.844q0 .609.063.78.078.173.25.282.171.094.484.094.234 0 .61-.063zm1.383 1.266v-11.453h1.406v4.11q.985-1.141 2.485-1.141.922 0 1.594.36.687.359.968 1 .297.64.297 1.859v5.265h-1.406v-5.265q0-1.047-.453-1.532t-1.297-.484q-.625 0-1.172.328t-.781.89q-.235.548-.235 1.516v4.547h-1.406zm13.344 0v-8.297h1.25v1.156q.39-.61 1.031-.968.657-.375 1.485-.375.922 0 1.515.39.594.375.828 1.063.985-1.453 2.563-1.453 1.234 0 1.89.687.672.672.672 2.094v5.703h-1.39v-5.234q0-.844-.14-1.204-.141-.375-.5-.593-.36-.235-.845-.235-.875 0-1.453.578t-.578 1.86v4.828h-1.406v-5.39q0-.938-.344-1.407t-1.125-.469q-.593 0-1.094.313t-.734.922q-.219.594-.219 1.719v4.312h-1.406zm18.734-1.031q-.781.672-1.5.953-.719.266-1.547.266-1.375 0-2.11-.672t-.734-1.703q0-.61.282-1.11.28-.515.718-.812.454-.313 1.016-.47.422-.108 1.25-.202 1.703-.203 2.516-.485v-.375q0-.859-.391-1.203-.547-.484-1.61-.484-.984 0-1.468.36-.469.343-.688 1.218l-1.375-.187q.188-.875.61-1.422.437-.547 1.25-.828.812-.297 1.875-.297t1.719.25q.671.25.984.625t.437.953q.079.36.079 1.297v1.875q0 1.969.078 2.484.093.516.359 1h-1.469q-.219-.437-.281-1.031zm-.11-3.14q-.765.312-2.296.53-.875.125-1.235.282t-.562.468q-.188.297-.188.657 0 .562.422.937.438.375 1.25.375t1.438-.344q.64-.359.937-.984.235-.469.235-1.406v-.516zm6.665 2.905.203 1.25q-.594.125-1.063.125-.765 0-1.187-.234-.422-.25-.594-.64-.172-.407-.172-1.672v-4.766h-1.03v-1.094h1.03v-2.062l1.407-.844v2.906h1.406v1.094h-1.406v4.844q0 .609.062.78.078.173.25.282.172.094.484.094.235 0 .61-.063zm6.789-1.78 1.39.187q-.234 1.422-1.171 2.234-.922.813-2.282.813-1.703 0-2.75-1.11-1.03-1.125-1.03-3.203 0-1.344.437-2.344.453-1.015 1.36-1.515.921-.5 1.984-.5 1.359 0 2.218.687.86.672 1.094 1.938l-1.36.203q-.202-.828-.702-1.25-.485-.422-1.188-.422-1.062 0-1.734.766-.657.75-.657 2.406 0 1.672.641 2.437.64.75 1.672.75.828 0 1.375-.5.562-.515.703-1.578zm2.594 3.046v-11.453h1.406v4.11q.984-1.141 2.484-1.141.922 0 1.594.36.688.359.969 1 .297.64.297 1.859v5.265h-1.406v-5.265q0-1.047-.454-1.532t-1.296-.484q-.625 0-1.172.328t-.782.89q-.234.548-.234 1.516v4.547h-1.406zm9.289-6.703v-1.594h1.594v1.594h-1.594zm0 6.703v-1.61h1.594v1.61h-1.594z" fill="#000"/><path d="m282.3 148.41-6.25 14.828h-1.516l6.25-14.828h1.516zm10.726 8.14q0 1.141-.328 2.047-.313.891-.89 1.516-.579.61-1.407.953-.828.328-1.86.328-.812 0-1.671-.156-.844-.156-1.672-.484V148.41h1.594v3.547l-.078 1.687q.687-.906 1.453-1.281.78-.39 1.687-.39.781 0 1.375.327t.985.938q.406.594.609 1.437.203.829.203 1.875zm-1.625.063q0-.719-.11-1.312-.109-.61-.343-1.032-.219-.421-.578-.656-.344-.25-.844-.25-.297 0-.61.094t-.64.328q-.328.219-.703.594-.36.36-.781.906v4.438q.453.171.937.28t.922.11q.547 0 1.047-.172t.875-.578.594-1.078q.234-.672.234-1.672zm9.93 4.672-.032-1.234q-.75.75-1.516 1.078-.765.312-1.625.312-.78 0-1.343-.187-.547-.203-.907-.547-.36-.36-.531-.828-.156-.485-.156-1.031 0-1.376 1.015-2.157 1.032-.781 3.032-.781h1.89v-.797q0-.812-.515-1.297-.516-.5-1.579-.5-.78 0-1.53.188-.75.172-1.548.484v-1.437q.297-.11.657-.203.375-.11.78-.188t.86-.125q.453-.062.907-.062.828 0 1.484.187.672.172 1.125.547.469.375.703.953.25.563.25 1.328v6.297h-1.422zm-.173-4.156h-2.015q-.578 0-1.016.125-.422.11-.703.328-.266.219-.406.531-.125.297-.125.672 0 .266.078.516.078.234.265.422t.47.296q.296.11.718.11.547 0 1.25-.328.703-.344 1.484-1.063v-1.61zm4.93-4.985h1.453l.046 1.688q.813-.984 1.594-1.422.797-.438 1.594-.438 1.422 0 2.156.922t.672 2.735h-1.594q.016-1.203-.359-1.735-.375-.547-1.11-.547-.312 0-.64.11t-.672.36q-.328.25-.719.64-.375.39-.812.953v5.875h-1.61v-9.14z" fill="#274e13"/><path d="M184.16 205.28v-11.453h4.328q1.14 0 1.735.11.843.14 1.406.53.578.391.922 1.11.359.703.359 1.563 0 1.453-.938 2.468-.921 1.016-3.359 1.016h-2.937v4.656h-1.516zm1.516-6.016h2.968q1.47 0 2.078-.546.625-.547.625-1.532 0-.718-.375-1.234-.359-.516-.953-.672-.375-.11-1.406-.11h-2.937v4.094zm14.39 4.985q-.78.672-1.5.953-.718.266-1.546.266-1.375 0-2.11-.672t-.734-1.703q0-.61.281-1.11.281-.515.719-.812.453-.313 1.016-.47.421-.108 1.25-.202 1.703-.203 2.515-.485v-.375q0-.859-.39-1.203-.547-.484-1.61-.484-.984 0-1.469.36-.468.343-.687 1.218l-1.375-.187q.187-.875.61-1.422.437-.547 1.25-.828.812-.297 1.874-.297t1.719.25q.672.25.984.625t.438.953q.078.36.078 1.297v1.875q0 1.969.078 2.484.094.516.36 1h-1.47q-.218-.437-.28-1.031zm-.109-3.14q-.765.312-2.297.53-.875.125-1.234.282t-.563.468q-.187.297-.187.657 0 .562.422.937.437.375 1.25.375t1.437-.344q.64-.359.938-.984.234-.469.234-1.406v-.516zm6.664 2.905.203 1.25q-.593.125-1.062.125-.766 0-1.188-.234-.421-.25-.593-.64-.172-.407-.172-1.672v-4.766h-1.031v-1.094h1.03v-2.062l1.407-.844v2.906h1.406v1.094h-1.406v4.844q0 .609.063.78.078.173.25.282.171.094.484.094.234 0 .61-.063zm1.383 1.266v-11.453h1.406v4.11q.985-1.141 2.485-1.141.922 0 1.594.36.687.359.968 1 .297.64.297 1.859v5.265h-1.406v-5.265q0-1.047-.453-1.532t-1.297-.484q-.625 0-1.172.328t-.781.89q-.235.548-.235 1.516v4.547h-1.406zm12.781-2.484 1.39-.22q.11.845.641 1.298.547.437 1.5.437.97 0 1.438-.39.469-.407.469-.938 0-.469-.407-.75-.297-.187-1.437-.469-1.547-.39-2.156-.672-.594-.296-.907-.796-.296-.5-.296-1.11 0-.562.25-1.031t.687-.781q.328-.25.89-.406.579-.172 1.22-.172.984 0 1.718.28t1.078.767q.36.468.5 1.28l-1.375.188q-.093-.64-.547-1t-1.265-.36q-.969 0-1.39.329-.407.312-.407.734 0 .282.172.5t.531.375q.219.078 1.25.36 1.485.39 2.078.656.594.25.922.734.344.485.344 1.203 0 .704-.422 1.329-.406.609-1.188.953-.765.343-1.734.343-1.625 0-2.469-.671t-1.078-2zm14 2.484v-1.219q-.969 1.406-2.64 1.406-.735 0-1.375-.28-.625-.282-.938-.704-.312-.437-.437-1.047-.079-.422-.079-1.312v-5.141h1.407v4.594q0 1.11.078 1.484.14.563.562.875.438.313 1.063.313.64 0 1.187-.313.563-.328.781-.89.235-.563.235-1.625v-4.438h1.406v8.297h-1.25zm3.79 0v-7.203h-1.235v-1.094h1.234v-.89q0-.829.156-1.235.204-.547.704-.89.515-.344 1.437-.344.594 0 1.313.14L241.98 195q-.437-.078-.828-.078-.64 0-.906.28-.266.266-.266 1.016v.766h1.61v1.094h-1.61v7.203h-1.406zm4.155 0v-7.203h-1.234v-1.094h1.234v-.89q0-.829.157-1.235.203-.547.703-.89.515-.344 1.437-.344.594 0 1.313.14l-.203 1.235q-.438-.078-.828-.078-.641 0-.907.28-.265.266-.265 1.016v.766h1.61v1.094h-1.61v7.203h-1.407zm4.118-9.844v-1.61h1.406v1.61h-1.406zm0 9.844v-8.297h1.406v8.297h-1.406zm2.617 0 3.031-4.313-2.812-3.984h1.765l1.266 1.938q.36.562.578.937.344-.516.64-.922l1.391-1.953h1.688l-2.875 3.906 3.093 4.39h-1.734l-1.703-2.577-.453-.703-2.172 3.28h-1.703zm9.328-6.703v-1.594h1.594v1.594h-1.594zm0 6.703v-1.61h1.594v1.61h-1.594z" fill="#000"/><path d="M272.03 202.41q.297 0 .578.125t.484.328.313.485q.125.28.125.593t-.125.594q-.11.266-.313.469t-.484.312q-.281.125-.578.125-.328 0-.61-.125-.265-.11-.468-.312t-.328-.469q-.11-.281-.11-.594t.11-.594q.125-.28.328-.484t.469-.328q.28-.125.609-.125zm14.476-1.86q0 1.22-.344 2.141-.344.906-.953 1.516-.594.594-1.422.89-.812.297-1.765.297-.438 0-.875-.047t-.875-.156v3.828h-1.594v-12.875h1.422l.093 1.531q.688-.937 1.454-1.312.78-.39 1.687-.39.781 0 1.375.327t.984.938q.407.594.61 1.437.203.829.203 1.875zm-1.625.063q0-.719-.11-1.312-.109-.61-.343-1.032-.219-.421-.578-.656-.344-.25-.844-.25-.297 0-.61.094t-.64.328q-.328.219-.703.594-.36.36-.781.906v4.438q.437.171.922.28t.937.11q1.281 0 2.016-.875t.734-2.625zm4.054-4.469h1.422l.063 1.47q.39-.47.765-.782t.735-.5q.359-.203.734-.281t.781-.079q1.406 0 2.125.844.735.828.735 2.5v5.969H294.7v-5.844q0-1.078-.406-1.578-.391-.515-1.188-.515-.281 0-.562.093-.282.078-.579.297-.296.203-.656.578-.344.36-.781.907v6.062h-1.594v-9.14zm16.851 1.282q.25.328.39.75t.141.921q0 .704-.265 1.297-.25.578-.735 1-.468.422-1.125.657t-1.453.234q-.578 0-1.078-.125t-.781-.313q-.188.266-.313.5-.109.22-.109.5 0 .344.328.579.344.218.89.234l2.407.094q.672.015 1.25.172.594.156 1 .453.422.28.64.718.235.422.235.985 0 .61-.266 1.156-.25.547-.812.953-.547.422-1.39.672t-2.016.25q-1.11 0-1.89-.188-.782-.171-1.282-.484t-.734-.75q-.22-.422-.22-.953 0-.656.298-1.156.312-.5.968-.969-.234-.11-.406-.266-.172-.171-.281-.359-.11-.203-.172-.422-.047-.219-.047-.437 0-.578.266-1.063.281-.5.672-.937-.172-.22-.313-.407-.125-.203-.234-.437-.094-.234-.14-.5-.048-.281-.048-.625 0-.703.25-1.281.266-.594.735-1.016t1.125-.656q.672-.235 1.468-.235.344 0 .641.047.313.047.547.125h3.328v1.282h-1.469zm-5.5 9.187q0 .64.672.938t1.875.296q.75 0 1.266-.14t.828-.36.453-.515q.14-.281.14-.578 0-.563-.453-.828t-1.39-.297l-2.39-.094q-.298.203-.5.39-.204.204-.313.391-.11.203-.157.39-.03.204-.03.407zm.485-7.484q0 .437.14.812.14.36.406.61t.625.39.797.14q.47 0 .844-.156t.625-.421q.25-.282.375-.641.14-.36.14-.734 0-.438-.156-.797-.14-.375-.406-.625t-.625-.39-.797-.142q-.468 0-.843.172-.36.157-.625.422-.25.266-.375.625-.125.344-.125.735z" fill="#274e13"/><path d="M184.16 249.28v-11.453h4.328q1.14 0 1.735.11.843.14 1.406.53.578.391.922 1.11.359.703.359 1.563 0 1.453-.938 2.468-.921 1.016-3.359 1.016h-2.937v4.656h-1.516zm1.516-6.016h2.968q1.47 0 2.078-.546.625-.547.625-1.532 0-.718-.375-1.234-.359-.516-.953-.672-.375-.11-1.406-.11h-2.937v4.094zm14.39 4.985q-.78.672-1.5.953-.718.266-1.546.266-1.375 0-2.11-.672t-.734-1.703q0-.61.281-1.11.281-.515.719-.812.453-.313 1.016-.47.421-.108 1.25-.202 1.703-.203 2.515-.485v-.375q0-.859-.39-1.203-.547-.484-1.61-.484-.984 0-1.469.36-.468.343-.687 1.218l-1.375-.187q.187-.875.61-1.422.437-.547 1.25-.828.812-.297 1.874-.297t1.719.25q.672.25.984.625t.438.953q.078.36.078 1.297v1.875q0 1.969.078 2.484.094.516.36 1h-1.47q-.218-.437-.28-1.031zm-.109-3.14q-.765.312-2.297.53-.875.125-1.234.282t-.563.468q-.187.297-.187.657 0 .562.422.937.437.375 1.25.375t1.437-.344q.64-.359.938-.984.234-.469.234-1.406v-.516zm6.664 2.905.203 1.25q-.593.125-1.062.125-.766 0-1.188-.234-.421-.25-.593-.64-.172-.407-.172-1.672v-4.766h-1.031v-1.094h1.03v-2.062l1.407-.844v2.906h1.406v1.094h-1.406v4.844q0 .609.063.78.078.173.25.282.171.094.484.094.234 0 .61-.063zm1.383 1.266v-11.453h1.406v4.11q.985-1.141 2.485-1.141.922 0 1.594.36.687.359.968 1 .297.64.297 1.859v5.265h-1.406v-5.265q0-1.047-.453-1.532t-1.297-.484q-.625 0-1.172.328t-.781.89q-.235.548-.235 1.516v4.547h-1.406zm13.344 3.188v-11.484h1.281v1.078q.453-.641 1.016-.954.578-.312 1.39-.312 1.063 0 1.876.547t1.218 1.547q.422.984.422 2.172 0 1.28-.469 2.297-.453 1.015-1.328 1.562-.859.547-1.828.547-.703 0-1.265-.297-.547-.297-.907-.75v4.047h-1.406zm1.266-7.297q0 1.609.64 2.375.657.765 1.578.765.938 0 1.61-.797t.672-2.453q0-1.594-.657-2.375-.656-.797-1.562-.797-.89 0-1.594.844-.687.844-.687 2.438zm7.617 4.109v-8.297h1.266v1.25q.484-.875.89-1.156t.906-.281q.704 0 1.438.453l-.484 1.297q-.516-.297-1.032-.297-.453 0-.828.281-.36.266-.515.766-.235.75-.235 1.64v4.344h-1.406zm11.016-2.672 1.453.172q-.344 1.281-1.281 1.984-.922.703-2.36.703-1.828 0-2.89-1.125t-1.063-3.14q0-2.094 1.078-3.25t2.797-1.156q1.657 0 2.703 1.14 1.063 1.125 1.063 3.172v.375h-6.188q.079 1.375.766 2.11.703.718 1.734.718.782 0 1.329-.406t.859-1.297zm-4.61-2.281h4.626q-.094-1.047-.532-1.563-.672-.812-1.734-.812-.969 0-1.64.656-.657.64-.72 1.719zm8.165 4.953v-7.203h-1.235v-1.094h1.235v-.89q0-.829.156-1.235.203-.547.703-.89.516-.344 1.437-.344.594 0 1.313.14l-.203 1.235q-.438-.078-.828-.078-.64 0-.907.28-.265.266-.265 1.016v.766h1.61v1.094h-1.61v7.203h-1.406zm4.117-9.844v-1.61h1.406v1.61h-1.406zm0 9.844v-8.297h1.406v8.297h-1.406zm2.617 0 3.031-4.313-2.812-3.984h1.765l1.266 1.938q.36.562.578.937.344-.516.64-.922l1.391-1.953h1.688l-2.875 3.906 3.094 4.39h-1.735l-1.703-2.577-.453-.703-2.172 3.28h-1.703zm9.328-6.703v-1.594h1.594v1.594h-1.594zm0 6.703v-1.61h1.594v1.61h-1.594z" fill="#000"/><path d="m277.85 236.41-6.25 14.828h-1.516l6.25-14.828h1.516z" fill="#274e13"/><path d="M479.03 106.36h113.13v68.724H479.03z" fill="none"/><path d="m499 128.6 1.766.453q-.563 2.172-2 3.328-1.438 1.14-3.532 1.14-2.156 0-3.515-.874-1.344-.89-2.063-2.547-.703-1.672-.703-3.594 0-2.078.797-3.625.797-1.562 2.266-2.36 1.484-.812 3.25-.812 2 0 3.36 1.016 1.374 1.016 1.905 2.875l-1.734.406q-.469-1.453-1.36-2.11-.875-.671-2.203-.671-1.547 0-2.578.734t-1.453 1.985q-.422 1.234-.422 2.562 0 1.703.5 2.969t1.547 1.906q1.047.625 2.266.625 1.484 0 2.515-.86T499 128.6zm3.692 4.688v-13.36h1.64v13.36h-1.64zm10.52 0v-1.422q-1.125 1.64-3.063 1.64-.86 0-1.61-.328-.734-.328-1.093-.828t-.5-1.219q-.11-.469-.11-1.531v-5.984h1.641v5.359q0 1.281.11 1.734.156.641.656 1.016t1.234.375 1.375-.375q.657-.39.922-1.031.266-.656.266-1.89v-5.188h1.64v9.672h-1.468zm3.391-2.891 1.625-.25q.125.969.75 1.5.625.516 1.75.516t1.672-.454q.547-.468.547-1.093 0-.547-.485-.875-.328-.22-1.671-.547-1.813-.469-2.516-.797-.688-.328-1.047-.906-.36-.594-.36-1.313 0-.64.298-1.187.296-.563.812-.922.375-.282 1.031-.469.672-.203 1.422-.203 1.14 0 2 .328t1.266.89q.422.563.578 1.5l-1.61.22q-.109-.75-.64-1.173-.516-.421-1.469-.421-1.14 0-1.625.375-.469.375-.469.875 0 .312.188.578.203.265.64.437.235.094 1.438.422 1.75.453 2.437.75.688.297 1.078.86t.391 1.406q0 .828-.484 1.547-.469.718-1.375 1.125-.907.39-2.047.39-1.875 0-2.875-.781-.985-.781-1.25-2.328zm13.562 1.422.234 1.453q-.687.14-1.234.14-.89 0-1.39-.28-.485-.282-.688-.735-.203-.469-.203-1.938v-5.578h-1.203v-1.265h1.203v-2.39l1.625-.985v3.375h1.656v1.265h-1.656v5.672q0 .688.078.89.094.204.281.329.203.11.578.11.266 0 .719-.063zm8.23-1.64 1.688.202q-.407 1.485-1.485 2.313-1.078.812-2.765.812-2.125 0-3.375-1.297-1.235-1.312-1.235-3.671 0-2.454 1.25-3.797 1.266-1.344 3.266-1.344 1.937 0 3.156 1.328 1.234 1.312 1.234 3.703v.438h-7.218q.093 1.593.906 2.453.812.843 2.016.843.906 0 1.546-.468.641-.485 1.016-1.516zm-5.39-2.657h5.406q-.11-1.219-.625-1.828-.781-.953-2.031-.953-1.125 0-1.907.765-.765.75-.843 2.016zm9.125 5.766v-9.672h1.47v1.468q.562-1.03 1.03-1.359.485-.328 1.063-.328.828 0 1.687.531l-.562 1.516q-.61-.36-1.203-.36-.547 0-.969.329t-.61.89q-.28.875-.28 1.922v5.063h-1.626zm9.116 0 5.125-13.36h1.907l5.468 13.36h-2.015l-1.547-4.047h-5.594l-1.469 4.047h-1.875zm3.86-5.485h4.53l-1.405-3.703q-.625-1.687-.938-2.766-.265 1.282-.719 2.547l-1.468 3.922zM499 172.6l1.766.453q-.563 2.172-2 3.328-1.438 1.14-3.532 1.14-2.156 0-3.515-.874-1.344-.89-2.063-2.547-.703-1.672-.703-3.594 0-2.078.797-3.625.797-1.562 2.266-2.36 1.484-.812 3.25-.812 2 0 3.36 1.016 1.374 1.015 1.905 2.875l-1.734.406q-.469-1.453-1.36-2.11-.875-.671-2.203-.671-1.547 0-2.578.734t-1.453 1.985q-.422 1.234-.422 2.562 0 1.703.5 2.969t1.547 1.906q1.047.625 2.266.625 1.484 0 2.515-.86T499 172.6zm3.692 4.688v-13.36h1.64v13.36h-1.64zm10.52 0v-1.422q-1.125 1.64-3.063 1.64-.86 0-1.61-.328-.734-.328-1.093-.828t-.5-1.219q-.11-.469-.11-1.531v-5.984h1.641v5.359q0 1.281.11 1.734.156.641.656 1.016t1.234.375 1.375-.375q.657-.39.922-1.031.266-.656.266-1.89v-5.188h1.64v9.672h-1.468zm3.391-2.891 1.625-.25q.125.969.75 1.5.625.516 1.75.516t1.672-.454q.547-.468.547-1.093 0-.547-.485-.875-.328-.22-1.671-.547-1.813-.469-2.516-.797-.688-.328-1.047-.906-.36-.594-.36-1.313 0-.64.298-1.187.296-.563.812-.922.375-.282 1.031-.469.672-.203 1.422-.203 1.14 0 2 .328t1.266.89q.422.563.578 1.5l-1.61.22q-.109-.75-.64-1.173-.516-.421-1.469-.421-1.14 0-1.625.375-.469.375-.469.875 0 .312.188.578.203.265.64.437.235.094 1.438.422 1.75.453 2.437.75t1.078.86.391 1.406q0 .828-.484 1.547-.469.718-1.375 1.125-.907.39-2.047.39-1.875 0-2.875-.781-.985-.781-1.25-2.328zm13.562 1.422.234 1.453q-.687.14-1.234.14-.89 0-1.39-.28-.485-.282-.688-.735-.203-.469-.203-1.938v-5.578h-1.203v-1.265h1.203v-2.39l1.625-.985v3.375h1.656v1.265h-1.656v5.672q0 .688.078.89.094.204.281.329.203.11.578.11.266 0 .719-.063zm8.23-1.64 1.688.202q-.407 1.485-1.485 2.313-1.078.812-2.765.812-2.125 0-3.375-1.297-1.235-1.312-1.235-3.671 0-2.454 1.25-3.797 1.266-1.344 3.266-1.344 1.937 0 3.156 1.328 1.234 1.312 1.234 3.703v.438h-7.218q.093 1.593.906 2.453.812.843 2.016.843.906 0 1.546-.468.641-.485 1.016-1.516zm-5.39-2.657h5.406q-.11-1.219-.625-1.828-.781-.953-2.031-.953-1.125 0-1.907.765-.765.75-.843 2.016zm9.125 5.766v-9.672h1.47v1.468q.562-1.03 1.03-1.359.485-.328 1.063-.328.828 0 1.687.531l-.562 1.516q-.61-.36-1.203-.36-.547 0-.969.329t-.61.89q-.28.875-.28 1.922v5.063h-1.626zm11.537 0v-13.36h5.016q1.531 0 2.453.407t1.438 1.25q.53.844.53 1.765 0 .86-.468 1.625-.453.75-1.39 1.204 1.203.359 1.859 1.218t.656 2.016q0 .937-.406 1.75-.39.797-.985 1.234-.578.438-1.453.672-.875.219-2.156.219h-5.094zm1.782-7.75h2.875q1.187 0 1.687-.141.672-.203 1.016-.672t.343-1.172q0-.656-.328-1.156-.312-.516-.906-.703t-2.031-.188h-2.656v4.032zm0 6.171h3.312q.86 0 1.203-.062.61-.11 1.016-.36.422-.265.687-.75t.266-1.124q0-.75-.39-1.297-.376-.547-1.063-.766-.672-.234-1.953-.234h-3.078v4.594zM499 216.6l1.766.453q-.563 2.172-2 3.328-1.438 1.14-3.532 1.14-2.156 0-3.515-.874-1.344-.89-2.063-2.547-.703-1.672-.703-3.594 0-2.078.797-3.625.797-1.562 2.266-2.36 1.484-.812 3.25-.812 2 0 3.36 1.016 1.374 1.015 1.905 2.875l-1.734.406q-.469-1.453-1.36-2.11-.875-.671-2.203-.671-1.547 0-2.578.734t-1.453 1.985q-.422 1.234-.422 2.562 0 1.703.5 2.969t1.547 1.906q1.047.625 2.266.625 1.484 0 2.515-.86T499 216.6zm3.692 4.688v-13.36h1.64v13.36h-1.64zm10.52 0v-1.422q-1.125 1.64-3.063 1.64-.86 0-1.61-.328-.734-.328-1.093-.828t-.5-1.219q-.11-.469-.11-1.531v-5.984h1.641v5.359q0 1.281.11 1.734.156.641.656 1.016t1.234.375 1.375-.375q.657-.39.922-1.031.266-.656.266-1.89v-5.188h1.64v9.672h-1.468zm3.391-2.891 1.625-.25q.125.969.75 1.5.625.516 1.75.516t1.672-.454q.547-.468.547-1.093 0-.547-.485-.875-.328-.22-1.671-.547-1.813-.469-2.516-.797-.688-.328-1.047-.906-.36-.594-.36-1.313 0-.64.298-1.187.296-.563.812-.922.375-.282 1.031-.469.672-.203 1.422-.203 1.14 0 2 .328t1.266.89q.422.563.578 1.5l-1.61.22q-.109-.75-.64-1.173-.516-.421-1.469-.421-1.14 0-1.625.375-.469.375-.469.875 0 .312.188.578.203.265.64.437.235.094 1.438.422 1.75.453 2.437.75t1.078.86.391 1.406q0 .828-.484 1.547-.469.718-1.375 1.125-.907.39-2.047.39-1.875 0-2.875-.781-.985-.781-1.25-2.328zm13.562 1.422.234 1.453q-.687.14-1.234.14-.89 0-1.39-.28-.485-.282-.688-.735-.203-.469-.203-1.938v-5.578h-1.203v-1.265h1.203v-2.39l1.625-.985v3.375h1.656v1.265h-1.656v5.672q0 .688.078.89.094.204.281.329.203.11.578.11.266 0 .719-.063zm8.23-1.64 1.688.202q-.407 1.485-1.485 2.313-1.078.812-2.765.812-2.125 0-3.375-1.297-1.235-1.312-1.235-3.671 0-2.454 1.25-3.797 1.266-1.344 3.266-1.344 1.937 0 3.156 1.328 1.234 1.312 1.234 3.703v.438h-7.218q.093 1.593.906 2.453.812.843 2.016.843.906 0 1.546-.468.641-.485 1.016-1.516zm-5.39-2.657h5.406q-.11-1.219-.625-1.828-.781-.953-2.031-.953-1.125 0-1.907.765-.765.75-.843 2.016zm9.125 5.766v-9.672h1.47v1.468q.562-1.03 1.03-1.359.485-.328 1.063-.328.828 0 1.687.531l-.562 1.516q-.61-.36-1.203-.36-.547 0-.969.329t-.61.89q-.28.875-.28 1.922v5.063h-1.626zm21.146-4.688 1.766.453q-.563 2.172-2 3.328-1.438 1.14-3.531 1.14-2.156 0-3.516-.874-1.344-.89-2.062-2.547-.704-1.672-.704-3.594 0-2.078.797-3.625.797-1.562 2.266-2.36 1.484-.812 3.25-.812 2 0 3.36 1.016 1.374 1.016 1.906 2.875l-1.735.406q-.469-1.453-1.36-2.11-.874-.671-2.202-.671-1.547 0-2.578.734t-1.454 1.985q-.421 1.234-.421 2.562 0 1.703.5 2.969t1.546 1.906q1.047.625 2.266.625 1.484 0 2.516-.86t1.39-2.546z" fill="#000"/><path d="m347.1 113.88 117.61 57.26" fill="none"/><path d="m347.1 113.88 114.53 55.76" stroke="#000" stroke-linecap="butt" stroke-linejoin="round"/><path d="m461.62 169.64-1.503.519 3.27.341-2.286-2.363z" fill="#000" fill-rule="evenodd" stroke="#000" stroke-linecap="butt"/><path d="m347.09 155.81 115.56-27.622" fill="none"/><path d="m347.09 155.81 112.23-26.825" stroke="#000" stroke-linecap="butt" stroke-linejoin="round"/><path d="m459.32 128.99-.832 1.355 2.743-1.812-3.266-.375z" fill="#000" fill-rule="evenodd" stroke="#000" stroke-linecap="butt"/><path d="m340.96 244.78 129.86-25.575" fill="none"/><path d="m340.96 244.78 126.5-24.913" stroke="#000" stroke-linecap="butt" stroke-linejoin="round"/><path d="m467.46 219.87-.886 1.32 2.814-1.7-3.249-.506z" fill="#000" fill-rule="evenodd" stroke="#000" stroke-linecap="butt"/><path d="m344.03 200.81 125.8-28.63" fill="none"/><path d="m344.03 200.81 122.45-27.869" stroke="#000" stroke-linecap="butt" stroke-linejoin="round"/><path d="m466.48 172.94-.847 1.346 2.763-1.782-3.262-.411z" fill="#000" fill-rule="evenodd" stroke="#000" stroke-linecap="butt"/><path d="M85.302 42.299v239.31" fill="none"/><path d="M85.302 42.299v235.88" stroke="#000" stroke-linecap="butt" stroke-linejoin="round"/><path d="m85.302 278.18-1.125-1.125 1.125 3.09 1.125-3.09z" fill="#000" fill-rule="evenodd" stroke="#000" stroke-linecap="butt"/><path d="M5.535 137.39h87.937v68.724H5.535z" fill="none"/><path d="M15.707 161.75v-11.453h1.516v10.094h5.64v1.36h-7.156zm8.79-9.844v-1.61h1.405v1.61h-1.406zm0 9.844v-8.297h1.405v8.297h-1.406zm3.554 0v-8.297h1.265v1.172q.907-1.36 2.641-1.36.75 0 1.375.266t.937.703.438 1.047q.078.39.078 1.36v5.109H33.38v-5.047q0-.86-.172-1.281-.156-.438-.578-.688-.406-.25-.969-.25-.906 0-1.562.579-.64.562-.64 2.156v4.531H28.05zm14.57-2.672 1.453.172q-.344 1.281-1.281 1.984-.922.703-2.36.703-1.828 0-2.89-1.125t-1.063-3.14q0-2.094 1.078-3.25t2.797-1.156q1.656 0 2.703 1.14 1.063 1.125 1.063 3.172v.375h-6.188q.078 1.375.766 2.11.703.718 1.734.718.782 0 1.328-.406t.86-1.297zm-4.61-2.281h4.625q-.093-1.047-.53-1.563-.673-.812-1.735-.812-.969 0-1.64.656-.657.64-.72 1.719zm13.242 3.922q-.78.672-1.5.953-.718.266-1.547.266-1.375 0-2.109-.672t-.734-1.703q0-.61.281-1.11.281-.515.719-.812.453-.313 1.015-.47.422-.108 1.25-.202 1.703-.203 2.516-.485v-.375q0-.859-.39-1.203-.548-.484-1.61-.484-.984 0-1.469.36-.469.343-.687 1.218l-1.375-.187q.187-.875.609-1.422.437-.547 1.25-.828.812-.297 1.875-.297t1.719.25q.672.25.984.625t.438.953q.078.36.078 1.297v1.875q0 1.969.078 2.484.094.516.36 1h-1.47q-.218-.437-.28-1.031zm-.109-3.14q-.766.312-2.297.53-.875.125-1.234.282t-.563.468q-.187.297-.187.657 0 .562.422.937.437.375 1.25.375t1.437-.344q.64-.359.938-.984.234-.469.234-1.406v-.516zm3.586 4.171v-8.297h1.266v1.25q.484-.875.89-1.156t.906-.281q.704 0 1.438.453l-.484 1.297q-.516-.297-1.032-.297-.453 0-.828.281-.36.266-.515.766-.235.75-.235 1.64v4.344H54.73zM15.598 180.75v-8.297h1.25v1.156q.39-.61 1.031-.968.656-.375 1.485-.375.921 0 1.515.39.594.375.828 1.063.985-1.453 2.563-1.453 1.234 0 1.89.687.672.672.672 2.094v5.703h-1.39v-5.234q0-.844-.14-1.204-.142-.375-.5-.593-.36-.235-.845-.235-.875 0-1.453.578t-.578 1.86v4.828H20.52v-5.39q0-.938-.344-1.407t-1.125-.469q-.594 0-1.094.313t-.734.922q-.219.594-.219 1.719v4.312h-1.406zm18.734-1.031q-.781.672-1.5.953-.719.266-1.547.266-1.375 0-2.11-.672t-.734-1.703q0-.61.282-1.11.28-.515.718-.812.453-.313 1.016-.47.422-.108 1.25-.202 1.703-.203 2.516-.485v-.375q0-.859-.391-1.203-.547-.484-1.61-.484-.984 0-1.468.36-.47.343-.688 1.218l-1.375-.187q.188-.875.61-1.422.437-.547 1.25-.828.812-.297 1.875-.297 1.062 0 1.718.25.672.25.985.625t.437.953q.078.36.078 1.297v1.875q0 1.969.079 2.484.093.516.359 1h-1.469q-.219-.437-.281-1.031zm-.11-3.14q-.765.312-2.296.53-.875.125-1.235.282t-.562.468q-.188.297-.188.657 0 .562.422.937.438.375 1.25.375.813 0 1.438-.344.64-.359.937-.984.235-.469.235-1.406v-.516zm6.665 2.905.203 1.25q-.594.125-1.063.125-.765 0-1.187-.234-.422-.25-.594-.64-.172-.407-.172-1.673v-4.765h-1.031v-1.094h1.031v-2.062l1.406-.844v2.906h1.407v1.094H39.48v4.844q0 .609.063.78.078.173.25.282.172.094.484.094.235 0 .61-.063zm6.789-1.78 1.39.187q-.234 1.422-1.171 2.234-.922.813-2.282.813-1.703 0-2.75-1.11-1.03-1.125-1.03-3.203 0-1.344.437-2.344.453-1.015 1.359-1.515.922-.5 1.984-.5 1.36 0 2.22.687.859.672 1.093 1.938l-1.36.203q-.203-.828-.703-1.25-.484-.422-1.187-.422-1.063 0-1.734.766-.657.75-.657 2.406 0 1.672.641 2.437.64.75 1.672.75.828 0 1.375-.5.562-.515.703-1.578zm2.594 3.046v-11.453h1.406v4.11q.984-1.141 2.484-1.141.922 0 1.594.36.688.359.969 1 .297.64.297 1.859v5.265h-1.407v-5.265q0-1.047-.453-1.532t-1.297-.484q-.625 0-1.171.328t-.782.89q-.234.548-.234 1.516v4.547H50.27zM15.067 195.59q0-2.297 1.281-3.406 1.078-.922 2.61-.922 1.718 0 2.797 1.125 1.093 1.11 1.093 3.094 0 1.594-.484 2.515t-1.406 1.438q-.907.5-2 .5-1.735 0-2.813-1.11-1.078-1.125-1.078-3.234zm1.453 0q0 1.594.688 2.39.703.797 1.75.797t1.734-.796q.703-.797.703-2.438 0-1.531-.703-2.328-.688-.797-1.734-.797t-1.75.797q-.688.781-.688 2.375zm7.961 4.156v-8.297h1.266v1.25q.484-.875.89-1.156t.906-.281q.704 0 1.438.453l-.484 1.297q-.516-.297-1.032-.297-.453 0-.828.281-.36.266-.515.766-.235.75-.235 1.64v4.344h-1.406zm10.719 0V198.7q-.781 1.235-2.313 1.235-1 0-1.828-.547t-1.297-1.531q-.453-.985-.453-2.25 0-1.25.407-2.25.422-1.016 1.25-1.547.828-.547 1.859-.547.75 0 1.328.312.594.313.953.828v-4.109h1.406v11.453H35.2zm-4.438-4.14q0 1.593.672 2.39.672.781 1.578.781.922 0 1.563-.75.656-.765.656-2.312 0-1.703-.656-2.5t-1.625-.797q-.938 0-1.563.766-.625.765-.625 2.422zm13.633 1.468 1.454.172q-.344 1.281-1.282 1.985-.921.703-2.359.703-1.828 0-2.89-1.125t-1.063-3.14q0-2.095 1.078-3.25t2.797-1.157q1.656 0 2.703 1.14 1.063 1.126 1.063 3.172v.375h-6.188q.078 1.375.766 2.11.703.719 1.734.719.781 0 1.328-.407t.86-1.297zm-4.609-2.28h4.625q-.094-1.048-.531-1.563-.672-.813-1.735-.813-.968 0-1.64.656-.656.641-.719 1.72zm7.82 4.952v-8.297h1.266v1.25q.484-.875.89-1.156t.907-.281q.703 0 1.437.453l-.484 1.297q-.516-.297-1.031-.297-.453 0-.828.281-.36.266-.516.766-.234.75-.234 1.64v4.344h-1.407z" fill="#000"/></g></svg>