<svg fill="none" stroke-linecap="square" stroke-miterlimit="10" viewBox="0 0 906.05 233.52" xmlns="http://www.w3.org/2000/svg"><clipPath id="a"><path d="M0 0h906.05v233.52H0V0z"/></clipPath><g clip-path="url(#a)"><path d="M0 0h906.05v233.52H0z" fill="none"/><path d="M440 8h176v88H440z" fill="#cfe2f3"/><path d="M440 8h176v88H440z" stroke="#000" stroke-linecap="butt" stroke-linejoin="round"/><path d="M474.06 36.608v1.938h-1.797v-1.532q0-1.25.297-1.797.39-.75 1.234-1.125l.407.641q-.5.219-.75.64-.235.423-.266 1.235h.875zm2.875 0v1.938h-1.797v-1.532q0-1.25.297-1.797.39-.75 1.234-1.125l.407.641q-.5.219-.75.64-.235.423-.266 1.235h.875zm2.338 11.312V34.326h9.172v1.594h-7.375v4.219h6.375v1.609h-6.375v6.172h-1.797zm11.068 0v-9.86h1.5v1.5q.578-1.046 1.062-1.374.485-.344 1.078-.344.844 0 1.72.547l-.579 1.547q-.61-.36-1.234-.36-.547 0-.985.328-.422.328-.61.907-.28.89-.28 1.953v5.156h-1.672zm5.603-4.922q0-2.734 1.531-4.062 1.266-1.094 3.094-1.094 2.031 0 3.312 1.344 1.297 1.328 1.297 3.671 0 1.907-.578 3-.562 1.079-1.656 1.688-1.078.594-2.375.594-2.062 0-3.344-1.328t-1.28-3.813zm1.719 0q0 1.89.828 2.828t2.078.938 2.063-.938q.828-.953.828-2.89 0-1.829-.828-2.766t-2.063-.938q-1.25 0-2.078.938t-.828 2.828zm9.282 4.922v-9.86h1.5v1.407q1.094-1.625 3.14-1.625.891 0 1.641.328.75.312 1.11.844.374.515.53 1.218.094.47.094 1.625v6.063h-1.672v-6q0-1.016-.203-1.516-.187-.515-.687-.812-.5-.297-1.172-.297-1.062 0-1.844.672-.765.672-.765 2.578v5.375h-1.672zm14.032-1.5.234 1.484q-.703.141-1.265.141-.907 0-1.407-.281-.5-.297-.703-.75-.203-.469-.203-1.985v-5.656H516.4v-1.312h1.234v-2.438l1.656-1v3.438h1.688v1.312h-1.688v5.75q0 .719.078.922.094.203.297.328t.578.125q.266 0 .735-.078zm1.09-10.297v-1.938h1.78v1.532q0 1.234-.28 1.78-.407.75-1.25 1.141l-.407-.671q.5-.204.75-.641t.266-1.203h-.86zm2.874 0v-1.938h1.781v1.532q0 1.234-.28 1.78-.407.75-1.25 1.141l-.407-.671q.5-.204.75-.641t.281-1.203h-.875zm9.209 11.797V34.326h9.844v1.594h-8.047v4.172h7.53v1.593h-7.53v4.625h8.36v1.61H534.15zm12.194 0v-9.86h1.5v1.407q1.094-1.625 3.14-1.625.891 0 1.641.328.75.312 1.11.844.374.515.53 1.218.094.47.094 1.625v6.063h-1.672v-6q0-1.016-.203-1.516-.187-.515-.687-.812t-1.172-.297q-1.063 0-1.844.672-.765.672-.765 2.578v5.375h-1.672zm13.11 0-3.75-9.86h1.765l2.125 5.907q.344.953.625 1.984.22-.781.625-1.875l2.188-6.015h1.719l-3.735 9.859h-1.562zm5.969-4.922q0-2.734 1.53-4.062 1.266-1.094 3.095-1.094 2.03 0 3.312 1.344 1.297 1.328 1.297 3.671 0 1.907-.578 3-.563 1.079-1.656 1.688-1.078.594-2.375.594-2.063 0-3.344-1.328t-1.281-3.813zm1.718 0q0 1.89.829 2.828.828.938 2.078.938t2.062-.938q.828-.953.828-2.89 0-1.829-.828-2.766t-2.062-.938q-1.25 0-2.078.938-.829.937-.829 2.828zm9.204 8.719-.172-1.563q.547.141.954.141.546 0 .875-.187.343-.188.562-.516.156-.25.5-1.25.047-.14.156-.406l-3.734-9.875h1.797l2.047 5.718q.406 1.079.718 2.282.282-1.157.688-2.25l2.094-5.75h1.672l-3.75 10.03q-.594 1.626-.938 2.235-.437.828-1.015 1.203-.579.39-1.375.39-.485 0-1.079-.202zM481.28 69.92V56.326h9.844v1.594h-8.047v4.172h7.531v1.594h-7.531v4.625h8.36v1.609H481.28zm18.584 0v-1.25q-.938 1.469-2.75 1.469-1.172 0-2.172-.64-.984-.657-1.531-1.813-.531-1.172-.531-2.688 0-1.469.484-2.672.5-1.203 1.469-1.844.984-.64 2.203-.64.89 0 1.578.375.703.375 1.14.984v-4.875h1.657V69.92h-1.547zm-5.281-4.922q0 1.89.797 2.828.812.938 1.89.938 1.094 0 1.86-.89t.765-2.735q0-2.016-.781-2.953-.781-.954-1.922-.954-1.11 0-1.86.907t-.75 2.86zm8.97 5.735 1.609.25q.11.75.578 1.093.61.453 1.687.453 1.172 0 1.797-.468.625-.453.86-1.282.125-.515.109-2.156-1.094 1.297-2.719 1.297-2.031 0-3.156-1.469-1.11-1.468-1.11-3.515 0-1.406.516-2.594.516-1.203 1.485-1.844.968-.656 2.265-.656 1.75 0 2.875 1.406v-1.187h1.547v8.515q0 2.313-.469 3.266-.468.969-1.484 1.515-1.016.563-2.5.563-1.766 0-2.86-.797-1.078-.797-1.03-2.39zm1.374-5.922q0 1.953.766 2.843.781.891 1.937.891 1.141 0 1.922-.89t.782-2.782q0-1.812-.813-2.719-.797-.921-1.922-.921-1.11 0-1.89.906-.782.89-.782 2.672zm16.048 1.937 1.72.219q-.407 1.5-1.517 2.344-1.093.828-2.812.828-2.156 0-3.422-1.328t-1.266-3.735q0-2.484 1.266-3.86 1.281-1.374 3.328-1.374 1.985 0 3.235 1.344t1.25 3.797q0 .14-.016.437h-7.344q.094 1.625.922 2.484t2.063.86q.906 0 1.546-.469.657-.484 1.047-1.547zm-5.484-2.703h5.5q-.11-1.234-.625-1.86-.797-.968-2.078-.968-1.14 0-1.938.781-.781.766-.86 2.047zm14.512 5.875V56.326h5.125q1.36 0 2.078.125 1 .172 1.672.64t1.078 1.313q.422.844.422 1.844 0 1.734-1.11 2.937-1.093 1.204-3.984 1.204H531.8v5.53h-1.797zm1.797-7.14h3.515q1.75 0 2.47-.641.734-.656.734-1.828 0-.86-.438-1.47-.422-.608-1.125-.796-.453-.125-1.672-.125H531.8v4.86zm10.412 7.14v-9.86h1.5v1.5q.578-1.046 1.062-1.374.485-.344 1.078-.344.844 0 1.72.547l-.579 1.547q-.61-.36-1.234-.36-.547 0-.985.328-.422.328-.61.907-.28.89-.28 1.953v5.156h-1.672zm5.603-4.922q0-2.734 1.531-4.062 1.266-1.094 3.094-1.094 2.031 0 3.313 1.344 1.296 1.328 1.296 3.672 0 1.906-.578 3-.562 1.078-1.656 1.687-1.078.594-2.375.594-2.062 0-3.344-1.328t-1.28-3.813zm1.719 0q0 1.89.828 2.828t2.078.938 2.063-.938q.828-.953.828-2.89 0-1.828-.828-2.766t-2.063-.937q-1.25 0-2.078.937t-.828 2.828zm8.173 4.922 3.593-5.125-3.328-4.734h2.094l1.516 2.312q.421.656.671 1.11.422-.61.766-1.094l1.656-2.328h1.985l-3.39 4.64 3.655 5.219h-2.047l-2.03-3.063-.532-.828-2.594 3.891h-2.015zm10.359 3.797-.172-1.563q.547.141.953.141.547 0 .875-.187.343-.188.562-.516.156-.25.5-1.25.047-.14.156-.406l-3.734-9.875h1.797l2.047 5.718q.406 1.079.719 2.282.28-1.157.687-2.25l2.094-5.75h1.672l-3.75 10.03q-.594 1.626-.938 2.235-.437.828-1.015 1.203-.578.39-1.375.39-.485 0-1.078-.202z" fill="#000"/><path d="M247.16 37.272c-1.355-7.098 3.093-14.125 11.455-18.099s19.172-4.197 27.844-.576c3.072-4.127 8.694-6.977 15.165-7.687 6.472-.71 13.033.803 17.7 4.082 2.617-3.742 7.755-6.257 13.59-6.65 5.836-.395 11.544 1.387 15.098 4.712 4.727-3.967 12.249-5.637 19.31-4.288 7.06 1.35 12.393 5.475 13.689 10.592 5.792 1.127 10.616 3.99 13.227 7.852 2.61 3.86 2.751 8.34.386 12.282 5.703 5.293 7.037 12.346 3.504 18.527-3.533 6.18-11.402 10.56-20.67 11.506-.066 5.8-4.528 11.124-11.666 13.917-7.138 2.793-15.838 2.62-22.746-.452-2.942 6.948-11.225 12.06-21.269 13.127-10.044 1.068-20.049-2.1-25.692-8.135-6.917 2.975-15.218 3.832-23.029 2.378-7.81-1.454-14.475-5.097-18.488-10.106-7.069.59-13.904-2.022-17.112-6.54-3.208-4.516-2.107-9.977 2.756-13.671-6.305-2.647-9.523-7.898-7.974-13.016 1.548-5.118 7.511-8.943 14.78-9.48z" fill="#cfe2f3"/><path d="M240.22 60.041c2.976 1.249 6.413 1.815 9.851 1.623m4.503 18.588a22.742 22.742 0 0 0 4.31-.777m37.205 8.506a17.782 17.782 0 0 1-2.597-3.545m49.56-1.448c.537-1.266.884-2.57 1.037-3.889m33.373-9.575c.07-6.176-4.85-11.831-12.645-14.535m29.811-15.496c-1.262 2.103-3.19 3.968-5.63 5.45m-7.981-25.584a9.67 9.67 0 0 1 .297 2.574m-33.295-8.879c-1.179.99-2.15 2.096-2.884 3.283m-25.805-1.345a10.074 10.074 0 0 0-1.397 2.83m-31.47.775a27.285 27.285 0 0 1 5.056 2.747m-44.353 15.929c.187.978.482 1.944.882 2.89" fill="none"/><path d="M247.16 37.272c-1.355-7.098 3.093-14.125 11.455-18.099s19.172-4.197 27.844-.576c3.072-4.127 8.694-6.977 15.165-7.687 6.472-.71 13.033.803 17.7 4.082 2.617-3.742 7.755-6.257 13.59-6.65 5.836-.395 11.544 1.387 15.098 4.712 4.727-3.967 12.249-5.637 19.31-4.288 7.06 1.35 12.393 5.475 13.689 10.592 5.792 1.127 10.616 3.99 13.227 7.852 2.61 3.86 2.751 8.34.386 12.282 5.703 5.293 7.037 12.346 3.504 18.527-3.533 6.18-11.402 10.56-20.67 11.506-.066 5.8-4.528 11.124-11.666 13.917-7.138 2.793-15.838 2.62-22.746-.452-2.942 6.948-11.225 12.06-21.269 13.127-10.044 1.068-20.049-2.1-25.692-8.135-6.917 2.975-15.218 3.832-23.029 2.378-7.81-1.454-14.475-5.097-18.488-10.106-7.069.59-13.904-2.022-17.112-6.54-3.208-4.516-2.107-9.977 2.756-13.671-6.305-2.647-9.523-7.898-7.974-13.016 1.548-5.118 7.511-8.943 14.78-9.48z" stroke="#000" stroke-linecap="butt" stroke-linejoin="round"/><path d="M240.22 60.041c2.976 1.249 6.413 1.815 9.851 1.623m4.503 18.588a22.742 22.742 0 0 0 4.31-.777m37.205 8.506a17.782 17.782 0 0 1-2.597-3.545m49.56-1.448c.537-1.266.884-2.57 1.037-3.889m33.373-9.575c.07-6.176-4.85-11.831-12.645-14.535m29.811-15.496c-1.262 2.103-3.19 3.968-5.63 5.45m-7.981-25.584a9.67 9.67 0 0 1 .297 2.574m-33.295-8.879c-1.179.99-2.15 2.096-2.884 3.283m-25.805-1.345a10.074 10.074 0 0 0-1.397 2.83m-31.47.775a27.285 27.285 0 0 1 5.056 2.747m-44.353 15.929c.187.978.482 1.944.882 2.89" stroke="#000" stroke-linecap="butt" stroke-linejoin="round"/><path d="M280.16 56.88V43.286h1.813V56.88h-1.813zm4.668 0v-9.86h1.5v1.407q1.094-1.625 3.14-1.625.89 0 1.64.328.75.312 1.11.844.375.515.532 1.218.093.47.093 1.625v6.063h-1.672v-6q0-1.016-.203-1.516-.187-.515-.687-.812t-1.172-.297q-1.063 0-1.844.672-.766.672-.766 2.578v5.375h-1.671zm14.032-1.5.234 1.484q-.703.141-1.266.141-.906 0-1.406-.281-.5-.297-.703-.75-.203-.469-.203-1.985v-5.656h-1.234v-1.312h1.234v-2.438l1.656-1v3.438h1.688v1.312h-1.688v5.75q0 .719.078.922.094.203.297.328t.578.125q.266 0 .735-.078zm8.277-1.672 1.719.219q-.407 1.5-1.516 2.344-1.094.828-2.812.828-2.157 0-3.422-1.328t-1.266-3.735q0-2.484 1.266-3.86 1.28-1.374 3.328-1.374 1.984 0 3.234 1.344t1.25 3.797q0 .14-.016.437h-7.343q.093 1.625.922 2.484t2.062.86q.906 0 1.547-.469.656-.484 1.047-1.547zm-5.485-2.703h5.5q-.109-1.234-.625-1.86-.796-.968-2.078-.968-1.14 0-1.937.781-.781.766-.86 2.047zm9.095 5.875v-9.86h1.5v1.5q.578-1.046 1.062-1.374.485-.344 1.079-.344.843 0 1.718.547l-.578 1.547q-.61-.36-1.234-.36-.547 0-.985.328-.421.328-.609.907-.281.89-.281 1.953v5.156h-1.672zm6.228 0v-9.86h1.5v1.407q1.094-1.625 3.14-1.625.891 0 1.641.328.75.312 1.11.844.375.515.531 1.218.094.47.094 1.625v6.063h-1.672v-6q0-1.016-.203-1.516-.188-.515-.688-.812t-1.172-.297q-1.062 0-1.843.672-.766.672-.766 2.578v5.375h-1.672zm17.126-3.172 1.719.219q-.406 1.5-1.516 2.344-1.093.828-2.812.828-2.156 0-3.422-1.328t-1.266-3.735q0-2.484 1.266-3.86 1.281-1.374 3.328-1.374 1.984 0 3.234 1.344t1.25 3.797q0 .14-.015.437h-7.344q.094 1.625.922 2.484t2.062.86q.907 0 1.547-.469.657-.484 1.047-1.547zm-5.484-2.703h5.5q-.11-1.234-.625-1.86-.797-.968-2.078-.968-1.14 0-1.938.781-.781.766-.86 2.047zm12.766 4.375.234 1.484q-.703.141-1.265.141-.907 0-1.407-.281-.5-.297-.703-.75-.203-.469-.203-1.985v-5.656h-1.234v-1.312h1.234v-2.438l1.656-1v3.438h1.688v1.312h-1.688v5.75q0 .719.078.922.094.203.297.328t.578.125q.266 0 .735-.078z" fill="#000"/><path d="M8 8h176v88H8z" fill="#cfe2f3"/><path d="M8 8h176v88H8z" stroke="#000" stroke-linecap="butt" stroke-linejoin="round"/><path d="M32.176 58.92V45.326h9.844v1.594h-8.047v4.172h7.531v1.594h-7.531v4.625h8.36v1.609H32.175zm11.084 0 3.594-5.125-3.328-4.734h2.094l1.515 2.312q.422.656.672 1.11.422-.61.766-1.094l1.656-2.328h1.984l-3.39 4.64 3.656 5.219h-2.047L48.4 55.857l-.532-.828-2.593 3.891H43.26zm14.094-1.5.234 1.484q-.703.141-1.265.141-.906 0-1.406-.281-.5-.297-.704-.75-.203-.469-.203-1.985v-5.656h-1.234v-1.312h1.234v-2.438l1.657-1v3.438h1.687v1.312h-1.687v5.75q0 .719.078.922.093.203.297.328t.578.125q.265 0 .734-.078zm8.277-1.672 1.719.219q-.406 1.5-1.516 2.344-1.094.828-2.812.828-2.156 0-3.422-1.328t-1.266-3.735q0-2.484 1.266-3.86 1.281-1.374 3.328-1.374 1.984 0 3.234 1.344t1.25 3.797q0 .14-.015.437h-7.344q.094 1.625.922 2.484t2.062.86q.907 0 1.547-.469.657-.484 1.047-1.547zm-5.484-2.703h5.5q-.11-1.234-.625-1.86-.797-.968-2.078-.968-1.141 0-1.938.781-.781.766-.86 2.047zm9.094 5.875v-9.86h1.5v1.5q.578-1.046 1.063-1.374.484-.344 1.078-.344.844 0 1.719.547l-.579 1.547q-.609-.36-1.234-.36-.547 0-.984.328-.422.328-.61.907-.28.89-.28 1.953v5.156H69.24zm6.229 0v-9.86h1.5v1.407q1.093-1.625 3.14-1.625.89 0 1.64.328.75.312 1.11.844.375.515.531 1.218.094.47.094 1.625v6.063h-1.672v-6q0-1.016-.203-1.516-.187-.515-.687-.812t-1.172-.297q-1.063 0-1.844.672-.766.672-.766 2.578v5.375H75.47zm16.813-1.219q-.938.797-1.797 1.125-.86.313-1.844.313-1.61 0-2.485-.782-.875-.796-.875-2.03 0-.735.329-1.329t.859-.953 1.203-.547q.5-.14 1.484-.25 2.032-.25 2.985-.578v-.437q0-1.016-.469-1.438-.64-.562-1.906-.562-1.172 0-1.735.406t-.828 1.469l-1.64-.235q.234-1.047.734-1.687.516-.64 1.469-.985.969-.36 2.25-.36 1.266 0 2.047.298t1.156.75.516 1.14q.093.422.093 1.532v2.234q0 2.328.094 2.953.11.61.438 1.172h-1.75q-.266-.516-.328-1.219zm-.141-3.719q-.906.36-2.735.625-1.03.141-1.453.329t-.656.546-.234.797q0 .672.5 1.125.515.438 1.484.438t1.719-.422q.75-.438 1.11-1.156.265-.578.265-1.672v-.61zm4.047 4.938V45.326h1.672V58.92H96.19zm19.281-4.766 1.797.453q-.562 2.22-2.03 3.391-1.47 1.156-3.595 1.156-2.203 0-3.578-.89-1.375-.907-2.094-2.594-.718-1.703-.718-3.656 0-2.125.797-3.704.812-1.578 2.312-2.39 1.5-.828 3.297-.828 2.047 0 3.438 1.047 1.39 1.03 1.937 2.906l-1.766.422q-.468-1.485-1.375-2.156-.906-.688-2.265-.688-1.563 0-2.625.75-1.047.75-1.485 2.031-.421 1.266-.421 2.61 0 1.734.5 3.03.515 1.282 1.578 1.923 1.078.64 2.312.64 1.516 0 2.563-.859 1.047-.875 1.422-2.594zm3.52 4.766V45.326h1.672V58.92h-1.672zm4.192-11.688v-1.906h1.672v1.906h-1.672zm0 11.688v-9.86h1.672v9.86h-1.672zm10.879-3.172 1.719.219q-.406 1.5-1.516 2.344-1.094.828-2.812.828-2.157 0-3.422-1.328t-1.266-3.735q0-2.484 1.266-3.86 1.281-1.374 3.328-1.374 1.984 0 3.234 1.344t1.25 3.796q0 .141-.015.438h-7.344q.094 1.625.922 2.484t2.062.86q.906 0 1.547-.469.656-.484 1.047-1.547zm-5.484-2.703h5.5q-.11-1.235-.625-1.86-.797-.968-2.079-.968-1.14 0-1.937.781-.781.766-.86 2.047zm9.11 5.875v-9.86h1.5v1.407q1.093-1.625 3.14-1.625.89 0 1.64.328.75.312 1.11.844.375.515.532 1.218.093.47.093 1.625v6.063h-1.672v-6q0-1.016-.203-1.516-.187-.515-.687-.812t-1.172-.297q-1.063 0-1.844.672-.766.672-.766 2.578v5.375h-1.671zm14.032-1.5.234 1.484q-.703.14-1.266.14-.906 0-1.406-.28-.5-.297-.703-.75-.203-.47-.203-1.985v-5.656h-1.234v-1.312h1.234v-2.438l1.656-1v3.438h1.688v1.312h-1.688v5.75q0 .719.078.922.094.203.297.328t.578.125q.266 0 .735-.078zm.855-1.438 1.656-.265q.14 1 .766 1.531.64.516 1.78.516 1.157 0 1.704-.47.562-.468.562-1.093 0-.562-.484-.89-.344-.22-1.703-.563-1.844-.469-2.562-.797-.704-.344-1.079-.937-.359-.61-.359-1.329 0-.656.297-1.218.312-.563.828-.938.39-.281 1.063-.484t1.437-.203q1.172 0 2.047.343.875.329 1.281.907.422.562.578 1.515l-1.625.219q-.11-.75-.656-1.172-.531-.437-1.5-.437-1.156 0-1.64.39-.485.375-.485.875 0 .328.203.594t.64.437q.25.094 1.47.438 1.765.469 2.468.766t1.094.875q.406.578.406 1.437 0 .828-.484 1.578-.484.735-1.406 1.14-.922.391-2.078.391-1.922 0-2.938-.796-1-.797-1.281-2.36z" fill="#000"/><path d="M568 136h176v88H568z" fill="#cfe2f3"/><path d="M568 136h176v88H568z" stroke="#000" stroke-linecap="butt" stroke-linejoin="round"/><path d="M616.52 186.92v-13.594h4.688q1.578 0 2.421.188 1.157.265 1.985.968 1.078.922 1.61 2.344.53 1.406.53 3.219 0 1.547-.359 2.75-.36 1.187-.922 1.984-.562.781-1.234 1.235-.672.437-1.625.672t-2.188.234h-4.906zm1.797-1.61h2.906q1.344 0 2.11-.25t1.218-.703q.64-.64 1-1.718t.36-2.625q0-2.125-.703-3.266-.704-1.156-1.704-1.547-.718-.281-2.328-.281h-2.859v10.39zm11.473-10.077v-1.907h1.672v1.907h-1.672zm0 11.688v-9.86h1.672v9.86h-1.672zm3.457-2.938 1.656-.266q.141 1 .766 1.532.64.515 1.781.515 1.156 0 1.703-.468.563-.47.563-1.094 0-.563-.485-.89-.343-.22-1.703-.563-1.843-.47-2.562-.797-.703-.344-1.078-.938-.36-.61-.36-1.328 0-.656.297-1.219.313-.562.828-.937.391-.281 1.063-.485t1.437-.203q1.172 0 2.047.344.875.328 1.281.906.422.563.579 1.516l-1.625.219q-.11-.75-.657-1.172-.53-.438-1.5-.438-1.156 0-1.64.39-.485.376-.485.876 0 .328.203.594t.641.437q.25.094 1.469.438 1.765.468 2.469.765t1.093.875q.407.578.407 1.438 0 .828-.485 1.578-.484.734-1.406 1.14-.922.391-2.078.391-1.922 0-2.937-.797-1-.797-1.282-2.36zm16.438-.672 1.64.219q-.265 1.687-1.374 2.656-1.11.953-2.735.953-2.015 0-3.25-1.312-1.218-1.328-1.218-3.797 0-1.594.515-2.781.531-1.203 1.61-1.797 1.093-.61 2.359-.61 1.61 0 2.625.813t1.313 2.312l-1.625.25q-.235-1-.829-1.5t-1.421-.5q-1.266 0-2.063.907-.781.906-.781 2.86 0 1.983.765 2.89.766.89 1.985.89.984 0 1.64-.593.657-.61.844-1.86zm2.266-1.312q0-2.735 1.531-4.063 1.266-1.094 3.094-1.094 2.031 0 3.312 1.344 1.297 1.328 1.297 3.672 0 1.906-.578 3-.562 1.078-1.656 1.688-1.078.593-2.375.593-2.063 0-3.344-1.328T651.951 182zm1.719 0q0 1.89.828 2.828t2.078.937 2.062-.937q.828-.953.828-2.89 0-1.829-.828-2.766t-2.062-.938q-1.25 0-2.078.938t-.828 2.828zm12.016 4.922-3.75-9.86h1.765l2.125 5.906q.344.954.625 1.985.219-.781.625-1.875l2.188-6.016h1.718l-3.734 9.86h-1.562zm13.344-3.172 1.718.218q-.406 1.5-1.515 2.344-1.094.828-2.813.828-2.156 0-3.422-1.328t-1.265-3.734q0-2.485 1.265-3.86 1.282-1.375 3.328-1.375 1.985 0 3.235 1.344t1.25 3.797q0 .14-.016.438h-7.344q.094 1.625.922 2.484t2.063.86q.906 0 1.547-.47.656-.484 1.047-1.546zm-5.485-2.703h5.5q-.11-1.235-.625-1.86-.797-.969-2.078-.969-1.14 0-1.937.782-.782.765-.86 2.047zm9.095 5.875v-9.86h1.5v1.5q.578-1.047 1.062-1.375.485-.344 1.078-.344.844 0 1.72.547l-.579 1.547q-.61-.36-1.234-.36-.547 0-.985.329-.422.328-.61.906-.28.89-.28 1.953v5.157h-1.672zm6.15 3.797-.172-1.563q.547.14.953.14.547 0 .875-.187.344-.187.563-.515.156-.25.5-1.25.047-.141.156-.407l-3.735-9.875h1.797l2.047 5.72q.407 1.077.719 2.28.281-1.156.688-2.25l2.093-5.75h1.672l-3.75 10.031q-.594 1.625-.937 2.235-.438.828-1.016 1.203-.578.39-1.375.39-.484 0-1.078-.203z" fill="#000"/><path d="M720 24h176v88H720z" fill="#cfe2f3"/><path d="M720 24h176v88H720z" stroke="#000" stroke-linecap="butt" stroke-linejoin="round"/><path d="M712 16h176v88H712z" fill="#cfe2f3"/><path d="M712 16h176v88H712z" stroke="#000" stroke-linecap="butt" stroke-linejoin="round"/><path d="M704 8h176v88H704z" fill="#cfe2f3"/><path d="M704 8h176v88H704z" stroke="#000" stroke-linecap="butt" stroke-linejoin="round"/><path d="M723.51 47.92V34.326h9.844v1.594h-8.047v4.172h7.531v1.594h-7.531v4.625h8.36v1.609H723.51zm12.194 0v-9.86h1.5v1.407q1.094-1.625 3.14-1.625.891 0 1.641.328.75.312 1.11.844.375.515.53 1.218.095.47.095 1.625v6.063h-1.672v-6q0-1.016-.203-1.516-.188-.515-.688-.812t-1.172-.297q-1.062 0-1.844.672-.765.672-.765 2.578v5.375h-1.672zm13.11 0-3.75-9.86h1.766l2.125 5.907q.343.953.625 1.984.218-.781.625-1.875l2.187-6.015h1.719l-3.735 9.859h-1.562zm5.969-4.922q0-2.734 1.531-4.062 1.266-1.094 3.094-1.094 2.031 0 3.312 1.344 1.297 1.328 1.297 3.672 0 1.906-.578 3-.562 1.078-1.656 1.687-1.078.594-2.375.594-2.063 0-3.344-1.328t-1.281-3.813zm1.719 0q0 1.89.828 2.828t2.078.938 2.062-.938q.828-.953.828-2.89 0-1.828-.828-2.766t-2.062-.938q-1.25 0-2.078.938t-.828 2.828zm9.203 8.719-.171-1.563q.546.141.953.141.547 0 .875-.187.343-.188.562-.516.156-.25.5-1.25.047-.14.156-.406l-3.734-9.875h1.797l2.047 5.718q.406 1.079.719 2.282.28-1.157.687-2.25l2.094-5.75h1.672l-3.75 10.03q-.594 1.626-.938 2.235-.437.828-1.015 1.203-.578.39-1.375.39-.485 0-1.078-.202zm14.2-8.172 1.687-.14q.125 1.015.562 1.671t1.36 1.063q.937.406 2.094.406 1.03 0 1.812-.312.797-.313 1.188-.844t.39-1.156q0-.641-.375-1.11-.375-.484-1.234-.812-.547-.22-2.422-.657-1.875-.453-2.625-.859-.969-.516-1.453-1.266-.469-.75-.469-1.687 0-1.031.578-1.922.594-.906 1.703-1.36 1.125-.468 2.5-.468 1.516 0 2.672.484t1.766 1.438q.625.937.672 2.14l-1.719.125q-.14-1.28-.953-1.937-.797-.672-2.36-.672-1.625 0-2.375.61-.75.593-.75 1.437 0 .734.532 1.203.515.469 2.703.969 2.203.5 3.015.875 1.188.547 1.75 1.39.579.828.579 1.922t-.625 2.063q-.625.953-1.797 1.484-1.157.531-2.61.531-1.844 0-3.094-.53-1.25-.548-1.968-1.626-.704-1.078-.735-2.453zm19.583 1.203 1.72.219q-.407 1.5-1.516 2.344-1.094.828-2.813.828-2.156 0-3.422-1.328t-1.265-3.735q0-2.484 1.265-3.86 1.281-1.374 3.328-1.374 1.985 0 3.235 1.344t1.25 3.797q0 .14-.016.437h-7.344q.094 1.625.922 2.484t2.063.86q.906 0 1.547-.469.656-.484 1.047-1.547zm-5.484-2.703h5.5q-.11-1.234-.625-1.86-.797-.968-2.078-.968-1.14 0-1.938.781-.78.766-.859 2.047zm9.095 5.875v-9.86h1.5v1.5q.578-1.046 1.062-1.374.484-.344 1.078-.344.844 0 1.719.547l-.578 1.547q-.61-.36-1.235-.36-.546 0-.984.328-.422.328-.61.907-.28.89-.28 1.953v5.156h-1.672zm8.962 0-3.75-9.86h1.766l2.125 5.907q.344.953.625 1.984.219-.781.625-1.875l2.187-6.015h1.72l-3.735 9.859h-1.563zm6.61-11.688v-1.906h1.672v1.906h-1.672zm0 11.688v-9.86h1.672v9.86h-1.672zm10.567-3.61 1.64.22q-.265 1.687-1.375 2.656-1.11.953-2.734.953-2.016 0-3.25-1.313-1.219-1.328-1.219-3.797 0-1.594.516-2.78.531-1.204 1.61-1.798 1.093-.61 2.359-.61 1.609 0 2.625.813t1.312 2.313l-1.625.25q-.234-1-.828-1.5t-1.422-.5q-1.266 0-2.063.906-.78.906-.78 2.86 0 1.984.765 2.89.765.89 1.984.89.985 0 1.64-.593.657-.61.845-1.86zm9.64.438 1.72.219q-.407 1.5-1.517 2.344-1.093.828-2.812.828-2.156 0-3.422-1.328t-1.266-3.735q0-2.484 1.266-3.86 1.281-1.374 3.328-1.374 1.985 0 3.235 1.344t1.25 3.797q0 .14-.016.437H833.3q.094 1.625.922 2.484t2.063.86q.906 0 1.546-.469.657-.484 1.047-1.547zm-5.484-2.703h5.5q-.11-1.234-.625-1.86-.797-.968-2.078-.968-1.14 0-1.938.781-.781.766-.86 2.047zm17.95 4.375.234 1.484q-.703.141-1.265.141-.907 0-1.407-.281-.5-.297-.703-.75-.203-.469-.203-1.985v-5.656h-1.234v-1.312H848v-2.438l1.656-1v3.438h1.688v1.312h-1.688v5.75q0 .719.079.922.093.203.296.328t.579.125q.265 0 .734-.078zm.902-3.422q0-2.734 1.531-4.062 1.266-1.094 3.094-1.094 2.031 0 3.312 1.344 1.297 1.328 1.297 3.672 0 1.906-.578 3-.562 1.078-1.656 1.687-1.078.594-2.375.594-2.063 0-3.344-1.328t-1.281-3.813zm1.719 0q0 1.89.828 2.828t2.078.938 2.062-.938q.829-.953.829-2.89 0-1.828-.829-2.766t-2.062-.938q-1.25 0-2.078.938t-.828 2.828zM724.95 65.545l1.688-.14q.125 1.015.562 1.671t1.36 1.063q.937.406 2.093.406 1.031 0 1.813-.312.797-.313 1.187-.844t.39-1.156q0-.641-.374-1.11-.375-.484-1.235-.812-.546-.22-2.421-.657-1.875-.453-2.625-.859-.97-.516-1.454-1.266-.468-.75-.468-1.687 0-1.031.578-1.922.594-.906 1.703-1.36 1.125-.468 2.5-.468 1.515 0 2.672.484t1.765 1.438q.625.937.672 2.14l-1.719.125q-.14-1.28-.953-1.937-.797-.672-2.359-.672-1.625 0-2.375.61-.75.593-.75 1.437 0 .734.531 1.203.516.469 2.703.969 2.203.5 3.016.875 1.187.547 1.75 1.39.578.828.578 1.922t-.625 2.063q-.625.953-1.797 1.484-1.156.531-2.61.531-1.843 0-3.093-.53-1.25-.548-1.969-1.626-.703-1.078-.734-2.453zm19.584 1.203 1.719.219q-.406 1.5-1.516 2.344-1.094.828-2.812.828-2.156 0-3.422-1.328t-1.266-3.735q0-2.484 1.266-3.86 1.281-1.374 3.328-1.374 1.984 0 3.234 1.344t1.25 3.797q0 .14-.015.437h-7.344q.094 1.625.922 2.484t2.062.86q.907 0 1.547-.469.656-.484 1.047-1.547zm-5.484-2.703h5.5q-.11-1.234-.625-1.86-.797-.968-2.079-.968-1.14 0-1.937.781-.781.766-.86 2.047zm9.094 5.875v-9.86h1.5v1.5q.578-1.046 1.063-1.374.484-.344 1.078-.344.843 0 1.718.547l-.578 1.547q-.609-.36-1.234-.36-.547 0-.984.328-.422.328-.61.907-.281.89-.281 1.953v5.156h-1.672zm8.963 0-3.75-9.86h1.765l2.125 5.907q.344.953.625 1.984.22-.781.625-1.875l2.188-6.015h1.719l-3.735 9.859h-1.562zm6.61-11.688v-1.906h1.671v1.906h-1.672zm0 11.688v-9.86h1.671v9.86h-1.672zm10.566-3.61 1.64.22q-.265 1.687-1.374 2.656-1.11.953-2.735.953-2.015 0-3.25-1.313-1.218-1.328-1.218-3.797 0-1.594.515-2.78.531-1.204 1.61-1.798 1.093-.61 2.359-.61 1.61 0 2.625.813t1.313 2.313l-1.625.25q-.235-1-.829-1.5t-1.421-.5q-1.266 0-2.063.906-.781.906-.781 2.86 0 1.984.765 2.89.766.89 1.985.89.984 0 1.64-.593.657-.61.844-1.86zm9.64.438 1.72.219q-.407 1.5-1.516 2.344-1.094.828-2.812.828-2.157 0-3.422-1.328t-1.266-3.735q0-2.484 1.266-3.86 1.28-1.374 3.328-1.374 1.984 0 3.234 1.344t1.25 3.797q0 .14-.016.437h-7.343q.093 1.625.922 2.484t2.062.86q.906 0 1.547-.469.656-.484 1.047-1.547zm-5.484-2.703h5.5q-.109-1.234-.625-1.86-.796-.968-2.078-.968-1.14 0-1.937.781-.781.766-.86 2.047zm24.215 1.11 1.797.453q-.562 2.218-2.03 3.39-1.47 1.156-3.595 1.156-2.203 0-3.578-.89-1.375-.907-2.094-2.594-.718-1.703-.718-3.656 0-2.125.797-3.703.812-1.578 2.312-2.391 1.5-.828 3.297-.828 2.047 0 3.437 1.047 1.391 1.031 1.938 2.906l-1.766.422q-.468-1.485-1.375-2.156-.906-.688-2.265-.688-1.563 0-2.625.75-1.047.75-1.485 2.031-.422 1.266-.422 2.61 0 1.734.5 3.031.516 1.281 1.579 1.922 1.078.64 2.312.64 1.516 0 2.563-.859 1.046-.875 1.421-2.594zm3.52 4.765V56.326h1.672V69.92h-1.672zm10.63 0v-1.453q-1.141 1.672-3.126 1.672-.86 0-1.625-.328-.75-.344-1.125-.844-.36-.5-.515-1.234-.094-.5-.094-1.563v-6.11h1.672v5.47q0 1.312.093 1.765.157.656.672 1.031t1.266.375 1.406-.375q.656-.39.922-1.047.281-.672.281-1.937V60.06h1.672v9.859h-1.5zm3.25-2.938 1.656-.265q.14 1 .766 1.531.64.516 1.78.516 1.157 0 1.704-.469.563-.469.563-1.094 0-.562-.485-.89-.344-.22-1.703-.563-1.844-.469-2.562-.797-.704-.344-1.079-.937-.359-.61-.359-1.328 0-.657.297-1.22.312-.562.828-.937.39-.281 1.063-.484t1.437-.203q1.172 0 2.047.343.875.329 1.281.907.422.562.578 1.515l-1.625.22q-.11-.75-.656-1.173-.531-.437-1.5-.437-1.156 0-1.64.39-.485.375-.485.875 0 .328.203.594t.64.438q.25.093 1.47.437 1.765.469 2.468.766t1.094.875q.406.578.406 1.437 0 .828-.484 1.578-.484.735-1.406 1.14-.922.392-2.078.392-1.922 0-2.938-.797-1-.797-1.28-2.36zm13.656 1.438.234 1.484q-.703.141-1.265.141-.907 0-1.407-.281-.5-.297-.703-.75-.203-.469-.203-1.985v-5.656h-1.234v-1.312h1.234v-2.438l1.656-1v3.438h1.688v1.312h-1.688v5.75q0 .719.079.922.093.203.296.328t.579.125q.265 0 .734-.078zm8.277-1.672 1.719.219q-.406 1.5-1.516 2.344-1.094.828-2.812.828-2.156 0-3.422-1.328t-1.266-3.735q0-2.484 1.266-3.86 1.281-1.374 3.328-1.374 1.984 0 3.234 1.344t1.25 3.797q0 .14-.015.437h-7.344q.094 1.625.922 2.484t2.062.86q.907 0 1.547-.469.656-.484 1.047-1.547zm-5.484-2.703h5.5q-.11-1.234-.625-1.86-.797-.968-2.079-.968-1.14 0-1.937.781-.781.766-.86 2.047zm9.094 5.875v-9.86h1.5v1.5q.578-1.046 1.063-1.374.484-.344 1.078-.344.843 0 1.718.547l-.578 1.547q-.609-.36-1.234-.36-.547 0-.984.328-.422.328-.61.907-.281.89-.281 1.953v5.156h-1.672zm5.557-2.938 1.656-.265q.14 1 .765 1.531.64.516 1.782.516 1.156 0 1.703-.469.562-.469.562-1.094 0-.562-.484-.89-.344-.22-1.703-.563-1.844-.469-2.563-.797-.703-.344-1.078-.937-.36-.61-.36-1.328 0-.657.298-1.22.312-.562.828-.937.39-.281 1.062-.484t1.438-.203q1.172 0 2.047.343.875.329 1.28.907.423.562.579 1.515l-1.625.22q-.11-.75-.656-1.173-.532-.437-1.5-.437-1.157 0-1.641.39-.484.375-.484.875 0 .328.203.594t.64.438q.25.093 1.47.437 1.765.469 2.468.766t1.094.875q.406.578.406 1.437 0 .828-.484 1.578-.485.735-1.407 1.14-.921.392-2.078.392-1.922 0-2.937-.797-1-.797-1.281-2.36z" fill="#000"/><path d="M184 52h48.504" fill="none"/><path d="M187.43 52h41.65" stroke="#000" stroke-linecap="butt" stroke-linejoin="round"/><path d="m187.43 52 1.125-1.125-3.09 1.125 3.09 1.125zM229.08 52l-1.125 1.125 3.09-1.125-3.09-1.125z" fill="#000" fill-rule="evenodd" stroke="#000" stroke-linecap="butt"/><path d="M399.86 51.999h40.126" fill="none"/><path d="M403.29 51.999h33.272" stroke="#000" stroke-linecap="butt" stroke-linejoin="round"/><path d="m403.29 51.999 1.125-1.125-3.09 1.125 3.09 1.125zM436.56 51.999l-1.125 1.125 3.09-1.125-3.09-1.125z" fill="#000" fill-rule="evenodd" stroke="#000" stroke-linecap="butt"/><path d="M616 52h88" fill="none"/><path d="M619.43 52h81.146" stroke="#000" stroke-linecap="butt" stroke-linejoin="round"/><path d="m619.43 52 1.125-1.125-3.09 1.125 3.09 1.125zM700.57 52l-1.125 1.125 3.09-1.125-3.09-1.125z" fill="#000" fill-rule="evenodd" stroke="#000" stroke-linecap="butt"/><path d="m528 96 128 40" fill="none"/><path d="m531.27 97.022 121.46 37.956" stroke="#000" stroke-linecap="butt" stroke-linejoin="round"/><path d="m531.27 97.022 1.409-.738-3.285.152 2.614 1.995zM652.73 134.98l-1.409.738 3.285-.152-2.614-1.995z" fill="#000" fill-rule="evenodd" stroke="#000" stroke-linecap="butt"/><path d="m792 96-136 40" fill="none"/><path d="m788.71 96.967-129.42 38.066" stroke="#000" stroke-linecap="butt" stroke-linejoin="round"/><path d="m788.71 96.967-.762 1.396 2.647-1.95-3.281-.208zM659.29 135.03l.762-1.396-2.647 1.95 3.281.208z" fill="#000" fill-rule="evenodd" stroke="#000" stroke-linecap="butt"/><path d="M184 88h256v48H184z" fill="none"/><path d="M213.36 114.92v-13.594h2.75v5.344h5.375v-5.344h2.75v13.594h-2.75v-5.953h-5.375v5.953h-2.75zm16.52 0v-11.297h-4.031v-2.297h10.812v2.297h-4.031v11.297h-2.75zm11.396 0v-11.297h-4.031v-2.297h10.812v2.297h-4.031v11.297h-2.75zm8.334 0v-13.594h4.421q2.5 0 3.266.203 1.156.297 1.938 1.328.796 1.016.796 2.64 0 1.25-.453 2.11t-1.156 1.344-1.422.64q-.984.204-2.844.204h-1.797v5.125h-2.75zm2.75-11.297v3.86h1.5q1.625 0 2.171-.22t.86-.671.312-1.047q0-.75-.437-1.235t-1.094-.593q-.5-.094-1.984-.094h-1.329zm8.287 11.531 3.375-14.062h1.953l-3.406 14.062h-1.922zm12.699-.234h-2.61v-9.828q-1.437 1.343-3.375 1.984V104.7q1.032-.328 2.22-1.25 1.202-.938 1.64-2.188h2.125v13.656zm4.25 0v-2.61h2.61v2.61h-2.61zm11.309 0h-2.61v-9.828q-1.437 1.343-3.375 1.984V104.7q1.031-.328 2.219-1.25 1.203-.938 1.64-2.188h2.126v13.656zM293.48 114.92v-1.906h1.906v1.906q0 1.047-.375 1.688-.375.656-1.172 1l-.468-.72q.53-.218.78-.671t.282-1.297h-.953zM303.55 114.92v-13.594h2.75v5.344h5.375v-5.344h2.75v13.594h-2.75v-5.953H306.3v5.953h-2.75zm16.52 0v-11.297h-4.031v-2.297h10.812v2.297h-4.031v11.297h-2.75zm11.396 0v-11.297h-4.031v-2.297h10.812v2.297h-4.031v11.297h-2.75zm8.334 0v-13.594h4.421q2.5 0 3.266.203 1.156.297 1.938 1.328.796 1.016.796 2.64 0 1.25-.453 2.11t-1.156 1.344-1.422.64q-.984.204-2.844.204h-1.797v5.125h-2.75zm2.75-11.297v3.86h1.5q1.625 0 2.171-.22t.86-.671.312-1.047q0-.75-.437-1.235t-1.094-.593q-.5-.094-1.984-.094h-1.329zm8.287 11.531 3.375-14.062h1.953l-3.406 14.062h-1.922zm14.824-2.656v2.422h-9.14q.156-1.375.89-2.594.75-1.234 2.937-3.266 1.766-1.64 2.157-2.234.547-.797.547-1.594 0-.875-.47-1.344t-1.296-.468q-.813 0-1.297.5-.484.484-.563 1.625l-2.593-.25q.234-2.157 1.453-3.094t3.062-.938q2.016 0 3.156 1.094 1.157 1.078 1.157 2.688 0 .921-.328 1.75t-1.047 1.734q-.47.61-1.703 1.75-1.235 1.125-1.563 1.5-.328.36-.531.719h5.172zM368.12 114.92v-1.906h1.906v1.906q0 1.047-.375 1.688-.375.656-1.172 1l-.468-.72q.53-.218.78-.671t.282-1.297h-.953zM381.23 114.92v-11.297h-4.031v-2.297h10.812v2.297h-4.031v11.297h-2.75zm8.412 0v-13.484h2.75v11.188h6.828v2.297h-9.578zm10.63-4.422 2.672-.266q.234 1.344.968 1.985.75.625 2 .625 1.328 0 2-.563t.672-1.312q0-.484-.281-.813-.281-.343-.984-.593-.485-.172-2.204-.594-2.203-.547-3.093-1.344-1.266-1.125-1.266-2.734 0-1.047.594-1.953t1.703-1.375 2.672-.47q2.562 0 3.86 1.126 1.296 1.11 1.359 2.984l-2.75.125q-.172-1.047-.75-1.5-.579-.469-1.75-.469-1.188 0-1.875.5-.438.313-.438.844 0 .485.422.828.516.422 2.516.907 2 .468 2.953.984.968.5 1.515 1.375t.547 2.156q0 1.172-.656 2.203-.64 1.016-1.828 1.516-1.188.484-2.969.484-2.578 0-3.969-1.187-1.375-1.188-1.64-3.469z" fill="#000"/><path d="M616 48h88v40h-88z" fill="none"/><path d="M629.26 74.92V61.326h2.75v5.344h5.375v-5.344h2.75V74.92h-2.75v-5.953h-5.375v5.953h-2.75zm16.52 0V63.623h-4.031v-2.297h10.812v2.297h-4.031V74.92h-2.75zm11.396 0V63.623h-4.031v-2.297h10.812v2.297h-4.031V74.92h-2.75zm8.333 0V61.326h4.422q2.5 0 3.266.203 1.156.297 1.937 1.328.797 1.016.797 2.64 0 1.25-.453 2.11t-1.156 1.344-1.422.64q-.984.204-2.844.204h-1.797v5.125h-2.75zm2.75-11.297v3.86h1.5q1.625 0 2.172-.22t.86-.671.312-1.047q0-.75-.437-1.235t-1.094-.593q-.5-.094-1.984-.094h-1.329zm8.288 11.531 3.375-14.062h1.953l-3.406 14.062h-1.922zm14.824-2.656v2.422h-9.14q.155-1.375.89-2.594.75-1.234 2.937-3.266 1.766-1.64 2.157-2.234.546-.797.546-1.594 0-.875-.468-1.344t-1.297-.468q-.813 0-1.297.5-.485.484-.563 1.625l-2.593-.25q.234-2.157 1.453-3.094t3.062-.938q2.016 0 3.156 1.094 1.157 1.078 1.157 2.688 0 .921-.329 1.75t-1.046 1.734q-.47.61-1.704 1.75-1.234 1.125-1.562 1.5-.328.36-.531.719h5.172z" fill="#000"/></g></svg>