<svg fill="none" stroke-linecap="square" stroke-miterlimit="10" viewBox="0 0 528.21 377.38" xmlns="http://www.w3.org/2000/svg"><clipPath id="a"><path d="M0 0h528.21v377.38H0V0z"/></clipPath><g clip-path="url(#a)"><path d="M0 0h528.21v377.38H0z" fill="none"/><path d="M8 8h184v200H8z" fill="#cfe2f3"/><path d="M8 8h184v200H8z" stroke="#000" stroke-linecap="butt" stroke-linejoin="round"/><path d="m37.617 30.545 1.688-.14q.124 1.015.562 1.671t1.36 1.063q.937.406 2.093.406 1.031 0 1.813-.312.797-.313 1.187-.844t.39-1.156q0-.641-.374-1.11-.375-.484-1.235-.812-.546-.22-2.421-.657-1.875-.453-2.625-.859-.97-.516-1.454-1.266-.468-.75-.468-1.687 0-1.031.578-1.922.594-.906 1.703-1.36 1.125-.468 2.5-.468 1.515 0 2.672.484t1.765 1.438q.625.937.672 2.14l-1.719.125q-.14-1.28-.953-1.937-.797-.672-2.36-.672-1.624 0-2.374.61-.75.593-.75 1.437 0 .734.531 1.203.516.469 2.703.969 2.203.5 3.016.875 1.187.547 1.75 1.39.578.828.578 1.922t-.625 2.063q-.625.953-1.797 1.484-1.156.531-2.61.531-1.843 0-3.093-.53-1.25-.548-1.969-1.626-.703-1.078-.734-2.453zm19.584 1.203 1.719.219q-.406 1.5-1.516 2.344-1.094.828-2.812.828-2.157 0-3.422-1.328t-1.266-3.735q0-2.484 1.266-3.86 1.281-1.374 3.328-1.374 1.984 0 3.234 1.344t1.25 3.797q0 .14-.015.437h-7.344q.094 1.625.922 2.484t2.062.86q.907 0 1.547-.469.656-.484 1.047-1.547zm-5.484-2.703h5.5q-.11-1.234-.625-1.86-.797-.968-2.079-.968-1.14 0-1.937.781-.781.766-.86 2.047zm9.094 5.875v-9.86h1.5v1.5q.578-1.046 1.063-1.374.484-.344 1.078-.344.843 0 1.719.547l-.579 1.547q-.609-.36-1.234-.36-.547 0-.984.328-.422.328-.61.907-.281.89-.281 1.953v5.156h-1.672zm8.963 0-3.75-9.86h1.765l2.125 5.907q.344.953.625 1.984.22-.781.625-1.875l2.188-6.015h1.719l-3.735 9.859h-1.562zm6.61-11.688v-1.906h1.671v1.906h-1.672zm0 11.688v-9.86h1.671v9.86h-1.672zm10.566-3.61 1.64.22q-.265 1.687-1.374 2.656-1.11.953-2.735.953-2.015 0-3.25-1.313-1.218-1.328-1.218-3.797 0-1.594.515-2.78.531-1.204 1.61-1.798 1.093-.61 2.359-.61 1.61 0 2.625.813t1.313 2.313l-1.625.25q-.235-1-.829-1.5t-1.422-.5q-1.265 0-2.062.906-.781.906-.781 2.86 0 1.984.765 2.89.766.89 1.985.89.984 0 1.64-.593.657-.61.844-1.86zm9.64.438 1.72.219q-.407 1.5-1.516 2.344-1.094.828-2.813.828-2.156 0-3.421-1.328t-1.266-3.735q0-2.484 1.266-3.86 1.28-1.374 3.328-1.374 1.984 0 3.234 1.344t1.25 3.797q0 .14-.016.437h-7.343q.093 1.625.922 2.484t2.062.86q.906 0 1.547-.469.656-.484 1.047-1.547zm-5.484-2.703h5.5q-.109-1.234-.625-1.86-.796-.968-2.078-.968-1.14 0-1.937.781-.781.766-.86 2.047zm24.215 1.11 1.797.453q-.562 2.218-2.03 3.39-1.47 1.156-3.595 1.156-2.203 0-3.578-.89-1.375-.907-2.094-2.594-.718-1.703-.718-3.656 0-2.125.797-3.703.812-1.578 2.312-2.391 1.5-.828 3.297-.828 2.047 0 3.437 1.047 1.391 1.031 1.938 2.906l-1.766.422q-.468-1.485-1.375-2.156-.906-.688-2.265-.688-1.563 0-2.625.75-1.047.75-1.485 2.031-.422 1.266-.422 2.61 0 1.734.5 3.031.516 1.281 1.579 1.922 1.078.64 2.312.64 1.516 0 2.563-.859 1.046-.875 1.421-2.594zm3.52 4.765V21.326h1.672V34.92h-1.672zm10.63 0v-1.453q-1.141 1.672-3.126 1.672-.86 0-1.625-.328-.75-.344-1.125-.844-.36-.5-.515-1.234-.094-.5-.094-1.563v-6.11h1.672v5.47q0 1.312.093 1.765.157.656.672 1.031t1.266.375 1.406-.375q.657-.39.922-1.047.281-.672.281-1.937V25.06h1.672v9.859h-1.5zm3.25-2.938 1.656-.265q.14 1 .766 1.531.64.516 1.78.516 1.157 0 1.704-.47.563-.468.563-1.093 0-.562-.485-.89-.344-.22-1.703-.563-1.844-.469-2.562-.797-.704-.344-1.079-.937-.359-.61-.359-1.328 0-.657.297-1.22.312-.562.828-.937.39-.281 1.063-.484t1.437-.203q1.172 0 2.047.343.875.329 1.281.907.422.562.578 1.515l-1.625.22q-.11-.75-.656-1.173-.531-.437-1.5-.437-1.156 0-1.64.39-.485.375-.485.875 0 .328.203.594t.64.438q.25.093 1.47.437 1.765.469 2.468.766t1.094.875q.406.578.406 1.437 0 .828-.484 1.578-.484.735-1.406 1.14-.922.392-2.078.392-1.922 0-2.938-.797-1-.797-1.28-2.36zm13.656 1.438.234 1.484q-.703.141-1.265.141-.907 0-1.407-.281-.5-.297-.703-.75-.203-.469-.203-1.985v-5.656H141.8v-1.312h1.234v-2.438l1.656-1v3.438h1.688v1.312h-1.688v5.75q0 .719.079.922.093.203.296.328t.579.125q.265 0 .734-.078zm8.277-1.672 1.719.219q-.406 1.5-1.516 2.344-1.094.828-2.812.828-2.157 0-3.422-1.328t-1.266-3.735q0-2.484 1.266-3.86 1.281-1.374 3.328-1.374 1.984 0 3.234 1.344t1.25 3.797q0 .14-.015.437h-7.344q.094 1.625.922 2.484t2.062.86q.907 0 1.547-.469.656-.484 1.047-1.547zm-5.484-2.703h5.5q-.11-1.234-.625-1.86-.797-.968-2.078-.968-1.141 0-1.938.781-.781.766-.86 2.047zm9.094 5.875v-9.86h1.5v1.5q.578-1.046 1.063-1.374.484-.344 1.078-.344.843 0 1.719.547l-.579 1.547q-.609-.36-1.234-.36-.547 0-.984.328-.422.328-.61.907-.281.89-.281 1.953v5.156h-1.672z" fill="#000"/><path d="M16 48h150.3v136H16z" fill="#d9d9d9"/><path d="M16 48h150.3v136H16z" stroke="#000" stroke-linecap="butt" stroke-linejoin="round"/><path d="M22.299 56h150.3v136h-150.3z" fill="#d9d9d9"/><path d="M22.299 56h150.3v136h-150.3z" stroke="#000" stroke-linecap="butt" stroke-linejoin="round"/><path d="M30.299 64h150.3v136h-150.3z" fill="#d9d9d9"/><path d="M30.299 64h150.3v136h-150.3z" stroke="#000" stroke-linecap="butt" stroke-linejoin="round"/><path d="M36.598 144h136v48h-136z" fill="#cfe2f3"/><path d="M36.598 144h136v48h-136z" stroke="#000" stroke-linecap="butt" stroke-linejoin="round"/><path d="M80.173 174.92v-13.594h9.844v1.594H81.97v4.172H89.5v1.593H81.97v4.625h8.36v1.61H80.172zm12.194 0v-9.86h1.5v1.407q1.094-1.625 3.14-1.625.891 0 1.641.328.75.312 1.11.844.375.515.53 1.218.095.47.095 1.625v6.063H98.71v-6q0-1.016-.203-1.516-.188-.515-.688-.812t-1.172-.297q-1.062 0-1.844.672-.765.672-.765 2.578v5.375h-1.672zm13.11 0-3.75-9.86h1.766l2.125 5.907q.343.953.625 1.984.218-.781.625-1.875l2.187-6.015h1.719l-3.734 9.859h-1.563zm5.969-4.922q0-2.734 1.531-4.062 1.266-1.094 3.094-1.094 2.031 0 3.312 1.344 1.297 1.328 1.297 3.671 0 1.907-.578 3-.562 1.079-1.656 1.688-1.078.594-2.375.594-2.063 0-3.344-1.328t-1.281-3.813zm1.719 0q0 1.89.828 2.828t2.078.938 2.062-.938q.828-.953.828-2.89 0-1.829-.828-2.766t-2.062-.938q-1.25 0-2.078.938t-.828 2.828zm9.203 8.719-.171-1.563q.546.141.953.141.547 0 .875-.187.343-.188.562-.516.156-.25.5-1.25.047-.14.156-.406l-3.734-9.875h1.797l2.047 5.718q.406 1.079.719 2.282.28-1.157.687-2.25l2.094-5.75h1.672l-3.75 10.03q-.594 1.626-.938 2.235-.437.828-1.015 1.203-.579.39-1.375.39-.485 0-1.079-.202z" fill="#000"/><path d="M36.598 72h136v48h-136z" fill="#cfe2f3"/><path d="M36.598 72h136v48h-136z" stroke="#000" stroke-linecap="butt" stroke-linejoin="round"/><path d="m74.353 98.545 1.688-.14q.124 1.015.562 1.671t1.36 1.063q.937.406 2.093.406 1.031 0 1.813-.312.797-.313 1.187-.844t.39-1.156q0-.641-.374-1.11-.375-.484-1.235-.812-.546-.22-2.421-.657-1.875-.453-2.625-.859-.97-.516-1.454-1.266-.468-.75-.468-1.687 0-1.031.578-1.922.594-.906 1.703-1.36 1.125-.468 2.5-.468 1.515 0 2.672.484t1.765 1.438q.625.937.672 2.14l-1.719.125q-.14-1.28-.953-1.937-.797-.672-2.36-.672-1.624 0-2.374.61-.75.593-.75 1.437 0 .734.531 1.203.516.469 2.703.969 2.203.5 3.016.875 1.187.547 1.75 1.39.578.828.578 1.922t-.625 2.063q-.625.953-1.797 1.484-1.156.531-2.61.531-1.843 0-3.093-.53-1.25-.548-1.969-1.626-.703-1.078-.734-2.453zm19.584 1.203 1.719.219q-.406 1.5-1.516 2.344-1.094.828-2.812.828-2.157 0-3.422-1.328t-1.266-3.735q0-2.484 1.266-3.86 1.281-1.374 3.328-1.374 1.984 0 3.234 1.344t1.25 3.797q0 .14-.015.437h-7.344q.094 1.625.922 2.484t2.062.86q.907 0 1.547-.469.656-.484 1.047-1.547zm-5.484-2.703h5.5q-.11-1.234-.625-1.86-.797-.968-2.078-.968-1.141 0-1.938.781-.781.766-.86 2.047zm9.094 5.875v-9.86h1.5v1.5q.578-1.046 1.063-1.374.484-.344 1.078-.344.843 0 1.719.547l-.579 1.547q-.609-.36-1.234-.36-.547 0-.984.328-.422.328-.61.907-.281.89-.281 1.953v5.156h-1.672zm8.963 0-3.75-9.86h1.765l2.125 5.907q.344.953.625 1.984.22-.781.625-1.875l2.188-6.015h1.719l-3.735 9.859h-1.562zm6.61-11.688v-1.906h1.671v1.906h-1.672zm0 11.688v-9.86h1.671v9.86h-1.672zm10.566-3.61 1.64.22q-.265 1.687-1.374 2.656-1.11.953-2.735.953-2.015 0-3.25-1.313-1.218-1.328-1.218-3.797 0-1.594.515-2.78.531-1.204 1.61-1.798 1.093-.61 2.359-.61 1.61 0 2.625.813t1.313 2.313l-1.625.25q-.235-1-.829-1.5t-1.422-.5q-1.265 0-2.062.906-.781.906-.781 2.86 0 1.984.765 2.89.766.89 1.985.89.984 0 1.64-.593.657-.61.844-1.86zm9.64.438 1.72.219q-.407 1.5-1.516 2.344-1.094.828-2.813.828-2.156 0-3.421-1.328t-1.266-3.735q0-2.484 1.266-3.86 1.28-1.374 3.328-1.374 1.984 0 3.234 1.344t1.25 3.797q0 .14-.016.437h-7.343q.093 1.625.922 2.484t2.062.86q.906 0 1.547-.469.656-.484 1.047-1.547zm-5.484-2.703h5.5q-.109-1.234-.625-1.86-.796-.968-2.078-.968-1.14 0-1.937.781-.781.766-.86 2.047z" fill="#000"/><path d="M104.6 120v24" fill="none"/><path d="M104.6 123.43v17.146" stroke="#000" stroke-linecap="butt" stroke-linejoin="round"/><path d="m104.6 123.43 1.125 1.125-1.125-3.09-1.125 3.09zM104.6 140.57l-1.125-1.125 1.125 3.09 1.125-3.09z" fill="#000" fill-rule="evenodd" stroke="#000" stroke-linecap="butt"/><path d="M168 304h192v64H168z" fill="#cfe2f3"/><path d="M168 304h192v64H168z" stroke="#000" stroke-linecap="butt" stroke-linejoin="round"/><path d="M224.52 342.92v-13.594h4.688q1.578 0 2.421.188 1.157.265 1.985.968 1.078.922 1.61 2.344.53 1.406.53 3.219 0 1.547-.359 2.75-.36 1.187-.922 1.984-.562.781-1.234 1.235-.672.437-1.625.672t-2.188.234h-4.906zm1.797-1.61h2.906q1.344 0 2.11-.25t1.218-.703q.64-.64 1-1.718t.36-2.625q0-2.125-.703-3.266-.704-1.156-1.704-1.547-.718-.281-2.328-.281h-2.859v10.39zm11.473-10.077v-1.907h1.672v1.907h-1.672zm0 11.688v-9.86h1.672v9.86h-1.672zm3.457-2.938 1.656-.266q.141 1 .766 1.532.64.515 1.781.515 1.156 0 1.703-.468.563-.47.563-1.094 0-.563-.485-.89-.343-.22-1.703-.563-1.843-.47-2.562-.797-.703-.344-1.078-.938-.36-.61-.36-1.328 0-.656.297-1.219.313-.562.828-.937.391-.281 1.063-.485t1.437-.203q1.172 0 2.047.344.875.328 1.281.906.422.563.579 1.516l-1.625.219q-.11-.75-.657-1.172-.53-.438-1.5-.438-1.156 0-1.64.39-.485.376-.485.876 0 .328.203.594t.641.437q.25.094 1.469.438 1.765.468 2.469.765t1.093.875q.407.578.407 1.438 0 .828-.485 1.578-.484.734-1.406 1.14-.922.391-2.078.391-1.922 0-2.937-.797-1-.797-1.282-2.36zm16.438-.672 1.64.219q-.265 1.687-1.374 2.656-1.11.953-2.735.953-2.015 0-3.25-1.312-1.218-1.328-1.218-3.797 0-1.594.515-2.781.531-1.203 1.61-1.797 1.093-.61 2.359-.61 1.61 0 2.625.813t1.313 2.312l-1.625.25q-.235-1-.829-1.5t-1.421-.5q-1.266 0-2.063.907-.781.906-.781 2.86 0 1.983.765 2.89.766.89 1.985.89.984 0 1.64-.593.657-.61.844-1.86zm2.266-1.312q0-2.735 1.531-4.063 1.266-1.094 3.094-1.094 2.031 0 3.312 1.344 1.297 1.328 1.297 3.672 0 1.906-.578 3-.562 1.078-1.656 1.688-1.078.593-2.375.593-2.063 0-3.344-1.328T259.951 338zm1.719 0q0 1.89.828 2.828t2.078.937 2.062-.937q.828-.953.828-2.89 0-1.829-.828-2.766t-2.062-.938q-1.25 0-2.078.938t-.828 2.828zm12.016 4.922-3.75-9.86h1.765l2.125 5.906q.344.954.625 1.985.219-.781.625-1.875l2.188-6.016h1.719l-3.735 9.86h-1.562zm13.344-3.172 1.718.218q-.406 1.5-1.515 2.344-1.094.828-2.813.828-2.156 0-3.422-1.328t-1.265-3.734q0-2.485 1.265-3.86 1.282-1.375 3.329-1.375 1.984 0 3.234 1.344t1.25 3.797q0 .14-.016.438h-7.344q.094 1.625.922 2.484t2.063.86q.906 0 1.547-.47.656-.484 1.047-1.546zm-5.485-2.703h5.5q-.11-1.235-.625-1.86-.797-.969-2.078-.969-1.14 0-1.937.782-.782.765-.86 2.047zm9.095 5.875v-9.86h1.5v1.5q.578-1.047 1.062-1.375.485-.344 1.078-.344.844 0 1.72.547l-.579 1.547q-.61-.36-1.234-.36-.547 0-.985.329-.422.328-.61.906-.28.89-.28 1.953v5.157h-1.672zm6.15 3.797-.172-1.563q.547.14.953.14.547 0 .875-.187.344-.187.563-.515.156-.25.5-1.25.047-.141.156-.407l-3.735-9.875h1.797l2.047 5.72q.407 1.077.719 2.28.281-1.156.688-2.25l2.093-5.75h1.672l-3.75 10.031q-.594 1.625-.937 2.235-.438.828-1.016 1.203-.578.39-1.375.39-.484 0-1.078-.203z" fill="#000"/><path d="M336 8h184v200H336z" fill="#cfe2f3"/><path d="M336 8h184v200H336z" stroke="#000" stroke-linecap="butt" stroke-linejoin="round"/><path d="m365.62 30.545 1.688-.14q.125 1.015.562 1.671t1.36 1.063q.937.406 2.093.406 1.031 0 1.813-.312.797-.313 1.187-.844t.39-1.156q0-.641-.374-1.11-.375-.484-1.235-.812-.546-.22-2.421-.657-1.875-.453-2.625-.859-.97-.516-1.454-1.266-.468-.75-.468-1.687 0-1.031.578-1.922.594-.906 1.703-1.36 1.125-.468 2.5-.468 1.515 0 2.672.484t1.765 1.438q.625.937.672 2.14l-1.719.125q-.14-1.28-.953-1.937-.797-.672-2.359-.672-1.625 0-2.375.61-.75.593-.75 1.437 0 .734.531 1.203.516.469 2.703.969 2.203.5 3.016.875 1.187.547 1.75 1.39.578.828.578 1.922t-.625 2.063q-.625.953-1.797 1.484-1.156.531-2.61.531-1.843 0-3.093-.53-1.25-.548-1.969-1.626-.703-1.078-.734-2.453zm19.584 1.203 1.719.219q-.406 1.5-1.516 2.344-1.094.828-2.812.828-2.157 0-3.422-1.328t-1.266-3.735q0-2.484 1.266-3.86 1.281-1.374 3.328-1.374 1.984 0 3.234 1.344t1.25 3.797q0 .14-.015.437h-7.344q.094 1.625.922 2.484t2.062.86q.907 0 1.547-.469.656-.484 1.047-1.547zm-5.484-2.703h5.5q-.11-1.234-.625-1.86-.797-.968-2.079-.968-1.14 0-1.937.781-.781.766-.86 2.047zm9.094 5.875v-9.86h1.5v1.5q.578-1.046 1.063-1.374.484-.344 1.078-.344.843 0 1.719.547l-.579 1.547q-.609-.36-1.234-.36-.547 0-.984.328-.422.328-.61.907-.281.89-.281 1.953v5.156h-1.672zm8.963 0-3.75-9.86h1.765l2.125 5.907q.344.953.625 1.984.22-.781.625-1.875l2.188-6.015h1.719l-3.735 9.859h-1.562zm6.61-11.688v-1.906h1.671v1.906h-1.672zm0 11.688v-9.86h1.671v9.86h-1.672zm10.566-3.61 1.64.22q-.265 1.687-1.374 2.656-1.11.953-2.735.953-2.015 0-3.25-1.313-1.218-1.328-1.218-3.797 0-1.594.515-2.78.531-1.204 1.61-1.798 1.093-.61 2.359-.61 1.61 0 2.625.813t1.313 2.313l-1.625.25q-.235-1-.829-1.5t-1.421-.5q-1.266 0-2.063.906-.781.906-.781 2.86 0 1.984.765 2.89.766.89 1.985.89.984 0 1.64-.593.657-.61.844-1.86zm9.64.438 1.72.219q-.407 1.5-1.516 2.344-1.094.828-2.813.828-2.156 0-3.421-1.328t-1.266-3.735q0-2.484 1.266-3.86 1.28-1.374 3.328-1.374 1.984 0 3.234 1.344t1.25 3.797q0 .14-.016.437h-7.343q.093 1.625.922 2.484t2.062.86q.906 0 1.547-.469.656-.484 1.047-1.547zm-5.484-2.703h5.5q-.109-1.234-.625-1.86-.796-.968-2.078-.968-1.14 0-1.937.781-.781.766-.86 2.047zm24.215 1.11 1.797.453q-.562 2.218-2.03 3.39-1.47 1.156-3.595 1.156-2.203 0-3.578-.89-1.375-.907-2.094-2.594-.718-1.703-.718-3.656 0-2.125.797-3.703.812-1.578 2.312-2.391 1.5-.828 3.297-.828 2.047 0 3.437 1.047 1.391 1.031 1.938 2.906l-1.766.422q-.468-1.485-1.375-2.156-.906-.688-2.265-.688-1.563 0-2.625.75-1.047.75-1.485 2.031-.422 1.266-.422 2.61 0 1.734.5 3.031.516 1.281 1.579 1.922 1.078.64 2.312.64 1.516 0 2.563-.859 1.046-.875 1.421-2.594zm3.52 4.765V21.326h1.672V34.92h-1.672zm10.63 0v-1.453q-1.141 1.672-3.126 1.672-.86 0-1.625-.328-.75-.344-1.125-.844-.36-.5-.515-1.234-.094-.5-.094-1.563v-6.11h1.672v5.47q0 1.312.093 1.765.157.656.672 1.031t1.266.375 1.406-.375q.656-.39.922-1.047.281-.672.281-1.937V25.06h1.672v9.859h-1.5zm3.25-2.938 1.656-.265q.14 1 .766 1.531.64.516 1.78.516 1.157 0 1.704-.47.563-.468.563-1.093 0-.562-.485-.89-.344-.22-1.703-.563-1.844-.469-2.562-.797-.704-.344-1.079-.937-.359-.61-.359-1.328 0-.657.297-1.22.312-.562.828-.937.39-.281 1.063-.484t1.437-.203q1.172 0 2.047.343.875.329 1.281.907.422.562.578 1.515l-1.625.22q-.11-.75-.656-1.173-.531-.437-1.5-.437-1.156 0-1.64.39-.485.375-.485.875 0 .328.203.594t.64.438q.25.093 1.47.437 1.765.469 2.468.766t1.094.875q.406.578.406 1.437 0 .828-.484 1.578-.484.735-1.406 1.14-.922.392-2.078.392-1.922 0-2.938-.797-1-.797-1.28-2.36zm13.656 1.438.234 1.484q-.703.141-1.265.141-.907 0-1.407-.281-.5-.297-.703-.75-.203-.469-.203-1.985v-5.656h-1.234v-1.312h1.234v-2.438l1.656-1v3.438h1.688v1.312h-1.688v5.75q0 .719.079.922.093.203.296.328t.579.125q.265 0 .734-.078zm8.277-1.672 1.719.219q-.406 1.5-1.516 2.344-1.094.828-2.812.828-2.157 0-3.422-1.328t-1.266-3.735q0-2.484 1.266-3.86 1.281-1.374 3.328-1.374 1.984 0 3.234 1.344t1.25 3.797q0 .14-.015.437h-7.344q.094 1.625.922 2.484t2.062.86q.907 0 1.547-.469.656-.484 1.047-1.547zm-5.484-2.703h5.5q-.11-1.234-.625-1.86-.797-.968-2.079-.968-1.14 0-1.937.781-.781.766-.86 2.047zm9.094 5.875v-9.86h1.5v1.5q.578-1.046 1.063-1.374.484-.344 1.078-.344.843 0 1.718.547l-.578 1.547q-.609-.36-1.234-.36-.547 0-.984.328-.422.328-.61.907-.281.89-.281 1.953v5.156h-1.672z" fill="#000"/><path d="M344 48h150.3v136H344z" fill="#d9d9d9"/><path d="M344 48h150.3v136H344z" stroke="#000" stroke-linecap="butt" stroke-linejoin="round"/><path d="M350.3 56h150.3v136H350.3z" fill="#d9d9d9"/><path d="M350.3 56h150.3v136H350.3z" stroke="#000" stroke-linecap="butt" stroke-linejoin="round"/><path d="M358.3 64h150.3v136H358.3z" fill="#d9d9d9"/><path d="M358.3 64h150.3v136H358.3z" stroke="#000" stroke-linecap="butt" stroke-linejoin="round"/><path d="M364.6 144h136v48h-136z" fill="#cfe2f3"/><path d="M364.6 144h136v48h-136z" stroke="#000" stroke-linecap="butt" stroke-linejoin="round"/><path d="M408.17 174.92v-13.594h9.844v1.594h-8.047v4.172h7.531v1.593h-7.531v4.625h8.36v1.61H408.17zm12.194 0v-9.86h1.5v1.407q1.094-1.625 3.14-1.625.891 0 1.641.328.75.312 1.11.844.375.515.53 1.218.095.47.095 1.625v6.063h-1.672v-6q0-1.016-.203-1.516-.188-.515-.688-.812t-1.172-.297q-1.062 0-1.844.672-.765.672-.765 2.578v5.375h-1.672zm13.11 0-3.75-9.86h1.766l2.125 5.907q.343.953.625 1.984.218-.781.625-1.875l2.187-6.015h1.719l-3.734 9.859h-1.563zm5.969-4.922q0-2.734 1.531-4.062 1.266-1.094 3.094-1.094 2.031 0 3.312 1.344 1.297 1.328 1.297 3.671 0 1.907-.578 3-.562 1.079-1.656 1.688-1.078.594-2.375.594-2.063 0-3.344-1.328t-1.281-3.813zm1.719 0q0 1.89.828 2.828t2.078.938 2.062-.938q.828-.953.828-2.89 0-1.829-.828-2.766t-2.062-.938q-1.25 0-2.078.938t-.828 2.828zm9.203 8.719-.171-1.563q.546.141.953.141.547 0 .875-.187.343-.188.562-.516.156-.25.5-1.25.047-.14.156-.406l-3.734-9.875h1.797l2.047 5.718q.406 1.079.719 2.282.28-1.157.687-2.25l2.094-5.75h1.672l-3.75 10.03q-.594 1.626-.938 2.235-.437.828-1.015 1.203-.578.39-1.375.39-.485 0-1.078-.202z" fill="#000"/><path d="M364.6 72h136v48h-136z" fill="#cfe2f3"/><path d="M364.6 72h136v48h-136z" stroke="#000" stroke-linecap="butt" stroke-linejoin="round"/><path d="m402.35 98.545 1.688-.14q.125 1.015.562 1.671t1.36 1.063q.937.406 2.093.406 1.031 0 1.813-.312.797-.313 1.187-.844t.39-1.156q0-.641-.374-1.11-.375-.484-1.235-.812-.546-.22-2.421-.657-1.875-.453-2.625-.859-.97-.516-1.454-1.266-.468-.75-.468-1.687 0-1.031.578-1.922.594-.906 1.703-1.36 1.125-.468 2.5-.468 1.515 0 2.672.484t1.765 1.438q.625.937.672 2.14l-1.719.125q-.14-1.28-.953-1.937-.797-.672-2.359-.672-1.625 0-2.375.61-.75.593-.75 1.437 0 .734.531 1.203.516.469 2.703.969 2.203.5 3.016.875 1.187.547 1.75 1.39.578.828.578 1.922t-.625 2.063q-.625.953-1.797 1.484-1.156.531-2.61.531-1.843 0-3.093-.53-1.25-.548-1.969-1.626-.703-1.078-.734-2.453zm19.584 1.203 1.719.219q-.406 1.5-1.516 2.344-1.094.828-2.812.828-2.156 0-3.422-1.328t-1.266-3.735q0-2.484 1.266-3.86 1.281-1.374 3.328-1.374 1.984 0 3.234 1.344t1.25 3.797q0 .14-.015.437h-7.344q.094 1.625.922 2.484t2.062.86q.907 0 1.547-.469.656-.484 1.047-1.547zm-5.484-2.703h5.5q-.11-1.234-.625-1.86-.797-.968-2.078-.968-1.141 0-1.938.781-.781.766-.86 2.047zm9.094 5.875v-9.86h1.5v1.5q.578-1.046 1.063-1.374.484-.344 1.078-.344.843 0 1.719.547l-.579 1.547q-.609-.36-1.234-.36-.547 0-.984.328-.422.328-.61.907-.281.89-.281 1.953v5.156h-1.672zm8.963 0-3.75-9.86h1.765l2.125 5.907q.344.953.625 1.984.22-.781.625-1.875l2.188-6.015h1.719l-3.735 9.859h-1.562zm6.61-11.688v-1.906h1.671v1.906h-1.672zm0 11.688v-9.86h1.671v9.86h-1.672zm10.566-3.61 1.64.22q-.265 1.687-1.374 2.656-1.11.953-2.735.953-2.015 0-3.25-1.313-1.218-1.328-1.218-3.797 0-1.594.515-2.78.531-1.204 1.61-1.798 1.093-.61 2.359-.61 1.61 0 2.625.813t1.313 2.313l-1.625.25q-.235-1-.829-1.5t-1.421-.5q-1.266 0-2.063.906-.781.906-.781 2.86 0 1.984.765 2.89.766.89 1.985.89.984 0 1.64-.593.657-.61.844-1.86zm9.64.438 1.72.219q-.407 1.5-1.516 2.344-1.094.828-2.813.828-2.156 0-3.421-1.328t-1.266-3.735q0-2.484 1.266-3.86 1.28-1.374 3.328-1.374 1.984 0 3.234 1.344t1.25 3.797q0 .14-.016.437h-7.343q.093 1.625.922 2.484t2.062.86q.906 0 1.547-.469.656-.484 1.047-1.547zm-5.484-2.703h5.5q-.109-1.234-.625-1.86-.796-.968-2.078-.968-1.14 0-1.937.781-.781.766-.86 2.047z" fill="#000"/><path d="M432.6 120v24" fill="none"/><path d="M432.6 123.43v17.146" stroke="#000" stroke-linecap="butt" stroke-linejoin="round"/><path d="m432.6 123.43 1.125 1.125-1.125-3.09-1.125 3.09zM432.6 140.57l-1.125-1.125 1.125 3.09 1.125-3.09z" fill="#000" fill-rule="evenodd" stroke="#000" stroke-linecap="butt"/><path d="M168 232h192v64H168z" fill="#cfe2f3"/><path d="M168 232h192v64H168z" stroke="#000" stroke-linecap="butt" stroke-linejoin="round"/><path d="M192.92 270.92v-13.594h9.844v1.594h-8.047v4.172h7.531v1.594h-7.531v4.625h8.36v1.609H192.92zm11.084 0 3.594-5.125-3.328-4.734h2.093l1.516 2.312q.422.656.672 1.11.422-.61.766-1.094l1.656-2.328h1.984l-3.39 4.64 3.656 5.219h-2.047l-2.031-3.063-.532-.828-2.593 3.891h-2.016zm14.094-1.5.234 1.484q-.703.141-1.265.141-.906 0-1.406-.281-.5-.297-.704-.75-.203-.469-.203-1.985v-5.656h-1.234v-1.312h1.234v-2.438l1.657-1v3.438h1.687v1.312h-1.687v5.75q0 .719.078.922.093.203.297.328t.578.125q.265 0 .734-.078zm8.277-1.672 1.719.219q-.406 1.5-1.516 2.344-1.094.828-2.812.828-2.156 0-3.422-1.328t-1.266-3.735q0-2.484 1.266-3.86 1.281-1.374 3.328-1.374 1.984 0 3.234 1.344t1.25 3.797q0 .14-.015.437h-7.344q.094 1.625.922 2.484t2.062.86q.907 0 1.547-.469.657-.484 1.047-1.547zm-5.484-2.703h5.5q-.11-1.234-.625-1.86-.797-.968-2.078-.968-1.141 0-1.938.781-.781.766-.86 2.047zm9.094 5.875v-9.86h1.5v1.5q.578-1.046 1.063-1.374.484-.344 1.078-.344.844 0 1.719.547l-.579 1.547q-.609-.36-1.234-.36-.547 0-.984.328-.422.328-.61.907-.28.89-.28 1.953v5.156h-1.673zm6.228 0v-9.86h1.5v1.407q1.094-1.625 3.141-1.625.89 0 1.64.328.75.312 1.11.844.375.515.531 1.218.094.47.094 1.625v6.063h-1.672v-6q0-1.016-.203-1.516-.187-.515-.687-.812t-1.172-.297q-1.063 0-1.844.672-.766.672-.766 2.578v5.375h-1.672zm16.813-1.219q-.937.797-1.796 1.125-.86.313-1.844.313-1.61 0-2.485-.782-.875-.796-.875-2.03 0-.735.329-1.329t.859-.953 1.203-.547q.5-.14 1.484-.25 2.032-.25 2.985-.578v-.437q0-1.016-.469-1.438-.64-.562-1.906-.562-1.172 0-1.735.406t-.828 1.469l-1.64-.235q.234-1.047.734-1.687.516-.64 1.469-.985.969-.36 2.25-.36 1.266 0 2.047.298t1.156.75.516 1.14q.093.422.093 1.532v2.234q0 2.328.094 2.953.11.61.438 1.172h-1.75q-.266-.516-.328-1.219zm-.14-3.719q-.906.36-2.735.625-1.03.141-1.453.329t-.656.546-.234.797q0 .672.5 1.125.515.438 1.484.438t1.719-.422q.75-.438 1.11-1.156.265-.578.265-1.672v-.61zm4.047 4.938v-13.594h1.672v13.594h-1.672zm8.97-4.375 1.687-.14q.125 1.015.562 1.671t1.36 1.063q.937.406 2.093.406 1.032 0 1.813-.313.797-.312 1.187-.843t.391-1.157q0-.64-.375-1.109-.375-.484-1.234-.812-.547-.22-2.422-.657-1.875-.453-2.625-.859-.969-.516-1.453-1.266-.47-.75-.47-1.687 0-1.031.58-1.922.593-.906 1.702-1.36 1.125-.468 2.5-.468 1.516 0 2.672.484t1.766 1.438q.625.937.672 2.14l-1.72.125q-.14-1.28-.952-1.937-.797-.672-2.36-.672-1.625 0-2.375.61-.75.593-.75 1.437 0 .734.531 1.203.516.469 2.704.969 2.203.5 3.015.875 1.188.547 1.75 1.39.578.828.578 1.922t-.625 2.063q-.625.953-1.797 1.484-1.156.531-2.609.531-1.844 0-3.094-.531-1.25-.547-1.969-1.625-.703-1.078-.734-2.453zm19.583 1.203 1.72.219q-.407 1.5-1.517 2.344-1.093.828-2.812.828-2.156 0-3.422-1.328t-1.266-3.735q0-2.484 1.266-3.86 1.281-1.374 3.328-1.374 1.985 0 3.235 1.344t1.25 3.796q0 .141-.016.438h-7.344q.094 1.625.922 2.484t2.063.86q.906 0 1.546-.469.657-.484 1.047-1.547zm-5.484-2.703h5.5q-.11-1.234-.625-1.86-.797-.968-2.078-.968-1.14 0-1.938.781-.781.766-.86 2.047zm9.094 5.875v-9.86h1.5v1.5q.578-1.046 1.063-1.374.484-.344 1.078-.344.844 0 1.719.547l-.578 1.547q-.61-.36-1.235-.36-.547 0-.984.328-.422.328-.61.907-.28.89-.28 1.953v5.156h-1.673zm8.963 0-3.75-9.86h1.766l2.125 5.907q.343.953.625 1.984.218-.781.625-1.875l2.187-6.015h1.719l-3.734 9.859h-1.563zm6.61-11.688v-1.906h1.671v1.906h-1.672zm0 11.688v-9.86h1.671v9.86h-1.672zm10.566-3.61 1.641.22q-.266 1.687-1.375 2.655-1.11.954-2.734.954-2.016 0-3.25-1.313-1.22-1.328-1.22-3.797 0-1.594.516-2.781.532-1.203 1.61-1.797 1.094-.61 2.36-.61 1.609 0 2.624.813t1.313 2.313l-1.625.25q-.235-1-.828-1.5t-1.422-.5q-1.266 0-2.063.906-.781.906-.781 2.86 0 1.984.766 2.89.765.89 1.984.89.984 0 1.64-.593.657-.61.844-1.86zm9.641.438 1.719.219q-.406 1.5-1.516 2.344-1.094.828-2.812.828-2.156 0-3.422-1.328t-1.266-3.735q0-2.484 1.266-3.86 1.281-1.374 3.328-1.374 1.984 0 3.234 1.344t1.25 3.796q0 .141-.015.438h-7.344q.094 1.625.922 2.484t2.062.86q.907 0 1.547-.469.656-.484 1.047-1.547zm-5.484-2.703h5.5q-.11-1.234-.625-1.86-.797-.968-2.078-.968-1.141 0-1.938.781-.781.766-.86 2.047zm8.438 2.937 1.656-.265q.14 1 .766 1.531.64.516 1.78.516 1.157 0 1.704-.47.563-.468.563-1.093 0-.562-.485-.89-.344-.22-1.703-.563-1.844-.469-2.562-.797-.704-.344-1.079-.937-.359-.61-.359-1.329 0-.656.297-1.218.312-.563.828-.938.39-.281 1.063-.484t1.437-.203q1.172 0 2.047.343.875.329 1.281.907.422.562.578 1.515l-1.625.219q-.11-.75-.656-1.172-.531-.437-1.5-.437-1.156 0-1.64.39-.485.375-.485.875 0 .328.203.594t.64.437q.25.094 1.47.438 1.765.469 2.468.766t1.094.875q.406.578.406 1.437 0 .828-.484 1.578-.484.735-1.406 1.14-.922.391-2.078.391-1.922 0-2.938-.796-1-.797-1.281-2.36z" fill="#000"/><path d="M172.6 168h192" fill="none"/><path d="M176.03 168h185.15" stroke="#000" stroke-linecap="butt" stroke-linejoin="round"/><path d="m176.03 168 1.125-1.125-3.09 1.125 3.09 1.125zM361.17 168l-1.125 1.125 3.09-1.125-3.09-1.125z" fill="#000" fill-rule="evenodd" stroke="#000" stroke-linecap="butt"/><path d="M192 136h144v24H192z" fill="none"/><path d="M233.26 162.92v-13.594h2.75v5.344h5.375v-5.344h2.75v13.594h-2.75v-5.953h-5.375v5.953h-2.75zm16.52 0v-11.297h-4.031v-2.297h10.812v2.297h-4.031v11.297h-2.75zm11.396 0v-11.297h-4.031v-2.297h10.812v2.297h-4.031v11.297h-2.75zm8.334 0v-13.594h4.421q2.5 0 3.266.203 1.156.297 1.938 1.328.796 1.016.796 2.64 0 1.25-.453 2.11t-1.156 1.344-1.422.64q-.984.204-2.844.204h-1.797v5.125h-2.75zm2.75-11.297v3.86h1.5q1.625 0 2.171-.22t.86-.671.312-1.047q0-.75-.437-1.235t-1.094-.593q-.5-.094-1.984-.094h-1.329zm8.287 11.531 3.375-14.062h1.953l-3.406 14.062h-1.922zm14.824-2.656v2.422h-9.14q.155-1.375.89-2.594.75-1.235 2.937-3.266 1.766-1.64 2.157-2.234.546-.797.546-1.594 0-.875-.468-1.344t-1.297-.468q-.813 0-1.297.5-.485.484-.563 1.625l-2.593-.25q.234-2.157 1.453-3.094t3.062-.938q2.016 0 3.156 1.094 1.157 1.078 1.157 2.688 0 .921-.329 1.75t-1.046 1.734q-.47.61-1.704 1.75-1.234 1.125-1.562 1.5-.328.36-.531.719h5.172z" fill="#000"/><path d="M192 160h144v40H192z" fill="none"/><path d="M202.39 186.92v-13.594h5.781q2.188 0 3.172.36t1.578 1.296.594 2.156q0 1.532-.906 2.532-.89.984-2.688 1.25.89.515 1.469 1.14t1.563 2.203l1.671 2.657h-3.297l-1.984-2.954q-1.047-1.593-1.437-2-.391-.421-.829-.562-.437-.156-1.39-.156h-.547v5.672h-2.75zm2.75-7.844h2.031q1.969 0 2.453-.172.5-.172.782-.578t.28-1.015q0-.688-.374-1.11-.36-.422-1.031-.531-.329-.047-2-.047h-2.141v3.453zm10.707 7.844v-13.594h10.094v2.297h-7.344v3.015h6.828v2.282h-6.828v3.703h7.61v2.297h-10.36zm11.756-4.422 2.672-.266q.234 1.344.969 1.985.75.625 2 .625 1.328 0 2-.563t.672-1.312q0-.485-.282-.813-.281-.343-.984-.593-.484-.172-2.203-.594-2.203-.547-3.094-1.344-1.266-1.125-1.266-2.734 0-1.047.594-1.953t1.703-1.375 2.672-.47q2.563 0 3.86 1.126 1.296 1.11 1.359 2.984l-2.75.125q-.172-1.047-.75-1.5-.578-.469-1.75-.469-1.188 0-1.875.5-.438.313-.438.844 0 .485.422.828.516.422 2.516.907 2 .468 2.953.984.969.5 1.516 1.375t.547 2.156q0 1.172-.657 2.203-.64 1.016-1.828 1.516-1.187.484-2.969.484-2.578 0-3.968-1.187-1.375-1.188-1.641-3.469zm16.194 4.422v-11.297h-4.031v-2.297h10.812v2.297h-4.031v11.297h-2.75zM255.94 187.15l3.938-14.062h1.343l-3.937 14.062h-1.344zM274.01 181.92v-2.297h5.922v5.422q-.86.828-2.5 1.469t-3.313.64q-2.14 0-3.734-.89-1.578-.906-2.375-2.563-.797-1.672-.797-3.625 0-2.125.89-3.78t2.61-2.532q1.313-.672 3.25-.672 2.547 0 3.969 1.063t1.828 2.937l-2.734.5q-.282-1-1.078-1.578t-1.985-.578q-1.797 0-2.86 1.14t-1.062 3.391q0 2.422 1.078 3.64 1.078 1.204 2.828 1.204.86 0 1.72-.344.874-.344 1.5-.828v-1.719h-3.157zm8.199 5v-13.594h5.781q2.188 0 3.172.36t1.578 1.296.594 2.156q0 1.532-.906 2.532-.891.984-2.688 1.25.89.515 1.469 1.14t1.562 2.203l1.672 2.657h-3.297l-1.984-2.954q-1.047-1.593-1.438-2-.39-.421-.828-.562-.437-.156-1.39-.156h-.547v5.672h-2.75zm2.75-7.844h2.031q1.969 0 2.453-.172.5-.172.781-.578t.282-1.015q0-.688-.375-1.11-.36-.422-1.031-.531-.329-.047-2-.047h-2.141v3.453zm10.707 7.844v-13.594h4.422q2.5 0 3.265.203 1.157.297 1.938 1.328.797 1.016.797 2.64 0 1.25-.453 2.11t-1.157 1.344-1.421.64q-.985.204-2.844.204h-1.797v5.125h-2.75zm2.75-11.297v3.86h1.5q1.625 0 2.172-.22t.86-.671.312-1.047q0-.75-.438-1.235t-1.094-.593q-.5-.094-1.984-.094h-1.328zm18.397 6.297 2.672.844q-.61 2.218-2.047 3.312-1.422 1.078-3.61 1.078-2.703 0-4.453-1.844-1.734-1.859-1.734-5.078 0-3.39 1.75-5.265t4.61-1.875q2.5 0 4.046 1.469.938.875 1.39 2.5l-2.718.656q-.234-1.063-1-1.672t-1.86-.61q-1.515 0-2.452 1.094-.938 1.078-.938 3.5 0 2.578.922 3.688.922 1.094 2.406 1.094 1.11 0 1.89-.688.782-.703 1.126-2.203z" fill="#000"/><path d="m104.6 192 63.402 72" fill="none"/><path d="m106.86 194.57 58.872 66.856" stroke="#000" stroke-linecap="butt" stroke-linejoin="round"/><path d="m106.86 194.57 1.587.1-2.886-1.575 1.198 3.062zM165.74 261.43l-1.587-.1 2.886 1.575-1.198-3.062z" fill="#000" fill-rule="evenodd" stroke="#000" stroke-linecap="butt"/><path d="m104.6 192 63.402 144" fill="none"/><path d="m104.6 192 60.984 138.51" stroke="#000" stroke-linecap="butt" stroke-linejoin="round"/><path d="m164.07 331.17 3.34 3.488-.317-4.82z" fill="#000" fill-rule="evenodd" stroke="#000" stroke-linecap="butt"/><path d="m432.6 192-72.598 72" fill="none"/><path d="m430.17 194.41-67.732 67.173" stroke="#000" stroke-linecap="butt" stroke-linejoin="round"/><path d="m430.17 194.41-.007 1.59 1.402-2.974-2.985 1.377zM362.43 261.59l.007-1.59-1.402 2.974 2.985-1.378z" fill="#000" fill-rule="evenodd" stroke="#000" stroke-linecap="butt"/><path d="m432.6 192-72.598 144" fill="none"/><path d="m431.06 195.06-69.513 137.88" stroke="#000" stroke-linecap="butt" stroke-linejoin="round"/><path d="m431.06 195.06.498 1.51.387-3.265-2.395 2.253zM361.54 332.94l-.498-1.51-.387 3.265 2.395-2.253z" fill="#000" fill-rule="evenodd" stroke="#000" stroke-linecap="butt"/></g></svg>