<svg fill="none" stroke-linecap="square" stroke-miterlimit="10" viewBox="0 0 913.67 449.42" xmlns="http://www.w3.org/2000/svg"><clipPath id="a"><path d="M0 0h913.67v449.42H0V0z"/></clipPath><g clip-path="url(#a)"><path d="M0 0h913.67v449.42H0z" fill="none"/><path d="M5.953 159.6c0-26.261 21.289-47.55 47.55-47.55h190.19a47.552 47.552 0 0 1 47.55 47.55v235.29c0 26.261-21.29 47.55-47.55 47.55H53.503c-26.261 0-47.55-21.289-47.55-47.55z" fill="#fff2cc" fill-rule="evenodd"/><path d="M5.953 159.6c0-26.261 21.289-47.55 47.55-47.55h190.19a47.552 47.552 0 0 1 47.55 47.55v235.29c0 26.261-21.29 47.55-47.55 47.55H53.503c-26.261 0-47.55-21.289-47.55-47.55z" stroke="#757575" stroke-linecap="butt" stroke-linejoin="round"/><path d="m94.622 150.34-3.031-11.453h1.547l1.75 7.5q.28 1.188.484 2.344.438-1.828.516-2.11l2.172-7.734h1.828l1.64 5.797q.625 2.156.89 4.047.22-1.078.579-2.485l1.797-7.359h1.516l-3.141 11.453h-1.453l-2.422-8.734q-.297-1.094-.36-1.344-.171.797-.328 1.344l-2.437 8.734h-1.547zm12.109-4.156q0-2.297 1.281-3.406 1.078-.922 2.61-.922 1.718 0 2.796 1.125 1.094 1.11 1.094 3.094 0 1.593-.484 2.515t-1.406 1.438q-.907.5-2 .5-1.735 0-2.813-1.11-1.078-1.125-1.078-3.234zm1.453 0q0 1.594.688 2.39.703.797 1.75.797t1.734-.797q.703-.796.703-2.437 0-1.531-.703-2.328-.688-.797-1.734-.797t-1.75.797q-.688.781-.688 2.375zm7.961 4.156v-8.297h1.266v1.25q.484-.875.89-1.156t.906-.281q.704 0 1.438.453l-.484 1.297q-.516-.297-1.032-.297-.453 0-.828.281-.36.266-.515.766-.235.75-.235 1.64v4.344h-1.406zm5.344 0v-11.453h1.406v6.531l3.328-3.375h1.828l-3.172 3.078 3.485 5.22h-1.735l-2.734-4.25-1 .952v3.297h-1.406zm13.672-2.672 1.453.172q-.344 1.281-1.281 1.984-.922.703-2.36.703-1.828 0-2.89-1.124t-1.063-3.141q0-2.094 1.078-3.25t2.797-1.156q1.656 0 2.703 1.14 1.063 1.125 1.063 3.172v.375h-6.188q.078 1.375.766 2.11.703.718 1.734.718.782 0 1.328-.406t.86-1.297zm-4.61-2.281h4.625q-.093-1.047-.53-1.563-.673-.812-1.735-.812-.969 0-1.64.656-.657.64-.72 1.719zm7.82 4.953v-8.297h1.266v1.25q.485-.875.89-1.156t.907-.281q.703 0 1.438.453l-.485 1.297q-.515-.297-1.03-.297-.454 0-.829.281-.36.266-.516.766-.234.75-.234 1.64v4.344h-1.406zm12.853-1.266.203 1.25q-.594.125-1.063.125-.765 0-1.187-.234-.422-.25-.594-.64-.172-.407-.172-1.672v-4.766h-1.031v-1.094h1.031v-2.062l1.406-.844v2.906h1.407v1.094h-1.407v4.844q0 .609.063.78.078.173.25.282.172.094.484.094.235 0 .61-.063zm1.383 1.266v-11.453h1.406v4.11q.984-1.141 2.484-1.141.922 0 1.594.36.687.359.969 1 .297.64.297 1.859v5.265h-1.407v-5.265q0-1.047-.453-1.532t-1.297-.484q-.625 0-1.172.328t-.78.89q-.235.548-.235 1.516v4.547h-1.406zm8.882 0v-8.297h1.266v1.25q.484-.875.89-1.156t.907-.281q.703 0 1.437.453l-.484 1.297q-.516-.297-1.031-.297-.453 0-.828.281-.36.266-.516.766-.234.75-.234 1.64v4.344h-1.407zm11.016-2.672 1.453.172q-.343 1.281-1.28 1.984-.923.703-2.36.703-1.828 0-2.89-1.124t-1.063-3.141q0-2.094 1.078-3.25t2.797-1.156q1.656 0 2.703 1.14 1.062 1.125 1.062 3.172v.375h-6.187q.078 1.375.765 2.11.704.718 1.735.718.781 0 1.328-.406t.86-1.297zm-4.61-2.281h4.626q-.094-1.047-.531-1.563-.672-.812-1.735-.812-.968 0-1.64.656-.657.64-.72 1.719zm13.243 3.922q-.781.672-1.5.953-.719.266-1.547.266-1.375 0-2.11-.672t-.734-1.703q0-.61.281-1.11.282-.515.72-.812.452-.313 1.015-.47.422-.108 1.25-.202 1.703-.203 2.515-.485v-.375q0-.859-.39-1.203-.547-.484-1.61-.484-.984 0-1.468.36-.47.343-.688 1.218l-1.375-.187q.188-.875.61-1.422.437-.547 1.25-.828.812-.297 1.874-.297t1.72.25q.671.25.984.625t.437.953q.078.36.078 1.297v1.875q0 1.969.078 2.484.094.516.36 1h-1.469q-.219-.437-.281-1.031zm-.11-3.14q-.765.312-2.296.53-.875.125-1.235.282t-.562.468q-.188.297-.188.657 0 .562.422.937.438.375 1.25.375t1.438-.344q.64-.359.937-.984.234-.469.234-1.406v-.516zm8.977 4.171v-1.047q-.781 1.235-2.312 1.235-1 0-1.828-.547t-1.297-1.531q-.454-.985-.454-2.25 0-1.25.407-2.25.422-1.016 1.25-1.547.828-.547 1.86-.547.75 0 1.327.312.594.313.953.828v-4.109h1.407v11.453h-1.313zm-4.437-4.14q0 1.593.671 2.39.672.781 1.579.781.921 0 1.562-.75.656-.765.656-2.312 0-1.703-.656-2.5t-1.625-.797q-.937 0-1.562.766t-.625 2.421zm12.016-1.516q0-2.031.406-3.266.422-1.234 1.25-1.906t2.078-.672q.922 0 1.61.375.702.36 1.156 1.063t.703 1.703q.265 1 .265 2.703 0 2.016-.422 3.266-.406 1.234-1.234 1.921-.828.672-2.078.672-1.656 0-2.61-1.203-1.124-1.422-1.124-4.656zm1.437 0q0 2.828.656 3.765.672.922 1.641.922t1.625-.937.656-3.75q0-2.828-.656-3.75-.656-.938-1.64-.938-.97 0-1.548.828-.734 1.047-.734 3.86z" fill="#000"/><path d="M15.582 205.91c0-24.449 19.82-44.269 44.269-44.269h177.07a44.269 44.269 0 0 1 44.269 44.269v182.14c0 24.449-19.82 44.269-44.269 44.269H59.851c-24.449 0-44.269-19.82-44.269-44.269z" fill="#ead1dc" fill-rule="evenodd"/><path d="M15.582 205.91c0-24.449 19.82-44.269 44.269-44.269h177.07a44.269 44.269 0 0 1 44.269 44.269v182.14c0 24.449-19.82 44.269-44.269 44.269H59.851c-24.449 0-44.269-19.82-44.269-44.269z" stroke="#757575" stroke-linecap="butt" stroke-linejoin="round"/><path d="M41.283 193.97q-.64 0-1.203-.234-.547-.25-.969-.72-.406-.468-.64-1.14t-.235-1.53q0-.845.235-1.517t.656-1.14.984-.719q.578-.25 1.266-.25.625 0 1.11.266.484.25.796.593l-.5.563q-.281-.281-.625-.453-.344-.188-.781-.188-.5 0-.922.203-.406.188-.703.563-.281.36-.438.89-.156.516-.156 1.173t.156 1.187.438.906q.297.36.703.563.422.203.922.203.484 0 .86-.203t.718-.563l.5.532q-.422.484-.953.75-.516.265-1.219.265zm5.863 0q-.516 0-.985-.172-.453-.187-.812-.531-.344-.344-.563-.844-.203-.515-.203-1.156 0-.656.203-1.156.219-.5.563-.844.36-.36.812-.547.469-.187.985-.187.5 0 .968.187t.813.547q.36.344.562.844t.203 1.156q0 .64-.203 1.156-.203.5-.562.844-.344.344-.813.531-.468.172-.968.172zm0-.719q.359 0 .656-.14.312-.157.531-.407.219-.265.328-.625.125-.359.125-.812t-.125-.813q-.11-.375-.328-.64t-.531-.406q-.297-.141-.656-.141-.375 0-.688.14-.297.141-.516.407t-.343.64q-.11.36-.11.813t.11.812q.125.36.343.625.22.25.516.407.313.14.688.14zm4.175.594v-5.172h.734l.078.875h.031q.407-.437.875-.719.47-.297 1.079-.297.921 0 1.359.532t.437 1.562v3.219h-.875v-3.094q0-.75-.28-1.094-.282-.359-.923-.359-.234 0-.437.063-.188.046-.375.171-.188.11-.39.297-.204.172-.438.407v3.609h-.875zm6.394 0v-5.172h.734l.078.875h.031q.407-.437.875-.719.469-.297 1.078-.297.922 0 1.36.532t.437 1.562v3.219h-.875v-3.094q0-.75-.281-1.094-.281-.359-.922-.359-.234 0-.437.063-.188.046-.375.171-.188.11-.391.297-.203.172-.437.407v3.609h-.875zm8.925.125q-.579 0-1.094-.172-.5-.187-.89-.531-.376-.36-.595-.86-.218-.515-.218-1.156t.218-1.14q.22-.5.579-.844.375-.36.843-.547.485-.187 1.016-.187.547 0 .984.187.453.172.75.5.297.313.453.766.172.437.172.984 0 .14-.015.281 0 .14-.032.25h-4.078q.078.89.64 1.328t1.376.438q.469 0 .844-.125.375-.14.734-.36l.313.579q-.375.25-.875.437-.5.172-1.125.172zm-.125-4.734q-.329 0-.625.109-.282.094-.516.297t-.406.5q-.157.297-.219.672h3.312q-.062-.797-.468-1.188t-1.078-.39zm6.69 4.734q-.61 0-1.125-.172-.515-.187-.906-.531-.375-.344-.594-.844-.203-.515-.203-1.156 0-.656.219-1.156.234-.5.625-.844.39-.36.922-.547t1.11-.187q.64 0 1.109.234.468.219.78.531l-.437.563q-.312-.282-.672-.438-.343-.156-.75-.156-.437 0-.812.14t-.64.407q-.25.265-.407.64-.14.36-.14.813t.14.812.39.625q.266.25.626.407.375.14.828.14.484 0 .875-.187.406-.188.719-.469l.406.563q-.438.39-.969.609-.516.203-1.094.203zm6.91 0q-.563 0-.953-.156t-.625-.438-.344-.672q-.094-.39-.094-.875v-2.453h-1.453v-.656l1.5-.047.11-1.672h.718v1.672h2.547v.703h-2.547v2.47q0 .343.063.608.078.266.218.454.157.171.407.265.25.078.625.078t.671-.062.579-.172l.187.64q-.344.141-.734.22-.39.093-.875.093zm5.565-.125v-4.469h-2.422v-.703h3.282v5.172h-.86zm.829-6.266q-.297 0-.5-.187t-.204-.5q0-.297.204-.484t.5-.188.5.188.203.484q0 .312-.203.5t-.5.187zm5.393 6.391q-.515 0-.984-.172-.453-.187-.813-.531-.343-.344-.562-.844-.203-.515-.203-1.156 0-.656.203-1.156.219-.5.562-.844.36-.36.813-.547.469-.187.984-.187.5 0 .97.187t.812.547q.359.344.562.844t.203 1.156q0 .64-.203 1.156-.203.5-.562.844-.344.344-.813.531-.469.172-.969.172zm0-.719q.36 0 .657-.14.312-.157.53-.407.22-.265.329-.625.125-.359.125-.812t-.125-.813q-.11-.375-.328-.64t-.531-.406q-.297-.141-.657-.141-.375 0-.687.14-.297.141-.516.407t-.344.64q-.109.36-.109.813t.11.812q.124.36.343.625.219.25.516.407.312.14.687.14zm4.175.594v-5.172h.735l.078.875h.031q.406-.437.875-.719.469-.297 1.078-.297.922 0 1.36.532t.437 1.562v3.219h-.875v-3.094q0-.75-.281-1.094-.281-.359-.922-.359-.234 0-.437.063-.188.046-.375.171-.188.11-.391.297-.203.172-.438.407v3.609h-.875zm6.254 0v-6.984h.89v2.922h2.922v-2.922h.89v6.984h-.89v-3.297h-2.922v3.297h-.89zm8.175.125q-.36 0-.688-.11-.312-.093-.562-.28-.235-.188-.375-.454t-.14-.625q0-.437.202-.75.219-.328.672-.562.453-.25 1.156-.39.719-.157 1.72-.235 0-.266-.079-.5t-.234-.406q-.157-.188-.422-.282-.266-.11-.64-.11-.5 0-.97.204-.468.187-.843.406l-.329-.594q.188-.125.438-.25.266-.14.562-.25t.625-.171q.329-.079.672-.079 1.063 0 1.578.594.516.578.516 1.547v3.172h-.703l-.078-.703h-.031q-.438.344-.97.594-.53.234-1.077.234zm.234-.703q.438 0 .875-.188.438-.203.875-.578v-1.36q-.828.063-1.39.188-.547.11-.891.282-.328.156-.469.375-.14.203-.14.453 0 .218.093.375t.25.265q.157.094.36.141t.437.047zm4.519.578v-5.172h.734l.078.875h.032q.406-.437.875-.719.468-.297 1.078-.297.922 0 1.36.532t.437 1.562v3.219h-.875v-3.094q0-.75-.282-1.094-.28-.359-.921-.359-.235 0-.438.063-.187.046-.375.171-.187.11-.39.297-.204.172-.438.407v3.609h-.875zm8.3.125q-.516 0-.922-.172-.406-.187-.719-.531-.297-.344-.453-.844t-.156-1.156q0-.625.187-1.125.204-.516.532-.86.328-.359.75-.546.422-.203.89-.203t.828.187q.375.172.72.484h.03l-.046-.953v-2h.875v7.594h-.735l-.062-.687h-.032q-.328.328-.765.578-.438.234-.922.234zm.172-.734q.781 0 1.469-.782v-2.578q-.36-.328-.703-.468-.329-.141-.657-.141-.343 0-.64.156-.297.14-.516.406-.219.25-.344.625-.125.36-.125.797 0 .938.39 1.47.407.515 1.126.515zm7.675.734q-.844 0-1.281-.469t-.438-1.39v-5.14h-1.843v-.72h2.718v5.922q0 .578.282.828t.75.25q.453 0 .968-.234l.219.64q-.36.157-.656.235t-.719.078zm5.566 0q-.578 0-1.094-.172-.5-.187-.89-.531-.376-.36-.594-.86-.22-.515-.22-1.156t.22-1.14.578-.844q.375-.36.843-.547.485-.187 1.016-.187.547 0 .984.187.453.172.75.5.297.313.453.766.172.437.172.984 0 .14-.015.281 0 .14-.032.25h-4.078q.079.89.641 1.328t1.375.438q.469 0 .844-.125.375-.14.734-.36l.313.579q-.375.25-.875.437-.5.172-1.125.172zm-.125-4.734q-.328 0-.625.109-.282.094-.516.297t-.406.5q-.156.297-.219.672h3.313q-.063-.797-.47-1.188t-1.077-.39zm4.565 4.609v-5.172h.72l.077 1.219h.032q.406-.625.984-.984.594-.375 1.328-.375.281 0 .531.046t.485.172l-.204.75q-.265-.093-.453-.125-.187-.047-.5-.047-.593 0-1.125.344-.53.328-1.015 1.14v3.032h-.86z" fill="#000"/><path d="M48.918 245.57c0-18.308 14.842-33.15 33.15-33.15h133.07a33.15 33.15 0 0 1 33.15 33.15v132.6c0 18.308-14.842 33.15-33.15 33.15H82.068c-18.308 0-33.15-14.842-33.15-33.15z" fill="#eee" fill-rule="evenodd"/><path d="M48.918 245.57c0-18.308 14.842-33.15 33.15-33.15h133.07a33.15 33.15 0 0 1 33.15 33.15v132.6c0 18.308-14.842 33.15-33.15 33.15H82.068c-18.308 0-33.15-14.842-33.15-33.15z" stroke="#757575" stroke-linecap="butt" stroke-linejoin="round"/><path d="M122.85 245.25h5.39v1.234h-6.89V235.11h1.5v10.141zm8.453 1.234h-1.453v-8.453h1.453v8.453zm-1.562-10.703q0-.343.203-.578.218-.25.64-.25t.641.25q.219.235.219.594 0 .344-.219.578t-.64.235-.641-.235q-.203-.234-.203-.594zm8.789 8.453q0-.578-.438-.906t-1.547-.562q-1.093-.235-1.734-.563t-.953-.781-.313-1.078q0-1.031.875-1.75.89-.719 2.25-.719 1.438 0 2.328.75.907.735.907 1.89h-1.453q0-.593-.516-1.015-.5-.437-1.266-.437-.78 0-1.234.343-.438.344-.438.891 0 .531.407.797.422.266 1.5.516 1.078.234 1.75.578.672.328 1 .797t.328 1.156q0 1.125-.906 1.812t-2.36.688q-1.015 0-1.797-.36t-1.219-1q-.437-.656-.437-1.406h1.437q.047.735.579 1.156.546.422 1.437.422.828 0 1.313-.328.5-.328.5-.89zm5.297-8.25v2.047h1.578v1.11h-1.578v5.25q0 .5.203.765.218.25.718.25.25 0 .688-.093v1.172q-.563.156-1.11.156-.968 0-1.468-.578-.485-.594-.485-1.672v-5.25h-1.53v-1.11h1.53v-2.047h1.453zm6.773 10.656q-1.719 0-2.797-1.124-1.078-1.141-1.078-3.032v-.265q0-1.25.469-2.235.484-1 1.344-1.547.875-.562 1.875-.562 1.656 0 2.562 1.094.922 1.078.922 3.093v.61h-5.734q.03 1.25.734 2.015t1.781.766q.766 0 1.297-.312t.922-.829l.89.688q-1.062 1.64-3.187 1.64zm-.188-7.578q-.875 0-1.468.641-.594.625-.735 1.781h4.235v-.11q-.063-1.109-.594-1.702-.531-.61-1.438-.61zm6.524-1.03.047 1.062q.969-1.22 2.531-1.22 2.672 0 2.703 3.017v5.593h-1.453v-5.594q0-.921-.422-1.359-.406-.437-1.266-.437-.703 0-1.234.375t-.828.984v6.031h-1.453v-8.453h1.375zm10.969 8.609q-1.719 0-2.797-1.125-1.078-1.141-1.078-3.032v-.265q0-1.25.469-2.235.484-1 1.343-1.547.875-.562 1.875-.562 1.657 0 2.563 1.094.922 1.078.922 3.094v.609h-5.735q.032 1.25.735 2.016t1.781.765q.766 0 1.297-.312t.922-.828l.89.687q-1.062 1.64-3.187 1.64zm-.188-7.579q-.875 0-1.468.641-.594.625-.735 1.781h4.235v-.11q-.063-1.108-.594-1.702-.531-.61-1.438-.61zm9.243.266q-.329-.062-.72-.062-1.421 0-1.921 1.218v6h-1.453v-8.453h1.406l.031.97q.703-1.126 2.016-1.126.422 0 .64.11v1.343z" fill="#000"/><path d="M55.55 275.86c0-12.82 18.705-23.213 41.78-23.213s41.78 10.393 41.78 23.213-18.705 23.213-41.78 23.213c-23.074 0-41.78-10.393-41.78-23.213z" fill="#fff2cc" fill-rule="evenodd"/><path d="M55.55 275.86c0-12.82 18.705-23.213 41.78-23.213s41.78 10.393 41.78 23.213-18.705 23.213-41.78 23.213c-23.074 0-41.78-10.393-41.78-23.213z" stroke="#757575" stroke-linecap="butt" stroke-linejoin="round"/><path d="m77.866 263.61 1.063-.094q.078.656.359 1.063t.86.672q.593.25 1.327.25.641 0 1.141-.188.5-.203.734-.531.25-.344.25-.734 0-.407-.234-.704-.234-.312-.766-.515-.359-.14-1.547-.422-1.171-.281-1.64-.531-.625-.328-.922-.797-.297-.485-.297-1.078 0-.641.36-1.203.374-.579 1.078-.86.718-.297 1.578-.297.953 0 1.687.313.735.297 1.125.906.39.594.422 1.344l-1.094.078q-.094-.813-.61-1.219-.5-.422-1.484-.422-1.03 0-1.5.375t-.468.907q0 .468.328.765t1.703.61q1.39.312 1.906.546.75.36 1.11.891.359.516.359 1.219 0 .687-.39 1.297-.391.593-1.126.937-.734.328-1.656.328-1.172 0-1.969-.328-.781-.344-1.234-1.031-.438-.687-.453-1.547zm7.863-.344q0-1.734.953-2.562.797-.688 1.954-.688 1.28 0 2.093.844.828.828.828 2.313 0 1.203-.359 1.89t-1.062 1.078q-.688.375-1.5.375-1.297 0-2.11-.828-.797-.844-.797-2.422zm1.078 0q0 1.188.516 1.781.531.594 1.313.594.796 0 1.312-.594t.516-1.812q0-1.156-.532-1.75-.515-.594-1.297-.594t-1.312.594q-.516.578-.516 1.781zm10.05.828 1.03.141q-.171 1.062-.874 1.672t-1.72.61q-1.28 0-2.062-.829-.765-.844-.765-2.406 0-1 .328-1.75.344-.766 1.015-1.14.688-.376 1.5-.376 1 0 1.641.516.656.5.844 1.453l-1.031.156q-.141-.625-.516-.937-.375-.328-.906-.328-.797 0-1.297.578-.5.562-.5 1.797 0 1.265.484 1.828t1.25.562q.625 0 1.031-.375.422-.375.547-1.172zm1.937 2.282v-8.594h1.062v4.906l2.485-2.531h1.375l-2.39 2.297 2.624 3.922h-1.297l-2.062-3.188-.735.719v2.469h-1.062zm10.25-2 1.094.125q-.25.953-.953 1.484t-1.782.531q-1.359 0-2.172-.844-.796-.843-.796-2.359 0-1.562.812-2.422.813-.875 2.094-.875 1.25 0 2.031.844.797.844.797 2.39v.282h-4.64q.062 1.031.578 1.578.515.531 1.296.531.579 0 .985-.297.422-.312.656-.969zm-3.453-1.704h3.469q-.063-.796-.391-1.187-.516-.61-1.313-.61-.734 0-1.234.485-.484.484-.531 1.312zm8.174 2.766.156.922q-.453.094-.797.094-.578 0-.89-.172-.313-.188-.454-.485-.125-.296-.125-1.25v-3.578h-.765v-.812h.765v-1.547l1.047-.625v2.172h1.063v.812h-1.063v3.64q0 .454.047.58.063.124.188.202t.359.078q.187 0 .469-.03zm1.318-4.078v-1.203h1.203v1.203h-1.203zm0 5.016v-1.204h1.203v1.204h-1.203zM87.247 280.38v-8.594h3.25q.844 0 1.297.078.64.11 1.062.407.438.296.688.828.266.53.266 1.172 0 1.093-.704 1.859-.687.75-2.515.75h-2.203v3.5h-1.14zm1.14-4.5h2.22q1.109 0 1.562-.406.469-.422.469-1.172 0-.531-.282-.906-.265-.391-.703-.516-.297-.078-1.062-.078h-2.203v3.078zm6.348 1.39q0-1.734.953-2.562.797-.687 1.954-.687 1.28 0 2.093.843.828.828.828 2.313 0 1.203-.359 1.89t-1.062 1.079q-.688.375-1.5.375-1.297 0-2.11-.829-.797-.843-.797-2.421zm1.078 0q0 1.188.516 1.782.531.594 1.313.594.796 0 1.312-.594t.516-1.813q0-1.156-.532-1.75-.515-.593-1.297-.593t-1.312.593q-.516.578-.516 1.782zm5.971 3.11v-6.219h.953v.938q.36-.657.656-.86.313-.218.688-.218.531 0 1.078.328l-.36.984q-.39-.234-.765-.234-.36 0-.64.218-.266.204-.376.579-.187.562-.187 1.218v3.266h-1.047zm6.309-.938.156.922q-.453.094-.797.094-.578 0-.89-.172-.313-.187-.454-.484-.125-.297-.125-1.25v-3.578h-.765v-.813h.765v-1.547l1.047-.625v2.172h1.063v.813h-1.063v3.64q0 .453.047.578.063.125.188.204t.359.078q.187 0 .469-.032zM91.194 294.38v-2.063h-3.719v-.968l3.922-5.563h.86v5.563h1.156v.969h-1.157v2.062h-1.062zm0-3.031v-3.86l-2.688 3.86h2.688zm6.674 3.031v-2.063h-3.719v-.968l3.922-5.563h.86v5.563h1.155v.969H98.93v2.062h-1.062zm0-3.031v-3.86l-2.688 3.86h2.688zm3.299.765 1.062-.14q.172.89.61 1.297.437.39 1.062.39.75 0 1.266-.515t.515-1.282q0-.718-.484-1.187-.469-.484-1.203-.484-.297 0-.75.125l.125-.938q.11.016.172.016.671 0 1.203-.344.547-.36.547-1.094 0-.578-.391-.953-.39-.39-1.016-.39-.609 0-1.03.39-.407.39-.516 1.156l-1.063-.187q.188-1.047.875-1.625.688-.594 1.703-.594.703 0 1.297.313.594.296.906.812t.313 1.11q0 .546-.297 1.015-.297.453-.875.719.75.172 1.172.734.422.547.422 1.39 0 1.126-.828 1.907-.813.781-2.063.781-1.125 0-1.875-.672-.75-.687-.86-1.75z" fill="#000"/><path d="M151.14 249.22h85.761v48.633H151.14z" fill="#c9daf8" fill-rule="evenodd"/><path d="M151.14 249.22h85.761v48.633H151.14z" stroke="#757575" stroke-linecap="butt" stroke-linejoin="round"/><path d="M146.17 257.95h85.76v48.633h-85.76z" fill="#c9daf8" fill-rule="evenodd"/><path d="M146.17 257.95h85.76v48.633h-85.76z" stroke="#757575" stroke-linecap="butt" stroke-linejoin="round"/><path d="M166.31 271.07v-9.547h1.266v8.422h4.703v1.125h-5.97zm7.334-8.188v-1.359h1.172v1.36h-1.172zm0 8.188v-6.906h1.172v6.906h-1.172zm2.477-2.063 1.156-.187q.11.703.547 1.078.453.36 1.25.36.813 0 1.203-.329t.39-.765q0-.39-.358-.625-.235-.157-1.188-.39-1.297-.329-1.797-.563-.484-.25-.75-.657-.25-.422-.25-.937 0-.453.203-.844.219-.406.578-.672.282-.187.75-.328t1.016-.14q.812 0 1.422.234t.906.64q.297.391.406 1.063l-1.14.156q-.078-.531-.453-.828-.375-.312-1.063-.312-.812 0-1.156.265t-.344.625q0 .235.14.422.157.188.454.313.172.062 1.031.297 1.25.328 1.735.546.5.204.78.61t.282 1-.344 1.11-1 .796q-.64.281-1.453.281-1.344 0-2.047-.562t-.906-1.656zm9.695 1.016.172 1.031q-.5.11-.89.11-.641 0-1-.203-.344-.204-.485-.532t-.14-1.39v-3.97h-.86v-.905h.86v-1.72l1.172-.702v2.422h1.171v.906h-1.171v4.047q0 .5.046.64.063.141.204.235.14.078.406.078.203 0 .515-.047zm5.875-1.172 1.203.14q-.28 1.063-1.062 1.657-.766.578-1.969.578-1.515 0-2.406-.937t-.89-2.61q0-1.75.89-2.703.906-.969 2.344-.969 1.39 0 2.265.938t.875 2.656v.313h-5.156q.063 1.14.64 1.75.579.593 1.438.593.656 0 1.11-.328.453-.344.718-1.078zm-3.844-1.906h3.86q-.078-.86-.438-1.297-.562-.687-1.453-.687-.812 0-1.36.546-.546.532-.608 1.438zm6.522 4.125v-6.906h1.063v.984q.75-1.14 2.187-1.14.625 0 1.157.218t.78.594q.266.36.376.86.062.328.062 1.14v4.25h-1.172v-4.203q0-.719-.14-1.063-.14-.359-.485-.562-.343-.219-.812-.219-.75 0-1.297.469t-.547 1.797v3.781h-1.172zm12.147-2.219 1.203.14q-.28 1.063-1.062 1.657-.766.578-1.969.578-1.515 0-2.406-.937t-.89-2.61q0-1.75.89-2.703.906-.969 2.344-.969 1.39 0 2.265.938t.875 2.656v.313h-5.156q.063 1.14.64 1.75.579.593 1.438.593.657 0 1.11-.328.453-.344.718-1.078zm-3.843-1.906h3.859q-.078-.86-.438-1.297-.562-.687-1.453-.687-.812 0-1.359.546-.547.532-.61 1.438zm6.506 4.125v-6.906h1.062v1.047q.407-.735.735-.97.343-.233.765-.233.594 0 1.203.375l-.406 1.078q-.437-.25-.86-.25-.39 0-.702.234-.297.234-.422.64-.203.626-.203 1.36v3.625h-1.172zM177.61 287.07v-6h-1.031v-.906h1.031v-.735q0-.703.125-1.047.172-.453.594-.734t1.203-.281q.484 0 1.094.11l-.188 1.03q-.36-.062-.687-.062-.532 0-.75.234-.22.22-.22.844v.64h1.345v.907h-1.344v6h-1.172zm3.437-8.188v-1.359h1.172v1.36h-1.172zm0 8.188v-6.906h1.172v6.906h-1.172zm2.93 0v-9.547h1.172v9.547h-1.172zm5.54-1.047.171 1.031q-.5.11-.89.11-.641 0-1-.203-.344-.204-.485-.532t-.14-1.39v-3.97h-.86v-.905h.86v-1.72l1.172-.702v2.422h1.171v.906h-1.171v4.047q0 .5.046.64.063.141.204.235.14.078.406.078.203 0 .515-.047zm5.874-1.172 1.203.14q-.28 1.063-1.062 1.657-.766.578-1.969.578-1.515 0-2.406-.937t-.89-2.61q0-1.75.89-2.703.906-.969 2.344-.969 1.39 0 2.265.938t.875 2.656v.313h-5.156q.063 1.14.64 1.75.579.593 1.438.593.656 0 1.11-.328.453-.344.718-1.078zm-3.843-1.906h3.859q-.078-.86-.438-1.297-.562-.687-1.453-.687-.812 0-1.36.546-.546.532-.608 1.438zm6.506 4.125v-6.906h1.062v1.047q.406-.735.735-.97.343-.233.765-.233.594 0 1.203.375l-.406 1.078q-.437-.25-.86-.25-.39 0-.702.234-.297.234-.422.64-.203.626-.203 1.36v3.625h-1.172zM170.21 303.07v-6h-1.031v-.906h1.031v-.735q0-.703.125-1.047.172-.453.594-.734t1.203-.281q.484 0 1.094.11l-.188 1.03q-.36-.062-.687-.062-.532 0-.75.234-.22.22-.22.844v.64h1.345v.907h-1.344v6h-1.172zm7.937-.86q-.656.563-1.265.798-.594.218-1.281.218-1.141 0-1.75-.547-.61-.562-.61-1.437 0-.5.219-.922.234-.422.61-.672t.843-.39q.344-.079 1.047-.172 1.422-.172 2.094-.407v-.297q0-.718-.328-1.015-.453-.39-1.344-.39-.813 0-1.219.296-.39.281-.578 1.016l-1.14-.157q.156-.734.515-1.187t1.031-.688q.672-.25 1.563-.25t1.437.204q.563.203.813.53.265.313.375.798.047.297.047 1.078v1.562q0 1.625.078 2.063t.297.828h-1.22q-.187-.36-.234-.86zm-.093-2.609q-.641.266-1.922.438-.719.11-1.016.25-.297.125-.469.375-.156.25-.156.547 0 .468.344.78.36.313 1.047.313.672 0 1.203-.297t.781-.812q.188-.39.188-1.172v-.422zm7.506.938 1.156.156q-.187 1.187-.969 1.86t-1.922.671q-1.406 0-2.28-.922-.86-.937-.86-2.656 0-1.125.375-1.969t1.125-1.25q.765-.422 1.656-.422 1.125 0 1.844.579.719.562.922 1.609l-1.14.172q-.173-.703-.595-1.047-.406-.36-.984-.36-.89 0-1.453.641-.547.64-.547 2 0 1.406.531 2.031.547.625 1.406.625.688 0 1.141-.421.469-.422.594-1.297zm4.71 1.484.173 1.031q-.5.11-.891.11-.64 0-1-.203-.344-.204-.484-.532t-.141-1.39v-3.97h-.86v-.905h.86v-1.72l1.172-.702v2.422h1.172v.906h-1.172v4.047q0 .5.047.64.062.141.203.235.14.078.406.078.203 0 .516-.047zm.704-2.406q0-1.922 1.078-2.844.89-.766 2.172-.766 1.422 0 2.328.938.906.922.906 2.578 0 1.328-.406 2.094-.39.766-1.156 1.187t-1.672.422q-1.453 0-2.36-.922-.89-.937-.89-2.687zm1.203 0q0 1.328.578 1.984.594.657 1.469.657t1.453-.657q.578-.672.578-2.03 0-1.282-.594-1.938-.578-.657-1.437-.657-.875 0-1.47.657-.577.656-.577 1.984zm6.631 3.453v-6.906h1.063v1.047q.406-.735.734-.969.344-.234.766-.234.593 0 1.203.375l-.407 1.078q-.437-.25-.859-.25-.39 0-.703.234-.297.234-.422.64-.203.626-.203 1.36v3.625h-1.172zm4.407 2.656-.125-1.094q.375.11.656.11.391 0 .625-.14.235-.126.391-.36.11-.172.36-.875.03-.094.109-.281l-2.625-6.922h1.265l1.438 4q.281.765.5 1.593.203-.796.469-1.578l1.484-4.015h1.172l-2.625 7.015q-.422 1.141-.656 1.578-.313.579-.72.844-.405.281-.968.281-.328 0-.75-.156z" fill="#000"/><path d="M74.832 314.6h154.91v86.127H74.832z" fill="#c9daf8" fill-rule="evenodd"/><path d="M74.832 314.6h154.91v86.127H74.832z" stroke="#757575" stroke-linecap="butt" stroke-linejoin="round"/><path d="M71.29 320.68H226.2v86.127H71.29z" fill="#c9daf8" fill-rule="evenodd"/><path d="M71.29 320.68H226.2v86.127H71.29z" stroke="#757575" stroke-linecap="butt" stroke-linejoin="round"/><path d="M86.137 342.48v-9.547h6.438v1.125h-5.172v2.969h4.468v1.125h-4.468v4.328h-1.266zm7.938-8.188v-1.359h1.172v1.36h-1.172zm0 8.188v-6.906h1.172v6.906h-1.172zm2.93 0v-9.547h1.172v9.547h-1.172zm5.54-1.047.171 1.031q-.5.11-.89.11-.641 0-1-.203-.344-.204-.485-.532t-.14-1.39v-3.97h-.86v-.905h.86v-1.72l1.171-.702v2.422h1.172v.906h-1.172v4.047q0 .5.047.64.063.141.203.235.141.078.407.078.203 0 .515-.047zm5.874-1.172 1.203.14q-.281 1.063-1.062 1.657-.766.578-1.97.578-1.515 0-2.405-.937t-.89-2.61q0-1.75.89-2.703.906-.969 2.343-.969 1.391 0 2.266.938t.875 2.656v.313h-5.156q.062 1.14.64 1.75.579.593 1.438.593.656 0 1.11-.328.453-.344.718-1.078zm-3.844-1.906h3.86q-.078-.86-.438-1.297-.562-.687-1.453-.687-.812 0-1.36.546-.546.532-.609 1.438zm6.506 4.125v-6.906h1.063v1.047q.406-.735.734-.969.344-.234.766-.234.594 0 1.203.375l-.406 1.078q-.438-.25-.86-.25-.39 0-.703.234-.297.234-.422.64-.203.626-.203 1.36v3.625h-1.172zm12.673-2.531 1.157.156q-.188 1.188-.97 1.86t-1.921.671q-1.406 0-2.281-.922-.86-.937-.86-2.656 0-1.125.375-1.969t1.125-1.25q.766-.421 1.657-.421 1.125 0 1.843.578.72.562.922 1.61l-1.14.171q-.172-.703-.594-1.047-.406-.36-.984-.36-.891 0-1.453.641-.547.64-.547 2 0 1.407.53 2.032.548.625 1.407.625.688 0 1.14-.422.47-.422.594-1.297zm2.149 2.531v-9.547h1.172v3.422q.828-.938 2.078-.938.766 0 1.328.297t.812.844q.25.531.25 1.547v4.375h-1.171v-4.375q0-.89-.391-1.281-.375-.406-1.078-.406-.516 0-.984.28-.454.266-.657.735-.187.453-.187 1.266v3.781h-1.172zm11.928-.86q-.656.563-1.266.798-.593.218-1.28.218-1.142 0-1.75-.547-.61-.562-.61-1.437 0-.5.218-.922.235-.422.61-.672t.844-.39q.343-.079 1.046-.172 1.422-.172 2.094-.407v-.297q0-.718-.328-1.015-.453-.39-1.344-.39-.812 0-1.218.296-.391.281-.579 1.016l-1.14-.157q.156-.734.515-1.187t1.032-.688q.672-.25 1.562-.25t1.438.204q.562.203.812.53.266.313.375.798.047.297.047 1.078v1.562q0 1.625.078 2.063t.297.828h-1.219q-.187-.36-.234-.86zm-.094-2.609q-.64.266-1.922.438-.719.11-1.015.25-.297.125-.47.375-.155.25-.155.547 0 .468.343.78.36.313 1.047.313.672 0 1.203-.297t.782-.812q.187-.39.187-1.172v-.422zm3.006-4.719v-1.359h1.172v1.36h-1.172zm0 8.188v-6.906h1.172v6.906h-1.172zm2.946 0v-6.906h1.062v.984q.75-1.14 2.188-1.14.625 0 1.156.218t.781.594q.266.36.375.86.063.328.063 1.14v4.25h-1.172v-4.203q0-.719-.14-1.063-.141-.359-.485-.562-.344-.219-.813-.219-.75 0-1.296.469t-.547 1.797v3.781h-1.172zm11.115 0v-6.906h1.047v.968q.328-.515.86-.812.546-.313 1.234-.313.78 0 1.265.313t.688.89q.828-1.203 2.14-1.203 1.031 0 1.578.579.563.562.563 1.734v4.75h-1.172v-4.36q0-.703-.125-1-.11-.312-.406-.5t-.703-.187q-.72 0-1.204.484t-.484 1.547v4.016h-1.172v-4.484q0-.782-.297-1.172-.28-.39-.922-.39-.5 0-.921.265-.422.25-.61.75t-.187 1.453v3.578h-1.172zm15.618-.86q-.656.563-1.266.797-.594.22-1.281.22-1.14 0-1.75-.548-.61-.562-.61-1.437 0-.5.22-.922.234-.422.609-.672t.844-.39q.343-.079 1.046-.172 1.422-.172 2.094-.407v-.297q0-.718-.328-1.015-.453-.39-1.344-.39-.812 0-1.218.296-.391.281-.579 1.016l-1.14-.157q.156-.734.515-1.187t1.032-.688q.672-.25 1.562-.25t1.438.204q.562.203.812.53.266.313.375.798.047.297.047 1.078v1.562q0 1.625.078 2.063t.297.828h-1.219q-.187-.36-.234-.86zm-.094-2.609q-.64.266-1.922.438-.719.109-1.015.25-.297.125-.47.375-.155.25-.155.547 0 .468.343.78.36.313 1.047.313.672 0 1.203-.297t.782-.812q.187-.39.187-1.172v-.422zm5.553 2.422.172 1.031q-.5.11-.89.11-.641 0-1-.203-.344-.204-.485-.532t-.14-1.39v-3.97h-.86v-.905h.86v-1.72l1.171-.702v2.422h1.172v.906h-1.172v4.047q0 .5.047.64.063.141.203.235.141.078.407.078.203 0 .515-.047zm5.656-1.484 1.157.156q-.188 1.187-.97 1.86t-1.921.671q-1.406 0-2.281-.922-.86-.937-.86-2.656 0-1.125.375-1.969t1.125-1.25q.766-.422 1.656-.422 1.125 0 1.844.579.719.562.922 1.609l-1.14.172q-.172-.703-.594-1.047-.406-.36-.985-.36-.89 0-1.453.641-.547.64-.547 2 0 1.406.532 2.031.547.625 1.406.625.687 0 1.14-.422.47-.421.594-1.296zm2.149 2.53v-9.546h1.172v3.422q.828-.938 2.078-.938.765 0 1.328.297t.812.844q.25.531.25 1.547v4.375h-1.172v-4.375q0-.89-.39-1.281-.375-.407-1.078-.407-.516 0-.985.282-.453.265-.656.734-.187.453-.187 1.266v3.78h-1.172zm13.678-1.046.172 1.031q-.5.11-.891.11-.64 0-1-.204-.344-.203-.484-.53t-.141-1.391v-3.97h-.86v-.905h.86v-1.72l1.172-.702v2.421h1.172v.907h-1.172v4.047q0 .5.047.64.062.14.203.235.14.078.406.078.203 0 .516-.047zm1.125 1.047v-6.906h1.062v1.047q.406-.735.734-.97.344-.234.766-.234.594 0 1.203.375l-.406 1.079q-.438-.25-.86-.25-.39 0-.703.234-.296.234-.421.64-.204.626-.204 1.36v3.625h-1.171zm4.47-8.188v-1.36h1.171v1.36h-1.172zm0 8.188v-6.906h1.171v6.906h-1.172zm7.679-2.219 1.203.14q-.281 1.063-1.062 1.657-.766.578-1.97.578-1.515 0-2.405-.938t-.891-2.609q0-1.75.89-2.703.907-.969 2.344-.969 1.391 0 2.266.938t.875 2.656v.312h-5.156q.062 1.141.64 1.75.579.594 1.438.594.656 0 1.11-.328.452-.344.718-1.078zm-3.844-1.906h3.86q-.079-.86-.438-1.297-.562-.688-1.453-.688-.812 0-1.36.547-.546.532-.609 1.438z" fill="#000"/><path d="M145.73 353.75c0-4.644 4.35-8.41 9.716-8.41 5.367 0 9.717 3.766 9.717 8.41s-4.35 8.41-9.717 8.41c-5.366 0-9.716-3.766-9.716-8.41z" fill="#fff2cc" fill-rule="evenodd"/><path d="M145.73 353.75c0-4.644 4.35-8.41 9.716-8.41 5.367 0 9.717 3.766 9.717 8.41s-4.35 8.41-9.717 8.41c-5.366 0-9.716-3.766-9.716-8.41z" stroke="#757575" stroke-linecap="butt" stroke-linejoin="round"/><path d="M126.28 373.75c0-4.644 4.35-8.41 9.716-8.41 5.367 0 9.717 3.766 9.717 8.41s-4.35 8.41-9.716 8.41c-5.367 0-9.717-3.766-9.717-8.41z" fill="#fff2cc" fill-rule="evenodd"/><path d="M126.28 373.75c0-4.644 4.35-8.41 9.716-8.41 5.367 0 9.717 3.766 9.717 8.41s-4.35 8.41-9.716 8.41c-5.367 0-9.717-3.766-9.717-8.41z" stroke="#757575" stroke-linecap="butt" stroke-linejoin="round"/><path d="M160.09 376.07c0-4.644 4.35-8.41 9.716-8.41 5.367 0 9.717 3.765 9.717 8.41 0 4.644-4.35 8.41-9.716 8.41-5.367 0-9.717-3.766-9.717-8.41z" fill="#fff2cc" fill-rule="evenodd"/><path d="M160.09 376.07c0-4.644 4.35-8.41 9.716-8.41 5.367 0 9.717 3.765 9.717 8.41 0 4.644-4.35 8.41-9.716 8.41-5.367 0-9.717-3.766-9.717-8.41z" stroke="#757575" stroke-linecap="butt" stroke-linejoin="round"/><path d="M140.64 398.39c0-4.644 4.35-8.41 9.716-8.41 5.367 0 9.717 3.765 9.717 8.41 0 4.644-4.35 8.41-9.717 8.41-5.366 0-9.716-3.766-9.716-8.41z" fill="#fff2cc" fill-rule="evenodd"/><path d="M140.64 398.39c0-4.644 4.35-8.41 9.716-8.41 5.367 0 9.717 3.765 9.717 8.41 0 4.644-4.35 8.41-9.717 8.41-5.366 0-9.716-3.766-9.716-8.41z" stroke="#757575" stroke-linecap="butt" stroke-linejoin="round"/><path d="m162.31 359.69 7.496 7.968" fill="none"/><path d="m162.31 359.69 7.496 7.968" stroke="#757575" stroke-linecap="butt" stroke-linejoin="round"/><path d="m148.57 359.69-5.7 8.126" fill="none"/><path d="m148.57 359.69-5.7 8.126" stroke="#757575" stroke-linecap="butt" stroke-linejoin="round"/><path d="m162.94 382.01-5.7 10.425" fill="none"/><path d="m162.94 382.01-5.7 10.425" stroke="#757575" stroke-linecap="butt" stroke-linejoin="round"/><path d="M312.38 160.26c0-26.261 21.289-47.55 47.55-47.55h190.19a47.552 47.552 0 0 1 47.55 47.55v235.29c0 26.261-21.289 47.55-47.55 47.55H359.93c-26.261 0-47.55-21.289-47.55-47.55z" fill="#fff2cc" fill-rule="evenodd"/><path d="M312.38 160.26c0-26.261 21.289-47.55 47.55-47.55h190.19a47.552 47.552 0 0 1 47.55 47.55v235.29c0 26.261-21.289 47.55-47.55 47.55H359.93c-26.261 0-47.55-21.289-47.55-47.55z" stroke="#757575" stroke-linecap="butt" stroke-linejoin="round"/><path d="m401.05 150.99-3.031-11.453h1.547l1.75 7.5q.281 1.188.484 2.344.438-1.828.516-2.11l2.172-7.734h1.828l1.64 5.797q.625 2.156.89 4.047.22-1.078.579-2.485l1.797-7.359h1.516l-3.141 11.453h-1.453l-2.422-8.734q-.297-1.094-.36-1.344-.171.797-.328 1.344l-2.437 8.734h-1.547zm12.109-4.156q0-2.297 1.281-3.406 1.078-.922 2.61-.922 1.718 0 2.796 1.125 1.094 1.11 1.094 3.094 0 1.593-.484 2.515t-1.406 1.438q-.907.5-2 .5-1.735 0-2.813-1.11-1.078-1.125-1.078-3.234zm1.453 0q0 1.594.688 2.39.703.797 1.75.797t1.734-.797q.703-.796.703-2.437 0-1.531-.703-2.328-.688-.797-1.734-.797t-1.75.797q-.688.781-.688 2.375zm7.961 4.156v-8.297h1.266v1.25q.484-.875.89-1.156t.906-.281q.704 0 1.438.453l-.484 1.297q-.516-.297-1.032-.297-.453 0-.828.281-.36.266-.515.766-.235.75-.235 1.64v4.344h-1.406zm5.344 0v-11.453h1.406v6.531l3.328-3.375h1.828l-3.172 3.078 3.485 5.22h-1.735l-2.734-4.25-1 .952v3.297h-1.406zm13.672-2.672 1.453.172q-.344 1.281-1.281 1.984-.922.704-2.36.704-1.828 0-2.89-1.125t-1.063-3.141q0-2.094 1.078-3.25t2.797-1.156q1.656 0 2.703 1.14 1.063 1.125 1.063 3.172v.375H436.9q.078 1.375.766 2.11.703.718 1.734.718.782 0 1.328-.406t.86-1.297zm-4.61-2.281h4.625q-.093-1.047-.53-1.563-.673-.812-1.735-.812-.969 0-1.64.656-.657.64-.72 1.719zm7.82 4.953v-8.297h1.266v1.25q.485-.875.89-1.156t.907-.281q.703 0 1.438.453l-.485 1.297q-.515-.297-1.03-.297-.454 0-.829.281-.36.266-.516.766-.234.75-.234 1.64v4.344H444.8zm12.853-1.266.203 1.25q-.594.125-1.063.125-.765 0-1.187-.234-.422-.25-.594-.64-.172-.407-.172-1.672v-4.766h-1.031v-1.094h1.031v-2.062l1.406-.844v2.906h1.407v1.094h-1.407v4.844q0 .609.063.78.078.173.25.282.172.094.484.094.235 0 .61-.063zm1.382 1.266v-11.453h1.407v4.11q.984-1.141 2.484-1.141.922 0 1.594.36.687.359.969 1 .297.64.297 1.859v5.265h-1.407v-5.265q0-1.047-.453-1.532t-1.297-.484q-.625 0-1.172.328t-.78.89q-.235.548-.235 1.516v4.547h-1.406zm8.883 0v-8.297h1.266v1.25q.484-.875.89-1.156t.907-.281q.703 0 1.437.453l-.484 1.297q-.516-.297-1.031-.297-.453 0-.828.281-.36.266-.516.766-.234.75-.234 1.64v4.344h-1.407zm11.016-2.672 1.453.172q-.343 1.281-1.28 1.984-.923.704-2.36.704-1.828 0-2.89-1.125t-1.063-3.141q0-2.094 1.078-3.25t2.797-1.156q1.656 0 2.703 1.14 1.062 1.125 1.062 3.172v.375h-6.187q.078 1.375.765 2.11.704.718 1.735.718.781 0 1.328-.406t.86-1.297zm-4.61-2.281h4.626q-.094-1.047-.531-1.563-.672-.812-1.735-.812-.969 0-1.64.656-.657.64-.72 1.719zm13.243 3.922q-.781.672-1.5.953-.719.266-1.547.266-1.375 0-2.11-.672t-.734-1.703q0-.61.281-1.11.282-.515.72-.812.452-.313 1.015-.47.422-.108 1.25-.202 1.703-.203 2.515-.485v-.375q0-.859-.39-1.203-.547-.484-1.61-.484-.984 0-1.468.36-.47.343-.688 1.218l-1.375-.187q.188-.875.61-1.422.437-.547 1.25-.828.812-.297 1.874-.297t1.72.25q.671.25.984.625t.437.953q.078.36.078 1.297v1.875q0 1.969.078 2.484.094.516.36 1h-1.469q-.219-.437-.281-1.031zm-.11-3.14q-.765.312-2.296.53-.875.125-1.235.282t-.562.468q-.188.297-.188.657 0 .562.422.937.438.375 1.25.375t1.438-.344q.64-.359.937-.984.234-.469.234-1.406v-.516zm8.977 4.171v-1.047q-.781 1.235-2.312 1.235-1 0-1.828-.547t-1.297-1.531q-.454-.985-.454-2.25 0-1.25.407-2.25.422-1.016 1.25-1.547.828-.547 1.86-.547.75 0 1.327.312.594.313.953.828v-4.109h1.407v11.453h-1.313zm-4.437-4.14q0 1.593.671 2.39.672.781 1.579.781.921 0 1.562-.75.656-.765.656-2.312 0-1.703-.656-2.5t-1.625-.797q-.937 0-1.562.766t-.625 2.421zm17.312 4.14H507.9v-8.969q-.515.485-1.343.97-.813.483-1.47.733v-1.359q1.173-.562 2.048-1.344.89-.797 1.265-1.531h.907v11.5z" fill="#000"/><path d="M322.01 206.56c0-24.449 19.82-44.269 44.269-44.269h177.07a44.269 44.269 0 0 1 44.269 44.269V388.7c0 24.449-19.82 44.269-44.269 44.269h-177.07c-24.449 0-44.269-19.82-44.269-44.269z" fill="#ead1dc" fill-rule="evenodd"/><path d="M322.01 206.56c0-24.449 19.82-44.269 44.269-44.269h177.07a44.269 44.269 0 0 1 44.269 44.269V388.7c0 24.449-19.82 44.269-44.269 44.269h-177.07c-24.449 0-44.269-19.82-44.269-44.269z" stroke="#757575" stroke-linecap="butt" stroke-linejoin="round"/><path d="M347.71 194.63q-.64 0-1.203-.234-.547-.25-.969-.72-.406-.468-.64-1.14t-.235-1.53q0-.845.235-1.517t.656-1.14.984-.719q.578-.25 1.266-.25.625 0 1.11.266.484.25.796.593l-.5.563q-.281-.281-.625-.453-.344-.188-.781-.188-.5 0-.922.203-.406.188-.703.563-.281.36-.438.89-.156.516-.156 1.173t.156 1.187.438.906q.297.36.703.563.422.203.922.203.484 0 .86-.203t.718-.563l.5.532q-.422.484-.953.75-.516.265-1.219.265zm5.862 0q-.515 0-.984-.172-.453-.187-.812-.531-.344-.344-.563-.844-.203-.515-.203-1.156 0-.656.203-1.156.219-.5.563-.844.359-.36.812-.547.469-.187.984-.187.5 0 .97.187t.812.547q.36.344.562.844t.203 1.156q0 .64-.203 1.156-.203.5-.562.844-.344.344-.813.531-.469.172-.969.172zm0-.719q.36 0 .657-.14.312-.157.531-.407.219-.265.328-.625.125-.359.125-.812t-.125-.813q-.11-.375-.328-.64t-.531-.406q-.297-.141-.656-.141-.375 0-.688.14-.297.141-.516.407t-.343.64q-.11.36-.11.813t.11.812q.125.36.343.625.22.25.516.407.313.14.688.14zm4.176.594v-5.172h.734l.078.875h.031q.407-.437.875-.719.47-.297 1.078-.297.922 0 1.36.532t.437 1.562v3.219h-.875v-3.094q0-.75-.28-1.094-.282-.359-.923-.359-.234 0-.437.063-.188.046-.375.171-.188.11-.39.297-.204.172-.438.407v3.609h-.875zm6.393 0v-5.172h.735l.078.875h.031q.406-.437.875-.719.469-.297 1.078-.297.922 0 1.36.532t.437 1.562v3.219h-.875v-3.094q0-.75-.281-1.094-.281-.359-.922-.359-.234 0-.437.063-.188.046-.375.171-.188.11-.391.297-.203.172-.438.407v3.609h-.875zm8.925.125q-.578 0-1.093-.172-.5-.187-.89-.531-.376-.36-.595-.86-.218-.515-.218-1.156t.218-1.14.578-.844q.375-.36.844-.547.485-.187 1.016-.187.547 0 .984.187.453.172.75.5.297.313.453.766.172.437.172.984 0 .14-.015.281 0 .14-.032.25h-4.078q.078.89.64 1.328t1.376.438q.469 0 .844-.125.375-.14.734-.36l.312.579q-.375.25-.875.437-.5.172-1.125.172zm-.125-4.734q-.328 0-.625.109-.28.094-.515.297t-.406.5q-.157.297-.22.672h3.313q-.062-.797-.468-1.188t-1.078-.39zm6.691 4.734q-.61 0-1.125-.172-.515-.187-.906-.531-.375-.344-.594-.844-.203-.515-.203-1.156 0-.656.219-1.156.234-.5.625-.844.39-.36.922-.547t1.11-.187q.64 0 1.109.234.468.219.78.531l-.437.563q-.312-.282-.672-.438-.343-.156-.75-.156-.437 0-.812.14t-.64.407q-.25.265-.407.64-.14.36-.14.813t.14.812.39.625q.266.25.626.407.375.14.828.14.484 0 .875-.187.406-.188.718-.469l.407.563q-.438.39-.969.609-.516.203-1.094.203zm6.91 0q-.563 0-.953-.156t-.625-.438-.344-.672q-.094-.39-.094-.875v-2.453h-1.453v-.656l1.5-.047.11-1.672h.718v1.672h2.547v.703h-2.547v2.47q0 .343.063.608.078.266.218.454.157.171.407.265.25.078.625.078t.671-.062.579-.172l.187.64q-.344.141-.734.22-.39.093-.875.093zm5.565-.125v-4.469h-2.422v-.703h3.282v5.172h-.86zm.829-6.266q-.297 0-.5-.187t-.204-.5q0-.297.204-.484t.5-.188.5.188.203.484q0 .312-.203.5t-.5.187zm5.393 6.391q-.515 0-.984-.172-.453-.187-.813-.531-.343-.344-.562-.844-.203-.515-.203-1.156 0-.656.203-1.156.219-.5.562-.844.36-.36.813-.547.469-.187.984-.187.5 0 .97.187t.812.547q.359.344.562.844t.203 1.156q0 .64-.203 1.156-.203.5-.562.844-.344.344-.813.531-.469.172-.969.172zm0-.719q.36 0 .657-.14.312-.157.53-.407.22-.265.329-.625.125-.359.125-.812t-.125-.813q-.11-.375-.328-.64t-.531-.406q-.297-.141-.657-.141-.375 0-.687.14-.297.141-.516.407t-.344.64q-.109.36-.109.813t.11.812q.124.36.343.625.219.25.516.407.312.14.687.14zm4.175.594v-5.172h.735l.078.875h.031q.406-.437.875-.719.469-.297 1.078-.297.922 0 1.36.532t.437 1.562v3.219h-.875v-3.094q0-.75-.281-1.094-.281-.359-.922-.359-.234 0-.438.063-.187.046-.375.171-.187.11-.39.297-.203.172-.438.407v3.609h-.875zm6.254 0v-6.984h.89v2.922h2.922v-2.922h.89v6.984h-.89v-3.297h-2.922v3.297h-.89zm8.175.125q-.36 0-.688-.11-.312-.093-.562-.28-.235-.188-.375-.454t-.141-.625q0-.437.203-.75.219-.328.672-.562.453-.25 1.156-.39.719-.157 1.719-.235 0-.266-.078-.5t-.235-.406q-.156-.188-.421-.282-.266-.11-.641-.11-.5 0-.969.204-.469.187-.844.406l-.328-.594q.188-.125.438-.25.265-.14.562-.25t.625-.171q.328-.079.672-.079 1.063 0 1.578.594.516.578.516 1.547v3.172h-.703l-.078-.703h-.032q-.437.344-.968.594-.532.234-1.078.234zm.234-.703q.437 0 .875-.188.437-.203.875-.578v-1.36q-.828.063-1.39.188-.548.11-.891.282-.328.156-.47.375-.14.203-.14.453 0 .218.094.375t.25.265q.156.094.36.141t.437.047zm4.519.578v-5.172h.734l.078.875h.031q.407-.437.875-.719.47-.297 1.079-.297.921 0 1.359.532t.437 1.562v3.219h-.875v-3.094q0-.75-.28-1.094-.282-.359-.923-.359-.234 0-.437.063-.188.046-.375.171-.188.11-.39.297-.204.172-.438.407v3.609h-.875zm8.3.125q-.516 0-.922-.172-.406-.187-.719-.531-.297-.344-.453-.844t-.156-1.156q0-.625.187-1.125.203-.516.531-.86.329-.359.75-.546.422-.203.891-.203t.828.187q.375.172.719.484h.031l-.047-.953v-2h.875v7.594h-.734l-.063-.687h-.03q-.329.328-.766.578-.438.234-.922.234zm.172-.734q.78 0 1.468-.782v-2.578q-.359-.328-.703-.468-.328-.141-.656-.141-.344 0-.64.156-.297.14-.516.406-.219.25-.344.625-.125.36-.125.797 0 .938.39 1.47.407.515 1.126.515zm7.675.734q-.844 0-1.282-.469t-.437-1.39v-5.14h-1.844v-.72h2.719v5.922q0 .578.281.828t.75.25q.453 0 .969-.234l.219.64q-.36.157-.657.235t-.718.078zm5.565 0q-.578 0-1.093-.172-.5-.187-.891-.531-.375-.36-.594-.86-.219-.515-.219-1.156t.22-1.14.577-.844q.375-.36.844-.547.484-.187 1.016-.187.547 0 .984.187.453.172.75.5.297.313.453.766.172.437.172.984 0 .14-.016.281 0 .14-.03.25h-4.079q.078.89.64 1.328t1.376.438q.468 0 .843-.125.375-.14.735-.36l.312.579q-.375.25-.875.437-.5.172-1.125.172zm-.125-4.734q-.328 0-.625.109-.28.094-.515.297t-.406.5q-.157.297-.22.672h3.313q-.062-.797-.468-1.188t-1.079-.39zm4.566 4.609v-5.172h.719l.078 1.219h.031q.406-.625.985-.984.593-.375 1.328-.375.28 0 .53.046t.485.172l-.203.75q-.265-.093-.453-.125-.187-.047-.5-.047-.594 0-1.125.344-.531.328-1.016 1.14v3.032h-.859z" fill="#000"/><path d="M355.35 246.23c0-18.308 14.842-33.15 33.15-33.15h133.07a33.15 33.15 0 0 1 33.15 33.15v132.6c0 18.308-14.842 33.15-33.15 33.15H388.5c-18.307 0-33.15-14.842-33.15-33.15z" fill="#eee" fill-rule="evenodd"/><path d="M355.35 246.23c0-18.308 14.842-33.15 33.15-33.15h133.07a33.15 33.15 0 0 1 33.15 33.15v132.6c0 18.308-14.842 33.15-33.15 33.15H388.5c-18.307 0-33.15-14.842-33.15-33.15z" stroke="#757575" stroke-linecap="butt" stroke-linejoin="round"/><path d="M429.28 245.91h5.39v1.234h-6.89V235.77h1.5v10.141zm8.453 1.234h-1.453v-8.453h1.453v8.453zm-1.562-10.703q0-.343.203-.578.218-.25.64-.25t.641.25q.219.235.219.594 0 .344-.219.578t-.64.235-.641-.235q-.203-.234-.203-.594zm8.789 8.453q0-.578-.438-.906t-1.547-.562q-1.094-.235-1.734-.563t-.953-.781-.313-1.078q0-1.031.875-1.75.89-.719 2.25-.719 1.438 0 2.328.75.907.735.907 1.89h-1.453q0-.593-.516-1.015-.5-.437-1.266-.437-.78 0-1.234.343-.438.344-.438.891 0 .531.407.797.422.266 1.5.516 1.078.234 1.75.578.672.328 1 .797t.328 1.156q0 1.125-.906 1.812t-2.36.688q-1.015 0-1.797-.36t-1.219-1q-.437-.656-.437-1.406h1.437q.047.735.579 1.156.546.422 1.437.422.828 0 1.313-.328.5-.328.5-.89zm5.297-8.25v2.047h1.578v1.11h-1.578v5.25q0 .5.203.765.218.25.718.25.25 0 .688-.093v1.172q-.563.156-1.11.156-.968 0-1.468-.578-.485-.594-.485-1.672v-5.25h-1.53v-1.11h1.53v-2.047h1.453zm6.773 10.656q-1.719 0-2.797-1.125-1.078-1.14-1.078-3.03v-.266q0-1.25.469-2.235.484-1 1.344-1.547.875-.562 1.875-.562 1.656 0 2.562 1.094.922 1.078.922 3.093v.61h-5.734q.03 1.25.734 2.015t1.781.766q.766 0 1.297-.312t.922-.829l.89.688q-1.062 1.64-3.187 1.64zm-.188-7.578q-.875 0-1.468.641-.594.625-.735 1.781h4.235v-.11q-.063-1.109-.594-1.702-.531-.61-1.438-.61zm6.524-1.03.047 1.062q.969-1.22 2.531-1.22 2.672 0 2.703 3.017v5.593h-1.453v-5.594q0-.921-.422-1.359-.406-.437-1.266-.437-.703 0-1.234.375t-.828.984v6.031h-1.453v-8.453h1.375zm10.969 8.609q-1.719 0-2.797-1.125-1.078-1.141-1.078-3.032v-.265q0-1.25.469-2.235.484-1 1.343-1.547.875-.562 1.875-.562 1.657 0 2.563 1.094.922 1.078.922 3.094v.609h-5.735q.032 1.25.735 2.016t1.781.765q.766 0 1.297-.312t.922-.828l.89.687q-1.062 1.64-3.187 1.64zm-.188-7.579q-.875 0-1.468.641-.594.625-.735 1.781h4.235v-.11q-.063-1.108-.594-1.702-.531-.61-1.438-.61zm9.243.266q-.329-.062-.72-.062-1.421 0-1.921 1.218v6h-1.453v-8.453h1.406l.031.97q.703-1.126 2.016-1.126.422 0 .64.11v1.343z" fill="#000"/><path d="M361.98 276.52c0-12.82 18.705-23.213 41.78-23.213 23.074 0 41.78 10.393 41.78 23.213s-18.705 23.213-41.78 23.213c-23.074 0-41.78-10.393-41.78-23.213z" fill="#fff2cc" fill-rule="evenodd"/><path d="M361.98 276.52c0-12.82 18.705-23.213 41.78-23.213 23.074 0 41.78 10.393 41.78 23.213s-18.705 23.213-41.78 23.213c-23.074 0-41.78-10.393-41.78-23.213z" stroke="#757575" stroke-linecap="butt" stroke-linejoin="round"/><path d="m384.3 264.27 1.063-.094q.078.656.359 1.063t.86.672q.593.25 1.327.25.641 0 1.141-.188.5-.203.734-.531.25-.344.25-.735 0-.406-.234-.703-.234-.312-.766-.515-.359-.14-1.547-.422-1.171-.281-1.64-.531-.625-.328-.922-.797-.297-.485-.297-1.078 0-.641.36-1.203.374-.579 1.078-.86.718-.297 1.578-.297.953 0 1.687.313.735.297 1.125.906.39.594.422 1.344l-1.094.078q-.094-.813-.61-1.219-.5-.422-1.484-.422-1.03 0-1.5.375t-.468.907q0 .468.328.765t1.703.61q1.39.312 1.906.546.75.36 1.11.891.359.516.359 1.219 0 .687-.39 1.297-.391.593-1.126.937-.734.328-1.656.328-1.172 0-1.969-.328-.781-.344-1.234-1.031-.438-.687-.453-1.547zm7.863-.344q0-1.734.953-2.562.797-.688 1.954-.688 1.28 0 2.093.844.828.828.828 2.313 0 1.203-.359 1.89t-1.062 1.078q-.688.375-1.5.375-1.297 0-2.11-.828-.797-.844-.797-2.422zm1.078 0q0 1.188.516 1.781.531.594 1.313.594.796 0 1.312-.594t.516-1.812q0-1.156-.532-1.75-.515-.594-1.297-.594t-1.312.594q-.516.578-.516 1.781zm10.05.828 1.03.141q-.171 1.062-.874 1.672t-1.72.61q-1.28 0-2.062-.829-.765-.844-.765-2.406 0-1 .328-1.75.344-.766 1.015-1.14.688-.376 1.5-.376 1 0 1.641.516.656.5.844 1.453l-1.031.156q-.141-.625-.516-.937-.375-.328-.906-.328-.797 0-1.297.578-.5.562-.5 1.797 0 1.265.484 1.828t1.25.562q.625 0 1.031-.375.422-.375.547-1.172zm1.937 2.282v-8.594h1.062v4.906l2.485-2.531h1.375l-2.39 2.297 2.624 3.922h-1.297l-2.062-3.188-.735.719v2.469h-1.062zm10.25-2 1.094.125q-.25.953-.953 1.484t-1.782.531q-1.359 0-2.172-.844-.796-.843-.796-2.359 0-1.562.812-2.422.813-.875 2.094-.875 1.25 0 2.031.844.797.844.797 2.39v.282h-4.64q.062 1.031.577 1.578.516.531 1.297.531.579 0 .985-.297.422-.312.656-.969zm-3.453-1.704h3.469q-.063-.796-.391-1.187-.516-.61-1.313-.61-.734 0-1.234.485-.484.484-.531 1.312zm8.174 2.766.156.922q-.453.094-.797.094-.578 0-.89-.172-.313-.188-.454-.485-.125-.296-.125-1.25v-3.578h-.765v-.812h.765v-1.547l1.047-.625v2.172h1.063v.812h-1.063v3.64q0 .454.047.58.063.124.188.202t.359.078q.187 0 .469-.03zm1.318-4.078v-1.203h1.203v1.203h-1.203zm0 5.016v-1.204h1.203v1.204h-1.203zM393.68 281.04v-8.594h3.25q.844 0 1.297.078.64.11 1.062.407.438.296.688.828.266.53.266 1.172 0 1.093-.704 1.859-.687.75-2.515.75h-2.203v3.5h-1.14zm1.14-4.5h2.22q1.109 0 1.562-.406.469-.422.469-1.172 0-.531-.282-.906-.265-.391-.703-.516-.297-.078-1.062-.078h-2.203v3.078zm6.348 1.39q0-1.734.953-2.562.797-.687 1.954-.687 1.28 0 2.093.843.828.828.828 2.313 0 1.203-.359 1.89t-1.062 1.079q-.688.375-1.5.375-1.297 0-2.11-.829-.797-.843-.797-2.421zm1.078 0q0 1.188.516 1.782.531.594 1.313.594.796 0 1.312-.594t.516-1.813q0-1.156-.532-1.75-.515-.593-1.297-.593t-1.312.593q-.516.578-.516 1.782zm5.971 3.11v-6.219h.953v.938q.36-.657.656-.86.313-.218.688-.218.531 0 1.078.328l-.36.984q-.39-.234-.765-.234-.36 0-.64.218-.266.204-.376.579-.187.562-.187 1.218v3.266h-1.047zm6.309-.938.156.922q-.453.094-.797.094-.578 0-.89-.172-.313-.187-.454-.484-.125-.297-.125-1.25v-3.578h-.765v-.813h.765v-1.547l1.047-.625v2.172h1.063v.813h-1.063v3.64q0 .453.047.578.063.125.188.204t.359.078q.187 0 .469-.032zM397.62 295.04v-2.063h-3.719v-.968l3.922-5.563h.86v5.563h1.156v.969h-1.157v2.062h-1.062zm0-3.031v-3.86l-2.688 3.86h2.688zm6.674 3.031v-2.063h-3.719v-.968l3.922-5.563h.86v5.563h1.155v.969h-1.156v2.062h-1.062zm0-3.031v-3.86l-2.688 3.86h2.688zm3.299.765 1.062-.14q.172.89.61 1.297.437.39 1.062.39.75 0 1.266-.515t.515-1.281q0-.72-.484-1.188-.469-.484-1.203-.484-.297 0-.75.125l.125-.938q.11.016.172.016.671 0 1.203-.344.547-.36.547-1.094 0-.578-.391-.953-.39-.39-1.016-.39-.609 0-1.03.39-.407.39-.516 1.156l-1.063-.187q.188-1.047.875-1.625.688-.594 1.703-.594.703 0 1.297.313.594.296.906.812t.313 1.11q0 .546-.297 1.015-.297.453-.875.719.75.172 1.172.734.422.547.422 1.39 0 1.126-.828 1.907-.813.781-2.063.781-1.125 0-1.875-.672-.75-.687-.86-1.75z" fill="#000"/><path d="M457.57 249.88h85.761v48.633H457.57z" fill="#c9daf8" fill-rule="evenodd"/><path d="M457.57 249.88h85.761v48.633H457.57z" stroke="#757575" stroke-linecap="butt" stroke-linejoin="round"/><path d="M452.6 258.61h85.76v48.633H452.6z" fill="#c9daf8" fill-rule="evenodd"/><path d="M452.6 258.61h85.76v48.633H452.6z" stroke="#757575" stroke-linecap="butt" stroke-linejoin="round"/><path d="M472.74 271.72v-9.547h1.266v8.422h4.703v1.125h-5.97zm7.334-8.188v-1.359h1.172v1.36h-1.172zm0 8.188v-6.906h1.172v6.906h-1.172zm2.477-2.063 1.156-.187q.11.703.547 1.078.453.36 1.25.36.813 0 1.203-.329t.39-.765q0-.39-.358-.625-.235-.157-1.188-.39-1.297-.329-1.797-.563-.484-.25-.75-.657-.25-.422-.25-.937 0-.453.203-.844.219-.406.578-.672.282-.187.75-.328t1.016-.14q.812 0 1.422.234t.906.64q.297.391.406 1.063l-1.14.156q-.078-.531-.453-.828-.375-.312-1.063-.312-.812 0-1.156.265t-.344.625q0 .235.14.422.157.188.454.313.172.062 1.031.297 1.25.328 1.735.546.5.204.78.61t.282 1-.344 1.11-1 .796q-.64.281-1.453.281-1.344 0-2.047-.562t-.906-1.656zm9.695 1.016.172 1.031q-.5.11-.89.11-.641 0-1-.203-.344-.204-.485-.532t-.14-1.39v-3.97h-.86v-.905h.86v-1.72l1.172-.702v2.422h1.171v.906h-1.171v4.047q0 .5.046.64.063.141.204.235.14.078.406.078.203 0 .515-.047zm5.875-1.172 1.203.14q-.281 1.063-1.062 1.657-.766.578-1.969.578-1.516 0-2.406-.937t-.89-2.61q0-1.75.89-2.703.906-.969 2.344-.969 1.39 0 2.265.938t.875 2.656v.313h-5.156q.063 1.14.64 1.75.579.593 1.438.593.656 0 1.11-.328.453-.344.718-1.078zm-3.844-1.906h3.86q-.078-.86-.438-1.297-.562-.687-1.453-.687-.812 0-1.36.546-.546.532-.609 1.438zm6.522 4.125v-6.906h1.063v.984q.75-1.14 2.187-1.14.625 0 1.157.218t.78.594q.266.36.376.86.062.328.062 1.14v4.25h-1.172v-4.203q0-.719-.14-1.063-.14-.359-.485-.562-.343-.219-.812-.219-.75 0-1.297.469t-.547 1.797v3.781H500.8zm12.147-2.219 1.203.14q-.28 1.063-1.062 1.657-.766.578-1.969.578-1.515 0-2.406-.937t-.89-2.61q0-1.75.89-2.703.906-.969 2.344-.969 1.39 0 2.265.938t.875 2.656v.313h-5.156q.063 1.14.64 1.75.579.593 1.438.593.656 0 1.11-.328.453-.344.718-1.078zm-3.843-1.906h3.859q-.078-.86-.438-1.297-.562-.687-1.453-.687-.812 0-1.36.546-.546.532-.608 1.438zm6.506 4.125v-6.906h1.062v1.047q.406-.735.735-.969.343-.234.765-.234.594 0 1.203.375l-.406 1.078q-.437-.25-.86-.25-.39 0-.702.234-.297.234-.422.64-.203.626-.203 1.36v3.625h-1.172zM484.04 287.72v-6h-1.031v-.906h1.031v-.735q0-.703.125-1.047.172-.453.594-.734t1.203-.281q.484 0 1.094.11l-.188 1.03q-.36-.062-.687-.062-.532 0-.75.234-.22.22-.22.844v.64h1.345v.907h-1.344v6h-1.172zm3.437-8.188v-1.359h1.172v1.36h-1.172zm0 8.188v-6.906h1.172v6.906h-1.172zm2.93 0v-9.547h1.172v9.547h-1.172zm5.54-1.047.171 1.031q-.5.11-.89.11-.641 0-1-.203-.344-.204-.485-.532t-.14-1.39v-3.97h-.86v-.905h.86v-1.72l1.171-.702v2.422h1.172v.906h-1.172v4.047q0 .5.047.64.063.141.203.235.141.078.407.078.203 0 .515-.047zm5.874-1.172 1.203.14q-.28 1.063-1.062 1.657-.766.578-1.969.578-1.516 0-2.406-.937t-.89-2.61q0-1.75.89-2.703.906-.969 2.344-.969 1.39 0 2.265.938t.875 2.656v.313h-5.156q.063 1.14.64 1.75.579.593 1.438.593.656 0 1.11-.328.453-.344.718-1.078zm-3.844-1.906h3.86q-.078-.86-.438-1.297-.562-.687-1.453-.687-.812 0-1.36.546-.546.532-.609 1.438zm6.507 4.125v-6.906h1.062v1.047q.406-.735.734-.969.344-.234.766-.234.594 0 1.203.375l-.406 1.078q-.438-.25-.86-.25-.39 0-.703.234-.296.234-.421.64-.204.626-.204 1.36v3.625h-1.171zM476.64 303.72v-6h-1.031v-.906h1.031v-.735q0-.703.125-1.047.172-.453.594-.734t1.203-.281q.484 0 1.094.11l-.188 1.03q-.36-.062-.687-.062-.532 0-.75.234-.22.22-.22.844v.64h1.345v.907h-1.344v6h-1.172zm7.937-.86q-.656.563-1.265.798-.594.218-1.282.218-1.14 0-1.75-.547-.609-.562-.609-1.437 0-.5.219-.922.234-.422.61-.672t.843-.39q.344-.079 1.047-.172 1.422-.172 2.094-.407v-.297q0-.718-.328-1.015-.454-.39-1.344-.39-.813 0-1.219.296-.39.281-.578 1.016l-1.14-.157q.156-.734.515-1.187t1.031-.688q.672-.25 1.563-.25t1.437.204q.563.203.813.53.265.313.375.798.046.297.046 1.078v1.562q0 1.625.079 2.063t.296.828h-1.218q-.188-.36-.235-.86zm-.093-2.609q-.641.266-1.922.438-.72.11-1.016.25-.297.125-.469.375-.156.25-.156.547 0 .468.344.78.36.313 1.047.313.672 0 1.203-.297t.781-.812q.188-.39.188-1.172v-.422zm7.506.938 1.156.156q-.188 1.187-.969 1.86t-1.922.671q-1.406 0-2.28-.922-.86-.937-.86-2.656 0-1.125.375-1.969t1.125-1.25q.765-.422 1.656-.422 1.125 0 1.844.579.718.562.922 1.609l-1.141.172q-.172-.703-.594-1.047-.406-.36-.984-.36-.89 0-1.453.641-.547.64-.547 2 0 1.406.531 2.031.547.625 1.406.625.688 0 1.14-.421.47-.422.595-1.297zm4.71 1.484.173 1.031q-.5.11-.891.11-.64 0-1-.203-.344-.204-.484-.532t-.141-1.39v-3.97h-.86v-.905h.86v-1.72l1.172-.702v2.422h1.172v.906h-1.172v4.047q0 .5.047.64.062.141.203.235.14.078.406.078.203 0 .516-.047zm.704-2.406q0-1.922 1.078-2.844.89-.765 2.172-.765 1.422 0 2.328.937.906.922.906 2.578 0 1.328-.406 2.094-.39.766-1.156 1.187t-1.672.422q-1.453 0-2.36-.922-.89-.937-.89-2.687zm1.203 0q0 1.328.578 1.984.594.657 1.469.657t1.453-.657q.578-.672.578-2.03 0-1.282-.594-1.938-.578-.657-1.437-.657-.875 0-1.47.657-.577.656-.577 1.984zm6.63 3.453v-6.906h1.063v1.047q.407-.735.735-.969.344-.234.765-.234.594 0 1.204.375l-.407 1.078q-.437-.25-.86-.25-.39 0-.702.234-.297.234-.422.64-.203.626-.203 1.36v3.625h-1.172zm4.408 2.656-.125-1.094q.375.11.656.11.39 0 .625-.14.235-.126.39-.36.11-.172.36-.875.032-.094.11-.281l-2.625-6.922h1.265l1.438 4q.281.765.5 1.593.203-.796.469-1.578l1.484-4.015h1.172l-2.625 7.015q-.422 1.141-.656 1.578-.313.579-.72.844-.405.281-.968.281-.328 0-.75-.156z" fill="#000"/><path d="M381.26 315.26h154.91v86.127H381.26z" fill="#c9daf8" fill-rule="evenodd"/><path d="M381.26 315.26h154.91v86.127H381.26z" stroke="#757575" stroke-linecap="butt" stroke-linejoin="round"/><path d="M377.72 321.33h154.91v86.127H377.72z" fill="#c9daf8" fill-rule="evenodd"/><path d="M377.72 321.33h154.91v86.127H377.72z" stroke="#757575" stroke-linecap="butt" stroke-linejoin="round"/><path d="M392.57 343.13v-9.547h6.438v1.125h-5.172v2.969h4.468v1.125h-4.468v4.328h-1.266zm7.938-8.188v-1.359h1.172v1.36h-1.172zm0 8.188v-6.906h1.172v6.906h-1.172zm2.93 0v-9.547h1.172v9.547h-1.172zm5.54-1.047.171 1.031q-.5.11-.89.11-.641 0-1-.203-.344-.204-.485-.532t-.14-1.39v-3.97h-.86v-.905h.86v-1.72l1.171-.702v2.422h1.172v.906h-1.172v4.047q0 .5.047.64.063.141.203.235.141.078.407.078.203 0 .515-.047zm5.874-1.172 1.203.14q-.281 1.063-1.062 1.657-.766.578-1.97.578-1.515 0-2.405-.937t-.891-2.61q0-1.75.89-2.703.907-.969 2.344-.969 1.391 0 2.266.938t.875 2.656v.313h-5.156q.062 1.14.64 1.75.579.593 1.438.593.656 0 1.11-.328.452-.344.718-1.078zm-3.844-1.906h3.86q-.079-.86-.438-1.297-.562-.687-1.453-.687-.813 0-1.36.546-.546.532-.609 1.438zm6.506 4.125v-6.906h1.063v1.047q.406-.735.734-.97.344-.233.766-.233.594 0 1.203.375l-.406 1.078q-.438-.25-.86-.25-.39 0-.703.234-.297.234-.422.64-.203.626-.203 1.36v3.625h-1.172zm12.673-2.531 1.157.156q-.188 1.188-.97 1.86t-1.921.671q-1.406 0-2.281-.922-.86-.937-.86-2.656 0-1.125.375-1.969t1.125-1.25q.766-.421 1.657-.421 1.125 0 1.843.578.72.562.922 1.61l-1.14.171q-.172-.703-.594-1.047-.406-.36-.984-.36-.891 0-1.454.641-.546.64-.546 2 0 1.407.53 2.032.548.625 1.407.625.687 0 1.14-.422.47-.422.594-1.297zm2.149 2.531v-9.547h1.172v3.422q.828-.938 2.078-.938.765 0 1.328.297t.812.844q.25.531.25 1.547v4.375h-1.172v-4.375q0-.89-.39-1.281-.375-.406-1.078-.406-.516 0-.985.28-.453.266-.656.735-.187.453-.187 1.266v3.781h-1.172zm11.928-.86q-.656.563-1.266.798-.594.218-1.281.218-1.14 0-1.75-.547-.61-.562-.61-1.437 0-.5.22-.922.234-.422.609-.672t.843-.39q.344-.079 1.047-.172 1.422-.172 2.094-.407v-.297q0-.718-.328-1.015-.453-.39-1.344-.39-.812 0-1.219.296-.39.281-.578 1.016l-1.14-.157q.156-.734.515-1.187t1.032-.688q.671-.25 1.562-.25t1.438.204q.562.203.812.53.266.313.375.798.047.297.047 1.078v1.562q0 1.625.078 2.063t.297.828h-1.219q-.187-.36-.234-.86zm-.094-2.609q-.64.266-1.922.438-.719.11-1.015.25-.297.125-.47.375-.155.25-.155.547 0 .468.343.78.36.313 1.047.313.672 0 1.203-.297t.782-.812q.187-.39.187-1.172v-.422zm3.006-4.719v-1.359h1.172v1.36h-1.172zm0 8.188v-6.906h1.172v6.906h-1.172zm2.946 0v-6.906h1.062v.984q.75-1.14 2.188-1.14.625 0 1.156.218t.781.594q.266.36.375.86.063.327.063 1.14v4.25h-1.172v-4.203q0-.719-.14-1.063-.141-.359-.485-.562-.344-.219-.813-.219-.75 0-1.297.469t-.546 1.797v3.781h-1.172zm11.115 0v-6.906h1.047v.968q.328-.515.859-.812.547-.313 1.234-.313.782 0 1.266.313t.688.89q.828-1.203 2.14-1.203 1.031 0 1.578.579.563.562.563 1.734v4.75h-1.172v-4.36q0-.703-.125-1-.11-.312-.406-.5t-.704-.187q-.718 0-1.203.484t-.484 1.547v4.016h-1.172v-4.484q0-.782-.297-1.172-.281-.39-.922-.39-.5 0-.922.265-.421.25-.609.75t-.187 1.453v3.578h-1.172zm15.618-.86q-.657.563-1.266.797-.594.22-1.281.22-1.14 0-1.75-.548-.61-.562-.61-1.437 0-.5.22-.922.234-.422.609-.672t.843-.39q.344-.079 1.047-.172 1.422-.172 2.094-.407v-.297q0-.718-.328-1.015-.453-.39-1.344-.39-.812 0-1.219.296-.39.281-.578 1.016l-1.14-.157q.156-.734.515-1.187t1.032-.688q.671-.25 1.562-.25t1.438.204q.562.203.812.53.266.313.375.798.047.297.047 1.078v1.562q0 1.625.078 2.063t.297.828h-1.219q-.187-.36-.234-.86zm-.094-2.609q-.64.266-1.922.438-.719.109-1.016.25-.296.125-.468.375-.157.25-.157.547 0 .468.344.78.36.313 1.047.313.672 0 1.203-.297t.781-.812q.188-.39.188-1.172v-.422zm5.553 2.422.172 1.031q-.5.11-.89.11-.641 0-1-.203-.344-.204-.485-.532t-.14-1.39v-3.97h-.86v-.905h.86v-1.72l1.171-.702v2.422h1.172v.906h-1.172v4.047q0 .5.047.64.063.141.203.235.14.078.407.078.203 0 .515-.047zm5.656-1.484 1.156.156q-.187 1.187-.968 1.86t-1.922.671q-1.406 0-2.281-.922-.86-.937-.86-2.656 0-1.125.375-1.969t1.125-1.25q.766-.422 1.656-.422 1.125 0 1.844.579.719.562.922 1.609l-1.14.172q-.172-.703-.594-1.047-.407-.36-.985-.36-.89 0-1.453.641-.547.64-.547 2 0 1.406.532 2.031.546.625 1.406.625.687 0 1.14-.422.47-.421.594-1.296zm2.149 2.53v-9.546h1.171v3.422q.829-.938 2.079-.938.765 0 1.328.297t.812.844q.25.531.25 1.547v4.375h-1.172v-4.375q0-.89-.39-1.281-.375-.407-1.078-.407-.516 0-.985.282-.453.265-.656.734-.188.453-.188 1.266v3.78h-1.171zm13.678-1.046.171 1.031q-.5.11-.89.11-.64 0-1-.204-.344-.203-.485-.53t-.14-1.391v-3.97h-.86v-.905h.86v-1.72l1.172-.702v2.421h1.172v.907h-1.172v4.047q0 .5.047.64.062.14.203.235.14.078.406.078.203 0 .516-.047zm1.124 1.047v-6.906h1.063v1.047q.406-.735.734-.97.344-.234.766-.234.594 0 1.203.375l-.406 1.079q-.438-.25-.86-.25-.39 0-.703.234-.297.234-.422.64-.203.626-.203 1.36v3.625h-1.172zm4.47-8.188v-1.36h1.172v1.36h-1.172zm0 8.188v-6.906h1.172v6.906h-1.172zm7.68-2.219 1.203.14q-.281 1.063-1.063 1.657-.765.578-1.968.578-1.516 0-2.407-.938-.89-.937-.89-2.609 0-1.75.89-2.703.907-.969 2.344-.969 1.39 0 2.266.938t.875 2.656v.312h-5.156q.062 1.141.64 1.75.578.594 1.438.594.656 0 1.11-.328.452-.344.718-1.078zm-3.844-1.906h3.86q-.079-.86-.438-1.297-.563-.688-1.453-.688-.813 0-1.36.547-.546.532-.609 1.438z" fill="#000"/><path d="M452.16 354.4c0-4.644 4.35-8.41 9.716-8.41 5.367 0 9.717 3.765 9.717 8.41 0 4.644-4.35 8.41-9.716 8.41-5.367 0-9.717-3.766-9.717-8.41z" fill="#fff2cc" fill-rule="evenodd"/><path d="M452.16 354.4c0-4.644 4.35-8.41 9.716-8.41 5.367 0 9.717 3.765 9.717 8.41 0 4.644-4.35 8.41-9.716 8.41-5.367 0-9.717-3.766-9.717-8.41z" stroke="#757575" stroke-linecap="butt" stroke-linejoin="round"/><path d="M432.71 374.41c0-4.644 4.35-8.41 9.717-8.41 5.366 0 9.716 3.766 9.716 8.41s-4.35 8.41-9.716 8.41c-5.367 0-9.717-3.766-9.717-8.41z" fill="#fff2cc" fill-rule="evenodd"/><path d="M432.71 374.41c0-4.644 4.35-8.41 9.717-8.41 5.366 0 9.716 3.766 9.716 8.41s-4.35 8.41-9.716 8.41c-5.367 0-9.717-3.766-9.717-8.41z" stroke="#757575" stroke-linecap="butt" stroke-linejoin="round"/><path d="M466.52 376.72c0-4.644 4.35-8.41 9.717-8.41 5.366 0 9.716 3.766 9.716 8.41s-4.35 8.41-9.716 8.41c-5.367 0-9.717-3.765-9.717-8.41z" fill="#fff2cc" fill-rule="evenodd"/><path d="M466.52 376.72c0-4.644 4.35-8.41 9.717-8.41 5.366 0 9.716 3.766 9.716 8.41s-4.35 8.41-9.716 8.41c-5.367 0-9.717-3.765-9.717-8.41z" stroke="#757575" stroke-linecap="butt" stroke-linejoin="round"/><path d="M447.07 399.05c0-4.644 4.35-8.41 9.716-8.41 5.367 0 9.717 3.766 9.717 8.41s-4.35 8.41-9.716 8.41c-5.367 0-9.717-3.765-9.717-8.41z" fill="#fff2cc" fill-rule="evenodd"/><path d="M447.07 399.05c0-4.644 4.35-8.41 9.716-8.41 5.367 0 9.717 3.766 9.717 8.41s-4.35 8.41-9.716 8.41c-5.367 0-9.717-3.765-9.717-8.41z" stroke="#757575" stroke-linecap="butt" stroke-linejoin="round"/><path d="m468.74 360.35 7.496 7.968" fill="none"/><path d="m468.74 360.35 7.496 7.968" stroke="#757575" stroke-linecap="butt" stroke-linejoin="round"/><path d="m455 360.35-5.7 8.126" fill="none"/><path d="m455 360.35-5.7 8.126" stroke="#757575" stroke-linecap="butt" stroke-linejoin="round"/><path d="m469.37 382.67-5.7 10.425" fill="none"/><path d="m469.37 382.67-5.7 10.425" stroke="#757575" stroke-linecap="butt" stroke-linejoin="round"/><path d="M620.87 159.6c0-26.261 21.289-47.55 47.55-47.55h190.19a47.552 47.552 0 0 1 47.55 47.55v235.29c0 26.261-21.289 47.55-47.55 47.55H668.42c-26.261 0-47.55-21.289-47.55-47.55z" fill="#fff2cc" fill-rule="evenodd"/><path d="M620.87 159.6c0-26.261 21.289-47.55 47.55-47.55h190.19a47.552 47.552 0 0 1 47.55 47.55v235.29c0 26.261-21.289 47.55-47.55 47.55H668.42c-26.261 0-47.55-21.289-47.55-47.55z" stroke="#757575" stroke-linecap="butt" stroke-linejoin="round"/><path d="m708.21 150.34-3.031-11.453h1.547l1.75 7.5q.281 1.188.484 2.344.438-1.828.516-2.11l2.172-7.734h1.828l1.64 5.797q.625 2.156.89 4.047.22-1.078.579-2.485l1.797-7.359h1.516l-3.141 11.453h-1.453l-2.422-8.734q-.297-1.094-.36-1.344-.171.797-.328 1.344l-2.437 8.734h-1.547zm12.109-4.156q0-2.297 1.281-3.406 1.078-.922 2.61-.922 1.718 0 2.797 1.125 1.093 1.11 1.093 3.094 0 1.593-.484 2.515t-1.406 1.438q-.907.5-2 .5-1.735 0-2.813-1.11-1.078-1.125-1.078-3.234zm1.453 0q0 1.594.688 2.39.703.797 1.75.797t1.734-.797q.703-.796.703-2.437 0-1.531-.703-2.328-.687-.797-1.734-.797t-1.75.797q-.688.781-.688 2.375zm7.961 4.156v-8.297h1.266v1.25q.484-.875.89-1.156t.906-.281q.704 0 1.438.453l-.484 1.297q-.516-.297-1.032-.297-.453 0-.828.281-.36.266-.515.766-.235.75-.235 1.64v4.344h-1.406zm5.344 0v-11.453h1.406v6.531l3.328-3.375h1.828l-3.172 3.078 3.485 5.22h-1.735l-2.734-4.25-1 .952v3.297h-1.406zm13.672-2.672 1.453.172q-.344 1.281-1.281 1.984-.922.703-2.36.703-1.828 0-2.89-1.124t-1.063-3.141q0-2.094 1.078-3.25t2.797-1.156q1.656 0 2.703 1.14 1.063 1.125 1.063 3.172v.375h-6.188q.078 1.375.766 2.11.703.718 1.734.718.782 0 1.328-.406t.86-1.297zm-4.61-2.281h4.625q-.093-1.047-.53-1.563-.673-.812-1.735-.812-.969 0-1.64.656-.657.64-.72 1.719zm7.82 4.953v-8.297h1.266v1.25q.485-.875.89-1.156t.907-.281q.703 0 1.438.453l-.485 1.297q-.515-.297-1.03-.297-.454 0-.829.281-.36.266-.516.766-.234.75-.234 1.64v4.344h-1.406zm12.853-1.266.203 1.25q-.594.125-1.063.125-.765 0-1.187-.234-.422-.25-.594-.64-.172-.407-.172-1.672v-4.766h-1.031v-1.094h1.031v-2.062l1.406-.844v2.906h1.407v1.094h-1.407v4.844q0 .609.063.78.078.173.25.282.172.094.484.094.235 0 .61-.063zm1.382 1.266v-11.453h1.407v4.11q.984-1.141 2.484-1.141.922 0 1.594.36.687.359.969 1 .297.64.297 1.859v5.265h-1.407v-5.265q0-1.047-.453-1.532t-1.297-.484q-.625 0-1.172.328t-.78.89q-.235.548-.235 1.516v4.547h-1.406zm8.883 0v-8.297h1.266v1.25q.484-.875.89-1.156t.907-.281q.703 0 1.437.453l-.484 1.297q-.516-.297-1.031-.297-.453 0-.828.281-.36.266-.516.766-.234.75-.234 1.64v4.344h-1.407zm11.016-2.672 1.453.172q-.343 1.281-1.28 1.984-.923.703-2.36.703-1.828 0-2.89-1.124t-1.063-3.141q0-2.094 1.078-3.25t2.797-1.156q1.656 0 2.703 1.14 1.062 1.125 1.062 3.172v.375h-6.187q.078 1.375.765 2.11.704.718 1.735.718.781 0 1.328-.406t.86-1.297zm-4.61-2.281h4.626q-.094-1.047-.531-1.563-.672-.812-1.735-.812-.969 0-1.64.656-.657.64-.72 1.719zm13.243 3.922q-.781.672-1.5.953-.719.266-1.547.266-1.375 0-2.11-.672t-.734-1.703q0-.61.281-1.11.282-.515.72-.812.452-.313 1.015-.47.422-.108 1.25-.202 1.703-.203 2.515-.485v-.375q0-.859-.39-1.203-.547-.484-1.61-.484-.984 0-1.468.36-.47.343-.688 1.218l-1.375-.187q.188-.875.61-1.422.437-.547 1.25-.828.812-.297 1.874-.297t1.72.25q.671.25.984.625t.437.953q.078.36.078 1.297v1.875q0 1.969.078 2.484.094.516.36 1h-1.469q-.219-.437-.281-1.031zm-.11-3.14q-.765.312-2.296.53-.875.125-1.235.282t-.562.468q-.188.297-.188.657 0 .562.422.937.438.375 1.25.375t1.438-.344q.64-.359.937-.984.234-.469.234-1.406v-.516zm8.977 4.171v-1.047q-.781 1.235-2.312 1.235-1 0-1.828-.547t-1.297-1.531q-.454-.985-.454-2.25 0-1.25.407-2.25.422-1.016 1.25-1.547.828-.547 1.86-.547.75 0 1.327.312.594.313.953.828v-4.109h1.407v11.453h-1.313zm-4.437-4.14q0 1.593.671 2.39.672.781 1.579.781.921 0 1.562-.75.656-.765.656-2.312 0-1.703-.656-2.5t-1.625-.797q-.937 0-1.562.766t-.625 2.421zm12.562 4.14v-11.453h1.562l6.016 8.984v-8.984h1.453v11.453h-1.563l-6.015-9v9h-1.453z" fill="#000"/><path d="M630.5 205.91c0-24.449 19.82-44.269 44.269-44.269h177.07a44.269 44.269 0 0 1 44.269 44.269v182.14c0 24.449-19.82 44.269-44.269 44.269h-177.07c-24.449 0-44.269-19.82-44.269-44.269z" fill="#ead1dc" fill-rule="evenodd"/><path d="M630.5 205.91c0-24.449 19.82-44.269 44.269-44.269h177.07a44.269 44.269 0 0 1 44.269 44.269v182.14c0 24.449-19.82 44.269-44.269 44.269h-177.07c-24.449 0-44.269-19.82-44.269-44.269z" stroke="#757575" stroke-linecap="butt" stroke-linejoin="round"/><path d="M656.2 193.97q-.64 0-1.203-.234-.547-.25-.969-.72-.406-.468-.64-1.14t-.235-1.53q0-.845.235-1.517t.656-1.14.984-.719q.578-.25 1.266-.25.625 0 1.11.266.484.25.796.593l-.5.563q-.281-.281-.625-.453-.344-.188-.781-.188-.5 0-.922.203-.406.188-.703.563-.281.36-.438.89-.156.516-.156 1.173t.156 1.187.438.906q.297.36.703.563.422.203.922.203.484 0 .86-.203t.718-.563l.5.532q-.422.484-.953.75-.516.265-1.219.265zm5.862 0q-.515 0-.984-.172-.453-.187-.812-.531-.344-.344-.563-.844-.203-.515-.203-1.156 0-.656.203-1.156.219-.5.563-.844.359-.36.812-.547.469-.187.985-.187.5 0 .968.187t.813.547q.36.344.562.844t.203 1.156q0 .64-.203 1.156-.203.5-.562.844-.344.344-.813.531-.468.172-.968.172zm0-.719q.36 0 .657-.14.312-.157.531-.407.219-.265.328-.625.125-.359.125-.812t-.125-.813q-.11-.375-.328-.64t-.531-.406q-.297-.141-.657-.141-.375 0-.687.14-.297.141-.516.407t-.343.64q-.11.36-.11.813t.11.812q.125.36.343.625.22.25.516.407.313.14.688.14zm4.176.594v-5.172h.734l.078.875h.031q.407-.437.875-.719.47-.297 1.078-.297.922 0 1.36.532t.437 1.562v3.219h-.875v-3.094q0-.75-.28-1.094-.282-.359-.923-.359-.234 0-.437.063-.188.046-.375.171-.188.11-.39.297-.204.172-.438.407v3.609h-.875zm6.393 0v-5.172h.735l.078.875h.031q.406-.437.875-.719.469-.297 1.078-.297.922 0 1.36.532t.437 1.562v3.219h-.875v-3.094q0-.75-.281-1.094-.281-.359-.922-.359-.234 0-.437.063-.188.046-.375.171-.188.11-.391.297-.203.172-.438.407v3.609h-.875zm8.925.125q-.578 0-1.093-.172-.5-.187-.891-.531-.375-.36-.594-.86-.219-.515-.219-1.156t.22-1.14.577-.844q.375-.36.844-.547.484-.187 1.016-.187.547 0 .984.187.453.172.75.5.297.313.453.766.172.437.172.984 0 .14-.016.281 0 .14-.03.25h-4.079q.078.89.64 1.328t1.376.438q.468 0 .843-.125.375-.14.735-.36l.312.579q-.375.25-.875.437-.5.172-1.125.172zm-.125-4.734q-.328 0-.625.109-.28.094-.515.297t-.406.5q-.157.297-.22.672h3.313q-.062-.797-.468-1.188t-1.079-.39zm6.691 4.734q-.61 0-1.125-.172-.516-.187-.906-.531-.375-.344-.594-.844-.203-.515-.203-1.156 0-.656.219-1.156.234-.5.625-.844.39-.36.922-.547t1.109-.187q.64 0 1.11.234.468.219.78.531l-.437.563q-.312-.282-.672-.438-.343-.156-.75-.156-.437 0-.812.14t-.64.407q-.25.265-.407.64-.14.36-.14.813t.14.812.39.625q.266.25.626.407.375.14.828.14.484 0 .875-.187.406-.188.718-.469l.407.563q-.438.39-.97.609-.515.203-1.093.203zm6.91 0q-.563 0-.954-.156t-.625-.438-.343-.672q-.094-.39-.094-.875v-2.453h-1.453v-.656l1.5-.047.11-1.672h.718v1.672h2.547v.703h-2.547v2.47q0 .343.063.608.078.266.218.454.157.171.407.265.25.078.625.078t.671-.062.579-.172l.187.64q-.344.141-.734.22-.391.093-.875.093zm5.565-.125v-4.469h-2.422v-.703h3.282v5.172h-.86zm.828-6.266q-.296 0-.5-.187t-.203-.5q0-.297.203-.484t.5-.188.5.188.204.484q0 .312-.204.5t-.5.187zm5.394 6.391q-.515 0-.984-.172-.453-.187-.813-.531-.343-.344-.562-.844-.203-.515-.203-1.156 0-.656.203-1.156.219-.5.562-.844.36-.36.813-.547.469-.187.984-.187.5 0 .969.187t.812.547q.36.344.563.844t.203 1.156q0 .64-.203 1.156-.203.5-.563.844-.343.344-.812.531-.469.172-.969.172zm0-.719q.36 0 .656-.14.313-.157.532-.407.218-.265.328-.625.125-.359.125-.812t-.125-.813q-.11-.375-.328-.64t-.532-.406q-.296-.141-.656-.141-.375 0-.687.14-.297.141-.516.407t-.344.64q-.109.36-.109.813t.11.812q.124.36.343.625.219.25.516.407.312.14.687.14zm4.175.594v-5.172h.735l.078.875h.031q.406-.437.875-.719.469-.297 1.078-.297.922 0 1.36.532t.437 1.562v3.219h-.875v-3.094q0-.75-.281-1.094-.282-.359-.922-.359-.235 0-.438.063-.187.046-.375.171-.187.11-.39.297-.203.172-.438.407v3.609h-.875zm6.253 0v-6.984h.891v2.922h2.922v-2.922h.89v6.984h-.89v-3.297h-2.922v3.297h-.89zm8.175.125q-.359 0-.687-.11-.313-.093-.563-.28-.234-.188-.375-.454t-.14-.625q0-.437.203-.75.219-.328.672-.562.453-.25 1.156-.39.719-.157 1.719-.235 0-.266-.078-.5t-.235-.406q-.156-.188-.422-.282-.265-.11-.64-.11-.5 0-.969.204-.469.187-.844.406l-.328-.594q.188-.125.438-.25.265-.14.562-.25t.625-.171q.328-.079.672-.079 1.063 0 1.578.594.516.578.516 1.547v3.172h-.703l-.078-.703h-.032q-.437.344-.968.594-.532.234-1.079.234zm.235-.703q.437 0 .875-.188.437-.203.875-.578v-1.36q-.828.063-1.39.188-.548.11-.891.282-.329.156-.47.375-.14.203-.14.453 0 .218.094.375t.25.265q.156.094.36.141t.437.047zm4.519.578v-5.172h.734l.078.875h.031q.407-.437.875-.719.47-.297 1.078-.297.922 0 1.36.532t.437 1.562v3.219h-.875v-3.094q0-.75-.28-1.094-.282-.359-.923-.359-.234 0-.437.063-.188.046-.375.171-.188.11-.39.297-.204.172-.438.407v3.609h-.875zm8.3.125q-.516 0-.922-.172-.407-.187-.719-.531-.297-.344-.453-.844t-.156-1.156q0-.625.187-1.125.203-.516.531-.86.328-.359.75-.546.422-.203.891-.203t.828.187q.375.172.719.484h.031l-.047-.953v-2h.875v7.594h-.734l-.063-.687h-.03q-.329.328-.767.578-.437.234-.921.234zm.171-.734q.782 0 1.47-.782v-2.578q-.36-.328-.704-.468-.328-.141-.656-.141-.344 0-.64.156-.298.14-.516.406-.22.25-.344.625-.125.36-.125.797 0 .938.39 1.47.407.515 1.126.515zm7.676.734q-.844 0-1.282-.469t-.437-1.39v-5.14h-1.844v-.72h2.719v5.922q0 .578.281.828t.75.25q.453 0 .969-.234l.219.64q-.36.157-.657.235t-.718.078zm5.565 0q-.578 0-1.094-.172-.5-.187-.89-.531-.375-.36-.594-.86-.219-.515-.219-1.156t.22-1.14.577-.844q.375-.36.844-.547.484-.187 1.016-.187.546 0 .984.187.453.172.75.5.297.313.453.766.172.437.172.984 0 .14-.016.281 0 .14-.03.25h-4.079q.078.89.64 1.328t1.376.438q.468 0 .843-.125.375-.14.735-.36l.312.579q-.375.25-.875.437-.5.172-1.125.172zm-.125-4.734q-.328 0-.625.109-.281.094-.515.297t-.407.5q-.156.297-.218.672h3.312q-.062-.797-.469-1.188t-1.078-.39zm4.566 4.609v-5.172h.719l.078 1.219h.031q.406-.625.984-.984.594-.375 1.329-.375.28 0 .53.046t.485.172l-.203.75q-.266-.093-.453-.125-.188-.047-.5-.047-.594 0-1.125.344-.531.328-1.016 1.14v3.032h-.859z" fill="#000"/><path d="M663.83 245.57c0-18.308 14.842-33.15 33.15-33.15h133.07a33.15 33.15 0 0 1 33.15 33.15v132.6c0 18.308-14.842 33.15-33.15 33.15H696.98c-18.307 0-33.15-14.842-33.15-33.15z" fill="#eee" fill-rule="evenodd"/><path d="M663.83 245.57c0-18.308 14.842-33.15 33.15-33.15h133.07a33.15 33.15 0 0 1 33.15 33.15v132.6c0 18.308-14.842 33.15-33.15 33.15H696.98c-18.307 0-33.15-14.842-33.15-33.15z" stroke="#757575" stroke-linecap="butt" stroke-linejoin="round"/><path d="M737.76 245.25h5.39v1.234h-6.89V235.11h1.5v10.141zm8.453 1.234h-1.453v-8.453h1.453v8.453zm-1.562-10.703q0-.343.203-.578.218-.25.64-.25t.641.25q.219.235.219.594 0 .344-.219.578t-.64.235-.641-.235q-.203-.234-.203-.594zm8.789 8.453q0-.578-.438-.906t-1.547-.562q-1.094-.235-1.734-.563t-.953-.781-.313-1.078q0-1.031.875-1.75.89-.719 2.25-.719 1.438 0 2.328.75.907.735.907 1.89h-1.453q0-.593-.516-1.015-.5-.437-1.266-.437-.78 0-1.234.343-.438.344-.438.891 0 .531.407.797.422.266 1.5.516 1.078.234 1.75.578.672.328 1 .797t.328 1.156q0 1.125-.906 1.812t-2.36.688q-1.015 0-1.797-.36t-1.219-1q-.437-.656-.437-1.406h1.437q.047.735.579 1.156.546.422 1.437.422.828 0 1.313-.328.5-.328.5-.89zm5.297-8.25v2.047h1.578v1.11h-1.578v5.25q0 .5.203.765.218.25.718.25.25 0 .688-.093v1.172q-.563.156-1.11.156-.968 0-1.468-.578-.485-.594-.485-1.672v-5.25h-1.53v-1.11h1.53v-2.047h1.453zm6.773 10.656q-1.719 0-2.797-1.124-1.078-1.141-1.078-3.032v-.265q0-1.25.469-2.235.484-1 1.344-1.547.875-.562 1.875-.562 1.656 0 2.562 1.094.922 1.078.922 3.093v.61h-5.734q.03 1.25.734 2.015t1.781.766q.766 0 1.297-.312t.922-.829l.89.688q-1.062 1.64-3.187 1.64zm-.188-7.578q-.875 0-1.468.641-.594.625-.735 1.781h4.235v-.11q-.063-1.109-.594-1.702-.531-.61-1.438-.61zm6.524-1.03.047 1.062q.969-1.22 2.531-1.22 2.672 0 2.703 3.017v5.593h-1.453v-5.594q0-.921-.422-1.359-.406-.437-1.266-.437-.703 0-1.234.375t-.828.984v6.031h-1.453v-8.453h1.375zm10.969 8.609q-1.719 0-2.797-1.125-1.078-1.141-1.078-3.032v-.265q0-1.25.469-2.235.484-1 1.343-1.547.875-.562 1.875-.562 1.657 0 2.563 1.094.922 1.078.922 3.094v.609h-5.735q.032 1.25.735 2.016t1.781.765q.766 0 1.297-.312t.922-.828l.89.687q-1.062 1.64-3.187 1.64zm-.188-7.579q-.875 0-1.468.641-.594.625-.735 1.781h4.235v-.11q-.063-1.108-.594-1.702-.531-.61-1.438-.61zm9.243.266q-.329-.062-.72-.062-1.421 0-1.921 1.218v6h-1.453v-8.453h1.406l.031.97q.703-1.126 2.016-1.126.422 0 .64.11v1.343z" fill="#000"/><path d="M670.47 275.86c0-12.82 18.705-23.213 41.779-23.213 23.074 0 41.78 10.393 41.78 23.213s-18.705 23.213-41.78 23.213c-23.074 0-41.779-10.393-41.779-23.213z" fill="#fff2cc" fill-rule="evenodd"/><path d="M670.47 275.86c0-12.82 18.705-23.213 41.779-23.213 23.074 0 41.78 10.393 41.78 23.213s-18.705 23.213-41.78 23.213c-23.074 0-41.779-10.393-41.779-23.213z" stroke="#757575" stroke-linecap="butt" stroke-linejoin="round"/><path d="m692.78 263.61 1.063-.094q.078.656.359 1.063t.86.672q.593.25 1.327.25.641 0 1.141-.188.5-.203.734-.531.25-.344.25-.734 0-.407-.234-.704-.234-.312-.766-.515-.359-.14-1.547-.422-1.171-.281-1.64-.531-.625-.328-.922-.797-.297-.485-.297-1.078 0-.641.36-1.203.374-.579 1.078-.86.718-.297 1.578-.297.953 0 1.687.313.735.297 1.125.906.39.594.422 1.344l-1.094.078q-.094-.813-.61-1.219-.5-.422-1.484-.422-1.03 0-1.5.375t-.468.907q0 .468.328.765t1.703.61q1.39.312 1.906.546.75.36 1.11.891.359.516.359 1.219 0 .687-.39 1.297-.391.593-1.126.937-.734.328-1.656.328-1.172 0-1.969-.328-.781-.344-1.234-1.031-.438-.687-.453-1.547zm7.863-.344q0-1.734.953-2.562.797-.688 1.954-.688 1.28 0 2.093.844.828.828.828 2.313 0 1.203-.359 1.89t-1.062 1.078q-.688.375-1.5.375-1.297 0-2.11-.828-.797-.844-.797-2.422zm1.078 0q0 1.188.516 1.781.531.594 1.313.594.796 0 1.312-.594t.516-1.812q0-1.156-.532-1.75-.515-.594-1.297-.594t-1.312.594q-.516.578-.516 1.781zm10.05.828 1.03.141q-.171 1.062-.874 1.672t-1.72.61q-1.28 0-2.062-.829-.765-.844-.765-2.406 0-1 .328-1.75.344-.766 1.015-1.14.688-.376 1.5-.376 1 0 1.641.516.656.5.844 1.453l-1.031.156q-.141-.625-.516-.937-.375-.328-.906-.328-.797 0-1.297.578-.5.562-.5 1.797 0 1.265.484 1.828t1.25.562q.625 0 1.031-.375.422-.375.547-1.172zm1.937 2.282v-8.594h1.062v4.906l2.485-2.531h1.375l-2.39 2.297 2.624 3.922h-1.297l-2.062-3.188-.735.719v2.469h-1.062zm10.25-2 1.094.125q-.25.953-.953 1.484t-1.782.531q-1.359 0-2.172-.844-.796-.843-.796-2.359 0-1.562.812-2.422.813-.875 2.094-.875 1.25 0 2.031.844.797.844.797 2.39v.282h-4.64q.062 1.031.577 1.578.516.531 1.297.531.579 0 .985-.297.422-.312.656-.969zm-3.453-1.704h3.469q-.063-.796-.391-1.187-.516-.61-1.313-.61-.734 0-1.234.485-.484.484-.531 1.312zm8.174 2.766.156.922q-.453.094-.797.094-.578 0-.89-.172-.313-.188-.454-.485-.125-.296-.125-1.25v-3.578h-.765v-.812h.765v-1.547l1.047-.625v2.172h1.063v.812h-1.063v3.64q0 .454.047.58.063.124.188.202t.359.078q.187 0 .469-.03zm1.318-4.078v-1.203h1.203v1.203h-1.203zm0 5.016v-1.204h1.203v1.204h-1.203zM702.16 280.38v-8.594h3.25q.844 0 1.297.078.64.11 1.062.407.438.296.688.828.266.53.266 1.172 0 1.093-.704 1.859-.687.75-2.515.75H703.3v3.5h-1.14zm1.14-4.5h2.22q1.109 0 1.562-.406.469-.422.469-1.172 0-.531-.282-.906-.265-.391-.703-.516-.297-.078-1.062-.078H703.3v3.078zm6.348 1.39q0-1.734.953-2.562.797-.687 1.954-.687 1.28 0 2.093.843.828.828.828 2.313 0 1.203-.359 1.89t-1.062 1.079q-.688.375-1.5.375-1.297 0-2.11-.829-.797-.843-.797-2.421zm1.078 0q0 1.188.516 1.782.531.594 1.313.594.796 0 1.312-.594t.516-1.813q0-1.156-.532-1.75-.515-.593-1.297-.593t-1.312.593q-.516.578-.516 1.782zm5.971 3.11v-6.219h.953v.938q.36-.657.656-.86.313-.218.688-.218.531 0 1.078.328l-.36.984q-.39-.234-.765-.234-.36 0-.64.218-.266.204-.376.579-.187.562-.187 1.218v3.266h-1.047zm6.309-.938.156.922q-.453.094-.797.094-.578 0-.89-.172-.313-.187-.454-.484-.125-.297-.125-1.25v-3.578h-.765v-.813h.765v-1.547l1.047-.625v2.172h1.063v.813h-1.063v3.64q0 .453.047.578.063.125.188.204t.359.078q.187 0 .469-.032zM706.11 294.38v-2.063h-3.719v-.968l3.922-5.563h.86v5.563h1.156v.969h-1.157v2.062h-1.062zm0-3.031v-3.86l-2.688 3.86h2.688zm6.674 3.031v-2.063h-3.719v-.968l3.922-5.563h.86v5.563h1.155v.969h-1.156v2.062h-1.062zm0-3.031v-3.86l-2.688 3.86h2.688zm3.299.765 1.062-.14q.172.89.61 1.297.437.39 1.062.39.75 0 1.266-.515t.515-1.282q0-.718-.484-1.187-.469-.484-1.203-.484-.297 0-.75.125l.125-.938q.11.016.172.016.671 0 1.203-.344.547-.36.547-1.094 0-.578-.391-.953-.39-.39-1.016-.39-.609 0-1.03.39-.407.39-.516 1.156l-1.063-.187q.188-1.047.875-1.625.688-.594 1.703-.594.703 0 1.297.313.594.296.906.812t.313 1.11q0 .546-.297 1.015-.297.453-.875.719.75.172 1.172.734.422.547.422 1.39 0 1.126-.828 1.907-.813.781-2.063.781-1.125 0-1.875-.672-.75-.687-.86-1.75z" fill="#000"/><path d="M766.06 249.22h85.76v48.633h-85.76z" fill="#c9daf8" fill-rule="evenodd"/><path d="M766.06 249.22h85.76v48.633h-85.76z" stroke="#757575" stroke-linecap="butt" stroke-linejoin="round"/><path d="M761.08 257.95h85.76v48.633h-85.76z" fill="#c9daf8" fill-rule="evenodd"/><path d="M761.08 257.95h85.76v48.633h-85.76z" stroke="#757575" stroke-linecap="butt" stroke-linejoin="round"/><path d="M781.22 271.07v-9.547h1.266v8.422h4.703v1.125h-5.97zm7.334-8.188v-1.359h1.172v1.36h-1.172zm0 8.188v-6.906h1.172v6.906h-1.172zm2.477-2.063 1.156-.187q.11.703.547 1.078.453.36 1.25.36.813 0 1.203-.329t.39-.765q0-.39-.358-.625-.235-.157-1.188-.39-1.297-.329-1.797-.563-.484-.25-.75-.657-.25-.422-.25-.937 0-.453.203-.844.219-.406.578-.672.282-.187.75-.328t1.016-.14q.812 0 1.422.234t.906.64q.297.391.406 1.063l-1.14.156q-.078-.531-.453-.828-.375-.312-1.063-.312-.812 0-1.156.265t-.344.625q0 .235.14.422.157.188.454.313.172.062 1.031.297 1.25.328 1.735.546.5.204.78.61t.282 1-.344 1.11-1 .796q-.64.281-1.453.281-1.344 0-2.047-.562t-.906-1.656zm9.695 1.016.172 1.031q-.5.11-.89.11-.641 0-1-.203-.344-.204-.485-.532t-.14-1.39v-3.97h-.86v-.905h.86v-1.72l1.172-.702v2.422h1.171v.906h-1.171v4.047q0 .5.046.64.063.141.204.235.14.078.406.078.203 0 .515-.047zm5.875-1.172 1.203.14q-.28 1.063-1.062 1.657-.766.578-1.969.578-1.516 0-2.406-.937t-.89-2.61q0-1.75.89-2.703.906-.969 2.344-.969 1.39 0 2.265.938t.875 2.656v.313h-5.156q.063 1.14.64 1.75.579.593 1.438.593.656 0 1.11-.328.453-.344.718-1.078zm-3.843-1.906h3.859q-.078-.86-.438-1.297-.562-.687-1.453-.687-.812 0-1.36.546-.546.532-.608 1.438zm6.521 4.125v-6.906h1.063v.984q.75-1.14 2.187-1.14.625 0 1.157.218t.78.594q.266.36.376.86.062.328.062 1.14v4.25h-1.172v-4.203q0-.719-.14-1.063-.14-.359-.485-.562-.343-.219-.812-.219-.75 0-1.297.469t-.547 1.797v3.781h-1.172zm12.147-2.219 1.204.14q-.282 1.063-1.063 1.657-.766.578-1.969.578-1.515 0-2.406-.937t-.89-2.61q0-1.75.89-2.703.906-.969 2.344-.969 1.39 0 2.265.938t.875 2.656v.313h-5.156q.063 1.14.64 1.75.579.593 1.438.593.657 0 1.11-.328.453-.344.718-1.078zm-3.843-1.906h3.859q-.078-.86-.437-1.297-.563-.687-1.454-.687-.812 0-1.359.546-.547.532-.61 1.438zm6.506 4.125v-6.906h1.062v1.047q.407-.735.735-.97.343-.233.765-.233.594 0 1.203.375l-.406 1.078q-.437-.25-.86-.25-.39 0-.702.234-.297.234-.422.64-.203.626-.203 1.36v3.625h-1.172zM792.53 287.07v-6h-1.031v-.906h1.031v-.735q0-.703.125-1.047.172-.453.594-.734t1.203-.281q.484 0 1.094.11l-.188 1.03q-.36-.062-.687-.062-.532 0-.75.234-.22.22-.22.844v.64h1.345v.907h-1.344v6h-1.172zm3.437-8.188v-1.359h1.172v1.36h-1.172zm0 8.188v-6.906h1.172v6.906h-1.172zm2.93 0v-9.547h1.172v9.547h-1.172zm5.54-1.047.171 1.031q-.5.11-.89.11-.64 0-1-.203-.344-.204-.485-.532t-.14-1.39v-3.97h-.86v-.905h.86v-1.72l1.172-.702v2.422h1.172v.906h-1.172v4.047q0 .5.047.64.062.141.203.235.14.078.406.078.203 0 .516-.047zm5.874-1.172 1.204.14q-.282 1.063-1.063 1.657-.766.578-1.969.578-1.515 0-2.406-.937t-.89-2.61q0-1.75.89-2.703.906-.969 2.344-.969 1.39 0 2.265.938t.875 2.656v.313h-5.156q.063 1.14.64 1.75.579.593 1.438.593.657 0 1.11-.328.453-.344.718-1.078zm-3.843-1.906h3.859q-.078-.86-.437-1.297-.563-.687-1.454-.687-.812 0-1.359.546-.547.532-.61 1.438zm6.506 4.125v-6.906h1.062v1.047q.407-.735.735-.97.343-.233.765-.233.594 0 1.203.375l-.406 1.078q-.437-.25-.86-.25-.39 0-.702.234-.297.234-.422.64-.203.626-.203 1.36v3.625h-1.172zM785.12 303.07v-6h-1.031v-.906h1.031v-.735q0-.703.125-1.047.172-.453.594-.734t1.203-.281q.484 0 1.094.11l-.188 1.03q-.36-.062-.687-.062-.532 0-.75.234-.22.22-.22.844v.64h1.345v.907h-1.344v6h-1.172zm7.937-.86q-.656.563-1.265.798-.594.218-1.281.218-1.141 0-1.75-.547-.61-.562-.61-1.437 0-.5.219-.922.234-.422.61-.672t.843-.39q.344-.079 1.047-.172 1.422-.172 2.094-.407v-.297q0-.718-.328-1.015-.453-.39-1.344-.39-.813 0-1.219.296-.39.281-.578 1.016l-1.14-.157q.156-.734.515-1.187t1.031-.688q.672-.25 1.563-.25t1.437.204q.563.203.813.53.265.313.375.798.047.297.047 1.078v1.562q0 1.625.078 2.063t.297.828h-1.22q-.187-.36-.234-.86zm-.093-2.609q-.641.266-1.922.438-.719.11-1.016.25-.297.125-.469.375-.156.25-.156.547 0 .468.344.78.36.313 1.047.313.672 0 1.203-.297t.781-.812q.188-.39.188-1.172v-.422zm7.506.938 1.156.156q-.187 1.187-.969 1.86t-1.922.671q-1.406 0-2.28-.922-.86-.937-.86-2.656 0-1.125.375-1.969t1.125-1.25q.765-.422 1.656-.422 1.125 0 1.844.579.719.562.922 1.609l-1.14.172q-.173-.703-.595-1.047-.406-.36-.984-.36-.89 0-1.453.641-.547.64-.547 2 0 1.406.531 2.031.547.625 1.406.625.688 0 1.141-.421.469-.422.594-1.297zm4.71 1.484.173 1.031q-.5.11-.891.11-.64 0-1-.203-.344-.204-.484-.532t-.141-1.39v-3.97h-.86v-.905h.86v-1.72l1.172-.702v2.422h1.172v.906h-1.172v4.047q0 .5.047.64.062.141.203.235.14.078.406.078.203 0 .516-.047zm.704-2.406q0-1.922 1.078-2.844.89-.766 2.172-.766 1.422 0 2.328.938.906.922.906 2.578 0 1.328-.406 2.094-.39.766-1.156 1.187t-1.672.422q-1.453 0-2.36-.922-.89-.937-.89-2.687zm1.203 0q0 1.328.578 1.984.594.657 1.469.657t1.453-.657q.578-.672.578-2.03 0-1.282-.594-1.938-.578-.657-1.437-.657-.875 0-1.47.657-.577.656-.577 1.984zm6.631 3.453v-6.906h1.062v1.047q.407-.735.735-.969.344-.234.765-.234.594 0 1.204.375l-.407 1.078q-.437-.25-.859-.25-.39 0-.703.234-.297.234-.422.64-.203.626-.203 1.36v3.625h-1.172zm4.407 2.656-.125-1.094q.375.11.656.11.391 0 .625-.14.235-.126.391-.36.11-.172.36-.875.03-.094.109-.281l-2.625-6.922h1.265l1.438 4q.281.765.5 1.593.203-.796.469-1.578l1.484-4.015h1.172l-2.625 7.015q-.422 1.141-.656 1.578-.313.579-.719.844-.406.281-.969.281-.328 0-.75-.156z" fill="#000"/><path d="M689.75 314.6h154.91v86.127H689.75z" fill="#c9daf8" fill-rule="evenodd"/><path d="M689.75 314.6h154.91v86.127H689.75z" stroke="#757575" stroke-linecap="butt" stroke-linejoin="round"/><path d="M686.21 320.68h154.91v86.127H686.21z" fill="#c9daf8" fill-rule="evenodd"/><path d="M686.21 320.68h154.91v86.127H686.21z" stroke="#757575" stroke-linecap="butt" stroke-linejoin="round"/><path d="M701.05 342.48v-9.547h6.438v1.125h-5.172v2.969h4.468v1.125h-4.468v4.328h-1.266zm7.938-8.188v-1.359h1.172v1.36h-1.172zm0 8.188v-6.906h1.172v6.906h-1.172zm2.93 0v-9.547h1.172v9.547h-1.172zm5.54-1.047.171 1.031q-.5.11-.89.11-.641 0-1-.203-.344-.204-.485-.532t-.14-1.39v-3.97h-.86v-.905h.86v-1.72l1.171-.702v2.422h1.172v.906h-1.172v4.047q0 .5.047.64.063.141.203.235.141.078.407.078.203 0 .515-.047zm5.874-1.172 1.203.14q-.28 1.063-1.062 1.657-.766.578-1.969.578-1.516 0-2.406-.937t-.89-2.61q0-1.75.89-2.703.906-.969 2.344-.969 1.39 0 2.265.938t.875 2.656v.313h-5.156q.062 1.14.64 1.75.579.593 1.438.593.656 0 1.11-.328.453-.344.718-1.078zm-3.844-1.906h3.86q-.078-.86-.438-1.297-.562-.687-1.453-.687-.812 0-1.36.546-.546.532-.609 1.438zm6.507 4.125v-6.906h1.062v1.047q.406-.735.734-.969.344-.234.766-.234.594 0 1.203.375l-.406 1.078q-.438-.25-.86-.25-.39 0-.703.234-.296.234-.421.64-.204.626-.204 1.36v3.625h-1.171zm12.673-2.531 1.156.156q-.188 1.188-.969 1.86t-1.922.671q-1.406 0-2.281-.922-.86-.937-.86-2.656 0-1.125.376-1.969t1.125-1.25q.765-.421 1.656-.421 1.125 0 1.844.578.718.562.921 1.61l-1.14.171q-.172-.703-.594-1.047-.406-.36-.984-.36-.89 0-1.453.641-.547.64-.547 2 0 1.407.531 2.032.547.625 1.406.625.688 0 1.14-.422.47-.422.595-1.297zm2.148 2.531v-9.547h1.172v3.422q.828-.938 2.078-.938.766 0 1.328.297t.813.844q.25.531.25 1.547v4.375h-1.172v-4.375q0-.89-.39-1.281-.376-.406-1.079-.406-.516 0-.984.28-.454.266-.657.735-.187.453-.187 1.266v3.781h-1.172zm11.928-.86q-.656.563-1.266.798-.593.218-1.28.218-1.141 0-1.75-.547-.61-.562-.61-1.437 0-.5.219-.922.234-.422.609-.672t.844-.39q.343-.079 1.047-.172 1.422-.172 2.093-.407v-.297q0-.718-.328-1.015-.453-.39-1.344-.39-.812 0-1.218.296-.39.281-.578 1.016l-1.141-.157q.156-.734.516-1.187t1.03-.688q.673-.25 1.563-.25t1.438.204q.562.203.812.53.266.313.375.798.047.297.047 1.078v1.562q0 1.625.078 2.063t.297.828h-1.219q-.187-.36-.234-.86zm-.094-2.609q-.64.266-1.922.438-.718.11-1.015.25-.297.125-.469.375-.156.25-.156.547 0 .468.344.78.359.313 1.046.313.672 0 1.204-.297t.78-.812q.188-.39.188-1.172v-.422zm3.006-4.719v-1.359h1.172v1.36h-1.172zm0 8.188v-6.906h1.172v6.906h-1.172zm2.946 0v-6.906h1.062v.984q.75-1.14 2.188-1.14.625 0 1.156.218t.781.594q.266.36.375.86.063.328.063 1.14v4.25h-1.172v-4.203q0-.719-.14-1.063-.141-.359-.485-.562-.344-.219-.812-.219-.75 0-1.297.469t-.547 1.797v3.781h-1.172zm11.115 0v-6.906h1.047v.968q.328-.515.86-.812.546-.313 1.234-.313.78 0 1.265.313t.688.89q.828-1.203 2.14-1.203 1.032 0 1.578.579.563.562.563 1.734v4.75h-1.172v-4.36q0-.703-.125-1-.11-.312-.406-.5t-.703-.187q-.72 0-1.203.484t-.485 1.547v4.016h-1.172v-4.484q0-.782-.297-1.172-.28-.39-.921-.39-.5 0-.922.265-.422.25-.61.75t-.187 1.453v3.578h-1.172zm15.618-.86q-.656.563-1.266.797-.593.22-1.28.22-1.141 0-1.75-.548-.61-.562-.61-1.437 0-.5.219-.922.234-.422.609-.672t.844-.39q.343-.079 1.047-.172 1.421-.172 2.093-.407v-.297q0-.718-.328-1.015-.453-.39-1.344-.39-.812 0-1.218.296-.391.281-.578 1.016l-1.141-.157q.156-.734.516-1.187t1.03-.688q.673-.25 1.563-.25t1.438.204q.562.203.812.53.266.313.375.798.047.297.047 1.078v1.562q0 1.625.078 2.063t.297.828h-1.219q-.187-.36-.234-.86zm-.094-2.609q-.64.266-1.922.438-.718.109-1.015.25-.297.125-.469.375-.156.25-.156.547 0 .468.343.78.36.313 1.047.313.672 0 1.203-.297t.782-.812q.187-.39.187-1.172v-.422zm5.553 2.422.172 1.031q-.5.11-.89.11-.641 0-1-.203-.344-.204-.485-.532t-.14-1.39v-3.97h-.86v-.905h.86v-1.72l1.171-.702v2.422h1.172v.906h-1.172v4.047q0 .5.047.64.063.141.203.235.141.078.407.078.203 0 .515-.047zm5.656-1.484 1.157.156q-.188 1.187-.97 1.86t-1.921.671q-1.406 0-2.281-.922-.86-.937-.86-2.656 0-1.125.375-1.969t1.125-1.25q.766-.422 1.657-.422 1.125 0 1.843.579.72.562.922 1.609l-1.14.172q-.172-.703-.594-1.047-.406-.36-.984-.36-.891 0-1.454.641-.546.64-.546 2 0 1.406.53 2.031.548.625 1.407.625.687 0 1.14-.422.47-.421.594-1.296zm2.149 2.53v-9.546h1.172v3.422q.828-.938 2.078-.938.765 0 1.328.297t.812.844q.25.531.25 1.547v4.375h-1.171v-4.375q0-.89-.391-1.281-.375-.407-1.078-.407-.516 0-.985.282-.453.265-.656.734-.187.453-.187 1.266v3.78h-1.172zm13.678-1.046.172 1.031q-.5.11-.89.11-.642 0-1-.204-.345-.203-.485-.53t-.14-1.391v-3.97h-.86v-.905h.86v-1.72l1.171-.702v2.421h1.172v.907h-1.172v4.047q0 .5.047.64.062.14.203.235.14.078.406.078.203 0 .516-.047zm1.125 1.047v-6.906h1.062v1.047q.406-.735.735-.97.343-.234.765-.234.594 0 1.203.375l-.406 1.079q-.437-.25-.86-.25-.39 0-.702.234-.297.234-.422.64-.203.626-.203 1.36v3.625h-1.172zm4.47-8.188v-1.36h1.171v1.36h-1.172zm0 8.188v-6.906h1.171v6.906h-1.172zm7.68-2.219 1.202.14q-.28 1.063-1.062 1.657-.766.578-1.969.578-1.516 0-2.406-.938t-.89-2.609q0-1.75.89-2.703.906-.969 2.344-.969 1.39 0 2.265.938t.875 2.656v.312h-5.156q.063 1.141.64 1.75.579.594 1.438.594.656 0 1.11-.328.453-.344.718-1.078zm-3.845-1.906h3.86q-.078-.86-.438-1.297-.562-.688-1.453-.688-.812 0-1.36.547-.546.532-.609 1.438z" fill="#000"/><path d="M760.64 353.75c0-4.644 4.35-8.41 9.717-8.41 5.366 0 9.716 3.766 9.716 8.41s-4.35 8.41-9.716 8.41c-5.367 0-9.717-3.766-9.717-8.41z" fill="#fff2cc" fill-rule="evenodd"/><path d="M760.64 353.75c0-4.644 4.35-8.41 9.717-8.41 5.366 0 9.716 3.766 9.716 8.41s-4.35 8.41-9.716 8.41c-5.367 0-9.717-3.766-9.717-8.41z" stroke="#757575" stroke-linecap="butt" stroke-linejoin="round"/><path d="M741.19 373.75c0-4.644 4.35-8.41 9.716-8.41 5.367 0 9.717 3.766 9.717 8.41s-4.35 8.41-9.717 8.41c-5.366 0-9.716-3.766-9.716-8.41z" fill="#fff2cc" fill-rule="evenodd"/><path d="M741.19 373.75c0-4.644 4.35-8.41 9.716-8.41 5.367 0 9.717 3.766 9.717 8.41s-4.35 8.41-9.717 8.41c-5.366 0-9.716-3.766-9.716-8.41z" stroke="#757575" stroke-linecap="butt" stroke-linejoin="round"/><path d="M775.01 376.07c0-4.644 4.35-8.41 9.717-8.41 5.366 0 9.716 3.765 9.716 8.41 0 4.644-4.35 8.41-9.716 8.41-5.367 0-9.717-3.766-9.717-8.41z" fill="#fff2cc" fill-rule="evenodd"/><path d="M775.01 376.07c0-4.644 4.35-8.41 9.717-8.41 5.366 0 9.716 3.765 9.716 8.41 0 4.644-4.35 8.41-9.716 8.41-5.367 0-9.717-3.766-9.717-8.41z" stroke="#757575" stroke-linecap="butt" stroke-linejoin="round"/><path d="M755.56 398.39c0-4.644 4.35-8.41 9.716-8.41 5.367 0 9.717 3.765 9.717 8.41 0 4.644-4.35 8.41-9.717 8.41-5.366 0-9.716-3.766-9.716-8.41z" fill="#fff2cc" fill-rule="evenodd"/><path d="M755.56 398.39c0-4.644 4.35-8.41 9.716-8.41 5.367 0 9.717 3.765 9.717 8.41 0 4.644-4.35 8.41-9.717 8.41-5.366 0-9.716-3.766-9.716-8.41z" stroke="#757575" stroke-linecap="butt" stroke-linejoin="round"/><path d="m777.23 359.69 7.496 7.968" fill="none"/><path d="m777.23 359.69 7.496 7.968" stroke="#757575" stroke-linecap="butt" stroke-linejoin="round"/><path d="m763.49 359.69-5.7 8.126" fill="none"/><path d="m763.49 359.69-5.7 8.126" stroke="#757575" stroke-linecap="butt" stroke-linejoin="round"/><path d="m777.85 382.01-5.7 10.425" fill="none"/><path d="m777.85 382.01-5.7 10.425" stroke="#757575" stroke-linecap="butt" stroke-linejoin="round"/><path d="M263.46 5.417h357.92v46.425H263.46z" fill="none"/><path d="M273.82 32.337V18.978h1.781v6.625l6.625-6.625h2.39l-5.593 5.422 5.844 7.937h-2.328l-4.766-6.765-2.172 2.14v4.625h-1.781zm18.944-3.11 1.688.204q-.407 1.484-1.485 2.312-1.078.813-2.765.813-2.125 0-3.375-1.297-1.235-1.313-1.235-3.672 0-2.453 1.25-3.797 1.266-1.344 3.266-1.344 1.937 0 3.156 1.328 1.234 1.313 1.234 3.703v.438h-7.218q.093 1.594.906 2.453.812.844 2.015.844.907 0 1.547-.469.64-.484 1.016-1.516zm-5.39-2.656h5.406q-.11-1.218-.625-1.828-.782-.953-2.032-.953-1.125 0-1.906.766-.765.75-.844 2.015zm9.125 5.766v-9.672h1.469v1.469q.562-1.031 1.031-1.36.484-.328 1.063-.328.828 0 1.687.532l-.562 1.515q-.61-.36-1.204-.36-.546 0-.968.329t-.61.89q-.28.876-.28 1.922v5.063h-1.626zm6.228 0v-9.672h1.47v1.375q1.062-1.594 3.077-1.594.875 0 1.61.313t1.093.828q.375.5.516 1.203.094.453.094 1.594v5.953h-1.64v-5.89q0-1-.204-1.485-.187-.5-.672-.797t-1.14-.297q-1.047 0-1.813.672-.75.656-.75 2.516v5.28h-1.64zm17.001-3.11 1.688.204q-.406 1.484-1.485 2.312-1.078.813-2.765.813-2.125 0-3.375-1.297-1.235-1.313-1.235-3.672 0-2.453 1.25-3.797 1.266-1.344 3.266-1.344 1.938 0 3.156 1.328 1.235 1.313 1.235 3.703v.438h-7.22q.095 1.594.907 2.453.813.844 2.016.844.906 0 1.547-.469.64-.484 1.015-1.516zm-5.39-2.656h5.406q-.11-1.218-.625-1.828-.781-.953-2.031-.953-1.125 0-1.906.766-.766.75-.844 2.015zm9.094 5.766V18.978h1.64v13.359h-1.64zm12.647 0V20.556h-4.406v-1.578h10.578v1.578h-4.406v11.781h-1.766zm17.521-4.688 1.766.454q-.563 2.172-2 3.328-1.438 1.14-3.531 1.14-2.157 0-3.516-.875-1.344-.89-2.062-2.547-.704-1.671-.704-3.593 0-2.078.797-3.625.797-1.563 2.266-2.36 1.484-.812 3.25-.812 2 0 3.36 1.015 1.374 1.016 1.906 2.875l-1.735.407q-.469-1.454-1.36-2.11-.874-.672-2.202-.672-1.547 0-2.578.735t-1.454 1.984q-.421 1.234-.421 2.563 0 1.703.5 2.968t1.546 1.907q1.047.625 2.266.625 1.484 0 2.516-.86t1.39-2.547zm3.942 4.688V18.978h5.047q1.328 0 2.031.125.969.172 1.64.64.673.454 1.079 1.282t.406 1.828q0 1.703-1.094 2.89-1.078 1.172-3.922 1.172h-3.422v5.422h-1.765zm1.766-7h3.453q1.718 0 2.437-.64t.719-1.798q0-.843-.422-1.437t-1.125-.781q-.437-.125-1.64-.125h-3.422v4.78zm21.633 5.813q-.922.765-1.766 1.093-.828.313-1.797.313-1.594 0-2.453-.781-.86-.782-.86-1.985 0-.719.329-1.297.328-.593.843-.937.532-.36 1.188-.547.469-.125 1.453-.25 1.984-.235 2.922-.563.016-.343.016-.422 0-1-.47-1.421-.624-.547-1.874-.547-1.156 0-1.703.406t-.813 1.422l-1.61-.219q.22-1.015.72-1.64.5-.641 1.453-.985t2.187-.344q1.25 0 2.016.297.781.282 1.14.735.375.437.516 1.109.078.422.078 1.516v2.187q0 2.281.11 2.89.109.594.406 1.157h-1.703q-.266-.516-.328-1.187zm-.141-3.672q-.89.375-2.672.625-1.016.14-1.437.328t-.657.531q-.218.344-.218.781 0 .656.5 1.094t1.453.438q.937 0 1.672-.407.75-.422 1.093-1.14.266-.563.266-1.64v-.61zm10.516 1.312 1.61.219q-.266 1.656-1.36 2.61-1.078.937-2.672.937-1.984 0-3.187-1.297-1.204-1.297-1.204-3.719 0-1.578.516-2.75t1.578-1.75q1.063-.594 2.313-.594 1.578 0 2.578.797t1.281 2.266l-1.594.234q-.234-.969-.812-1.453-.578-.5-1.39-.5-1.235 0-2.017.89t-.78 2.813q0 1.953.75 2.844.75.875 1.952.875.97 0 1.61-.594.656-.594.828-1.828zm9.328 0 1.61.219q-.266 1.656-1.36 2.61-1.078.937-2.672.937-1.984 0-3.187-1.297-1.203-1.297-1.203-3.719 0-1.578.515-2.75t1.578-1.75q1.063-.594 2.313-.594 1.578 0 2.578.797t1.281 2.266l-1.594.234q-.234-.969-.812-1.453-.578-.5-1.39-.5-1.235 0-2.016.89t-.782 2.813q0 1.953.75 2.844.75.875 1.953.875.97 0 1.61-.594.656-.594.828-1.828zm9.64.438 1.688.203q-.406 1.484-1.484 2.312-1.078.813-2.766.813-2.125 0-3.375-1.297-1.234-1.313-1.234-3.672 0-2.453 1.25-3.797 1.265-1.344 3.265-1.344 1.938 0 3.157 1.328 1.234 1.313 1.234 3.703v.438H404.8q.094 1.594.906 2.453.813.844 2.016.844.906 0 1.547-.469.64-.484 1.016-1.516zm-5.39-2.657h5.406q-.11-1.218-.625-1.828-.781-.953-2.03-.953-1.126 0-1.907.766-.766.75-.844 2.015zm9.141 9.47V22.664h1.485v1.25q.531-.734 1.187-1.094.672-.375 1.625-.375 1.235 0 2.172.641.953.625 1.438 1.797.484 1.156.484 2.547 0 1.484-.531 2.672t-1.547 1.828q-1.016.625-2.14.625-.813 0-1.47-.344-.656-.344-1.062-.875v4.703h-1.64zm1.485-8.485q0 1.86.75 2.765.765.891 1.828.891 1.094 0 1.875-.922.781-.937.781-2.875 0-1.844-.765-2.765-.75-.922-1.813-.922-1.047 0-1.86.984-.796.969-.796 2.844zm12.469 3.312.234 1.453q-.687.141-1.234.141-.89 0-1.39-.281-.485-.281-.688-.735-.203-.468-.203-1.937V23.93h-1.203v-1.266h1.203v-2.39l1.625-.985v3.375h1.656v1.266h-1.656v5.672q0 .687.078.89.094.203.281.328.203.11.578.11.266 0 .719-.063zm7.179 1.47V23.93h-1.453v-1.266h1.453v-1.031q0-.969.172-1.453.234-.64.828-1.031t1.672-.39q.687 0 1.531.155l-.25 1.438q-.5-.094-.953-.094-.75 0-1.063.328-.312.313-.312 1.188v.89h1.89v1.266h-1.89v8.406h-1.625zm4.183-4.845q0-2.687 1.485-3.968 1.25-1.079 3.047-1.079 2 0 3.265 1.313 1.266 1.297 1.266 3.61 0 1.859-.563 2.937-.562 1.062-1.64 1.656-1.063.594-2.328.594-2.032 0-3.282-1.297-1.25-1.313-1.25-3.766zm1.688 0q0 1.86.797 2.797.812.922 2.047.922 1.218 0 2.03-.922.813-.937.813-2.844 0-1.796-.812-2.718t-2.031-.922q-1.235 0-2.047.922-.797.906-.797 2.765zm9.282 4.844v-9.672h1.469v1.469q.562-1.031 1.03-1.36.485-.328 1.063-.328.828 0 1.688.532l-.563 1.515q-.61-.359-1.203-.359-.547 0-.969.328t-.609.89q-.281.876-.281 1.923v5.062h-1.625zm11.412 3.703V22.665h1.484v1.25q.531-.734 1.188-1.094.672-.375 1.625-.375 1.234 0 2.172.641.953.625 1.437 1.797.484 1.156.484 2.547 0 1.484-.53 2.672t-1.548 1.828q-1.015.625-2.14.625-.813 0-1.47-.344-.655-.344-1.062-.875v4.703h-1.64zm1.484-8.484q0 1.86.75 2.765.766.891 1.828.891 1.094 0 1.875-.922.782-.937.782-2.875 0-1.844-.766-2.765-.75-.922-1.813-.922-1.046 0-1.859.984-.797.969-.797 2.844zm8.282-.063q0-2.687 1.485-3.968 1.25-1.079 3.046-1.079 2 0 3.266 1.313 1.266 1.297 1.266 3.61 0 1.859-.563 2.937-.562 1.062-1.64 1.656-1.063.594-2.329.594-2.03 0-3.28-1.297-1.25-1.313-1.25-3.766zm1.688 0q0 1.86.797 2.797.812.922 2.046.922 1.22 0 2.032-.922.812-.937.812-2.844 0-1.796-.812-2.718t-2.032-.922q-1.234 0-2.046.922-.797.906-.797 2.765zm9.282 4.844v-9.672h1.468v1.469q.563-1.031 1.032-1.36.484-.328 1.062-.328.828 0 1.688.532l-.563 1.515q-.61-.359-1.203-.359-.547 0-.969.328t-.61.89q-.28.876-.28 1.923v5.062h-1.625zm9.806-1.469.234 1.453q-.687.141-1.234.141-.89 0-1.39-.281-.485-.281-.688-.735-.203-.468-.203-1.937V23.93h-1.203v-1.266h1.203v-2.39l1.625-.985v3.375h1.656v1.266h-1.656v5.672q0 .687.078.89.094.203.281.328.203.11.578.11.266 0 .72-.063zm11.585 1.47v-3.204h-5.797v-1.5l6.094-8.656h1.344v8.656h1.797v1.5H505.5v3.203h-1.64zm0-4.704v-6.016l-4.187 6.016h4.187zm10.376 4.703v-3.203h-5.797v-1.5l6.094-8.656h1.344v8.656h1.797v1.5h-1.797v3.203h-1.64zm0-4.703v-6.016l-4.187 6.016h4.187zm5.126 1.172 1.64-.219q.282 1.406.953 2.016.688.61 1.657.61 1.156 0 1.953-.798t.797-1.984q0-1.125-.735-1.86t-1.875-.734q-.468 0-1.156.172l.188-1.438q.156.016.265.016 1.047 0 1.875-.547.844-.547.844-1.672 0-.906-.61-1.5t-1.578-.593q-.953 0-1.593.609-.64.594-.813 1.797l-1.64-.297q.296-1.64 1.359-2.547t2.656-.906q1.094 0 2 .469.922.468 1.406 1.28.5.813.5 1.72 0 .859-.468 1.578-.47.703-1.375 1.125 1.187.28 1.843 1.14t.657 2.156q0 1.735-1.282 2.954-1.265 1.218-3.218 1.218-1.766 0-2.922-1.047-1.156-1.046-1.328-2.718z" fill="#000"/><path d="m411.04 40.547-7.276 212.76" fill="none"/><path d="m411.04 40.547-6.807 199.06" stroke="red" stroke-linecap="butt" stroke-linejoin="round" stroke-width="4"/><path d="m404.23 239.6-4.342-4.65 4.073 12.507 4.919-12.198z" fill="red" fill-rule="evenodd" stroke="red" stroke-linecap="butt" stroke-width="4"/><path d="m411.05 41.56 301.2 211.09" fill="none"/><path d="m411.05 41.56 289.97 203.22" stroke="red" stroke-dasharray="4.0,12.0" stroke-linecap="butt" stroke-linejoin="round" stroke-width="4"/><path d="m701.02 244.78-6.265 1.102 12.703 3.41-7.54-10.778z" fill="red" fill-rule="evenodd" stroke="red" stroke-linecap="butt" stroke-width="4"/><path d="M412.07 42.6 97.33 252.65" fill="none"/><path d="M412.07 42.6 108.73 245.04" stroke="red" stroke-dasharray="4.0,12.0" stroke-linecap="butt" stroke-linejoin="round" stroke-width="4"/><path d="m108.73 245.04 1.245-6.239-7.783 10.602 12.777-3.119z" fill="red" fill-rule="evenodd" stroke="red" stroke-linecap="butt" stroke-width="4"/></g></svg>