<svg fill="none" stroke-linecap="square" stroke-miterlimit="10" viewBox="0 0 930.35 399.38" xmlns="http://www.w3.org/2000/svg"><clipPath id="a"><path d="M0 0h930.35v399.38H0V0z"/></clipPath><g clip-path="url(#a)"><path d="M0 0h930.35v399.38H0z" fill="none"/><path d="M299.13 50.94H467.1v107.02H299.13z" fill="#fce5cd" fill-rule="evenodd"/><path d="M299.13 50.94H467.1v107.02H299.13z" stroke="#757575" stroke-linecap="butt" stroke-linejoin="round"/><path d="m341.21 106.68 1.766.453q-.563 2.172-2 3.328-1.438 1.14-3.532 1.14-2.156 0-3.515-.874-1.344-.89-2.063-2.547-.703-1.672-.703-3.594 0-2.078.797-3.625.797-1.562 2.266-2.36 1.484-.812 3.25-.812 2 0 3.36 1.016 1.374 1.015 1.905 2.875l-1.734.406q-.469-1.453-1.36-2.11-.875-.671-2.203-.671-1.547 0-2.578.734t-1.453 1.985q-.422 1.234-.422 2.562 0 1.703.5 2.969t1.547 1.906q1.047.625 2.266.625 1.484 0 2.515-.86t1.391-2.546zm10.067 4.688v-1.422q-1.125 1.64-3.063 1.64-.859 0-1.609-.328-.734-.328-1.094-.828t-.5-1.219q-.11-.469-.11-1.531v-5.984h1.642v5.359q0 1.281.109 1.734.156.641.656 1.016t1.235.375 1.375-.375q.656-.39.921-1.031.266-.656.266-1.89v-5.188h1.64v9.672h-1.468zm3.391-2.891 1.625-.25q.125.969.75 1.5.625.516 1.75.516t1.672-.454q.547-.468.547-1.093 0-.547-.484-.875-.328-.22-1.672-.547-1.813-.469-2.516-.797-.687-.328-1.047-.906-.359-.594-.359-1.313 0-.64.297-1.187.297-.563.812-.922.375-.282 1.032-.469.671-.203 1.421-.203 1.141 0 2 .328t1.266.89q.422.563.578 1.5l-1.61.22q-.109-.75-.64-1.173-.515-.421-1.469-.421-1.14 0-1.625.375-.468.375-.468.875 0 .312.187.578.203.265.64.437.235.094 1.438.422 1.75.453 2.438.75t1.078.86.39 1.406q0 .828-.484 1.547-.469.718-1.375 1.125-.906.39-2.047.39-1.875 0-2.875-.781-.984-.781-1.25-2.328zm13.562 1.422.235 1.453q-.688.14-1.235.14-.89 0-1.39-.28-.485-.282-.688-.735-.203-.469-.203-1.938v-5.578h-1.203v-1.265h1.203v-2.39l1.625-.985v3.375h1.656v1.265h-1.656v5.672q0 .688.078.89.094.204.282.329.203.11.578.11.265 0 .718-.063zm.996-3.375q0-2.688 1.485-3.969 1.25-1.078 3.046-1.078 2 0 3.266 1.312 1.266 1.297 1.266 3.61 0 1.86-.563 2.937-.562 1.063-1.64 1.656-1.063.594-2.329.594-2.03 0-3.28-1.297-1.25-1.312-1.25-3.765zm1.688 0q0 1.86.797 2.797.812.922 2.046.922 1.22 0 2.032-.922.812-.938.812-2.844 0-1.797-.812-2.719t-2.032-.922q-1.234 0-2.046.922-.797.906-.797 2.766zm9.297 4.844v-9.672h1.47v1.36q.452-.72 1.202-1.142.766-.437 1.719-.437 1.078 0 1.766.453.687.438.968 1.235 1.157-1.688 2.985-1.688 1.453 0 2.219.797.78.797.78 2.453v6.64h-1.64v-6.093q0-.985-.156-1.406-.156-.438-.578-.704t-.985-.265q-1.015 0-1.687.687-.672.672-.672 2.157v5.625h-1.64v-6.282q0-1.093-.407-1.64t-1.312-.547q-.688 0-1.281.36t-.86 1.062q-.25.703-.25 2.031v5.016h-1.64zm15.838 0v-13.36h9.016v1.579h-7.25v4.14h6.265v1.578h-6.265v6.063h-1.766zm11.1-11.47v-1.89h1.64v1.89h-1.64zm0 11.47v-9.672h1.64v9.672h-1.64zm4.097 0v-13.36h1.64v13.36h-1.64zm7.77-1.47.234 1.454q-.687.14-1.234.14-.89 0-1.39-.28-.485-.282-.688-.735-.203-.469-.203-1.938v-5.578h-1.203v-1.265h1.203v-2.39l1.625-.985v3.375h1.656v1.265h-1.656v5.672q0 .688.078.89.094.204.281.329.203.11.578.11.266 0 .72-.063zm8.23-1.64 1.688.203q-.406 1.485-1.485 2.313-1.078.812-2.765.812-2.125 0-3.375-1.297-1.235-1.312-1.235-3.671 0-2.454 1.25-3.797 1.266-1.344 3.266-1.344 1.937 0 3.156 1.328 1.235 1.312 1.235 3.703v.438h-7.22q.095 1.593.907 2.453.813.843 2.016.843.906 0 1.547-.468.64-.485 1.015-1.516zm-5.39-2.656h5.406q-.11-1.219-.625-1.828-.781-.953-2.031-.953-1.125 0-1.906.765-.766.75-.844 2.016zm9.125 5.766v-9.672h1.47v1.468q.562-1.03 1.03-1.359.485-.328 1.063-.328.828 0 1.687.531l-.562 1.516q-.61-.36-1.203-.36-.547 0-.969.329t-.61.89q-.28.875-.28 1.922v5.063h-1.626z" fill="#000"/><path d="M504.68 50.94h167.97v107.02H504.68z" fill="#fce5cd" fill-rule="evenodd"/><path d="M504.68 50.94h167.97v107.02H504.68z" stroke="#757575" stroke-linecap="butt" stroke-linejoin="round"/><path d="M565.51 111.37v-9.672h1.469v1.469q.562-1.031 1.031-1.36.484-.328 1.063-.328.828 0 1.687.532l-.563 1.515q-.609-.36-1.203-.36-.546 0-.968.329t-.61.89q-.281.876-.281 1.922v5.063h-1.625zm5.619-4.844q0-2.687 1.484-3.969 1.25-1.078 3.047-1.078 2 0 3.266 1.313 1.265 1.297 1.265 3.61 0 1.859-.562 2.937-.563 1.062-1.64 1.656-1.063.594-2.329.594-2.031 0-3.281-1.297-1.25-1.313-1.25-3.766zm1.687 0q0 1.86.797 2.797.813.922 2.047.922 1.219 0 2.031-.922.813-.937.813-2.844 0-1.797-.813-2.719t-2.03-.921q-1.235 0-2.048.921-.797.907-.797 2.766zm15.626 4.844v-1.422q-1.125 1.64-3.062 1.64-.86 0-1.61-.327-.734-.329-1.093-.829t-.5-1.218q-.11-.47-.11-1.532v-5.984h1.64v5.36q0 1.28.11 1.734.157.64.657 1.015t1.234.375 1.375-.375q.656-.39.922-1.03.265-.657.265-1.891v-5.188h1.641v9.672h-1.469zm7.626-1.469.234 1.453q-.687.14-1.234.14-.89 0-1.39-.28-.485-.282-.688-.735-.203-.468-.203-1.937v-5.578h-1.203v-1.266h1.203v-2.39l1.625-.985v3.375h1.656v1.266h-1.656v5.672q0 .687.078.89.094.203.281.328.203.11.578.11.266 0 .72-.063zm8.23-1.64 1.688.203q-.406 1.484-1.485 2.312-1.078.813-2.765.813-2.125 0-3.375-1.297-1.235-1.313-1.235-3.672 0-2.453 1.25-3.797 1.266-1.344 3.266-1.344 1.937 0 3.156 1.328 1.235 1.313 1.235 3.703v.438h-7.22q.095 1.594.907 2.453.813.844 2.016.844.906 0 1.547-.469.64-.484 1.015-1.516zm-5.39-2.657h5.406q-.11-1.218-.625-1.828-.781-.953-2.031-.953-1.125 0-1.906.766-.766.75-.844 2.015zm9.125 5.766v-9.672h1.47v1.469q.562-1.031 1.03-1.36.485-.328 1.063-.328.828 0 1.687.532l-.562 1.515q-.61-.36-1.203-.36-.547 0-.969.329t-.61.89q-.28.876-.28 1.922v5.063h-1.626z" fill="#000"/><path d="M467.09 104.45h37.575" fill="none"/><path d="M467.09 104.45h23.866" stroke="red" stroke-linecap="butt" stroke-linejoin="round" stroke-width="4"/><path d="m490.96 104.45-4.498 4.498 12.359-4.498-12.36-4.498z" fill="red" fill-rule="evenodd" stroke="red" stroke-linecap="butt" stroke-width="4"/><path d="M51.157 119.13h134.27v126.65H51.157z" fill="#d9d2e9" fill-rule="evenodd"/><path d="M51.157 119.13h134.27v126.65H51.157z" stroke="#757575" stroke-linecap="butt" stroke-linejoin="round"/><path d="M87.658 167.37v-13.359h1.766v5.484h6.937v-5.484h1.766v13.359H96.36v-6.297h-6.937v6.297h-1.766zm16.817 0v-11.781h-4.406v-1.578h10.578v1.578h-4.406v11.781h-1.766zm11.396 0v-11.781h-4.406v-1.578h10.578v1.578h-4.406v11.781h-1.766zm7.99 0v-13.359h5.047q1.328 0 2.03.125.97.172 1.641.64.672.454 1.079 1.282t.406 1.828q0 1.703-1.094 2.89-1.078 1.172-3.922 1.172h-3.422v5.422h-1.765zm1.765-7h3.453q1.72 0 2.438-.64t.719-1.798q0-.843-.422-1.437t-1.125-.781q-.438-.125-1.64-.125h-3.423v4.78zm9.24 7.234 3.876-13.812h1.312l-3.86 13.812h-1.327zm14.575-1.812v1.578h-8.828q-.016-.594.187-1.14.344-.907 1.078-1.782.75-.875 2.157-2.015 2.171-1.782 2.937-2.829t.766-1.968q0-.985-.703-1.64-.688-.673-1.813-.673-1.187 0-1.906.719-.703.703-.703 1.953l-1.688-.172q.172-1.89 1.297-2.875 1.14-.984 3.031-.984 1.922 0 3.047 1.062t1.125 2.64q0 .798-.328 1.579t-1.094 1.64q-.75.844-2.53 2.344-1.47 1.235-1.892 1.688-.421.437-.687.875h6.547zM100.95 185.82l1.61.219q-.266 1.656-1.36 2.61-1.078.937-2.672.937-1.984 0-3.187-1.297t-1.203-3.719q0-1.578.515-2.75t1.578-1.75q1.063-.594 2.313-.594 1.578 0 2.578.797t1.281 2.266l-1.594.234q-.234-.969-.812-1.453-.578-.5-1.39-.5-1.235 0-2.016.89t-.782 2.813q0 1.953.75 2.844.75.875 1.953.875.97 0 1.61-.594.656-.594.828-1.828zm2.406-1.297q0-2.687 1.485-3.969 1.25-1.078 3.047-1.078 2 0 3.265 1.313 1.266 1.297 1.266 3.61 0 1.858-.563 2.937-.562 1.062-1.64 1.656-1.063.594-2.328.594-2.032 0-3.282-1.297-1.25-1.313-1.25-3.766zm1.688 0q0 1.86.797 2.797.812.922 2.046.922 1.22 0 2.032-.922.812-.938.812-2.844 0-1.797-.812-2.719t-2.032-.921q-1.234 0-2.046.921-.797.907-.797 2.766zm15.563 4.844v-1.219q-.907 1.438-2.703 1.438-1.157 0-2.125-.641t-1.5-1.781-.532-2.625q0-1.453.485-2.625.484-1.188 1.437-1.813.969-.625 2.172-.625.875 0 1.547.375.688.36 1.11.953v-4.797h1.64v13.36h-1.531zm-5.172-4.828q0 1.86.781 2.781t1.844.922q1.078 0 1.828-.875.75-.89.75-2.688 0-1.984-.766-2.906-.765-.937-1.89-.937-1.078 0-1.813.89t-.734 2.813zm15.907 1.719 1.687.203q-.406 1.484-1.484 2.312-1.078.813-2.766.813-2.125 0-3.375-1.297-1.234-1.313-1.234-3.672 0-2.453 1.25-3.797 1.266-1.344 3.266-1.344 1.937 0 3.156 1.328 1.234 1.313 1.234 3.703v.438h-7.219q.094 1.594.907 2.453.812.844 2.015.844.906 0 1.547-.469.64-.484 1.016-1.516zm-5.39-2.657h5.406q-.11-1.218-.626-1.828-.78-.953-2.03-.953-1.126 0-1.907.766-.766.75-.844 2.015zm15.453 2.22 1.61.218q-.266 1.656-1.36 2.61-1.078.937-2.672.937-1.984 0-3.187-1.297t-1.203-3.719q0-1.578.515-2.75t1.578-1.75q1.063-.594 2.313-.594 1.578 0 2.578.797t1.281 2.266l-1.594.234q-.234-.968-.812-1.453-.578-.5-1.39-.5-1.235 0-2.016.89t-.782 2.813q0 1.953.75 2.844.75.875 1.954.875.968 0 1.609-.594.656-.593.828-1.828zM85.315 215.29q-1.36-1.703-2.297-4t-.937-4.766q0-2.156.703-4.14.828-2.313 2.53-4.594h1.173q-1.094 1.89-1.453 2.703-.547 1.25-.875 2.625-.39 1.703-.39 3.422 0 4.375 2.718 8.75h-1.172zm3.088-3.922v-9.672h1.468v1.375q1.063-1.594 3.079-1.594.875 0 1.609.313t1.094.828q.375.5.515 1.203.094.453.094 1.594v5.953h-1.64v-5.89q0-1-.204-1.485-.187-.5-.671-.797t-1.141-.297q-1.047 0-1.813.672-.75.656-.75 2.516v5.28h-1.64zm10.063.797 1.594.234q.109.75.562 1.078.61.454 1.672.454 1.14 0 1.75-.454.625-.453.844-1.265.125-.5.109-2.11-1.062 1.266-2.672 1.266-2 0-3.094-1.437t-1.093-3.454q0-1.39.5-2.562.515-1.172 1.453-1.797.953-.64 2.25-.64 1.703 0 2.812 1.374v-1.156h1.516v8.36q0 2.265-.469 3.203-.453.937-1.453 1.484-.984.547-2.453.547-1.719 0-2.797-.781-1.063-.766-1.031-2.344zm1.36-5.813q0 1.907.75 2.782.765.875 1.905.875 1.125 0 1.89-.86.767-.875.767-2.734 0-1.781-.797-2.672-.782-.906-1.891-.906-1.094 0-1.86.89-.765.875-.765 2.625zm9.328 5.016V198.01h1.64v4.797q1.141-1.328 2.891-1.328 1.078 0 1.86.422.796.422 1.14 1.172t.344 2.172v6.125h-1.64v-6.125q0-1.235-.532-1.797t-1.516-.563q-.718 0-1.359.39-.64.376-.922 1.016-.266.641-.266 1.782v5.296h-1.64zm13.954-1.469.234 1.453q-.687.141-1.234.141-.89 0-1.39-.281-.485-.281-.688-.735-.203-.468-.203-1.937v-5.578h-1.203v-1.266h1.203v-2.39l1.625-.985v3.375h1.656v1.266h-1.656v5.672q0 .687.078.89.094.203.281.328.203.11.578.11.266 0 .719-.063zm5.183 0 .235 1.453q-.688.141-1.235.141-.89 0-1.39-.281-.485-.281-.688-.735-.203-.468-.203-1.937v-5.578h-1.203v-1.266h1.203v-2.39l1.625-.985v3.375h1.656v1.266h-1.656v5.672q0 .687.078.89.094.203.281.328.203.11.578.11.266 0 .72-.063zm1.605 5.172v-13.375h1.485v1.25q.531-.734 1.187-1.094.672-.375 1.625-.375 1.235 0 2.172.641.953.625 1.438 1.797.484 1.156.484 2.547 0 1.484-.531 2.672t-1.547 1.828q-1.016.625-2.14.625-.813 0-1.47-.344t-1.062-.875v4.703h-1.64zm1.485-8.484q0 1.86.75 2.765.765.891 1.828.891 1.094 0 1.875-.922.781-.937.781-2.875 0-1.844-.765-2.765-.75-.922-1.813-.922-1.047 0-1.86.984-.796.969-.796 2.844zm17.048 3.203v1.578H139.6q-.016-.594.187-1.14.344-.907 1.078-1.782.75-.875 2.156-2.015 2.172-1.782 2.938-2.829t.766-1.968q0-.985-.703-1.64-.688-.673-1.813-.673-1.188 0-1.906.719-.703.703-.703 1.953l-1.688-.172q.172-1.89 1.297-2.875 1.14-.984 3.031-.984 1.922 0 3.047 1.062t1.125 2.64q0 .798-.328 1.579t-1.094 1.64q-.75.844-2.53 2.344-1.47 1.235-1.892 1.688-.421.437-.687.875h6.547zm3.297 5.5h-1.187q2.734-4.375 2.734-8.75 0-1.719-.39-3.39-.313-1.376-.875-2.626-.36-.828-1.47-2.734h1.188q1.703 2.281 2.532 4.594.687 1.984.687 4.14 0 2.47-.937 4.766t-2.282 4z" fill="#000"/><path d="M0 342.83h177.54v54.898H0z" fill="none"/><path d="M21.967 367.19v-11.453h1.563l6.015 8.984v-8.984h1.453v11.453h-1.562l-6.016-9v9h-1.453zm17.07-2.672 1.453.172q-.344 1.281-1.281 1.984-.922.704-2.36.704-1.828 0-2.89-1.125t-1.063-3.141q0-2.094 1.078-3.25t2.797-1.156q1.657 0 2.703 1.14 1.063 1.125 1.063 3.172v.375h-6.188q.079 1.375.766 2.11.703.718 1.735.718.78 0 1.328-.406t.859-1.297zm-4.61-2.281h4.626q-.094-1.047-.532-1.563-.672-.812-1.734-.812-.969 0-1.64.656-.657.64-.72 1.719zm10.899 3.687.203 1.25q-.594.125-1.063.125-.765 0-1.187-.234-.422-.25-.594-.64-.172-.407-.172-1.673v-4.765h-1.031v-1.094h1.031v-2.062l1.406-.844v2.906h1.406v1.094H43.92v4.844q0 .609.063.78.078.173.25.282.172.094.484.094.235 0 .61-.063zm2.914 1.266-2.547-8.297h1.453l1.328 4.781.484 1.782.438-1.704 1.312-4.859h1.453l1.235 4.813.422 1.578.469-1.594 1.421-4.797h1.375l-2.593 8.297h-1.47l-1.312-4.969-.328-1.422-1.672 6.39H48.24zm9.492-4.156q0-2.297 1.281-3.406 1.078-.922 2.61-.922 1.718 0 2.796 1.125 1.094 1.11 1.094 3.094 0 1.593-.484 2.515t-1.406 1.438q-.907.5-2 .5-1.735 0-2.813-1.11-1.078-1.125-1.078-3.234zm1.453 0q0 1.594.687 2.39.704.797 1.75.797t1.735-.797q.703-.796.703-2.437 0-1.531-.703-2.328-.688-.797-1.735-.797t-1.75.797q-.687.781-.687 2.375zm7.96 4.156v-8.297h1.267v1.25q.484-.875.89-1.156t.906-.281q.703 0 1.438.453l-.485 1.297q-.515-.297-1.03-.297-.454 0-.829.281-.36.266-.515.766-.235.75-.235 1.64v4.344h-1.406zm5.345 0v-11.453h1.406v6.531l3.328-3.375h1.828l-3.172 3.078 3.485 5.22H77.63l-2.734-4.25-1 .952v3.297H72.49zm12.773 0v-7.203h-1.235v-1.094h1.235v-.89q0-.829.156-1.235.203-.547.703-.89.516-.344 1.438-.344.593 0 1.312.14l-.203 1.235q-.438-.078-.828-.078-.64 0-.906.28-.266.266-.266 1.016v.766h1.61v1.094h-1.61v7.203h-1.406zm4.117-9.844v-1.61h1.406v1.61H89.38zm0 9.844v-8.297h1.406v8.297H89.38zm3.523 0v-11.453h1.406v11.453h-1.406zm6.649-1.266.203 1.25q-.594.125-1.063.125-.765 0-1.187-.234-.422-.25-.594-.64-.172-.407-.172-1.673v-4.765h-1.031v-1.094h1.031v-2.062l1.406-.844v2.906h1.407v1.094h-1.407v4.844q0 .609.063.78.078.173.25.282.172.094.484.094.235 0 .61-.063zm7.054-1.406 1.453.172q-.343 1.281-1.28 1.984-.923.704-2.36.704-1.828 0-2.89-1.125t-1.063-3.141q0-2.094 1.078-3.25t2.797-1.156q1.656 0 2.703 1.14 1.062 1.125 1.062 3.172v.375h-6.187q.078 1.375.766 2.11.703.718 1.734.718.781 0 1.328-.406t.86-1.297zm-4.609-2.281h4.625q-.094-1.047-.531-1.563-.672-.812-1.735-.812-.968 0-1.64.656-.657.64-.719 1.719zm7.82 4.953v-8.297h1.266v1.25q.484-.875.89-1.156t.907-.281q.703 0 1.437.453l-.484 1.297q-.516-.297-1.031-.297-.453 0-.828.281-.36.266-.516.766-.234.75-.234 1.64v4.344h-1.407zm15.195-3.047 1.39.188q-.233 1.422-1.171 2.234-.922.813-2.281.813-1.703 0-2.75-1.11-1.031-1.125-1.031-3.203 0-1.344.437-2.344.453-1.015 1.36-1.515.921-.5 1.984-.5 1.36 0 2.219.687.86.672 1.093 1.938l-1.359.203q-.203-.828-.703-1.25-.484-.422-1.188-.422-1.062 0-1.734.766-.656.75-.656 2.406 0 1.672.64 2.437.641.75 1.672.75.828 0 1.375-.5.563-.515.703-1.578zm2.594 3.047v-11.453h1.406v4.11q.985-1.141 2.485-1.141.922 0 1.593.36.688.359.97 1 .296.64.296 1.859v5.265h-1.406v-5.265q0-1.047-.453-1.532t-1.297-.484q-.625 0-1.172.328t-.781.89q-.235.548-.235 1.516v4.547h-1.406zm14.305-1.031q-.781.672-1.5.953-.719.266-1.547.266-1.375 0-2.11-.672t-.734-1.703q0-.61.282-1.11.28-.515.718-.812.454-.313 1.016-.469.422-.11 1.25-.203 1.703-.203 2.516-.484v-.375q0-.86-.391-1.204-.547-.484-1.61-.484-.984 0-1.468.36-.469.343-.688 1.218l-1.375-.187q.188-.875.61-1.422.437-.547 1.25-.828.812-.297 1.875-.297t1.718.25q.672.25.985.625t.437.953q.078.36.078 1.297v1.875q0 1.969.079 2.484.093.516.359 1h-1.469q-.219-.437-.281-1.031zm-.11-3.14q-.765.312-2.296.53-.875.126-1.235.282t-.562.469q-.188.296-.188.656 0 .562.422.937.438.375 1.25.375t1.438-.343q.64-.36.937-.985.235-.469.235-1.406v-.516zm3.602-5.673v-1.609h1.407v1.61h-1.407zm0 9.844v-8.297h1.407v8.297h-1.407zm3.555 0v-8.297h1.266v1.172q.906-1.36 2.64-1.36.75 0 1.375.266t.938.704.437 1.046q.078.391.078 1.36v5.11h-1.406v-5.048q0-.859-.172-1.28-.156-.438-.578-.688-.406-.25-.969-.25-.906 0-1.562.578-.64.562-.64 2.156v4.531h-1.407zM58.178 382.03q0-2.297 1.281-3.406 1.078-.922 2.61-.922 1.718 0 2.796 1.125 1.094 1.11 1.094 3.094 0 1.594-.484 2.515t-1.406 1.438q-.907.5-2 .5-1.735 0-2.813-1.11-1.078-1.125-1.078-3.234zm1.453 0q0 1.594.688 2.39.703.797 1.75.797t1.734-.796q.703-.797.703-2.438 0-1.531-.703-2.328-.688-.797-1.734-.797t-1.75.797q-.688.781-.688 2.375zm7.977 4.156v-8.297h1.265v1.172q.907-1.36 2.64-1.36.75 0 1.376.266t.937.704.438 1.046q.078.391.078 1.36v5.11h-1.406v-5.048q0-.859-.172-1.28-.156-.438-.578-.688-.406-.25-.969-.25-.906 0-1.562.578-.641.562-.641 2.156v4.531h-1.406zm9.07 0v-11.453h3.953q1.328 0 2.031.156.985.235 1.688.829.906.765 1.344 1.953.453 1.187.453 2.718 0 1.313-.313 2.329-.297 1-.781 1.656-.469.656-1.031 1.047-.563.375-1.375.578-.797.187-1.828.187h-4.14zm1.516-1.36h2.453q1.125 0 1.765-.202.657-.22 1.032-.594.546-.547.843-1.453t.297-2.203q0-1.797-.594-2.766-.578-.969-1.422-1.297-.609-.234-1.968-.234h-2.407v8.75zm15.273.329q-.782.672-1.5.953-.72.266-1.547.266-1.375 0-2.11-.672t-.734-1.703q0-.61.281-1.11.281-.515.719-.812.453-.313 1.016-.469.421-.11 1.25-.203 1.703-.203 2.515-.484v-.375q0-.86-.39-1.204-.547-.484-1.61-.484-.984 0-1.469.36-.468.343-.687 1.218l-1.375-.187q.187-.875.61-1.422.437-.547 1.25-.828.812-.297 1.874-.297t1.719.25q.672.25.984.625t.438.953q.078.36.078 1.297v1.875q0 1.969.078 2.484.094.516.36 1h-1.47q-.218-.437-.28-1.03zm-.11-3.14q-.765.312-2.297.53-.875.126-1.234.282t-.563.469q-.187.296-.187.656 0 .562.422.937.437.375 1.25.375t1.437-.343q.64-.36.938-.985.234-.469.234-1.406v-.516zm6.664 2.906.203 1.25q-.593.125-1.062.125-.766 0-1.188-.235-.421-.25-.593-.64-.172-.407-.172-1.672v-4.766h-1.031v-1.094h1.03v-2.062l1.407-.844v2.906h1.406v1.094h-1.406v4.844q0 .61.063.781.078.172.25.281.171.094.484.094.234 0 .61-.062zm6.79.234q-.782.672-1.5.953-.72.266-1.547.266-1.375 0-2.11-.672t-.734-1.703q0-.61.281-1.11.281-.515.719-.812.453-.313 1.015-.469.422-.11 1.25-.203 1.703-.203 2.516-.484v-.375q0-.86-.39-1.204-.548-.484-1.61-.484-.984 0-1.469.36-.469.343-.687 1.218l-1.375-.187q.187-.875.609-1.422.438-.547 1.25-.828.813-.297 1.875-.297t1.719.25q.672.25.984.625t.438.953q.078.36.078 1.297v1.875q0 1.969.078 2.484.094.516.36 1h-1.47q-.218-.437-.28-1.031zm-.11-3.14q-.766.312-2.297.53-.875.126-1.234.282t-.563.469q-.187.296-.187.656 0 .562.422.937.437.375 1.25.375t1.437-.343q.64-.36.938-.985.234-.469.234-1.406v-.516zm6.29 7.546q-1.173-1.469-1.985-3.437-.797-1.985-.797-4.094 0-1.86.61-3.563.702-1.968 2.171-3.937h1q-.937 1.625-1.25 2.328-.469 1.078-.75 2.25-.328 1.453-.328 2.938 0 3.75 2.328 7.515h-1zm3.562 0h-1.016q2.344-3.765 2.344-7.515 0-1.47-.344-2.922-.266-1.172-.734-2.25-.313-.703-1.266-2.344h1.016q1.469 1.969 2.172 3.937.593 1.704.593 3.563 0 2.11-.812 4.094-.797 1.968-1.953 3.437z" fill="#000"/><path d="M709.13 165.38H938.3v54.898H709.13z" fill="none"/><path d="M725.58 189.74v-10.109h-3.781v-1.344h9.078v1.344h-3.781v10.109h-1.516zm4.375-4.156q0-2.297 1.281-3.406 1.078-.922 2.61-.922 1.718 0 2.797 1.125 1.093 1.11 1.093 3.094 0 1.593-.484 2.515t-1.406 1.438q-.907.5-2 .5-1.735 0-2.813-1.11-1.078-1.125-1.078-3.234zm1.453 0q0 1.594.688 2.39.703.797 1.75.797t1.734-.797q.703-.796.703-2.437 0-1.531-.703-2.328-.688-.797-1.734-.797t-1.75.797q-.688.781-.688 2.375zm17.86 4.156v-1.219q-.97 1.406-2.642 1.406-.734 0-1.374-.28-.625-.282-.938-.704-.312-.437-.437-1.047-.079-.422-.079-1.312v-5.141h1.407v4.594q0 1.11.078 1.484.14.563.562.875.438.313 1.063.313.64 0 1.187-.313.563-.328.781-.89.235-.563.235-1.625v-4.438h1.406v8.297h-1.25zm3.46 3.188v-11.484h1.281v1.078q.453-.641 1.016-.954.578-.312 1.39-.312 1.063 0 1.875.547t1.22 1.547q.421.984.421 2.172 0 1.28-.469 2.297-.453 1.015-1.328 1.562-.86.547-1.828.547-.703 0-1.265-.297-.547-.297-.907-.75v4.047h-1.406zm1.266-7.297q0 1.609.64 2.375.656.765 1.578.765.938 0 1.61-.797t.672-2.453q0-1.594-.657-2.375-.656-.797-1.562-.797-.89 0-1.594.844-.687.844-.687 2.438zm7.07 1.625 1.39-.22q.11.845.641 1.298.547.437 1.5.437.969 0 1.438-.39.468-.407.468-.938 0-.469-.406-.75-.297-.187-1.437-.469-1.547-.39-2.157-.671-.593-.297-.906-.797-.297-.5-.297-1.11 0-.562.25-1.031t.688-.781q.328-.25.89-.406.579-.172 1.22-.172.984 0 1.718.28t1.078.767q.36.468.5 1.28l-1.375.188q-.094-.64-.547-1t-1.265-.36q-.97 0-1.391.329-.406.312-.406.734 0 .282.172.5t.53.375q.22.078 1.25.36 1.485.39 2.079.656.594.25.922.734.344.485.344 1.203 0 .704-.422 1.329-.406.609-1.188.953-.765.343-1.734.343-1.625 0-2.469-.671t-1.078-2zm11.625 1.218.203 1.25q-.594.125-1.062.125-.766 0-1.188-.234-.422-.25-.594-.64-.172-.407-.172-1.672v-4.766h-1.03v-1.094h1.03v-2.062l1.407-.844v2.906h1.406v1.094h-1.406v4.844q0 .609.062.78.078.173.25.282.172.094.484.094.235 0 .61-.063zm1.367 1.266v-8.297h1.266v1.25q.484-.875.89-1.156t.907-.281q.703 0 1.437.453l-.484 1.297q-.516-.297-1.032-.297-.453 0-.828.281-.359.266-.515.766-.235.75-.235 1.64v4.344h-1.406zm11.016-2.672 1.453.172q-.344 1.281-1.281 1.984-.922.704-2.36.704-1.828 0-2.89-1.125t-1.063-3.141q0-2.094 1.079-3.25t2.796-1.156q1.657 0 2.704 1.14 1.062 1.125 1.062 3.172v.375h-6.187q.078 1.375.765 2.11.703.718 1.735.718.78 0 1.328-.406t.86-1.297zm-4.61-2.281h4.626q-.094-1.047-.532-1.563-.671-.812-1.734-.812-.969 0-1.64.656-.657.64-.72 1.719zm13.243 3.922q-.782.672-1.5.953-.72.266-1.547.266-1.375 0-2.11-.672t-.734-1.703q0-.61.281-1.11.282-.515.719-.812.453-.313 1.016-.47.421-.108 1.25-.202 1.703-.203 2.515-.485v-.375q0-.859-.39-1.203-.547-.484-1.61-.484-.984 0-1.469.36-.468.343-.687 1.218l-1.375-.187q.187-.875.61-1.422.437-.547 1.25-.828.812-.297 1.874-.297t1.72.25q.671.25.983.625t.438.953q.078.36.078 1.297v1.875q0 1.969.078 2.484.094.516.36 1h-1.47q-.218-.437-.28-1.031zm-.11-3.14q-.765.312-2.297.53-.875.125-1.234.282t-.562.468q-.188.297-.188.657 0 .562.422.937.437.375 1.25.375t1.437-.344q.641-.359.938-.984.234-.469.234-1.406v-.516zm3.602 4.171v-8.297h1.25v1.156q.39-.609 1.031-.968.656-.375 1.485-.375.921 0 1.515.39.594.375.828 1.063.985-1.453 2.563-1.453 1.234 0 1.89.687.672.672.672 2.094v5.703h-1.39v-5.234q0-.844-.141-1.203-.14-.375-.5-.594-.36-.235-.844-.235-.875 0-1.453.579t-.578 1.859v4.828h-1.406v-5.39q0-.938-.344-1.407t-1.125-.468q-.594 0-1.094.312t-.734.922q-.219.594-.219 1.719v4.312h-1.406zm23.18-3.047 1.39.188q-.234 1.422-1.171 2.234-.922.813-2.282.813-1.703 0-2.75-1.11-1.03-1.125-1.03-3.203 0-1.344.437-2.344.453-1.015 1.36-1.515.921-.5 1.984-.5 1.359 0 2.218.687.86.672 1.094 1.938l-1.36.203q-.202-.828-.702-1.25-.485-.422-1.188-.422-1.062 0-1.734.766-.657.75-.657 2.406 0 1.672.641 2.437.64.75 1.672.75.828 0 1.375-.5.562-.515.703-1.578zm2.062-1.11q0-2.296 1.282-3.405 1.078-.922 2.609-.922 1.719 0 2.797 1.125 1.094 1.11 1.094 3.094 0 1.593-.485 2.515t-1.406 1.438q-.906.5-2 .5-1.734 0-2.812-1.11-1.078-1.125-1.078-3.234zm1.454 0q0 1.595.687 2.391.703.797 1.75.797t1.734-.797q.704-.796.704-2.437 0-1.531-.704-2.328-.687-.797-1.734-.797t-1.75.797q-.687.781-.687 2.375zm7.976 4.157v-8.297h1.266v1.172q.906-1.36 2.64-1.36.75 0 1.375.266t.938.703.437 1.047q.078.39.078 1.36v5.109h-1.406v-5.047q0-.86-.172-1.281-.156-.438-.578-.688-.406-.25-.969-.25-.906 0-1.562.579-.64.562-.64 2.156v4.531h-1.407zm8.899 0v-8.297h1.265v1.172q.906-1.36 2.64-1.36.75 0 1.376.266t.937.703.438 1.047q.078.39.078 1.36v5.109h-1.406v-5.047q0-.86-.172-1.281-.156-.438-.578-.688-.407-.25-.97-.25-.905 0-1.562.579-.64.562-.64 2.156v4.531h-1.406zm14.57-2.672 1.453.172q-.344 1.281-1.282 1.984-.921.704-2.359.704-1.828 0-2.89-1.125t-1.063-3.141q0-2.094 1.078-3.25t2.797-1.156q1.656 0 2.703 1.14 1.063 1.125 1.063 3.172v.375h-6.188q.078 1.375.766 2.11.703.718 1.734.718.781 0 1.328-.406t.86-1.297zm-4.61-2.281h4.625q-.094-1.047-.531-1.563-.672-.812-1.735-.812-.968 0-1.64.656-.656.64-.719 1.719zm13.242 1.906 1.39.188q-.234 1.422-1.171 2.234-.922.813-2.281.813-1.703 0-2.75-1.11-1.032-1.125-1.032-3.203 0-1.344.438-2.344.453-1.015 1.36-1.515.921-.5 1.984-.5 1.36 0 2.219.687.859.672 1.093 1.938l-1.36.203q-.202-.828-.702-1.25-.485-.422-1.188-.422-1.062 0-1.734.765-.656.75-.656 2.407 0 1.672.64 2.437.64.75 1.672.75.828 0 1.375-.5.563-.515.703-1.578zm5.656 1.781.203 1.25q-.593.125-1.062.125-.766 0-1.188-.234-.421-.25-.593-.64-.172-.407-.172-1.673v-4.765h-1.031v-1.094h1.03v-2.062l1.407-.844v2.906h1.406v1.094h-1.406v4.844q0 .609.063.78.078.173.25.282.171.094.484.094.234 0 .61-.063zm1.383-8.578v-1.61h1.406v1.61h-1.406zm0 9.844v-8.297h1.406v8.297h-1.406zm3.024-4.156q0-2.297 1.28-3.406 1.079-.922 2.61-.922 1.719 0 2.797 1.125 1.094 1.11 1.094 3.094 0 1.593-.485 2.515t-1.406 1.438q-.906.5-2 .5-1.734 0-2.812-1.11-1.078-1.125-1.078-3.234zm1.453 0q0 1.594.687 2.39.703.797 1.75.797t1.735-.797q.703-.796.703-2.437 0-1.531-.703-2.328-.688-.797-1.735-.797t-1.75.797q-.687.781-.687 2.375zm7.976 4.156v-8.297h1.266v1.172q.906-1.36 2.64-1.36.75 0 1.375.266t.938.703.437 1.047q.079.39.079 1.36v5.109h-1.407v-5.047q0-.86-.172-1.281-.156-.438-.578-.688-.406-.25-.968-.25-.907 0-1.563.579-.64.562-.64 2.156v4.531h-1.407zm13.344 3.188v-11.484h1.281v1.078q.454-.641 1.016-.954.578-.312 1.39-.312 1.063 0 1.876.547t1.218 1.547q.422.984.422 2.172 0 1.28-.468 2.297-.454 1.015-1.329 1.562-.859.547-1.828.547-.703 0-1.265-.297-.547-.297-.907-.75v4.047h-1.406zm1.266-7.297q0 1.609.64 2.375.657.765 1.579.765.937 0 1.609-.797t.672-2.453q0-1.594-.656-2.375-.657-.797-1.563-.797-.89 0-1.594.844-.687.844-.687 2.438zm7.101-.047q0-2.297 1.282-3.406 1.078-.922 2.609-.922 1.719 0 2.797 1.125 1.094 1.109 1.094 3.093 0 1.594-.485 2.516t-1.406 1.438q-.906.5-2 .5-1.734 0-2.812-1.11-1.078-1.125-1.078-3.234zm1.454 0q0 1.594.687 2.39.703.797 1.75.797t1.734-.797q.704-.797.704-2.437 0-1.531-.704-2.328-.687-.797-1.734-.797t-1.75.797q-.687.781-.687 2.375zm7.445 0q0-2.297 1.281-3.406 1.078-.922 2.61-.922 1.718 0 2.796 1.125 1.094 1.109 1.094 3.093 0 1.594-.484 2.516t-1.406 1.438q-.907.5-2 .5-1.735 0-2.813-1.11-1.078-1.125-1.078-3.234zm1.453 0q0 1.594.687 2.39.704.797 1.75.797t1.735-.797q.703-.797.703-2.437 0-1.531-.703-2.328-.688-.797-1.735-.797t-1.75.797q-.687.781-.687 2.375zm7.945 4.156v-11.453h1.406v11.453h-1.406zM757.71 208.74l-3.156-8.297h1.484l1.781 4.969q.297.797.532 1.672.187-.656.53-1.578l1.845-5.063h1.437l-3.14 8.297h-1.313zm5.703-9.844v-1.61h1.406v1.61h-1.406zm0 9.844v-8.297h1.406v8.297h-1.406zm8.961-1.031q-.781.672-1.5.953-.719.266-1.547.266-1.375 0-2.11-.672t-.734-1.703q0-.61.282-1.11.28-.515.718-.812.453-.313 1.016-.47.422-.108 1.25-.202 1.703-.203 2.516-.485v-.375q0-.859-.391-1.203-.547-.484-1.61-.484-.984 0-1.468.36-.47.343-.688 1.218l-1.375-.187q.188-.875.61-1.422.437-.547 1.25-.828.812-.297 1.875-.297t1.718.25q.672.25.985.625t.437.953q.078.36.078 1.297v1.875q0 1.969.079 2.484.093.516.359 1h-1.469q-.219-.437-.281-1.031zm-.11-3.14q-.765.312-2.296.53-.875.125-1.235.282t-.562.468q-.188.297-.188.657 0 .562.422.937.438.375 1.25.375t1.438-.344q.64-.359.937-.984.235-.469.235-1.406v-.516zm16.392.155 1.515.375q-.469 1.875-1.719 2.86-1.234.984-3.015.984-1.86 0-3.016-.75-1.156-.765-1.765-2.187-.61-1.438-.61-3.078 0-1.797.688-3.125t1.937-2.016q1.266-.703 2.781-.703 1.72 0 2.891.875t1.64 2.469l-1.5.343q-.39-1.25-1.156-1.812-.75-.578-1.906-.578-1.312 0-2.203.64-.89.625-1.25 1.704-.36 1.062-.36 2.187 0 1.469.423 2.563.437 1.078 1.328 1.625.906.53 1.953.53 1.265 0 2.14-.734.891-.734 1.204-2.171zm3.18 4.016v-11.453h1.406v11.453h-1.407zm9.023 0v-1.219q-.969 1.406-2.64 1.406-.735 0-1.376-.28-.625-.282-.937-.704-.313-.437-.438-1.047-.078-.422-.078-1.312v-5.14h1.406v4.593q0 1.11.078 1.484.14.563.563.875.437.313 1.062.313.64 0 1.188-.313.562-.328.781-.89.234-.563.234-1.625v-4.438h1.407v8.297h-1.25zm2.898-2.484 1.39-.22q.11.845.641 1.298.547.437 1.5.437.97 0 1.438-.39.469-.407.469-.938 0-.469-.407-.75-.297-.187-1.437-.469-1.547-.39-2.156-.671-.594-.297-.907-.797-.296-.5-.296-1.11 0-.562.25-1.03t.687-.782q.328-.25.89-.406.579-.172 1.22-.172.984 0 1.718.28t1.078.767q.36.468.5 1.28l-1.375.188q-.093-.64-.547-1t-1.265-.36q-.969 0-1.39.329-.407.313-.407.734 0 .282.172.5t.531.375q.219.079 1.25.36 1.485.39 2.078.656.594.25.922.734.344.485.344 1.203 0 .704-.422 1.329-.406.609-1.188.953-.765.343-1.734.343-1.625 0-2.469-.671t-1.078-2zm11.625 1.218.203 1.25q-.594.125-1.062.125-.766 0-1.188-.234-.422-.25-.594-.64-.171-.407-.171-1.672v-4.766h-1.032v-1.094h1.032v-2.062l1.406-.844v2.906h1.406v1.094h-1.406v4.844q0 .61.062.78.078.173.25.282.172.094.485.094.234 0 .61-.063zm7.055-1.406 1.453.172q-.344 1.281-1.281 1.985-.922.703-2.36.703-1.828 0-2.89-1.125t-1.063-3.141q0-2.094 1.078-3.25t2.797-1.156q1.656 0 2.703 1.14 1.063 1.125 1.063 3.172v.375h-6.188q.078 1.375.766 2.11.703.718 1.734.718.782 0 1.328-.406t.86-1.297zm-4.61-2.281h4.625q-.093-1.047-.53-1.562-.673-.813-1.735-.813-.969 0-1.64.656-.657.64-.72 1.72zm7.82 4.953v-8.297h1.266v1.25q.485-.875.89-1.156t.907-.281q.703 0 1.438.453l-.485 1.297q-.515-.297-1.03-.297-.454 0-.829.281-.36.266-.516.766-.234.75-.234 1.64v4.344h-1.406zm5.47 0v-11.453h2.28l2.72 8.11q.375 1.125.546 1.687.188-.625.61-1.828l2.734-7.969h2.047v11.453h-1.469v-9.594l-3.328 9.594h-1.36l-3.312-9.75v9.75h-1.469zm18.609-1.031q-.782.672-1.5.953-.72.266-1.547.266-1.375 0-2.11-.672t-.734-1.703q0-.61.281-1.11.281-.515.719-.812.453-.313 1.015-.469.422-.11 1.25-.203 1.704-.203 2.516-.484v-.375q0-.86-.39-1.204-.547-.484-1.61-.484-.984 0-1.469.36-.469.343-.687 1.218l-1.375-.187q.187-.875.61-1.422.437-.547 1.25-.828.812-.297 1.874-.297t1.719.25q.672.25.984.625t.438.953q.078.36.078 1.297v1.875q0 1.969.078 2.484.094.516.36 1h-1.47q-.218-.437-.28-1.03zm-.11-3.14q-.765.312-2.297.53-.875.126-1.234.282t-.563.469q-.187.296-.187.656 0 .562.422.937.437.375 1.25.375t1.437-.343q.64-.36.938-.985.234-.469.234-1.406v-.516zm3.602 4.171v-8.297h1.265v1.172q.907-1.36 2.64-1.36.75 0 1.376.266t.937.704.438 1.046q.078.391.078 1.36v5.11h-1.406v-5.048q0-.859-.172-1.28-.156-.438-.578-.688-.406-.25-.969-.25-.906 0-1.562.578-.641.562-.641 2.156v4.531h-1.406zm14.305-1.031q-.782.672-1.5.953-.719.266-1.547.266-1.375 0-2.11-.672t-.734-1.703q0-.61.281-1.11.282-.515.72-.812.452-.313 1.015-.469.422-.11 1.25-.203 1.703-.203 2.515-.484v-.375q0-.86-.39-1.203-.547-.485-1.61-.485-.984 0-1.469.36-.468.343-.687 1.218l-1.375-.187q.187-.875.61-1.422.437-.547 1.25-.828.812-.297 1.874-.297t1.72.25q.671.25.983.625t.438.953q.078.36.078 1.297v1.875q0 1.969.078 2.484.094.516.36 1h-1.47q-.218-.437-.28-1.03zm-.11-3.14q-.765.312-2.297.53-.875.126-1.234.282t-.562.469q-.188.297-.188.656 0 .562.422.937.437.375 1.25.375t1.437-.343q.641-.36.938-.985.234-.468.234-1.406v-.516zm3.336 4.859 1.375.203q.078.64.469.922.531.39 1.438.39.968 0 1.5-.39t.718-1.094q.11-.422.11-1.812-.922 1.093-2.297 1.093-1.72 0-2.656-1.234t-.938-2.969q0-1.187.422-2.187.437-1 1.25-1.547.828-.547 1.922-.547 1.469 0 2.422 1.187v-1h1.297v7.172q0 1.938-.391 2.75t-1.25 1.281-2.11.47q-1.484 0-2.406-.673-.906-.672-.875-2.015zm1.172-4.985q0 1.625.64 2.375.657.75 1.626.75t1.625-.734q.656-.75.656-2.344 0-1.53-.672-2.297-.672-.78-1.625-.78-.937 0-1.594.765t-.656 2.265zm13.664 1.625 1.453.172q-.343 1.282-1.28 1.985-.923.703-2.36.703-1.828 0-2.89-1.125t-1.063-3.14q0-2.095 1.078-3.25t2.797-1.157q1.656 0 2.703 1.14 1.062 1.126 1.062 3.173v.375h-6.187q.078 1.375.765 2.109.703.719 1.735.719.78 0 1.328-.407t.86-1.296zm-4.61-2.28h4.626q-.094-1.048-.531-1.563-.672-.813-1.735-.813-.969 0-1.64.656-.657.641-.72 1.72zm7.821 4.952v-8.297h1.266v1.25q.484-.875.89-1.156t.907-.281q.703 0 1.437.453l-.484 1.297q-.516-.297-1.032-.297-.453 0-.828.281-.36.266-.515.766-.235.75-.235 1.64v4.344h-1.406z" fill="#000"/><path d="M340.85 0h307.28v43.78H340.85z" fill="none"/><path d="M351.13 24.36V12.907h1.516v4.703h5.953v-4.703h1.515V24.36H358.6v-5.406h-5.953v5.406h-1.516zm14.43 0V14.251h-3.781v-1.344h9.078v1.344h-3.781V24.36h-1.516zm9.773 0V14.251h-3.78v-1.344h9.077v1.344h-3.78V24.36h-1.517zm6.852 0V12.907h4.328q1.14 0 1.735.11.843.14 1.406.53.578.391.922 1.11.359.703.359 1.563 0 1.453-.938 2.468-.921 1.016-3.359 1.016h-2.937v4.656h-1.516zm1.516-6.016h2.968q1.47 0 2.079-.546.625-.547.625-1.532 0-.718-.375-1.234-.36-.516-.954-.672-.375-.11-1.406-.11h-2.937v4.094zm13.469 6.016v-7.203h-1.235v-1.094h1.235v-.89q0-.829.156-1.235.203-.547.703-.89.516-.344 1.437-.344.594 0 1.313.14l-.203 1.235q-.438-.078-.828-.078-.64 0-.907.28-.265.266-.265 1.016v.766h1.61v1.094h-1.61v7.203h-1.406zm4.117-9.844v-1.61h1.406v1.61h-1.406zm0 9.844v-8.297h1.406v8.297h-1.406zm3.523 0V12.907h1.406V24.36h-1.406zm6.649-1.266.203 1.25q-.594.125-1.063.125-.765 0-1.187-.234-.422-.25-.594-.64-.172-.407-.172-1.672v-4.766h-1.031v-1.094h1.031v-2.062l1.406-.844v2.906h1.406v1.094h-1.406V22q0 .609.063.78.078.173.25.282.172.094.484.094.235 0 .61-.063zm7.054-1.406 1.453.172q-.343 1.281-1.28 1.984-.923.704-2.36.704-1.828 0-2.89-1.125t-1.063-3.141q0-2.094 1.078-3.25t2.797-1.156q1.656 0 2.703 1.14 1.062 1.125 1.062 3.172v.375h-6.187q.078 1.375.765 2.11.704.718 1.735.718.781 0 1.328-.406t.86-1.297zm-4.61-2.281h4.626q-.094-1.047-.531-1.562-.672-.813-1.735-.813-.968 0-1.64.656-.657.64-.72 1.72zm7.821 4.953v-8.297h1.266v1.25q.484-.875.89-1.156t.907-.281q.703 0 1.437.453l-.484 1.297q-.516-.297-1.031-.297-.454 0-.829.281-.359.266-.515.766-.235.75-.235 1.64v4.344h-1.406zm15.195-3.047 1.39.188q-.234 1.422-1.171 2.234-.922.813-2.281.813-1.703 0-2.75-1.11-1.032-1.125-1.032-3.203 0-1.344.438-2.344.453-1.015 1.36-1.515.921-.5 1.984-.5 1.36 0 2.219.687.859.672 1.093 1.938l-1.359.203q-.203-.828-.703-1.25-.485-.422-1.188-.422-1.062 0-1.734.766-.656.75-.656 2.406 0 1.672.64 2.437.641.75 1.672.75.828 0 1.375-.5.563-.515.703-1.578zm2.594 3.047V12.907h1.406v4.11q.985-1.141 2.485-1.141.921 0 1.593.36.688.359.97 1 .296.64.296 1.859v5.265h-1.406v-5.265q0-1.047-.453-1.532t-1.297-.484q-.625 0-1.172.328t-.781.89q-.235.548-.235 1.516v4.547h-1.406zm14.305-1.031q-.781.672-1.5.953-.719.266-1.547.266-1.375 0-2.11-.672t-.734-1.703q0-.61.282-1.11.28-.515.718-.812.453-.313 1.016-.469.422-.11 1.25-.203 1.703-.203 2.516-.484v-.375q0-.86-.391-1.204-.547-.484-1.61-.484-.984 0-1.468.36-.469.343-.688 1.218l-1.375-.187q.188-.875.61-1.422.437-.547 1.25-.828.812-.297 1.875-.297t1.718.25q.672.25.985.625t.437.953q.078.36.078 1.297v1.875q0 1.969.079 2.484.093.516.359 1h-1.469q-.219-.437-.281-1.031zm-.11-3.14q-.765.312-2.296.53-.875.126-1.235.282t-.562.469q-.188.296-.188.656 0 .562.422.937.438.375 1.25.375t1.438-.343q.64-.36.937-.985.235-.469.235-1.406v-.516zm3.602-5.673v-1.609h1.406v1.61h-1.406zm0 9.844v-8.297h1.406v8.297h-1.406zm3.555 0v-8.297h1.266v1.172q.906-1.36 2.64-1.36.75 0 1.375.266t.938.704.437 1.046q.078.391.078 1.36v5.11h-1.406v-5.048q0-.859-.172-1.28-.156-.438-.578-.688-.406-.25-.969-.25-.906 0-1.562.578-.64.562-.64 2.156v4.531h-1.407zm13.344-9.844v-1.609h1.406v1.61h-1.406zm0 9.844v-8.297h1.406v8.297h-1.406zm3.555 0v-8.297h1.265v1.172q.906-1.36 2.64-1.36.75 0 1.376.266t.937.704.438 1.046q.078.391.078 1.36v5.11h-1.406v-5.048q0-.859-.172-1.28-.156-.438-.578-.688-.407-.25-.969-.25-.906 0-1.563.578-.64.562-.64 2.156v4.531h-1.406zm8.336-2.484 1.39-.219q.11.844.64 1.297.548.437 1.5.437.97 0 1.438-.39.469-.406.469-.938 0-.468-.406-.75-.297-.187-1.438-.468-1.547-.391-2.156-.672-.594-.297-.906-.797-.297-.5-.297-1.11 0-.562.25-1.03t.687-.782q.329-.25.891-.406.578-.172 1.219-.172.984 0 1.719.281t1.078.766q.36.468.5 1.28l-1.375.188q-.094-.64-.547-1t-1.266-.359q-.968 0-1.39.328-.407.313-.407.735 0 .28.172.5t.532.375q.218.078 1.25.359 1.484.39 2.078.656.593.25.922.735.343.484.343 1.203 0 .703-.422 1.328-.406.61-1.187.953-.766.344-1.735.344-1.625 0-2.468-.672t-1.078-2zm11.625 1.219.203 1.25q-.594.125-1.063.125-.765 0-1.187-.235-.422-.25-.594-.64-.172-.407-.172-1.672v-4.766h-1.031v-1.094h1.031v-2.062l1.406-.844v2.906h1.406v1.094h-1.406v4.844q0 .61.063.781.078.172.25.281.172.094.484.094.234 0 .61-.062zm6.789.234q-.782.672-1.5.953-.72.266-1.547.266-1.375 0-2.11-.672t-.734-1.703q0-.61.281-1.11.281-.515.719-.812.453-.313 1.016-.469.421-.11 1.25-.203 1.703-.203 2.515-.484v-.375q0-.86-.39-1.204-.547-.484-1.61-.484-.984 0-1.469.36-.468.343-.687 1.218l-1.375-.187q.187-.875.61-1.422.437-.547 1.25-.828.812-.297 1.874-.297t1.719.25q.672.25.984.625t.438.953q.078.36.078 1.297v1.875q0 1.969.078 2.484.094.516.36 1h-1.47q-.218-.437-.28-1.03zm-.11-3.14q-.765.312-2.297.53-.875.126-1.234.282t-.563.469q-.187.297-.187.656 0 .562.422.937.437.375 1.25.375t1.437-.343q.64-.36.938-.985.234-.468.234-1.406v-.516zm3.602 4.171v-8.297h1.265v1.172q.907-1.36 2.641-1.36.75 0 1.375.267t.938.703.437 1.047q.078.39.078 1.359v5.11h-1.406v-5.048q0-.859-.172-1.28-.156-.438-.578-.688-.406-.25-.969-.25-.906 0-1.562.578-.64.562-.64 2.156v4.531h-1.407zm11.96-1.265.204 1.25q-.594.125-1.063.125-.765 0-1.187-.235-.422-.25-.594-.64-.172-.407-.172-1.672v-4.766h-1.03v-1.094h1.03v-2.062l1.407-.844v2.906h1.406v1.094h-1.406v4.844q0 .61.062.781.078.172.25.281.172.094.484.094.235 0 .61-.062zm1.384-8.578v-1.61h1.406v1.61h-1.406zm0 9.843v-8.297h1.406v8.297h-1.406zm8.96-1.03q-.78.671-1.5.952-.718.266-1.546.266-1.375 0-2.11-.672t-.734-1.703q0-.61.281-1.11.281-.515.719-.812.453-.312 1.015-.469.422-.11 1.25-.203 1.704-.203 2.516-.484v-.375q0-.86-.39-1.203-.547-.485-1.61-.485-.984 0-1.469.36-.469.343-.687 1.218l-1.375-.187q.187-.875.61-1.422.437-.547 1.25-.828.812-.297 1.874-.297t1.719.25q.672.25.984.625t.438.953q.078.36.078 1.297v1.875q0 1.969.078 2.485.094.515.36 1h-1.47q-.218-.438-.28-1.032zm-.109-3.141q-.765.312-2.297.53-.875.126-1.234.282t-.563.469q-.187.297-.187.656 0 .563.422.938.437.375 1.25.375t1.437-.344q.64-.36.938-.985.234-.468.234-1.406v-.515zm6.664 2.906.203 1.25q-.593.125-1.062.125-.766 0-1.188-.235-.421-.25-.593-.64-.172-.406-.172-1.672v-4.766h-1.031v-1.094h1.03v-2.062l1.407-.844v2.906h1.406v1.094h-1.406v4.844q0 .61.062.781.079.172.25.282.172.093.485.093.234 0 .61-.062zm1.383-8.578v-1.61h1.406v1.61h-1.406zm0 9.843v-8.296h1.406v8.296h-1.406zm3.023-4.156q0-2.297 1.282-3.406 1.078-.922 2.61-.922 1.718 0 2.796 1.125 1.094 1.11 1.094 3.094 0 1.594-.485 2.516t-1.406 1.437q-.906.5-2 .5-1.734 0-2.812-1.11-1.078-1.124-1.078-3.234zm1.454 0q0 1.594.687 2.39.703.798 1.75.798t1.734-.797q.704-.797.704-2.438 0-1.53-.704-2.328-.687-.797-1.734-.797t-1.75.797q-.687.782-.687 2.375zm7.976 4.156v-8.296h1.266v1.171q.906-1.359 2.64-1.359.75 0 1.375.266t.938.703.437 1.047q.078.39.078 1.36v5.109h-1.406v-5.047q0-.86-.172-1.282-.156-.437-.578-.687-.406-.25-.968-.25-.907 0-1.563.578-.64.563-.64 2.156v4.531H550.7zm16.031 3.375q-1.172-1.468-1.984-3.437-.797-1.984-.797-4.094 0-1.86.61-3.562.702-1.97 2.171-3.938h1q-.937 1.625-1.25 2.328-.469 1.078-.75 2.25-.328 1.453-.328 2.938 0 3.75 2.328 7.515h-1zm2.078-5.859 1.39-.219q.11.844.641 1.297.547.438 1.5.438.97 0 1.438-.39.469-.407.469-.938 0-.47-.407-.75-.296-.188-1.437-.47-1.547-.39-2.156-.671-.594-.297-.906-.797-.297-.5-.297-1.11 0-.562.25-1.03t.687-.782q.328-.25.89-.406.579-.172 1.22-.172.984 0 1.718.281t1.078.766q.36.469.5 1.281l-1.375.188q-.093-.64-.546-1t-1.266-.36q-.969 0-1.39.328-.407.313-.407.735 0 .281.172.5t.531.375q.219.078 1.25.36 1.485.39 2.078.655.594.25.922.735.344.484.344 1.203 0 .703-.422 1.328-.406.61-1.187.953-.766.344-1.735.344-1.625 0-2.469-.672t-1.078-2zm11.625 1.219.203 1.25q-.593.125-1.062.125-.766 0-1.188-.234-.422-.25-.593-.641-.172-.406-.172-1.672v-4.766h-1.031v-1.093h1.03V14l1.407-.844v2.907h1.406v1.093h-1.406v4.844q0 .61.062.781.079.172.25.282.172.093.485.093.234 0 .61-.062zm1.367 1.265v-8.296h1.266v1.25q.484-.875.89-1.157t.907-.28q.703 0 1.437.452l-.484 1.297q-.516-.297-1.031-.297-.453 0-.828.282-.36.265-.516.765-.234.75-.234 1.64v4.345h-1.406zm11.016-2.671 1.454.171q-.344 1.282-1.282 1.985-.922.703-2.359.703-1.828 0-2.89-1.125t-1.063-3.14q0-2.094 1.078-3.25t2.797-1.157q1.656 0 2.703 1.14 1.062 1.126 1.062 3.173v.375h-6.187q.078 1.375.766 2.11.703.718 1.734.718.781 0 1.328-.406t.86-1.297zm-4.609-2.282h4.625q-.094-1.047-.531-1.562-.672-.813-1.735-.813-.968 0-1.64.657-.656.64-.719 1.718zm13.242 3.922q-.781.672-1.5.953-.719.266-1.547.266-1.375 0-2.11-.672t-.734-1.703q0-.61.282-1.11.28-.515.718-.812.453-.312 1.016-.469.422-.109 1.25-.203 1.703-.203 2.516-.484v-.375q0-.86-.391-1.203-.547-.485-1.61-.485-.984 0-1.468.36-.469.344-.688 1.219l-1.375-.188q.188-.875.61-1.422.437-.547 1.25-.828.812-.297 1.875-.297t1.718.25q.672.25.985.625t.437.953q.078.36.078 1.297v1.875q0 1.969.079 2.485.093.515.359 1h-1.469q-.219-.438-.281-1.032zm-.11-3.14q-.765.312-2.296.53-.875.126-1.235.282t-.562.469q-.188.297-.188.656 0 .563.422.938.438.375 1.25.375t1.438-.344q.64-.36.937-.984.235-.47.235-1.407v-.515zm3.602 4.172v-8.297h1.25v1.156q.39-.61 1.031-.969.657-.375 1.485-.375.922 0 1.515.39.594.376.829 1.063.984-1.453 2.562-1.453 1.234 0 1.89.688.673.672.673 2.093v5.704h-1.391v-5.235q0-.844-.14-1.203-.141-.375-.5-.594-.36-.234-.844-.234-.875 0-1.453.578t-.579 1.86v4.828h-1.406V18.97q0-.938-.344-1.406t-1.125-.469q-.593 0-1.093.312t-.735.922q-.218.594-.218 1.72v4.312h-1.407zm17.383-5.657q0-2.03.407-3.265.421-1.235 1.25-1.906t2.078-.672q.922 0 1.609.375.703.36 1.156 1.062t.703 1.703q.266 1 .266 2.703 0 2.016-.422 3.266-.406 1.234-1.234 1.922-.828.672-2.078.672-1.657 0-2.61-1.203-1.125-1.422-1.125-4.657zm1.438 0q0 2.828.656 3.766.672.922 1.64.922t1.626-.938.656-3.75q0-2.828-.656-3.75-.657-.937-1.641-.937-.969 0-1.547.828-.734 1.047-.734 3.86zm8.773 9.032h-1.015q2.343-3.766 2.343-7.516 0-1.469-.343-2.922-.266-1.172-.735-2.25-.312-.703-1.265-2.344h1.015q1.469 1.97 2.172 3.938.594 1.703.594 3.562 0 2.11-.813 4.094-.796 1.969-1.953 3.438z" fill="#000"/><path d="M505.6 209.98h167.97V317H505.6z" fill="#fce5cd" fill-rule="evenodd"/><path d="M505.6 209.98h167.97V317H505.6z" stroke="#757575" stroke-linecap="butt" stroke-linejoin="round"/><path d="M566.43 270.41v-9.672h1.469v1.469q.562-1.031 1.031-1.36.484-.328 1.063-.328.828 0 1.687.532l-.563 1.515q-.609-.36-1.203-.36-.546 0-.968.329t-.61.89q-.281.876-.281 1.922v5.063h-1.625zm5.619-4.844q0-2.687 1.484-3.969 1.25-1.078 3.047-1.078 2 0 3.266 1.313 1.266 1.297 1.266 3.61 0 1.859-.563 2.937-.563 1.062-1.64 1.656-1.063.594-2.329.594-2.03 0-3.28-1.297-1.25-1.313-1.25-3.766zm1.688 0q0 1.86.796 2.797.813.922 2.047.922 1.22 0 2.031-.922.813-.937.813-2.844 0-1.797-.813-2.718t-2.03-.922q-1.235 0-2.048.922-.797.906-.797 2.765zm15.626 4.844v-1.422q-1.126 1.64-3.063 1.64-.86 0-1.61-.327-.734-.329-1.093-.829t-.5-1.218q-.11-.47-.11-1.532v-5.984h1.641v5.36q0 1.28.11 1.734.156.64.656 1.015t1.234.375 1.375-.375q.656-.39.922-1.03.266-.657.266-1.891v-5.188h1.64v9.672h-1.469zm7.625-1.469.235 1.453q-.688.14-1.235.14-.89 0-1.39-.28-.485-.282-.688-.735-.203-.468-.203-1.937v-5.578h-1.203v-1.266h1.203v-2.39l1.625-.985v3.375h1.656v1.266h-1.656v5.672q0 .687.078.89.094.203.281.328.203.11.578.11.266 0 .72-.063zm8.23-1.64 1.688.203q-.406 1.484-1.484 2.312-1.079.813-2.766.813-2.125 0-3.375-1.297-1.234-1.313-1.234-3.672 0-2.453 1.25-3.797 1.265-1.344 3.265-1.344 1.938 0 3.156 1.328 1.235 1.313 1.235 3.703v.438h-7.22q.095 1.594.907 2.453.813.844 2.016.844.906 0 1.547-.469.64-.484 1.015-1.516zm-5.39-2.657h5.406q-.11-1.218-.625-1.828-.781-.953-2.031-.953-1.125 0-1.906.766-.766.75-.844 2.015zm9.126 5.766v-9.672h1.468v1.469q.563-1.031 1.032-1.36.484-.328 1.062-.328.828 0 1.688.532l-.563 1.515q-.61-.36-1.203-.36-.547 0-.969.329t-.61.89q-.28.876-.28 1.922v5.063h-1.625z" fill="#000"/><path d="M468.02 263.49h37.575" fill="none"/><path d="M468.02 263.49h23.866" stroke="red" stroke-linecap="butt" stroke-linejoin="round" stroke-width="4"/><path d="m491.89 263.49-4.498 4.498 12.359-4.498-12.36-4.498z" fill="red" fill-rule="evenodd" stroke="red" stroke-linecap="butt" stroke-width="4"/><path d="M300.06 209.98h167.97V317H300.06z" fill="#fce5cd" fill-rule="evenodd"/><path d="M300.06 209.98h167.97V317H300.06z" stroke="#757575" stroke-linecap="butt" stroke-linejoin="round"/><path d="m342.14 265.72 1.766.453q-.563 2.172-2 3.328-1.438 1.14-3.532 1.14-2.156 0-3.515-.874-1.344-.89-2.063-2.547-.703-1.672-.703-3.594 0-2.078.797-3.625.797-1.562 2.266-2.36 1.484-.812 3.25-.812 2 0 3.36 1.016 1.374 1.015 1.905 2.875l-1.734.406q-.469-1.453-1.36-2.11-.875-.671-2.203-.671-1.547 0-2.578.734t-1.453 1.985q-.422 1.234-.422 2.562 0 1.703.5 2.969t1.547 1.906q1.047.625 2.266.625 1.484 0 2.515-.86t1.391-2.546zm10.067 4.688v-1.422q-1.125 1.64-3.063 1.64-.859 0-1.609-.328-.734-.328-1.094-.828t-.5-1.219q-.11-.469-.11-1.531v-5.984h1.642v5.359q0 1.281.109 1.734.156.641.656 1.016t1.235.375 1.375-.375q.656-.39.921-1.031.266-.656.266-1.89v-5.188h1.64v9.672h-1.468zm3.391-2.891 1.625-.25q.125.969.75 1.5.625.516 1.75.516t1.672-.454q.547-.468.547-1.093 0-.547-.484-.875-.328-.22-1.672-.547-1.813-.469-2.516-.797-.687-.328-1.047-.906-.36-.594-.36-1.313 0-.64.298-1.187.297-.563.812-.922.375-.282 1.031-.469.672-.203 1.422-.203 1.141 0 2 .328t1.266.89q.422.563.578 1.5l-1.61.22q-.109-.75-.64-1.173-.516-.421-1.469-.421-1.14 0-1.625.375-.468.375-.468.875 0 .312.187.578.203.265.64.437.235.094 1.438.422 1.75.453 2.438.75t1.078.86.39 1.406q0 .828-.484 1.547-.469.718-1.375 1.125-.906.39-2.047.39-1.875 0-2.875-.781-.984-.781-1.25-2.328zm13.562 1.422.235 1.453q-.688.14-1.235.14-.89 0-1.39-.28-.485-.282-.688-.735-.203-.469-.203-1.938v-5.578h-1.203v-1.265h1.203v-2.39l1.625-.985v3.375h1.656V262h-1.656v5.672q0 .688.078.89.094.204.281.329.204.11.579.11.265 0 .718-.063zm.996-3.375q0-2.688 1.485-3.969 1.25-1.078 3.046-1.078 2 0 3.266 1.312 1.266 1.297 1.266 3.61 0 1.86-.563 2.937-.562 1.063-1.64 1.657-1.063.593-2.329.593-2.03 0-3.28-1.297-1.25-1.312-1.25-3.765zm1.688 0q0 1.86.796 2.797.813.922 2.047.922 1.22 0 2.032-.922.812-.938.812-2.844 0-1.797-.812-2.719t-2.032-.922q-1.234 0-2.047.922-.796.906-.796 2.766zm9.297 4.844v-9.672h1.469v1.36q.453-.72 1.203-1.142.766-.437 1.719-.437 1.078 0 1.766.453.687.438.968 1.235 1.156-1.688 2.985-1.688 1.453 0 2.218.797.782.797.782 2.453v6.64h-1.64v-6.093q0-.985-.157-1.406-.156-.438-.578-.704t-.985-.265q-1.015 0-1.687.687-.672.672-.672 2.157v5.625h-1.64v-6.282q0-1.093-.407-1.64t-1.312-.547q-.688 0-1.282.36t-.859 1.062q-.25.703-.25 2.031v5.016h-1.64zm15.838 0v-13.36h9.016v1.579h-7.25v4.14h6.265v1.578h-6.265v6.063h-1.766zm11.1-11.47v-1.89h1.64v1.89h-1.64zm0 11.47v-9.672h1.64v9.672h-1.64zm4.097 0v-13.36h1.64v13.36h-1.64zm7.77-1.47.234 1.454q-.687.14-1.234.14-.89 0-1.39-.28-.485-.282-.688-.735-.203-.469-.203-1.938v-5.578h-1.203v-1.265h1.203v-2.39l1.625-.985v3.375h1.656V262h-1.656v5.672q0 .688.078.89.094.204.281.329.203.11.578.11.266 0 .719-.063zm8.23-1.64 1.688.203q-.407 1.485-1.485 2.313-1.078.812-2.765.812-2.125 0-3.375-1.297-1.235-1.312-1.235-3.671 0-2.454 1.25-3.797 1.266-1.344 3.266-1.344 1.937 0 3.156 1.328 1.234 1.312 1.234 3.703v.438h-7.218q.093 1.593.906 2.453.812.843 2.015.843.907 0 1.547-.468.641-.485 1.016-1.516zm-5.39-2.656h5.406q-.11-1.219-.625-1.828-.782-.953-2.031-.953-1.125 0-1.907.765-.765.75-.843 2.016zm9.125 5.766v-9.672h1.469v1.469q.563-1.032 1.031-1.36.485-.328 1.063-.328.828 0 1.687.531l-.562 1.516q-.61-.36-1.203-.36-.547 0-.97.329t-.609.89q-.28.875-.28 1.922v5.063h-1.626z" fill="#000"/><path d="M88.772 342.83c0-24.264 7.378-36.394 14.756-48.528s14.756-24.272 14.756-48.543" fill="none"/><path d="M88.772 342.83c0-24.264 7.378-36.394 14.756-48.528 3.689-6.067 7.378-12.135 10.145-19.72 1.383-3.793 2.536-7.964 3.343-12.705.101-.593.196-1.194.286-1.805l.09-.634" stroke="red" stroke-linecap="butt" stroke-linejoin="round" stroke-width="4"/><path d="m117.39 259.44 4.196 4.782-3.684-12.626-5.293 12.04z" fill="red" fill-rule="evenodd" stroke="red" stroke-linecap="butt" stroke-width="4"/><path d="M185.43 182.45c28.425 0 42.638-19.496 56.85-38.992s28.425-38.992 56.85-38.992" fill="none"/><path d="M185.43 182.45c28.425 0 42.638-19.496 56.85-38.992 7.106-9.748 14.213-19.496 23.095-26.807 4.441-3.655 9.327-6.702 14.879-8.834a48.627 48.627 0 0 1 4.847-1.576l.422-.11" stroke="red" stroke-linecap="butt" stroke-linejoin="round" stroke-width="4"/><path d="m285.52 106.13-3.919 5.011 11.721-5.966-12.814-2.964z" fill="red" fill-rule="evenodd" stroke="red" stroke-linecap="butt" stroke-width="4"/><path d="M185.43 182.45c28.658 0 42.985 20.26 57.316 40.52 14.331 20.26 28.665 40.52 57.33 40.52" fill="none"/><path d="M185.43 182.45c28.658 0 42.985 20.26 57.316 40.52 7.165 10.13 14.332 20.26 23.29 27.857 4.479 3.799 9.406 6.964 15.005 9.18a48.022 48.022 0 0 0 4.888 1.638l.545.146" stroke="red" stroke-linecap="butt" stroke-linejoin="round" stroke-width="4"/><path d="m286.47 261.79-5.02 3.906 12.82-2.932-11.707-5.995z" fill="red" fill-rule="evenodd" stroke="red" stroke-linecap="butt" stroke-width="4"/><path d="M673.57 263.49c75.071 0 150.14-21.606 150.14-43.213" fill="none"/><path d="M673.57 263.49c37.535 0 75.071-5.402 103.22-13.504 14.076-4.051 25.806-8.778 34.016-13.842 2.053-1.266 3.885-2.553 5.48-3.856l.334-.278" stroke="red" stroke-linecap="butt" stroke-linejoin="round" stroke-width="4"/><path d="m816.62 232.01 1.524 6.176 2.541-12.904-10.242 8.252z" fill="red" fill-rule="evenodd" stroke="red" stroke-linecap="butt" stroke-width="4"/><path d="M672.65 104.45c75.528 0 151.06 30.472 151.06 60.945" fill="none"/><path d="M672.65 104.45c37.764 0 75.528 7.618 103.85 19.045 14.161 5.714 25.963 12.379 34.223 19.521 2.065 1.786 3.91 3.6 5.513 5.438a41.397 41.397 0 0 1 2.723 3.47c.08.117.161.233.24.35l.095.14" stroke="red" stroke-linecap="butt" stroke-linejoin="round" stroke-width="4"/><path d="m819.29 152.42-5.706-2.812 8.235 10.255.283-13.149z" fill="red" fill-rule="evenodd" stroke="red" stroke-linecap="butt" stroke-width="4"/><path d="M340.85 323.14h307.28v43.78H340.85z" fill="none"/><path d="M351.13 347.5v-11.453h1.516v4.703h5.953v-4.703h1.515V347.5H358.6v-5.406h-5.953v5.406h-1.516zm14.43 0v-10.109h-3.781v-1.344h9.078v1.344h-3.781V347.5h-1.516zm9.773 0v-10.109h-3.78v-1.344h9.077v1.344h-3.78V347.5h-1.517zm6.852 0v-11.453h4.328q1.14 0 1.735.11.843.14 1.406.53.578.391.922 1.11.359.703.359 1.563 0 1.453-.938 2.468-.921 1.016-3.359 1.016h-2.937v4.656h-1.516zm1.516-6.016h2.968q1.47 0 2.079-.546.625-.547.625-1.532 0-.718-.375-1.234-.36-.516-.954-.672-.375-.11-1.406-.11h-2.937v4.094zm13.469 6.016v-7.203h-1.235v-1.094h1.235v-.89q0-.829.156-1.235.203-.547.703-.89.516-.344 1.437-.344.594 0 1.313.14l-.203 1.235q-.438-.078-.828-.078-.64 0-.907.28-.265.266-.265 1.016v.766h1.61v1.094h-1.61v7.203h-1.406zm4.117-9.844v-1.61h1.406v1.61h-1.406zm0 9.844v-8.297h1.406v8.297h-1.406zm3.523 0v-11.453h1.406V347.5h-1.406zm6.649-1.266.203 1.25q-.594.125-1.063.125-.765 0-1.187-.234-.422-.25-.594-.64-.172-.407-.172-1.673v-4.765h-1.031v-1.094h1.031v-2.062l1.406-.844v2.906h1.406v1.094h-1.406v4.844q0 .609.063.78.078.173.25.282.172.094.484.094.235 0 .61-.063zm7.054-1.406 1.453.172q-.343 1.281-1.28 1.984-.923.704-2.36.704-1.828 0-2.89-1.125t-1.063-3.141q0-2.094 1.078-3.25t2.797-1.156q1.656 0 2.703 1.14 1.062 1.125 1.062 3.172v.375h-6.187q.078 1.375.765 2.11.704.718 1.735.718.781 0 1.328-.406t.86-1.297zm-4.61-2.281h4.626q-.094-1.047-.531-1.563-.672-.812-1.735-.812-.968 0-1.64.656-.657.64-.72 1.719zm7.821 4.953v-8.297h1.266v1.25q.484-.875.89-1.156t.907-.281q.703 0 1.437.453l-.484 1.297q-.516-.297-1.031-.297-.454 0-.829.281-.359.266-.515.766-.235.75-.235 1.64v4.344h-1.406zm15.195-3.047 1.39.188q-.234 1.422-1.171 2.234-.922.813-2.281.813-1.703 0-2.75-1.11-1.032-1.125-1.032-3.203 0-1.344.438-2.344.453-1.015 1.36-1.515.921-.5 1.984-.5 1.36 0 2.219.687.859.672 1.093 1.938l-1.359.203q-.203-.828-.703-1.25-.485-.422-1.188-.422-1.062 0-1.734.766-.656.75-.656 2.406 0 1.672.64 2.437.641.75 1.672.75.828 0 1.375-.5.563-.515.703-1.578zm2.594 3.047v-11.453h1.406v4.11q.985-1.141 2.485-1.141.921 0 1.593.36.688.359.97 1 .296.64.296 1.859v5.265h-1.406v-5.265q0-1.047-.453-1.532t-1.297-.484q-.625 0-1.172.328t-.781.89q-.235.548-.235 1.516v4.547h-1.406zm14.305-1.031q-.781.672-1.5.953-.719.266-1.547.266-1.375 0-2.11-.672t-.734-1.703q0-.61.282-1.11.28-.515.718-.812.453-.313 1.016-.469.422-.11 1.25-.203 1.703-.203 2.516-.484v-.375q0-.86-.391-1.204-.547-.484-1.61-.484-.984 0-1.468.36-.469.343-.688 1.218l-1.375-.187q.188-.875.61-1.422.437-.547 1.25-.828.812-.297 1.875-.297t1.718.25q.672.25.985.625t.437.953q.078.36.078 1.297v1.875q0 1.969.079 2.484.093.516.359 1h-1.469q-.219-.437-.281-1.031zm-.11-3.14q-.765.312-2.296.53-.875.126-1.235.282t-.562.469q-.188.296-.188.656 0 .562.422.937.438.375 1.25.375t1.438-.343q.64-.36.937-.985.235-.469.235-1.406v-.516zm3.602-5.673v-1.609h1.406v1.61h-1.406zm0 9.844v-8.297h1.406v8.297h-1.406zm3.555 0v-8.297h1.266v1.172q.906-1.36 2.64-1.36.75 0 1.375.266t.938.704.437 1.046q.078.391.078 1.36v5.11h-1.406v-5.048q0-.859-.172-1.28-.156-.438-.578-.688-.406-.25-.969-.25-.906 0-1.562.578-.64.562-.64 2.156v4.531h-1.407zm13.344-9.844v-1.609h1.406v1.61h-1.406zm0 9.844v-8.297h1.406v8.297h-1.406zm3.555 0v-8.297h1.265v1.172q.906-1.36 2.64-1.36.75 0 1.376.266t.937.704.438 1.046q.078.391.078 1.36v5.11h-1.406v-5.048q0-.859-.172-1.28-.156-.438-.578-.688-.407-.25-.969-.25-.906 0-1.563.578-.64.562-.64 2.156v4.531h-1.406zm8.336-2.484 1.39-.219q.11.844.64 1.297.548.437 1.5.437.97 0 1.438-.39.469-.406.469-.938 0-.468-.406-.75-.297-.187-1.438-.468-1.547-.391-2.156-.672-.594-.297-.906-.797-.297-.5-.297-1.11 0-.562.25-1.03t.687-.782q.329-.25.891-.406.578-.172 1.219-.172.984 0 1.719.281t1.078.766q.36.468.5 1.28l-1.375.188q-.094-.64-.547-1t-1.266-.359q-.968 0-1.39.328-.407.313-.407.735 0 .28.172.5t.532.375q.218.078 1.25.359 1.484.39 2.078.656.593.25.922.735.343.484.343 1.203 0 .703-.422 1.328-.406.61-1.187.953-.766.344-1.735.344-1.625 0-2.468-.672t-1.078-2zm11.625 1.219.203 1.25q-.594.125-1.063.125-.765 0-1.187-.235-.422-.25-.594-.64-.172-.407-.172-1.672v-4.766h-1.031v-1.094h1.031v-2.062l1.406-.844v2.906h1.406v1.094h-1.406v4.844q0 .61.063.781.078.172.25.281.172.094.484.094.234 0 .61-.062zm6.789.234q-.782.672-1.5.953-.72.266-1.547.266-1.375 0-2.11-.672t-.734-1.703q0-.61.281-1.11.281-.515.719-.812.453-.313 1.016-.469.421-.11 1.25-.203 1.703-.203 2.515-.484v-.375q0-.86-.39-1.204-.547-.484-1.61-.484-.984 0-1.469.36-.468.343-.687 1.218l-1.375-.187q.187-.875.61-1.422.437-.547 1.25-.828.812-.297 1.874-.297t1.719.25q.672.25.984.625t.438.953q.078.36.078 1.297v1.875q0 1.969.078 2.484.094.516.36 1h-1.47q-.218-.437-.28-1.03zm-.11-3.14q-.765.312-2.297.53-.875.126-1.234.282t-.563.469q-.187.297-.187.656 0 .562.422.937.437.375 1.25.375t1.437-.343q.64-.36.938-.985.234-.469.234-1.406v-.516zm3.602 4.171v-8.297h1.265v1.172q.907-1.36 2.641-1.36.75 0 1.375.266t.938.704.437 1.047q.078.39.078 1.359v5.11h-1.406v-5.048q0-.859-.172-1.28-.156-.438-.578-.688-.406-.25-.969-.25-.906 0-1.562.578-.64.562-.64 2.156v4.531h-1.407zm11.96-1.265.204 1.25q-.594.125-1.063.125-.765 0-1.187-.235-.422-.25-.594-.64-.172-.407-.172-1.672v-4.766h-1.03v-1.094h1.03v-2.062l1.407-.844v2.906h1.406v1.094h-1.406v4.844q0 .61.062.781.078.172.25.281.172.094.484.094.235 0 .61-.062zm1.384-8.578v-1.61h1.406v1.61h-1.406zm0 9.843v-8.297h1.406v8.297h-1.406zm8.96-1.03q-.78.671-1.5.952-.718.266-1.546.266-1.375 0-2.11-.672t-.734-1.703q0-.61.281-1.11.281-.515.719-.812.453-.312 1.015-.469.422-.11 1.25-.203 1.704-.203 2.516-.484v-.375q0-.86-.39-1.203-.547-.485-1.61-.485-.984 0-1.469.36-.469.343-.687 1.218l-1.375-.187q.187-.875.61-1.422.437-.547 1.25-.828.812-.297 1.874-.297t1.719.25q.672.25.984.625t.438.953q.078.36.078 1.297v1.875q0 1.969.078 2.485.094.515.36 1h-1.47q-.218-.438-.28-1.032zm-.109-3.141q-.765.312-2.297.53-.875.126-1.234.282t-.563.469q-.187.297-.187.656 0 .563.422.938.437.375 1.25.375t1.437-.344q.64-.36.938-.985.234-.468.234-1.406v-.515zm6.664 2.906.203 1.25q-.593.125-1.062.125-.766 0-1.188-.235-.421-.25-.593-.64-.172-.406-.172-1.672v-4.766h-1.031v-1.094h1.03v-2.062l1.407-.844v2.906h1.406v1.094h-1.406v4.844q0 .61.062.781.079.172.25.282.172.093.485.093.234 0 .61-.062zm1.383-8.578v-1.61h1.406v1.61h-1.406zm0 9.843v-8.296h1.406v8.296h-1.406zm3.023-4.156q0-2.297 1.282-3.406 1.078-.922 2.61-.922 1.718 0 2.796 1.125 1.094 1.11 1.094 3.094 0 1.594-.485 2.516t-1.406 1.437q-.906.5-2 .5-1.734 0-2.812-1.11-1.078-1.124-1.078-3.234zm1.454 0q0 1.594.687 2.39.703.798 1.75.798t1.734-.797q.704-.797.704-2.438 0-1.53-.704-2.328-.687-.797-1.734-.797t-1.75.797q-.687.782-.687 2.375zm7.976 4.156v-8.296h1.266v1.171q.906-1.359 2.64-1.359.75 0 1.375.266t.938.703.437 1.047q.078.39.078 1.36v5.109h-1.406v-5.047q0-.86-.172-1.282-.156-.437-.578-.687-.406-.25-.968-.25-.907 0-1.563.578-.64.563-.64 2.156v4.531H550.7zm16.031 3.375q-1.172-1.468-1.984-3.437-.797-1.984-.797-4.094 0-1.86.61-3.562.702-1.97 2.171-3.938h1q-.937 1.625-1.25 2.328-.469 1.078-.75 2.25-.328 1.453-.328 2.938 0 3.75 2.328 7.515h-1zm2.078-5.859 1.39-.219q.11.844.641 1.297.547.438 1.5.438.97 0 1.438-.39.469-.407.469-.938 0-.47-.407-.75-.296-.188-1.437-.47-1.547-.39-2.156-.671-.594-.297-.906-.797-.297-.5-.297-1.11 0-.562.25-1.03t.687-.782q.328-.25.89-.406.579-.172 1.22-.172.984 0 1.718.281t1.078.766q.36.469.5 1.281l-1.375.188q-.093-.64-.546-1t-1.266-.36q-.969 0-1.39.328-.407.313-.407.735 0 .281.172.5t.531.375q.219.078 1.25.36 1.485.39 2.078.655.594.25.922.735.344.484.344 1.203 0 .703-.422 1.328-.406.61-1.187.953-.766.344-1.735.344-1.625 0-2.469-.672t-1.078-2zm11.625 1.219.203 1.25q-.593.125-1.062.125-.766 0-1.188-.235-.422-.25-.593-.64-.172-.406-.172-1.672v-4.766h-1.031v-1.093h1.03v-2.063l1.407-.844v2.907h1.406v1.093h-1.406v4.844q0 .61.062.781.079.172.25.282.172.093.485.093.234 0 .61-.062zm1.367 1.265v-8.296h1.266v1.25q.484-.875.89-1.157t.907-.28q.703 0 1.437.452l-.484 1.297q-.516-.297-1.031-.297-.453 0-.828.282-.36.265-.516.765-.234.75-.234 1.64v4.345h-1.406zm11.016-2.671 1.454.171q-.344 1.282-1.282 1.985-.922.703-2.359.703-1.828 0-2.89-1.125t-1.063-3.14q0-2.094 1.078-3.25t2.797-1.157q1.656 0 2.703 1.14 1.062 1.126 1.062 3.173v.375h-6.187q.078 1.375.766 2.11.703.718 1.734.718.781 0 1.328-.406t.86-1.297zm-4.609-2.282h4.625q-.094-1.047-.531-1.562-.672-.813-1.735-.813-.968 0-1.64.657-.656.64-.719 1.718zm13.242 3.922q-.781.672-1.5.953-.719.266-1.547.266-1.375 0-2.11-.672t-.734-1.703q0-.61.282-1.11.28-.515.718-.812.453-.312 1.016-.469.422-.109 1.25-.203 1.703-.203 2.516-.484v-.375q0-.86-.391-1.203-.547-.485-1.61-.485-.984 0-1.468.36-.469.344-.688 1.219l-1.375-.188q.188-.875.61-1.422.437-.547 1.25-.828.812-.297 1.875-.297t1.718.25q.672.25.985.625t.437.953q.078.36.078 1.297v1.875q0 1.969.079 2.485.093.515.359 1h-1.469q-.219-.438-.281-1.032zm-.11-3.14q-.765.312-2.296.53-.875.126-1.235.282t-.562.469q-.188.297-.188.656 0 .563.422.938.438.375 1.25.375t1.438-.344q.64-.36.937-.984.235-.47.235-1.407v-.515zm3.602 4.172v-8.297h1.25v1.156q.39-.61 1.031-.969.657-.375 1.485-.375.922 0 1.515.39.594.376.829 1.063.984-1.453 2.562-1.453 1.234 0 1.89.688.673.672.673 2.093v5.704h-1.391v-5.235q0-.844-.14-1.203-.141-.375-.5-.594-.36-.234-.844-.234-.875 0-1.453.578t-.579 1.86v4.828h-1.406v-5.391q0-.938-.344-1.406t-1.125-.469q-.593 0-1.093.312t-.735.922q-.218.594-.218 1.72v4.312h-1.407zm24.773-1.36v1.36h-7.578q-.015-.516.172-.985.281-.765.922-1.515t1.844-1.735q1.86-1.531 2.515-2.422.657-.906.657-1.703 0-.828-.594-1.406t-1.563-.578q-1.015 0-1.625.61t-.609 1.687l-1.453-.14q.156-1.626 1.125-2.47t2.594-.843q1.656 0 2.61.921.968.907.968 2.25 0 .688-.281 1.36-.282.656-.938 1.39t-2.172 2.016q-1.265 1.063-1.625 1.453-.36.375-.594.75h5.625zm2.82 4.735h-1.015q2.344-3.766 2.344-7.516 0-1.469-.344-2.922-.266-1.172-.734-2.25-.313-.703-1.266-2.344h1.016q1.468 1.97 2.172 3.938.593 1.703.593 3.562 0 2.11-.812 4.094-.797 1.969-1.953 3.438z" fill="#000"/></g></svg>