<svg fill="none" stroke-linecap="square" stroke-miterlimit="10" viewBox="0 0 800 260" xmlns="http://www.w3.org/2000/svg"><clipPath id="a"><path d="M0 0h1024v768H0V0z"/></clipPath><g clip-path="url(#a)"><path d="M0 0h1024v768H0z" fill="none"/><path d="M92.491 105.94c-1.32-8.58 3.012-17.072 11.156-21.875 8.144-4.803 18.673-5.073 27.118-.696 2.992-4.988 8.467-8.433 14.77-9.29 6.303-.859 12.694.97 17.239 4.932 2.549-4.522 7.553-7.561 13.236-8.038 5.684-.476 11.243 1.677 14.705 5.696 4.604-4.794 11.93-6.812 18.806-5.182 6.877 1.63 12.07 6.617 13.332 12.802 5.64 1.362 10.34 4.823 12.882 9.49 2.543 4.666 2.68 10.08.376 14.844 5.554 6.397 6.854 14.92 3.413 22.392-3.44 7.47-11.105 12.764-20.132 13.906-.064 7.01-4.409 13.444-11.361 16.82-6.952 3.375-15.425 3.167-22.154-.546-2.866 8.397-10.933 14.575-20.715 15.866-9.782 1.29-19.527-2.538-25.023-9.832-6.738 3.595-14.822 4.63-22.43 2.873-7.607-1.757-14.097-6.16-18.005-12.214-6.885.713-13.541-2.443-16.666-7.902-3.125-5.46-2.053-12.06 2.684-16.524-6.141-3.199-9.275-9.546-7.767-15.731 1.508-6.186 7.316-10.808 14.396-11.458z" fill="#cfe2f3" fill-rule="evenodd"/><path d="M85.726 133.46c2.898 1.51 6.246 2.194 9.595 1.962m4.385 22.465c1.44-.149 2.852-.465 4.198-.939m36.235 10.28a21.912 21.912 0 0 1-2.53-4.284m48.27-1.75c.522-1.531.86-3.107 1.01-4.7m32.503-11.574c.068-7.464-4.724-14.299-12.315-17.568m29.034-18.729c-1.23 2.542-3.107 4.797-5.484 6.588m-7.773-30.921a14.38 14.38 0 0 1 .29 3.11m-32.429-10.73a16.087 16.087 0 0 0-2.809 3.967m-25.132-1.626a13.563 13.563 0 0 0-1.36 3.422m-30.65.936c1.788.926 3.441 2.04 4.924 3.32m-43.198 19.25a20.4 20.4 0 0 0 .86 3.493" fill="none"/><path d="M92.491 105.94c-1.32-8.58 3.012-17.072 11.156-21.875 8.144-4.803 18.673-5.073 27.118-.696 2.992-4.988 8.467-8.433 14.77-9.29 6.303-.859 12.694.97 17.239 4.932 2.549-4.522 7.553-7.561 13.236-8.038 5.684-.476 11.243 1.677 14.705 5.696 4.604-4.794 11.93-6.812 18.806-5.182 6.877 1.63 12.07 6.617 13.332 12.802 5.64 1.362 10.34 4.823 12.882 9.49 2.543 4.666 2.68 10.08.376 14.844 5.554 6.397 6.854 14.92 3.413 22.392-3.44 7.47-11.105 12.764-20.132 13.906-.064 7.01-4.409 13.444-11.361 16.82-6.952 3.375-15.425 3.167-22.154-.546-2.866 8.397-10.933 14.575-20.715 15.866-9.782 1.29-19.527-2.538-25.023-9.832-6.738 3.595-14.822 4.63-22.43 2.873-7.607-1.757-14.097-6.16-18.005-12.214-6.885.713-13.541-2.443-16.666-7.902-3.125-5.46-2.053-12.06 2.684-16.524-6.141-3.199-9.275-9.546-7.767-15.731 1.508-6.186 7.316-10.808 14.396-11.458z" stroke="#000" stroke-linecap="butt" stroke-linejoin="round"/><path d="M85.726 133.46c2.898 1.51 6.246 2.194 9.595 1.962m4.385 22.465c1.44-.149 2.852-.465 4.198-.939m36.235 10.28a21.912 21.912 0 0 1-2.53-4.284m48.27-1.75c.522-1.531.86-3.107 1.01-4.7m32.503-11.574c.068-7.464-4.724-14.299-12.315-17.568m29.034-18.729c-1.23 2.542-3.107 4.797-5.484 6.588m-7.773-30.921a14.38 14.38 0 0 1 .29 3.11m-32.429-10.73a16.087 16.087 0 0 0-2.809 3.967m-25.132-1.626a13.563 13.563 0 0 0-1.36 3.422m-30.65.936c1.788.926 3.441 2.04 4.924 3.32m-43.198 19.25a20.4 20.4 0 0 0 .86 3.493" stroke="#000" stroke-linecap="butt" stroke-linejoin="round"/><path d="M111.01 107.2V93.841h1.766V107.2h-1.766zm4.683 0v-9.672h1.47v1.375q1.062-1.594 3.077-1.594.875 0 1.61.313t1.093.828q.375.5.516 1.203.094.453.094 1.594v5.953h-1.64v-5.89q0-1-.204-1.485-.187-.5-.672-.797t-1.14-.297q-1.047 0-1.813.672-.75.656-.75 2.516v5.28h-1.64zm13.954-1.469.235 1.453q-.688.14-1.235.14-.89 0-1.39-.28-.485-.282-.688-.735-.203-.468-.203-1.937v-5.578h-1.203v-1.266h1.203v-2.39l1.625-.985v3.375h1.656v1.266h-1.656v5.672q0 .687.078.89.094.203.281.328.204.11.579.11.265 0 .718-.063zm8.23-1.64 1.688.203q-.406 1.484-1.484 2.312-1.078.813-2.766.813-2.125 0-3.375-1.297-1.234-1.313-1.234-3.672 0-2.453 1.25-3.797 1.265-1.344 3.265-1.344 1.938 0 3.156 1.328 1.235 1.313 1.235 3.703v.438h-7.219q.094 1.594.906 2.453.813.844 2.016.844.906 0 1.547-.469.64-.484 1.015-1.516zm-5.39-2.657h5.406q-.11-1.218-.625-1.828-.781-.953-2.031-.953-1.125 0-1.906.766-.766.75-.844 2.015zm9.126 5.766v-9.672h1.468v1.469q.563-1.031 1.032-1.36.484-.328 1.062-.328.828 0 1.688.532l-.563 1.515q-.61-.36-1.203-.36-.547 0-.969.329t-.61.89q-.28.876-.28 1.922v5.063h-1.625zm6.228 0v-9.672h1.469v1.375q1.062-1.594 3.078-1.594.875 0 1.61.313t1.093.828q.375.5.516 1.203.093.453.093 1.594v5.953h-1.64v-5.89q0-1-.203-1.485-.188-.5-.672-.797t-1.14-.297q-1.048 0-1.813.672-.75.656-.75 2.516v5.28h-1.64zm17-3.11 1.688.204q-.406 1.484-1.484 2.312-1.078.813-2.766.813-2.125 0-3.375-1.297-1.234-1.313-1.234-3.672 0-2.453 1.25-3.797 1.266-1.344 3.266-1.344 1.937 0 3.156 1.328 1.234 1.313 1.234 3.703v.438h-7.219q.094 1.594.907 2.453.812.844 2.015.844.907 0 1.547-.469.64-.484 1.016-1.516zm-5.39-2.656h5.406q-.109-1.218-.625-1.828-.78-.953-2.03-.953-1.126 0-1.907.766-.766.75-.844 2.015zm12.72 4.297.234 1.453q-.688.141-1.235.141-.89 0-1.39-.281-.485-.281-.688-.735-.203-.468-.203-1.937v-5.578h-1.203v-1.266h1.203v-2.39l1.625-.985v3.375h1.656v1.266h-1.656v5.672q0 .687.078.89.094.203.281.328.204.11.579.11.265 0 .718-.063zM109.85 118.61q0-2.14 1.14-3.344 1.157-1.219 2.97-1.219 1.203 0 2.156.579.953.562 1.453 1.578t.5 2.312-.532 2.328-1.5 1.563q-.953.531-2.078.531-1.218 0-2.172-.578-.953-.594-1.453-1.594-.484-1.016-.484-2.156zm1.172.016q0 1.562.828 2.453.844.89 2.11.89 1.28 0 2.109-.89.828-.907.828-2.578 0-1.047-.36-1.828-.343-.782-1.03-1.204-.688-.437-1.532-.437-1.203 0-2.078.828t-.875 2.766zm8.365 4.172v-6.22h.953v.938q.36-.656.656-.86.313-.218.688-.218.531 0 1.078.328l-.36.985q-.39-.235-.765-.235-.36 0-.64.219-.266.203-.376.578-.187.563-.187 1.219v3.265h-1.047zm6.955-3.11q0-1.734.953-2.562.797-.688 1.953-.688 1.282 0 2.094.844.828.828.828 2.312 0 1.203-.359 1.891t-1.063 1.078q-.687.375-1.5.375-1.296 0-2.109-.828-.797-.844-.797-2.422zm1.078 0q0 1.188.516 1.781.531.594 1.312.594.797 0 1.313-.594t.516-1.812q0-1.156-.532-1.75-.515-.594-1.297-.594t-1.312.594q-.516.578-.516 1.781zm8.283 2.172.157.922q-.453.094-.797.094-.578 0-.89-.172-.313-.188-.454-.485-.125-.296-.125-1.25v-3.578h-.765v-.812h.765v-1.547l1.047-.625v2.172h1.063v.812h-1.063v3.64q0 .454.047.579.062.125.187.203t.36.078q.187 0 .469-.031zm1.038.938v-8.594h1.046v3.078q.735-.844 1.86-.844.703 0 1.203.281.516.266.734.75.22.47.22 1.39v3.938h-1.048v-3.937q0-.797-.344-1.156t-.968-.36q-.469 0-.89.25-.407.235-.595.657-.172.406-.172 1.14v3.406h-1.046zm10.924-2 1.093.125q-.25.953-.953 1.484t-1.78.531q-1.36 0-2.173-.844-.797-.843-.797-2.359 0-1.562.813-2.422.812-.875 2.094-.875 1.25 0 2.03.844.798.844.798 2.39v.282h-4.64q.062 1.03.577 1.578.516.531 1.297.531.578 0 .984-.297.422-.312.657-.969zm-3.453-1.704h3.468q-.062-.796-.39-1.187-.516-.61-1.313-.61-.734 0-1.234.485-.485.484-.531 1.312zm5.86 3.704v-6.22h.954v.938q.36-.656.656-.86.313-.218.688-.218.53 0 1.078.328l-.36.985q-.39-.235-.765-.235-.36 0-.64.219-.266.203-.376.578-.187.563-.187 1.219v3.265h-1.047zM114.15 136.8v-.922q-.734 1.063-1.984 1.063-.547 0-1.032-.203-.468-.22-.703-.532-.234-.328-.328-.797-.062-.297-.062-.984v-3.844h1.062v3.453q0 .813.063 1.11.093.406.406.656.328.234.812.234.47 0 .875-.234.422-.25.594-.672.188-.422.188-1.219v-3.328h1.047v6.219h-.938zm2.596 0v-6.219h.937v.875q.688-1.015 1.985-1.015.562 0 1.03.203.485.203.72.531t.328.766q.047.296.047 1.03v3.829h-1.047v-3.781q0-.657-.125-.97t-.438-.5q-.312-.202-.734-.202-.672 0-1.172.437-.485.422-.485 1.61v3.406h-1.046zm8.97-.938.157.922q-.453.094-.797.094-.578 0-.89-.172-.313-.187-.454-.484-.125-.297-.125-1.25v-3.578h-.766v-.813h.766v-1.547l1.047-.625v2.172h1.062v.813h-1.062v3.64q0 .453.047.578.062.125.187.204t.36.078q.187 0 .468-.032zm1.022.938v-6.219h.953v.938q.36-.657.656-.86.313-.218.688-.218.531 0 1.078.328l-.36.984q-.39-.234-.765-.234-.36 0-.64.218-.266.204-.376.579-.187.562-.187 1.218v3.266h-1.047zm8.09 0v-.922q-.735 1.063-1.985 1.063-.547 0-1.03-.203-.47-.22-.704-.532-.234-.328-.328-.797-.063-.297-.063-.984v-3.844h1.063v3.453q0 .813.062 1.11.094.406.407.656.328.234.812.234.469 0 .875-.234.422-.25.594-.672.187-.422.187-1.219v-3.328h1.047v6.219h-.937zm2.173-1.86 1.032-.156q.093.625.484.953.406.329 1.14.329.72 0 1.063-.282.36-.297.36-.703 0-.36-.313-.562-.219-.14-1.078-.36-1.156-.297-1.61-.5-.437-.218-.671-.593t-.235-.844q0-.406.188-.766t.515-.594q.25-.171.672-.296t.922-.125q.719 0 1.266.218.562.203.828.563t.36.953l-1.032.14q-.062-.468-.406-.734-.328-.281-.953-.281-.719 0-1.031.25-.313.234-.313.562 0 .204.125.36.14.172.406.281.157.063.938.266 1.125.312 1.562.5t.688.547.25.906q0 .531-.313 1-.297.453-.875.719-.578.25-1.312.25-1.219 0-1.86-.5-.625-.516-.797-1.5zm8.72.922.156.922q-.454.094-.797.094-.578 0-.891-.172-.312-.187-.453-.484-.125-.297-.125-1.25v-3.578h-.766v-.813h.766v-1.547l1.047-.625v2.172h1.062v.813h-1.062v3.64q0 .453.047.578.062.125.187.204t.36.078q.187 0 .468-.032zm5.286-1.062 1.094.125q-.25.953-.953 1.484t-1.781.532q-1.36 0-2.172-.844-.797-.844-.797-2.36 0-1.562.813-2.421.812-.875 2.093-.875 1.25 0 2.032.843.796.844.796 2.39v.282h-4.64q.062 1.031.578 1.578.516.532 1.297.532.578 0 .984-.297.422-.313.657-.97zm-3.453-1.703h3.47q-.063-.797-.392-1.188-.515-.609-1.312-.609-.734 0-1.234.484-.485.485-.532 1.313zm9.908 3.703v-.781q-.593.922-1.734.922-.75 0-1.375-.407-.625-.422-.969-1.156t-.343-1.687q0-.922.312-1.688t.938-1.156q.625-.406 1.39-.406.563 0 1 .234t.719.61v-3.079h1.047v8.594h-.985zm-3.328-3.11q0 1.204.5 1.797.5.579 1.188.579t1.172-.563.484-1.719q0-1.28-.5-1.875-.484-.593-1.203-.593-.703 0-1.172.578-.469.562-.469 1.797zm13.336 3.11v-.781q-.593.922-1.734.922-.75 0-1.375-.407-.625-.422-.969-1.156t-.344-1.687q0-.922.313-1.688t.938-1.156q.624-.406 1.39-.406.563 0 1 .234t.719.61v-3.079h1.047v8.594h-.985zm-3.328-3.11q0 1.204.5 1.797.5.579 1.188.579t1.172-.563.484-1.719q0-1.28-.5-1.875-.484-.593-1.203-.593-.703 0-1.172.578-.469.562-.469 1.797zm10.033 2.344q-.593.5-1.14.704-.532.203-1.157.203-1.03 0-1.578-.5t-.546-1.282q0-.453.203-.828.203-.39.547-.61.343-.233.765-.343.297-.094.938-.172 1.265-.14 1.875-.36v-.265q0-.656-.297-.922-.406-.343-1.203-.343-.735 0-1.094.265-.36.25-.531.907l-1.032-.141q.141-.656.47-1.063t.937-.625 1.406-.218 1.297.187.734.469.328.719q.047.265.047.968v1.407q0 1.468.063 1.859.078.39.28.75h-1.109q-.156-.328-.203-.766zm-.093-2.359q-.579.234-1.72.406-.656.094-.921.219-.266.11-.422.328-.14.219-.14.5 0 .422.312.703.328.281.937.281t1.078-.265q.485-.266.704-.735.171-.359.171-1.046v-.391zm5.002 2.187.156.922q-.453.094-.797.094-.578 0-.89-.172-.313-.187-.454-.484-.125-.297-.125-1.25v-3.578h-.765v-.813h.765v-1.547l1.047-.625v2.172h1.063v.813h-1.063v3.64q0 .453.047.578.062.125.187.204t.36.078q.187 0 .469-.032zm5.1.172q-.595.5-1.141.703-.532.204-1.157.204-1.03 0-1.578-.5t-.547-1.282q0-.453.203-.828.204-.39.547-.61.344-.233.766-.343.297-.094.937-.172 1.266-.14 1.875-.36v-.265q0-.656-.296-.922-.407-.343-1.203-.343-.735 0-1.094.265-.36.25-.532.907l-1.03-.141q.14-.656.468-1.063t.938-.625 1.406-.218 1.297.187.734.469.328.719q.047.265.047.968v1.407q0 1.468.062 1.859.079.39.282.75h-1.11q-.156-.328-.203-.766zm-.095-2.359q-.578.234-1.718.406-.657.094-.922.219-.266.11-.422.328-.14.219-.14.5 0 .422.312.703.328.281.937.281t1.078-.265q.485-.266.703-.735.172-.359.172-1.046v-.391zM109.65 148.94l1.031-.156q.094.625.485.953.406.328 1.14.328.719 0 1.063-.281.36-.297.36-.703 0-.36-.313-.563-.22-.14-1.079-.36-1.156-.296-1.609-.5-.437-.218-.672-.593t-.234-.844q0-.406.187-.765t.516-.594q.25-.172.672-.297t.922-.125q.718 0 1.265.219.563.203.828.562t.36.953l-1.031.141q-.063-.469-.407-.734-.328-.282-.953-.282-.719 0-1.031.25-.312.235-.312.563 0 .203.125.36.14.171.406.28.156.063.937.266 1.125.313 1.563.5t.687.547.25.906q0 .531-.312 1-.297.453-.875.719-.578.25-1.313.25-1.219 0-1.86-.5-.624-.516-.796-1.5zm6.031-1.25q0-1.734.953-2.563.797-.687 1.953-.687 1.282 0 2.094.844.828.828.828 2.312 0 1.203-.359 1.89t-1.063 1.079q-.687.375-1.5.375-1.296 0-2.109-.828-.797-.844-.797-2.422zm1.078 0q0 1.188.516 1.781.531.594 1.312.594.797 0 1.313-.594t.516-1.812q0-1.156-.532-1.75-.515-.594-1.297-.594t-1.312.594q-.516.578-.516 1.78zm10.064 3.11v-.922q-.734 1.062-1.984 1.062-.547 0-1.031-.203-.469-.219-.703-.531-.235-.328-.329-.797-.062-.297-.062-.985v-3.843h1.062v3.453q0 .812.063 1.11.094.405.406.655.328.235.813.235.468 0 .875-.235.422-.25.593-.672.188-.421.188-1.218v-3.328h1.047v6.218h-.938zm2.58 0v-6.22h.954v.938q.359-.656.656-.86.312-.218.687-.218.532 0 1.078.328l-.359.984q-.39-.234-.766-.234-.359 0-.64.219-.266.203-.375.578-.188.562-.188 1.219v3.265h-1.047zm8.075-2.282 1.03.14q-.171 1.063-.874 1.673t-1.719.61q-1.281 0-2.062-.829-.766-.844-.766-2.406 0-1 .328-1.75.344-.766 1.016-1.14.687-.376 1.5-.376 1 0 1.64.516.656.5.844 1.453l-1.031.156q-.14-.625-.516-.937-.375-.328-.906-.328-.797 0-1.297.578-.5.562-.5 1.797 0 1.265.484 1.828t1.25.562q.625 0 1.032-.375.421-.375.546-1.172zm6.187.281 1.094.125q-.25.954-.953 1.485t-1.781.531q-1.36 0-2.172-.844-.797-.843-.797-2.36 0-1.562.812-2.421.813-.875 2.094-.875 1.25 0 2.031.844.797.844.797 2.39v.282h-4.64q.062 1.03.578 1.578.515.531 1.297.531.578 0 .984-.297.422-.312.656-.969zm-3.453-1.703h3.469q-.063-.797-.39-1.187-.516-.61-1.313-.61-.735 0-1.235.485-.484.484-.531 1.312z" fill="#000"/><path d="M341.56 78.562h133.95v86.929H341.56z" fill="#cfe2f3" fill-rule="evenodd"/><path d="M341.56 78.562h133.95v86.929H341.56z" stroke="#000" stroke-linecap="butt" stroke-linejoin="round"/><path d="M374.12 120.95v-13.359h1.781v11.781h6.563v1.578h-8.344zm15.969 0h-1.64v-10.453q-.594.563-1.563 1.14-.953.563-1.719.844v-1.593q1.375-.641 2.406-1.563t1.453-1.781h1.063v13.406zm9.84 3.703v-13.375h1.485v1.25q.531-.734 1.187-1.094.672-.375 1.625-.375 1.235 0 2.172.64.953.626 1.438 1.798.484 1.156.484 2.547 0 1.484-.531 2.672t-1.547 1.828q-1.016.625-2.14.625-.813 0-1.47-.344t-1.062-.875v4.703h-1.64zm1.485-8.484q0 1.86.75 2.765.765.89 1.828.89 1.094 0 1.875-.921.781-.937.781-2.875 0-1.844-.766-2.766-.75-.921-1.812-.921-1.047 0-1.86.984-.796.969-.796 2.844zm8.875 4.78v-9.671h1.47v1.469q.562-1.031 1.03-1.36.485-.328 1.063-.328.828 0 1.687.532l-.562 1.515q-.61-.36-1.203-.36-.547 0-.969.329t-.61.89q-.28.875-.28 1.922v5.063h-1.626zm5.62-4.843q0-2.687 1.484-3.969 1.25-1.078 3.047-1.078 2 0 3.265 1.313 1.266 1.297 1.266 3.61 0 1.858-.563 2.937-.562 1.062-1.64 1.656-1.063.594-2.328.594-2.032 0-3.282-1.297-1.25-1.313-1.25-3.766zm1.687 0q0 1.86.797 2.797.812.922 2.047.922 1.218 0 2.03-.922.813-.938.813-2.844 0-1.797-.812-2.719t-2.031-.921q-1.235 0-2.047.921-.797.907-.797 2.766zm8.204 4.844 3.53-5.031-3.265-4.64h2.047l1.485 2.265q.421.64.671 1.078.407-.594.735-1.063l1.64-2.28h1.954l-3.344 4.546 3.594 5.125h-2.016l-1.984-3-.516-.813-2.547 3.813H425.8zm10.344 3.719-.188-1.531q.547.14.938.14.547 0 .875-.187.328-.172.547-.5.156-.25.5-1.22.046-.14.14-.405l-3.672-9.688h1.766l2.015 5.594q.391 1.078.704 2.25.28-1.125.671-2.203l2.079-5.64h1.64l-3.687 9.827q-.594 1.61-.922 2.203-.438.813-1 1.188t-1.344.375q-.484 0-1.062-.203zM366.24 137.83v-9.547h6.906v1.125h-5.64v2.922h5.28v1.125h-5.28v3.25h5.859v1.125h-7.125zm8.718 0v-6.906h1.062v.984q.75-1.14 2.188-1.14.625 0 1.156.218t.781.594q.266.36.375.86.063.328.063 1.14v4.25h-1.172v-4.203q0-.719-.14-1.063-.141-.359-.485-.562-.344-.219-.813-.219-.75 0-1.296.469t-.547 1.797v3.781h-1.172zm9.334 0-2.625-6.906h1.235l1.484 4.14q.234.657.438 1.391.156-.547.437-1.313l1.531-4.218h1.22l-2.626 6.906h-1.094zm4.305-3.453q0-1.922 1.078-2.844.89-.766 2.172-.766 1.422 0 2.328.938.906.922.906 2.578 0 1.328-.406 2.094-.39.765-1.156 1.187t-1.672.422q-1.453 0-2.36-.922-.89-.937-.89-2.687zm1.203 0q0 1.328.578 1.984.594.657 1.469.657t1.453-.657q.578-.672.578-2.03 0-1.282-.594-1.938-.578-.657-1.437-.657-.875 0-1.469.657-.578.656-.578 1.984zm6.6 6.11-.125-1.094q.375.109.656.109.391 0 .625-.14.235-.126.391-.36.11-.172.36-.875.03-.094.109-.281l-2.625-6.922h1.265l1.438 4q.281.765.5 1.594.203-.797.469-1.579l1.484-4.015h1.172l-2.625 7.015q-.422 1.141-.656 1.579-.313.578-.72.843-.405.282-.968.282-.328 0-.75-.157zm9.977-6.11q0-1.922 1.078-2.844.89-.766 2.172-.766 1.421 0 2.328.938.906.922.906 2.578 0 1.328-.406 2.094-.391.765-1.157 1.187t-1.671.422q-1.454 0-2.36-.922-.89-.937-.89-2.687zm1.203 0q0 1.328.578 1.984.593.657 1.469.657t1.453-.657q.578-.672.578-2.03 0-1.282-.594-1.938-.578-.657-1.438-.657-.875 0-1.468.657-.578.656-.578 1.984zm6.63 3.453v-6.906h1.063v1.047q.407-.735.735-.97.343-.233.765-.233.594 0 1.203.375l-.406 1.078q-.437-.25-.86-.25-.39 0-.702.234-.297.234-.422.64-.203.626-.203 1.36v3.625h-1.172zm7.72-3.453q0-1.922 1.078-2.844.891-.766 2.172-.766 1.422 0 2.328.938.907.922.907 2.578 0 1.328-.407 2.094-.39.765-1.156 1.187t-1.672.422q-1.453 0-2.36-.922-.89-.937-.89-2.687zm1.203 0q0 1.328.579 1.984.593.657 1.468.657t1.453-.657q.579-.672.579-2.03 0-1.282-.594-1.938-.578-.657-1.438-.657-.875 0-1.469.657-.578.656-.578 1.984zm9.21 2.406.172 1.031q-.5.11-.89.11-.642 0-1-.203-.345-.204-.485-.532t-.14-1.39v-3.97h-.86v-.905h.86v-1.72l1.171-.702v2.422h1.172v.906h-1.172v4.047q0 .5.047.64.062.141.203.235.14.078.406.078.203 0 .516-.047zm1.14 1.047v-9.547h1.172v3.422q.828-.938 2.078-.938.766 0 1.328.297t.813.844q.25.531.25 1.547v4.375h-1.172v-4.375q0-.89-.39-1.281-.376-.406-1.079-.406-.515 0-.984.28-.453.266-.656.735-.188.453-.188 1.266v3.781h-1.172zm12.147-2.219 1.203.14q-.28 1.063-1.062 1.657-.766.578-1.969.578-1.515 0-2.406-.937t-.89-2.61q0-1.75.89-2.703.906-.969 2.344-.969 1.39 0 2.265.938t.875 2.656v.313h-5.156q.063 1.14.64 1.75.579.593 1.438.593.656 0 1.11-.328.453-.344.718-1.078zm-3.843-1.906h3.859q-.078-.86-.438-1.297-.562-.687-1.453-.687-.812 0-1.36.546-.546.532-.608 1.438zm6.506 4.125v-6.906h1.062v1.047q.406-.735.735-.97.343-.233.765-.233.594 0 1.203.375l-.406 1.078q-.437-.25-.86-.25-.39 0-.702.234-.297.234-.422.64-.203.626-.203 1.36v3.625h-1.172z" fill="#000"/><path d="m241.21 123.74 100.35-1.7" fill="none"/><path d="m241.21 123.74 100.35-1.7" stroke="#000" stroke-linecap="butt" stroke-linejoin="round"/><path d="M557.56 78.562h133.95v86.929H557.56z" fill="#cfe2f3" fill-rule="evenodd"/><path d="M557.56 78.562h133.95v86.929H557.56z" stroke="#000" stroke-linecap="butt" stroke-linejoin="round"/><path d="M587 128.95v-13.359h1.781v11.781h6.563v1.578H587zm18.407-1.578v1.578h-8.828q-.016-.594.187-1.14.344-.907 1.079-1.782.75-.875 2.156-2.015 2.172-1.782 2.937-2.829t.766-1.968q0-.985-.703-1.64-.688-.673-1.813-.673-1.187 0-1.906.719-.703.703-.703 1.953l-1.688-.172q.172-1.89 1.297-2.875 1.14-.984 3.031-.984 1.922 0 3.047 1.062t1.125 2.64q0 .798-.328 1.579t-1.094 1.64q-.75.844-2.53 2.344-1.47 1.235-1.891 1.688-.422.437-.688.875h6.547zm7.637 1.578v-13.359h9.656v1.578h-7.875v4.094h7.375v1.562h-7.375v4.547h8.188v1.578h-9.969zm12.21 0v-9.672h1.468v1.375q1.062-1.594 3.078-1.594.875 0 1.61.313t1.093.828q.375.5.516 1.203.094.453.094 1.594v5.953h-1.641v-5.89q0-1-.203-1.485-.188-.5-.672-.797t-1.14-.297q-1.048 0-1.813.672-.75.656-.75 2.516v5.28h-1.64zm13.062 0-3.687-9.672h1.734l2.078 5.797q.328.937.625 1.937.203-.765.61-1.828l2.14-5.906h1.688l-3.657 9.672h-1.53zm6.031-4.844q0-2.687 1.485-3.969 1.25-1.078 3.047-1.078 2 0 3.265 1.313 1.266 1.297 1.266 3.61 0 1.859-.563 2.937-.562 1.062-1.64 1.656-1.063.594-2.328.594-2.032 0-3.282-1.297-1.25-1.313-1.25-3.766zm1.688 0q0 1.86.797 2.797.812.922 2.047.922 1.218 0 2.03-.922.813-.937.813-2.844 0-1.797-.812-2.719t-2.031-.921q-1.235 0-2.047.921-.797.907-.797 2.766zm9.22 8.563-.188-1.532q.547.141.937.141.547 0 .875-.187.328-.172.547-.5.156-.25.5-1.22.047-.14.14-.405l-3.671-9.688h1.765l2.016 5.594q.39 1.078.703 2.25.281-1.125.672-2.203l2.078-5.64h1.64l-3.687 9.827q-.594 1.61-.922 2.203-.437.813-1 1.188t-1.343.375q-.485 0-1.063-.203z" fill="#000"/><path d="M475.51 122.03h82.047" fill="none"/><path d="M475.51 122.03h82.047" stroke="#000" stroke-linecap="butt" stroke-linejoin="round"/><path d="M475.51 87.664h105.35v68.724H475.51z" fill="none"/><path d="M486.01 114.58v-13.359h1.766v5.484h6.937v-5.484h1.766v13.359h-1.766v-6.297h-6.937v6.297h-1.766zm16.817 0v-11.781h-4.406v-1.578h10.578v1.578h-4.406v11.781h-1.766zm11.396 0v-11.781h-4.406v-1.578h10.578v1.578h-4.406v11.781h-1.766zm7.99 0v-13.359h5.047q1.328 0 2.03.125.97.172 1.641.64.672.454 1.078 1.282t.407 1.828q0 1.703-1.094 2.89-1.078 1.172-3.922 1.172h-3.422v5.422h-1.765zm1.765-7h3.453q1.72 0 2.438-.64t.719-1.798q0-.843-.422-1.437t-1.125-.781q-.438-.125-1.64-.125h-3.423v4.78zm9.24 7.234 3.876-13.812h1.312l-3.86 13.812h-1.327zm14.575-1.812v1.578h-8.828q-.016-.594.187-1.14.344-.907 1.078-1.782.75-.875 2.156-2.015 2.172-1.782 2.938-2.829t.766-1.968q0-.985-.704-1.64-.687-.673-1.812-.673-1.188 0-1.906.719-.703.703-.703 1.953l-1.688-.172q.172-1.89 1.297-2.875 1.14-.984 3.031-.984 1.922 0 3.047 1.062t1.125 2.64q0 .798-.328 1.579t-1.094 1.64q-.75.844-2.531 2.344-1.469 1.235-1.89 1.688-.423.437-.688.875h6.547z" fill="#000"/><path d="M247.1 46.562h105.35v68.724H247.1z" fill="none"/><path d="M257.6 73.482V60.123h1.766v5.484h6.937v-5.484h1.766v13.359h-1.766v-6.297h-6.937v6.297H257.6zm16.817 0V61.701h-4.406v-1.578h10.578V61.7h-4.406v11.781h-1.766zm11.396 0V61.701h-4.406v-1.578h10.578V61.7h-4.406v11.781h-1.766zm7.99 0V60.123h5.047q1.328 0 2.03.125.97.172 1.641.64.672.454 1.079 1.282t.406 1.828q0 1.703-1.094 2.89-1.078 1.172-3.922 1.172h-3.422v5.422h-1.765zm1.765-7h3.453q1.72 0 2.438-.64t.719-1.798q0-.843-.422-1.437t-1.125-.781q-.438-.125-1.64-.125h-3.423v4.78zm9.24 7.234 3.876-13.812h1.312l-3.86 13.812h-1.327zm12.137-.234h-1.64V63.029q-.595.563-1.563 1.14-.954.563-1.72.844V63.42q1.376-.641 2.407-1.563t1.453-1.781h1.063v13.406zm5.11 0v-1.875h1.875v1.875h-1.875zm10.449 0h-1.64V63.029q-.595.563-1.563 1.14-.953.563-1.72.844V63.42q1.376-.641 2.407-1.563t1.453-1.781h1.063v13.406zM256.73 90.638q0-2.688 1.484-3.969 1.25-1.078 3.047-1.078 2 0 3.266 1.313 1.266 1.297 1.266 3.609 0 1.86-.563 2.937-.563 1.063-1.64 1.657-1.063.593-2.329.593-2.03 0-3.28-1.296-1.25-1.313-1.25-3.766zm1.688 0q0 1.86.796 2.797.813.922 2.047.922 1.22 0 2.031-.922.813-.938.813-2.844 0-1.797-.813-2.719t-2.03-.922q-1.235 0-2.048.922-.796.907-.796 2.766zm9.282 4.844V85.81h1.468v1.469q.563-1.031 1.031-1.36.485-.328 1.063-.328.828 0 1.688.531l-.563 1.516q-.61-.36-1.203-.36-.547 0-.969.329t-.61.89q-.28.875-.28 1.922v5.063H267.7zM257.6 117.48v-13.359h1.766v5.484h6.937v-5.484h1.766v13.359h-1.766v-6.297h-6.937v6.297H257.6zm16.817 0v-11.781h-4.406v-1.578h10.578v1.578h-4.406v11.781h-1.766zm11.396 0v-11.781h-4.406v-1.578h10.578v1.578h-4.406v11.781h-1.766zm7.99 0v-13.359h5.047q1.328 0 2.03.125.97.172 1.641.64.672.454 1.079 1.282t.406 1.828q0 1.703-1.094 2.89-1.078 1.172-3.922 1.172h-3.422v5.422h-1.765zm1.765-7h3.453q1.72 0 2.438-.64t.719-1.798q0-.843-.422-1.437t-1.125-.781q-.438-.125-1.64-.125h-3.423v4.78zm9.24 7.234 3.876-13.812h1.312l-3.86 13.812h-1.327zm14.575-1.812v1.578h-8.828q-.016-.594.187-1.14.344-.907 1.078-1.782.75-.875 2.156-2.015 2.172-1.782 2.938-2.829t.766-1.968q0-.985-.704-1.64-.687-.673-1.812-.673-1.188 0-1.906.719-.703.703-.703 1.953l-1.688-.172q.172-1.89 1.297-2.875 1.14-.984 3.031-.984 1.922 0 3.047 1.062t1.125 2.64q0 .798-.328 1.579t-1.094 1.64q-.75.844-2.531 2.344-1.469 1.235-1.89 1.688-.423.437-.688.875h6.547z" fill="#000"/></g></svg>