<?xml version="1.0" encoding="UTF-8" standalone="no"?>
<svg width="79px" height="18px" viewBox="0 0 79 18" version="1.1" xmlns="http://www.w3.org/2000/svg" xmlns:xlink="http://www.w3.org/1999/xlink">
    <!-- Generator: Sketch 45 (43475) - http://www.bohemiancoding.com/sketch -->
    <title>logo</title>
    <desc>Created with Sketch.</desc>
    <defs></defs>
    <g id="Page-1" stroke="none" stroke-width="1" fill="none" fill-rule="evenodd">
        <g id="Envoy-Blog" transform="translate(-40.000000, -35.000000)" fill="#FFFFFF">
            <g id="logo" transform="translate(40.000000, 35.000000)">
                <g id="Group-8" transform="translate(0.000000, 0.183673)">
                    <path d="M0.115791962,0.0734693878 L11.4111111,0.0734693878 L11.4111111,3.88212245 L4.74149409,3.88212245 L4.74149409,6.57991837 L10.4429409,6.57991837 L10.4429409,10.3885714 L4.74149409,10.3885714 L4.74149409,13.4566531 L11.6800473,13.4566531 L11.6800473,17.2653061 L0.115791962,17.2653061 L0.115791962,0.0734693878 Z M14.3215981,0.0734693878 L19.0548747,0.0734693878 L22.9275556,7.74367347 L24.5949598,11.6052245 L24.7025343,11.6052245 C24.6487468,11.1467732 24.5859956,10.6442476 24.514279,10.0976327 C24.4425623,9.55101768 24.3798111,8.99118654 24.3260236,8.41812245 C24.2722361,7.84505836 24.2229317,7.27200287 24.1781087,6.69893878 C24.1332858,6.12587469 24.1108747,5.57485979 24.1108747,5.04587755 L24.1108747,0.0734693878 L28.5214279,0.0734693878 L28.5214279,17.2653061 L23.7881513,17.2653061 L19.9154704,9.56865306 L18.2480662,5.73355102 L18.1404917,5.73355102 C18.2480667,6.72098453 18.373569,7.79656561 18.5170024,8.96032653 C18.6604357,10.1240875 18.7321513,11.2349335 18.7321513,12.292898 L18.7321513,17.2653061 L14.3215981,17.2653061 L14.3215981,0.0734693878 Z M29.4417872,0.0734693878 L34.3364255,0.0734693878 L36.1651915,7.58497959 C36.4161998,8.50188214 36.6313466,9.40554657 36.8106383,10.296 C36.98993,11.1864534 37.2050768,12.0989341 37.4560851,13.0334694 L37.5636596,13.0334694 C37.8146679,12.0989341 38.0342969,11.1864534 38.2225532,10.296 C38.4108095,9.40554657 38.621474,8.50188214 38.8545532,7.58497959 L40.6295319,0.0734693878 L45.3628085,0.0734693878 L40.199234,17.2653061 L34.6053617,17.2653061 L29.4417872,0.0734693878 Z M68.9514988,11.3407347 L63.6803499,0.0734693878 L68.6287754,0.0734693878 L69.919669,3.67053061 C70.134819,4.32294204 70.3499658,4.9577112 70.5651158,5.57485714 C70.7802659,6.19200309 71.0043771,6.83558849 71.2374563,7.50563265 L71.3450307,7.50563265 C71.5781099,6.83558849 71.8067034,6.19200309 72.030818,5.57485714 C72.2549326,4.9577112 72.483526,4.32294204 72.7166052,3.67053061 L74.0074988,0.0734693878 L78.8483499,0.0734693878 L73.5772009,11.3407347 L73.5772009,17.2653061 L68.9514988,17.2653061 L68.9514988,11.3407347 Z" id="ENV-Y"></path>
                </g>
                <path d="M54.8004152,10.4718233 C54.6091722,10.5478879 54.5168383,10.7620203 54.5941816,10.9501015 C54.6715249,11.1381826 54.8892572,11.22899 55.0805002,11.1529254 L59.4343523,9.42123314 C60.1271583,9.1456779 60.1302512,8.46634538 59.4419632,8.18315709 L53.7044861,5.82253719 C53.077624,5.56462193 52.4981438,5.94492498 52.4981438,6.61313924 L52.4981438,16.8229776 C52.4981438,17.025196 52.3303098,17.1906888 52.1250553,17.1906888 L50.8185003,17.1906888 C50.5436505,17.1906888 50.1762655,16.9756989 50.0458546,16.7385908 L46.23633,9.81226202 C45.90562,9.21097811 45.9271869,8.20553992 46.2829619,7.61927023 L49.8035118,1.81787341 C50.1589378,1.2321788 51.0496141,0.734693878 51.7431654,0.734693878 L58.9192147,0.734693878 C59.611304,0.734693878 60.4915313,1.23393129 60.8374982,1.82253069 L64.2631348,7.6506245 C64.6105553,8.24169685 64.6213032,9.24990488 64.2866677,9.84830925 L60.7941069,16.0938016 C60.4618696,16.6879173 59.5963046,17.1906888 58.9061602,17.1906888 L54.6528105,17.1906888 C54.4465198,17.1906888 54.2792881,17.3551556 54.2792881,17.5580357 C54.2792881,17.7609158 54.4465198,17.9253827 54.6528105,17.9253827 L58.9061602,17.9253827 C59.8686113,17.9253827 60.9850918,17.2768647 61.4486885,16.4478483 L64.9412493,10.2023559 C65.4018757,9.37865119 65.3882097,8.09670244 64.9098953,7.28293806 L61.4842587,1.45484425 C61.0047619,0.639068139 59.8779928,0 58.9192147,0 L51.7431654,0 C50.7865378,0 49.6522303,0.633564447 49.1620257,1.44135637 L45.6414757,7.24275318 C45.1507349,8.0514286 45.1232508,9.332724 45.5792521,10.1618077 L49.3887767,17.0881365 C49.6497979,17.5627151 50.2695416,17.9253827 50.8185003,17.9253827 L52.1250553,17.9253827 C52.7433307,17.9253827 53.2451888,17.4305254 53.2451888,16.8229776 L53.2451888,6.61313924 C53.2451888,6.46918988 53.2819296,6.4450775 53.4161697,6.5003091 L59.0046668,8.79963284 L54.8004152,10.4718233 Z" id="Path-2" fill-rule="nonzero"></path>
            </g>
        </g>
    </g>
</svg>