<svg width="79" height="18" xmlns="http://www.w3.org/2000/svg"><g fill="#fff" fill-rule="evenodd"><path d="M.116.257H11.41v3.809H4.74v2.698h5.702v3.808H4.74v3.068h6.939v3.81H.116V.256zm14.206 0h4.733l3.873 7.67 1.667 3.862h.108c-.054-.459-.117-.961-.188-1.508-.072-.546-.135-1.106-.189-1.68s-.103-1.145-.148-1.718a21.22 21.22 0 0 1-.067-1.653V.257h4.41V17.45h-4.733l-3.872-7.697-1.668-3.835h-.107c.107.988.233 2.063.376 3.227.144 1.164.215 2.275.215 3.333v4.972h-4.41V.257zm15.12 0h4.894l1.83 7.512c.25.917.465 1.82.645 2.71.179.891.394 1.804.645 2.738h.108c.25-.934.47-1.847.659-2.737.188-.89.398-1.794.632-2.711L40.63.257h4.733L40.199 17.45h-5.594L29.442.257zm39.51 11.267L63.68.257h4.948l1.291 3.597c.215.653.43 1.287.645 1.905l.673 1.93h.107c.233-.67.462-1.313.686-1.93.224-.618.453-1.252.686-1.905l1.29-3.597h4.842l-5.271 11.267v5.925h-4.626v-5.925z"/><path d="M54.8 10.472a.365.365 0 0 0-.206.478.376.376 0 0 0 .486.203l4.354-1.732c.693-.275.696-.954.008-1.238l-5.738-2.36c-.627-.258-1.206.122-1.206.79v10.21a.371.371 0 0 1-.373.368h-1.307c-.275 0-.642-.215-.773-.452l-3.809-6.926c-.33-.602-.31-1.607.047-2.193l3.52-5.802c.356-.585 1.246-1.083 1.94-1.083h7.176c.692 0 1.572.5 1.918 1.088l3.426 5.828c.347.591.358 1.6.023 2.198l-3.492 6.245c-.333.594-1.198 1.097-1.888 1.097h-4.254c-.206 0-.373.164-.373.367s.167.368.373.368h4.254c.962 0 2.079-.649 2.542-1.478l3.493-6.245c.46-.824.447-2.106-.032-2.92l-3.425-5.828C61.004.64 59.878 0 58.919 0h-7.176c-.957 0-2.091.634-2.581 1.442l-3.52 5.801c-.492.809-.519 2.09-.063 2.92l3.81 6.926c.26.474.88.837 1.43.837h1.306c.618 0 1.12-.495 1.12-1.103V6.613c0-.143.037-.168.17-.112l5.59 2.299-4.205 1.672z" fill-rule="nonzero"/></g></svg>