<?xml version="1.0" encoding="UTF-8" standalone="no"?>
<svg width="423px" height="98px" viewBox="0 0 423 98" version="1.1" xmlns="http://www.w3.org/2000/svg" xmlns:xlink="http://www.w3.org/1999/xlink">
    <!-- Generator: Sketch 45 (43475) - http://www.bohemiancoding.com/sketch -->
    <title>Envoy Logo</title>
    <desc>Created with Sketch.</desc>
    <defs></defs>
    <g id="Page-1" stroke="none" stroke-width="1" fill="none" fill-rule="evenodd">
        <g id="Envoy-R2" transform="translate(-509.000000, -185.000000)">
            <g id="Envoy-Logo" transform="translate(509.000000, 186.000000)">
                <path d="M0.62,0.4 L61.1,0.4 L61.1,21.136 L25.388,21.136 L25.388,35.824 L55.916,35.824 L55.916,56.56 L25.388,56.56 L25.388,73.264 L62.54,73.264 L62.54,94 L0.62,94 L0.62,0.4 Z M76.684,0.4 L102.028,0.4 L122.764,42.16 L131.692,63.184 L132.268,63.184 C131.979999,60.6879875 131.644002,57.9520149 131.26,54.976 C130.875998,51.9999851 130.540001,48.9520156 130.252,45.832 C129.963999,42.7119844 129.700001,39.5920156 129.46,36.472 C129.219999,33.3519844 129.1,30.3520144 129.1,27.472 L129.1,0.4 L152.716,0.4 L152.716,94 L127.372,94 L106.636,52.096 L97.708,31.216 L97.132,31.216 C97.7080029,36.5920269 98.3799962,42.4479683 99.148,48.784 C99.9160038,55.1200317 100.3,61.1679712 100.3,66.928 L100.3,94 L76.684,94 L76.684,0.4 Z M157.644,0.4 L183.852,0.4 L193.644,41.296 C194.988007,46.288025 196.139995,51.2079758 197.1,56.056 C198.060005,60.9040242 199.211993,65.8719746 200.556,70.96 L201.132,70.96 C202.476007,65.8719746 203.651995,60.9040242 204.66,56.056 C205.668005,51.2079758 206.795994,46.288025 208.044,41.296 L217.548,0.4 L242.892,0.4 L215.244,94 L185.292,94 L157.644,0.4 Z M369.196,61.744 L340.972,0.4 L367.468,0.4 L374.38,19.984 C375.532006,23.5360178 376.683994,26.9919832 377.836,30.352 C378.988006,33.7120168 380.187994,37.2159818 381.436,40.864 L382.012,40.864 C383.260006,37.2159818 384.483994,33.7120168 385.684,30.352 C386.884006,26.9919832 388.107994,23.5360178 389.356,19.984 L396.268,0.4 L422.188,0.4 L393.964,61.744 L393.964,94 L369.196,94 L369.196,61.744 Z" id="ENV-Y" fill="#FFFFFF"></path>
                <path d="M292.634669,94.59375 C292.634669,94.59375 296.225923,94.59375 300.641751,94.59375 L315.408934,94.59375 C319.831123,94.59375 325.138608,91.4615778 327.270269,87.5856025 L345.970942,53.5823663 C348.099587,49.7118733 348.035127,43.4775475 345.823998,39.6524759 L327.481666,7.9217429 C325.271866,4.09896985 319.898848,1 315.478833,1 L277.055177,1 C272.635995,1 267.21531,4.08008243 264.95204,7.87234773 L246.101501,39.4577304 C243.836304,43.2532232 243.702846,49.4781749 245.810071,53.3738564 L266.207905,91.0838689 C267.25644,93.0223227 269.899845,94.59375 272.104122,94.59375 L279.09998,94.59375 C281.307836,94.59375 283.097656,92.7930329 283.097656,90.591767 L283.097656,35.0048692 C283.097656,32.794635 284.746809,31.692818 286.785047,32.545526 L317.505969,45.3977899 C319.542458,46.2497663 319.541471,47.6084937 317.487254,48.4392692 L294.174856,57.8673714" id="Path-2" stroke="#FF00BF" stroke-width="4" stroke-linecap="round" stroke-linejoin="round"></path>
            </g>
        </g>
    </g>
</svg>